<?xml version="1.0" encoding="UTF-8"?>
<svg id="_레이어_1" data-name="레이어 1" xmlns="http://www.w3.org/2000/svg" viewBox="0 0 941.65 765.28">
  <defs>
    <style>
      .cls-1 {
        fill: #392b20;
      }

      .cls-1, .cls-2, .cls-3, .cls-4, .cls-5, .cls-6, .cls-7 {
        stroke-width: 0px;
      }

      .cls-8 {
        stroke: #1d1610;
      }

      .cls-8, .cls-9, .cls-10, .cls-11, .cls-12, .cls-13, .cls-14, .cls-15, .cls-16, .cls-17 {
        fill: none;
        stroke-width: 2px;
      }

      .cls-9 {
        stroke: #375b80;
      }

      .cls-2 {
        fill: #4e9dec;
      }

      .cls-3 {
        fill: #6eb6ff;
      }

      .cls-10 {
        stroke: #67563e;
      }

      .cls-11 {
        stroke: #5eaaf6;
      }

      .cls-12 {
        stroke: #446486;
      }

      .cls-13 {
        stroke: #547190;
      }

      .cls-4 {
        fill: #4e3b2b;
      }

      .cls-14 {
        stroke: #b7dbff;
      }

      .cls-5 {
        fill: #000;
      }

      .cls-6 {
        fill: #94815b;
      }

      .cls-15 {
        stroke: #274f76;
      }

      .cls-16 {
        stroke: #443326;
      }

      .cls-7 {
        fill: #fff;
      }

      .cls-17 {
        stroke: #715e43;
      }
    </style>
  </defs>
  <path class="cls-3" d="M908.34,165.74c-58.44-8.13-117.89-5.81-174.03,10.98-21.65,6.47-43.38,12.89-65.18,19.24-11.03,3.21-22.65,6.25-34.86,9.1-29.39,6.87-58.97,9.93-88.72,9.17-34.47-.87-68.78-5.09-102.93-12.65-21.19-4.69-42.66-9.45-64.41-14.26-26.62-5.89-56.08-10.79-88.37-14.72-28.08-3.41-55.86-4.8-83.33-4.15-24.78.59-48.17,3.15-70.16,7.68-16.51,3.41-33.16,7.22-49.94,11.44-13.92,3.51-27.68,6.55-41.29,9.12-10.16,1.92-20.91,3.05-32.24,3.4l-1.21,550.91c0,.34.17.51.51.51l54.76.18v.11l130.32.31c-.05.04-.09.09-.15.13l82.48.19s-.08-.08-.13-.12l198.13.47s-.02.02-.04.03l27.39.03,341.94.81c-.08.07-.16.15-.24.22l26.02-.16,34.91.08v-.3l20.53-.13c.35,0,.52-.17.53-.52l1.21-584.18c-7.25-.96-14.42-1.94-21.52-2.93Z"/>
  <g>
    <path class="cls-15" d="M13.38,189.93c-.27.06-.42.21-.44.44-.15,2.31-.17,5.55-.06,9.72" vector-effect="non-scaling-stroke"/>
    <path class="cls-9" d="M12.88,200.09l-1.21,550.91c0,.34.17.51.51.51l89.29.29" vector-effect="non-scaling-stroke"/>
    <path class="cls-8" d="M101.47,751.8c4.34.33,8.65.49,12.93.48,6.58,0,10.89.02,12.92.08,23.39.71,46.66.67,69.79-.12" vector-effect="non-scaling-stroke"/>
    <path class="cls-9" d="M197.11,752.24l82.48.19" vector-effect="non-scaling-stroke"/>
    <path class="cls-8" d="M279.59,752.43c9.93.83,20.03.87,30.32.13" vector-effect="non-scaling-stroke"/>
    <path class="cls-9" d="M309.91,752.56h71.28" vector-effect="non-scaling-stroke"/>
    <path class="cls-8" d="M381.19,752.56c6.68.59,14.49.86,23.42.81,34.73-.17,59.04-.36,72.95-.56" vector-effect="non-scaling-stroke"/>
    <path class="cls-9" d="M477.56,752.81l76.59.09" vector-effect="non-scaling-stroke"/>
    <path class="cls-8" d="M554.15,752.9c31,1.16,61.83,1.25,92.5.26" vector-effect="non-scaling-stroke"/>
    <path class="cls-9" d="M646.65,753.16l48.68.37" vector-effect="non-scaling-stroke"/>
    <path class="cls-8" d="M695.33,753.53c11.66.72,23.53.86,35.6.41.21,0,.41-.07.6-.19l.37-.23" vector-effect="non-scaling-stroke"/>
    <path class="cls-15" d="M731.9,753.52l4-.18" vector-effect="non-scaling-stroke"/>
    <path class="cls-8" d="M735.9,753.34h11.93c.33.01.65.09.94.24.42.22.78.34,1.09.35,4.2.12,8.7.19,13.5.2,28.05.08,55.81,0,83.3-.25" vector-effect="non-scaling-stroke"/>
    <path class="cls-9" d="M846.66,753.88l81.46-.51c.35,0,.52-.17.53-.52l1.21-584.18" vector-effect="non-scaling-stroke"/>
    <path class="cls-15" d="M929.86,168.67l-.26-11.43" vector-effect="non-scaling-stroke"/>
    <path class="cls-13" d="M846.66,753.88c7.11-6.35,12.02-13.57,14.74-21.68,1.36-4.06,1.97-7.86,1.84-11.4-.41-10.83-7.39-20.45-16.5-26.04-7.22-4.43-15.77-7.44-25.65-9.03-20.62-3.33-44.71-.74-60.06,13.41-4.6,4.23-8.84,9.55-12.73,15.95-.36.59-.55.54-.56-.15-.02-1.06-.1-2.15-.4-3.2-4.65-16.09-15.69-31.84-28.6-42.53-10.85-8.98-22.45-13.5-34.78-13.55-11.46-.05-24.03,1.53-32.8,8.73-7.24,5.94-11.6,15.98-7.73,24.86.18.4.07.52-.34.35-19.66-8.35-45.29-10.31-65.69-1.6-10.62,4.53-17.9,11.43-24.55,21.16-4.68,6.85-8.29,14.01-8.74,22.41-.49,9.09,2.86,16.2,10.04,21.33" vector-effect="non-scaling-stroke"/>
    <path class="cls-13" d="M477.56,752.81c8.91-7.63,14.29-16.37,16.15-26.2,3.39-17.96-9.58-31.49-25.11-37.42-18.11-6.92-40.35-7.9-58.71-1.56-10.37,3.58-18.75,9.82-25.16,18.73-.41.57-.51.52-.3-.15.23-.74.55-1.68.59-2.44,1.11-21.35-16.01-32.86-35.14-34.26-25.3-1.86-58.68,8.17-71.69,32.14-3.97,7.31-6.57,15.35-7.79,24.12-1.49,10.63,1.58,19.51,9.19,26.66" vector-effect="non-scaling-stroke"/>
    <path class="cls-13" d="M197.11,752.24c2.77-2.39,5.11-4.76,7.02-7.12,7.45-9.23,12.57-21.86,8.84-33.47-7.37-22.95-37.09-29.54-58.05-29.21-18.8.3-36.47,5.81-48.39,20.49-6.33,7.79-10.46,15.01-12.37,21.64-3.13,10.87-.7,19.94,7.31,27.23" vector-effect="non-scaling-stroke"/>
    <path class="cls-12" d="M735.9,753.34v-.19" vector-effect="non-scaling-stroke"/>
    <path class="cls-13" d="M735.9,753.15l11.95.05c1.65,0,1.86-.53.61-1.61-1.78-1.54-3.2-3.62-4.26-6.24" vector-effect="non-scaling-stroke"/>
    <path class="cls-12" d="M744.2,745.35c0-.47-.09-.87-.24-1.22-.15-.36-.37-.41-.66-.15-.22.19-.42.47-.6.84" vector-effect="non-scaling-stroke"/>
    <path class="cls-13" d="M742.7,744.82c-2.45,3.08-5.2,5.46-8.26,7.13" vector-effect="non-scaling-stroke"/>
    <path class="cls-12" d="M734.44,751.95c-.89.55-1.72.88-2.49.99-.21.03-.28.14-.22.35.03.09.08.16.17.23" vector-effect="non-scaling-stroke"/>
    <path class="cls-13" d="M695.33,753.53c-5.11-3.85-9.54-8.81-13.29-14.86-2.44-3.95-4.64-7.64-6.61-11.05-1.17-2.03-2.27-3.57-3.32-4.6-2.1-2.07-4.88-3.88-6.53-6.32-.33-.47-.47-.42-.42.15.87,10.81-4.2,21.55-11.14,29.65-1.71,1.99-4.17,4.21-7.37,6.66" vector-effect="non-scaling-stroke"/>
    <path class="cls-11" d="M929.86,168.67c-7.25-.96-14.42-1.94-21.52-2.93-58.44-8.13-117.89-5.81-174.03,10.98-21.65,6.47-43.38,12.89-65.18,19.24-11.03,3.21-22.65,6.25-34.86,9.1-29.39,6.87-58.97,9.93-88.72,9.17-34.47-.87-68.78-5.09-102.93-12.65-21.19-4.69-42.66-9.45-64.41-14.26-26.62-5.89-56.08-10.79-88.37-14.72-28.08-3.41-55.86-4.8-83.33-4.15-24.78.59-48.17,3.15-70.16,7.68-16.51,3.41-33.16,7.22-49.94,11.44-13.92,3.51-27.68,6.55-41.29,9.12-10.16,1.92-20.91,3.05-32.24,3.4" vector-effect="non-scaling-stroke"/>
    <path class="cls-13" d="M381.19,752.56c-.7-.77-1.42-1.51-2.15-2.23-4.51-4.43-6.32-11.98-5.93-18,.03-.43-.12-.5-.44-.22-3.6,3.15-7.62,5.3-12.06,6.46-6.65,1.74-14.32,2.95-22.99,3.64-1.59.12-3.11.66-4.55,1.29-5.79,2.52-11.86,5.82-18.01,7.62-1.71.51-3.43.99-5.15,1.44" vector-effect="non-scaling-stroke"/>
    <path class="cls-11" d="M735.9,753.15c-1.17.01-1.66-.39-1.46-1.2" vector-effect="non-scaling-stroke"/>
    <path class="cls-11" d="M744.2,745.35c-.47-.6-.97-.78-1.5-.53" vector-effect="non-scaling-stroke"/>
    <path class="cls-13" d="M391.35,324.46c17.27-.47,28.77-15.01,30.51-31.54,2.01-19.24-1.88-37.46-11.69-54.67-8.45-14.82-21.1-22.7-38.08-27.03-11.56-2.94-25.12-1.94-33.08,8.18-7.63,9.71-4.07,23.68.7,34.98,2.79,6.61,5.47,12.48,8.04,17.61.88,1.77,1.42,3.6,1.63,5.49,1.45,13.5,2.97,30.61,14.89,39.06,7.55,5.35,17.93,8.17,27.08,7.92" vector-effect="non-scaling-stroke"/>
    <path class="cls-14" d="M734.27,229.06c.07-2.24-1.84-4.11-4.26-4.18h0c-2.42-.07-4.43,1.68-4.5,3.92s1.84,4.11,4.26,4.18h0c2.42.07,4.43-1.68,4.5-3.92" vector-effect="non-scaling-stroke"/>
    <path class="cls-14" d="M271.59,236.02c0-1.96-1.58-3.55-3.54-3.56h-1.38c-1.96,0-3.55,1.58-3.56,3.54v.68c0,1.96,1.58,3.55,3.54,3.56h1.38c1.96,0,3.55-1.58,3.56-3.54h0s0-.68,0-.68" vector-effect="non-scaling-stroke"/>
    <path class="cls-14" d="M732.63,251.18c-.4-5.63-5.29-9.87-10.92-9.46l-1.97.14c-5.63.4-9.87,5.29-9.46,10.92l.17,2.35c.4,5.63,5.29,9.87,10.92,9.46l1.97-.14c5.63-.4,9.87-5.29,9.46-10.92l-.17-2.35" vector-effect="non-scaling-stroke"/>
    <path class="cls-13" d="M223.11,249.38c-13.45-4.9-27.62,1.71-39.29,9.8-14.11,9.79-21.09,25.51-23.55,42.5-3.14,21.69.05,55.99,25.4,64.21,11.35,3.68,24.91-1.17,34.38-8.29,7.43-5.58,11.41-13.45,11.94-23.62.35-6.71.14-13.83-.63-21.34-.14-1.44-.11-3.2.28-4.61,1.85-6.85,3.48-13.67,4.89-20.45,3.01-14.4,3.21-32.14-13.42-38.2" vector-effect="non-scaling-stroke"/>
    <path class="cls-14" d="M276.84,252.67c-.64-2.13-3.02-3.29-5.32-2.6-2.3.69-3.65,2.97-3.01,5.1.64,2.13,3.02,3.29,5.32,2.6,2.3-.69,3.65-2.97,3.01-5.1" vector-effect="non-scaling-stroke"/>
    <path class="cls-13" d="M675.32,380.57c12.47,5.58,23.83,3.92,34.06-4.98,9.69-8.43,14.56-22.75,16.66-35.56,3.71-22.54.2-47.91-17.81-63.35-11.08-9.5-25.94-18.68-40.81-12.29-12.43,5.34-14.75,19.35-14.05,31.93.43,7.73,1.19,15.53,2.28,23.38.22,1.56.15,3.16-.21,4.8-1.65,7.55-3.12,15.15-3.52,22.33-.54,9.76,2.54,17.83,9.23,24.21,4.21,4.01,8.94,7.19,14.17,9.53" vector-effect="non-scaling-stroke"/>
    <path class="cls-14" d="M286.67,282.06c1.81-2.12,2.11-4.21.9-6.27-1.23-2.09-3-2.59-5.32-1.5-3.1,1.45-6.29-.25-8.72,3-2.33,3.09-2.78,6.26-1.35,9.49,2.31,5.24,8.39,6.13,11.86,1.39,1.44-1.96,1.09-4.3,2.63-6.11" vector-effect="non-scaling-stroke"/>
    <path class="cls-13" d="M321.31,396.12c6.61-17.73,7.5-39.5,1.33-57.85-3.8-11.29-10.94-20.5-21.43-27.63-9.17-6.23-19.43-11.68-30.97-9.17-19.25,4.18-19.99,23.41-18.06,39.12.81,6.57,1.69,12.56,2.64,17.97.33,1.88.31,3.83-.06,5.86-.69,3.79-1.29,7.6-1.8,11.43-1.09,8.2-1.44,16.04,1.54,23.57,3.17,8.01,10.78,14.09,18.36,17.97,10.99,5.62,21.06,5.99,30.23,1.1,8.81-4.7,14.77-13.1,18.22-22.37" vector-effect="non-scaling-stroke"/>
    <path class="cls-14" d="M126.94,310.9c-.53-2.34-3.1-3.76-5.74-3.16-2.64.6-4.35,2.98-3.81,5.33.53,2.34,3.1,3.76,5.74,3.16,2.64-.6,4.35-2.98,3.81-5.33h0" vector-effect="non-scaling-stroke"/>
    <path class="cls-14" d="M122.23,331.38c-.01-2.25-2.24-4.07-4.97-4.05-2.73.01-4.94,1.85-4.93,4.11.01,2.25,2.24,4.07,4.97,4.05,2.73-.01,4.94-1.85,4.93-4.11" vector-effect="non-scaling-stroke"/>
    <path class="cls-14" d="M125.4,354.81c0-6.75-5.48-12.23-12.23-12.23h0c-6.75,0-12.23,5.48-12.23,12.23h0c0,6.75,5.48,12.23,12.23,12.23h0c6.75,0,12.23-5.48,12.23-12.23h0" vector-effect="non-scaling-stroke"/>
    <path class="cls-14" d="M866.8,369.92c-.28-2.18-2.43-3.7-4.81-3.4s-4.09,2.31-3.82,4.49h0c.28,2.18,2.43,3.7,4.81,3.4,2.38-.3,4.09-2.31,3.82-4.49h0" vector-effect="non-scaling-stroke"/>
    <path class="cls-14" d="M871.32,387.66c0-2.4-1.95-4.35-4.35-4.35h0c-2.4,0-4.35,1.95-4.35,4.35s1.95,4.35,4.35,4.35c2.4,0,4.35-1.95,4.35-4.35h0" vector-effect="non-scaling-stroke"/>
    <path class="cls-14" d="M590.6,387.57c0-2.1-1.71-3.81-3.81-3.81s-3.81,1.71-3.81,3.81,1.71,3.81,3.81,3.81,3.81-1.71,3.81-3.81" vector-effect="non-scaling-stroke"/>
    <path class="cls-14" d="M582.85,399.97c-5.25-3.17-10.38-3.5-15.39-1-11.5,5.74-11.06,21.94.2,27.36,3.61,1.74,7.2,2.06,10.79.95,6.87-2.11,10.63-7.1,11.29-14.95.03-.36.21-.7.49-.92,2.84-2.26,4.36-5.62,2.64-9-1.68-3.28-5.54-4.37-8.81-2.44-.41.24-.81.24-1.21,0" vector-effect="non-scaling-stroke"/>
    <path class="cls-14" d="M529.66,461.51c0-1.95-1.57-3.53-3.52-3.54h-1.48c-1.95,0-3.53,1.57-3.54,3.52h0v.62c0,1.95,1.57,3.53,3.52,3.54h1.48c1.95,0,3.53-1.57,3.54-3.52h0v-.62" vector-effect="non-scaling-stroke"/>
    <path class="cls-14" d="M532.47,475.65c-1.25-2.19-4.2-2.85-6.59-1.48h0c-2.39,1.37-3.31,4.25-2.06,6.43,1.25,2.19,4.2,2.85,6.59,1.48,0,0,0,0,0,0,2.39-1.37,3.31-4.25,2.06-6.43" vector-effect="non-scaling-stroke"/>
    <path class="cls-14" d="M240.89,492.15c-.03-2.31-2.26-4.16-4.97-4.12-2.71.04-4.88,1.94-4.85,4.26h0c.03,2.31,2.26,4.16,4.97,4.12,2.71-.04,4.88-1.94,4.85-4.26h0" vector-effect="non-scaling-stroke"/>
    <path class="cls-14" d="M522.6,517.8c0-8.02-6.51-14.53-14.53-14.53s-14.53,6.51-14.53,14.53h0c0,8.02,6.51,14.53,14.53,14.53s14.53-6.51,14.53-14.53" vector-effect="non-scaling-stroke"/>
    <path class="cls-14" d="M284.9,516.31c.59-2.2-1-4.54-3.54-5.22h0c-2.54-.68-5.08.56-5.66,2.77t0,0c-.59,2.2,1,4.54,3.54,5.22h0c2.54.68,5.08-.56,5.66-2.77,0,0,0,0,0,0" vector-effect="non-scaling-stroke"/>
    <path class="cls-14" d="M271.39,549.76c0-8.69-7.04-15.73-15.73-15.73s-15.73,7.04-15.73,15.73c0,8.69,7.04,15.73,15.73,15.73h0c8.69,0,15.73-7.04,15.73-15.73h0" vector-effect="non-scaling-stroke"/>
    <path class="cls-10" d="M409.56,291.99l.41-1.71" vector-effect="non-scaling-stroke"/>
    <path class="cls-16" d="M409.97,290.28l.23-.1c.11-.05.18-.14.21-.25.94-3.05,1.09-6.01.45-8.89" vector-effect="non-scaling-stroke"/>
    <path class="cls-10" d="M410.86,281.04c.07-1.02.08-1.91.03-2.68-1.28-18.06-8.41-33.28-21.39-45.65-2.28-2.18-4.98-4.11-8.09-5.8" vector-effect="non-scaling-stroke"/>
    <path class="cls-16" d="M381.41,226.91c-5.9-3.74-12.54-5.78-19.91-6.13-5.75-.27-12.54,1.65-15.08,7.02-2.55,5.41-.71,13.42,1.39,18.84,3.13,8.06,7,16.93,11.61,26.6.52,1.09.97,2.22,1.08,3.48.57,6.97,1.65,13.52,3.23,19.66,1.74,6.77,5.73,11.42,11.96,13.94,5.35,2.17,10.45,3.17,15.3,3.01,10.5-.34,16.66-8.18,19.15-17.74.37-1.44.18-2.64-.58-3.6" vector-effect="non-scaling-stroke"/>
    <path class="cls-17" d="M381.41,226.91c-2.99.66-4.47,2.14-4.44,4.43.01,1.09.39,1.93,1.13,2.51,12.39,9.61,20.31,22.01,23.76,37.22.77,3.39,1.28,5.56,1.55,6.52,1.08,3.95,3.56,5.1,7.45,3.45" vector-effect="non-scaling-stroke"/>
    <path class="cls-17" d="M409.97,290.28c.11-1.63-.47-2.74-1.76-3.32-6.39-2.89-9.12,7.2-2.47,7.48,1.69.07,2.97-.74,3.82-2.45" vector-effect="non-scaling-stroke"/>
    <path class="cls-14" d="M723.92,253.19c0-1.35-1.09-2.44-2.44-2.44h0c-1.35,0-2.44,1.09-2.44,2.44h0c0,1.35,1.09,2.44,2.44,2.44h0c1.35,0,2.44-1.09,2.44-2.44h0" vector-effect="non-scaling-stroke"/>
    <path class="cls-10" d="M191.57,268.83c-1.95.87-3.56,2.01-4.83,3.41-12.62,13.9-17.93,34.08-15.81,52.6.15,1.31.65,2.48,1.51,3.51" vector-effect="non-scaling-stroke"/>
    <path class="cls-16" d="M172.44,328.35c-.55,1.51-.45,2.97.3,4.36.69,1.29,1.14,2.24,1.33,2.83" vector-effect="non-scaling-stroke"/>
    <path class="cls-10" d="M174.07,335.54c.22,1.37.76,2.66,1.62,3.86" vector-effect="non-scaling-stroke"/>
    <path class="cls-16" d="M175.69,339.4l-.6,1.28c-.15.31-.15.63-.02.96,2.01,4.89,5.18,8.75,9.52,11.57,8.51,5.54,19.28,2.02,27.19-3.29,5.77-3.87,8.82-9.2,9.15-15.99.3-6.25.11-13.15-.57-20.72-.09-1.02.01-2.07.31-3.14,2.34-8.39,4.4-17.43,6.17-27.1.78-4.25.94-8.45.49-12.58-1.28-11.56-11.68-13.57-20.94-10.5-4.17,1.38-8.33,3.31-12.5,5.8-1.27.76-2.05,1.81-2.32,3.14" vector-effect="non-scaling-stroke"/>
    <path class="cls-17" d="M175.69,339.4c5.85,3.23,9.53-4.42,4.12-6.84-2-.9-5.82.25-5.74,2.98" vector-effect="non-scaling-stroke"/>
    <path class="cls-17" d="M172.44,328.35c4.23-.07,6.26-2.4,6.09-7.01-.41-11.27,1.83-21.96,6.72-32.05,1.91-3.95,4.98-8.41,9.19-13.39,2.53-2.99,1.58-5.35-2.87-7.07" vector-effect="non-scaling-stroke"/>
    <path class="cls-10" d="M712.53,347.46c1.03-2.35,1.82-5.22,2.36-8.61,2.36-14.87.31-28.82-6.16-41.85-1.84-3.71-4.13-7.16-6.87-10.33" vector-effect="non-scaling-stroke"/>
    <path class="cls-16" d="M701.86,286.67c-4.9-5.61-11.01-9.74-18.32-12.39-1.94-.71-3.96-1.07-6.06-1.08-9.33-.06-12.59,6.46-13.52,14.51-.33,2.89-.43,5.66-.3,8.31.47,9.22,1.27,17.96,2.41,26.23.52,3.77-.32,6.75-1.08,10.33-1.05,4.9-1.72,10.07-2.01,15.51-.29,5.33,1.2,9.83,4.47,13.49,6.54,7.34,18.53,14,28.44,9.6,4.91-2.18,8.71-5.57,11.39-10.17.38-.65.37-1.53.52-2.24.08-.37.26-.68.53-.93.38-.36.66-.78.84-1.27.16-.43.39-.87.7-1.32,1.54-2.27,2.43-4.87,2.66-7.79" vector-effect="non-scaling-stroke"/>
    <path class="cls-17" d="M701.86,286.67c-2.35-.03-3.94.35-4.77,1.13-1.53,1.43-1.69,3.02-.5,4.79,8.05,11.89,11.67,25.1,10.85,39.64-.18,3.15-.4,6.28-.65,9.37-.34,4.16,1.57,6.11,5.74,5.86" vector-effect="non-scaling-stroke"/>
    <path class="cls-17" d="M708.34,352.61c-1.12-1.81-3.6-2.3-5.54-1.1,0,0,0,0,0,0-1.94,1.2-2.6,3.64-1.48,5.45h0c1.12,1.81,3.6,2.3,5.54,1.1t0,0c1.94-1.2,2.6-3.64,1.48-5.45" vector-effect="non-scaling-stroke"/>
    <path class="cls-10" d="M313.05,384.38c.2-.77.38-1.54.55-2.32,3.89-17.97,1.19-34.75-8.12-50.33-1.52-2.55-3.55-5.07-6.08-7.57" vector-effect="non-scaling-stroke"/>
    <path class="cls-16" d="M299.4,324.16c-4.44-4.93-9.95-8.62-16.54-11.06-1.75-.64-4.92-1.35-7.07-1.35-7.56.02-11.99,3.89-13.3,11.6-.67,3.94-.84,7.7-.52,11.28.82,9.2,2.04,18.53,3.65,28,.26,1.54.09,3.25-.19,4.77-1,5.47-1.69,11-2.08,16.59-.5,7.22.94,13.09,6.38,17.94,5.9,5.26,14.76,9.88,22.6,8.6,7.33-1.19,13.53-7.34,16.69-13.98.32-.66.5-1.35.54-2.07.05-.7.36-1.22.95-1.57.32-.19.52-.47.61-.83l1.93-7.7" vector-effect="non-scaling-stroke"/>
    <path class="cls-17" d="M299.4,324.16c-3.17.37-4.93,1.5-5.27,3.4-.2,1.1.02,2.09.67,2.96,10.19,13.72,13.94,30.37,11.81,47.9-.52,4.24,1.88,7.07,6.44,5.96" vector-effect="non-scaling-stroke"/>
    <path class="cls-17" d="M308.38,389.51c-1.44-1.56-3.97-1.57-5.64-.03h0c-1.67,1.55-1.85,4.06-.41,5.62h0c1.44,1.56,3.97,1.57,5.64.03h0c1.67-1.55,1.85-4.06.41-5.62h0" vector-effect="non-scaling-stroke"/>
    <path class="cls-14" d="M116.24,354.79c0-1.71-1.39-3.1-3.1-3.1h0c-1.71,0-3.1,1.39-3.1,3.1h0c0,1.71,1.39,3.1,3.1,3.1s3.1-1.39,3.1-3.1" vector-effect="non-scaling-stroke"/>
    <path class="cls-14" d="M513.49,517.72c0-2.95-2.39-5.34-5.34-5.34h0c-2.95,0-5.34,2.39-5.34,5.34s2.39,5.34,5.34,5.34,5.34-2.39,5.34-5.34" vector-effect="non-scaling-stroke"/>
    <path class="cls-14" d="M262.34,549.75c0-3.68-2.98-6.66-6.66-6.66s-6.66,2.98-6.66,6.66c0,3.68,2.98,6.66,6.66,6.66h0c3.68,0,6.66-2.98,6.66-6.66h0" vector-effect="non-scaling-stroke"/>
    <path class="cls-10" d="M732.7,705.87c-.22-1.11-.46-1.92-.71-2.41-8.5-16.63-21.49-28.06-38.96-34.28-2.57-.91-5.28-1.38-8.13-1.4" vector-effect="non-scaling-stroke"/>
    <path class="cls-16" d="M684.9,667.78c-.63-.81-1.89-1.18-3.78-1.09-8.34.4-17.78,1.47-24.17,7.16-8.73,7.79-1.62,18.32,4.32,24.65,6,6.39,12.95,12.98,20.86,19.75.92.79,2.15,2.29,2.72,3.36,4.11,7.67,8.02,13.74,11.73,18.2,3.71,4.45,8.64,6.66,14.78,6.63,4.57-.03,8.24-.45,11.01-1.25,11.1-3.21,16.32-10.75,15.67-22.61-.11-2-.35-5.7-1.71-7.08-.29-.29-.42-.65-.39-1.07.21-2.84-1.42-5.17-2.26-7.77-.08-.25-.19-.44-.32-.58-.31-.36-.53-.43-.66-.21" vector-effect="non-scaling-stroke"/>
    <path class="cls-17" d="M684.9,667.78c-2.35,1.05-3.32,2.66-2.9,4.84.4,2.08,2,2.51,3.75,2.99,13.19,3.59,24.15,10.91,32.89,21.95,2.08,2.61,4.11,5.26,6.09,7.93,2.53,3.4,5.19,3.53,7.97.38" vector-effect="non-scaling-stroke"/>
    <path class="cls-16" d="M568.37,708.34c-1.53,1.09-2.78,2.26-3.75,3.51-3.48,4.49-6.14,8.96-7.98,13.41-3.36,8.15-1.98,17.71,7.78,20.41,4.08,1.13,8.98,1.46,14.69,1,8.88-.72,17.55-1.81,26-3.26,1.88-.33,4.2-.07,6.06.33,7.78,1.66,14.84,2.39,21.18,2.19,10.34-.32,17.6-10.44,20.55-19.34,3.5-10.56-1.47-18.7-10.01-24.52-.97-.66-2-1.12-3.09-1.37-1.2-.28-2.25-.71-3.16-1.28-2.6-1.65-5.33-2.63-8.2-2.95" vector-effect="non-scaling-stroke"/>
    <path class="cls-10" d="M628.44,696.47c-22.31-5.88-42.33-1.92-60.07,11.87" vector-effect="non-scaling-stroke"/>
    <path class="cls-17" d="M628.44,696.47c.13,4.56-1.72,6.66-5.57,6.3-2.9-.27-5.73-.46-8.48-.59-15.07-.7-28.68,3.31-40.83,12.04-.84.61-1.75.76-2.72.47-2.48-.74-3.3-2.86-2.47-6.35" vector-effect="non-scaling-stroke"/>
    <path class="cls-16" d="M765.79,710.97c-1.79,1.16-3.46,2.92-5.01,5.29-4.5,6.86-8.39,12.98-7.63,20.81,1.26,12.98,17.3,12.27,26.84,11.32,7.12-.71,14.47-1.58,22.05-2.59,2.88-.39,5.48-.36,7.81.08,3.71.7,7.41,1.27,11.08,1.72,5.15.63,9.54.57,13.16-.2,8.13-1.71,14.96-12.15,17.14-19.87,1.97-6.96.36-13.04-4.43-18.35-2.72-3.01-5.56-5.15-8.52-6.44-.83-.36-1.61-.77-2.33-1.24-.25-.16-.51-.28-.79-.36l-8.69-2.68" vector-effect="non-scaling-stroke"/>
    <path class="cls-10" d="M826.47,698.46c-22.77-5.93-43-1.76-60.68,12.51" vector-effect="non-scaling-stroke"/>
    <path class="cls-17" d="M826.47,698.46c.07,4.23-1.71,6.29-5.35,6.18-2.33-.07-4.74-.2-7.24-.37-15.58-1.06-29.62,2.88-42.13,11.81-1.17.84-2.44.9-3.82.17-1.37-.71-2.08-2.47-2.14-5.28" vector-effect="non-scaling-stroke"/>
    <path class="cls-17" d="M730.98,720.59c2.1.47,4.2-.95,4.69-3.17h0c.49-2.22-.81-4.39-2.91-4.85h0c-2.1-.47-4.2.95-4.69,3.17-.49,2.22.81,4.39,2.91,4.85h0" vector-effect="non-scaling-stroke"/>
    <path class="cls-10" d="M341.81,680.8c-2.48-.25-5.47-.09-8.98.47-17.88,2.84-32.33,11.13-43.36,24.88-.73.91-1.2,2.18-1.65,3.24" vector-effect="non-scaling-stroke"/>
    <path class="cls-16" d="M287.82,709.39c-.73.43-1.43.74-1.82,1.56-2.25,4.7-3.82,10.16-4.69,16.39-.73,5.19.05,9.64,2.34,13.33,5.21,8.42,18.2,4.73,26.14,1.59,8.42-3.33,16.26-6.72,23.52-10.17,1.24-.59,2.77-.86,4.12-.98,5.63-.49,11.31-1.32,17.04-2.49,3.42-.69,6.4-1.8,8.93-3.32,7.4-4.43,10.51-15.9,10.5-23.93,0-10.32-7.66-16.93-16.77-19.56-1.7-.49-2.82-.25-3.37.74" vector-effect="non-scaling-stroke"/>
    <path class="cls-10" d="M353.76,682.55l-2.77-.89" vector-effect="non-scaling-stroke"/>
    <path class="cls-16" d="M350.99,681.66c-2.83-1.29-5.89-1.58-9.18-.86" vector-effect="non-scaling-stroke"/>
    <path class="cls-17" d="M350.99,681.66c-7.58,1.25-2.43,11.49,2.92,7.16,1.9-1.54,1.85-3.63-.15-6.27" vector-effect="non-scaling-stroke"/>
    <path class="cls-17" d="M287.82,709.39c-.21,2.54.91,4.09,3.35,4.64,1.3.3,2.27.05,2.9-.75,9.83-12.51,22.35-20.4,37.56-23.66,4.57-.98,13.62-1.26,10.18-8.82" vector-effect="non-scaling-stroke"/>
    <path class="cls-16" d="M397,709.68c-4.88,4.32-8.63,9.68-11.26,16.08-1.67,4.07-2.11,8.08-1.3,12.02,1.92,9.42,12.89,10.43,20.91,9.98,8.74-.51,18.46-1.61,29.15-3.31,1.38-.22,2.83-.22,4.19.06,6.85,1.39,13.19,2.24,19.03,2.53,2.05.1,4.17-.04,6.36-.41,9.21-1.57,16.11-12.5,18.27-20.59,2.84-10.61-3.64-19.37-12.58-24.13-.31-.17-.64-.22-.99-.16-.37.06-.76.16-1.16.31" vector-effect="non-scaling-stroke"/>
    <path class="cls-10" d="M467.62,702.06c-1.11-.4-1.99-.87-2.64-1.4" vector-effect="non-scaling-stroke"/>
    <path class="cls-16" d="M464.98,700.66c-1.43-1.72-3.98-2.78-7.66-3.19" vector-effect="non-scaling-stroke"/>
    <path class="cls-10" d="M457.32,697.47c-19.27-5.28-37.43-2.67-54.47,7.84-1.41.87-3.36,2.32-5.85,4.37" vector-effect="non-scaling-stroke"/>
    <path class="cls-17" d="M457.32,697.47c.26,4.58-1.71,6.68-5.9,6.3-5.55-.51-9.97-.72-13.28-.63-13.02.35-24.78,4.32-35.29,11.9-1.28.93-2.6,1.02-3.95.27-1.51-.83-2.14-2.71-1.9-5.63" vector-effect="non-scaling-stroke"/>
    <path class="cls-17" d="M464.98,700.66c-2.93.57-4.32,2.05-4.17,4.44.12,1.97,1.04,3.22,2.75,3.75,1.41.45,2.71.21,3.89-.72,1.87-1.46,1.92-3.48.17-6.07" vector-effect="non-scaling-stroke"/>
    <path class="cls-16" d="M117.33,709.14c-.39.16-.81.24-1.25.23-.33,0-.61.13-.82.38-4.24,4.99-7.5,10.31-9.78,15.96-1.37,3.37-1.76,6.83-1.18,10.4,1.84,11.27,15.59,11.26,24.84,10.43,8.85-.8,17.45-1.87,25.81-3.2,1.01-.16,2.04-.14,3.07.06,4.83.95,9.55,1.7,14.14,2.23,6.57.77,14.16,1,19.31-3.44,5.19-4.48,8.77-10.02,10.73-16.61,3.11-10.48-2.76-18.92-11.58-24.28-.23-.14-1.29-.54-3.17-1.19-.95-.33-1.98-.84-3.07-1.54-1.33-.85-3.63-1.53-6.9-2.04" vector-effect="non-scaling-stroke"/>
    <path class="cls-10" d="M177.48,696.53c-20.65-5.65-39.82-2.42-57.5,9.69-.9.62-1.78,1.59-2.65,2.92" vector-effect="non-scaling-stroke"/>
    <path class="cls-17" d="M177.48,696.53c0,4.29-1.86,6.34-5.61,6.13-2.67-.15-5.34-.3-8.01-.45-13.36-.75-28.95,2.7-39.7,11.06-.99.77-2.05,1.23-3.19,1.39-3.03.43-4.53-2.79-3.64-5.52" vector-effect="non-scaling-stroke"/>
    <path class="cls-17" d="M187.63,707.13c1.58-1.45,1.62-3.99.08-5.67-1.54-1.68-4.07-1.87-5.66-.42h0c-1.58,1.45-1.62,3.99-.08,5.67,1.54,1.68,4.07,1.87,5.66.42h0" vector-effect="non-scaling-stroke"/>
    <path class="cls-17" d="M638.51,707.22c1.64-1.39,1.76-3.93.29-5.67h0c-1.48-1.74-4-2.02-5.64-.62s-1.76,3.93-.29,5.67h0c1.48,1.74,4,2.02,5.64.62" vector-effect="non-scaling-stroke"/>
    <path class="cls-17" d="M836.64,709.11c1.57-1.45,1.59-3.99.04-5.67h0c-1.55-1.68-4.08-1.86-5.66-.41h0c-1.57,1.45-1.59,3.99-.04,5.67h0c1.55,1.68,4.08,1.86,5.66.41h0" vector-effect="non-scaling-stroke"/>
  </g>
  <path class="cls-5" d="M13.38,189.93c-.27.06-.42.21-.44.44-.15,2.31-.17,5.55-.06,9.72l-1.21,550.91c0,.34.17.51.51.51l89.29.29c4.34.33,8.65.49,12.93.48,6.58,0,10.89.02,12.92.08,23.39.71,46.66.67,69.79-.12l82.48.19c9.93.83,20.03.87,30.32.13h71.28c6.68.59,14.49.86,23.42.81,34.73-.17,59.04-.36,72.95-.56l76.59.09c31,1.16,61.83,1.25,92.5.26l48.68.37c11.66.72,23.53.86,35.6.41.21,0,.41-.07.6-.19l.37-.23,4-.18h11.93c.33.01.65.09.94.24.42.22.78.34,1.09.35,4.2.12,8.7.19,13.5.2,28.05.08,55.81,0,83.3-.25l81.46-.51c.35,0,.52-.17.53-.52l1.21-584.18-.26-11.43c-.03-38.16.03-76.21.18-114.15.06-16.6.2-28.35.42-35.26.21-6.45,9.15-8.02,10.81-1.97.42,1.53.63,3.39.63,5.56.05,54.61-.06,108.9-.33,162.89-.14,27.89.09,55.7-.2,84.53-.07,6.95-.1,13.62-.07,20,.13,30.8-.13,60.91-.17,91.01-.11,83.57-.24,166.98-.39,250.24-.06,32.23-.2,62.48-.43,90.75-.13,16.41-.09,31.91.11,46.5.08,6.17-3.81,7.96-9.3,7.94-35.83-.12-71.67-.21-107.5-.26-1.67,0-3.33-.01-5-.01-27.53-.05-55.28-.17-83.25-.38-12.8-.09-26.59.2-39.33.09-31.24-.27-62.21-.35-92.92-.26-14.25.05-28.83.03-43.75-.04-50.37-.25-105.54-.38-165.5-.39-28.67,0-58.67-.13-90-.38-16.23-.13-32.43.22-48.25.1-35.73-.29-71.32-.33-106.75-.14-7.13.04-15.18-.3-22.66-.29-38.51.05-78.14-.03-118.87-.26-8.09-.04-7.06-8.17-7.01-13.72.3-35.08.14-70.62.26-106.24.17-50.59.27-101.17.3-151.76,0-16.06.32-32.33.21-48.5-.05-6.8-.05-13.47-.02-20.01.15-33.04.21-63.95.18-92.74,0-2.71,0-5.46.02-8.25.21-34.31.29-66.07.23-95.26-.01-7.39,0-14.06.03-19.99.21-45.67.31-91.33.3-137,0-18.69.11-37.33.32-55.92C1.95,9.47.33,2.88,5.26.58c3.33-1.56,6.75.17,7.95,3.55.85,2.38.48,4.05.47,6.39-.21,46.11-.34,92.21-.37,138.32-.01,13.24-.29,26.83-.21,40.25,0,.21.09.49.28.84Z"/>
  <path class="cls-2" d="M929.6,157.24l.26,11.43c-7.25-.96-14.42-1.94-21.52-2.93-58.44-8.13-117.89-5.81-174.03,10.98-21.65,6.47-43.38,12.89-65.18,19.24-11.03,3.21-22.65,6.25-34.86,9.1-29.39,6.87-58.97,9.93-88.72,9.17-34.47-.87-68.78-5.09-102.93-12.65-21.19-4.69-42.66-9.45-64.41-14.26-26.62-5.89-56.08-10.79-88.37-14.72-28.08-3.41-55.86-4.8-83.33-4.15-24.78.59-48.17,3.15-70.16,7.68-16.51,3.41-33.16,7.22-49.94,11.44-13.92,3.51-27.68,6.55-41.29,9.12-10.16,1.92-20.91,3.05-32.24,3.4-.11-4.17-.09-7.41.06-9.72.02-.23.17-.38.44-.44,14.86-1.07,29.56-3.4,44.1-6.97,17.45-4.29,35.15-8.63,53.11-13.01,20.37-4.97,41.37-8.62,63.02-10.96,6.45-.7,13.13-1.2,20.04-1.51,29.94-1.32,59.15-.43,87.62,2.66,37.26,4.05,73.91,10.13,109.94,18.26,17.16,3.87,33.77,7.6,49.84,11.2,35.29,7.89,70.02,12.29,104.2,13.19,28.37.74,55.99-1.94,82.86-8.05,14.37-3.27,28.43-6.93,42.18-10.98,21.13-6.23,41.97-12.39,62.53-18.47,26.19-7.74,53.12-12.53,80.79-14.37,29.67-1.98,59.25-1.16,88.74,2.47,8.93,1.1,18.01,2.38,27.25,3.85Z"/>
  <path class="cls-1" d="M421.86,292.92c-1.74,16.53-13.24,31.07-30.51,31.54-9.15.25-19.53-2.57-27.08-7.92-11.92-8.45-13.44-25.56-14.89-39.06-.21-1.89-.75-3.72-1.63-5.49-2.57-5.13-5.25-11-8.04-17.61-4.77-11.3-8.33-25.27-.7-34.98,7.96-10.12,21.52-11.12,33.08-8.18,16.98,4.33,29.63,12.21,38.08,27.03,9.81,17.21,13.7,35.43,11.69,54.67ZM409.56,291.99l.41-1.71.23-.1c.11-.05.18-.14.21-.25.94-3.05,1.09-6.01.45-8.89.07-1.02.08-1.91.03-2.68-1.28-18.06-8.41-33.28-21.39-45.65-2.28-2.18-4.98-4.11-8.09-5.8-5.9-3.74-12.54-5.78-19.91-6.13-5.75-.27-12.54,1.65-15.08,7.02-2.55,5.41-.71,13.42,1.39,18.84,3.13,8.06,7,16.93,11.61,26.6.52,1.09.97,2.22,1.08,3.48.57,6.97,1.65,13.52,3.23,19.66,1.74,6.77,5.73,11.42,11.96,13.94,5.35,2.17,10.45,3.17,15.3,3.01,10.5-.34,16.66-8.18,19.15-17.74.37-1.44.18-2.64-.58-3.6Z"/>
  <path class="cls-4" d="M381.41,226.91c-2.99.66-4.47,2.14-4.44,4.43.01,1.09.39,1.93,1.13,2.51,12.39,9.61,20.31,22.01,23.76,37.22.77,3.39,1.28,5.56,1.55,6.52,1.08,3.95,3.56,5.1,7.45,3.45.64,2.88.49,5.84-.45,8.89-.03.11-.1.2-.21.25l-.23.1c.11-1.63-.47-2.74-1.76-3.32-6.39-2.89-9.12,7.2-2.47,7.48,1.69.07,2.97-.74,3.82-2.45.76.96.95,2.16.58,3.6-2.49,9.56-8.65,17.4-19.15,17.74-4.85.16-9.95-.84-15.3-3.01-6.23-2.52-10.22-7.17-11.96-13.94-1.58-6.14-2.66-12.69-3.23-19.66-.11-1.26-.56-2.39-1.08-3.48-4.61-9.67-8.48-18.54-11.61-26.6-2.1-5.42-3.94-13.43-1.39-18.84,2.54-5.37,9.33-7.29,15.08-7.02,7.37.35,14.01,2.39,19.91,6.13Z"/>
  <ellipse class="cls-7" cx="729.89" cy="228.93" rx="4.05" ry="4.38" transform="translate(479.41 951.7) rotate(-88.3)"/>
  <path class="cls-6" d="M381.41,226.91c3.11,1.69,5.81,3.62,8.09,5.8,12.98,12.37,20.11,27.59,21.39,45.65.05.77.04,1.66-.03,2.68-3.89,1.65-6.37.5-7.45-3.45-.27-.96-.78-3.13-1.55-6.52-3.45-15.21-11.37-27.61-23.76-37.22-.74-.58-1.12-1.42-1.13-2.51-.03-2.29,1.45-3.77,4.44-4.43Z"/>
  <rect class="cls-7" x="263.46" y="232.11" width="7.78" height="8.48" rx="3.55" ry="3.55" transform="translate(30.53 503.28) rotate(-89.9)"/>
  <path class="cls-7" d="M732.8,253.53c.4,5.63-3.83,10.52-9.46,10.92l-1.97.14c-5.63.4-10.52-3.83-10.92-9.46l-.17-2.35c-.4-5.63,3.83-10.52,9.46-10.92l1.97-.14c5.63-.4,10.52,3.83,10.92,9.46l.17,2.35ZM723.92,253.19c0-1.35-1.09-2.44-2.44-2.44h0c-1.35,0-2.44,1.09-2.44,2.44h0c0,1.35,1.09,2.44,2.44,2.44h0c1.35,0,2.44-1.09,2.44-2.44h0Z"/>
  <ellipse class="cls-7" cx="272.68" cy="253.92" rx="4.35" ry="4.02" transform="translate(-61.47 89.07) rotate(-16.7)"/>
  <circle class="cls-3" cx="721.48" cy="253.19" r="2.44"/>
  <path class="cls-1" d="M675.32,380.57c-5.23-2.34-9.96-5.52-14.17-9.53-6.69-6.38-9.77-14.45-9.23-24.21.4-7.18,1.87-14.78,3.52-22.33.36-1.64.43-3.24.21-4.8-1.09-7.85-1.85-15.65-2.28-23.38-.7-12.58,1.62-26.59,14.05-31.93,14.87-6.39,29.73,2.79,40.81,12.29,18.01,15.44,21.52,40.81,17.81,63.35-2.1,12.81-6.97,27.13-16.66,35.56-10.23,8.9-21.59,10.56-34.06,4.98ZM712.53,347.46c1.03-2.35,1.82-5.22,2.36-8.61,2.36-14.87.31-28.82-6.16-41.85-1.84-3.71-4.13-7.16-6.87-10.33-4.9-5.61-11.01-9.74-18.32-12.39-1.94-.71-3.96-1.07-6.06-1.08-9.33-.06-12.59,6.46-13.52,14.51-.33,2.89-.43,5.66-.3,8.31.47,9.22,1.27,17.96,2.41,26.23.52,3.77-.32,6.75-1.08,10.33-1.05,4.9-1.72,10.07-2.01,15.51-.29,5.33,1.2,9.83,4.47,13.49,6.54,7.34,18.53,14,28.44,9.6,4.91-2.18,8.71-5.57,11.39-10.17.38-.65.37-1.53.52-2.24.08-.37.26-.68.53-.93.38-.36.66-.78.84-1.27.16-.43.39-.87.7-1.32,1.54-2.27,2.43-4.87,2.66-7.79Z"/>
  <path class="cls-4" d="M701.86,286.67c-2.35-.03-3.94.35-4.77,1.13-1.53,1.43-1.69,3.02-.5,4.79,8.05,11.89,11.67,25.1,10.85,39.64-.18,3.15-.4,6.28-.65,9.37-.34,4.16,1.57,6.11,5.74,5.86-.23,2.92-1.12,5.52-2.66,7.79-.31.45-.54.89-.7,1.32-.18.49-.46.91-.84,1.27-.27.25-.45.56-.53.93-.15.71-.14,1.59-.52,2.24-2.68,4.6-6.48,7.99-11.39,10.17-9.91,4.4-21.9-2.26-28.44-9.6-3.27-3.66-4.76-8.16-4.47-13.49.29-5.44.96-10.61,2.01-15.51.76-3.58,1.6-6.56,1.08-10.33-1.14-8.27-1.94-17.01-2.41-26.23-.13-2.65-.03-5.42.3-8.31.93-8.05,4.19-14.57,13.52-14.51,2.1.01,4.12.37,6.06,1.08,7.31,2.65,13.42,6.78,18.32,12.39ZM708.34,352.61c-1.12-1.81-3.6-2.3-5.54-1.1,0,0,0,0,0,0-1.94,1.2-2.6,3.64-1.48,5.45h0c1.12,1.81,3.6,2.3,5.54,1.1t0,0c1.94-1.2,2.6-3.64,1.48-5.45Z"/>
  <path class="cls-7" d="M286.67,282.06c-1.54,1.81-1.19,4.15-2.63,6.11-3.47,4.74-9.55,3.85-11.86-1.39-1.43-3.23-.98-6.4,1.35-9.49,2.43-3.25,5.62-1.55,8.72-3,2.32-1.09,4.09-.59,5.32,1.5,1.21,2.06.91,4.15-.9,6.27Z"/>
  <path class="cls-6" d="M409.97,290.28l-.41,1.71c-.85,1.71-2.13,2.52-3.82,2.45-6.65-.28-3.92-10.37,2.47-7.48,1.29.58,1.87,1.69,1.76,3.32Z"/>
  <path class="cls-6" d="M701.86,286.67c2.74,3.17,5.03,6.62,6.87,10.33,6.47,13.03,8.52,26.98,6.16,41.85-.54,3.39-1.33,6.26-2.36,8.61-4.17.25-6.08-1.7-5.74-5.86.25-3.09.47-6.22.65-9.37.82-14.54-2.8-27.75-10.85-39.64-1.19-1.77-1.03-3.36.5-4.79.83-.78,2.42-1.16,4.77-1.13Z"/>
  <path class="cls-1" d="M321.31,396.12c-3.45,9.27-9.41,17.67-18.22,22.37-9.17,4.89-19.24,4.52-30.23-1.1-7.58-3.88-15.19-9.96-18.36-17.97-2.98-7.53-2.63-15.37-1.54-23.57.51-3.83,1.11-7.64,1.8-11.43.37-2.03.39-3.98.06-5.86-.95-5.41-1.83-11.4-2.64-17.97-1.93-15.71-1.19-34.94,18.06-39.12,11.54-2.51,21.8,2.94,30.97,9.17,10.49,7.13,17.63,16.34,21.43,27.63,6.17,18.35,5.28,40.12-1.33,57.85ZM313.05,384.38c.2-.77.38-1.54.55-2.32,3.89-17.97,1.19-34.75-8.12-50.33-1.52-2.55-3.55-5.07-6.08-7.57-4.44-4.93-9.95-8.62-16.54-11.06-1.75-.64-4.92-1.35-7.07-1.35-7.56.02-11.99,3.89-13.3,11.6-.67,3.94-.84,7.7-.52,11.28.82,9.2,2.04,18.53,3.65,28,.26,1.54.09,3.25-.19,4.77-1,5.47-1.69,11-2.08,16.59-.5,7.22.94,13.09,6.38,17.94,5.9,5.26,14.76,9.88,22.6,8.6,7.33-1.19,13.53-7.34,16.69-13.98.32-.66.5-1.35.54-2.07.05-.7.36-1.22.95-1.57.32-.19.52-.47.61-.83l1.93-7.7Z"/>
  <ellipse class="cls-7" cx="122.16" cy="311.99" rx="4.9" ry="4.35" transform="translate(-66.08 34.82) rotate(-12.8)"/>
  <path class="cls-4" d="M299.4,324.16c-3.17.37-4.93,1.5-5.27,3.4-.2,1.1.02,2.09.67,2.96,10.19,13.72,13.94,30.37,11.81,47.9-.52,4.24,1.88,7.07,6.44,5.96l-1.93,7.7c-.09.36-.29.64-.61.83-.59.35-.9.87-.95,1.57-.04.72-.22,1.41-.54,2.07-3.16,6.64-9.36,12.79-16.69,13.98-7.84,1.28-16.7-3.34-22.6-8.6-5.44-4.85-6.88-10.72-6.38-17.94.39-5.59,1.08-11.12,2.08-16.59.28-1.52.45-3.23.19-4.77-1.61-9.47-2.83-18.8-3.65-28-.32-3.58-.15-7.34.52-11.28,1.31-7.71,5.74-11.58,13.3-11.6,2.15,0,5.32.71,7.07,1.35,6.59,2.44,12.1,6.13,16.54,11.06ZM308.38,389.51c-1.44-1.56-3.97-1.57-5.64-.03h0c-1.67,1.55-1.85,4.06-.41,5.62h0c1.44,1.56,3.97,1.57,5.64.03h0c1.67-1.55,1.85-4.06.41-5.62h0Z"/>
  <path class="cls-6" d="M299.4,324.16c2.53,2.5,4.56,5.02,6.08,7.57,9.31,15.58,12.01,32.36,8.12,50.33-.17.78-.35,1.55-.55,2.32-4.56,1.11-6.96-1.72-6.44-5.96,2.13-17.53-1.62-34.18-11.81-47.9-.65-.87-.87-1.86-.67-2.96.34-1.9,2.1-3.03,5.27-3.4Z"/>
  <ellipse class="cls-7" cx="117.28" cy="331.41" rx="4.95" ry="4.08" transform="translate(-1.73 .62) rotate(-.3)"/>
  <g>
    <path class="cls-1" d="M223.11,249.38c16.63,6.06,16.43,23.8,13.42,38.2-1.41,6.78-3.04,13.6-4.89,20.45-.39,1.41-.42,3.17-.28,4.61.77,7.51.98,14.63.63,21.34-.53,10.17-4.51,18.04-11.94,23.62-9.47,7.12-23.03,11.97-34.38,8.29-25.35-8.22-28.54-42.52-25.4-64.21,2.46-16.99,9.44-32.71,23.55-42.5,11.67-8.09,25.84-14.7,39.29-9.8ZM191.57,268.83c-1.95.87-3.56,2.01-4.83,3.41-12.62,13.9-17.93,34.08-15.81,52.6.15,1.31.65,2.48,1.51,3.51-.55,1.51-.45,2.97.3,4.36.69,1.29,1.14,2.24,1.33,2.83.22,1.37.76,2.66,1.62,3.86l-.6,1.28c-.15.31-.15.63-.02.96,2.01,4.89,5.18,8.75,9.52,11.57,8.51,5.54,19.28,2.02,27.19-3.29,5.77-3.87,8.82-9.2,9.15-15.99.3-6.25.11-13.15-.57-20.72-.09-1.02.01-2.07.31-3.14,2.34-8.39,4.4-17.43,6.17-27.1.78-4.25.94-8.45.49-12.58-1.28-11.56-11.68-13.57-20.94-10.5-4.17,1.38-8.33,3.31-12.5,5.8-1.27.76-2.05,1.81-2.32,3.14Z"/>
    <path class="cls-4" d="M175.69,339.4c5.85,3.23,9.53-4.42,4.12-6.84-2-.9-5.82.25-5.74,2.98-.19-.59-.64-1.54-1.33-2.83-.75-1.39-.85-2.85-.3-4.36,4.23-.07,6.26-2.4,6.09-7.01-.41-11.27,1.83-21.96,6.72-32.05,1.91-3.95,4.98-8.41,9.19-13.39,2.53-2.99,1.58-5.35-2.87-7.07.27-1.33,1.05-2.38,2.32-3.14,4.17-2.49,8.33-4.42,12.5-5.8,9.26-3.07,19.66-1.06,20.94,10.5.45,4.13.29,8.33-.49,12.58-1.77,9.67-3.83,18.71-6.17,27.1-.3,1.07-.4,2.12-.31,3.14.68,7.57.87,14.47.57,20.72-.33,6.79-3.38,12.12-9.15,15.99-7.91,5.31-18.68,8.83-27.19,3.29-4.34-2.82-7.51-6.68-9.52-11.57-.13-.33-.13-.65.02-.96l.6-1.28Z"/>
    <path class="cls-6" d="M191.57,268.83c4.45,1.72,5.4,4.08,2.87,7.07-4.21,4.98-7.28,9.44-9.19,13.39-4.89,10.09-7.13,20.78-6.72,32.05.17,4.61-1.86,6.94-6.09,7.01-.86-1.03-1.36-2.2-1.51-3.51-2.12-18.52,3.19-38.7,15.81-52.6,1.27-1.4,2.88-2.54,4.83-3.41Z"/>
    <path class="cls-6" d="M175.69,339.4c-.86-1.2-1.4-2.49-1.62-3.86-.08-2.73,3.74-3.88,5.74-2.98,5.41,2.42,1.73,10.07-4.12,6.84Z"/>
  </g>
  <path class="cls-7" d="M125.4,354.81c0,6.75-5.48,12.23-12.23,12.23h0c-6.75,0-12.23-5.48-12.23-12.23h0c0-6.75,5.48-12.23,12.23-12.23h0c6.75,0,12.23,5.48,12.23,12.23h0ZM116.24,354.79c0-1.71-1.39-3.1-3.1-3.1h0c-1.71,0-3.1,1.39-3.1,3.1h0c0,1.71,1.39,3.1,3.1,3.1s3.1-1.39,3.1-3.1Z"/>
  <ellipse class="cls-6" cx="704.83" cy="354.79" rx="4.13" ry="3.85" transform="translate(-81.16 424.67) rotate(-31.8)"/>
  <circle class="cls-3" cx="113.14" cy="354.79" r="3.1"/>
  <ellipse class="cls-7" cx="862.49" cy="370.47" rx="4.35" ry="3.98" transform="translate(-39.63 111.02) rotate(-7.2)"/>
  <circle class="cls-7" cx="866.97" cy="387.66" r="4.35"/>
  <circle class="cls-7" cx="586.79" cy="387.57" r="3.81"/>
  <ellipse class="cls-6" cx="305.36" cy="392.31" rx="4.12" ry="3.85" transform="translate(-185.24 311.93) rotate(-42.8)"/>
  <path class="cls-7" d="M584.06,399.97c3.27-1.93,7.13-.84,8.81,2.44,1.72,3.38.2,6.74-2.64,9-.28.22-.46.56-.49.92-.66,7.85-4.42,12.84-11.29,14.95-3.59,1.11-7.18.79-10.79-.95-11.26-5.42-11.7-21.62-.2-27.36,5.01-2.5,10.14-2.17,15.39,1,.4.24.8.24,1.21,0Z"/>
  <rect class="cls-7" x="521.55" y="457.54" width="7.68" height="8.54" rx="3.53" ry="3.53" transform="translate(62.66 986.39) rotate(-89.9)"/>
  <ellipse class="cls-7" cx="528.15" cy="478.13" rx="4.98" ry="4.56" transform="translate(-167.78 325.7) rotate(-29.8)"/>
  <ellipse class="cls-7" cx="235.98" cy="492.22" rx="4.91" ry="4.19" transform="translate(-6.85 3.34) rotate(-.8)"/>
  <path class="cls-7" d="M522.6,517.8c0,8.02-6.51,14.53-14.53,14.53s-14.53-6.51-14.53-14.53,6.51-14.53,14.53-14.53h0c8.02,0,14.53,6.51,14.53,14.53ZM513.49,517.72c0-2.95-2.39-5.34-5.34-5.34h0c-2.95,0-5.34,2.39-5.34,5.34s2.39,5.34,5.34,5.34,5.34-2.39,5.34-5.34Z"/>
  <ellipse class="cls-7" cx="280.3" cy="515.09" rx="4.13" ry="4.76" transform="translate(-289.55 653.52) rotate(-75.1)"/>
  <circle class="cls-3" cx="508.15" cy="517.72" r="5.34"/>
  <path class="cls-7" d="M271.39,549.76c0,8.69-7.04,15.73-15.73,15.73h0c-8.69,0-15.73-7.04-15.73-15.73h0c0-8.69,7.04-15.73,15.73-15.73s15.73,7.04,15.73,15.73ZM262.34,549.75c0-3.68-2.98-6.66-6.66-6.66s-6.66,2.98-6.66,6.66c0,3.68,2.98,6.66,6.66,6.66h0c3.68,0,6.66-2.98,6.66-6.66h0Z"/>
  <circle class="cls-3" cx="255.68" cy="549.75" r="6.66"/>
  <path class="cls-1" d="M846.66,753.88c-27.49.25-55.25.33-83.3.25-4.8-.01-9.3-.08-13.5-.2-.31-.01-.67-.13-1.09-.35-.29-.15-.61-.23-.94-.23h-11.93v-.2l11.95.05c1.65,0,1.86-.53.61-1.61-1.78-1.54-3.2-3.62-4.26-6.24,0-.47-.09-.87-.24-1.22-.15-.36-.37-.41-.66-.15-.22.19-.42.47-.6.84-2.45,3.08-5.2,5.46-8.26,7.13-.89.55-1.72.88-2.49.99-.21.03-.28.14-.22.35.03.09.08.16.17.23l-.37.23c-.19.12-.39.18-.6.19-12.07.45-23.94.31-35.6-.41-5.11-3.85-9.54-8.81-13.29-14.86-2.44-3.95-4.64-7.64-6.61-11.05-1.17-2.03-2.27-3.57-3.32-4.6-2.1-2.07-4.88-3.88-6.53-6.32-.33-.47-.47-.42-.42.15.87,10.81-4.2,21.55-11.14,29.65-1.71,1.99-4.17,4.21-7.37,6.66-30.67.99-61.5.9-92.5-.26-7.18-5.13-10.53-12.24-10.04-21.33.45-8.4,4.06-15.56,8.74-22.41,6.65-9.73,13.93-16.63,24.55-21.16,20.4-8.71,46.03-6.75,65.69,1.6.41.17.52.05.34-.35-3.87-8.88.49-18.92,7.73-24.86,8.77-7.2,21.34-8.78,32.8-8.73,12.33.05,23.93,4.57,34.78,13.55,12.91,10.69,23.95,26.44,28.6,42.53.3,1.05.38,2.14.4,3.2.01.69.2.74.56.15,3.89-6.4,8.13-11.72,12.73-15.95,15.35-14.15,39.44-16.74,60.06-13.41,9.88,1.59,18.43,4.6,25.65,9.03,9.11,5.59,16.09,15.21,16.5,26.04.13,3.54-.48,7.34-1.84,11.4-2.72,8.11-7.63,15.33-14.74,21.68ZM732.7,705.87c-.22-1.11-.46-1.92-.71-2.41-8.5-16.63-21.49-28.06-38.96-34.28-2.57-.91-5.28-1.38-8.13-1.4-.63-.81-1.89-1.18-3.78-1.09-8.34.4-17.78,1.47-24.17,7.16-8.73,7.79-1.62,18.32,4.32,24.65,6,6.39,12.95,12.98,20.86,19.75.92.79,2.15,2.29,2.72,3.36,4.11,7.67,8.02,13.74,11.73,18.2,3.71,4.45,8.64,6.66,14.78,6.63,4.57-.03,8.24-.45,11.01-1.25,11.1-3.21,16.32-10.75,15.67-22.61-.11-2-.35-5.7-1.71-7.08-.29-.29-.42-.65-.39-1.07.21-2.84-1.42-5.17-2.26-7.77-.08-.25-.19-.44-.32-.58-.31-.36-.53-.43-.66-.21ZM568.37,708.34c-1.53,1.09-2.78,2.26-3.75,3.51-3.48,4.49-6.14,8.96-7.98,13.41-3.36,8.15-1.98,17.71,7.78,20.41,4.08,1.13,8.98,1.46,14.69,1,8.88-.72,17.55-1.81,26-3.26,1.88-.33,4.2-.07,6.06.33,7.78,1.66,14.84,2.39,21.18,2.19,10.34-.32,17.6-10.44,20.55-19.34,3.5-10.56-1.47-18.7-10.01-24.52-.97-.66-2-1.12-3.09-1.37-1.2-.28-2.25-.71-3.16-1.28-2.6-1.65-5.33-2.63-8.2-2.95-22.31-5.88-42.33-1.92-60.07,11.87ZM765.79,710.97c-1.79,1.16-3.46,2.92-5.01,5.29-4.5,6.86-8.39,12.98-7.63,20.81,1.26,12.98,17.3,12.27,26.84,11.32,7.12-.71,14.47-1.58,22.05-2.59,2.88-.39,5.48-.36,7.81.08,3.71.7,7.41,1.27,11.08,1.72,5.15.63,9.54.57,13.16-.2,8.13-1.71,14.96-12.15,17.14-19.87,1.97-6.96.36-13.04-4.43-18.35-2.72-3.01-5.56-5.15-8.52-6.44-.83-.36-1.61-.77-2.33-1.24-.25-.16-.51-.28-.79-.36l-8.69-2.68c-22.77-5.93-43-1.76-60.68,12.51Z"/>
  <path class="cls-4" d="M684.9,667.78c-2.35,1.05-3.32,2.66-2.9,4.84.4,2.08,2,2.51,3.75,2.99,13.19,3.59,24.15,10.91,32.89,21.95,2.08,2.61,4.11,5.26,6.09,7.93,2.53,3.4,5.19,3.53,7.97.38.13-.22.35-.15.66.21.13.14.24.33.32.58.84,2.6,2.47,4.93,2.26,7.77-.03.42.1.78.39,1.07,1.36,1.38,1.6,5.08,1.71,7.08.65,11.86-4.57,19.4-15.67,22.61-2.77.8-6.44,1.22-11.01,1.25-6.14.03-11.07-2.18-14.78-6.63-3.71-4.46-7.62-10.53-11.73-18.2-.57-1.07-1.8-2.57-2.72-3.36-7.91-6.77-14.86-13.36-20.86-19.75-5.94-6.33-13.05-16.86-4.32-24.65,6.39-5.69,15.83-6.76,24.17-7.16,1.89-.09,3.15.28,3.78,1.09ZM730.98,720.59c2.1.47,4.2-.95,4.69-3.17h0c.49-2.22-.81-4.39-2.91-4.85h0c-2.1-.47-4.2.95-4.69,3.17-.49,2.22.81,4.39,2.91,4.85h0Z"/>
  <path class="cls-6" d="M684.9,667.78c2.85.02,5.56.49,8.13,1.4,17.47,6.22,30.46,17.65,38.96,34.28.25.49.49,1.3.71,2.41-2.78,3.15-5.44,3.02-7.97-.38-1.98-2.67-4.01-5.32-6.09-7.93-8.74-11.04-19.7-18.36-32.89-21.95-1.75-.48-3.35-.91-3.75-2.99-.42-2.18.55-3.79,2.9-4.84Z"/>
  <path class="cls-1" d="M477.56,752.81c-13.91.2-38.22.39-72.95.56-8.93.05-16.74-.22-23.42-.81-.7-.77-1.42-1.51-2.15-2.23-4.51-4.43-6.32-11.98-5.93-18,.03-.43-.12-.5-.44-.22-3.6,3.15-7.62,5.3-12.06,6.46-6.65,1.74-14.32,2.95-22.99,3.64-1.59.12-3.11.66-4.55,1.29-5.79,2.52-11.86,5.82-18.01,7.62-1.71.51-3.43.99-5.15,1.44-10.29.74-20.39.7-30.32-.13-7.61-7.15-10.68-16.03-9.19-26.66,1.22-8.77,3.82-16.81,7.79-24.12,13.01-23.97,46.39-34,71.69-32.14,19.13,1.4,36.25,12.91,35.14,34.26-.04.76-.36,1.7-.59,2.44-.21.67-.11.72.3.15,6.41-8.91,14.79-15.15,25.16-18.73,18.36-6.34,40.6-5.36,58.71,1.56,15.53,5.93,28.5,19.46,25.11,37.42-1.86,9.83-7.24,18.57-16.15,26.2ZM341.81,680.8c-2.48-.25-5.47-.09-8.98.47-17.88,2.84-32.33,11.13-43.36,24.88-.73.91-1.2,2.18-1.65,3.24-.73.43-1.43.74-1.82,1.56-2.25,4.7-3.82,10.16-4.69,16.39-.73,5.19.05,9.64,2.34,13.33,5.21,8.42,18.2,4.73,26.14,1.59,8.42-3.33,16.26-6.72,23.52-10.17,1.24-.59,2.77-.86,4.12-.98,5.63-.49,11.31-1.32,17.04-2.49,3.42-.69,6.4-1.8,8.93-3.32,7.4-4.43,10.51-15.9,10.5-23.93,0-10.32-7.66-16.93-16.77-19.56-1.7-.49-2.82-.25-3.37.74l-2.77-.89c-2.83-1.29-5.89-1.58-9.18-.86ZM397,709.68c-4.88,4.32-8.63,9.68-11.26,16.08-1.67,4.07-2.11,8.08-1.3,12.02,1.92,9.42,12.89,10.43,20.91,9.98,8.74-.51,18.46-1.61,29.15-3.31,1.38-.22,2.83-.22,4.19.06,6.85,1.39,13.19,2.24,19.03,2.53,2.05.1,4.17-.04,6.36-.41,9.21-1.57,16.11-12.5,18.27-20.59,2.84-10.61-3.64-19.37-12.58-24.13-.31-.17-.64-.22-.99-.16-.37.06-.76.16-1.16.31-1.11-.4-1.99-.87-2.64-1.4-1.43-1.72-3.98-2.78-7.66-3.19-19.27-5.28-37.43-2.67-54.47,7.84-1.41.87-3.36,2.32-5.85,4.37Z"/>
  <path class="cls-4" d="M350.99,681.66c-7.58,1.25-2.43,11.49,2.92,7.16,1.9-1.54,1.85-3.63-.15-6.27.55-.99,1.67-1.23,3.37-.74,9.11,2.63,16.77,9.24,16.77,19.56,0,8.03-3.1,19.5-10.5,23.93-2.53,1.52-5.51,2.63-8.93,3.32-5.73,1.17-11.41,2-17.04,2.49-1.35.12-2.88.39-4.12.98-7.26,3.45-15.1,6.84-23.52,10.17-7.94,3.14-20.93,6.83-26.14-1.59-2.29-3.69-3.07-8.14-2.34-13.33.87-6.23,2.44-11.69,4.69-16.39.39-.82,1.09-1.13,1.82-1.56-.21,2.54.91,4.09,3.35,4.64,1.3.3,2.27.05,2.9-.75,9.83-12.51,22.35-20.4,37.56-23.66,4.57-.98,13.62-1.26,10.18-8.82,3.29-.72,6.35-.43,9.18.86Z"/>
  <path class="cls-6" d="M341.81,680.8c3.44,7.56-5.61,7.84-10.18,8.82-15.21,3.26-27.73,11.15-37.56,23.66-.63.8-1.6,1.05-2.9.75-2.44-.55-3.56-2.1-3.35-4.64.45-1.06.92-2.33,1.65-3.24,11.03-13.75,25.48-22.04,43.36-24.88,3.51-.56,6.5-.72,8.98-.47Z"/>
  <path class="cls-6" d="M350.99,681.66l2.77.89c2,2.64,2.05,4.73.15,6.27-5.35,4.33-10.5-5.91-2.92-7.16Z"/>
  <path class="cls-1" d="M197.11,752.24c-23.13.79-46.4.83-69.79.12-2.03-.06-6.34-.09-12.92-.08-4.28,0-8.59-.15-12.93-.48-8.01-7.29-10.44-16.36-7.31-27.23,1.91-6.63,6.04-13.85,12.37-21.64,11.92-14.68,29.59-20.19,48.39-20.49,20.96-.33,50.68,6.26,58.05,29.21,3.73,11.61-1.39,24.24-8.84,33.47-1.91,2.36-4.25,4.73-7.02,7.12ZM117.33,709.14c-.39.16-.81.24-1.25.23-.33,0-.61.13-.82.38-4.24,4.99-7.5,10.31-9.78,15.96-1.37,3.37-1.76,6.83-1.18,10.4,1.84,11.27,15.59,11.26,24.84,10.43,8.85-.8,17.45-1.87,25.81-3.2,1.01-.16,2.04-.14,3.07.06,4.83.95,9.55,1.7,14.14,2.23,6.57.77,14.16,1,19.31-3.44,5.19-4.48,8.77-10.02,10.73-16.61,3.11-10.48-2.76-18.92-11.58-24.28-.23-.14-1.29-.54-3.17-1.19-.95-.33-1.98-.84-3.07-1.54-1.33-.85-3.63-1.53-6.9-2.04-20.65-5.65-39.82-2.42-57.5,9.69-.9.62-1.78,1.59-2.65,2.92Z"/>
  <path class="cls-6" d="M177.48,696.53c0,4.29-1.86,6.34-5.61,6.13-2.67-.15-5.34-.3-8.01-.45-13.36-.75-28.95,2.7-39.7,11.06-.99.77-2.05,1.23-3.19,1.39-3.03.43-4.53-2.79-3.64-5.52.87-1.33,1.75-2.3,2.65-2.92,17.68-12.11,36.85-15.34,57.5-9.69Z"/>
  <path class="cls-6" d="M628.44,696.47c.13,4.56-1.72,6.66-5.57,6.3-2.9-.27-5.73-.46-8.48-.59-15.07-.7-28.68,3.31-40.83,12.04-.84.61-1.75.76-2.72.47-2.48-.74-3.3-2.86-2.47-6.35,17.74-13.79,37.76-17.75,60.07-11.87Z"/>
  <path class="cls-6" d="M457.32,697.47c.26,4.58-1.71,6.68-5.9,6.3-5.55-.51-9.97-.72-13.28-.63-13.02.35-24.78,4.32-35.29,11.9-1.28.93-2.6,1.02-3.95.27-1.51-.83-2.14-2.71-1.9-5.63,2.49-2.05,4.44-3.5,5.85-4.37,17.04-10.51,35.2-13.12,54.47-7.84Z"/>
  <path class="cls-6" d="M826.47,698.46c.07,4.23-1.71,6.29-5.35,6.18-2.33-.07-4.74-.2-7.24-.37-15.58-1.06-29.62,2.88-42.13,11.81-1.17.84-2.44.9-3.82.17-1.37-.71-2.08-2.47-2.14-5.28,17.68-14.27,37.91-18.44,60.68-12.51Z"/>
  <path class="cls-4" d="M117.33,709.14c-.89,2.73.61,5.95,3.64,5.52,1.14-.16,2.2-.62,3.19-1.39,10.75-8.36,26.34-11.81,39.7-11.06,2.67.15,5.34.3,8.01.45,3.75.21,5.62-1.84,5.61-6.13,3.27.51,5.57,1.19,6.9,2.04,1.09.7,2.12,1.21,3.07,1.54,1.88.65,2.94,1.05,3.17,1.19,8.82,5.36,14.69,13.8,11.58,24.28-1.96,6.59-5.54,12.13-10.73,16.61-5.15,4.44-12.74,4.21-19.31,3.44-4.59-.53-9.31-1.28-14.14-2.23-1.03-.2-2.06-.22-3.07-.06-8.36,1.33-16.96,2.4-25.81,3.2-9.25.83-23,.84-24.84-10.43-.58-3.57-.19-7.03,1.18-10.4,2.28-5.65,5.54-10.97,9.78-15.96.21-.25.49-.38.82-.38.44,0,.86-.07,1.25-.23ZM187.63,707.13c1.58-1.45,1.62-3.99.08-5.67-1.54-1.68-4.07-1.87-5.66-.42h0c-1.58,1.45-1.62,3.99-.08,5.67,1.54,1.68,4.07,1.87,5.66.42h0Z"/>
  <path class="cls-4" d="M628.44,696.47c2.87.32,5.6,1.3,8.2,2.95.91.57,1.96,1,3.16,1.28,1.09.25,2.12.71,3.09,1.37,8.54,5.82,13.51,13.96,10.01,24.52-2.95,8.9-10.21,19.02-20.55,19.34-6.34.2-13.4-.53-21.18-2.19-1.86-.4-4.18-.66-6.06-.33-8.45,1.45-17.12,2.54-26,3.26-5.71.46-10.61.13-14.69-1-9.76-2.7-11.14-12.26-7.78-20.41,1.84-4.45,4.5-8.92,7.98-13.41.97-1.25,2.22-2.42,3.75-3.51-.83,3.49-.01,5.61,2.47,6.35.97.29,1.88.14,2.72-.47,12.15-8.73,25.76-12.74,40.83-12.04,2.75.13,5.58.32,8.48.59,3.85.36,5.7-1.74,5.57-6.3ZM638.51,707.22c1.64-1.39,1.76-3.93.29-5.67h0c-1.48-1.74-4-2.02-5.64-.62s-1.76,3.93-.29,5.67h0c1.48,1.74,4,2.02,5.64.62Z"/>
  <path class="cls-4" d="M457.32,697.47c3.68.41,6.23,1.47,7.66,3.19-2.93.57-4.32,2.05-4.17,4.44.12,1.97,1.04,3.22,2.75,3.75,1.41.45,2.71.21,3.89-.72,1.87-1.46,1.92-3.48.17-6.07.4-.15.79-.25,1.16-.31.35-.06.68,0,.99.16,8.94,4.76,15.42,13.52,12.58,24.13-2.16,8.09-9.06,19.02-18.27,20.59-2.19.37-4.31.51-6.36.41-5.84-.29-12.18-1.14-19.03-2.53-1.36-.28-2.81-.28-4.19-.06-10.69,1.7-20.41,2.8-29.15,3.31-8.02.45-18.99-.56-20.91-9.98-.81-3.94-.37-7.95,1.3-12.02,2.63-6.4,6.38-11.76,11.26-16.08-.24,2.92.39,4.8,1.9,5.63,1.35.75,2.67.66,3.95-.27,10.51-7.58,22.27-11.55,35.29-11.9,3.31-.09,7.73.12,13.28.63,4.19.38,6.16-1.72,5.9-6.3Z"/>
  <path class="cls-4" d="M826.47,698.46l8.69,2.68c.28.08.54.2.79.36.72.47,1.5.88,2.33,1.24,2.96,1.29,5.8,3.43,8.52,6.44,4.79,5.31,6.4,11.39,4.43,18.35-2.18,7.72-9.01,18.16-17.14,19.87-3.62.77-8.01.83-13.16.2-3.67-.45-7.37-1.02-11.08-1.72-2.33-.44-4.93-.47-7.81-.08-7.58,1.01-14.93,1.88-22.05,2.59-9.54.95-25.58,1.66-26.84-11.32-.76-7.83,3.13-13.95,7.63-20.81,1.55-2.37,3.22-4.13,5.01-5.29.06,2.81.77,4.57,2.14,5.28,1.38.73,2.65.67,3.82-.17,12.51-8.93,26.55-12.87,42.13-11.81,2.5.17,4.91.3,7.24.37,3.64.11,5.42-1.95,5.35-6.18ZM836.64,709.11c1.57-1.45,1.59-3.99.04-5.67h0c-1.55-1.68-4.08-1.86-5.66-.41h0c-1.57,1.45-1.59,3.99-.04,5.67h0c1.55,1.68,4.08,1.86,5.66.41h0Z"/>
  <ellipse class="cls-6" cx="184.84" cy="704.09" rx="3.89" ry="4.13" transform="translate(-427.11 309.85) rotate(-42.5)"/>
  <ellipse class="cls-6" cx="635.84" cy="704.08" rx="3.89" ry="4.13" transform="translate(-304.7 579.99) rotate(-40.4)"/>
  <path class="cls-6" d="M464.98,700.66c.65.53,1.53,1,2.64,1.4,1.75,2.59,1.7,4.61-.17,6.07-1.18.93-2.48,1.17-3.89.72-1.71-.53-2.63-1.78-2.75-3.75-.15-2.39,1.24-3.87,4.17-4.44Z"/>
  <ellipse class="cls-6" cx="833.83" cy="706.07" rx="3.88" ry="4.14" transform="translate(-257.79 752.64) rotate(-42.7)"/>
  <ellipse class="cls-6" cx="731.87" cy="716.58" rx="4.11" ry="3.89" transform="translate(-126.13 1276) rotate(-77.5)"/>
  <path class="cls-3" d="M695.33,753.53l-48.68-.37c3.2-2.45,5.66-4.67,7.37-6.66,6.94-8.1,12.01-18.84,11.14-29.65-.05-.57.09-.62.42-.15,1.65,2.44,4.43,4.25,6.53,6.32,1.05,1.03,2.15,2.57,3.32,4.6,1.97,3.41,4.17,7.1,6.61,11.05,3.75,6.05,8.18,11.01,13.29,14.86Z"/>
  <path class="cls-3" d="M381.19,752.56h-71.28c1.72-.45,3.44-.93,5.15-1.44,6.15-1.8,12.22-5.1,18.01-7.62,1.44-.63,2.96-1.17,4.55-1.29,8.67-.69,16.34-1.9,22.99-3.64,4.44-1.16,8.46-3.31,12.06-6.46.32-.28.47-.21.44.22-.39,6.02,1.42,13.57,5.93,18,.73.72,1.45,1.46,2.15,2.23Z"/>
  <path class="cls-2" d="M744.2,745.35c-.47-.6-.97-.78-1.5-.53.18-.37.38-.65.6-.84.29-.26.51-.21.66.15.15.35.23.75.24,1.22Z"/>
  <path class="cls-3" d="M744.2,745.35c1.06,2.62,2.48,4.7,4.26,6.24,1.25,1.08,1.04,1.62-.61,1.61l-11.95-.05c-1.17.01-1.66-.39-1.46-1.2,3.06-1.67,5.81-4.05,8.26-7.13.53-.25,1.03-.07,1.5.53Z"/>
  <path class="cls-2" d="M734.44,751.95c-.2.81.29,1.21,1.46,1.2v.19l-4,.18c-.09-.07-.14-.14-.17-.23-.06-.21.01-.32.22-.35.77-.11,1.6-.44,2.49-.99Z"/>
  <polygon class="cls-3" points="867.11 753.75 91.38 751.53 91.38 646.05 867.11 646.05 867.11 753.75"/>
  <g>
    <path class="cls-1" d="M195.8,700.95c.54,17.69-16,24.09-30.49,26.64-6.82,1.2-13.76,2.22-20.8,3.05-1.45.16-3.1.79-4.38,1.45-6.69,3.5-13.22,6.34-19.58,8.5-9.64,3.28-18.42,2.51-26.36-2.32-10.13-6.15-19.66-16.94-20.46-28.85-1.78-26.59,28.89-42.28,50.2-47.42,16.69-4.02,33.88-3.37,48.2,6.1,11.84,7.83,23.24,18.54,23.68,32.85ZM166.04,678.88c-1.53-1.48-3.19-2.56-4.96-3.22-17.59-6.56-38.3-4-54.71,4.84-1.17.62-2.06,1.53-2.7,2.7-1.61.05-2.92.68-3.94,1.9-.94,1.12-1.66,1.89-2.13,2.29-1.19.71-2.19,1.69-2.98,2.94l-1.41-.08c-.35-.02-.64.09-.9.34-3.8,3.68-6.2,8.06-7.21,13.13-1.99,9.96,5.28,18.65,13.15,24.03,5.73,3.93,11.81,4.78,18.24,2.56,5.91-2.04,12.25-4.78,19.03-8.22.91-.47,1.92-.76,3.03-.88,8.66-.94,17.81-2.38,27.45-4.33,4.24-.85,8.19-2.26,11.86-4.21,10.26-5.48,8.27-15.88,1.98-23.34-2.83-3.36-6.17-6.51-10.02-9.45-1.18-.9-2.44-1.23-3.78-.99Z"/>
    <path class="cls-4" d="M94.61,690.33c-.83,6.63,7.64,7.21,7.88,1.29.09-2.19-2.39-5.31-4.9-4.22.48-.4,1.19-1.16,2.13-2.29,1.01-1.22,2.33-1.85,3.94-1.9,1.63,3.9,4.55,4.92,8.77,3.05,10.31-4.57,21.07-6.45,32.26-5.65,4.37.31,9.66,1.5,15.84,3.56,3.72,1.24,5.55-.52,5.5-5.29,1.34-.24,2.6.09,3.78.99,3.86,2.95,7.2,6.1,10.02,9.45,6.29,7.46,8.28,17.86-1.98,23.34-3.67,1.95-7.62,3.36-11.86,4.21-9.64,1.94-18.79,3.39-27.45,4.33-1.11.12-2.12.41-3.03.88-6.77,3.44-13.12,6.18-19.03,8.22-6.43,2.22-12.51,1.36-18.24-2.56-7.87-5.37-15.13-14.07-13.15-24.03,1.01-5.08,3.41-9.45,7.21-13.13.25-.25.55-.36.9-.34l1.41.08Z"/>
    <path class="cls-6" d="M166.04,678.88c.05,4.77-1.78,6.53-5.5,5.29-6.19-2.06-11.47-3.25-15.84-3.56-11.19-.8-21.94,1.09-32.26,5.65-4.22,1.86-7.14.85-8.77-3.05.63-1.18,1.53-2.08,2.7-2.7,16.41-8.84,37.12-11.4,54.71-4.84,1.77.66,3.43,1.74,4.96,3.22Z"/>
    <path class="cls-6" d="M94.61,690.33c.8-1.24,1.79-2.22,2.98-2.94,2.51-1.09,4.99,2.03,4.9,4.22-.24,5.92-8.71,5.34-7.88-1.29Z"/>
  </g>
  <g>
    <path class="cls-1" d="M338.5,685.52c4.64,17.08-9.97,27.15-23.47,32.99-6.35,2.75-12.86,5.35-19.53,7.8-1.38.49-2.83,1.48-3.93,2.43-5.7,4.96-11.39,9.23-17.07,12.82-8.61,5.43-17.34,6.72-26.18,3.86-11.28-3.63-23.06-11.91-26.6-23.31-7.9-25.45,18.29-47.83,37.82-57.77,15.3-7.79,32.17-11.15,48.3-5.26,13.34,4.87,26.91,12.64,30.66,26.45ZM304.43,670.96c-1.84-1.09-3.69-1.75-5.57-1.98-18.63-2.3-38.18,5-52.09,17.41-.99.88-1.65,1.96-2,3.26-1.56.42-2.69,1.34-3.39,2.76-.66,1.31-1.17,2.22-1.55,2.72-1,.97-1.74,2.15-2.22,3.55l-1.39.25c-.34.06-.61.24-.8.54-2.84,4.46-4.16,9.28-3.96,14.45.38,10.15,9.47,16.92,18.37,20.32,6.49,2.49,12.6,1.91,18.34-1.74,5.28-3.36,10.81-7.49,16.6-12.41.78-.66,1.69-1.18,2.74-1.56,8.21-2.93,16.77-6.46,25.7-10.58,3.92-1.82,7.45-4.1,10.56-6.85,8.71-7.71,4.35-17.37-3.49-23.16-3.53-2.61-7.51-4.9-11.95-6.87-1.36-.6-2.66-.63-3.9-.09Z"/>
    <path class="cls-4" d="M237.61,698.68c.73,6.64,9.11,5.24,7.96-.58-.42-2.15-3.56-4.61-5.74-2.97.37-.5.89-1.41,1.55-2.72.7-1.42,1.83-2.34,3.39-2.76,2.49,3.41,5.57,3.73,9.24.93,8.97-6.84,18.99-11.17,30.06-12.99,4.33-.71,9.74-.78,16.24-.21,3.91.34,5.28-1.8,4.12-6.42,1.25-.55,2.55-.52,3.9.09,4.43,1.97,8.42,4.26,11.95,6.87,7.85,5.8,12.2,15.45,3.49,23.16-3.12,2.75-6.64,5.04-10.56,6.85-8.93,4.13-17.49,7.66-25.7,10.58-1.05.37-1.96.89-2.74,1.56-5.79,4.92-11.32,9.06-16.6,12.41-5.74,3.65-11.85,4.23-18.34,1.74-8.9-3.4-17.98-10.17-18.37-20.32-.2-5.17,1.12-9.99,3.96-14.45.19-.3.46-.48.8-.54l1.39-.25Z"/>
    <path class="cls-6" d="M304.43,670.96c1.16,4.62-.22,6.77-4.12,6.42-6.5-.57-11.91-.5-16.24.21-11.07,1.82-21.09,6.15-30.06,12.99-3.67,2.79-6.75,2.48-9.24-.93.34-1.29,1.01-2.38,2-3.26,13.91-12.41,33.46-19.71,52.09-17.41,1.88.23,3.74.89,5.57,1.98Z"/>
    <path class="cls-6" d="M237.61,698.68c.48-1.39,1.22-2.58,2.22-3.55,2.18-1.64,5.33.82,5.74,2.97,1.14,5.82-7.23,7.22-7.96.58Z"/>
  </g>
  <g>
    <path class="cls-1" d="M464.28,734.98c-11.76,13.23-28.18,6.5-40.46-1.6-5.78-3.81-11.52-7.84-17.21-12.08-1.17-.88-2.79-1.56-4.18-1.96-7.27-2.06-13.96-4.48-20.07-7.28-9.26-4.24-15.11-10.84-17.56-19.8-3.13-11.43-2.64-25.82,4.96-35.02,16.98-20.54,50.05-10.86,69.05.05,14.89,8.55,26.93,20.83,30.83,37.55,3.22,13.83,4.14,29.44-5.37,40.14ZM457.82,698.49c-.09-2.13-.56-4.05-1.39-5.75-8.27-16.85-25.07-29.23-43.07-34.08-1.27-.35-2.55-.31-3.82.11-1.2-1.07-2.59-1.51-4.16-1.33-1.46.17-2.5.23-3.12.19-1.36-.3-2.75-.27-4.19.08l-.97-1.03c-.24-.25-.53-.38-.89-.37-5.29.06-10.04,1.59-14.26,4.59-8.29,5.87-8.98,17.18-6.96,26.49,1.47,6.79,5.3,11.59,11.49,14.4,5.7,2.58,12.19,4.95,19.47,7.11.98.29,1.92.77,2.8,1.45,6.94,5.27,14.58,10.51,22.92,15.72,3.67,2.29,7.5,3.99,11.51,5.09,11.22,3.07,16.92-5.86,17.48-15.6.25-4.38,0-8.97-.79-13.76-.24-1.46-.93-2.57-2.06-3.31Z"/>
    <path class="cls-4" d="M398.07,657.72c-5.16,4.25.6,10.49,4.84,6.35,1.57-1.53,1.91-5.5-.65-6.43.62.04,1.66-.03,3.12-.19,1.57-.19,2.96.26,4.16,1.33-1.5,3.95-.07,6.7,4.27,8.24,10.63,3.77,19.74,9.79,27.32,18.06,2.96,3.23,5.98,7.73,9.06,13.48,1.85,3.46,4.39,3.44,7.63-.06,1.14.75,1.83,1.85,2.06,3.31.78,4.79,1.04,9.38.79,13.76-.56,9.74-6.26,18.67-17.48,15.6-4.01-1.1-7.85-2.8-11.51-5.09-8.34-5.21-15.98-10.45-22.92-15.72-.89-.67-1.82-1.16-2.8-1.45-7.28-2.16-13.78-4.53-19.47-7.11-6.19-2.81-10.03-7.61-11.49-14.4-2.02-9.31-1.32-20.62,6.96-26.49,4.22-3,8.98-4.52,14.26-4.59.35,0,.65.12.89.37l.97,1.03Z"/>
    <path class="cls-6" d="M457.82,698.49c-3.24,3.5-5.78,3.52-7.63.06-3.08-5.75-6.1-10.24-9.06-13.48-7.58-8.27-16.69-14.29-27.32-18.06-4.34-1.54-5.77-4.29-4.27-8.24,1.27-.42,2.54-.46,3.82-.11,18,4.85,34.8,17.23,43.07,34.08.83,1.7,1.3,3.62,1.39,5.75Z"/>
    <path class="cls-6" d="M398.07,657.72c1.43-.36,2.83-.39,4.19-.08,2.57.93,2.23,4.91.65,6.43-4.24,4.14-10-2.1-4.84-6.35Z"/>
  </g>
  <g>
    <path class="cls-1" d="M620.45,651.99c11.36,13.57,2.3,28.83-7.52,39.78-4.62,5.16-9.44,10.24-14.47,15.25-1.04,1.03-1.95,2.53-2.55,3.85-3.1,6.89-6.48,13.15-10.14,18.79-5.55,8.54-12.94,13.36-22.16,14.46-11.76,1.42-25.93-1.17-33.91-10.04-17.82-19.81-3.41-51.1,10.17-68.3,10.64-13.47,24.55-23.58,41.67-24.99,14.15-1.16,29.73.22,38.92,11.2ZM583.41,653.02c-2.12-.22-4.09-.04-5.89.53-17.88,5.71-32.59,20.52-40.03,37.61-.53,1.21-.68,2.47-.45,3.79-1.24,1.03-1.88,2.34-1.92,3.92-.05,1.47-.14,2.51-.27,3.12-.5,1.3-.67,2.68-.53,4.15l-1.16.81c-.28.2-.45.47-.5.82-.71,5.24.1,10.17,2.45,14.78,4.59,9.06,15.68,11.4,25.18,10.77,6.93-.46,12.24-3.54,15.93-9.26,3.39-5.26,6.68-11.33,9.88-18.22.43-.93,1.04-1.78,1.84-2.56,6.23-6.09,12.53-12.88,18.91-20.37,2.81-3.29,5.05-6.84,6.72-10.64,4.68-10.65-3.31-17.6-12.87-19.58-4.3-.89-8.87-1.31-13.72-1.24-1.48.02-2.68.54-3.58,1.56Z"/>
    <path class="cls-4" d="M534.32,706.15c3.45,5.73,10.46.95,6.99-3.86-1.28-1.78-5.16-2.7-6.46-.3.13-.61.22-1.65.27-3.12.05-1.58.69-2.89,1.92-3.92,3.69,2.06,6.62,1.05,8.78-3.02,5.29-9.96,12.58-18.09,21.87-24.37,3.63-2.46,8.52-4.79,14.66-6.99,3.69-1.32,4.04-3.84,1.06-7.56.9-1.02,2.1-1.54,3.58-1.56,4.85-.07,9.43.35,13.72,1.24,9.55,1.98,17.55,8.93,12.87,19.58-1.68,3.8-3.92,7.35-6.72,10.64-6.38,7.48-12.68,14.27-18.91,20.37-.8.78-1.41,1.63-1.84,2.56-3.2,6.89-6.5,12.96-9.88,18.22-3.69,5.72-8.99,8.8-15.93,9.26-9.51.63-20.59-1.71-25.18-10.77-2.34-4.61-3.16-9.54-2.45-14.78.05-.35.21-.62.5-.82l1.16-.81Z"/>
    <path class="cls-6" d="M583.41,653.02c2.99,3.72,2.64,6.23-1.06,7.56-6.14,2.2-11.03,4.53-14.66,6.99-9.29,6.29-16.58,14.41-21.87,24.37-2.16,4.07-5.09,5.08-8.78,3.02-.23-1.32-.08-2.58.45-3.79,7.44-17.09,22.14-31.9,40.03-37.61,1.8-.57,3.77-.75,5.89-.53Z"/>
    <path class="cls-6" d="M534.32,706.15c-.14-1.47.03-2.85.53-4.15,1.3-2.4,5.18-1.49,6.46.3,3.47,4.8-3.55,9.58-6.99,3.86Z"/>
  </g>
  <g>
    <path class="cls-1" d="M777.84,726.5c-5.23,16.91-22.96,17.59-37.49,15.3-6.84-1.08-13.73-2.36-20.67-3.87-1.43-.32-3.19-.26-4.62-.05-7.47,1.14-14.56,1.7-21.28,1.69-10.18-.02-18.24-3.61-24.18-10.75-7.58-9.1-13.1-22.41-9.99-33.93,6.95-25.73,41.05-30.62,62.87-28.56,17.09,1.61,33.14,7.81,43.62,21.41,8.66,11.25,15.96,25.08,11.74,38.76ZM756.85,695.96c-.97-1.9-2.18-3.45-3.65-4.65-14.51-11.91-34.93-16.22-53.32-13.18-1.3.21-2.45.77-3.43,1.68-1.54-.48-2.99-.31-4.34.52-1.26.76-2.18,1.25-2.76,1.47-1.36.29-2.62.89-3.77,1.81l-1.31-.54c-.32-.13-.64-.12-.96.03-4.79,2.25-8.48,5.61-11.08,10.08-5.11,8.77-1.06,19.36,4.64,26.99,4.15,5.57,9.62,8.36,16.42,8.35,6.25-.01,13.14-.54,20.67-1.6,1.01-.14,2.06-.09,3.15.15,8.5,1.92,17.62,3.53,27.37,4.82,4.29.57,8.48.52,12.59-.13,11.48-1.85,12.97-12.34,9.45-21.44-1.59-4.09-3.72-8.16-6.41-12.2-.82-1.23-1.91-1.95-3.25-2.16Z"/>
    <path class="cls-4" d="M685.58,683.61c-2.94,6,4.89,9.3,7.04,3.78.8-2.04-.54-5.8-3.26-5.59.58-.22,1.5-.71,2.76-1.47,1.35-.82,2.8-.99,4.34-.52.28,4.22,2.71,6.13,7.3,5.73,11.24-.97,22.02.73,32.34,5.12,4.04,1.72,8.65,4.55,13.83,8.51,3.12,2.38,5.42,1.31,6.92-3.22,1.35.21,2.43.93,3.25,2.16,2.69,4.04,4.83,8.1,6.41,12.2,3.53,9.1,2.03,19.58-9.45,21.44-4.11.66-8.3.7-12.59.13-9.75-1.29-18.87-2.9-27.37-4.82-1.09-.25-2.14-.3-3.15-.15-7.52,1.05-14.41,1.59-20.67,1.6-6.8.01-12.28-2.77-16.42-8.35-5.7-7.64-9.75-18.22-4.64-26.99,2.6-4.47,6.3-7.84,11.08-10.08.32-.15.64-.16.96-.03l1.31.54Z"/>
    <path class="cls-6" d="M756.85,695.96c-1.5,4.53-3.8,5.6-6.92,3.22-5.18-3.96-9.79-6.8-13.83-8.51-10.32-4.39-21.11-6.09-32.34-5.12-4.59.4-7.03-1.52-7.3-5.73.98-.91,2.13-1.47,3.43-1.68,18.39-3.04,38.81,1.27,53.32,13.18,1.46,1.2,2.68,2.75,3.65,4.65Z"/>
    <path class="cls-6" d="M685.58,683.61c1.16-.92,2.41-1.52,3.77-1.81,2.72-.22,4.06,3.54,3.26,5.59-2.15,5.52-9.97,2.23-7.04-3.78Z"/>
  </g>
  <g>
    <path class="cls-1" d="M905.25,727.31c-9.17,15.14-26.53,11.51-40.08,5.76-6.38-2.7-12.75-5.62-19.12-8.76-1.31-.66-3.03-1.03-4.47-1.17-7.52-.7-14.54-1.88-21.06-3.52-9.87-2.49-16.83-7.92-20.86-16.29-5.15-10.67-7.28-24.91-1.47-35.33,12.98-23.28,47.24-19.76,67.91-12.48,16.19,5.7,30.26,15.6,37.13,31.34,5.68,13.02,9.42,28.2,2,40.44ZM892.28,692.6c-.48-2.08-1.28-3.88-2.41-5.4-11.19-15.07-29.96-24.19-48.54-25.7-1.32-.11-2.56.16-3.74.8-1.38-.84-2.82-1.02-4.34-.55-1.4.43-2.41.68-3.03.76-1.39-.05-2.76.23-4.1.84l-1.14-.84c-.28-.2-.59-.27-.94-.21-5.19,1.02-9.59,3.39-13.2,7.1-7.08,7.28-5.72,18.52-2.04,27.31,2.67,6.41,7.31,10.44,13.91,12.07,6.07,1.5,12.88,2.66,20.44,3.46,1.02.11,2.03.41,3.02.91,7.78,3.92,16.24,7.69,25.39,11.3,4.02,1.59,8.1,2.56,12.25,2.92,11.59.98,15.58-8.83,14.36-18.51-.55-4.36-1.64-8.82-3.27-13.39-.5-1.4-1.38-2.36-2.63-2.88Z"/>
    <path class="cls-4" d="M826.12,663.35c-4.3,5.11,2.49,10.21,5.91,5.37,1.27-1.79.88-5.76-1.81-6.21.62-.07,1.63-.33,3.03-.76,1.51-.47,2.96-.29,4.34.55-.75,4.16,1.15,6.6,5.7,7.33,11.14,1.78,21.19,6.05,30.14,12.8,3.5,2.64,7.29,6.51,11.36,11.61,2.45,3.07,4.94,2.58,7.49-1.45,1.26.53,2.13,1.49,2.63,2.88,1.63,4.57,2.72,9.03,3.27,13.39,1.22,9.68-2.77,19.49-14.36,18.51-4.14-.36-8.23-1.33-12.25-2.92-9.15-3.61-17.61-7.38-25.39-11.3-.99-.5-2-.81-3.02-.91-7.56-.8-14.37-1.95-20.44-3.46-6.6-1.64-11.24-5.66-13.91-12.07-3.68-8.79-5.04-20.04,2.04-27.31,3.61-3.71,8.01-6.08,13.2-7.1.35-.07.66,0,.94.21l1.14.84Z"/>
    <path class="cls-6" d="M892.28,692.6c-2.55,4.03-5.05,4.51-7.49,1.45-4.07-5.1-7.85-8.97-11.36-11.61-8.95-6.76-19-11.02-30.14-12.8-4.55-.73-6.45-3.17-5.7-7.33,1.17-.64,2.42-.91,3.74-.8,18.58,1.51,37.35,10.63,48.54,25.7,1.13,1.52,1.93,3.32,2.41,5.4Z"/>
    <path class="cls-6" d="M826.12,663.35c1.34-.61,2.71-.89,4.1-.84,2.69.45,3.08,4.42,1.81,6.21-3.42,4.84-10.21-.25-5.91-5.37Z"/>
  </g>
</svg>