<?xml version="1.0" encoding="UTF-8"?>
<svg id="_레이어_2" data-name="레이어 2" xmlns="http://www.w3.org/2000/svg" viewBox="0 0 123.46 425.29">
  <defs>
    <style>
      .cls-1 {
        fill: none;
      }

      .cls-1, .cls-2, .cls-3, .cls-4 {
        stroke-width: 0px;
      }

      .cls-2 {
        fill: #7c6f64;
      }

      .cls-3 {
        fill: #000;
      }

      .cls-4 {
        fill: #ac9a8b;
      }
    </style>
  </defs>
  <g id="_레이어_1-2" data-name="레이어 1">
    <g>
      <path class="cls-4" d="M24.22,0h70.31c-1.02,4.95-1.57,9.86-1.64,14.75-.03,1.63-.56,2.95-1.61,3.94-2.07,1.97-4.77,3.67-6.34,6-2.18,3.23-1.1,7.48,1.66,10.06,1.23,1.15,2.5,2.22,3.81,3.2,2.21,1.65,3.11,3.83,2.7,6.55-.15,1.01-.65,1.82-1.5,2.43-3.66,2.6-7.34,5.16-11.05,7.68-3.04,2.06-7.29,3.06-8.18,7.02-.36,1.61-.16,4.15.59,7.6.55,2.5,1.08,5.08,1.6,7.74-4.62,7.01-4.55,14.16.2,21.46-1.97,1.73-3.79,3.62-5.47,5.65-.85,1.04-1.29,2.02-1.31,2.93-.11,6.01,2.14,10.94,6.75,14.79.17.14.19.39.05.56-.03.03-.06.06-.1.09-1.47.88-2.84,1.92-4.09,3.11-.77.73-1.29,1.93-1.54,3.6-.35,2.29-.86,4.53-1.51,6.72-9.5-5.71-13.86,8.54-16.3,14.42-.61,1.49-.33,3.38.73,4.59,1.07,1.21,1.93,2.57,2.6,4.08,1.97,4.43,6.33,7.21,10.95,8.33.8.09,1.12.39.95.9-2.41,7.38-.57,13.39,5.52,18.03.68.52.81,1.49.29,2.17-.04.05-.08.1-.13.15-1.37,1.39-3,2.49-4.89,3.3-2.11-2.03-4.17-2-6.16.07-1.49,1.55-3.5,4.21-6.02,7.98-3.73,5.56.4,11.37,3.71,16.04.77,1.09,2.12,1.25,4.03.48.93.47,1.46,1.23,1.59,2.28.08.69-.17,1.48-.76,2.38-1.98,3.03-3.53,6.27-4.64,9.72-3.54,1.31-7.03,3.61-10.46,6.9-.25.24-.52.26-.81.07-3.86-2.58-9.25-6.69-6.6-12.01.5-.99,1.37-1.6,2.62-1.82,3.58-.63,11.84-4.67,7.41-9.28-2.64-2.74-6.14,2.07-9.1,2.42-1.75.21-3.51.53-5.26.96-.42.11-.86-.15-.97-.58l-1.69-6.43c-.06-.25-.04-.51.06-.74,1.15-2.49,2.41-4.74,3.78-6.76,4.45-6.52.48-12.89-3.84-17.94-.42-.48-.45-.99-.09-1.52.43-.63.77-1.27,1.03-1.91.39-.98.69-.95.89.09.83,4.27,2.48,6.23,4.97,5.88,6.11-.87.91-10.85-.71-13.68-2.1-3.66-4.11-7.63-6.02-11.9-1.57-3.51-1.7-6.71-.38-9.59,1.88-4.09,6.01-6.53,8.52-10.23,2.67-3.93,2.33-7.63-1.04-11.08-2.11-2.17-4.55-4.15-5.27-7.37-.09-.37,0-.7.25-.99,3.07-3.48,6.24-7.59,4.49-12.44-.2-.55-.08-1.16.31-1.6,3.61-4.09,8.18-11.73,7.06-17.47-.61-3.17-3.21-4.32-5.38-6.34-.48-.45-.54-.95-.19-1.5l2.95-4.7c.37-.58.78-.62,1.25-.12,1.53,1.63,2.82,3.22,3.87,4.76,2.57,3.75,9,.17,5.5-4.39-2.39-3.12-5.35-6.14-8.9-9.05-2.04-1.68-3.85-3.9-5.12-6.25-.23-.42-.27-.91-.1-1.36,1.04-2.92,3.36-8.08,5.92-9.59.31-.18.64-.27.99-.28,3.35,0,6.76.5,9.95-.85,7.45-3.18,11.97-9.94,11.97-18.25.01-5.21-8.32-5.63-7.33-.26.26,1.42.05,3.12-.62,5.1-1.41,4.16-5.82,7.94-10.53,7.47-1.74-.18-3.87.19-5.39-.74-4.09-2.5-7.07-5.6-8.94-9.29-.15-.3-.16-.65-.02-.95,2.23-4.72,4.2-9.44,5.91-14.16.57-1.57.19-2.86-1.15-3.86-.21-.15-.45-.26-.7-.31-1.89-.38-3.79.66-4.5,2.47-1.59,4.06-3.21,7.85-4.84,11.36-.15.34-.37.39-.66.14-2.81-2.45-5.55-5.05-8.22-7.8-1.15-1.19-1.54-2.54-1.17-4.03.89-3.54,1.79-6.87,2.69-9.99.69-2.39.29-5.39-1.19-9.01Z"/>
      <path class="cls-2" d="M94.53,0h22.12c-1.66,4.76-2.4,10.94-6.92,15.06-6.86,6.25-12.61,11.04-7.35,21.2,1.67,3.23,2.26,6.52,1.77,9.86-.69,4.63-3.09,10.06-6.48,13.7-2.65,2.85-5.57,5.48-4.84,9.8.87,5.07,2.26,9.74,4.18,13.99,1.66,3.68,1.61,7.26-.14,10.75-1.32,2.62-2.54,5.16-3.66,7.63-1.49,3.28.53,4.96,3.56,5.2.32.03.58.17.77.42,2.13,2.76,2.31,5.51.56,8.25-2.1,3.29-4.41,5.8-6.93,7.55-1.31.9-2.26,2.05-2.86,3.45-2.13,4.91,2.99,7.46,5.32,11.05.21.33.3.72.25,1.1-.33,2.3-.43,4.34-2.49,5.9-5.45,4.14-9.28,7.19-7.47,14.8.2.87-.07,1.79-.72,2.41-3.1,2.91-5.64,5.95-5.88,10.46-.19,3.58,2.78,7.79,6.31,4.35.27-.26.56-.29.87-.1,2.5,1.5,4.65,3.1,6.45,4.81.76.71,1.03,1.8.7,2.78l-3.68,11.03c-.16.47-.5.85-.94,1.06-8.23,3.83-15.23,9.35-20.98,16.58-.61.77-.64,1.79-.11,3.06.89,2.15,3.44,2.15,5.07.95,1.42-1.05,2.74-2.38,3.97-3.98.28-.37.51-.34.68.09,1.07,2.68,1.75,5.42,2.02,8.21.48,4.93-4.14,8.78-4.81,13.58-.64,4.65-.09,8.8,2.37,12.67,3.25,5.12-4.33,8.84-6.03,12.74-.75,1.7-1.23,3.29-2.33,4.83-1.78,2.48-3.35,4.78-4.71,6.9-1,1.55-1.26,3.81-.78,6.77.05.37-.1.53-.46.49-2.93-.27-5.52.6-7.75,2.63-1.37-5.33-.47-10.28,2.7-14.84,3.67-.81,6.08-2.56,7.24-5.27,1.43-3.34,0-5.69-.86-8.57.72-.98.99-1.97.82-2.97-.06-.33-.22-.6-.49-.8-3.36-2.56-4.54-6.45-3.55-11.66,2.61-2.34,2.61-4.71-.02-7.12,1.11-3.45,2.66-6.69,4.64-9.72.59-.9.84-1.69.76-2.38-.13-1.05-.66-1.81-1.59-2.28,3.32-3.03-1.4-8.27-2.77-11.18-.17-.37-.15-.73.04-1.08,1.89-3.35,4.1-6.03,6.65-8.04.28-.22.46-.5.53-.85.25-1.14.25-2.28-.01-3.42,1.89-.81,3.52-1.91,4.89-3.3.6-.61.6-1.59-.01-2.19-.05-.05-.1-.09-.15-.13-6.09-4.64-7.93-10.65-5.52-18.03.17-.51-.15-.81-.95-.9,8.23.92,11.01-7.33,12.63-14.18.45-1.9.91-4.11-.01-5.82-2.54-4.73-6.07-8.54-10.6-11.42.65-2.19,1.16-4.43,1.51-6.72.25-1.67.77-2.87,1.54-3.6,1.25-1.19,2.62-2.23,4.09-3.11.19-.11.25-.36.14-.55-.02-.04-.05-.07-.09-.1-4.61-3.85-6.86-8.78-6.75-14.79.02-.91.46-1.89,1.31-2.93,1.68-2.03,3.5-3.92,5.47-5.65,3.07,3.85,6.03,7.07,8.88,9.64,4.56,4.12,8.37-4.36,3.03-6.79-2.78-1.26-5.64-5.33-7.13-7.82-4.12-6.87-.55-12.17,3.99-18.29.8-1.08,1.73-1.75,2.8-2.02.28-.07.53-.21.74-.4,1.11-1.01,1.33-2.17.67-3.5-1.32-2.65-5.08-2.22-6.84-.51-1.53,1.48-3.64,4.22-6.34,8.23-.52-2.66-1.05-5.24-1.6-7.74-.75-3.45-.95-5.99-.59-7.6.89-3.96,5.14-4.96,8.18-7.02,3.71-2.52,7.39-5.08,11.05-7.68.85-.61,1.35-1.42,1.5-2.43.41-2.72-.49-4.9-2.7-6.55-1.31-.98-2.58-2.05-3.81-3.2-2.76-2.58-3.84-6.83-1.66-10.06,1.57-2.33,4.27-4.03,6.34-6,1.05-.99,1.58-2.31,1.61-3.94.07-4.89.62-9.8,1.64-14.75Z"/>
      <path class="cls-3" d="M74.77,98.43c-4.75-7.3-4.82-14.45-.2-21.46,2.7-4.01,4.81-6.75,6.34-8.23,1.76-1.71,5.52-2.14,6.84.51.66,1.33.44,2.49-.67,3.5-.21.19-.46.33-.74.4-1.07.27-2,.94-2.8,2.02-4.54,6.12-8.11,11.42-3.99,18.29,1.49,2.49,4.35,6.56,7.13,7.82,5.34,2.43,1.53,10.91-3.03,6.79-2.85-2.57-5.81-5.79-8.88-9.64Z"/>
      <path class="cls-3" d="M67.55,135.88c4.53,2.88,8.06,6.69,10.6,11.42.92,1.71.46,3.92.01,5.82-1.62,6.85-4.4,15.1-12.63,14.18-4.62-1.12-8.98-3.9-10.95-8.33-.67-1.51-1.53-2.87-2.6-4.08-1.06-1.21-1.34-3.1-.73-4.59,2.44-5.88,6.8-20.13,16.3-14.42ZM63.09,141.23c-2.2,2.64-3.7,5.81-4.81,9.11-.11.33-.09.66.08.97,2.25,4.21,2.64,7.41,7.75,9.19,1.07.37,2.25-.08,2.8-1.07,1.41-2.55,2.45-5.55,3.14-8.98.07-.33.01-.67-.16-.96-1.91-3.29-4.56-6.09-7.97-8.38-.27-.18-.63-.13-.83.12Z"/>
      <path class="cls-2" d="M58.28,150.34c1.11-3.3,2.61-6.47,4.81-9.11.2-.25.56-.3.83-.12,3.41,2.29,6.06,5.09,7.97,8.38.17.29.23.63.16.96-.69,3.43-1.73,6.43-3.14,8.98-.55.99-1.73,1.44-2.8,1.07-5.11-1.78-5.5-4.98-7.75-9.19-.17-.31-.19-.64-.08-.97Z"/>
      <path class="cls-3" d="M67.27,191.85c.26,1.14.26,2.28.01,3.42-.07.35-.25.63-.53.85-2.55,2.01-4.76,4.69-6.65,8.04-.19.35-.21.71-.04,1.08,1.37,2.91,6.09,8.15,2.77,11.18-1.91.77-3.26.61-4.03-.48-3.31-4.67-7.44-10.48-3.71-16.04,2.52-3.77,4.53-6.43,6.02-7.98,1.99-2.07,4.05-2.1,6.16-.07Z"/>
      <path class="cls-4" d="M59.04,237.92c-.99,5.21.19,9.1,3.55,11.66.27.2.43.47.49.8.17,1-.1,1.99-.82,2.97-1.2-2.95-3.57-7.18-6.88-5.02-3.07,2,.61,7.78,1.64,10.08.18.39.13.75-.16,1.08-.54.61-1.23.95-2.08,1.01-.41.03-.76-.1-1.06-.37-1.28-1.16-4.02-4.67-2.67-6.46.19-.26.25-.59.15-.9-.56-1.73-1.64-2.63-3.25-2.71-4.08-.21-5.24,3.7-3.85,7.03,1.39,3.36,3.29,6.22,5.69,8.58,1.45,1.43,3.48,1.94,6.09,1.52-3.17,4.56-4.07,9.51-2.7,14.84-3.27,3.57-5.27,5.89-6,6.97-1.19,1.77-1.03,3.28.46,4.54,1.37,1.17,3.21.67,4.76.15.43,1.15.58,2.47.46,3.97-3.37-.83-4.32,2.96-2.97,5.46,1.35,2.5,2.68,4.8,4,6.91-.39,2.13-.5,4.23-.34,6.32.19,2.54-1.5,4.12-1.23,6.92.17,1.65.38,3.29.63,4.9-2.39,2.27-3.08,5.24-2.05,8.93,1.01,3.64,5.34,4.49,6.34.36,2.65.79,4.84,2.45,6.58,4.98-3.69,1.64-8.87,5.67-9.21,9.95-.16,2.1.75,3.5,2.73,4.19,1.28.45,2.28.29,3.01-.48.32-.34.62-1.19.9-2.56.33-1.61,1.34-2.88,3.02-3.81,1.65,3.39,3.48,6.71,5.51,9.95,1.07,1.72,1.46,3.4,1.96,5.3.08.31.23.59.44.84l2.44,2.79c-4.78-1.83-9.08-2.55-12.91-2.14-5.49.58-11.47,8.4-14.57,12.65-.83,1.13-1.13,2.35-.9,3.66.07.38-.08.65-.43.8-1.97.85-3.67,1.99-5.09,3.42-.33.34-.54.27-.62-.2-.18-1.05-.75-1.93-1.78-2.36-3.55-1.48-7.03-3-10.42-4.55-.4-.19-.44-.43-.13-.74,2.97-2.89,6.65-6.33,6.83-10.62.06-1.48.02-2.94-.12-4.38-.13-1.31.38-2.61,1.36-3.49,2.16-1.95,4.1-3.91,5.83-5.87,3.05-3.47,1.28-7.12-.45-10.48-.18-.35-.15-.77.08-1.08,3.35-4.54,4.86-9.62,4.53-15.24-.13-2.09-2.62-4.89-4.11-6.56-2.16-2.41-3.68-5.02-4.55-7.84-.45-1.46.14-2.88.9-4.03,1.57-2.37,3.09-4.83,4.56-7.38.89-1.53,1.3-3.11,1.25-4.75-.08-2.66-.45-5.09-1.1-7.28-.08-.27-.03-.56.12-.79,2.39-3.63,3.45-7.37,3.17-11.24-.44-6.09-1.29-12.16-2.54-18.21-.48-2.31-1.54-4.82-3.19-7.53-.47-.78-.52-1.59-.15-2.42l2.9-6.44c.17-.37.37-.39.61-.06,1.81,2.48,4.02,2.95,6.65,1.42,2.41-1.41,5.3-3.73,8.69-6.96Z"/>
      <path class="cls-3" d="M62.26,253.35c.85,2.88,2.29,5.23.86,8.57-1.16,2.71-3.57,4.46-7.24,5.27-2.61.42-4.64-.09-6.09-1.52-2.4-2.36-4.3-5.22-5.69-8.58-1.39-3.33-.23-7.24,3.85-7.03,1.61.08,2.69.98,3.25,2.71.1.31.04.64-.15.9-1.35,1.79,1.39,5.3,2.67,6.46.3.27.65.4,1.06.37.85-.06,1.54-.4,2.08-1.01.29-.33.34-.69.16-1.08-1.03-2.3-4.71-8.08-1.64-10.08,3.31-2.16,5.68,2.07,6.88,5.02Z"/>
      <path class="cls-2" d="M52.86,297.66c.12-1.5-.03-2.82-.46-3.97.43-.42,1.13-1.55,2.11-3.4.46-.87,1.46-2.04,2.99-3.51.79-.76,1.69-1.13,2.71-1.12,2.55.03,3.54,1.23,4.46,3.3.97,2.19,1.95,4.43,2.93,6.72.29.67.1,1.45-.46,1.93l-7.93,6.71c-.3.25-.56.22-.79-.11-1.56-2.27-2.61-5.9-5.56-6.55Z"/>
      <path class="cls-2" d="M53.89,310.03c1.73,2.29,3.77,3.04,6.12,2.24.42-.15.58,0,.48.43-.57,2.41-.81,4.82-.74,7.22.12,3.95-3.43,6.86-6.8,8.25-.25-1.61-.46-3.25-.63-4.9-.27-2.8,1.42-4.38,1.23-6.92-.16-2.09-.05-4.19.34-6.32Z"/>
      <path class="cls-2" d="M63.82,342.44c-1.74-2.53-3.93-4.19-6.58-4.98l.04-3.73c0-.28.14-.55.36-.72l4.96-3.78c.29-.23.59-.24.9-.03,1.65,1.09,3.17,2.28,4.55,3.56,2.01,1.85,1.17,5.46.66,7.77-.07.34-.28.56-.62.66l-4.27,1.25Z"/>
      <path class="cls-2" d="M85.18,367.75c-3.67.28-6.01,1.24-7.01,2.89-.75-.87-1.94-1.55-3.55-2.03l-2.44-2.79c-.21-.25-.36-.53-.44-.84-.5-1.9-.89-3.58-1.96-5.3-2.03-3.24-3.86-6.56-5.51-9.95,2.74-2.43,5.03-2.02,8.14-2.17.88-.04,1.72.39,2.22,1.12,2.17,3.21,4.94,5.32,8.32,6.34.35.11.44.32.25.64-2.29,3.89-4.1,10.5,1.98,12.09Z"/>
      <path class="cls-2" d="M94.35,365.08c-1.98-1.43-4.1-2.51-6.6-2.53-.35,0-.5-.18-.46-.52.26-2.45,1.54-3.92,3.85-4.42,1.69-.37,3.13-.13,4.31.71,1.84,1.31,3.61,2.67,5.3,4.08.53.43.56.9.09,1.4-1.44,1.51-4.51,2.7-6.49,1.28Z"/>
      <path class="cls-4" d="M4.37,411.6c-4.79-2.4-5.64-6.27-2.56-11.61,1.9,2.17,3.55,2.76,4.94,1.78.88-.62,1.33-1.36,1.35-2.23.09-4.01,1.63-8.06,4.63-12.15,1.11-1.53,2.71-2.55,4.73-2.52,6.44.1,10.95,2.46,16.33,4.99,1.21.57,2.52.81,3.93.72.37-.03.46.12.27.44-1.55,2.55-3.77,8.25.33,10.02,1.27.54,2.45,1.19,3.55,1.94,2.12,1.45,4.95,1.47,7.4,1.27,4.36-.36,9.6-6.65,11.29-9.68,2.57-4.62-3.13-9.03-6.26-11.26-.73-.52-.9-1.54-.38-2.27.02-.03.04-.06.06-.08,2.03-2.51,4.17-4.74,6.41-6.69,1.37-1.2,3.03-1.59,4.97-1.17,2.95.65,5.68,1.37,8.19,2.18,3.1,1.01,6.24-1.11,4.62-4.64,1-1.65,3.34-2.61,7.01-2.89l.8.38c-.19,0-.27.15-.23.47.04.28-.05.5-.28.66-3.85,2.76-6.32,6.32-7.4,10.69-1.86.48-3.51,1.38-4.94,2.71-2.59,2.4-4.84,5.62-6.76,9.65-3,6.3,5.43,8,5.76,3.96.08-1.02-.03-1.81.51-2.75,2.66-4.64,6.19-9.84,12.47-6.41.92.5,2.94,1.83,6.07,4,.82.57,2.2.5,4.14-.2.45,1.1.48,2.09.1,2.97-.31.71-.55,1.36-.74,1.94-.75,2.31-1.85,3.97-3.3,4.97-2.08,1.43-4.17,2.86-6.27,4.28-1.4.94-2.68,1.3-4.41,1.08-3.73-.47-7.58-.29-11.53.53-2.99.62-5.57-.68-8.56-.28-2.89.38-5.43,1.59-7.63,3.62-2.07,1.92-4.33,3.59-6.77,5.01-.29.17-.52.39-.69.68-1.95,3.3-4.07,6.31-7.3,8.45-4.34,1.32-7.63.22-9.88-3.3-1.2-1.88-1.93-3.92-2.19-6.11-.37-3.09-2.64-4.81-5.2-6.1-2.68-1.35-5.91-3.02-8.56-.97-1.81,1.4-3.83,2.69-6.08,3.86"/>
      <path class="cls-2" d="M85.98,368.13c2.36.89,4.51,2.12,6.46,3.7,1.82,1.48,6.45.15,8.72-.58.04,4.87-1.68,9.21-5.15,13.03-.59.65-.45,1.43.43,2.32-.18-.03-.36-.07-.53-.11-5.8-3.83-9.83-7.67-17.84-6.54,1.08-4.37,3.55-7.93,7.4-10.69.23-.16.32-.38.28-.66-.04-.32.04-.48.23-.47Z"/>
      <path class="cls-4" d="M103.16,370.4c-1.31,4.37-2.5,8.66-3.56,12.87-.57,2.29-1.63,3.4-3.16,3.33-.88-.89-1.02-1.67-.43-2.32,3.47-3.82,5.19-8.16,5.15-13.03l2-.85Z"/>
      <path class="cls-3" d="M95.91,386.49c.93,1.74.8,3.12-.39,4.13-.29.32-.36.42-.2.29-1.94.7-3.32.77-4.14.2-3.13-2.17-5.15-3.5-6.07-4-6.28-3.43-9.81,1.77-12.47,6.41-.54.94-.43,1.73-.51,2.75-.33,4.04-8.76,2.34-5.76-3.96,1.92-4.03,4.17-7.25,6.76-9.65,1.43-1.33,3.08-2.23,4.94-2.71,8.01-1.13,12.04,2.71,17.84,6.54Z"/>
      <path class="cls-4" d="M44.08,395.47l-.6-.74c-.19-.24-.22-.5-.09-.77,1.45-2.92,3.85-4.62,7.2-5.11.38-.06.71.04.98.31l2.61,2.47c.34.33.36.67.05,1.03-1.31,1.56-2.79,3.01-4.44,4.36-1.74,1.43-4.77,1.22-5.51-1.19-.04-.13-.11-.25-.2-.36Z"/>
      <path class="cls-2" d="M38.22,424.16c-1.46,1.02-3.41,1.35-5.85.99-1.66-.25-2.14-1.2-3.42-1.97-2.35-1.42-3.86-6.5-4.12-8.93-.04-.32-.16-.62-.36-.87-2.48-3.09-5.63-4.9-9.45-5.43-.93-.13-1.75.18-2.45.93-1.71,1.84-3.8,2.73-6.26,2.66,2.25-1.17,4.27-2.46,6.08-3.86,2.65-2.05,5.88-.38,8.56.97,2.56,1.29,4.83,3.01,5.2,6.1.26,2.19.99,4.23,2.19,6.11,2.25,3.52,5.54,4.62,9.88,3.3Z"/>
      <path class="cls-1" d="M87.75,362.55c2.5.02,4.62,1.1,6.6,2.53,1.98,1.42,5.05.23,6.49-1.28.47-.5.44-.97-.09-1.4-1.69-1.41-3.46-2.77-5.3-4.08-1.18-.84-2.62-1.08-4.31-.71-2.31.5-3.59,1.97-3.85,4.42-.04.34.11.51.46.52Z"/>
      <path class="cls-1" d="M79.32,343.97c.02.24.09.47.24.69,0,0-.09-.26-.24-.69Z"/>
      <path class="cls-3" d="M74.96,331.47c-.63-1.37-1.41-2.46-2.34-3.27-2-1.73-4.09-3.44-6.28-5.13-.27-.21-.4-.48-.38-.83.22-3.98.61-7.95,1.17-11.91.07-.54.04-1.07-.11-1.59-.1-.35-.28-.62-.54-.81-.42-.31-.43-.63-.03-.96l6.72-5.49c.27-.22.46-.5.57-.83,1.56-4.74-.19-8.67-2.36-12.79-.87-1.65-1.51-3.44-1.94-5.38-.37-1.63-.82-3.34-1.36-5.11-.23-.76-.09-1.58.37-2.22,2.67-3.72,5.41-7.12,6.97-11.43.25-.69.63-1.28,1.13-1.77,4.23-4.12,6.68-7.58,5.93-13.91-.11-.95-.8-2.57-2.06-4.87-.82-1.5-1.21-3.3-1.16-5.4.08-3.45,2.17-6.19,3.56-9.18,1.32-2.83,1.46-6.44,1-9.41-.43-2.79-1.28-6.01-2.55-9.68-.3-.87.02-1.83.77-2.35,3.14-2.17,6.51-4.03,10.12-5.59.73-.31,1.22-.87,1.47-1.66,1.46-4.68,2.84-9.15,4.15-13.42,1.35-4.41.15-7.97-3.58-10.69-2.64-1.93-5.18-3.75-7.63-5.47-.08-.06-.16-.13-.22-.21-.32-.43-.23-1.04.2-1.37,3.94-2.98,5.23-7.07,3.86-12.26-.08-.33-.07-.66.05-.97,1.69-4.27,7.15-5.07,8.77-9.66,1.43-4.04,2.18-9.33-.63-12.77-1.05-1.29-2.22-2.45-3.49-3.47-.04-.03-.07-.06-.1-.1-.18-.23-.13-.57.11-.74,3.7-2.77,6.69-6.21,8.98-10.31,3.64-6.5.82-11.08-2.35-16.78-.17-.3-.18-.67-.03-.98,1.4-3.03,3.01-6.08,3.45-9.43.41-3.15-.08-6.39-1.47-9.72-1.63-3.89-2.88-7.83-3.74-11.82-.25-1.17.05-2.17.9-3,5.03-4.97,8.28-10.83,9.73-17.58,1.25-5.81.25-11.69-2.98-17.66-1.09-2.03-.85-3.92.73-5.67,3.22-3.58,7.78-6.71,10-11.16C120.6,10.13,121.81,4.9,123.46,0h-6.81c-1.66,4.76-2.4,10.94-6.92,15.06-6.86,6.25-12.61,11.04-7.35,21.2,1.67,3.23,2.26,6.52,1.77,9.86-.69,4.63-3.09,10.06-6.48,13.7-2.65,2.85-5.57,5.48-4.84,9.8.87,5.07,2.26,9.74,4.18,13.99,1.66,3.68,1.61,7.26-.14,10.75-1.32,2.62-2.54,5.16-3.66,7.63-1.49,3.28.53,4.96,3.56,5.2.32.03.58.17.77.42,2.13,2.76,2.31,5.51.56,8.25-2.1,3.29-4.41,5.8-6.93,7.55-1.31.9-2.26,2.05-2.86,3.45-2.13,4.91,2.99,7.46,5.32,11.05.21.33.3.72.25,1.1-.33,2.3-.43,4.34-2.49,5.9-5.45,4.14-9.28,7.19-7.47,14.8.2.87-.07,1.79-.72,2.41-3.1,2.91-5.64,5.95-5.88,10.46-.19,3.58,2.78,7.79,6.31,4.35.27-.26.56-.29.87-.1,2.5,1.5,4.65,3.1,6.45,4.81.76.71,1.03,1.8.7,2.78l-3.68,11.03c-.16.47-.5.85-.94,1.06-8.23,3.83-15.23,9.35-20.98,16.58-.61.77-.64,1.79-.11,3.06.89,2.15,3.44,2.15,5.07.95,1.42-1.05,2.74-2.38,3.97-3.98.28-.37.51-.34.68.09,1.07,2.68,1.75,5.42,2.02,8.21.48,4.93-4.14,8.78-4.81,13.58-.64,4.65-.09,8.8,2.37,12.67,3.25,5.12-4.33,8.84-6.03,12.74-.75,1.7-1.23,3.29-2.33,4.83-1.78,2.48-3.35,4.78-4.71,6.9-1,1.55-1.26,3.81-.78,6.77.05.37-.1.53-.46.49-2.93-.27-5.52.6-7.75,2.63-3.27,3.57-5.27,5.89-6,6.97-1.19,1.77-1.03,3.28.46,4.54,1.37,1.17,3.21.67,4.76.15.43-.42,1.13-1.55,2.11-3.4.46-.87,1.46-2.04,2.99-3.51.79-.76,1.69-1.13,2.71-1.12,2.55.03,3.54,1.23,4.46,3.3.97,2.19,1.95,4.43,2.93,6.72.29.67.1,1.45-.46,1.93l-7.93,6.71c-.3.25-.56.22-.79-.11-1.56-2.27-2.61-5.9-5.56-6.55-3.37-.83-4.32,2.96-2.97,5.46,1.35,2.5,2.68,4.8,4,6.91,1.73,2.29,3.77,3.04,6.12,2.24.42-.15.58,0,.48.43-.57,2.41-.81,4.82-.74,7.22.12,3.95-3.43,6.86-6.8,8.25-2.39,2.27-3.08,5.24-2.05,8.93,1.01,3.64,5.34,4.49,6.34.36l.04-3.73c0-.28.14-.55.36-.72l4.96-3.78c.29-.23.59-.24.9-.03,1.65,1.09,3.17,2.28,4.55,3.56,2.01,1.85,1.17,5.46.66,7.77-.07.34-.28.56-.62.66l-4.27,1.25c-3.69,1.64-8.87,5.67-9.21,9.95-.16,2.1.75,3.5,2.73,4.19,1.28.45,2.28.29,3.01-.48.32-.34.62-1.19.9-2.56.33-1.61,1.34-2.88,3.02-3.81,2.74-2.43,5.03-2.02,8.14-2.17.88-.04,1.72.39,2.22,1.12,2.17,3.21,4.94,5.32,8.32,6.34.35.11.44.32.25.64-2.29,3.89-4.1,10.5,1.98,12.09l.8.38c2.36.89,4.51,2.12,6.46,3.7,1.82,1.48,6.45.15,8.72-.58l2-.85c.89-.82,1.84-1.76,2.87-2.81,6.07-6.27-3.28-11.78-7.39-14.89-3.55-2.69-7.48-1.37-11.38-.51-.37.08-.6-.07-.67-.44l-.24-1.21c-.08-.41-.3-.72-.67-.93-2.41-1.34-4.54-2.56-6.12-4.95-.14-.22-.22-.45-.24-.69-.72-2.1-2.92-8.51-4.04-12.12-.1.01-.2-.12-.32-.38ZM91.14,357.61c1.69-.37,3.13-.13,4.31.71,1.84,1.31,3.61,2.67,5.3,4.08.53.43.56.9.09,1.4-1.44,1.51-4.51,2.7-6.49,1.28-1.98-1.43-4.1-2.51-6.6-2.53-.35,0-.5-.18-.46-.52.26-2.45,1.54-3.92,3.85-4.42Z"/>
      <path class="cls-1" d="M50.59,388.85c-3.35.49-5.75,2.19-7.2,5.11-.13.27-.1.53.09.77l.6.74c.09.11.16.23.2.36.74,2.41,3.77,2.62,5.51,1.19,1.65-1.35,3.13-2.8,4.44-4.36.31-.36.29-.7-.05-1.03l-2.61-2.47c-.27-.27-.6-.37-.98-.31Z"/>
      <path class="cls-3" d="M78.17,370.64c-.75-.87-1.94-1.55-3.55-2.03-4.78-1.83-9.08-2.55-12.91-2.14-5.49.58-11.47,8.4-14.57,12.65-.83,1.13-1.13,2.35-.9,3.66.07.38-.08.65-.43.8-1.97.85-3.67,1.99-5.09,3.42-.33.34-.54.27-.62-.2-.18-1.05-.75-1.93-1.78-2.36-3.55-1.48-7.03-3-10.42-4.55-.4-.19-.44-.43-.13-.74,2.97-2.89,6.65-6.33,6.83-10.62.06-1.48.02-2.94-.12-4.38-.13-1.31.38-2.61,1.36-3.49,2.16-1.95,4.1-3.91,5.83-5.87,3.05-3.47,1.28-7.12-.45-10.48-.18-.35-.15-.77.08-1.08,3.35-4.54,4.86-9.62,4.53-15.24-.13-2.09-2.62-4.89-4.11-6.56-2.16-2.41-3.68-5.02-4.55-7.84-.45-1.46.14-2.88.9-4.03,1.57-2.37,3.09-4.83,4.56-7.38.89-1.53,1.3-3.11,1.25-4.75-.08-2.66-.45-5.09-1.1-7.28-.08-.27-.03-.56.12-.79,2.39-3.63,3.45-7.37,3.17-11.24-.44-6.09-1.29-12.16-2.54-18.21-.48-2.31-1.54-4.82-3.19-7.53-.47-.78-.52-1.59-.15-2.42l2.9-6.44c.17-.37.37-.39.61-.06,1.81,2.48,4.02,2.95,6.65,1.42,2.41-1.41,5.3-3.73,8.69-6.96,2.61-2.34,2.61-4.71-.02-7.12-3.54,1.31-7.03,3.61-10.46,6.9-.25.24-.52.26-.81.07-3.86-2.58-9.25-6.69-6.6-12.01.5-.99,1.37-1.6,2.62-1.82,3.58-.63,11.84-4.67,7.41-9.28-2.64-2.74-6.14,2.07-9.1,2.42-1.75.21-3.51.53-5.26.96-.42.11-.86-.15-.97-.58l-1.69-6.43c-.06-.25-.04-.51.06-.74,1.15-2.49,2.41-4.74,3.78-6.76,4.45-6.52.48-12.89-3.84-17.94-.42-.48-.45-.99-.09-1.52.43-.63.77-1.27,1.03-1.91.39-.98.69-.95.89.09.83,4.27,2.48,6.23,4.97,5.88,6.11-.87.91-10.85-.71-13.68-2.1-3.66-4.11-7.63-6.02-11.9-1.57-3.51-1.7-6.71-.38-9.59,1.88-4.09,6.01-6.53,8.52-10.23,2.67-3.93,2.33-7.63-1.04-11.08-2.11-2.17-4.55-4.15-5.27-7.37-.09-.37,0-.7.25-.99,3.07-3.48,6.24-7.59,4.49-12.44-.2-.55-.08-1.16.31-1.6,3.61-4.09,8.18-11.73,7.06-17.47-.61-3.17-3.21-4.32-5.38-6.34-.48-.45-.54-.95-.19-1.5l2.95-4.7c.37-.58.78-.62,1.25-.12,1.53,1.63,2.82,3.22,3.87,4.76,2.57,3.75,9,.17,5.5-4.39-2.39-3.12-5.35-6.14-8.9-9.05-2.04-1.68-3.85-3.9-5.12-6.25-.23-.42-.27-.91-.1-1.36,1.04-2.92,3.36-8.08,5.92-9.59.31-.18.64-.27.99-.28,3.35,0,6.76.5,9.95-.85,7.45-3.18,11.97-9.94,11.97-18.25.01-5.21-8.32-5.63-7.33-.26.26,1.42.05,3.12-.62,5.1-1.41,4.16-5.82,7.94-10.53,7.47-1.74-.18-3.87.19-5.39-.74-4.09-2.5-7.07-5.6-8.94-9.29-.15-.3-.16-.65-.02-.95,2.23-4.72,4.2-9.44,5.91-14.16.57-1.57.19-2.86-1.15-3.86-.21-.15-.45-.26-.7-.31-1.89-.38-3.79.66-4.5,2.47-1.59,4.06-3.21,7.85-4.84,11.36-.15.34-.37.39-.66.14-2.81-2.45-5.55-5.05-8.22-7.8-1.15-1.19-1.54-2.54-1.17-4.03.89-3.54,1.79-6.87,2.69-9.99C26.1,6.62,25.7,3.62,24.22,0h-7.25c.89,2.45,2.67,5.36,1.74,8.03-1.54,4.43-2.56,8.35-3.07,11.77-.39,2.63.63,5.24,3.06,7.81,3.17,3.35,6.4,6.49,9.7,9.4.81.71,1.76,1.15,2.87,1.34.32.05.55.23.69.53,1.87,3.99,4.87,7.56,9.01,10.73.36.27.43.79.16,1.16-5.23,6.93-8.74,14.35-1.39,21.61.95.95,1.07,1.99.36,3.12-1.06,1.68-2.15,3.41-3.26,5.2-3.3,5.28.2,9.06,4.38,12.08.56.4.73.93.52,1.58-1.41,4.25-3.54,7.95-6.37,11.1-.94,1.03-1.56,2.29-1.85,3.76-.07.33-.05.66.06.98,2.15,6.37-2.25,5.93-3.78,10.59-2.15,6.6,1.87,11.69,6.62,15.9.57.51.62,1.37.13,1.94-1.62,1.87-3.27,3.59-4.96,5.17-4.74,4.41-6.63,10.74-5.38,17.07.65,3.24,2.35,7.26,5.11,12.07.19.34.17.76-.07,1.08-.6.8-.97,1.7-1.1,2.69-.36,2.66-2.59,4.05-3.09,6.59-.47,2.35.09,4.41,1.66,6.17,2.22,2.49,6,7.1,3.6,10.49-1.49,2.11-2.81,4.34-3.96,6.69-.93,1.88-1.17,4.01-.74,6.39.8,4.43,1.56,9.52,6.14,11.45.35.15.5.41.44.79-.27,1.82-.9,3.43-.41,5.32.73,2.83,2.05,5.33,3.95,7.51.21.25.26.52.13.83-1.06,2.59-2.14,5.07-3.24,7.45-.9,1.95-1.26,3.86-1.08,5.75.38,3.84,3.18,6.61,3.72,10.48.79,5.68,2.18,11.83,1.86,17.47-.11,1.94-.93,3.87-2.46,5.78-1.84,2.29-1.1,5.29-.23,7.78.35,1.01.44,2.04.26,3.11-.27,1.57-.23,3.04-1.12,4.43-2.36,3.69-5.66,7.56-5.02,12.3.78,5.83,3.47,9.84,8.08,14.68.24.25.37.55.38.9.13,3.36-1.14,7.71-3.65,10.32-2.64,2.76-1.06,7.07.6,10.14.24.44.15.98-.21,1.32l-5.39,5.11c-.16.16-.33.21-.51.18l-2.56,6.03c.22.06.35.24.35.58l.06,4.66c0,.95-.34,1.88-.98,2.59l-7.18,8.01c-.23.26-.51.43-.85.5-1.98.44-3.72-.01-5.68.84-1.47.64-2.8,1.52-3.97,2.65-4.59,5.25-7,11.25-7.24,17.99,1.9,2.17,3.55,2.76,4.94,1.78.88-.62,1.33-1.36,1.35-2.23.09-4.01,1.63-8.06,4.63-12.15,1.11-1.53,2.71-2.55,4.73-2.52,6.44.1,10.95,2.46,16.33,4.99,1.21.57,2.52.81,3.93.72.37-.03.46.12.27.44-1.55,2.55-3.77,8.25.33,10.02,1.27.54,2.45,1.19,3.55,1.94,2.12,1.45,4.95,1.47,7.4,1.27,4.36-.36,9.6-6.65,11.29-9.68,2.57-4.62-3.13-9.03-6.26-11.26-.03-.02-.06-.04-.08-.06-.7-.57-.8-1.59-.24-2.29,2.03-2.51,4.17-4.74,6.41-6.69,1.37-1.2,3.03-1.59,4.97-1.17,2.95.65,5.68,1.37,8.19,2.18,3.1,1.01,6.24-1.11,4.62-4.64ZM54.18,391.63c.34.33.36.67.05,1.03-1.31,1.56-2.79,3.01-4.44,4.36-1.74,1.43-4.77,1.22-5.51-1.19-.04-.13-.11-.25-.2-.36l-.6-.74c-.19-.24-.22-.5-.09-.77,1.45-2.92,3.85-4.62,7.2-5.11.38-.06.71.04.98.31l2.61,2.47Z"/>
    </g>
  </g>
</svg>