<?xml version="1.0" encoding="UTF-8"?>
<svg id="_레이어_2" data-name="레이어 2" xmlns="http://www.w3.org/2000/svg" viewBox="0 0 153.82 315.37">
  <defs>
    <style>
      .cls-1 {
        fill: none;
      }

      .cls-1, .cls-2, .cls-3, .cls-4 {
        stroke-width: 0px;
      }

      .cls-2 {
        fill: #221512;
      }

      .cls-3 {
        fill: #000;
      }

      .cls-4 {
        fill: #524031;
      }
    </style>
  </defs>
  <g id="_레이어_1-2" data-name="레이어 1">
    <g>
      <path class="cls-2" d="M119.25,0h28.24c-1.09,4.43-3.12,8.73-6.1,12.91-3.67,5.16-7.33,11.13-12,15.3-2.77,2.47-5.33,5-8.32,7.22-4.16,3.1-8.4,6.16-12.72,9.18-6.75,4.72-13.84,9.55-21.25,14.48-3.75,2.49-7.57,5.21-11.44,8.16-2.05,1.56-3.53,3.29-4.43,5.18-2.29,4.82-5.5,9.51-6.5,14.78-.5,2.66,1.29,4.63.21,7.34-4.01,10.01-8.93,19.57-13.45,29.4-3.88,8.45-6.82,17.21-8.81,26.29-.5,2.29-.41,6.31.16,8.97.83,3.83,1.48,7.03.55,10.98-1.49,6.31-2.67,13.25-3.53,20.82-.41,3.65-1.42,7.57-3.05,11.74-1.1-1.57-1.52-3.16-1.27-4.76.52-3.35.85-6.29.98-8.83.23-4.41,1.15-7.11,3.44-10.46.3-.43.27-1-.08-1.4-1.19-1.35-1.75-2.94-1.7-4.77,0-.33-.07-.65-.22-.95-.87-1.7-2.17-3.74-2.24-5.58-.13-2.99,1.26-5.08,4.17-6.29.33-.14.53-.38.6-.72.55-2.54-.63-5.68-.88-8.28-.19-1.98-.5-3.86-.95-5.63-.6-2.38-.66-5.09-.17-8.14.61-3.84,2.51-6.49,5.72-7.94.67-.31,1.15-.77,1.42-1.38.97-2.15,2.09-4.25,3.36-6.29.17-.27.18-.56.05-.85-.58-1.28-1.53-2.14-1.87-3.58-.87-3.67,1.92-6.52,5.47-6.75.6-.04.99-.35,1.18-.92l1.27-3.93c.15-.45.11-.95-.12-1.37-2-3.65.34-5.49.5-8.89.11-2.25.37-4.3.8-6.14.51-2.21,1.94-3.89,4.31-5.04.38-.18.64-.47.79-.86.65-1.67,1.53-3.36,2.64-5.05.69-1.05.57-2.42-.27-3.33-1.96-2.11-2-4.21-.12-6.3.99-1.11,1.38-2.26,2.2-3.39.29-.4.21-.69-.26-.86-2.09-.8-3.37-1.93-3.84-3.38-1.55-4.83,3.79-9.98,8.66-6.51.43.31,1.03.25,1.39-.15,2.09-2.33,4.5-4.21,7.23-5.64.29-.15.47-.4.54-.73.17-.94.27-1.91.32-2.91.1-2.51,1.5-4.76,3.36-6.35.43-.37.48-1.02.11-1.45-.08-.1-.18-.18-.29-.24-4.7-2.49-2.55-5.6-2.49-9.54.04-3.75,4.62-2.8,6.56-1.45.42.29.97.29,1.4.02,2.19-1.4,4.66-1.91,7.4-1.53.37.05.75-.05,1.05-.29,2.2-1.73,4.71-2.7,6.86-4.62,1.75-1.57,3.64-2.95,5.67-4.14,1.91-1.13,2.32-2.62,3.4-4.32,1.2-1.89,2.57-3.67,4.1-5.35.92-1.01,1.24-2.18,2.02-3.27.2-.28.26-.58.17-.91-.13-.53-.11-.97.07-1.31Z"/>
      <ellipse class="cls-2" cx="97.29" cy="13.51" rx="7.53" ry="5.63" transform="translate(-.71 20.18) rotate(-11.8)"/>
      <path class="cls-1" d="M98.44,19.02c4.07-.85,6.86-4.01,6.22-7.05h0c-.64-3.04-4.45-4.82-8.52-3.97s-6.86,4.01-6.22,7.05c.64,3.04,4.45,4.82,8.52,3.97Z"/>
      <path class="cls-3" d="M37.89,221.47c.61,1.17.37,2.79-.1,3.95-1.69,4.15-3.06,8.51-4.09,13.07-.57,2.53-1.35,4.93-2.34,7.2-1.29,2.98-2.76,5.67-3.43,8.91-1,4.89-1.91,9.4-2.74,13.52-.66,3.29.74,6.2.57,9.46-.18,3.34.06,6.95.71,10.82.07.44-.09.77-.26,1.16.11.07.17.32.18.73.41,1.87.77,3.75,1.1,5.64.89,5.24,3.32,9.57,5.75,14.13.57,1.06.99,2.13,1.27,3.21,2.55.79,5.04,1.49,7.4,2.1-.16-3.32-1.21-6.57-2.92-9.52-2.19-3.8-3.65-7.12-4.36-9.95-1.22-4.88-1.83-10.5-1.88-15.49-.03-2.79-.26-5.55-.69-8.3-.23-1.47-.12-3.02.31-4.66.81-3.09,1.45-6.27,1.93-9.56.31-2.13.98-4.2,2.01-6.21,2.98-5.79,4.17-11.63,5.77-17.59.51-1.91,1.18-3.82,2-5.75,1.92-4.53,1.31-8.96-1.84-13.29-.25-.35-.42-.74-.49-1.16-.18-1.07-.14-2.09.12-3.08.97-3.66,2.06-7.38,3.28-11.16,1.07-3.31,1.77-7.42,2.12-12.31.41-5.9,2.3-12.27,3.38-18.24.37-2.03.39-3.93.07-5.7-.82-4.58-2.11-8.25-.93-13.07,1.86-7.56,4.18-15.4,7.53-22.43,4.34-9.11,8.63-18.22,12.86-27.34,1.03-2.21,1.69-4.51,1.97-6.9.31-2.64-1.11-5.2.13-7.7,1.76-3.55,3.58-7.16,5.47-10.83.55-1.07,1.22-1.88,2.01-2.44,8.28-5.88,18.11-12.52,29.5-19.91,2.54-1.65,5-3.86,7.27-5.44,5.1-3.57,10.2-7.57,15.31-12,2.8-2.44,5.29-5.12,7.47-8.03,3.01-4.02,5.89-8.07,8.63-12.14C151.08,10.52,153.04,5.46,153.82,0h-6.33c-1.09,4.43-3.12,8.73-6.1,12.91-3.67,5.16-7.33,11.13-12,15.3-2.77,2.47-5.33,5-8.32,7.22-4.16,3.1-8.4,6.16-12.72,9.18-6.75,4.72-13.84,9.55-21.25,14.48-3.75,2.49-7.57,5.21-11.44,8.16-2.05,1.56-3.53,3.29-4.43,5.18-2.29,4.82-5.5,9.51-6.5,14.78-.5,2.66,1.29,4.63.21,7.34-4.01,10.01-8.93,19.57-13.45,29.4-3.88,8.45-6.82,17.21-8.81,26.29-.5,2.29-.41,6.31.16,8.97.83,3.83,1.48,7.03.55,10.98-1.49,6.31-2.67,13.25-3.53,20.82-.41,3.65-1.42,7.57-3.05,11.74l-2.12,9.54c.2,4.48,1.49,5.93,3.2,9.18Z"/>
      <path class="cls-3" d="M7.52,300.98c-.07-.38-.13-.76-.21-1.14-.78-4.01-.92-7.82,1.08-11.69,2.01-3.89,3.39-7.46,4.16-10.7,1.21-5.15,2.74-10.44,4.58-15.89,2.35-6.97,3.16-14.45,3.67-21.75.28-3.93.76-7.33,1.44-10.2.91-3.83,2.57-8.92,5-15.25,1.74-4.54,2.58-9.79,2.89-14.73.45-7.14.93-14.7,1.46-22.69.1-1.61.09-3.16-.03-4.64-.76-8.93-1.11-18.28.28-27.13,1.06-6.75,2.77-13.32,5.14-19.69,4-10.77,8.49-21.23,9.81-33.05.33-2.99.19-6.49-.44-10.52-.6-3.87-.42-8.11.1-12.15,1.17-9.21,2.4-18.41,3.67-27.6.1-.75.46-4.62,1.07-11.63C52.14,19.65,55.64,9.47,61.68,0h-8.1c-5.21,8.92-8.27,18.46-9.18,28.63-.55,6.07-.82,9.14-.83,9.21-1.22,9.81-2.51,19.6-3.87,29.38-.57,4.09-.41,8.02-.42,12.19,0,2.09.13,4.27.4,6.55.29,2.33.29,4.58.02,6.73-.79,6.37-2.59,13.03-5.4,19.98-3.22,7.99-5.67,15.14-7.35,21.46-1.95,7.33-2.99,15.43-3.12,24.29-.04,2.56.06,5.14.29,7.75.21,2.38.39,4.85.56,7.42.11,1.79.04,3.56-.21,5.31-.33,2.29-.22,4.69-.41,7.06-.41,4.87-.73,9.62-.98,14.25-.51,9.31-5.2,18.13-7.51,27.03-.83,3.2-1.38,6.96-1.65,11.28-.27,4.3-.74,8.59-1.43,12.87-.48,2.98-1.23,5.89-2.26,8.73-1.39,3.85-2.64,7.85-3.5,11.93-1,4.78-2.64,9.39-4.93,13.84-1.34,2.61-1.8,5.48-1.8,8.41,2.07,2.44,4.64,4.66,7.52,6.69Z"/>
      <path class="cls-4" d="M50.12,42.16c-1.27,9.19-2.5,18.39-3.67,27.6-.52,4.04-.7,8.28-.1,12.15.63,4.03.77,7.53.44,10.52-1.32,11.82-5.81,22.28-9.81,33.05-2.37,6.37-4.08,12.94-5.14,19.69-1.39,8.85-1.04,18.2-.28,27.13.12,1.48.13,3.03.03,4.64-.53,7.99-1.01,15.55-1.46,22.69-.31,4.94-1.15,10.19-2.89,14.73-2.43,6.33-4.09,11.42-5,15.25-.68,2.87-1.16,6.27-1.44,10.2-.51,7.3-1.32,14.78-3.67,21.75-1.84,5.45-3.37,10.74-4.58,15.89-.77,3.24-2.15,6.81-4.16,10.7-2,3.87-1.86,7.68-1.08,11.69.08.38.14.76.21,1.14,3.04,2.14,6.44,4.06,10.01,5.77.21-.23.47-.39.78-.44l3.09-.48c.28-.05.52-.17.73-.37.79-.75,1.11-1.65.96-2.72-.32-2.28-1.6-4.83-3.77-5.98-1.04-.54-1.83-1.32-2.37-2.33-1.05-1.96-1.92-3.87-2.61-5.73-.43-1.16-.57-2.49-.43-3.98.33-3.34,3.57-6.37,6.36-7.78.74-.37,1.2-1.13,1.2-1.96,0-2.75.25-5.47.77-8.18.2-1.07.05-2.1-.44-3.1-1.55-3.15.55-7.8,1.91-10.98,1.32-3.09-.14-6.37.52-9.74.46-2.33.85-4.58,1.17-6.73.4-2.73,1.82-5.4,2.77-8.13.76-2.17,2.06-3.97,3.91-5.38.32-.24.45-.66.32-1.03-.39-1.17-.55-2.32-.46-3.45.15-2.06,1.88-3.94,2.75-5.97l2.12-9.54c-1.1-1.57-1.52-3.16-1.27-4.76.52-3.35.85-6.29.98-8.83.23-4.41,1.15-7.11,3.44-10.46.3-.43.27-1-.08-1.4-1.19-1.35-1.75-2.94-1.7-4.77,0-.33-.07-.65-.22-.95-.87-1.7-2.17-3.74-2.24-5.58-.13-2.99,1.26-5.08,4.17-6.29.33-.14.53-.38.6-.72.55-2.54-.63-5.68-.88-8.28-.19-1.98-.5-3.86-.95-5.63-.6-2.38-.66-5.09-.17-8.14.61-3.84,2.51-6.49,5.72-7.94.67-.31,1.15-.77,1.42-1.38.97-2.15,2.09-4.25,3.36-6.29.17-.27.18-.56.05-.85-.58-1.28-1.53-2.14-1.87-3.58-.87-3.67,1.92-6.52,5.47-6.75.6-.04.99-.35,1.18-.92l1.27-3.93c.15-.45.11-.95-.12-1.37-2-3.65.34-5.49.5-8.89.11-2.25.37-4.3.8-6.14.51-2.21,1.94-3.89,4.31-5.04.38-.18.64-.47.79-.86.65-1.67,1.53-3.36,2.64-5.05.69-1.05.57-2.42-.27-3.33-1.96-2.11-2-4.21-.12-6.3.99-1.11,1.38-2.26,2.2-3.39.29-.4.21-.69-.26-.86-2.09-.8-3.37-1.93-3.84-3.38-1.55-4.83,3.79-9.98,8.66-6.51.43.31,1.03.25,1.39-.15,2.09-2.33,4.5-4.21,7.23-5.64.29-.15.47-.4.54-.73.17-.94.27-1.91.32-2.91.1-2.51,1.5-4.76,3.36-6.35.1-.08.18-.18.24-.29.27-.5.08-1.13-.42-1.4-4.7-2.49-2.55-5.6-2.49-9.54.04-3.75,4.62-2.8,6.56-1.45.42.29.97.29,1.4.02,2.19-1.4,4.66-1.91,7.4-1.53.37.05.75-.05,1.05-.29,2.2-1.73,4.71-2.7,6.86-4.62,1.75-1.57,3.64-2.95,5.67-4.14,1.91-1.13,2.32-2.62,3.4-4.32,1.2-1.89,2.57-3.67,4.1-5.35.92-1.01,1.24-2.18,2.02-3.27.2-.28.26-.58.17-.91-.13-.53-.11-.97.07-1.31h-57.57c-6.05,9.47-9.54,19.65-10.49,30.53-.61,7.01-.97,10.88-1.07,11.63ZM96.14,8c4.07-.85,7.89.93,8.52,3.97h0c.64,3.04-2.15,6.2-6.22,7.05-4.07.85-7.89-.93-8.52-3.97-.64-3.04,2.15-6.2,6.22-7.05Z"/>
      <path class="cls-2" d="M27.49,295.93c-.33-1.89-.69-3.77-1.1-5.64.34,8.18-9.83,5.76-7.28-.02.79-1.79,2.16-2.7,4.11-2.71.33,0,.63.1.89.31l2.1,1.69c.17-.39.33-.72.26-1.16-.65-3.87-.89-7.48-.71-10.82.17-3.26-1.23-6.17-.57-9.46.83-4.12,1.74-8.63,2.74-13.52.67-3.24,2.14-5.93,3.43-8.91.99-2.27,1.77-4.67,2.34-7.2,1.03-4.56,2.4-8.92,4.09-13.07.47-1.16.71-2.78.1-3.95-1.71-3.25-3-4.7-3.2-9.18-.87,2.03-2.6,3.91-2.75,5.97-.09,1.13.07,2.28.46,3.45.13.37,0,.79-.32,1.03-1.85,1.41-3.15,3.21-3.91,5.38-.95,2.73-2.37,5.4-2.77,8.13-.32,2.15-.71,4.4-1.17,6.73-.66,3.37.8,6.65-.52,9.74-1.36,3.18-3.46,7.83-1.91,10.98.49,1,.64,2.03.44,3.1-.52,2.71-.78,5.43-.77,8.18,0,.83-.46,1.59-1.2,1.96-2.79,1.41-6.03,4.44-6.36,7.78-.14,1.49,0,2.82.43,3.98.69,1.86,1.56,3.77,2.61,5.73.54,1.01,1.33,1.79,2.37,2.33,2.17,1.15,3.45,3.7,3.77,5.98.15,1.07-.17,1.97-.96,2.72-.21.2-.45.32-.73.37l-3.09.48c-.32.05-.57.21-.78.44,5.5,2.64,11.39,4.79,16.98,6.51-.28-1.07-.7-2.14-1.27-3.21-2.43-4.56-4.86-8.89-5.75-14.13Z"/>
      <path class="cls-4" d="M23.22,287.56c-1.95.01-3.32.92-4.11,2.71-2.55,5.78,7.62,8.2,7.28.02-.01-.41-.07-.66-.18-.73l-2.1-1.69c-.26-.21-.56-.32-.89-.31Z"/>
    </g>
  </g>
</svg>