<?xml version="1.0" encoding="UTF-8"?>
<svg id="_레이어_2" data-name="레이어 2" xmlns="http://www.w3.org/2000/svg" viewBox="0 0 22.02 73.21">
  <defs>
    <style>
      .cls-1 {
        fill: #90da57;
      }

      .cls-1, .cls-2, .cls-3 {
        stroke-width: 0px;
      }

      .cls-2 {
        fill: #4e3b2b;
      }

      .cls-3 {
        fill: #94815b;
      }

      .cls-4 {
        stroke: #6f8b41;
      }

      .cls-4, .cls-5 {
        fill: none;
        stroke-width: 2px;
      }

      .cls-5 {
        stroke: #715e43;
      }
    </style>
  </defs>
  <g id="_레이어_1-2" data-name="레이어 1">
    <g>
      <path class="cls-5" d="M9.43.72c-1.69,1.65-2.1,3.07-1.21,4.24,2.89,3.81,5.01,7.47,6.36,10.96.63,1.63,1.33,2.63,2.11,2.98,1.33.59,2.74.09,4.24-1.52" vector-effect="non-scaling-stroke"/>
      <path class="cls-4" d="M18.75,28.4c-1.27-3.33-3.08-4.42-5.43-3.27-1.14.56-1.76,1.83-1.49,3.08l.74,3.41" vector-effect="non-scaling-stroke"/>
      <path class="cls-2" d="M9.43.72c-1.69,1.65-2.1,3.07-1.21,4.24,2.89,3.81,5.01,7.47,6.36,10.96.63,1.63,1.33,2.63,2.11,2.98,1.33.59,2.74.09,4.24-1.52.18,4.33-.55,8.01-2.18,11.02-1.27-3.33-3.08-4.42-5.43-3.27-1.14.56-1.76,1.83-1.49,3.08l.74,3.41C5.18,27.94,1.02,21.41.09,12.03-.52,5.91,1.96-.58,9.43.72Z"/>
      <path class="cls-3" d="M9.43.72c1.85-.33,3.33.1,4.43,1.31,4.13,4.55,6.48,9.67,7.07,15.35-1.5,1.61-2.91,2.11-4.24,1.52-.78-.35-1.48-1.35-2.11-2.98-1.35-3.49-3.47-7.15-6.36-10.96-.89-1.17-.48-2.59,1.21-4.24Z"/>
      <path class="cls-1" d="M18.75,28.4c1.78,6.57,2.81,12.69,3.09,18.36.25,5.17.24,13.25,0,24.25-.02,1.01-.8,1.73-2.33,2.15-.33.09-.67.07-1.01-.06-1.77-.69-2.64-1.99-2.61-3.9.12-9.2-.09-17.4-.62-24.6-.35-4.73-1.25-9.05-2.69-12.98l-.74-3.41c-.27-1.25.35-2.52,1.49-3.08,2.35-1.15,4.16-.06,5.43,3.27Z"/>
    </g>
  </g>
</svg>