<?xml version="1.0" encoding="UTF-8"?>
<svg id="_레이어_2" data-name="레이어 2" xmlns="http://www.w3.org/2000/svg" viewBox="0 0 78.21 110.32">
  <defs>
    <style>
      .cls-1 {
        fill: #90da57;
      }

      .cls-1, .cls-2, .cls-3 {
        stroke-width: 0px;
      }

      .cls-2 {
        fill: #4e3b2b;
      }

      .cls-3 {
        fill: #94815b;
      }

      .cls-4 {
        stroke: #6f8b41;
      }

      .cls-4, .cls-5 {
        fill: none;
        stroke-width: 2px;
      }

      .cls-5 {
        stroke: #715e43;
      }
    </style>
  </defs>
  <g id="_레이어_1-2" data-name="레이어 1">
    <g>
      <path class="cls-5" d="M72.06,1.6c.69,2.29.18,3.77-1.52,4.43-1.37.53-3.42.14-4.96.64-5.58,1.83-10.02,5.1-13.32,9.82-2.12,3.03-5.5,3.24-6.38-1.02" vector-effect="non-scaling-stroke"/>
      <path class="cls-4" d="M55.38,31.07c-.06-2.68-.25-5.23-.56-7.65-.14-1.1-.45-1.92-.94-2.45-1.78-1.94-6.31-1.22-9.06-.76" vector-effect="non-scaling-stroke"/>
      <path class="cls-3" d="M72.06,1.6c.69,2.29.18,3.77-1.52,4.43-1.37.53-3.42.14-4.96.64-5.58,1.83-10.02,5.1-13.32,9.82-2.12,3.03-5.5,3.24-6.38-1.02,3.54-6.93,9.19-11.8,16.96-14.6,3.82-1.37,6.89-1.13,9.22.73Z"/>
      <path class="cls-2" d="M72.06,1.6c4.61,1.5,6.63,4.41,6.06,8.74-.19,1.41-.74,2.86-1.65,4.35-5,8.17-12.03,13.63-21.09,16.38-.06-2.68-.25-5.23-.56-7.65-.14-1.1-.45-1.92-.94-2.45-1.78-1.94-6.31-1.22-9.06-.76l1.06-4.74c.88,4.26,4.26,4.05,6.38,1.02,3.3-4.72,7.74-7.99,13.32-9.82,1.54-.5,3.59-.11,4.96-.64,1.7-.66,2.21-2.14,1.52-4.43Z"/>
      <path class="cls-1" d="M55.38,31.07c-1.44,7.86-5.23,14.19-11.37,18.98-4.25,3.32-9.51,4.48-15.76,3.49-.35-.05-.66.03-.93.25-10.84,8.78-18.22,24.06-20.41,36.79-.81,4.74-.58,10.18.69,16.32.13.63.02,1.29-.33,1.83-1.13,1.81-2.7,2.07-4.69.8-.63-.4-1.07-1.03-1.23-1.76-1.23-5.53-1.62-10.64-1.17-15.32,1.5-15.65,10.4-33.62,22.95-44.27.29-.25.44-.63.4-1.01-1.71-13.98,8.63-23.65,21.29-26.96,2.75-.46,7.28-1.18,9.06.76.49.53.8,1.35.94,2.45.31,2.42.5,4.97.56,7.65ZM43.44,27.62c-6.41,2.4-12.49,7.17-13.62,14.2-.11.69.07.78.55.27l13.24-14.21c.3-.33.24-.41-.17-.26ZM48.22,32.96c.11-.3.05-.35-.2-.15-.46.37-.88.76-1.26,1.19-4.21,4.77-8.44,9.15-12.71,13.12-.38.35-.32.47.19.36,7.17-1.63,11.53-7.92,13.98-14.52Z"/>
    </g>
  </g>
</svg>