<svg xmlns="http://www.w3.org/2000/svg" width="1554.135" height="831.969" viewBox="0 0 1554.135 831.969">
  <g id="tree2" transform="translate(-193.523 -248.137)">
    <g id="그룹_28" data-name="그룹 28">
      <path id="패스_19663" data-name="패스 19663" d="M586.92,535.53q-1.77.34-3.02.47a8.09,8.09,0,0,0-2.92.7c-4.18,2.42-3.14,7.96-1.08,11.38q11.92,19.81,22.81,41.96a36.969,36.969,0,0,1,2.53,6" fill="none" stroke="#525938" stroke-width="2"/>
      <path id="패스_19664" data-name="패스 19664" d="M1237.55,523.61a20.74,20.74,0,0,0-8.87,5.98" fill="none" stroke="#525938" stroke-width="2"/>
      <path id="패스_19665" data-name="패스 19665" d="M1205.07,506.14a13.245,13.245,0,0,0-4.55,4.6" fill="none" stroke="#525938" stroke-width="2"/>
      <path id="패스_19666" data-name="패스 19666" d="M1191.96,535.25l-4.19,14.96q-.16.57-.37.01-.91-2.53-1.72-5.11c-4.05-12.81-10.33-25.45-17.23-37.55a15.05,15.05,0,0,0-7.1-6.78" fill="none" stroke="#525938" stroke-width="2"/>
      <path id="패스_19667" data-name="패스 19667" d="M1161.05,530.62l4.15,9.88" fill="none" stroke="#525938" stroke-width="2"/>
      <path id="패스_19668" data-name="패스 19668" d="M1174.77,573.85a106.35,106.35,0,0,1,1.94,19.68" fill="none" stroke="#525938" stroke-width="2"/>
      <path id="패스_19669" data-name="패스 19669" d="M1176.6,593.96a27.167,27.167,0,0,1,.17,13.34" fill="none" stroke="#525938" stroke-width="2"/>
      <path id="패스_19670" data-name="패스 19670" d="M1176.77,610.22l-2.67,19.11" fill="none" stroke="#525938" stroke-width="2"/>
      <path id="패스_19671" data-name="패스 19671" d="M1171.14,645.26l-2.46,9.54" fill="none" stroke="#525938" stroke-width="2"/>
      <path id="패스_19672" data-name="패스 19672" d="M1163.28,671.39l-3.6,9" fill="none" stroke="#525938" stroke-width="2"/>
      <path id="패스_19673" data-name="패스 19673" d="M1155.19,690.37l-4.05,8.72" fill="none" stroke="#525938" stroke-width="2"/>
      <path id="패스_19674" data-name="패스 19674" d="M1143.55,714.74l-4.35,8.66" fill="none" stroke="#525938" stroke-width="2"/>
      <path id="패스_19675" data-name="패스 19675" d="M1134.72,731.28l-5.27,8.21" fill="none" stroke="#525938" stroke-width="2"/>
      <path id="패스_19676" data-name="패스 19676" d="M1126.63,743.18l-6.09,8.3" fill="none" stroke="#525938" stroke-width="2"/>
      <path id="패스_19677" data-name="패스 19677" d="M1114.25,759.51l-6.33,8.01" fill="none" stroke="#525938" stroke-width="2"/>
      <path id="패스_19678" data-name="패스 19678" d="M879.09,761.04l-.67-9.6" fill="none" stroke="#525938" stroke-width="2"/>
      <path id="패스_19679" data-name="패스 19679" d="M878.36,751.09l-1.1-16.82a.337.337,0,0,1,.23-.37.237.237,0,0,1,.26.01" fill="none" stroke="#525938" stroke-width="2"/>
      <path id="패스_19680" data-name="패스 19680" d="M876.48,715.75l-.31-10.84" fill="none" stroke="#525938" stroke-width="2"/>
      <path id="패스_19681" data-name="패스 19681" d="M876.22,692.59l.46-14.11" fill="none" stroke="#525938" stroke-width="2"/>
      <path id="패스_19682" data-name="패스 19682" d="M878.5,660.63q2.86-19.83,4.99-25.89,4.72-13.43,9.52-26.81c.7-1.95,1.47-5.24,2.71-7.69" fill="none" stroke="#525938" stroke-width="2"/>
      <path id="패스_19683" data-name="패스 19683" d="M909.13,558.39l4.05-14.21" fill="none" stroke="#525938" stroke-width="2"/>
      <path id="패스_19684" data-name="패스 19684" d="M1332.88,552.73q-2.34-6.34-8.1-4.55a6.166,6.166,0,0,0-4.27,4.8q-.38,1.54.15,6.99" fill="none" stroke="#525938" stroke-width="2"/>
      <path id="패스_19685" data-name="패스 19685" d="M1322.64,578.13l.87,11.14" fill="none" stroke="#525938" stroke-width="2"/>
      <path id="패스_19686" data-name="패스 19686" d="M1323.88,599.99a96.708,96.708,0,0,1-1.02,18.25" fill="none" stroke="#525938" stroke-width="2"/>
      <path id="패스_19687" data-name="패스 19687" d="M1322.24,623.44a48.4,48.4,0,0,1-2.98,15.13" fill="none" stroke="#525938" stroke-width="2"/>
      <path id="패스_19688" data-name="패스 19688" d="M1313.99,647.84q.31.62-.61,2.02a109.177,109.177,0,0,1-7.23,9.83" fill="none" stroke="#525938" stroke-width="2"/>
      <path id="패스_19689" data-name="패스 19689" d="M1297.34,668.48l-7.6,6.31" fill="none" stroke="#525938" stroke-width="2"/>
      <path id="패스_19690" data-name="패스 19690" d="M1194.82,682.74l4.01-25.1" fill="none" stroke="#525938" stroke-width="2"/>
      <path id="패스_19691" data-name="패스 19691" d="M1199.96,650.33l1.45-11.68" fill="none" stroke="#525938" stroke-width="2"/>
      <path id="패스_19692" data-name="패스 19692" d="M1202.4,628.21l1.49-12.55" fill="none" stroke="#525938" stroke-width="2"/>
      <path id="패스_19693" data-name="패스 19693" d="M1204.9,610.62a63.307,63.307,0,0,1,2.5-10.45,196.142,196.142,0,0,1,9.45-24.2" fill="none" stroke="#525938" stroke-width="2"/>
      <path id="패스_19694" data-name="패스 19694" d="M1236.56,545.16l6.53-10.55" fill="none" stroke="#525938" stroke-width="2"/>
      <path id="패스_19695" data-name="패스 19695" d="M827.74,553.77a6.233,6.233,0,0,0-3.11,7.39,38.626,38.626,0,0,1,1.13,7.04" fill="none" stroke="#525938" stroke-width="2"/>
      <path id="패스_19696" data-name="패스 19696" d="M827.54,577.37a370.4,370.4,0,0,0,7.63,36.46" fill="none" stroke="#525938" stroke-width="2"/>
      <path id="패스_19697" data-name="패스 19697" d="M837.05,620.78l3.02,14.03" fill="none" stroke="#525938" stroke-width="2"/>
      <path id="패스_19698" data-name="패스 19698" d="M842.43,653.14l1.1,16.78" fill="none" stroke="#525938" stroke-width="2"/>
      <path id="패스_19699" data-name="패스 19699" d="M844.08,686.32l-.16,10.87" fill="none" stroke="#525938" stroke-width="2"/>
      <path id="패스_19700" data-name="패스 19700" d="M843.69,711.35l-.48,11.03" fill="none" stroke="#525938" stroke-width="2"/>
      <path id="패스_19701" data-name="패스 19701" d="M841.98,745.76l-1.28,18.62" fill="none" stroke="#525938" stroke-width="2"/>
      <path id="패스_19702" data-name="패스 19702" d="M718.29,734.29l-5.62-8" fill="none" stroke="#525938" stroke-width="2"/>
      <path id="패스_19703" data-name="패스 19703" d="M709.78,722.01l-5.55-8.72" fill="none" stroke="#525938" stroke-width="2"/>
      <path id="패스_19704" data-name="패스 19704" d="M701.3,708.1l-5.55-10.03" fill="none" stroke="#525938" stroke-width="2"/>
      <path id="패스_19705" data-name="패스 19705" d="M692.37,691.27q-4.31-8.37-5.69-11.74-3.06-7.43-7.57-21.2" fill="none" stroke="#525938" stroke-width="2"/>
      <path id="패스_19706" data-name="패스 19706" d="M673.91,623.72l-.1-18.11" fill="none" stroke="#525938" stroke-width="2"/>
      <path id="패스_19707" data-name="패스 19707" d="M675.48,574.87l2.41-15.29" fill="none" stroke="#525938" stroke-width="2"/>
      <path id="패스_19708" data-name="패스 19708" d="M682.75,542.69l4.19-11.62" fill="none" stroke="#525938" stroke-width="2"/>
      <path id="패스_19709" data-name="패스 19709" d="M693.09,516.9l-2.55-4.13" fill="none" stroke="#525938" stroke-width="2"/>
      <path id="패스_19710" data-name="패스 19710" d="M608.25,601.69q7.14,15.88,13.25,32.14.64,1.71,1.16,3.46.64,2.14,1.14,3.45,5.46,14.33,11.03,28.86" fill="none" stroke="#525938" stroke-width="2"/>
      <path id="패스_19711" data-name="패스 19711" d="M1372.16,567.51q-3.87-6.28-10.68-2.2a9.978,9.978,0,0,0-2.4,2.01,92.5,92.5,0,0,0-6.99,8.94" fill="none" stroke="#525938" stroke-width="2"/>
      <path id="패스_19712" data-name="패스 19712" d="M1338.1,582.42l-1.49-10.98" fill="none" stroke="#525938" stroke-width="2"/>
      <path id="패스_19713" data-name="패스 19713" d="M1356.37,600.59l8.39-15.08" fill="none" stroke="#525938" stroke-width="2"/>
      <path id="패스_19714" data-name="패스 19714" d="M643,689.67l4.42,10.87" fill="none" stroke="#525938" stroke-width="2"/>
      <path id="패스_19715" data-name="패스 19715" d="M1364.09,626.25a94.589,94.589,0,0,1,14.92-15.58.487.487,0,0,0,.17-.23,2.421,2.421,0,0,1,.11-.23.818.818,0,0,1,.19-.26c3.9-3.32,8.37-7.43,10.24-11.95" fill="none" stroke="#525938" stroke-width="2"/>
      <path id="패스_19716" data-name="패스 19716" d="M678.25,518.56l-4.67,11.17" fill="none" stroke="#525938" stroke-width="2"/>
      <path id="패스_19717" data-name="패스 19717" d="M1203.62,554.63l-2.98,15.07" fill="none" stroke="#525938" stroke-width="2"/>
      <path id="패스_19718" data-name="패스 19718" d="M1201.04,570.32a4.248,4.248,0,0,0,1.65-1.82q2.09-4.19,4.2-8.45" fill="none" stroke="#525938" stroke-width="2"/>
      <path id="패스_19719" data-name="패스 19719" d="M1192.94,692.24l-2.45,10.73" fill="none" stroke="#525938" stroke-width="2"/>
      <path id="패스_19720" data-name="패스 19720" d="M1188.83,708.87l-3.35,10.36" fill="none" stroke="#525938" stroke-width="2"/>
      <path id="패스_19721" data-name="패스 19721" d="M1184.17,722.49l-3.71,10.03" fill="none" stroke="#525938" stroke-width="2"/>
      <path id="패스_19722" data-name="패스 19722" d="M1176.88,739.12l-5.04,9.85" fill="none" stroke="#525938" stroke-width="2"/>
      <path id="패스_19723" data-name="패스 19723" d="M1175.78,748.93l13.5-9.62a.249.249,0,0,0,.11-.24.8.8,0,0,0-.1-.26" fill="none" stroke="#525938" stroke-width="2"/>
      <path id="패스_19724" data-name="패스 19724" d="M1200.2,732.05l15.24-10.2" fill="none" stroke="#525938" stroke-width="2"/>
      <path id="패스_19725" data-name="패스 19725" d="M1224.51,716.48l20.84-12.14" fill="none" stroke="#525938" stroke-width="2"/>
      <path id="패스_19726" data-name="패스 19726" d="M1257.21,697.12l18.71-12.64" fill="none" stroke="#525938" stroke-width="2"/>
      <path id="패스_19727" data-name="패스 19727" d="M1354.31,636.51l-13.6,16.62" fill="none" stroke="#525938" stroke-width="2"/>
      <path id="패스_19728" data-name="패스 19728" d="M1326.35,677.12a304.713,304.713,0,0,1-21.15,29.06" fill="none" stroke="#525938" stroke-width="2"/>
      <path id="패스_19729" data-name="패스 19729" d="M1303.63,707.98l-13.52,15.11" fill="none" stroke="#525938" stroke-width="2"/>
      <path id="패스_19730" data-name="패스 19730" d="M1280.1,732.7l-13.99,12.57" fill="none" stroke="#525938" stroke-width="2"/>
      <path id="패스_19731" data-name="패스 19731" d="M1261.11,749.57l-22.51,16.76" fill="none" stroke="#525938" stroke-width="2"/>
      <path id="패스_19732" data-name="패스 19732" d="M1215.82,780.7l-12.81,7.94" fill="none" stroke="#525938" stroke-width="2"/>
      <path id="패스_19733" data-name="패스 19733" d="M1185.87,799.38l-10.46,6.78" fill="none" stroke="#525938" stroke-width="2"/>
      <path id="패스_19734" data-name="패스 19734" d="M989.77,1080q-.98-22.67-.96-31.75a199.3,199.3,0,0,1,1.49-24.83c2.49-19.52,10.68-38.61,20.36-56.3a589.214,589.214,0,0,1,31.8-51.63q5.75-8.35,11.78-16.11,12.26-15.8,25.41-31.98a248.853,248.853,0,0,1,34.58-35.06q12.55-10.37,25.78-20.61c23.12-17.89,51.45-34.88,77.86-51.05,30.67-18.78,57.68-43.06,80.61-71.58q1.63-2.04-.48-.5-16.84,12.27-34.79,23.6c-11.08,7.01-23,13.27-34.21,20.3q-25.76,16.14-50.9,33.65c-6.1,4.25-12.08,9.6-18.1,13.9q-7.97,5.69-15.71,11.55a9.721,9.721,0,0,1-6.92,2.12c-5.33-.47-8.27-5.62-6.81-10.67a23.574,23.574,0,0,1,3.57-6.12c15.34-21.14,29.51-42.56,37.66-67.63a215.184,215.184,0,0,0,8.82-39.39.053.053,0,0,1,.06-.06c.033,0,.053.02.06.06a.22.22,0,0,1-.01.07c-7.17,20.68-17.84,42.52-27.59,61.19a153.77,153.77,0,0,1-11.45,18.73q-9.33,12.97-20.32,26.4-4.85,5.94-20.46,27.08c-7.96,10.78-16.95,21.75-26.01,32.01q-18.31,20.73-38.93,42.27a167.682,167.682,0,0,1-19.58,17.82q-10.25,7.73-23.35,16.47a90.089,90.089,0,0,1-49.86,15.5,73.78,73.78,0,0,1-37.32-9.69c-18.65-10.27-37.31-23.05-55.11-36.05-13.89-10.15-28.37-19.82-41.84-29.47a344.936,344.936,0,0,1-44.55-38.09,521.055,521.055,0,0,1-41.85-47.4q-11.18-14.5-22.61-30.89a280.949,280.949,0,0,1-24.54-43,165.478,165.478,0,0,1-14.45-52.77q-.23-2.28-.54-.01a267.275,267.275,0,0,0-2.44,33.78,59.32,59.32,0,0,0,.4,7.23,31.063,31.063,0,0,0,2.2,8.62,455.722,455.722,0,0,0,27.97,55.23c18.01,30.05,42.12,58.28,66.66,84.03q22.42,23.52,45.58,47.4a682.818,682.818,0,0,1,58.37,68.51q6.89,9.27,13.32,19.6a136.179,136.179,0,0,1,21.09,70.86q.25,14.19-.32,23.66-.28,4.7-2.02,21" fill="none" stroke="#8a6247" stroke-width="2"/>
      <path id="패스_19735" data-name="패스 19735" d="M683.51,767.06l-14.38-23.5" fill="none" stroke="#525938" stroke-width="2"/>
      <path id="패스_19736" data-name="패스 19736" d="M668.4,742.13l-9.03-16.94" fill="none" stroke="#525938" stroke-width="2"/>
      <path id="패스_19737" data-name="패스 19737" d="M658.41,723.48l-4.63-9.64" fill="none" stroke="#525938" stroke-width="2"/>
      <path id="패스_19738" data-name="패스 19738" d="M653.02,572.24l-1.75,14.39" fill="none" stroke="#525938" stroke-width="2"/>
      <path id="패스_19739" data-name="패스 19739" d="M655.07,594.05l3.03-16.58" fill="none" stroke="#525938" stroke-width="2"/>
      <path id="패스_19740" data-name="패스 19740" d="M664.06,556.89l4.27-12.51" fill="none" stroke="#525938" stroke-width="2"/>
      <path id="패스_19741" data-name="패스 19741" d="M895.81,535.94l5.55-11.98" fill="none" stroke="#525938" stroke-width="2"/>
      <path id="패스_19742" data-name="패스 19742" d="M882.09,883.38c-8.93-27.08-13.5-54.95-16.1-83.6q-4.17-45.93-5.82-91.8-.01-.17-.17-.17h-.01q-.14,0-.15.15-2.28,58.56-7.89,115.81-1.64,16.74-3.92,34.67a2.319,2.319,0,0,0,1.02,2.34l32.27,23.17q1.25.9.77-.57" fill="none" stroke="#8a6247" stroke-width="2"/>
    </g>
    <path id="패스_19743" data-name="패스 19743" d="M586.92,535.53q-1.77.34-3.02.47a8.09,8.09,0,0,0-2.92.7c-4.18,2.42-3.14,7.96-1.08,11.38q11.92,19.81,22.81,41.96a36.969,36.969,0,0,1,2.53,6c-18.92-18.78-37.82-37.61-55.41-57.62-7.67-8.73-15.57-17.32-22.9-26.26A1271.942,1271.942,0,0,1,408.35,340.87q-12.73-22.07-25.7-47.54a147.048,147.048,0,0,1-8.58-19.36c-2.3-6.99,6.78-11.05,9.42-4.45,6.85,17.12,15.61,33.42,24.24,48.98A1230.578,1230.578,0,0,0,517.17,483.08c14.78,18.78,31.6,35.85,48.72,52.58q1.65,1.62.27-.24a525,525,0,0,1-42.05-66.66q-11.91-22.32-28.87-52.67a1050.958,1050.958,0,0,1-57.91-121.6q-6.76-16.85-13.54-33.69c-1.29-3.19-4.37-6.74-2.36-10.25,1.81-3.16,6.2-3.11,8.4-.47a22.549,22.549,0,0,1,3.53,6.22q8.65,21.99,18,44.84a977.19,977.19,0,0,0,68.4,136.01c6.76,11.16,13.79,21.59,21.11,33.24,10.79,17.2,23.26,34.11,35.4,50.54q.52.71,4.95,7.54A43.91,43.91,0,0,0,586.92,535.53Z" fill="#346237"/>
    <path id="패스_19744" data-name="패스 19744" d="M1237.55,523.61a20.74,20.74,0,0,0-8.87,5.98l-14.97-32.17q-.21-.43-.53-.08l-8.11,8.8a13.245,13.245,0,0,0-4.55,4.6l-14.39,12.94a.581.581,0,0,0-.13.79l5.96,10.78-4.19,14.96q-.16.57-.37.01-.91-2.53-1.72-5.11c-4.05-12.81-10.33-25.45-17.23-37.55a15.05,15.05,0,0,0-7.1-6.78q-20.52-40.73-37.58-83.15-.18-.43-.46-.07l-31.49,39.54a.4.4,0,0,0-.04.44l4.37,7.82a.17.17,0,0,0,.28.02q3.36-4.59,6.31-9.33a3.872,3.872,0,0,1,3.53-2.04c5.42.13,6.09,4.4,4.44,8.53a29.49,29.49,0,0,1-7.79,11.18,2.035,2.035,0,0,0-.39,2.57q11.38,18.92,24.49,38.33a.88.88,0,0,0,1.53.16q3.54-3.37,7.2-6.49c3.21-2.73,7.71-1.56,8.42,2.73.66,4.04-6.56,9.21-9.43,11.44a.935.935,0,0,0-.17,1.3l12.85,17.05a.54.54,0,0,0,.77.1l12.86-10.29,4.15,9.88-10.79,8.25a.436.436,0,0,0-.172.3.456.456,0,0,0,.1.338l20.43,24.46a106.35,106.35,0,0,1,1.94,19.68l-8.32-9.03a.455.455,0,0,0-.351-.149.475.475,0,0,0-.349.169l-.19.22a.22.22,0,0,0,.02.33l9.08,8.89a27.167,27.167,0,0,1,.17,13.34l-17.35-16.18a.93.93,0,0,0-1.15-.09l-8.22,5.52a.32.32,0,0,0-.04.51q9.25,8.31,18.72,15.95a2.472,2.472,0,0,0,2.8.07q2.6-1.26,5.24-2.86l-2.67,19.11a9.439,9.439,0,0,0-4.55-3.04,1.178,1.178,0,0,0-.9.08l-14.77,7.29a.33.33,0,0,0-.03.57l17.29,11.03-2.46,9.54-3.38-1.73q-.42-.21-.5.25a7.51,7.51,0,0,1-3.77,5.17q-5.65,3.55-9.76,5.59-.67.33-.02.69l12.03,6.62-3.6,9-18.16-10.13a2.17,2.17,0,0,0-2-.06l-10.07,4.83q-.55.26-.05.62a152.93,152.93,0,0,0,25.79,14.72l-4.05,8.72a179.487,179.487,0,0,1-32.08-18.38,1.45,1.45,0,0,0-1.44-.15l-11.87,5.27q-.55.24-.08.63,18.2,14.85,37.88,28.28l-4.35,8.66a529.465,529.465,0,0,1-43.86-32.03,1.625,1.625,0,0,0-1.66-.24l-16.43,6.92q-.52.22-.05.53a434.46,434.46,0,0,0,57.52,32.7l-5.27,8.21a437.628,437.628,0,0,1-64.03-36.11.985.985,0,0,0-.93-.1l-12.14,4.84q-.57.22-.05.54c23.5,14.38,48.13,26.9,74.33,34.52l-6.09,8.3c-28.62-8.4-55.06-22.26-80.99-38.18a.381.381,0,0,0-.33-.04l-7.83,2.92q-.13.05-.01.12c26.44,16.44,54.05,31.53,82.87,43.21l-6.33,8.01a542.006,542.006,0,0,1-87.76-45.94,2.745,2.745,0,0,0-2.43-.27q-25.43,9.43-51.5,17.88a661.024,661.024,0,0,1-87.14,21.85l-.67-9.6c43.93-8.87,86.72-22.06,128.76-37.41q.55-.2.06-.53l-13.27-8.83a2.21,2.21,0,0,0-2.1-.2q-38.52,16.37-77.19,32.52-8.82,3.68-18.06,7.21-9.06,3.46-18.26,6.89l-1.1-16.82a.337.337,0,0,1,.23-.37.237.237,0,0,1,.26.01q27.08-12.66,53.66-26.42,18.37-9.51,37.62-19.61.54-.28.05-.65l-16.84-12.55a1.3,1.3,0,0,0-1.41-.09l-74.35,41.16-.31-10.84,66.23-37.52a.227.227,0,0,0,.106-.172.2.2,0,0,0-.076-.179l-12-9.6a1.255,1.255,0,0,0-1.49-.06l-52.72,35.21.46-14.11q20.4-15.47,39.41-32.37a.39.39,0,0,0-.01-.59l-10.1-8.84a.575.575,0,0,0-.76.01L878.5,660.63q2.86-19.83,4.99-25.89,4.72-13.43,9.52-26.81c.7-1.95,1.47-5.24,2.71-7.69l17.75-34.32a1.358,1.358,0,0,0-.1-1.51l-4.24-6.02,4.05-14.21,5.81,9.25q.3.48.54-.03,6.92-14.66,13.08-30.34a1.346,1.346,0,0,0-.17-1.33,463.279,463.279,0,0,1-29.07-45.97c-1.58-2.86-2.41-5.98.46-8.46,3.8-3.28,7.44-.6,9.43,2.93q11.34,20.21,24.2,39.23a.237.237,0,0,0,.218.1.213.213,0,0,0,.182-.143l9.49-25.24a2.176,2.176,0,0,0-.08-1.74Q936.26,460,926.16,435.6c-1.7-4.1-2.15-8.87,3.06-10.23,4.02-1.06,5.91,1.97,7.34,5.54q7.14,17.77,15.96,37.49.32.73.56-.03,2.7-8.71,5.46-18.2c.76-2.62,1.93-4.72,2.79-7.13q5.15-14.39,13.32-40.92a5.635,5.635,0,0,0-.03-4.12q-5.02-11.89-6.47-18.53a4.9,4.9,0,0,1,1.48-4.61c2.83-2.96,7.55-1.21,8.75,2.45q1.01,3.04,2.2,6.26.77,2.06.54-.13a12.623,12.623,0,0,1,.27-4.53q3.03-11.3,6.15-23.24a8.452,8.452,0,0,0-.16-6.06,55.076,55.076,0,0,1-3.23-9.65c-1.08-4.63,3.7-9.69,8.02-5.79a.3.3,0,0,0,.28.063.273.273,0,0,0,.19-.2q2.75-11.98,4.66-24.23.78-5.01,5.03-5.39a5.15,5.15,0,0,1,5.34,5.74c-1.37,13-4.87,26.98-7.96,39.83a5.5,5.5,0,0,0,.21,3.01q10.66,23.77,22.78,45.21a.17.17,0,0,0,.3-.01q6.81-14.53,12.98-29.86a4.118,4.118,0,0,0-.06-3.18q-16.86-41.5-31.88-87.41c-.85-2.59-1.12-6.23,1.6-7.79,5.26-3.01,7.78,2.7,9.03,6.52q12.46,38,26.73,74.36.39,1.01.98.1a4.63,4.63,0,0,1,3.68-2.39c5.19-.33,6.08,4.69,4.86,8.74q-1.18,3.97-2.59,7.83a4.615,4.615,0,0,0,.28,3.3q16.61,39.89,36.96,77.87a.3.3,0,0,0,.49.06c4-4.43,8.01-8.96,11.54-13.74l10.71-14.57c3.33-4.52,5.77-8.83,10.28-12.32a.7.7,0,0,0,.25-.9q-6.96-17.17-11.78-32.75c-.7-2.26.47-5.64,3-6.55,3.75-1.34,6.11,1.29,7.23,4.49a1027.031,1027.031,0,0,0,62.97,144.35.3.3,0,0,0,.215.158.326.326,0,0,0,.265-.068q9.35-8.1,18.36-17.17a82.763,82.763,0,0,0,9.08-10.82,1.57,1.57,0,0,0,.16-1.5q-15.92-38.96-29.9-79.15c-2.57-7.39-5.6-14.69-8.38-22.04-.8-2.12-.52-5.26,1.57-6.64,3.62-2.38,6.86.18,8.36,3.59q3.21,7.24,7.33,18.78,7.89,22.13,16.07,44.17Q1218.62,484.66,1237.55,523.61Zm-221.7-110.37c.84-1.71,1.82-2.76.68-4.75q-11.29-19.63-21.09-40.2-.27-.57-.43.04-3.84,14.73-7.81,28.16a3.042,3.042,0,0,0,.27,2.42q9.09,16.35,19.41,31.36.24.35.43-.03Q1011.71,421.68,1015.85,413.24Zm26.25-32.34c-4.11,9.35-8.17,18.68-12.58,27.92a1.735,1.735,0,0,0,.07,1.63q17.01,29.18,36.47,56.99a.18.18,0,0,0,.27.02l11.76-12.34a.5.5,0,0,0,.08-.59q-19.34-35.65-35.61-73.63Q1042.33,380.36,1042.1,380.9Zm-62.07,39.74c2.66-2.93,6.57-1.46,8.21,1.72a140.994,140.994,0,0,0,12.44,19.87q.38.51.51-.11l.13-.69a1.27,1.27,0,0,0-.2-.98q-9.75-14.17-18.1-28.29-.37-.61-.58.07l-2.59,8.3Q979.71,420.99,980.03,420.64Zm67.41,65.16a.491.491,0,0,0,.84.05l10.03-10.11a.79.79,0,0,0,.09-1.01q-18.42-26.25-34.53-53.44a.19.19,0,0,0-.34.01l-9.28,18.2a1.775,1.775,0,0,0,.13,1.82Q1030.42,464.31,1047.44,485.8Zm-69.21-60.6-18.37,57.19a.885.885,0,0,0,.08.71l9.04,15.98a.213.213,0,0,0,.19.113.237.237,0,0,0,.2-.113l5.53-9.61a1.89,1.89,0,0,0,0-1.91,93.92,93.92,0,0,1-5.26-10.64c-1.59-3.8.86-9.13,5.56-7.55,3.05,1.03,4.73,5.08,6.01,7.83q.3.66.66.03l5.72-10.21a1.59,1.59,0,0,0-.04-1.62,151,151,0,0,1-9.74-18.61c-3.1-7.09,5.81-11.53,9.35-4.25q3.16,6.5,6.44,12.46.35.64.65-.02l.7-1.5a1.37,1.37,0,0,0-.16-1.5q-6.16-8.16-12.46-18.5a33.2,33.2,0,0,1-3.67-8.28Q978.46,424.48,978.23,425.2Zm30.106,26.063a.26.26,0,0,0-.364-.052l-.176.132a.26.26,0,0,0-.052.364l12.381,16.49a.26.26,0,0,0,.364.052l.176-.132a.26.26,0,0,0,.052-.364Zm-7.826,13.967a1.656,1.656,0,0,0,.06,1.75q12.57,20.14,26.97,39.12.14.2.31.02l5.79-5.9a.1.1,0,0,0,0-.15q-16.15-18.32-30.87-37.42-.54-.7-.95.09Zm84.15.99a.78.78,0,0,0-.83-.38,5.829,5.829,0,0,0-3.06,1.62q-3.75,3.86-8.1,8.46a.565.565,0,0,0-.04.72l6.43,8.84a.49.49,0,0,0,.77.02l9.02-10.71a.864.864,0,0,0,.09-1.06Zm-90.21,10.74q-.25-.38-.47.01l-6.05,10.77a1.754,1.754,0,0,0,.02,1.73q9.86,16.83,21.82,33.66a.31.31,0,0,0,.47.04l9.5-9.2a.555.555,0,0,0,.05-.74Q1006.98,496.67,994.45,476.96Zm77.66,17.21a.45.45,0,0,0,.02-.56l-6.86-9.34a.45.45,0,0,0-.68-.05l-9.96,10.02a.45.45,0,0,0-.03.6l7.69,9.51a.45.45,0,0,0,.68.02Zm22.84-9.84a.31.31,0,0,0-.5-.03l-8.54,10.05a.31.31,0,0,0-.01.4l26.49,32.43a.31.31,0,0,0,.43.05l6.23-4.82a.31.31,0,0,0,.07-.41Zm-140.6,12.25-8.07,22.44a2.215,2.215,0,0,0,.25,1.99l5.01,7.38a.31.31,0,0,0,.52-.02l10.47-17.59a1.25,1.25,0,0,0,0-1.28l-7.69-12.97Q954.54,496.04,954.35,496.58Zm40.44,41.24a.126.126,0,0,0,.22.02l7.04-6.78a.53.53,0,0,0,.06-.69q-11.08-15.22-20.35-30.87-.31-.51-.61.01l-5.56,9.6a.9.9,0,0,0,.02.93Q984.14,523.38,994.79,537.82Zm84.12-35.02a.34.34,0,0,0-.52-.01l-8.86,9.86a.34.34,0,0,0,0,.45l24.21,27.75a.34.34,0,0,0,.46.06l9.61-7.04a.34.34,0,0,0,.06-.49Zm-36.34,22.61a.42.42,0,0,0,.63.03l6.42-6.78a.42.42,0,0,0,.01-.57l-8.71-9.67a.42.42,0,0,0-.61-.02l-6.02,5.99a.42.42,0,0,0-.04.56Zm-73.03-5.19a.33.33,0,0,0-.55.02l-10.44,17.54a.33.33,0,0,0,.02.38l15.53,19.15a.33.33,0,0,0,.48.03l12.4-11.79a.33.33,0,0,0,.05-.43Zm46.96,11.4a.47.47,0,0,0-.05.62l8.51,11.21a.47.47,0,0,0,.71.04l9.57-9.83a.47.47,0,0,0,.03-.62l-8.47-10.67a.47.47,0,0,0-.69-.05Zm53.03,25.5a.33.33,0,0,0,.43.06l9.95-6.56a.33.33,0,0,0,.06-.51l-22.78-23.69a.33.33,0,0,0-.48,0l-7.05,7.37a.33.33,0,0,0-.01.45Zm56.24-25.87a.49.49,0,0,0-.7-.1l-4.94,3.9a.49.49,0,0,0-.06.72l13.56,14.88a.49.49,0,0,0,.67.06l3.32-2.59a.49.49,0,0,0,.1-.67Zm-180.45,8.21a.33.33,0,0,0-.01-.37l-3.98-5.52a.33.33,0,0,0-.57.05l-13.61,30.56a.33.33,0,0,0,.04.33l1.17,1.58a.33.33,0,0,0,.55-.02Zm64.95,18.78a.43.43,0,0,0,.65.04l6.69-6.79a.43.43,0,0,0,.03-.57l-8.76-11.36a.43.43,0,0,0-.64-.04l-6.82,6.63a.43.43,0,0,0-.04.57Zm37.41,12.85a.34.34,0,0,0,.44.07l12.37-7.87a.34.34,0,0,0,.07-.51l-18.22-20.97a.34.34,0,0,0-.5-.01l-9.79,10.08a.34.34,0,0,0-.01.46Zm67.77-7.27a.33.33,0,0,0,.42.05l9.28-6.44a.33.33,0,0,0,.06-.49l-13.8-15.12a.33.33,0,0,0-.44-.05l-9.5,6.75a.33.33,0,0,0-.05.5Zm-149.17,1.4a.31.31,0,0,0,.02-.42l-13.74-16.42a.31.31,0,0,0-.51.04l-16.28,26.36a.31.31,0,0,0,.03.36l8.85,10.15a.31.31,0,0,0,.44.02Zm36.43.3-8.9-11.53a.4.4,0,0,0-.277-.152.375.375,0,0,0-.293.1l-10.95,10.4a2,2,0,0,0-.13,2.76l8.57,9.9a.5.5,0,0,0,.83.04l11.08-10.67A.635.635,0,0,0,1002.71,565.52Zm156.53,11.59a.45.45,0,0,0,.52.08l.93-.47a.45.45,0,0,0,.14-.68l-15.95-19.33a.45.45,0,0,0-.63-.07l-2.48,1.95a.45.45,0,0,0-.05.67Zm-68.26,2.74a.35.35,0,0,0,.44.05l11.2-7.2a.35.35,0,0,0,.05-.55l-14.64-14.06a.35.35,0,0,0-.43-.04l-10.38,6.83a.35.35,0,0,0-.06.53Zm-61.16,2.29a.36.36,0,0,0,.47.08l8.3-5.12a.36.36,0,0,0,.08-.54l-14.06-16.79a.36.36,0,0,0-.53-.02l-6.75,6.81a.36.36,0,0,0-.02.48Zm111.74,7.2a.32.32,0,0,0,.39.04l8.89-5.86a.32.32,0,0,0,.05-.5l-17.66-17.63a.32.32,0,0,0-.42-.03l-8.84,6.56a.32.32,0,0,0-.03.49Zm-73.29,4.45a.54.54,0,0,0,.68.1l12.66-7.78a.54.54,0,0,0,.11-.83l-13.43-14.07a.54.54,0,0,0-.68-.08l-12.2,7.72a.54.54,0,0,0-.11.83Zm-85.02-8.81a.52.52,0,0,0,.03-.72l-9.56-10.99a.52.52,0,0,0-.75-.04l-20.82,19.72a.52.52,0,0,0-.01.74l10.13,10.32a.52.52,0,0,0,.73.01Zm24.48,10.6a.51.51,0,0,0,.64.09l12.23-7.44a.51.51,0,0,0,.12-.76l-10.78-12.98a.51.51,0,0,0-.75-.04l-10.68,10.36a.51.51,0,0,0-.02.72Zm-91.92-8.74q3.14-4.98,6.43-10.23a.545.545,0,0,0-.02-.6l-.4-.55q-.32-.44-.55.04-2.74,5.65-5.81,11.28a.083.083,0,0,0,.03.13h.01A.2.2,0,0,0,915.81,586.84Zm201.42,18.06a.34.34,0,0,0,.41.04l12.31-7.72a.34.34,0,0,0,.05-.54l-19.01-16.69a.34.34,0,0,0-.41-.03l-11.48,7.41a.34.34,0,0,0-.05.54Zm-197.7-4.64a.33.33,0,0,0,.03.41l4.11,4.41a.33.33,0,0,0,.47.01l12.69-11.91a.33.33,0,0,0,.02-.46l-7.02-7.81a.33.33,0,0,0-.52.05Zm130.52,4.67a.4.4,0,0,0,.5.08l8.49-5.11a.4.4,0,0,0,.09-.61l-13.01-14.22a.4.4,0,0,0-.5-.07l-8.27,5.12a.4.4,0,0,0-.09.61Zm-79.73,6.57a.34.34,0,0,0-.01.49l4.19,4.08a.34.34,0,0,0,.42.04l23.69-14.49a.34.34,0,0,0,.07-.52l-7.82-8.47a.34.34,0,0,0-.48-.01Zm123.32,7.62a.33.33,0,0,0,.4.05l13.73-8.21a.33.33,0,0,0,.06-.52l-17.98-16.92a.33.33,0,0,0-.4-.04l-13.07,8.1a.33.33,0,0,0-.06.51Zm-64.71-1.68a.39.39,0,0,0,.47.07l11.31-6.66a.39.39,0,0,0,.09-.59l-12.64-14.09a.39.39,0,0,0-.5-.07l-11.9,7.26a.39.39,0,0,0-.08.61Zm-97.36-5.1a.55.55,0,0,0-.01.79l10,9.81a.55.55,0,0,0,.75.01l12.2-11.11a.55.55,0,0,0,.02-.79l-9.92-10.18a.55.55,0,0,0-.77-.02Zm212,14.5a.33.33,0,0,0,.35.04l14.92-7.23a.33.33,0,0,0,.06-.56l-19.95-14.99a.33.33,0,0,0-.37-.02l-12.57,7.91a.33.33,0,0,0-.03.54Zm-69.04,3.29a.39.39,0,0,0,.47.06l9.03-5.15a.39.39,0,0,0,.08-.62l-17.09-16.81a.39.39,0,0,0-.47-.06l-8.6,5.15a.39.39,0,0,0-.08.61Zm-91.62-6.65a.31.31,0,0,0-.04.5l13.59,12.39a.31.31,0,0,0,.37.04l22.67-13.1a.31.31,0,0,0,.07-.49l-13.14-13.45a.31.31,0,0,0-.38-.05Zm-76.5-1.57,9.51-9.02a.524.524,0,0,0,.03-.82l-2.05-2.24q-.43-.46-.78.06l-7.75,11.54a.41.41,0,0,0,.1.63.521.521,0,0,0,.31.1A.9.9,0,0,0,906.41,621.91Zm210.14,17.49a.33.33,0,0,0,.35.05l16.16-7.4a.33.33,0,0,0,.07-.55l-16.61-13.39a.33.33,0,0,0-.38-.02l-13.91,8.34a.33.33,0,0,0-.05.53Zm-62.46,2.41a.31.31,0,0,0,.37.05l10.54-5.93a.31.31,0,0,0,.07-.49l-16.57-16.82a.31.31,0,0,0-.38-.05l-10.97,6.48a.31.31,0,0,0-.05.49ZM965.23,622.1a.31.31,0,0,0,.05-.49L962.51,619a.31.31,0,0,0-.42-.01l-12.37,11.28a.31.31,0,0,0,.09.52l.77.33a.31.31,0,0,0,.29-.03Zm-41.11,16.52a.43.43,0,0,0,.56,0l9.11-8.03a.43.43,0,0,0,.02-.63l-10.02-9.79a.43.43,0,0,0-.59-.01l-9.5,8.79a.43.43,0,0,0,.01.64Zm47.92,11.71a.3.3,0,0,0,.34.04l14.43-8.19a.3.3,0,0,0,.05-.48L973.5,629.53a.3.3,0,0,0-.36-.03l-14.26,8.86a.3.3,0,0,0-.04.48Zm33.26-6.77a.32.32,0,0,0-.05.52l17.76,14.86a.32.32,0,0,0,.36.04l21-11.49a.32.32,0,0,0,.06-.51l-16.81-16.09a.32.32,0,0,0-.38-.05Zm89.76,5.41a.35.35,0,0,0,.38.06l10.35-4.52a.35.35,0,0,0,.09-.58l-13.29-11.53a.35.35,0,0,0-.41-.04l-9.06,5.22a.35.35,0,0,0-.06.56Zm48.12-9.99a.3.3,0,0,0-.29-.02l-16.7,7.75a.3.3,0,0,0-.05.51l14.5,10.72a.3.3,0,0,0,.33.02l16.18-9.18a.3.3,0,0,0,.01-.51Zm-70.42,19.76a.33.33,0,0,0,.35.06l11.2-4.82a.33.33,0,0,0,.09-.54l-10.99-10.01a.33.33,0,0,0-.39-.04l-10.26,5.77a.33.33,0,0,0-.06.54Zm-120.46,2.8a.34.34,0,0,0,.38.03l9.5-5.34a.34.34,0,0,0,.06-.55l-12.69-11.16a.34.34,0,0,0-.41-.03l-9.81,6.2a.34.34,0,0,0-.03.56Zm46.46,10.43a.33.33,0,0,0,.36.03l13.75-7.33a.33.33,0,0,0,.06-.54l-17.39-14.69a.33.33,0,0,0-.38-.04l-14.03,7.99a.33.33,0,0,0-.04.54Zm116.69-20.21a.32.32,0,0,0-.32-.03l-10.61,4.71a.32.32,0,0,0-.06.55l14.33,11.28a.32.32,0,0,0,.33.04l10.94-5.07a.32.32,0,0,0,.06-.55Zm-83.01,14.16a.3.3,0,0,0-.04.5l8.03,6.16a.3.3,0,0,0,.3.04l21.22-9.02a.3.3,0,0,0,.08-.49l-9.08-8.23a.3.3,0,0,0-.35-.04Zm63.47,12.61a.31.31,0,0,0,.33.04l11.78-5.13a.31.31,0,0,0,.07-.53L1093.6,661.5a.31.31,0,0,0-.31-.04l-11.24,4.82a.31.31,0,0,0-.07.52Zm-116.2,3.53a.33.33,0,0,0,.35.02l8.36-4.38a.33.33,0,0,0,.06-.55L971.25,663.3a.33.33,0,0,0-.36-.03l-9.02,5.08a.33.33,0,0,0-.03.55Zm70.98-2.33a.31.31,0,0,0-.06.54l15.36,10.96a.31.31,0,0,0,.3.03l18.65-7.76a.31.31,0,0,0,.08-.52l-13.88-11.76a.31.31,0,0,0-.33-.05Zm-42.08-.96a.34.34,0,0,0-.04.58l5.76,4.15a.34.34,0,0,0,.33.04l14.39-5.98a.34.34,0,0,0,.07-.59l-6.89-5.29a.34.34,0,0,0-.36-.03Zm-5.75,9.83a.32.32,0,0,0,.07-.56l-4.82-3.44a.32.32,0,0,0-.33-.02l-7.88,4.07a.32.32,0,0,0-.03.55l4.23,2.84a.32.32,0,0,0,.3.04Zm37.52,12.78a.32.32,0,0,0,.29.03l13.47-5.16a.32.32,0,0,0,.07-.56l-14.98-10.89a.32.32,0,0,0-.32-.04l-13.9,5.79a.32.32,0,0,0-.05.56Zm-103.3,14.85a.119.119,0,0,0,.18.07q22.61-9.7,44.88-19.02.66-.28.08-.69l-2.33-1.7a1.45,1.45,0,0,0-1.54-.11q-20.18,10.62-41.22,21.31a.1.1,0,0,0-.05.14Zm82.78-7.01a.3.3,0,0,0,.27.03l7.97-2.87a.3.3,0,0,0,.07-.53l-14.88-10.16a.3.3,0,0,0-.28-.03l-8.06,3.28a.3.3,0,0,0-.05.53Z" fill="#346237"/>
    <path id="패스_19745" data-name="패스 19745" d="M1332.88,552.73q-2.34-6.34-8.1-4.55a6.166,6.166,0,0,0-4.27,4.8q-.38,1.54.15,6.99l-10.93,6.34a.788.788,0,0,0-.36,1.1l5.6,13.35a.8.8,0,0,0,1.24.47l6.43-3.1.87,11.14-3.38,1.68a.465.465,0,0,0-.22.62l3.97,8.42a96.708,96.708,0,0,1-1.02,18.25q-1.34-2.7-5.71.25a.492.492,0,0,0-.15.78l2.81,4.06a.933.933,0,0,0,.83.42,4.822,4.822,0,0,0,1.6-.31,48.4,48.4,0,0,1-2.98,15.13,6.411,6.411,0,0,0-1.97-2.14,1.025,1.025,0,0,0-.91-.11l-9.16,3.01a.26.26,0,0,0-.12.42l6.89,8.09q.31.62-.61,2.02a109.177,109.177,0,0,1-7.23,9.83l-14.67,3q-.54.11-.13.48l5.99,5.31-7.6,6.31-10.11-8.92a2.03,2.03,0,0,0-1.73-.47q-27.42,5.39-55.2,10.51c-2.67.49-5.02,1.58-7.66,2.03-6.72,1.13-13.48,3.09-20.22,4.8l4.01-25.1,51.19-20.76q.67-.27.2-.82l-4.99-5.74a1.015,1.015,0,0,0-1.19-.27l-9.65,4.34a1.293,1.293,0,0,0-.73.82,1.434,1.434,0,0,1-.84.9q-16.28,7.36-32.86,14.22l1.45-11.68,36.32-16.96q.2-.09.07-.26l-6.05-7.59a.271.271,0,0,0-.37-.08l-28.98,14.45,1.49-12.55q3.89-1.8,7.76-3.68.86-.42,6.73-2.73a35.044,35.044,0,0,0,6.49-3.49.464.464,0,0,0,.13-.76l-2.5-3.31a.854.854,0,0,0-1.23-.26l-16.37,9.19a63.307,63.307,0,0,1,2.5-10.45,196.142,196.142,0,0,1,9.45-24.2,3.759,3.759,0,0,1,1.71,1.91.313.313,0,0,0,.222.214.337.337,0,0,0,.308-.074l23.3-20.49a.677.677,0,0,0,.16-.89l-5.99-11.48,6.53-10.55,7.49,14.63q.3.58.79.14l8.16-7.36a.921.921,0,0,0,.23-1.2,959.578,959.578,0,0,1-62.56-162.4q-13.18-46.21-23.1-91.95a5.162,5.162,0,0,1,1.83-4.76c4.52-3.46,8.06.5,9.05,4.99q11.4,52.17,26.04,101.29a942.875,942.875,0,0,0,56.82,145.42q.38.78,1.02.2l12.06-10.88a.9.9,0,0,0,.25-.96c-18.62-56.22-31.95-113.16-44.64-171.53q-3.56-16.37-7.33-28.29c-1.01-3.2-.35-6.45,3.13-7.44,3.93-1.11,6.4,2.04,7.42,5.43q3.21,10.66,5.45,20.82c13.56,61.66,26.14,116.94,44.48,173.16q.17.54.59.16a854.436,854.436,0,0,0,82.4-85.88c37.05-44.39,73.31-87.65,108.75-132.26a146.061,146.061,0,0,0,9.81-14.06,5.145,5.145,0,0,1,7.39-1.51c3.41,2.6,2.08,6.56.06,9.55q-5.95,8.83-12.97,17.56-33.46,41.64-67.84,82.9-17.73,21.28-34.96,42.03a855.867,855.867,0,0,1-88.58,92.15,1.434,1.434,0,0,0-.47,1.56l.24.89q.26.95,1.02.33,71.96-58.24,142.8-118.64,33.53-28.6,79.36-68.18,23.37-20.19,44.19-41.44a107.019,107.019,0,0,0,7.82-9.55,4.571,4.571,0,0,1,5.2-1.71c4.39,1.14,4.55,6.08,2.21,9.32a94.127,94.127,0,0,1-9.37,10.95q-19.29,19.54-38.5,36.25-74.95,65.22-160.5,136.75-35.79,29.93-69.58,56.75a1.03,1.03,0,0,0-.33,1.18l.55,1.46q.24.64.82.26,71.17-46.69,111.03-70.7,115.87-69.8,202.98-129.73,6.58-4.53,12.58-9.17a8.638,8.638,0,0,1,4.46-2.08,4.877,4.877,0,0,1,4.39,7.63,17.93,17.93,0,0,1-4.43,4.37q-16.87,12.19-33.94,23.56-63.86,42.55-121.68,78.56-8.38,5.22-17.07,10.42-77.86,46.62-154.86,97.61a.248.248,0,0,0-.11.33l1.9,4.96a.254.254,0,0,0,.157.151.276.276,0,0,0,.223-.021q16.39-9.77,33.71-19.51,52.84-29.74,106.74-60.25,47.39-26.81,84.87-51.09c25.95-16.8,47.88-33.33,70.59-50.57a18.4,18.4,0,0,1,3.89-2.26c3.41-1.49,7.18.54,7.19,4.36.01,2.47-1.77,4.19-3.61,5.58-22.31,16.77-43.17,32.6-67.33,48.57q-31.7,20.96-78.96,48.09Q1429.27,498.64,1332.88,552.73Zm-58.59-9.48q5.5-4.13,10.97-8.39a.735.735,0,0,0,.24-.84l-.13-.35a.447.447,0,0,0-.309-.272.423.423,0,0,0-.391.1q-5.16,4.65-10.6,9.51a.131.131,0,0,0-.01.21h0A.145.145,0,0,0,1274.29,543.25Zm15.223,2.29a.27.27,0,0,0-.376-.065l-10.868,7.667a.27.27,0,0,0-.065.376l.623.883a.27.27,0,0,0,.376.065l10.868-7.667a.27.27,0,0,0,.065-.376Zm6.157,16.91a.52.52,0,0,0,.21-.64l-1.59-4.13a.52.52,0,0,0-.77-.26l-9.47,6.09a.52.52,0,0,0-.18.69l1.97,3.56a.52.52,0,0,0,.72.19Zm-18.99,11.45a.54.54,0,0,0,.18-.73l-1.86-3.23a.54.54,0,0,0-.75-.18l-8.76,5.47a.54.54,0,0,0-.18.73l1.86,3.18a.54.54,0,0,0,.75.19Zm23.65-1.33a.48.48,0,0,0-.69-.22l-8.02,4.8a.48.48,0,0,0-.17.65l6.94,11.99a.48.48,0,0,0,.64.19l6.88-3.63a.48.48,0,0,0,.22-.62Zm-42.3,12.82a.49.49,0,0,0,.16-.66l-1.83-3.25a.49.49,0,0,0-.68-.18l-23.95,14.25a.49.49,0,0,0-.14.72l2.67,3.56a.49.49,0,0,0,.65.12Zm21.78,14.64a.39.39,0,0,0,.52.14l8.87-4.86a.39.39,0,0,0,.14-.54l-6.88-11.6a.39.39,0,0,0-.54-.13l-8.79,5.4a.39.39,0,0,0-.13.53Zm-38.52,7.99a.55.55,0,0,0-.14.82l6.45,7.95a.55.55,0,0,0,.68.14l22.05-11.13a.55.55,0,0,0,.22-.78l-6.41-10.38a.55.55,0,0,0-.76-.18Zm69.26,1.55a.42.42,0,0,0,.54.16l5.01-2.36a.42.42,0,0,0,.2-.57l-5.4-10.75a.42.42,0,0,0-.57-.18l-5.88,3.12a.42.42,0,0,0-.16.59Zm-18.72,8.94a.59.59,0,0,0,.74.21l8.56-4.12a.59.59,0,0,0,.24-.85l-5.98-9.23a.59.59,0,0,0-.78-.2l-8.4,4.62a.59.59,0,0,0-.2.84Zm-36.69,6.66a.35.35,0,0,0-.1.54l6.14,7.01a.35.35,0,0,0,.4.09l20.94-9.12a.35.35,0,0,0,.15-.52l-5.82-8.57a.35.35,0,0,0-.44-.11Zm43.51,2.31a.42.42,0,0,0-.16.63l1.62,2.22a.42.42,0,0,0,.47.16l9.51-3.11a.42.42,0,0,0,.21-.65l-2.43-3.33a.42.42,0,0,0-.53-.13Zm-8.62,5.96-.36-.97a.26.26,0,0,0-.34-.15l-.13.05c-11.271,4.236-20.312,7.95-20.21,8.3l.08.22c0,.188,2.187-.452,6.072-1.778s9.146-3.228,14.609-5.282l.13-.05a.26.26,0,0,0,.15-.34ZM1277,649.04a.31.31,0,0,0-.12.52l4.57,4.33a.31.31,0,0,0,.28.08l20.22-4.14a.31.31,0,0,0,.18-.5l-5.11-6.41a.31.31,0,0,0-.33-.11Zm-7.88,7.41q.46-.09.13-.43l-2.74-2.83a1.52,1.52,0,0,0-1.55-.4q-19.61,6.01-39.65,11.72a.093.093,0,0,0-.07.07.13.13,0,0,0,0,.1.11.11,0,0,0,.14.09Q1247.44,660.65,1269.12,656.45Z" fill="#346237"/>
    <path id="패스_19746" data-name="패스 19746" d="M827.74,553.77a6.233,6.233,0,0,0-3.11,7.39,38.626,38.626,0,0,1,1.13,7.04,19.413,19.413,0,0,1-4.67-5.64q-.49-.95-1.1-.07l-.7,1a2.055,2.055,0,0,0,.01,2.39l8.24,11.49a370.4,370.4,0,0,0,7.63,36.46l-10.67-10.9q-.41-.42-.74.07l-2.49,3.55a.68.68,0,0,0,.12.91l15.66,13.32,3.02,14.03a197,197,0,0,1-24.74-19.37.52.52,0,0,0-.77.07l-5.46,7.33a.935.935,0,0,0,.1,1.24q15.97,15.35,33.23,29.06l1.1,16.78a339.662,339.662,0,0,1-45.3-32.26.5.5,0,0,0-.73.08l-5.94,7.85a.72.72,0,0,0,.1.98c16.4,14.31,33.87,28.24,52.42,39.75l-.16,10.87q-8.56-4.67-16.08-9.78a477.422,477.422,0,0,1-42.61-32.61.565.565,0,0,0-.426-.129.585.585,0,0,0-.394.219l-8.84,11.37a.54.54,0,0,0,.09.75c20.5,16.61,42.34,32.64,65.05,44.06a3.7,3.7,0,0,0,2.98.28l-.48,11.03q-2.28-.81-4.4-1.81a265.344,265.344,0,0,1-41.35-24.11q-7.06-5.04-14.53-10.27c-4.79-3.34-9.34-7.08-13.71-10.76a.545.545,0,0,0-.88.08l-12.8,16.02a.645.645,0,0,0-.141.485.665.665,0,0,0,.251.445,539.639,539.639,0,0,0,57.69,39.22,215.293,215.293,0,0,0,28.64,14.08l-1.28,18.62q-6.33-1.91-27.72-9.1a374.9,374.9,0,0,1-79.08-37.21.5.5,0,0,0-.63.09l-14.98,16.13-5.62-8,12.23-13.56a.39.39,0,0,0-.08-.6l-4.59-2.87a.5.5,0,0,0-.74.13l-9.71,12.62-5.55-8.72,7.51-9.88a.265.265,0,0,0-.06-.37l-4.98-3.72a.23.23,0,0,0-.38.08l-5.02,8.7-5.55-10.03,2.64-4.57a.625.625,0,0,0-.16-.89l-4.32-3.52a.4.4,0,0,0-.66.11,6.5,6.5,0,0,0-.88,2.07q-4.31-8.37-5.69-11.74-3.06-7.43-7.57-21.2l6.15-18.64a1.725,1.725,0,0,0-.27-1.58l-11.08-14.39-.1-18.11,15.63,21.7a.24.24,0,0,0,.42-.05l8.71-21.05a1.009,1.009,0,0,0-.16-1.1q-11.71-14.07-22.93-30.24l2.41-15.29a351.385,351.385,0,0,0,25.19,35.1q.35.43.57-.07l6.24-14.47a1.286,1.286,0,0,0-.15-1.27l-26.99-36.18,4.19-11.62,27.4,37q.38.5.61-.08l4.63-11.66a1.545,1.545,0,0,0-.23-1.52,362.33,362.33,0,0,1-26.26-37.91l-2.55-4.13a419.977,419.977,0,0,1-24.22-47.29,18.4,18.4,0,0,1-1.55-5.74,4.507,4.507,0,0,1,6.85-4.33q2.02,1.28,4.16,6.18a406.872,406.872,0,0,0,47.82,82q.43.56.69-.1l.58-1.49a1.615,1.615,0,0,0-.17-1.58c-22.85-33.47-42.13-72.02-57.01-110.68a5.093,5.093,0,0,1,2.08-6.49c3.71-2,6.53.64,7.85,4a588.247,588.247,0,0,0,51.15,100.94q1.09,1.72,1.68-.23l2.58-8.42a4.43,4.43,0,0,0-.5-3.68,452.005,452.005,0,0,1-46.58-95.77q-6.38-18.4-12.94-42.37a5.041,5.041,0,0,1,3.26-6.37c4.63-1.26,6.55,3.13,7.54,6.81q3.45,12.82,7.68,26.2a462.9,462.9,0,0,0,46.18,100.93q.41.69.68-.07l4.64-13.4a2.351,2.351,0,0,0-.23-2.02q-2.48-3.99-4.48-7.83c-.66-1.27-.91-2.52-1.67-3.86a459.627,459.627,0,0,1-51.18-133.6c-1.01-4.81,3.91-8.92,7.99-5.43a6.448,6.448,0,0,1,2.08,3.62q2.32,10.38,4.76,19.8A450.733,450.733,0,0,0,747.9,477.28a.11.11,0,0,0,.2-.03l1.89-5.88a.562.562,0,0,0-.04-.44,324.649,324.649,0,0,1-17.97-40.3,522.437,522.437,0,0,1-18.1-63.72q-2.9-13.2-4.66-26.65c-.45-3.42-2.13-11.17,2.78-12.43,4.38-1.12,6.4,2.2,6.82,5.92,3.37,29.88,11.22,59.24,20.67,87.46a166.87,166.87,0,0,0,7.24,17.8q4.21,8.93,8,17.43.3.67.55-.02,1.62-4.43,2.95-8.91a2.841,2.841,0,0,0-.09-1.86A585.233,585.233,0,0,1,725.2,317.34a167.561,167.561,0,0,1-1.51-17.98c-.14-4.68,1.81-11.2,7.8-9.18a5.038,5.038,0,0,1,3.68,5.45c-.35,11.06,1.31,22.19,3.23,33.64a600.992,600.992,0,0,0,25.67,100.02q.2.55.39,0,9.84-27.99,21.76-56.03a5.429,5.429,0,0,1,8.96-1.72c2.16,2.35,1.75,5.07.53,8.03-10.87,26.49-17.21,43.38-24.43,64.94a4.93,4.93,0,0,0,.06,3.47q6.38,16.1,15.96,35.63a.15.15,0,0,0,.27,0q8.15-17.42,15.76-34.31a162.73,162.73,0,0,0,7.03-18.47,7.674,7.674,0,0,1,1.31-2.47c3.07-3.84,9.47-1.72,9.57,3.13a18.431,18.431,0,0,1-1.04,5.95,99.509,99.509,0,0,1-3.57,9.48q-9.56,21.86-22.14,48.54a2.575,2.575,0,0,0,.05,2.32l5.43,10.24q.25.46.48,0,7.03-13.99,13.17-28.25c3.3-7.67,13.58-3.4,9.94,5.26q-6.01,14.26-16.15,34.36a1.827,1.827,0,0,0,.08,1.86q6.32,10.54,12.25,20.15a.24.24,0,0,0,.4.01,82.525,82.525,0,0,0,10.35-18.96c2.41-6.35,11.25-4.55,10.74,2a18.59,18.59,0,0,1-1.87,6.4,143.955,143.955,0,0,1-11.83,19.93Q826.29,552.57,827.74,553.77Zm-62.62-90.94-2.43,8a.714.714,0,0,0,.05.56l15.76,29.42q.61,1.13,1.17-.03l1.17-2.42a2.68,2.68,0,0,0-.04-2.54q-7.53-14.4-15.52-33a.09.09,0,0,0-.16.01Zm-8.76,28.69q6.22,9.01,11.75,17.86a8.092,8.092,0,0,0,2.77,2.77q.71.42.32-.3l-13.64-25.43q-.27-.5-.45.04l-1.03,3.05a2.275,2.275,0,0,0,.28,2.01Zm-5.26,12.46a.14.14,0,0,0-.26.02l-4.72,13.13a1.99,1.99,0,0,0,.26,1.83l14.53,20.33q.44.61.77-.07l4.46-9.32a1.555,1.555,0,0,0-.13-1.56A246.611,246.611,0,0,1,751.1,503.98Zm37.27,5.98a.31.31,0,0,0-.56.04l-1.58,3.91a.31.31,0,0,0,.02.27l5.77,9.65a.31.31,0,0,0,.55-.02l1.57-3.31a.31.31,0,0,0-.01-.29Zm-46.79,20.67a.34.34,0,0,0-.59.09l-3.7,9.82a.34.34,0,0,0,.04.33l13.83,18.11a.34.34,0,0,0,.58-.05l4.3-8.35a.34.34,0,0,0-.03-.36Zm59.86,1.78a.5.5,0,0,0-.89.09l-1.02,2.62a.5.5,0,0,0,.05.45L811.4,554a.5.5,0,0,0,.86-.04l1.16-2.31a.5.5,0,0,0-.02-.49Zm-22.17,15.33a.3.3,0,0,0-.02-.31l-5.02-7.12a.3.3,0,0,0-.51.04l-4.52,9.26a.3.3,0,0,0,.04.32l5.09,6.52a.3.3,0,0,0,.5-.05Zm-42.62,11.446a24.374,24.374,0,0,0-4.4-5.572,24.365,24.365,0,0,0,4.4,5.572Zm50.57-.906a.35.35,0,0,0-.59.04L782.49,566a.35.35,0,0,0,.04.39l12.27,13.97a.35.35,0,0,0,.56-.05l3.64-5.99a.35.35,0,0,0-.02-.39Zm-18.01,8.67a.31.31,0,0,0-.03-.34l-5.08-6.37a.31.31,0,0,0-.52.05l-4.13,7.92a.31.31,0,0,0,.04.35l5.36,5.99a.31.31,0,0,0,.51-.06Zm-28.527-2.858c.078-.062-.291-.65-.822-1.314s-1.026-1.152-1.1-1.09.291.651.822,1.314S740.605,564.154,740.683,564.092Zm-14,.358-4.87,12.15a1.33,1.33,0,0,0,.24,1.37l11.93,13.59q.44.5.74-.09l5.36-10.26a1.158,1.158,0,0,0-.16-1.38l-12.01-14.17a.277.277,0,0,1-.07-.12l-.47-1.09Q727.01,563.61,726.68,564.45Zm49.87,12.52-2.95,5.62a1.5,1.5,0,0,0,.4,1.88,11.2,11.2,0,0,1,4.27,6c.78,3.19,3.37,5.47,5.53,7.77a.214.214,0,0,0,.181.065.236.236,0,0,0,.169-.1l5.09-8.12a.2.2,0,0,0-.02-.25l-11.53-13Q777.02,576.08,776.55,576.97Zm30.51,7.37a.36.36,0,0,0-.59.03l-3.02,4.98a.36.36,0,0,0,.05.44l8.84,9.11a.36.36,0,0,0,.55-.04l2.54-3.54a.36.36,0,0,0-.01-.43Zm-89.64,3.67a.32.32,0,0,0-.54.08l-6.49,15.16a.32.32,0,0,0,.06.34L721.1,615.4a.32.32,0,0,0,.52-.06l7.2-12.99a.32.32,0,0,0-.04-.36Zm36.67,7.83a.31.31,0,0,0-.04-.35l-5.39-5.97a.31.31,0,0,0-.5.07l-5.45,10.65a.31.31,0,0,0,.05.36l5.23,5.45a.31.31,0,0,0,.49-.07Zm43.73,2.9a.33.33,0,0,0-.5.05l-5.2,7.79a.33.33,0,0,0,.04.41l8.31,8.5a.33.33,0,0,0,.5-.04l5.56-7.65a.33.33,0,0,0-.03-.43Zm-35.41,5.52a.35.35,0,0,0-.56.08l-5.35,9.57a.35.35,0,0,0,.07.43L767,624.11a.35.35,0,0,0,.54-.08l5.16-8.96a.35.35,0,0,0-.06-.42Zm-33.1,19.22a.38.38,0,0,0,.06.45l5.38,5.47a.38.38,0,0,0,.6-.08l7.49-13.14a.38.38,0,0,0-.06-.45l-5.6-5.66a.38.38,0,0,0-.6.09Zm-32.77,12.31a.33.33,0,0,0,.06.34l7.83,8.85a.33.33,0,0,0,.53-.05L716.3,625.5a.33.33,0,0,0-.04-.39L706.1,614.02a.33.33,0,0,0-.55.1Zm84.74-13a.47.47,0,0,0-.71.09l-5.61,8.47a.47.47,0,0,0,.08.61l7.83,7.05a.47.47,0,0,0,.69-.07l6.06-8.07a.47.47,0,0,0-.06-.63Zm-38.4,14.32a.4.4,0,0,0,.07.49l8.86,8.54a.4.4,0,0,0,.61-.06l8.47-12.5a.4.4,0,0,0-.06-.51l-9.79-9.27a.4.4,0,0,0-.62.09Zm-30.12,16.12a.34.34,0,0,0,.06.4l5.09,5.19a.34.34,0,0,0,.53-.07l10.59-18.49a.34.34,0,0,0-.05-.41l-5.31-5.32a.34.34,0,0,0-.54.07Zm47.41-.09a.5.5,0,0,0,.08.65l6.61,5.88a.5.5,0,0,0,.73-.06l9.04-11.67a.5.5,0,0,0-.06-.68l-7.31-6.45a.5.5,0,0,0-.74.1Zm-74.09,12.72a.31.31,0,0,0,.07.31l3.64,3.66a.31.31,0,0,0,.48-.07l8.92-15.14a.31.31,0,0,0-.03-.37l-6.44-7.05a.31.31,0,0,0-.53.11Zm39.98.17a.45.45,0,0,0,.09.56l6.91,6.39a.45.45,0,0,0,.68-.07l11.93-17.13a.45.45,0,0,0-.07-.59l-8.18-7.51a.45.45,0,0,0-.69.1Zm15.36,13.73a.52.52,0,0,0,.08.69l5.28,4.64a.52.52,0,0,0,.75-.07l12.91-16.31a.52.52,0,0,0-.07-.72l-6.18-5.25a.52.52,0,0,0-.76.09Zm-42.3-1.73a.41.41,0,0,0,.09.5l4.79,4.42a.41.41,0,0,0,.64-.1l7.42-12.92a.41.41,0,0,0-.07-.5l-5.01-4.73a.41.41,0,0,0-.64.1Zm27.47,4.96a.52.52,0,0,0-.08-.69l-6.18-5.41a.52.52,0,0,0-.79.13l-7.27,12.39a.52.52,0,0,0,.12.67l5.34,4.3a.52.52,0,0,0,.75-.11Zm-.09,17.09a.53.53,0,0,0,.13.76l4.91,3.28a.53.53,0,0,0,.7-.1l7.92-9.75a.53.53,0,0,0-.07-.74l-5.06-4.09a.53.53,0,0,0-.76.1Zm97.68,48.47a445.828,445.828,0,0,1-75.4-48.05.485.485,0,0,0-.68.07l-7.4,8.86a.5.5,0,0,0-.108.4.474.474,0,0,0,.228.334,431.194,431.194,0,0,0,84.02,38.85q.26.09.12-.14a.335.335,0,0,0-.26-.17A1.6,1.6,0,0,1,824.18,748.55Z" fill="#346237"/>
    <path id="패스_19747" data-name="패스 19747" d="M608.25,601.69q7.14,15.88,13.25,32.14.64,1.71,1.16,3.46.64,2.14,1.14,3.45,5.46,14.33,11.03,28.86a856.76,856.76,0,0,1-153.22-53.51q-43.22-19.87-85.15-44.19a1191.653,1191.653,0,0,1-141.53-96.2q-14.02-11.1-27.57-23.15c-3.61-3.21-8.77-8.18-3.66-12.3,2.73-2.2,5.62-.66,7.79,1.57q3.39,3.49,7.24,6.79,29.46,25.31,66.43,51.75,78.28,55.99,157.47,95.1a898.506,898.506,0,0,0,132.4,52.65q.69.22.02-.07-25.06-10.72-49.7-23.79A821.616,821.616,0,0,1,417.9,540.44c-35.13-28.01-68.34-58.08-99.87-88.75q-28.84-28.06-57.73-56.15a9.788,9.788,0,0,1-2.49-3.44,4.479,4.479,0,0,1,1.14-4.96c2.65-2.81,6.28-1.47,8.69.87,30.13,29.33,60.14,59.08,90.73,87.34q21.34,19.72,44.83,39.61A830.728,830.728,0,0,0,621.17,648.53a.137.137,0,0,0,.2-.08h.01a.127.127,0,0,0-.06-.18,1196.833,1196.833,0,0,1-127.19-84.66A1000.086,1000.086,0,0,1,319.34,393.15q-6.43-8.02-13.69-18.65c-1.85-2.71-3.21-6.53-.64-9.18a4.925,4.925,0,0,1,7.76.92c11.52,17.12,24.57,32.83,37.86,48.21A991.115,991.115,0,0,0,500.39,555.17q23.4,17.81,53.61,38.6c17.1,11.77,35.34,21.26,53.19,31.29a.134.134,0,0,0,.2-.05V625a.126.126,0,0,0-.04-.19,600.323,600.323,0,0,1-68.87-55.3c-14.96-13.95-29.9-27.9-44.59-42.15-53.05-51.44-101.63-106.25-144.63-166.2q-7.15-9.97-13.25-19.54c-3.93-6.16,4.38-11.85,8.26-6.15q28.12,41.39,57.38,76.74a1306.647,1306.647,0,0,0,91.14,99.38.167.167,0,0,0,.26.01v-.01a.173.173,0,0,0,.02-.27q-19.62-22.29-37.63-45.38a1452.372,1452.372,0,0,1-96.99-140.75q-6.56-10.84-12.14-21.22c-1.77-3.29-2.4-7.35,1.47-9.23a5.241,5.241,0,0,1,6.94,2.54q9.32,17.46,21.16,36.4c38.16,61.01,80.76,120.47,128.37,174.51q5.39,6.11,11.35,12.1c5.25,5.27,10.4,10.93,15.75,16q26.87,25.46,55.34,48.79Q597.22,593.71,608.25,601.69Z" fill="#346237"/>
    <path id="패스_19748" data-name="패스 19748" d="M1372.16,567.51q-3.87-6.28-10.68-2.2a9.978,9.978,0,0,0-2.4,2.01,92.5,92.5,0,0,0-6.99,8.94l-13.99,6.16-1.49-10.98c36.5-15.8,71.29-29.73,109.21-47.8Q1548.07,474.92,1644,419.89q12.23-7.02,23.89-15.01a80.291,80.291,0,0,0,14.85-12.69c3.71-4.21,9.65-.11,8.28,4.9a11.53,11.53,0,0,1-3.07,5.05,75.687,75.687,0,0,1-9.91,8.48q-13.92,9.86-37.2,23.19-80.24,45.96-177,92.77Q1414.23,550.58,1372.16,567.51Z" fill="#346237"/>
    <path id="패스_19749" data-name="패스 19749" d="M1356.37,600.59l8.39-15.08q45.87-19.62,131.72-54.04,30.73-12.33,73.77-33.85,49.51-24.76,94.27-51.04a292.475,292.475,0,0,0,34.89-23.74c6.05-4.85,12.25,2.71,6.82,7.77a93.4,93.4,0,0,1-9.78,7.84q-9.35,6.58-21.38,14.02-28.7,17.76-86.41,47.59-49.23,25.45-87.69,40.89C1452.64,560.34,1410.61,577.28,1356.37,600.59Z" fill="#346237"/>
    <path id="패스_19750" data-name="패스 19750" d="M643,689.67l4.42,10.87a40.7,40.7,0,0,1-4.17-.35c-41.66-8.56-81.94-21.6-121.34-37.13q-60.81-23.98-124.69-54.07c-55.73-26.25-107.75-53.75-157.24-87.45q-7.81-5.32-14.53-10.74a15.773,15.773,0,0,1-2.92-3.1c-3.63-5.07,2.67-10.77,7.68-6.67,2.53,2.08,5,4.25,7.64,6.12,36.75,26,77.25,49.28,117.59,69.79q3.23,1.64.15-.26a837.048,837.048,0,0,1-124.51-94.01q-8.58-7.85-15.73-15.5c-5.32-5.7,1.62-13.2,7.28-7.44q10.72,10.9,22.26,21.23a838.067,838.067,0,0,0,109.74,82.77,985.52,985.52,0,0,0,152.22,79.38q39.48,16.32,84.65,31.45Q618.36,683.56,643,689.67Z" fill="#346237"/>
    <path id="패스_19751" data-name="패스 19751" d="M1364.09,626.25a94.589,94.589,0,0,1,14.92-15.58.487.487,0,0,0,.17-.23,2.421,2.421,0,0,1,.11-.23.818.818,0,0,1,.19-.26c3.9-3.32,8.37-7.43,10.24-11.95q23.69-7.15,29.74-9.32,23.75-8.49,46.63-19.09c7.05-3.27,14.83-6.25,20.91-8.81a1925.424,1925.424,0,0,0,173.81-83.57,22.345,22.345,0,0,0,4.2-3c5.24-4.78,11.08,3.83,4.97,8.32a69.239,69.239,0,0,1-7.04,4.48c-62.32,35.12-126.78,65.32-193.34,92.37a.142.142,0,0,0-.09.2l.01.01q.05.15.21.09,61.96-22.07,135.76-48.02,23.55-8.28,47.53-18.6c5.88-2.53,10.2,4.74,4.82,8.51a49.779,49.779,0,0,1-9.8,5.15q-20.49,8.34-43.95,16.6-94.36,33.26-188.6,66.89Q1393.66,618.01,1364.09,626.25Z" fill="#346237"/>
    <path id="패스_19752" data-name="패스 19752" d="M678.25,518.56l-4.67,11.17q-6.99-9.83-12.96-20.11a8.015,8.015,0,0,1-1.08-4.84,4.5,4.5,0,0,1,6.59-3.57,11.8,11.8,0,0,1,4.11,4.35Q674.04,512.09,678.25,518.56Z" fill="#346237"/>
    <path id="패스_19753" data-name="패스 19753" d="M1161.35,500.78a15.05,15.05,0,0,1,7.1,6.78c6.9,12.1,13.18,24.74,17.23,37.55q.81,2.58,1.72,5.11.21.56.37-.01l4.19-14.96,8.56-24.51a13.245,13.245,0,0,1,4.55-4.6q7.3-.85,8.12,7.15.41,4.07-2.14,13.23-3.51,12.58-6.63,25.27-.39,1.61-.8,2.84l-2.98,15.07-.61,3.03q-.15.74.29.13a3.647,3.647,0,0,0,.72-2.54,4.248,4.248,0,0,0,1.65-1.82q2.09-4.19,4.2-8.45a143,143,0,0,1,21.79-30.46,20.74,20.74,0,0,1,8.87-5.98q9.02,1.9,5.54,11l-6.53,10.55-19.71,30.81a196.142,196.142,0,0,0-9.45,24.2,63.307,63.307,0,0,0-2.5,10.45l-1.01,5.04-1.49,12.55-.99,10.44-1.45,11.68-1.13,7.31-4.01,25.1-1.88,9.5-2.45,10.73-1.66,5.9-3.35,10.36-1.31,3.26-3.71,10.03-.28.1a.817.817,0,0,0-.49.45l-2.81,6.05-5.04,9.85-2.59,4.29q-.34.56.2.18l6.33-4.51,13.5-9.62a.249.249,0,0,0,.11-.24.8.8,0,0,0-.1-.26l10.91-6.76,15.24-10.2,9.07-5.37,20.84-12.14,11.86-7.22,18.71-12.64,13.82-9.69,7.6-6.31,8.81-8.79a109.177,109.177,0,0,0,7.23-9.83q.92-1.4.61-2.02a28.681,28.681,0,0,0,5.27-9.27,48.4,48.4,0,0,0,2.98-15.13,12.511,12.511,0,0,0,.62-5.2,96.708,96.708,0,0,0,1.02-18.25l-.37-10.72-.87-11.14-1.98-18.16q-.53-5.45-.15-6.99a6.166,6.166,0,0,1,4.27-4.8q5.76-1.79,8.1,4.55l3.73,18.71,1.49,10.98.56,12.38q.02.52.32.09l13.11-18.63a92.5,92.5,0,0,1,6.99-8.94,9.978,9.978,0,0,1,2.4-2.01q6.81-4.08,10.68,2.2.26,3.74-.56,5.31-3.34,6.36-6.84,12.69l-8.39,15.08-12.45,21.75q-.75,1.31.38.32c11.73-10.29,22.88-21.5,34.55-30.81,4.96-3.96,11.84-.45,10.87,6.15-1.87,4.52-6.34,8.63-10.24,11.95a.818.818,0,0,0-.19.26,2.421,2.421,0,0,0-.11.23.487.487,0,0,1-.17.23,94.589,94.589,0,0,0-14.92,15.58l-9.78,10.26-13.6,16.62-14.36,23.99a304.713,304.713,0,0,1-21.15,29.06l-1.57,1.8-13.52,15.11-10.01,9.61-13.99,12.57-5,4.3-22.51,16.76-22.78,14.37-12.81,7.94-17.14,10.74-10.46,6.78q-23.69,15.96-34.41,24.38a348.722,348.722,0,0,0-30.43,26.81q-6.53,6.47-12.66,13.77-16.7,19.92-32.06,39.82a447.412,447.412,0,0,0-48.63,78.71q-12.69,26.19-12.26,53.34.29,18.52.38,37.01H989.77q-.98-22.67-.96-31.75a199.3,199.3,0,0,1,1.49-24.83c2.49-19.52,10.68-38.61,20.36-56.3a589.214,589.214,0,0,1,31.8-51.63q5.75-8.35,11.78-16.11,12.26-15.8,25.41-31.98a248.853,248.853,0,0,1,34.58-35.06q12.55-10.37,25.78-20.61c23.12-17.89,51.45-34.88,77.86-51.05,30.67-18.78,57.68-43.06,80.61-71.58q1.63-2.04-.48-.5-16.84,12.27-34.79,23.6c-11.08,7.01-23,13.27-34.21,20.3q-25.76,16.14-50.9,33.65c-6.1,4.25-12.08,9.6-18.1,13.9q-7.97,5.69-15.71,11.55a9.721,9.721,0,0,1-6.92,2.12c-5.33-.47-8.27-5.62-6.81-10.67a23.574,23.574,0,0,1,3.57-6.12c15.34-21.14,29.51-42.56,37.66-67.63a215.184,215.184,0,0,0,8.82-39.39.053.053,0,0,1,.06-.06c.033,0,.053.02.06.06a.22.22,0,0,1-.01.07c-7.17,20.68-17.84,42.52-27.59,61.19a153.77,153.77,0,0,1-11.45,18.73q-9.33,12.97-20.32,26.4-4.85,5.94-20.46,27.08c-7.96,10.78-16.95,21.75-26.01,32.01q-18.31,20.73-38.93,42.27a167.682,167.682,0,0,1-19.58,17.82q-10.25,7.73-23.35,16.47a90.089,90.089,0,0,1-49.86,15.5,73.78,73.78,0,0,1-37.32-9.69c-18.65-10.27-37.31-23.05-55.11-36.05-13.89-10.15-28.37-19.82-41.84-29.47a344.936,344.936,0,0,1-44.55-38.09,521.055,521.055,0,0,1-41.85-47.4q-11.18-14.5-22.61-30.89a280.949,280.949,0,0,1-24.54-43,165.478,165.478,0,0,1-14.45-52.77q-.23-2.28-.54-.01a267.275,267.275,0,0,0-2.44,33.78,59.32,59.32,0,0,0,.4,7.23,31.063,31.063,0,0,0,2.2,8.62,455.722,455.722,0,0,0,27.97,55.23c18.01,30.05,42.12,58.28,66.66,84.03q22.42,23.52,45.58,47.4a682.818,682.818,0,0,1,58.37,68.51q6.89,9.27,13.32,19.6a136.179,136.179,0,0,1,21.09,70.86q.25,14.19-.32,23.66-.28,4.7-2.02,21h-14.7c2.02-20.27,3.01-39.33.02-59.28a127.146,127.146,0,0,0-21.04-53.18c-20.51-30.17-44.31-57.51-69.69-83.68-24.54-25.3-48.64-49.83-71.68-76.68a428.428,428.428,0,0,1-30.57-40.12l-14.38-23.5a3.153,3.153,0,0,0-.73-1.43l-9.03-16.94a3.28,3.28,0,0,0-.96-1.71l-4.63-9.64-6-12.98a.373.373,0,0,0-.15-.17l-.21-.15L643,689.67l-8.17-20.07q-5.57-14.53-11.03-28.86-.5-1.31-1.14-3.45-.52-1.75-1.16-3.46-6.11-16.26-13.25-32.14l-3.01-5.65a36.969,36.969,0,0,0-2.53-6q-10.89-22.15-22.81-41.96c-2.06-3.42-3.1-8.96,1.08-11.38a8.09,8.09,0,0,1,2.92-.7q1.25-.13,3.02-.47a183.062,183.062,0,0,1,22.78,32.8,400.061,400.061,0,0,1,19.77,42.45,10.366,10.366,0,0,1,.44,1.38q.35,1.45.48-.03a284.79,284.79,0,0,1,8.25-47.14,64.253,64.253,0,0,1,4.4-12.24,6.144,6.144,0,0,1,10.64-.79,8.994,8.994,0,0,1,1.35,6.55q-1,6.9-2.01,13.73l-1.75,14.39a226.916,226.916,0,0,0-1.85,31.36q.16,10.02,1.3.07a234.457,234.457,0,0,1,4.35-24.01l3.03-16.58q.5-.27.55-.45,2.74-10.25,5.41-20.13l4.27-12.51,5.25-14.65,4.67-11.17q3.94-9.12,12.29-5.79l2.55,4.13a57.455,57.455,0,0,1-6.15,14.17l-4.19,11.62-4.86,16.89-2.41,15.29a141.571,141.571,0,0,0-1.67,30.74l.1,18.11q.75,13.39,1.27,17.53a108.426,108.426,0,0,0,3.93,17.08q4.51,13.77,7.57,21.2,1.38,3.37,5.69,11.74l3.38,6.8,5.55,10.03,2.93,5.19,5.55,8.72,2.89,4.28,5.62,8q12.98,17.98,20.05,26.88a513.707,513.707,0,0,0,38.82,43.17,337.259,337.259,0,0,0,45.3,37.95q5.59,3.91,11.47,8.11a.26.26,0,0,0,.41-.18q2.67-27.91,4.36-55.62.33-5.5,1.06-15.11.57-7.62.94-15.11l1.28-18.62,1.23-23.38.48-11.03.23-14.16.16-10.87-.55-16.4-1.1-16.78-2.36-18.33-3.02-14.03-1.88-6.95a370.4,370.4,0,0,1-7.63-36.46l-1.78-9.17a38.626,38.626,0,0,0-1.13-7.04,6.233,6.233,0,0,1,3.11-7.39q6.09-.96,8.78,5.01,2.32,5.16,4.68,10.18c1.2,2.55,1.56,5.08,2.34,7.62q4.13,13.5,9.23,29.1.32,1,.37-.05c.06-1.59-.16-3.31-.11-4.84q1.15-30.27,3.17-56.79.65-8.64,2.04-16.72a27.038,27.038,0,0,1,1.06-3.51,5.585,5.585,0,0,1,8.11-2.82,7.494,7.494,0,0,1,3.61,5.33,177.913,177.913,0,0,1,2.67,28.01q.61,25.88.12,51.53a.04.04,0,0,0,.08.01l21.92-69.89,5.55-11.98c2.47-3.49,6.15-6.91,10.67-4.02,4.59,2.95,4.62,9.27,3.62,14.06q-1.09,5.23-2.47,10.18l-4.05,14.21-13.41,41.85c-1.24,2.45-2.01,5.74-2.71,7.69q-4.8,13.38-9.52,26.81-2.13,6.06-4.99,25.89l-1.82,17.85-.46,14.11-.05,12.32.31,10.84q.04,8.85.91,17.99.01.13.36.17a.237.237,0,0,0-.26-.01.337.337,0,0,0-.23.37l1.1,16.82q.03.18.06.35l.67,9.6q2.47,46.16,8.39,81.21a275.23,275.23,0,0,0,13.88,51.39q1.44,3.84,3.66,5.26c12.57,7.99,26.81,14.03,42.36,12.34q2.83-.3,5.94-.72a66.318,66.318,0,0,0,23.19-7.34,195.522,195.522,0,0,0,17.14-10.96q13.4-9.35,18.03-13.44,8.36-7.4,17.26-16.82,21.1-22.37,38.21-42.01c15.23-17.49,27.28-34.93,40.77-52.43l6.33-8.01,6.29-8.03,6.09-8.3,2.82-3.69,5.27-8.21,4.48-7.88,4.35-8.66,7.59-15.65,4.05-8.72,4.49-9.98,3.6-9,5.4-16.59,2.46-9.54,2.96-15.93,2.67-19.11a6.919,6.919,0,0,0,0-2.92,27.167,27.167,0,0,0-.17-13.34q.21.19.11-.43a106.35,106.35,0,0,0-1.94-19.68,184.731,184.731,0,0,0-9.57-33.35l-4.15-9.88c-3.21-6.57-6.46-13.21-7.7-20.38C1152.44,504.97,1155.54,500.14,1161.35,500.78ZM882.09,883.38c-8.93-27.08-13.5-54.95-16.1-83.6q-4.17-45.93-5.82-91.8-.01-.17-.17-.17h-.01q-.14,0-.15.15-2.28,58.56-7.89,115.81-1.64,16.74-3.92,34.67a2.319,2.319,0,0,0,1.02,2.34l32.27,23.17Q882.57,884.85,882.09,883.38Z" fill="#704f39"/>
    <path id="패스_19754" data-name="패스 19754" d="M1340.71,653.13l13.6-16.62q27.88-6.54,55.94-12.76,9.25-2.05,30.62-8.72,3.42-1.07,13.32-3.67,6.63-1.75,13.16-3.76a1355.523,1355.523,0,0,0,190.72-74.88q21.55-10.4,39.14-20.18c3.1-1.73,5.94-5.45,9.63-2.01,2.25,2.1,1.29,5.56-.78,7.47a16.411,16.411,0,0,1-2.87,2.1q-19.67,11.28-40.21,21.47c-62.63,31.08-129.15,56.67-195.78,77.07q-1.58.49-3.15,1.01-2.16.72-6.49,1.96Q1392.79,640.22,1340.71,653.13Z" fill="#346237"/>
    <path id="패스_19755" data-name="패스 19755" d="M901.36,523.96l-5.55,11.98q-2.53-4.44-2.55-5.94Q893.18,521.84,901.36,523.96Z" fill="#346237"/>
    <path id="패스_19756" data-name="패스 19756" d="M668.33,544.38l-4.27,12.51q-4.85-7.57-9.06-14.98a57.52,57.52,0,0,1-3.96-8.72,4.572,4.572,0,0,1,6.8-5.46,11.465,11.465,0,0,1,3.5,4.2Q664.75,538.05,668.33,544.38Z" fill="#346237"/>
    <path id="패스_19757" data-name="패스 19757" d="M653.78,713.84l4.63,9.64a8.035,8.035,0,0,1-3.92.81q-4.96-.61-10.23-1.21A1412.258,1412.258,0,0,1,467.75,691.5q-43.17-10.59-82.01-22.96a1574.437,1574.437,0,0,1-152.67-56.96q-1.37-.6-2.81-1.37c-6.17-3.35-2.45-12.25,4.27-9.33a1584.414,1584.414,0,0,0,167.17,61.6q48.66,14.91,98.31,25.79a.457.457,0,0,0,.19,0q.26-.05.01-.12-43.63-12.88-86.93-29.41a835.815,835.815,0,0,1-162.9-83.31q-14.16-9.35-27.61-19.84c-4.16-3.24-11.11-8.56-6.16-13.39,2.53-2.48,5.57-1.23,7.84.84a144.516,144.516,0,0,0,11.56,9.49q12.24,9.03,24.5,17.01a827.619,827.619,0,0,0,158.51,80.13Q448.6,660.89,476.99,670q71.91,23.06,146.31,39.19c8.14,1.76,15.93,3.04,23.96,4.22A43.728,43.728,0,0,0,653.78,713.84Z" fill="#346237"/>
    <path id="패스_19758" data-name="패스 19758" d="M1203.62,554.63l3.27,5.42q-2.11,4.26-4.2,8.45a4.248,4.248,0,0,1-1.65,1.82l-.4-.62Z" fill="#346237"/>
    <path id="패스_19759" data-name="패스 19759" d="M1305.2,706.18a304.713,304.713,0,0,0,21.15-29.06,1094.236,1094.236,0,0,0,169.23-42.77q49.01-16.65,98.15-37.34,41.71-17.57,84.24-36.65,4.33-1.95,6.24,2.25l.08.18q1.91,4.21-2.29,6.15-30.42,14.1-58.65,26.64a1442.363,1442.363,0,0,1-143.6,54.96,1079.978,1079.978,0,0,1-126.81,32.42h-.06q-.05-.01-.03-.05a.054.054,0,0,1,.06-.04,6.861,6.861,0,0,0,.83-.03q64.28-5.04,132.54-17.2c48.01-8.56,95.13-20.07,141.76-36.33a882.121,882.121,0,0,0,96.46-40.2,19.394,19.394,0,0,1,2.66-1.1q3.68-1.07,5.39,2.83a1.13,1.13,0,0,1,.07.18,4.768,4.768,0,0,1-2.72,6.11,810.893,810.893,0,0,1-153.89,59.33q-41.23,11.14-88.74,19.61-58.6,10.44-117.78,16-21.41,2.01-42.64,3.1-5.74.3.01.23,39.89-.51,83.63-1.69c69.64-1.89,137.15-8.14,204.57-21.9,36.32-7.42,72.51-16.67,108.98-25.58q7.73-1.89,15.47-3.4c3.2-.62,7.97-.19,8.14,3.9q.19,4.24-4.07,5.04-8.65,1.64-16.05,3.61-31.71,8.42-63.73,16.31a1087.442,1087.442,0,0,1-160.83,27.16C1438.45,704.78,1371.27,705.15,1305.2,706.18Z" fill="#346237"/>
    <path id="패스_19760" data-name="패스 19760" d="M653.02,572.24a7.313,7.313,0,0,1,5.08,5.23l-3.03,16.58-3.8-7.42Z" fill="#346237"/>
    <path id="패스_19761" data-name="패스 19761" d="M989.77,1080h-98.6q1.74-16.3,2.02-21,.57-9.47.32-23.66a136.179,136.179,0,0,0-21.09-70.86q-6.43-10.33-13.32-19.6a682.818,682.818,0,0,0-58.37-68.51q-23.16-23.88-45.58-47.4c-24.54-25.75-48.65-53.98-66.66-84.03a455.722,455.722,0,0,1-27.97-55.23,31.063,31.063,0,0,1-2.2-8.62,59.32,59.32,0,0,1-.4-7.23,267.275,267.275,0,0,1,2.44-33.78q.31-2.27.54.01a165.478,165.478,0,0,0,14.45,52.77,280.949,280.949,0,0,0,24.54,43q11.43,16.39,22.61,30.89a521.055,521.055,0,0,0,41.85,47.4,344.936,344.936,0,0,0,44.55,38.09c13.47,9.65,27.95,19.32,41.84,29.47,17.8,13,36.46,25.78,55.11,36.05a73.78,73.78,0,0,0,37.32,9.69,90.089,90.089,0,0,0,49.86-15.5q13.1-8.74,23.35-16.47a167.682,167.682,0,0,0,19.58-17.82q20.62-21.54,38.93-42.27c9.06-10.26,18.05-21.23,26.01-32.01q15.61-21.14,20.46-27.08,10.99-13.43,20.32-26.4a153.77,153.77,0,0,0,11.45-18.73c9.75-18.67,20.42-40.51,27.59-61.19a.22.22,0,0,0,.01-.07c-.007-.04-.027-.06-.06-.06a.053.053,0,0,0-.06.06,215.184,215.184,0,0,1-8.82,39.39c-8.15,25.07-22.32,46.49-37.66,67.63a23.574,23.574,0,0,0-3.57,6.12c-1.46,5.05,1.48,10.2,6.81,10.67a9.721,9.721,0,0,0,6.92-2.12q7.74-5.86,15.71-11.55c6.02-4.3,12-9.65,18.1-13.9q25.14-17.51,50.9-33.65c11.21-7.03,23.13-13.29,34.21-20.3q17.95-11.33,34.79-23.6,2.11-1.54.48.5c-22.93,28.52-49.94,52.8-80.61,71.58-26.41,16.17-54.74,33.16-77.86,51.05q-13.23,10.24-25.78,20.61a248.853,248.853,0,0,0-34.58,35.06q-13.15,16.18-25.41,31.98-6.03,7.76-11.78,16.11a589.214,589.214,0,0,0-31.8,51.63c-9.68,17.69-17.87,36.78-20.36,56.3a199.3,199.3,0,0,0-1.49,24.83Q988.79,1057.33,989.77,1080Z" fill="#a47454"/>
    <path id="패스_19762" data-name="패스 19762" d="M659.37,725.19l9.03,16.94c-6.73.9-13.54,1.22-20.19,1.8q-22.68,1.98-45.33,4.12c-66.64,6.32-131.88,8.21-197.91,1.69-54.06-5.34-109.42-16.27-163.01-28.79q-3.68-.86-7.2-1.98c-8.29-2.64-4.09-13.49,3.67-10.2a38.2,38.2,0,0,0,6.03,1.96q47.84,11.28,92.51,19.1A867.428,867.428,0,0,0,473.52,743.2q41.91.61,80.49-1.88,31.38-2.03,69.79-5.3a.268.268,0,0,1,.1.02q.05.02.01.06a.105.105,0,0,1-.09.04q-3.58-.15-8.91-.03c-53.32,1.27-104.24-.69-156.4-7.23q-57.48-7.2-123.48-21.06-32.07-6.72-64.87-15.96a486.328,486.328,0,0,1-52.22-17.7,9.436,9.436,0,0,1-4.38-3.41,4.9,4.9,0,0,1,3.47-7.46,8.138,8.138,0,0,1,4.27.83q9.32,4.05,20.99,8.05,41.97,14.39,100.67,26.57,46.62,9.68,94.66,16.75,46.14,6.78,89.39,8.98c13.55.69,26.2,1.3,39.66,1.41C595.17,726.1,628.98,726.52,659.37,725.19Z" fill="#346237"/>
    <path id="패스_19763" data-name="패스 19763" d="M1290.11,723.09l13.52-15.11q23.7.12,47.62.51,36.85.59,95.83-.97a2006.208,2006.208,0,0,0,267.54-25.5q13.54-2.2,22.63-4.3c2.54-.59,6.11-3.76,8.93-.93a4.546,4.546,0,0,1,1.06,5.23c-1.17,3-4.68,4.25-7.5,4.93-5.99,1.46-12.16,2.84-18.02,3.87a1789.089,1789.089,0,0,1-210.39,24.29.22.22,0,0,0-.09.04.061.061,0,0,0-.02.09.1.1,0,0,0,.09.05q8.4-.15,16.19-.41c51.83-1.74,100.95-4.61,155.5-7.82q15.44-.91,30-1.61,14-.68,25.74-.77c4.81-.04,6.2,7.04,1.54,8.97-2.86,1.18-7.19.49-10.29.71-8.77.63-17.2.86-25.71,1.46-82.76,5.89-165.09,10.05-249.28,11.06Q1372.93,727.87,1290.11,723.09Z" fill="#346237"/>
    <path id="패스_19764" data-name="패스 19764" d="M1275.92,684.48l-18.71,12.64-66.72,5.85,2.45-10.73Q1234.32,689.34,1275.92,684.48Z" fill="#346237"/>
    <path id="패스_19765" data-name="패스 19765" d="M1245.35,704.34l-20.84,12.14c-16.26,1.51-27.28,2.71-39.03,2.75l3.35-10.36Q1217,707.51,1245.35,704.34Z" fill="#346237"/>
    <path id="패스_19766" data-name="패스 19766" d="M882.09,883.38q.48,1.47-.77.57l-32.27-23.17a2.319,2.319,0,0,1-1.02-2.34q2.28-17.93,3.92-34.67,5.61-57.25,7.89-115.81.01-.15.15-.15H860q.16,0,.17.17,1.65,45.87,5.82,91.8C868.59,828.43,873.16,856.3,882.09,883.38Z" fill="#a47454"/>
    <path id="패스_19767" data-name="패스 19767" d="M1215.44,721.85l-15.24,10.2-19.74.47,3.71-10.03Z" fill="#346237"/>
    <path id="패스_19768" data-name="패스 19768" d="M1266.11,745.27l13.99-12.57q21.54,2.84,42.9,4.81,83.3,7.64,162.63,7.08a1467.887,1467.887,0,0,0,182.77-13.06q27.11-3.6,49.21-7.82a39.562,39.562,0,0,0,6.25-1.82,4.22,4.22,0,0,1,5.52,3.67q.16,4.81-4.37,6.13-5.69,1.66-17.05,3.73c-60.96,11.1-124.77,17-188.45,18.93q-2.52.08-5.16-.03a.1.1,0,0,0-.1.04.092.092,0,0,0-.02.08.078.078,0,0,0,.07.07q1.76.19,5.94.41,50.57,2.68,95.47,2.37,39.82-.28,82.01-1.58,6.9-.22,13.26-.92c2.11-.23,4.35-1.67,6.31-1.44a4.534,4.534,0,0,1,3.21,7.1,7.391,7.391,0,0,1-4.96,3.28,65.258,65.258,0,0,1-11.58,1.36c-7.22.17-14.17.91-21.28,1.08q-9.05.22-18.19.56-55.23,2.1-110.85.1-25.41-.92-71.14-3.56-59.99-3.46-105.5-6.29c-31.51-1.96-64.63-5.1-95.92-9.97q-3.73-.58-7.55-.93Q1269.9,745.75,1266.11,745.27Z" fill="#346237"/>
    <path id="패스_19769" data-name="패스 19769" d="M1189.29,738.81a.8.8,0,0,1,.1.26.249.249,0,0,1-.11.24l-13.5,9.62-3.94.04,5.04-9.85Z" fill="#346237"/>
    <path id="패스_19770" data-name="패스 19770" d="M669.13,743.56l14.38,23.5a142.821,142.821,0,0,1-17.01,2.7q-29.24,3.11-64.3,8.02-16.17,2.27-60.18,6.69-9.1.91-23.26,2.98-23.87,3.48-49.51,7.9-43.67,7.52-88.75,15.21c-57.22,9.74-112.28,16.96-169.11,18.43a21.885,21.885,0,0,1-4.38-.32c-6.78-1.18-5.64-10.33,1.19-10.37q16.07-.11,31.73-1.03c52.6-3.09,105.12-11.07,157.1-20.13q.14-.02.12-.15v-.01a.116.116,0,0,0-.15-.11q-52.96,4.7-104.67,6.93c-30.05,1.29-61.7,1.98-90.93.74-3.93-.16-8.06-.8-7.87-5.7.18-4.72,4.32-5.18,8.26-4.97q23.59,1.27,47.96.8c36.48-.71,72.33-2.65,107.99-5.23q67.71-4.89,164.55-13.89,9.51-.88,19.88-2.2,18.84-2.41,37.73-4.66a.106.106,0,0,0,.1-.11v-.05q-.01-.08-.08-.07-38.36,2.62-77.93,5.38-47.18,3.3-91.63,4.13-80.54,1.51-168.42-3.19-14-.75-26.94-1.9c-7.13-.64-6.64-10.69.5-10.22q114.07,7.5,220.93,4.26.06,0,.06-.07v-.03q0-.04-.02-.04a1648.151,1648.151,0,0,1-210.73-15.75c-7.52-1.05-6.74-11.51,2.02-10.29A1642.209,1642.209,0,0,0,581,751.52Q624.92,748.14,669.13,743.56Z" fill="#346237"/>
    <path id="패스_19771" data-name="패스 19771" d="M1261.11,749.57c41.2,10.29,82.53,19.64,124.5,26.76a951.892,951.892,0,0,0,148.31,13.34q39.01.46,85.95-2.19,51.26-2.89,99.89-8.29,4.76-.52,6.3,3.88a.569.569,0,0,1,.03.18q-.07,4.63-4.62,5.23a1407.225,1407.225,0,0,1-154.27,11.51,997.661,997.661,0,0,1-127.37-5.51.432.432,0,0,0-.16.01q-.42.13.08.21,45.16,6.99,90.01,11.07a1064.22,1064.22,0,0,0,127.48,3.98c6.69-.2,13.57-.98,20.07-1.07q4.21-.06,4.81,3.76c.44,2.87-2.3,5.39-4.81,5.58-4.7.34-9.5,1.04-14.23,1.14-6.65.14-13.27.84-20.1.94q-35.37.53-51.63-.01-54.08-1.79-109.69-8.97c-74.83-9.65-147.5-24.49-222.19-42.77a29.839,29.839,0,0,0-5.66-1.05q-7.42-.37-15.21-.97Z" fill="#346237"/>
    <path id="패스_19772" data-name="패스 19772" d="M1215.82,780.7q7.6,2.06,14.94,3.82c51.63,12.33,102.76,24.4,154.48,34.84q46.21,9.32,91.52,15.11a851.627,851.627,0,0,0,123.77,6.94q18.64-.35,37.23-1.65a110.913,110.913,0,0,0,12.69-1.64,5.364,5.364,0,0,1,4.37,1.86c2.97,4.12-.73,7.59-4.79,8.12q-2.68.35-5.28.64-24.39,2.67-56.45,3.08a774.311,774.311,0,0,1-94.71-4.89.107.107,0,0,0-.14.11l-.01.01a.171.171,0,0,0,.16.21q43.49,7.01,78.42,10.63,38.37,3.97,78.31,8.17,13.88,1.46,29.19,4.3c6.35,1.17,4.93,10.06-1.1,9.2q-22.59-3.24-43.36-5.06-26.31-2.31-52.08-4.87a1337.705,1337.705,0,0,1-138.73-21.17q-121.73-25.17-241.24-59.82Z" fill="#346237"/>
    <path id="패스_19773" data-name="패스 19773" d="M1185.87,799.38a1059.212,1059.212,0,0,0,135.15,49.24,1502.641,1502.641,0,0,0,149.87,35.81,821.624,821.624,0,0,0,95.67,12.1q43.86,2.84,90.3,2.42c3.32-.03,7.54,2.18,6.61,6.17-1.35,5.81-9.39,3.51-13.48,3.55q-35.46.4-62.31-.54c-53.97-1.9-108.06-10.14-162.16-22.06q-52.41-11.55-101.82-25.75a1080.249,1080.249,0,0,1-148.29-54.16Z" fill="#346237"/>
  </g>
</svg>
