<?xml version="1.0" encoding="UTF-8" standalone="no"?>
<!DOCTYPE svg PUBLIC "-//W3C//DTD SVG 1.1//EN" "http://www.w3.org/Graphics/SVG/1.1/DTD/svg11.dtd">
<svg xmlns="http://www.w3.org/2000/svg" version="1.1" viewBox="0.00 0.00 293.00 629.00">
<g stroke-width="2.00" fill="none" stroke-linecap="butt">
<path stroke="#596740" vector-effect="non-scaling-stroke" d="
  M 197.21 595.31
  Q 192.25 582.73 190.82 569.20"
/>
<path stroke="#48894d" vector-effect="non-scaling-stroke" d="
  M 190.82 569.20
  Q 194.70 575.97 195.82 577.71
  Q 198.72 582.21 202.89 579.00
  C 207.45 575.48 207.86 568.98 207.71 563.45
  C 207.55 557.46 208.49 549.73 213.84 545.98
  C 217.33 543.52 218.63 539.69 219.24 535.69
  C 220.36 528.37 220.98 521.74 220.02 514.66
  C 219.04 507.46 220.49 500.68 223.73 493.99
  Q 225.44 490.45 227.10 486.88
  Q 228.59 483.70 227.16 483.71"
/>
<path stroke="#3b713f" vector-effect="non-scaling-stroke" d="
  M 227.16 483.71
  Q 233.68 478.15 226.62 472.53"
/>
<path stroke="#48894d" vector-effect="non-scaling-stroke" d="
  M 226.62 472.53
  Q 228.68 473.00 228.66 472.01
  Q 228.21 456.57 230.10 445.24
  Q 230.99 439.90 232.60 436.79
  C 237.40 427.58 242.02 419.23 241.83 408.77
  Q 241.72 403.13 240.98 397.44
  C 238.61 379.10 246.96 364.19 253.33 347.85
  Q 256.03 340.91 255.09 335.60
  Q 253.83 328.44 251.94 320.18
  C 250.24 312.73 250.89 306.33 253.61 299.26
  Q 258.42 286.82 260.38 272.98
  C 261.46 265.34 260.22 258.28 256.47 251.73
  Q 255.00 249.16 253.48 246.62
  Q 252.17 244.41 250.95 242.38"
/>
<path stroke="#3b713f" vector-effect="non-scaling-stroke" d="
  M 250.95 242.38
  Q 254.59 236.25 249.10 232.48"
/>
<path stroke="#48894d" vector-effect="non-scaling-stroke" d="
  M 249.10 232.48
  Q 250.97 223.86 250.26 214.89"
/>
<path stroke="#3b713f" vector-effect="non-scaling-stroke" d="
  M 250.26 214.89
  Q 253.32 211.77 251.67 207.58
  Q 250.95 205.74 249.08 204.67
  C 247.75 203.91 246.08 204.18 244.52 203.96"
/>
<path stroke="#48894d" vector-effect="non-scaling-stroke" d="
  M 244.52 203.96
  Q 246.14 203.70 245.53 202.53
  C 243.62 198.88 238.04 193.22 233.70 197.24
  Q 226.76 203.67 222.33 212.56
  Q 219.59 218.07 221.24 220.93"
/>
<path stroke="#3b713f" vector-effect="non-scaling-stroke" d="
  M 221.24 220.93
  Q 213.95 220.95 214.02 227.70
  C 214.04 229.99 215.36 231.80 217.26 232.86
  C 218.80 233.71 220.70 233.21 222.45 233.23"
/>
<path stroke="#48894d" vector-effect="non-scaling-stroke" d="
  M 222.45 233.23
  Q 220.33 234.09 220.15 235.23
  Q 218.91 243.27 215.97 251.43"
/>
<path stroke="#3b713f" vector-effect="non-scaling-stroke" d="
  M 215.97 251.43
  Q 208.80 252.10 209.95 259.75
  Q 210.07 260.54 211.82 262.52"
/>
<path stroke="#48894d" vector-effect="non-scaling-stroke" d="
  M 211.82 262.52
  Q 211.40 262.35 211.08 262.51
  Q 210.83 262.64 210.71 263.06
  Q 206.65 277.82 208.34 292.60"
/>
<path stroke="#3b713f" vector-effect="non-scaling-stroke" d="
  M 208.34 292.60
  Q 202.52 292.63 201.50 297.21
  Q 200.75 300.56 202.62 303.00
  Q 204.73 305.75 209.15 305.02"
/>
<path stroke="#48894d" vector-effect="non-scaling-stroke" d="
  M 209.15 305.02
  Q 209.80 314.90 207.68 320.94
  Q 205.03 328.47 202.50 336.03
  Q 201.34 339.49 202.18 341.67"
/>
<path stroke="#3b713f" vector-effect="non-scaling-stroke" d="
  M 202.18 341.67
  Q 197.49 342.55 196.84 347.00
  Q 196.06 352.30 201.43 354.21"
/>
<path stroke="#48894d" vector-effect="non-scaling-stroke" d="
  M 201.43 354.21
  Q 201.96 358.39 203.35 364.49
  Q 205.09 372.10 203.76 380.43"
/>
<path stroke="#3b713f" vector-effect="non-scaling-stroke" d="
  M 203.76 380.43
  Q 198.73 380.37 196.59 384.11
  Q 193.99 388.65 197.56 392.14
  C 199.05 393.61 201.18 393.72 203.18 394.05"
/>
<path stroke="#48894d" vector-effect="non-scaling-stroke" d="
  M 203.18 394.05
  L 201.19 394.38
  Q 199.53 394.65 199.43 396.33
  Q 198.90 405.84 199.34 414.76
  Q 199.54 418.86 200.02 423.68
  Q 200.45 428.07 200.51 432.56"
/>
<path stroke="#3b713f" vector-effect="non-scaling-stroke" d="
  M 200.51 432.56
  C 190.04 428.23 187.25 443.57 196.07 444.25"
/>
<path stroke="#596740" vector-effect="non-scaling-stroke" d="
  M 196.07 444.25
  Q 190.16 457.28 185.78 471.01
  Q 182.93 479.96 180.14 489.01"
/>
<path stroke="#48894d" vector-effect="non-scaling-stroke" d="
  M 180.14 489.01
  C 179.76 485.50 179.63 482.07 178.74 478.73
  Q 177.36 473.49 175.57 468.30"
/>
<path stroke="#3b713f" vector-effect="non-scaling-stroke" d="
  M 175.57 468.30
  Q 179.76 463.17 174.97 458.60"
/>
<path stroke="#48894d" vector-effect="non-scaling-stroke" d="
  M 174.97 458.60
  Q 176.19 457.17 177.21 455.35
  Q 178.30 453.40 179.49 452.14
  Q 182.82 448.63 183.66 443.82
  C 184.07 441.45 185.37 437.31 184.65 435.21
  Q 181.31 425.48 179.36 415.14"
/>
<path stroke="#3b713f" vector-effect="non-scaling-stroke" d="
  M 179.36 415.14
  Q 183.11 409.22 177.31 405.28"
/>
<path stroke="#48894d" vector-effect="non-scaling-stroke" d="
  M 177.31 405.28
  Q 178.39 405.01 178.55 404.00
  Q 179.10 400.64 180.18 398.23
  C 182.57 392.83 183.22 388.03 182.76 381.90
  Q 182.56 379.28 180.65 373.47
  Q 178.69 367.53 177.45 360.88"
/>
<path stroke="#3b713f" vector-effect="non-scaling-stroke" d="
  M 177.45 360.88
  Q 178.86 357.66 177.27 354.28"
/>
<path stroke="#48894d" vector-effect="non-scaling-stroke" d="
  M 177.27 354.28
  Q 178.65 347.40 180.08 340.94
  C 181.84 332.91 180.58 325.20 178.87 317.31
  C 178.11 313.80 176.59 310.64 175.33 307.27
  Q 172.04 298.51 172.85 287.43
  Q 173.41 279.79 174.42 272.06
  Q 174.89 268.41 174.24 265.02
  Q 173.13 259.21 172.21 254.00
  Q 169.60 239.37 171.52 222.44
  C 172.40 214.68 175.58 207.40 175.77 199.63
  C 175.89 194.80 175.65 188.40 171.94 184.94
  C 166.95 180.31 162.85 175.07 163.38 167.86
  Q 163.73 163.22 163.94 158.73
  Q 164.19 153.69 161.99 150.60
  Q 157.76 144.64 155.46 139.46
  C 150.91 129.20 152.49 116.60 154.72 105.16
  C 155.62 100.58 155.37 95.79 154.41 91.16
  C 153.44 86.53 151.27 83.52 147.59 80.87
  C 138.76 74.50 137.30 64.04 136.29 53.73
  Q 136.08 51.61 133.43 51.64"
/>
<path stroke="#3b713f" vector-effect="non-scaling-stroke" d="
  M 133.43 51.64
  Q 140.48 51.54 140.99 46.31
  Q 141.38 42.41 138.71 40.26
  Q 135.77 37.89 130.90 40.29"
/>
<path stroke="#48894d" vector-effect="non-scaling-stroke" d="
  M 130.90 40.29
  Q 132.77 38.94 132.29 37.75
  Q 129.18 30.14 122.09 28.84
  C 116.24 27.76 109.75 30.25 106.63 35.30
  Q 99.95 46.13 101.35 59.73
  Q 101.52 61.45 102.78 62.49
  Q 103.84 63.36 104.76 64.66
  Q 105.85 66.20 105.85 68.58
  Q 105.85 71.00 106.06 73.51
  Q 106.26 75.95 106.13 78.27
  Q 105.90 82.44 105.22 84.23
  Q 99.73 98.73 101.72 114.34
  Q 101.81 115.09 102.42 115.54
  C 104.82 117.32 105.82 118.55 106.07 121.64
  C 106.29 124.38 103.49 126.02 104.29 128.65
  Q 108.51 142.55 109.12 149.12
  Q 110.23 160.84 107.93 168.75
  Q 105.28 177.88 105.05 184.05"
/>
<path stroke="#3b713f" vector-effect="non-scaling-stroke" d="
  M 105.05 184.05
  Q 103.36 187.81 105.00 191.23"
/>
<path stroke="#48894d" vector-effect="non-scaling-stroke" d="
  M 105.00 191.23
  Q 104.79 191.24 104.72 191.25
  A 0.40 0.40 0.0 0 0 104.34 191.69
  C 104.93 198.98 106.17 204.44 108.84 212.19
  Q 111.13 218.87 112.81 226.09"
/>
<path stroke="#3b713f" vector-effect="non-scaling-stroke" d="
  M 112.81 226.09
  Q 110.24 230.79 113.90 234.41"
/>
<path stroke="#48894d" vector-effect="non-scaling-stroke" d="
  M 113.90 234.41
  Q 113.15 238.05 112.26 241.37
  Q 111.13 245.58 111.05 248.35
  C 110.85 254.89 111.69 260.79 114.54 267.18
  C 116.38 271.30 118.20 275.13 119.31 279.59
  Q 119.89 281.94 121.20 283.30"
/>
<path stroke="#3b713f" vector-effect="non-scaling-stroke" d="
  M 121.20 283.30
  Q 115.74 289.18 122.24 294.04"
/>
<path stroke="#48894d" vector-effect="non-scaling-stroke" d="
  M 122.24 294.04
  Q 121.48 298.12 120.56 307.50
  Q 119.41 319.27 123.05 328.68
  Q 125.34 334.60 128.55 339.67"
/>
<path stroke="#3b713f" vector-effect="non-scaling-stroke" d="
  M 128.55 339.67
  Q 123.68 345.39 129.74 349.85"
/>
<path stroke="#48894d" vector-effect="non-scaling-stroke" d="
  M 129.74 349.85
  Q 127.48 358.23 127.80 362.88
  Q 128.75 376.38 135.48 393.27"
/>
<path stroke="#3b713f" vector-effect="non-scaling-stroke" d="
  M 135.48 393.27
  Q 134.90 398.96 139.39 401.09"
/>
<path stroke="#48894d" vector-effect="non-scaling-stroke" d="
  M 139.39 401.09
  Q 142.39 407.72 144.03 414.26
  C 146.21 422.97 144.56 430.34 142.42 438.60
  A 1.48 1.47 -75.4 0 0 143.47 440.40
  L 146.13 441.11"
/>
<path stroke="#3b713f" vector-effect="non-scaling-stroke" d="
  M 146.13 441.11
  L 141.48 441.58
  Q 140.94 441.64 140.50 441.96
  C 137.76 443.90 136.89 446.85 138.27 450.05
  Q 140.72 455.71 147.88 452.48"
/>
<path stroke="#48894d" vector-effect="non-scaling-stroke" d="
  M 147.88 452.48
  Q 146.35 453.95 147.08 455.65
  Q 154.15 472.16 154.63 489.49
  Q 154.66 490.54 155.71 490.31"
/>
<path stroke="#596740" vector-effect="non-scaling-stroke" d="
  M 155.71 490.31
  L 154.84 493.59"
/>
<path stroke="#3b713f" vector-effect="non-scaling-stroke" d="
  M 154.84 493.59
  Q 150.67 489.99 146.78 492.21
  C 140.01 496.07 144.43 506.07 152.14 503.80"
/>
<path stroke="#596740" vector-effect="non-scaling-stroke" d="
  M 152.14 503.80
  Q 148.86 519.66 147.07 535.77
  Q 146.78 538.32 146.39 540.93
  Q 146.31 541.41 146.12 540.96
  L 141.91 530.83"
/>
<path stroke="#48894d" vector-effect="non-scaling-stroke" d="
  M 141.91 530.83
  L 142.38 531.05
  A 0.64 0.63 7.4 0 0 143.27 530.37
  Q 140.45 512.58 137.13 494.08
  Q 136.10 488.29 134.55 484.72
  Q 133.14 481.45 129.28 476.32"
/>
<path stroke="#3b713f" vector-effect="non-scaling-stroke" d="
  M 129.28 476.32
  Q 129.96 472.21 126.71 469.54"
/>
<path stroke="#48894d" vector-effect="non-scaling-stroke" d="
  M 126.71 469.54
  Q 126.96 469.46 127.00 469.45
  A 0.40 0.40 0.0 0 0 127.35 468.96
  Q 124.21 455.98 122.32 442.99
  Q 121.80 439.47 120.07 436.47"
/>
<path stroke="#3b713f" vector-effect="non-scaling-stroke" d="
  M 120.07 436.47
  Q 120.44 431.61 116.44 429.38"
/>
<path stroke="#48894d" vector-effect="non-scaling-stroke" d="
  M 116.44 429.38
  L 116.84 429.13
  A 0.47 0.46 -29.8 0 0 117.01 428.52
  C 114.21 423.10 110.61 418.13 108.29 412.63
  Q 101.61 396.77 100.79 382.51
  Q 99.82 365.60 97.22 355.13
  C 96.92 353.89 96.11 352.02 95.42 350.92
  C 90.64 343.22 86.82 334.79 85.09 325.62
  Q 82.18 310.09 79.18 293.95
  C 78.25 288.96 75.68 285.66 71.56 282.44
  Q 69.46 280.80 68.38 281.06"
/>
<path stroke="#3b713f" vector-effect="non-scaling-stroke" d="
  M 68.38 281.06
  Q 66.94 280.23 66.09 279.16"
/>
<path stroke="#48894d" vector-effect="non-scaling-stroke" d="
  M 66.09 279.16
  Q 64.05 277.49 62.13 275.95
  Q 59.76 274.05 57.86 271.75
  Q 51.64 264.19 46.22 254.00
  C 44.13 250.07 39.00 246.20 34.90 249.77
  Q 30.02 254.01 29.00 257.53
  Q 27.16 263.87 30.14 272.25"
/>
<path stroke="#3b713f" vector-effect="non-scaling-stroke" d="
  M 30.14 272.25
  Q 30.06 272.72 29.53 273.77
  Q 29.13 274.59 29.08 275.32
  Q 28.60 282.54 35.70 283.69"
/>
<path stroke="#48894d" vector-effect="non-scaling-stroke" d="
  M 35.70 283.69
  Q 35.18 283.83 35.05 283.84
  A 0.62 0.60 70.8 0 0 34.61 284.78
  C 38.91 291.53 41.36 296.85 41.45 305.02
  Q 41.58 318.16 43.76 326.43
  Q 48.29 343.62 61.29 367.73
  Q 61.45 368.01 61.74 368.05
  Q 62.14 368.09 62.25 367.70
  Q 62.31 367.46 62.46 367.27"
/>
<path stroke="#3b713f" vector-effect="non-scaling-stroke" d="
  M 62.46 367.27
  C 62.48 368.94 62.08 370.75 62.68 372.20
  Q 63.73 374.69 67.10 375.66"
/>
<path stroke="#48894d" vector-effect="non-scaling-stroke" d="
  M 67.10 375.66
  L 66.27 375.89
  A 0.41 0.40 -20.3 0 0 66.01 376.45
  Q 70.30 385.74 71.45 394.44
  Q 72.18 399.92 72.58 407.63
  Q 73.51 425.57 81.46 440.43
  Q 84.17 445.49 88.03 451.38
  Q 92.31 457.90 95.39 465.33
  Q 95.61 465.88 96.18 465.87
  Q 96.62 465.87 96.76 465.45
  L 96.93 464.95"
/>
<path stroke="#3b713f" vector-effect="non-scaling-stroke" d="
  M 96.93 464.95
  Q 96.91 465.48 97.13 465.80"
/>
<path stroke="#596740" vector-effect="non-scaling-stroke" d="
  M 97.13 465.80
  C 96.37 467.88 94.74 469.62 95.48 472.02
  Q 97.62 478.95 101.33 485.18
  Q 104.01 489.67 105.81 493.45"
/>
<path stroke="#48894d" vector-effect="non-scaling-stroke" d="
  M 105.81 493.45
  Q 105.45 504.68 111.09 513.94
  Q 112.91 516.92 115.24 520.19
  C 117.69 523.61 120.13 527.66 123.56 530.44
  Q 123.98 530.78 124.30 530.34
  Q 124.46 530.11 124.33 529.79"
/>
<path stroke="#596740" vector-effect="non-scaling-stroke" d="
  M 124.33 529.79
  L 132.83 548.11
  Q 133.02 548.53 133.09 548.99
  L 133.20 549.69"
/>
<path stroke="#3b713f" vector-effect="non-scaling-stroke" d="
  M 105.52 68.63
  A 6.28 6.28 0.0 0 0 99.24 62.35
  A 6.28 6.28 0.0 0 0 92.96 68.63
  A 6.28 6.28 0.0 0 0 99.24 74.91
  A 6.28 6.28 0.0 0 0 105.52 68.63"
/>
<path stroke="#3b713f" vector-effect="non-scaling-stroke" d="
  M 105.3577 122.0528
  A 6.96 6.65 3.4 0 0 98.8044 115.0017
  A 6.96 6.65 3.4 0 0 91.4623 121.2272
  A 6.96 6.65 3.4 0 0 98.0156 128.2783
  A 6.96 6.65 3.4 0 0 105.3577 122.0528"
/>
<path stroke="#417c46" vector-effect="non-scaling-stroke" d="
  M 130.90 40.29
  C 126.58 43.84 128.20 50.00 133.43 51.64"
/>
<path stroke="#417c46" vector-effect="non-scaling-stroke" d="
  M 177.27 354.28
  Q 173.20 349.55 168.87 352.10
  C 159.85 357.43 170.57 370.36 177.45 360.88"
/>
<path stroke="#417c46" vector-effect="non-scaling-stroke" d="
  M 177.31 405.28
  C 169.52 401.90 164.31 412.53 171.41 416.58
  Q 175.18 418.72 179.36 415.14"
/>
<path stroke="#417c46" vector-effect="non-scaling-stroke" d="
  M 174.97 458.60
  Q 171.94 456.66 168.88 457.90
  C 159.94 461.53 166.88 474.87 175.57 468.30"
/>
<path stroke="#5f7246" vector-effect="non-scaling-stroke" d="
  M 180.14 489.01
  C 175.58 504.25 172.90 519.77 170.22 535.63"
/>
<path stroke="#48894d" vector-effect="non-scaling-stroke" d="
  M 170.22 535.63
  Q 167.59 533.74 164.96 530.03"
/>
<path stroke="#5f7246" vector-effect="non-scaling-stroke" d="
  M 164.96 530.03
  Q 166.53 507.25 169.72 484.00
  C 169.89 482.73 170.02 481.09 168.94 480.15
  Q 166.04 477.63 162.96 478.58
  Q 160.01 479.49 158.69 482.24
  Q 157.23 485.25 155.71 490.31"
/>
<path stroke="#417c46" vector-effect="non-scaling-stroke" d="
  M 147.88 452.48
  Q 153.60 446.00 146.13 441.11"
/>
<path stroke="#417c46" vector-effect="non-scaling-stroke" d="
  M 139.39 401.09
  Q 144.42 402.43 146.96 398.69
  C 150.72 393.14 145.37 387.08 139.23 389.24
  Q 137.36 389.90 135.48 393.27"
/>
<path stroke="#417c46" vector-effect="non-scaling-stroke" d="
  M 129.74 349.85
  Q 133.34 351.41 136.08 349.74
  C 143.66 345.12 136.21 333.34 128.55 339.67"
/>
<path stroke="#417c46" vector-effect="non-scaling-stroke" d="
  M 122.24 294.04
  Q 127.21 296.34 130.67 293.39
  C 135.01 289.67 133.30 283.64 128.34 281.98
  Q 124.92 280.83 121.20 283.30"
/>
<path stroke="#417c46" vector-effect="non-scaling-stroke" d="
  M 113.90 234.41
  C 120.29 239.51 128.05 231.30 122.81 225.33
  C 120.08 222.21 115.51 222.81 112.81 226.09"
/>
<path stroke="#417c46" vector-effect="non-scaling-stroke" d="
  M 105.00 191.23
  Q 108.54 196.14 113.63 194.39
  C 120.02 192.19 119.57 184.09 113.50 181.83
  Q 109.05 180.18 105.05 184.05"
/>
<path stroke="#417c46" vector-effect="non-scaling-stroke" d="
  M 150.08 93.59
  A 6.36 6.36 0.0 0 0 143.72 87.23
  A 6.36 6.36 0.0 0 0 137.36 93.59
  A 6.36 6.36 0.0 0 0 143.72 99.95
  A 6.36 6.36 0.0 0 0 150.08 93.59"
/>
<path stroke="#417c46" vector-effect="non-scaling-stroke" d="
  M 152.74 147.15
  A 6.37 6.37 0.0 0 0 146.37 140.78
  A 6.37 6.37 0.0 0 0 140.00 147.15
  A 6.37 6.37 0.0 0 0 146.37 153.52
  A 6.37 6.37 0.0 0 0 152.74 147.15"
/>
<path stroke="#417c46" vector-effect="non-scaling-stroke" d="
  M 165.87 195.11
  A 6.37 6.37 0.0 0 0 159.50 188.74
  A 6.37 6.37 0.0 0 0 153.13 195.11
  A 6.37 6.37 0.0 0 0 159.50 201.48
  A 6.37 6.37 0.0 0 0 165.87 195.11"
/>
<path stroke="#417c46" vector-effect="non-scaling-stroke" d="
  M 167.64 245.11
  A 6.38 6.38 0.0 0 0 161.26 238.73
  A 6.38 6.38 0.0 0 0 154.88 245.11
  A 6.38 6.38 0.0 0 0 161.26 251.49
  A 6.38 6.38 0.0 0 0 167.64 245.11"
/>
<path stroke="#417c46" vector-effect="non-scaling-stroke" d="
  M 173.30 308.58
  A 6.36 6.36 0.0 0 0 166.94 302.22
  A 6.36 6.36 0.0 0 0 160.58 308.58
  A 6.36 6.36 0.0 0 0 166.94 314.94
  A 6.36 6.36 0.0 0 0 173.30 308.58"
/>
<path stroke="#417c46" vector-effect="non-scaling-stroke" d="
  M 244.52 203.96
  C 234.64 206.56 240.89 221.62 250.26 214.89"
/>
<path stroke="#417c46" vector-effect="non-scaling-stroke" d="
  M 249.10 232.48
  C 241.90 229.54 236.30 237.74 241.88 242.86
  Q 245.77 246.44 250.95 242.38"
/>
<path stroke="#417c46" vector-effect="non-scaling-stroke" d="
  M 226.62 472.53
  Q 222.69 470.87 219.69 473.44
  C 216.93 475.80 216.86 479.93 219.19 482.64
  Q 222.14 486.07 227.16 483.71"
/>
<path stroke="#5f7246" vector-effect="non-scaling-stroke" d="
  M 190.82 569.20
  Q 188.64 552.92 189.53 535.77
  Q 189.63 533.89 189.56 531.72
  Q 189.48 529.46 189.54 527.66"
/>
<path stroke="#48894d" vector-effect="non-scaling-stroke" d="
  M 189.54 527.66
  Q 193.38 526.08 195.10 520.80
  Q 197.25 514.21 197.02 508.41"
/>
<path stroke="#417c46" vector-effect="non-scaling-stroke" d="
  M 197.02 508.41
  C 201.71 504.73 200.52 499.68 195.81 496.69"
/>
<path stroke="#48894d" vector-effect="non-scaling-stroke" d="
  M 195.81 496.69
  L 194.68 485.20"
/>
<path stroke="#5f7246" vector-effect="non-scaling-stroke" d="
  M 194.68 485.20
  Q 198.59 466.69 205.79 449.21
  Q 207.00 446.27 206.69 444.62
  Q 206.19 441.89 203.22 440.72"
/>
<path stroke="#417c46" vector-effect="non-scaling-stroke" d="
  M 203.22 440.72
  Q 204.43 435.64 200.51 432.56"
/>
<path stroke="#417c46" vector-effect="non-scaling-stroke" d="
  M 203.18 394.05
  C 211.48 392.57 212.75 382.13 203.76 380.43"
/>
<path stroke="#417c46" vector-effect="non-scaling-stroke" d="
  M 201.43 354.21
  C 213.64 357.25 214.60 339.81 202.18 341.67"
/>
<path stroke="#417c46" vector-effect="non-scaling-stroke" d="
  M 209.15 305.02
  C 215.86 302.55 215.41 294.09 208.34 292.60"
/>
<path stroke="#417c46" vector-effect="non-scaling-stroke" d="
  M 211.82 262.52
  C 217.31 267.20 224.63 261.21 221.69 254.78
  Q 220.25 251.63 215.97 251.43"
/>
<path stroke="#417c46" vector-effect="non-scaling-stroke" d="
  M 222.45 233.23
  C 228.64 230.55 227.94 222.39 221.24 220.93"
/>
<path stroke="#417c46" vector-effect="non-scaling-stroke" d="
  M 251.73 276.89
  A 6.40 6.40 0.0 0 0 245.33 270.49
  A 6.40 6.40 0.0 0 0 238.93 276.89
  A 6.40 6.40 0.0 0 0 245.33 283.29
  A 6.40 6.40 0.0 0 0 251.73 276.89"
/>
<path stroke="#417c46" vector-effect="non-scaling-stroke" d="
  M 249.16 326.07
  A 6.37 6.37 0.0 0 0 242.79 319.70
  A 6.37 6.37 0.0 0 0 236.42 326.07
  A 6.37 6.37 0.0 0 0 242.79 332.44
  A 6.37 6.37 0.0 0 0 249.16 326.07"
/>
<path stroke="#417c46" vector-effect="non-scaling-stroke" d="
  M 241.54 367.50
  A 6.35 6.35 0.0 0 0 235.19 361.15
  A 6.35 6.35 0.0 0 0 228.84 367.50
  A 6.35 6.35 0.0 0 0 235.19 373.85
  A 6.35 6.35 0.0 0 0 241.54 367.50"
/>
<path stroke="#417c46" vector-effect="non-scaling-stroke" d="
  M 238.28 418.79
  A 6.38 6.38 0.0 0 0 231.90 412.41
  A 6.38 6.38 0.0 0 0 225.52 418.79
  A 6.38 6.38 0.0 0 0 231.90 425.17
  A 6.38 6.38 0.0 0 0 238.28 418.79"
/>
<path stroke="#417c46" vector-effect="non-scaling-stroke" d="
  M 66.09 279.16
  Q 60.92 278.09 58.69 280.94
  C 54.17 286.74 60.88 294.57 67.01 290.55
  Q 72.41 287.00 68.38 281.06"
/>
<path stroke="#417c46" vector-effect="non-scaling-stroke" d="
  M 116.44 429.38
  C 111.12 427.01 106.13 431.55 107.66 437.03
  C 108.69 440.72 112.79 442.32 116.25 440.95
  Q 118.76 439.96 120.07 436.47"
/>
<path stroke="#417c46" vector-effect="non-scaling-stroke" d="
  M 126.71 469.54
  C 119.43 465.15 112.71 475.13 119.48 480.06
  C 123.14 482.72 127.89 480.73 129.28 476.32"
/>
<path stroke="#5f7246" vector-effect="non-scaling-stroke" d="
  M 141.91 530.83
  C 135.12 515.45 127.85 500.24 118.90 486.34
  Q 113.46 477.90 108.08 470.08"
/>
<path stroke="#417c46" vector-effect="non-scaling-stroke" d="
  M 108.08 470.08
  Q 110.43 467.25 109.35 464.15
  C 107.15 457.84 98.26 458.41 96.93 464.95"
/>
<path stroke="#417c46" vector-effect="non-scaling-stroke" d="
  M 67.10 375.66
  Q 72.07 376.80 74.23 372.49
  C 75.94 369.07 74.28 364.95 70.59 363.69
  Q 65.57 361.96 62.46 367.27"
/>
<path stroke="#417c46" vector-effect="non-scaling-stroke" d="
  M 35.70 283.69
  C 44.45 283.65 44.01 271.59 36.56 269.88
  Q 33.25 269.12 30.14 272.25"
/>
<path stroke="#417c46" vector-effect="non-scaling-stroke" d="
  M 56.92 322.27
  A 6.38 6.38 0.0 0 0 50.54 315.89
  A 6.38 6.38 0.0 0 0 44.16 322.27
  A 6.38 6.38 0.0 0 0 50.54 328.65
  A 6.38 6.38 0.0 0 0 56.92 322.27"
/>
<path stroke="#417c46" vector-effect="non-scaling-stroke" d="
  M 83.58 328.19
  A 6.36 6.36 0.0 0 0 77.22 321.83
  A 6.36 6.36 0.0 0 0 70.86 328.19
  A 6.36 6.36 0.0 0 0 77.22 334.55
  A 6.36 6.36 0.0 0 0 83.58 328.19"
/>
<path stroke="#417c46" vector-effect="non-scaling-stroke" d="
  M 99.68 378.60
  A 6.35 6.35 0.0 0 0 93.33 372.25
  A 6.35 6.35 0.0 0 0 86.98 378.60
  A 6.35 6.35 0.0 0 0 93.33 384.95
  A 6.35 6.35 0.0 0 0 99.68 378.60"
/>
<path stroke="#417c46" vector-effect="non-scaling-stroke" d="
  M 88.85 420.90
  A 6.38 6.38 0.0 0 0 82.47 414.52
  A 6.38 6.38 0.0 0 0 76.09 420.90
  A 6.38 6.38 0.0 0 0 82.47 427.28
  A 6.38 6.38 0.0 0 0 88.85 420.90"
/>
<path stroke="#525939" vector-effect="non-scaling-stroke" d="
  M 203.22 440.72
  Q 198.76 440.90 196.07 444.25"
/>
<path stroke="#596740" vector-effect="non-scaling-stroke" d="
  M 194.68 485.20
  L 192.09 496.25"
/>
<path stroke="#525939" vector-effect="non-scaling-stroke" d="
  M 192.09 496.25
  L 190.70 508.96"
/>
<path stroke="#596740" vector-effect="non-scaling-stroke" d="
  M 190.70 508.96
  L 189.54 527.66"
/>
<path stroke="#8a6247" vector-effect="non-scaling-stroke" d="
  M 194.75 629.00
  Q 180.00 600.20 176.81 568.42
  Q 176.67 567.08 176.48 568.42
  Q 174.54 581.95 174.06 596.25
  Q 173.80 603.78 174.03 607.40
  Q 174.43 613.72 175.89 617.19
  Q 178.33 623.02 180.86 629.00"
/>
<path stroke="#5f7246" vector-effect="non-scaling-stroke" d="
  M 124.33 529.79
  L 105.81 493.45"
/>
<path stroke="#525939" vector-effect="non-scaling-stroke" d="
  M 97.13 465.80
  Q 97.41 465.92 97.70 465.96
  Q 97.95 465.99 98.27 465.84
  C 101.46 464.33 105.78 467.70 108.08 470.08"
/>
<path stroke="#525939" vector-effect="non-scaling-stroke" d="
  M 152.14 503.80
  L 154.84 493.59"
/>
<path stroke="#596740" vector-effect="non-scaling-stroke" d="
  M 164.96 530.03
  Q 164.64 542.44 165.12 554.25
  Q 165.17 555.45 166.11 555.30
  A 0.61 0.60 0.6 0 0 166.61 554.82
  L 170.22 535.63"
/>
<path stroke="#3b713f" vector-effect="non-scaling-stroke" d="
  M 195.81 496.69
  Q 193.25 496.83 192.09 496.25"
/>
<path stroke="#3b713f" vector-effect="non-scaling-stroke" d="
  M 197.02 508.41
  Q 194.18 509.77 190.70 508.96"
/>
</g>
<path fill="#427e46" d="
  M 197.21 595.31
  Q 192.25 582.73 190.82 569.20
  Q 194.70 575.97 195.82 577.71
  Q 198.72 582.21 202.89 579.00
  C 207.45 575.48 207.86 568.98 207.71 563.45
  C 207.55 557.46 208.49 549.73 213.84 545.98
  C 217.33 543.52 218.63 539.69 219.24 535.69
  C 220.36 528.37 220.98 521.74 220.02 514.66
  C 219.04 507.46 220.49 500.68 223.73 493.99
  Q 225.44 490.45 227.10 486.88
  Q 228.59 483.70 227.16 483.71
  Q 233.68 478.15 226.62 472.53
  Q 228.68 473.00 228.66 472.01
  Q 228.21 456.57 230.10 445.24
  Q 230.99 439.90 232.60 436.79
  C 237.40 427.58 242.02 419.23 241.83 408.77
  Q 241.72 403.13 240.98 397.44
  C 238.61 379.10 246.96 364.19 253.33 347.85
  Q 256.03 340.91 255.09 335.60
  Q 253.83 328.44 251.94 320.18
  C 250.24 312.73 250.89 306.33 253.61 299.26
  Q 258.42 286.82 260.38 272.98
  C 261.46 265.34 260.22 258.28 256.47 251.73
  Q 255.00 249.16 253.48 246.62
  Q 252.17 244.41 250.95 242.38
  Q 254.59 236.25 249.10 232.48
  Q 250.97 223.86 250.26 214.89
  Q 253.32 211.77 251.67 207.58
  Q 250.95 205.74 249.08 204.67
  C 247.75 203.91 246.08 204.18 244.52 203.96
  Q 246.14 203.70 245.53 202.53
  C 243.62 198.88 238.04 193.22 233.70 197.24
  Q 226.76 203.67 222.33 212.56
  Q 219.59 218.07 221.24 220.93
  Q 213.95 220.95 214.02 227.70
  C 214.04 229.99 215.36 231.80 217.26 232.86
  C 218.80 233.71 220.70 233.21 222.45 233.23
  Q 220.33 234.09 220.15 235.23
  Q 218.91 243.27 215.97 251.43
  Q 208.80 252.10 209.95 259.75
  Q 210.07 260.54 211.82 262.52
  Q 211.40 262.35 211.08 262.51
  Q 210.83 262.64 210.71 263.06
  Q 206.65 277.82 208.34 292.60
  Q 202.52 292.63 201.50 297.21
  Q 200.75 300.56 202.62 303.00
  Q 204.73 305.75 209.15 305.02
  Q 209.80 314.90 207.68 320.94
  Q 205.03 328.47 202.50 336.03
  Q 201.34 339.49 202.18 341.67
  Q 197.49 342.55 196.84 347.00
  Q 196.06 352.30 201.43 354.21
  Q 201.96 358.39 203.35 364.49
  Q 205.09 372.10 203.76 380.43
  Q 198.73 380.37 196.59 384.11
  Q 193.99 388.65 197.56 392.14
  C 199.05 393.61 201.18 393.72 203.18 394.05
  L 201.19 394.38
  Q 199.53 394.65 199.43 396.33
  Q 198.90 405.84 199.34 414.76
  Q 199.54 418.86 200.02 423.68
  Q 200.45 428.07 200.51 432.56
  C 190.04 428.23 187.25 443.57 196.07 444.25
  Q 190.16 457.28 185.78 471.01
  Q 182.93 479.96 180.14 489.01
  C 179.76 485.50 179.63 482.07 178.74 478.73
  Q 177.36 473.49 175.57 468.30
  Q 179.76 463.17 174.97 458.60
  Q 176.19 457.17 177.21 455.35
  Q 178.30 453.40 179.49 452.14
  Q 182.82 448.63 183.66 443.82
  C 184.07 441.45 185.37 437.31 184.65 435.21
  Q 181.31 425.48 179.36 415.14
  Q 183.11 409.22 177.31 405.28
  Q 178.39 405.01 178.55 404.00
  Q 179.10 400.64 180.18 398.23
  C 182.57 392.83 183.22 388.03 182.76 381.90
  Q 182.56 379.28 180.65 373.47
  Q 178.69 367.53 177.45 360.88
  Q 178.86 357.66 177.27 354.28
  Q 178.65 347.40 180.08 340.94
  C 181.84 332.91 180.58 325.20 178.87 317.31
  C 178.11 313.80 176.59 310.64 175.33 307.27
  Q 172.04 298.51 172.85 287.43
  Q 173.41 279.79 174.42 272.06
  Q 174.89 268.41 174.24 265.02
  Q 173.13 259.21 172.21 254.00
  Q 169.60 239.37 171.52 222.44
  C 172.40 214.68 175.58 207.40 175.77 199.63
  C 175.89 194.80 175.65 188.40 171.94 184.94
  C 166.95 180.31 162.85 175.07 163.38 167.86
  Q 163.73 163.22 163.94 158.73
  Q 164.19 153.69 161.99 150.60
  Q 157.76 144.64 155.46 139.46
  C 150.91 129.20 152.49 116.60 154.72 105.16
  C 155.62 100.58 155.37 95.79 154.41 91.16
  C 153.44 86.53 151.27 83.52 147.59 80.87
  C 138.76 74.50 137.30 64.04 136.29 53.73
  Q 136.08 51.61 133.43 51.64
  Q 140.48 51.54 140.99 46.31
  Q 141.38 42.41 138.71 40.26
  Q 135.77 37.89 130.90 40.29
  Q 132.77 38.94 132.29 37.75
  Q 129.18 30.14 122.09 28.84
  C 116.24 27.76 109.75 30.25 106.63 35.30
  Q 99.95 46.13 101.35 59.73
  Q 101.52 61.45 102.78 62.49
  Q 103.84 63.36 104.76 64.66
  Q 105.85 66.20 105.85 68.58
  Q 105.85 71.00 106.06 73.51
  Q 106.26 75.95 106.13 78.27
  Q 105.90 82.44 105.22 84.23
  Q 99.73 98.73 101.72 114.34
  Q 101.81 115.09 102.42 115.54
  C 104.82 117.32 105.82 118.55 106.07 121.64
  C 106.29 124.38 103.49 126.02 104.29 128.65
  Q 108.51 142.55 109.12 149.12
  Q 110.23 160.84 107.93 168.75
  Q 105.28 177.88 105.05 184.05
  Q 103.36 187.81 105.00 191.23
  Q 104.79 191.24 104.72 191.25
  A 0.40 0.40 0.0 0 0 104.34 191.69
  C 104.93 198.98 106.17 204.44 108.84 212.19
  Q 111.13 218.87 112.81 226.09
  Q 110.24 230.79 113.90 234.41
  Q 113.15 238.05 112.26 241.37
  Q 111.13 245.58 111.05 248.35
  C 110.85 254.89 111.69 260.79 114.54 267.18
  C 116.38 271.30 118.20 275.13 119.31 279.59
  Q 119.89 281.94 121.20 283.30
  Q 115.74 289.18 122.24 294.04
  Q 121.48 298.12 120.56 307.50
  Q 119.41 319.27 123.05 328.68
  Q 125.34 334.60 128.55 339.67
  Q 123.68 345.39 129.74 349.85
  Q 127.48 358.23 127.80 362.88
  Q 128.75 376.38 135.48 393.27
  Q 134.90 398.96 139.39 401.09
  Q 142.39 407.72 144.03 414.26
  C 146.21 422.97 144.56 430.34 142.42 438.60
  A 1.48 1.47 -75.4 0 0 143.47 440.40
  L 146.13 441.11
  L 141.48 441.58
  Q 140.94 441.64 140.50 441.96
  C 137.76 443.90 136.89 446.85 138.27 450.05
  Q 140.72 455.71 147.88 452.48
  Q 146.35 453.95 147.08 455.65
  Q 154.15 472.16 154.63 489.49
  Q 154.66 490.54 155.71 490.31
  L 154.84 493.59
  Q 150.67 489.99 146.78 492.21
  C 140.01 496.07 144.43 506.07 152.14 503.80
  Q 148.86 519.66 147.07 535.77
  Q 146.78 538.32 146.39 540.93
  Q 146.31 541.41 146.12 540.96
  L 141.91 530.83
  L 142.38 531.05
  A 0.64 0.63 7.4 0 0 143.27 530.37
  Q 140.45 512.58 137.13 494.08
  Q 136.10 488.29 134.55 484.72
  Q 133.14 481.45 129.28 476.32
  Q 129.96 472.21 126.71 469.54
  Q 126.96 469.46 127.00 469.45
  A 0.40 0.40 0.0 0 0 127.35 468.96
  Q 124.21 455.98 122.32 442.99
  Q 121.80 439.47 120.07 436.47
  Q 120.44 431.61 116.44 429.38
  L 116.84 429.13
  A 0.47 0.46 -29.8 0 0 117.01 428.52
  C 114.21 423.10 110.61 418.13 108.29 412.63
  Q 101.61 396.77 100.79 382.51
  Q 99.82 365.60 97.22 355.13
  C 96.92 353.89 96.11 352.02 95.42 350.92
  C 90.64 343.22 86.82 334.79 85.09 325.62
  Q 82.18 310.09 79.18 293.95
  C 78.25 288.96 75.68 285.66 71.56 282.44
  Q 69.46 280.80 68.38 281.06
  Q 66.94 280.23 66.09 279.16
  Q 64.05 277.49 62.13 275.95
  Q 59.76 274.05 57.86 271.75
  Q 51.64 264.19 46.22 254.00
  C 44.13 250.07 39.00 246.20 34.90 249.77
  Q 30.02 254.01 29.00 257.53
  Q 27.16 263.87 30.14 272.25
  Q 30.06 272.72 29.53 273.77
  Q 29.13 274.59 29.08 275.32
  Q 28.60 282.54 35.70 283.69
  Q 35.18 283.83 35.05 283.84
  A 0.62 0.60 70.8 0 0 34.61 284.78
  C 38.91 291.53 41.36 296.85 41.45 305.02
  Q 41.58 318.16 43.76 326.43
  Q 48.29 343.62 61.29 367.73
  Q 61.45 368.01 61.74 368.05
  Q 62.14 368.09 62.25 367.70
  Q 62.31 367.46 62.46 367.27
  C 62.48 368.94 62.08 370.75 62.68 372.20
  Q 63.73 374.69 67.10 375.66
  L 66.27 375.89
  A 0.41 0.40 -20.3 0 0 66.01 376.45
  Q 70.30 385.74 71.45 394.44
  Q 72.18 399.92 72.58 407.63
  Q 73.51 425.57 81.46 440.43
  Q 84.17 445.49 88.03 451.38
  Q 92.31 457.90 95.39 465.33
  Q 95.61 465.88 96.18 465.87
  Q 96.62 465.87 96.76 465.45
  L 96.93 464.95
  Q 96.91 465.48 97.13 465.80
  C 96.37 467.88 94.74 469.62 95.48 472.02
  Q 97.62 478.95 101.33 485.18
  Q 104.01 489.67 105.81 493.45
  Q 105.45 504.68 111.09 513.94
  Q 112.91 516.92 115.24 520.19
  C 117.69 523.61 120.13 527.66 123.56 530.44
  Q 123.98 530.78 124.30 530.34
  Q 124.46 530.11 124.33 529.79
  L 132.83 548.11
  Q 133.02 548.53 133.09 548.99
  L 133.20 549.69
  C 125.54 550.18 116.34 543.12 111.20 537.57
  Q 104.56 530.42 97.96 519.51
  Q 93.05 511.39 91.90 503.09
  Q 90.29 491.52 86.89 482.87
  Q 81.04 467.97 73.56 456.43
  Q 68.65 448.86 65.70 442.43
  C 60.95 432.09 57.62 418.55 57.46 406.43
  Q 57.33 396.14 54.61 388.34
  Q 52.89 383.38 48.35 375.19
  Q 38.39 357.19 32.39 340.36
  Q 25.99 322.41 26.50 304.56
  C 26.58 301.64 25.41 298.42 23.83 295.92
  C 16.55 284.40 12.21 270.12 13.99 256.81
  C 14.91 249.98 18.58 244.62 23.54 239.80
  C 29.01 234.49 35.39 232.15 43.05 233.90
  C 57.81 237.29 59.82 250.83 68.63 261.32
  C 71.97 265.31 76.08 267.40 80.16 270.24
  Q 91.59 278.17 94.12 291.99
  Q 97.17 308.62 100.20 325.01
  C 101.14 330.10 104.61 336.90 107.81 342.39
  Q 111.94 349.46 113.05 357.85
  Q 113.07 357.99 113.09 357.85
  Q 113.50 354.78 114.01 351.26
  C 114.84 345.54 111.77 340.11 109.54 335.09
  C 104.68 324.15 104.59 313.07 106.25 300.69
  Q 107.74 289.58 103.43 279.09
  C 101.66 274.78 99.44 270.67 98.19 266.14
  Q 95.30 255.73 96.10 245.02
  C 96.41 240.86 98.73 237.05 98.26 232.58
  C 97.42 224.71 95.12 218.45 92.80 211.34
  Q 87.92 196.42 90.08 180.06
  Q 90.93 173.65 93.55 164.02
  C 97.61 149.07 88.50 133.76 86.96 118.72
  Q 86.06 109.86 86.52 100.12
  C 86.84 93.13 88.35 87.55 90.47 81.20
  C 91.44 78.32 91.32 75.43 89.98 72.70
  C 83.00 58.48 85.73 41.71 93.37 28.25
  Q 95.76 24.05 98.77 21.52
  Q 113.30 9.32 130.52 15.81
  C 142.59 20.36 148.51 34.09 150.24 46.01
  Q 151.36 53.75 152.46 61.43
  C 152.98 65.05 155.14 67.95 158.01 70.13
  C 169.24 78.63 171.98 94.40 169.52 107.26
  C 167.54 117.63 165.17 129.15 171.81 138.43
  C 173.75 141.14 175.77 143.95 176.96 147.07
  Q 180.33 155.98 178.43 165.63
  C 178.02 167.70 178.12 169.83 179.71 171.46
  C 184.13 175.96 187.80 179.84 189.34 186.16
  Q 192.17 197.73 189.55 209.79
  C 188.16 216.20 186.25 222.29 186.02 229.19
  Q 185.73 238.16 186.34 246.89
  Q 186.68 251.81 188.82 260.93
  C 190.02 266.09 189.41 273.76 188.68 279.29
  C 187.52 288.04 186.82 296.62 190.46 304.91
  Q 192.00 308.42 192.99 311.90
  Q 194.53 317.34 194.17 311.69
  Q 193.60 302.74 193.03 293.85
  Q 192.06 278.71 195.03 264.10
  Q 196.79 255.39 201.11 246.86
  C 203.49 242.17 205.13 237.19 205.11 231.91
  Q 205.09 227.50 205.06 223.05
  Q 204.99 213.02 209.84 204.12
  Q 216.14 192.55 224.95 185.11
  C 233.06 178.26 243.86 179.77 251.52 186.64
  Q 259.96 194.20 263.86 206.22
  C 266.53 214.47 265.41 222.86 264.73 231.26
  C 264.19 238.03 268.17 241.36 270.88 246.80
  Q 277.38 259.80 275.10 275.89
  C 273.58 286.64 270.62 296.78 266.88 306.81
  Q 265.43 310.71 266.47 316.22
  Q 267.65 322.49 269.12 328.65
  C 271.16 337.21 270.50 344.84 267.47 352.84
  C 263.85 362.41 259.09 371.82 256.64 381.46
  C 255.48 386.02 255.24 390.13 255.77 395.16
  Q 256.10 398.29 256.56 403.51
  Q 257.96 419.27 251.18 433.19
  C 248.54 438.60 245.00 443.89 244.43 449.99
  Q 242.93 466.20 243.73 479.61
  C 244.17 486.93 239.92 495.26 236.46 502.11
  C 234.70 505.60 234.59 509.93 234.99 513.84
  Q 236.49 528.20 232.83 543.19
  Q 230.86 551.28 223.84 557.28
  A 1.83 1.78 -11.1 0 0 223.32 558.03
  Q 222.52 560.27 222.57 562.62
  C 222.81 574.84 220.72 585.21 209.93 592.40
  Q 204.12 596.28 197.21 595.31
  Z
  M 105.52 68.63
  A 6.28 6.28 0.0 0 0 99.24 62.35
  A 6.28 6.28 0.0 0 0 92.96 68.63
  A 6.28 6.28 0.0 0 0 99.24 74.91
  A 6.28 6.28 0.0 0 0 105.52 68.63
  Z
  M 105.3577 122.0528
  A 6.96 6.65 3.4 0 0 98.8044 115.0017
  A 6.96 6.65 3.4 0 0 91.4623 121.2272
  A 6.96 6.65 3.4 0 0 98.0156 128.2783
  A 6.96 6.65 3.4 0 0 105.3577 122.0528
  Z
  M 115.71 380.33
  Q 115.58 380.35 115.59 380.48
  Q 116.54 393.12 121.41 405.19
  C 123.65 410.76 127.13 415.61 129.93 420.83
  Q 130.28 421.50 130.13 420.76
  C 129.20 416.10 127.72 411.12 125.43 407.00
  C 120.81 398.69 117.69 389.76 115.87 380.43
  Q 115.84 380.31 115.72 380.32
  L 115.71 380.33
  Z"
/>
<path fill="#4e9453" d="
  M 130.90 40.29
  C 126.58 43.84 128.20 50.00 133.43 51.64
  Q 136.08 51.61 136.29 53.73
  C 137.30 64.04 138.76 74.50 147.59 80.87
  C 151.27 83.52 153.44 86.53 154.41 91.16
  C 155.37 95.79 155.62 100.58 154.72 105.16
  C 152.49 116.60 150.91 129.20 155.46 139.46
  Q 157.76 144.64 161.99 150.60
  Q 164.19 153.69 163.94 158.73
  Q 163.73 163.22 163.38 167.86
  C 162.85 175.07 166.95 180.31 171.94 184.94
  C 175.65 188.40 175.89 194.80 175.77 199.63
  C 175.58 207.40 172.40 214.68 171.52 222.44
  Q 169.60 239.37 172.21 254.00
  Q 173.13 259.21 174.24 265.02
  Q 174.89 268.41 174.42 272.06
  Q 173.41 279.79 172.85 287.43
  Q 172.04 298.51 175.33 307.27
  C 176.59 310.64 178.11 313.80 178.87 317.31
  C 180.58 325.20 181.84 332.91 180.08 340.94
  Q 178.65 347.40 177.27 354.28
  Q 173.20 349.55 168.87 352.10
  C 159.85 357.43 170.57 370.36 177.45 360.88
  Q 178.69 367.53 180.65 373.47
  Q 182.56 379.28 182.76 381.90
  C 183.22 388.03 182.57 392.83 180.18 398.23
  Q 179.10 400.64 178.55 404.00
  Q 178.39 405.01 177.31 405.28
  C 169.52 401.90 164.31 412.53 171.41 416.58
  Q 175.18 418.72 179.36 415.14
  Q 181.31 425.48 184.65 435.21
  C 185.37 437.31 184.07 441.45 183.66 443.82
  Q 182.82 448.63 179.49 452.14
  Q 178.30 453.40 177.21 455.35
  Q 176.19 457.17 174.97 458.60
  Q 171.94 456.66 168.88 457.90
  C 159.94 461.53 166.88 474.87 175.57 468.30
  Q 177.36 473.49 178.74 478.73
  C 179.63 482.07 179.76 485.50 180.14 489.01
  C 175.58 504.25 172.90 519.77 170.22 535.63
  Q 167.59 533.74 164.96 530.03
  Q 166.53 507.25 169.72 484.00
  C 169.89 482.73 170.02 481.09 168.94 480.15
  Q 166.04 477.63 162.96 478.58
  Q 160.01 479.49 158.69 482.24
  Q 157.23 485.25 155.71 490.31
  Q 154.66 490.54 154.63 489.49
  Q 154.15 472.16 147.08 455.65
  Q 146.35 453.95 147.88 452.48
  Q 153.60 446.00 146.13 441.11
  L 143.47 440.40
  A 1.48 1.47 -75.4 0 1 142.42 438.60
  C 144.56 430.34 146.21 422.97 144.03 414.26
  Q 142.39 407.72 139.39 401.09
  Q 144.42 402.43 146.96 398.69
  C 150.72 393.14 145.37 387.08 139.23 389.24
  Q 137.36 389.90 135.48 393.27
  Q 128.75 376.38 127.80 362.88
  Q 127.48 358.23 129.74 349.85
  Q 133.34 351.41 136.08 349.74
  C 143.66 345.12 136.21 333.34 128.55 339.67
  Q 125.34 334.60 123.05 328.68
  Q 119.41 319.27 120.56 307.50
  Q 121.48 298.12 122.24 294.04
  Q 127.21 296.34 130.67 293.39
  C 135.01 289.67 133.30 283.64 128.34 281.98
  Q 124.92 280.83 121.20 283.30
  Q 119.89 281.94 119.31 279.59
  C 118.20 275.13 116.38 271.30 114.54 267.18
  C 111.69 260.79 110.85 254.89 111.05 248.35
  Q 111.13 245.58 112.26 241.37
  Q 113.15 238.05 113.90 234.41
  C 120.29 239.51 128.05 231.30 122.81 225.33
  C 120.08 222.21 115.51 222.81 112.81 226.09
  Q 111.13 218.87 108.84 212.19
  C 106.17 204.44 104.93 198.98 104.34 191.69
  A 0.40 0.40 0.0 0 1 104.72 191.25
  Q 104.79 191.24 105.00 191.23
  Q 108.54 196.14 113.63 194.39
  C 120.02 192.19 119.57 184.09 113.50 181.83
  Q 109.05 180.18 105.05 184.05
  Q 105.28 177.88 107.93 168.75
  Q 110.23 160.84 109.12 149.12
  Q 108.51 142.55 104.29 128.65
  C 103.49 126.02 106.29 124.38 106.07 121.64
  C 105.82 118.55 104.82 117.32 102.42 115.54
  Q 101.81 115.09 101.72 114.34
  Q 99.73 98.73 105.22 84.23
  Q 105.90 82.44 106.13 78.27
  Q 106.26 75.95 106.06 73.51
  Q 105.85 71.00 105.85 68.58
  Q 105.85 66.20 104.76 64.66
  Q 103.84 63.36 102.78 62.49
  Q 101.52 61.45 101.35 59.73
  Q 99.95 46.13 106.63 35.30
  C 109.75 30.25 116.24 27.76 122.09 28.84
  Q 129.18 30.14 132.29 37.75
  Q 132.77 38.94 130.90 40.29
  Z
  M 150.08 93.59
  A 6.36 6.36 0.0 0 0 143.72 87.23
  A 6.36 6.36 0.0 0 0 137.36 93.59
  A 6.36 6.36 0.0 0 0 143.72 99.95
  A 6.36 6.36 0.0 0 0 150.08 93.59
  Z
  M 152.74 147.15
  A 6.37 6.37 0.0 0 0 146.37 140.78
  A 6.37 6.37 0.0 0 0 140.00 147.15
  A 6.37 6.37 0.0 0 0 146.37 153.52
  A 6.37 6.37 0.0 0 0 152.74 147.15
  Z
  M 165.87 195.11
  A 6.37 6.37 0.0 0 0 159.50 188.74
  A 6.37 6.37 0.0 0 0 153.13 195.11
  A 6.37 6.37 0.0 0 0 159.50 201.48
  A 6.37 6.37 0.0 0 0 165.87 195.11
  Z
  M 167.64 245.11
  A 6.38 6.38 0.0 0 0 161.26 238.73
  A 6.38 6.38 0.0 0 0 154.88 245.11
  A 6.38 6.38 0.0 0 0 161.26 251.49
  A 6.38 6.38 0.0 0 0 167.64 245.11
  Z
  M 173.30 308.58
  A 6.36 6.36 0.0 0 0 166.94 302.22
  A 6.36 6.36 0.0 0 0 160.58 308.58
  A 6.36 6.36 0.0 0 0 166.94 314.94
  A 6.36 6.36 0.0 0 0 173.30 308.58
  Z"
/>
<path fill="#346338" d="
  M 133.43 51.64
  C 128.20 50.00 126.58 43.84 130.90 40.29
  Q 135.77 37.89 138.71 40.26
  Q 141.38 42.41 140.99 46.31
  Q 140.48 51.54 133.43 51.64
  Z"
/>
<circle fill="#346338" cx="99.24" cy="68.63" r="6.28"/>
<circle fill="#346338" cx="143.72" cy="93.59" r="6.36"/>
<ellipse fill="#346338" cx="0.00" cy="0.00" transform="translate(98.41,121.64) rotate(3.4)" rx="6.96" ry="6.65"/>
<circle fill="#346338" cx="146.37" cy="147.15" r="6.37"/>
<path fill="#346338" d="
  M 105.00 191.23
  Q 103.36 187.81 105.05 184.05
  Q 109.05 180.18 113.50 181.83
  C 119.57 184.09 120.02 192.19 113.63 194.39
  Q 108.54 196.14 105.00 191.23
  Z"
/>
<circle fill="#346338" cx="159.50" cy="195.11" r="6.37"/>
<path fill="#4e9453" d="
  M 244.52 203.96
  C 234.64 206.56 240.89 221.62 250.26 214.89
  Q 250.97 223.86 249.10 232.48
  C 241.90 229.54 236.30 237.74 241.88 242.86
  Q 245.77 246.44 250.95 242.38
  Q 252.17 244.41 253.48 246.62
  Q 255.00 249.16 256.47 251.73
  C 260.22 258.28 261.46 265.34 260.38 272.98
  Q 258.42 286.82 253.61 299.26
  C 250.89 306.33 250.24 312.73 251.94 320.18
  Q 253.83 328.44 255.09 335.60
  Q 256.03 340.91 253.33 347.85
  C 246.96 364.19 238.61 379.10 240.98 397.44
  Q 241.72 403.13 241.83 408.77
  C 242.02 419.23 237.40 427.58 232.60 436.79
  Q 230.99 439.90 230.10 445.24
  Q 228.21 456.57 228.66 472.01
  Q 228.68 473.00 226.62 472.53
  Q 222.69 470.87 219.69 473.44
  C 216.93 475.80 216.86 479.93 219.19 482.64
  Q 222.14 486.07 227.16 483.71
  Q 228.59 483.70 227.10 486.88
  Q 225.44 490.45 223.73 493.99
  C 220.49 500.68 219.04 507.46 220.02 514.66
  C 220.98 521.74 220.36 528.37 219.24 535.69
  C 218.63 539.69 217.33 543.52 213.84 545.98
  C 208.49 549.73 207.55 557.46 207.71 563.45
  C 207.86 568.98 207.45 575.48 202.89 579.00
  Q 198.72 582.21 195.82 577.71
  Q 194.70 575.97 190.82 569.20
  Q 188.64 552.92 189.53 535.77
  Q 189.63 533.89 189.56 531.72
  Q 189.48 529.46 189.54 527.66
  Q 193.38 526.08 195.10 520.80
  Q 197.25 514.21 197.02 508.41
  C 201.71 504.73 200.52 499.68 195.81 496.69
  L 194.68 485.20
  Q 198.59 466.69 205.79 449.21
  Q 207.00 446.27 206.69 444.62
  Q 206.19 441.89 203.22 440.72
  Q 204.43 435.64 200.51 432.56
  Q 200.45 428.07 200.02 423.68
  Q 199.54 418.86 199.34 414.76
  Q 198.90 405.84 199.43 396.33
  Q 199.53 394.65 201.19 394.38
  L 203.18 394.05
  C 211.48 392.57 212.75 382.13 203.76 380.43
  Q 205.09 372.10 203.35 364.49
  Q 201.96 358.39 201.43 354.21
  C 213.64 357.25 214.60 339.81 202.18 341.67
  Q 201.34 339.49 202.50 336.03
  Q 205.03 328.47 207.68 320.94
  Q 209.80 314.90 209.15 305.02
  C 215.86 302.55 215.41 294.09 208.34 292.60
  Q 206.65 277.82 210.71 263.06
  Q 210.83 262.64 211.08 262.51
  Q 211.40 262.35 211.82 262.52
  C 217.31 267.20 224.63 261.21 221.69 254.78
  Q 220.25 251.63 215.97 251.43
  Q 218.91 243.27 220.15 235.23
  Q 220.33 234.09 222.45 233.23
  C 228.64 230.55 227.94 222.39 221.24 220.93
  Q 219.59 218.07 222.33 212.56
  Q 226.76 203.67 233.70 197.24
  C 238.04 193.22 243.62 198.88 245.53 202.53
  Q 246.14 203.70 244.52 203.96
  Z
  M 251.73 276.89
  A 6.40 6.40 0.0 0 0 245.33 270.49
  A 6.40 6.40 0.0 0 0 238.93 276.89
  A 6.40 6.40 0.0 0 0 245.33 283.29
  A 6.40 6.40 0.0 0 0 251.73 276.89
  Z
  M 249.16 326.07
  A 6.37 6.37 0.0 0 0 242.79 319.70
  A 6.37 6.37 0.0 0 0 236.42 326.07
  A 6.37 6.37 0.0 0 0 242.79 332.44
  A 6.37 6.37 0.0 0 0 249.16 326.07
  Z
  M 241.54 367.50
  A 6.35 6.35 0.0 0 0 235.19 361.15
  A 6.35 6.35 0.0 0 0 228.84 367.50
  A 6.35 6.35 0.0 0 0 235.19 373.85
  A 6.35 6.35 0.0 0 0 241.54 367.50
  Z
  M 238.28 418.79
  A 6.38 6.38 0.0 0 0 231.90 412.41
  A 6.38 6.38 0.0 0 0 225.52 418.79
  A 6.38 6.38 0.0 0 0 231.90 425.17
  A 6.38 6.38 0.0 0 0 238.28 418.79
  Z"
/>
<path fill="#346338" d="
  M 244.52 203.96
  C 246.08 204.18 247.75 203.91 249.08 204.67
  Q 250.95 205.74 251.67 207.58
  Q 253.32 211.77 250.26 214.89
  C 240.89 221.62 234.64 206.56 244.52 203.96
  Z"
/>
<path fill="#346338" d="
  M 221.24 220.93
  C 227.94 222.39 228.64 230.55 222.45 233.23
  C 220.70 233.21 218.80 233.71 217.26 232.86
  C 215.36 231.80 214.04 229.99 214.02 227.70
  Q 213.95 220.95 221.24 220.93
  Z"
/>
<path fill="#346338" d="
  M 113.90 234.41
  Q 110.24 230.79 112.81 226.09
  C 115.51 222.81 120.08 222.21 122.81 225.33
  C 128.05 231.30 120.29 239.51 113.90 234.41
  Z"
/>
<path fill="#346338" d="
  M 249.10 232.48
  Q 254.59 236.25 250.95 242.38
  Q 245.77 246.44 241.88 242.86
  C 236.30 237.74 241.90 229.54 249.10 232.48
  Z"
/>
<circle fill="#346338" cx="161.26" cy="245.11" r="6.38"/>
<path fill="#4e9453" d="
  M 66.09 279.16
  Q 60.92 278.09 58.69 280.94
  C 54.17 286.74 60.88 294.57 67.01 290.55
  Q 72.41 287.00 68.38 281.06
  Q 69.46 280.80 71.56 282.44
  C 75.68 285.66 78.25 288.96 79.18 293.95
  Q 82.18 310.09 85.09 325.62
  C 86.82 334.79 90.64 343.22 95.42 350.92
  C 96.11 352.02 96.92 353.89 97.22 355.13
  Q 99.82 365.60 100.79 382.51
  Q 101.61 396.77 108.29 412.63
  C 110.61 418.13 114.21 423.10 117.01 428.52
  A 0.47 0.46 -29.8 0 1 116.84 429.13
  L 116.44 429.38
  C 111.12 427.01 106.13 431.55 107.66 437.03
  C 108.69 440.72 112.79 442.32 116.25 440.95
  Q 118.76 439.96 120.07 436.47
  Q 121.80 439.47 122.32 442.99
  Q 124.21 455.98 127.35 468.96
  A 0.40 0.40 0.0 0 1 127.00 469.45
  Q 126.96 469.46 126.71 469.54
  C 119.43 465.15 112.71 475.13 119.48 480.06
  C 123.14 482.72 127.89 480.73 129.28 476.32
  Q 133.14 481.45 134.55 484.72
  Q 136.10 488.29 137.13 494.08
  Q 140.45 512.58 143.27 530.37
  A 0.64 0.63 7.4 0 1 142.38 531.05
  L 141.91 530.83
  C 135.12 515.45 127.85 500.24 118.90 486.34
  Q 113.46 477.90 108.08 470.08
  Q 110.43 467.25 109.35 464.15
  C 107.15 457.84 98.26 458.41 96.93 464.95
  L 96.76 465.45
  Q 96.62 465.87 96.18 465.87
  Q 95.61 465.88 95.39 465.33
  Q 92.31 457.90 88.03 451.38
  Q 84.17 445.49 81.46 440.43
  Q 73.51 425.57 72.58 407.63
  Q 72.18 399.92 71.45 394.44
  Q 70.30 385.74 66.01 376.45
  A 0.41 0.40 -20.3 0 1 66.27 375.89
  L 67.10 375.66
  Q 72.07 376.80 74.23 372.49
  C 75.94 369.07 74.28 364.95 70.59 363.69
  Q 65.57 361.96 62.46 367.27
  Q 62.31 367.46 62.25 367.70
  Q 62.14 368.09 61.74 368.05
  Q 61.45 368.01 61.29 367.73
  Q 48.29 343.62 43.76 326.43
  Q 41.58 318.16 41.45 305.02
  C 41.36 296.85 38.91 291.53 34.61 284.78
  A 0.62 0.60 70.8 0 1 35.05 283.84
  Q 35.18 283.83 35.70 283.69
  C 44.45 283.65 44.01 271.59 36.56 269.88
  Q 33.25 269.12 30.14 272.25
  Q 27.16 263.87 29.00 257.53
  Q 30.02 254.01 34.90 249.77
  C 39.00 246.20 44.13 250.07 46.22 254.00
  Q 51.64 264.19 57.86 271.75
  Q 59.76 274.05 62.13 275.95
  Q 64.05 277.49 66.09 279.16
  Z
  M 56.92 322.27
  A 6.38 6.38 0.0 0 0 50.54 315.89
  A 6.38 6.38 0.0 0 0 44.16 322.27
  A 6.38 6.38 0.0 0 0 50.54 328.65
  A 6.38 6.38 0.0 0 0 56.92 322.27
  Z
  M 83.58 328.19
  A 6.36 6.36 0.0 0 0 77.22 321.83
  A 6.36 6.36 0.0 0 0 70.86 328.19
  A 6.36 6.36 0.0 0 0 77.22 334.55
  A 6.36 6.36 0.0 0 0 83.58 328.19
  Z
  M 99.68 378.60
  A 6.35 6.35 0.0 0 0 93.33 372.25
  A 6.35 6.35 0.0 0 0 86.98 378.60
  A 6.35 6.35 0.0 0 0 93.33 384.95
  A 6.35 6.35 0.0 0 0 99.68 378.60
  Z
  M 88.85 420.90
  A 6.38 6.38 0.0 0 0 82.47 414.52
  A 6.38 6.38 0.0 0 0 76.09 420.90
  A 6.38 6.38 0.0 0 0 82.47 427.28
  A 6.38 6.38 0.0 0 0 88.85 420.90
  Z"
/>
<path fill="#346338" d="
  M 215.97 251.43
  Q 220.25 251.63 221.69 254.78
  C 224.63 261.21 217.31 267.20 211.82 262.52
  Q 210.07 260.54 209.95 259.75
  Q 208.80 252.10 215.97 251.43
  Z"
/>
<path fill="#346338" d="
  M 35.70 283.69
  Q 28.60 282.54 29.08 275.32
  Q 29.13 274.59 29.53 273.77
  Q 30.06 272.72 30.14 272.25
  Q 33.25 269.12 36.56 269.88
  C 44.01 271.59 44.45 283.65 35.70 283.69
  Z"
/>
<circle fill="#346338" cx="245.33" cy="276.89" r="6.40"/>
<path fill="#346338" d="
  M 66.09 279.16
  Q 66.94 280.23 68.38 281.06
  Q 72.41 287.00 67.01 290.55
  C 60.88 294.57 54.17 286.74 58.69 280.94
  Q 60.92 278.09 66.09 279.16
  Z"
/>
<path fill="#346338" d="
  M 122.24 294.04
  Q 115.74 289.18 121.20 283.30
  Q 124.92 280.83 128.34 281.98
  C 133.30 283.64 135.01 289.67 130.67 293.39
  Q 127.21 296.34 122.24 294.04
  Z"
/>
<path fill="#346338" d="
  M 208.34 292.60
  C 215.41 294.09 215.86 302.55 209.15 305.02
  Q 204.73 305.75 202.62 303.00
  Q 200.75 300.56 201.50 297.21
  Q 202.52 292.63 208.34 292.60
  Z"
/>
<circle fill="#346338" cx="166.94" cy="308.58" r="6.36"/>
<circle fill="#346338" cx="50.54" cy="322.27" r="6.38"/>
<circle fill="#346338" cx="242.79" cy="326.07" r="6.37"/>
<circle fill="#346338" cx="77.22" cy="328.19" r="6.36"/>
<path fill="#346338" d="
  M 129.74 349.85
  Q 123.68 345.39 128.55 339.67
  C 136.21 333.34 143.66 345.12 136.08 349.74
  Q 133.34 351.41 129.74 349.85
  Z"
/>
<path fill="#346338" d="
  M 202.18 341.67
  C 214.60 339.81 213.64 357.25 201.43 354.21
  Q 196.06 352.30 196.84 347.00
  Q 197.49 342.55 202.18 341.67
  Z"
/>
<path fill="#346338" d="
  M 177.27 354.28
  Q 178.86 357.66 177.45 360.88
  C 170.57 370.36 159.85 357.43 168.87 352.10
  Q 173.20 349.55 177.27 354.28
  Z"
/>
<circle fill="#346338" cx="235.19" cy="367.50" r="6.35"/>
<path fill="#346338" d="
  M 67.10 375.66
  Q 63.73 374.69 62.68 372.20
  C 62.08 370.75 62.48 368.94 62.46 367.27
  Q 65.57 361.96 70.59 363.69
  C 74.28 364.95 75.94 369.07 74.23 372.49
  Q 72.07 376.80 67.10 375.66
  Z"
/>
<circle fill="#346338" cx="93.33" cy="378.60" r="6.35"/>
<path fill="#346338" d="
  M 203.76 380.43
  C 212.75 382.13 211.48 392.57 203.18 394.05
  C 201.18 393.72 199.05 393.61 197.56 392.14
  Q 193.99 388.65 196.59 384.11
  Q 198.73 380.37 203.76 380.43
  Z"
/>
<path fill="#346338" d="
  M 139.39 401.09
  Q 134.90 398.96 135.48 393.27
  Q 137.36 389.90 139.23 389.24
  C 145.37 387.08 150.72 393.14 146.96 398.69
  Q 144.42 402.43 139.39 401.09
  Z"
/>
<path fill="#346338" d="
  M 177.31 405.28
  Q 183.11 409.22 179.36 415.14
  Q 175.18 418.72 171.41 416.58
  C 164.31 412.53 169.52 401.90 177.31 405.28
  Z"
/>
<circle fill="#346338" cx="231.90" cy="418.79" r="6.38"/>
<circle fill="#346338" cx="82.47" cy="420.90" r="6.38"/>
<path fill="#346338" d="
  M 116.44 429.38
  Q 120.44 431.61 120.07 436.47
  Q 118.76 439.96 116.25 440.95
  C 112.79 442.32 108.69 440.72 107.66 437.03
  C 106.13 431.55 111.12 427.01 116.44 429.38
  Z"
/>
<path fill="#346338" d="
  M 200.51 432.56
  Q 204.43 435.64 203.22 440.72
  Q 198.76 440.90 196.07 444.25
  C 187.25 443.57 190.04 428.23 200.51 432.56
  Z"
/>
<path fill="#704f39" d="
  M 203.22 440.72
  Q 206.19 441.89 206.69 444.62
  Q 207.00 446.27 205.79 449.21
  Q 198.59 466.69 194.68 485.20
  L 192.09 496.25
  L 190.70 508.96
  L 189.54 527.66
  Q 189.48 529.46 189.56 531.72
  Q 189.63 533.89 189.53 535.77
  Q 188.64 552.92 190.82 569.20
  Q 192.25 582.73 197.21 595.31
  Q 201.03 605.88 203.15 611.04
  Q 206.53 619.25 212.12 629.00
  L 194.75 629.00
  Q 180.00 600.20 176.81 568.42
  Q 176.67 567.08 176.48 568.42
  Q 174.54 581.95 174.06 596.25
  Q 173.80 603.78 174.03 607.40
  Q 174.43 613.72 175.89 617.19
  Q 178.33 623.02 180.86 629.00
  L 164.21 629.00
  Q 160.61 621.08 157.05 613.05
  Q 154.77 607.89 153.04 602.63
  C 151.49 597.95 149.34 593.52 147.87 588.72
  Q 141.84 569.19 133.51 549.97
  Q 133.43 549.77 133.20 549.69
  L 133.09 548.99
  Q 133.02 548.53 132.83 548.11
  L 124.33 529.79
  L 105.81 493.45
  Q 104.01 489.67 101.33 485.18
  Q 97.62 478.95 95.48 472.02
  C 94.74 469.62 96.37 467.88 97.13 465.80
  Q 97.41 465.92 97.70 465.96
  Q 97.95 465.99 98.27 465.84
  C 101.46 464.33 105.78 467.70 108.08 470.08
  Q 113.46 477.90 118.90 486.34
  C 127.85 500.24 135.12 515.45 141.91 530.83
  L 146.12 540.96
  Q 146.31 541.41 146.39 540.93
  Q 146.78 538.32 147.07 535.77
  Q 148.86 519.66 152.14 503.80
  L 154.84 493.59
  L 155.71 490.31
  Q 157.23 485.25 158.69 482.24
  Q 160.01 479.49 162.96 478.58
  Q 166.04 477.63 168.94 480.15
  C 170.02 481.09 169.89 482.73 169.72 484.00
  Q 166.53 507.25 164.96 530.03
  Q 164.64 542.44 165.12 554.25
  Q 165.17 555.45 166.11 555.30
  A 0.61 0.60 0.6 0 0 166.61 554.82
  L 170.22 535.63
  C 172.90 519.77 175.58 504.25 180.14 489.01
  Q 182.93 479.96 185.78 471.01
  Q 190.16 457.28 196.07 444.25
  Q 198.76 440.90 203.22 440.72
  Z"
/>
<path fill="#346338" d="
  M 146.13 441.11
  Q 153.60 446.00 147.88 452.48
  Q 140.72 455.71 138.27 450.05
  C 136.89 446.85 137.76 443.90 140.50 441.96
  Q 140.94 441.64 141.48 441.58
  L 146.13 441.11
  Z"
/>
<path fill="#346338" d="
  M 174.97 458.60
  Q 179.76 463.17 175.57 468.30
  C 166.88 474.87 159.94 461.53 168.88 457.90
  Q 171.94 456.66 174.97 458.60
  Z"
/>
<path fill="#346338" d="
  M 108.08 470.08
  C 105.78 467.70 101.46 464.33 98.27 465.84
  Q 97.95 465.99 97.70 465.96
  Q 97.41 465.92 97.13 465.80
  Q 96.91 465.48 96.93 464.95
  C 98.26 458.41 107.15 457.84 109.35 464.15
  Q 110.43 467.25 108.08 470.08
  Z"
/>
<path fill="#346338" d="
  M 126.71 469.54
  Q 129.96 472.21 129.28 476.32
  C 127.89 480.73 123.14 482.72 119.48 480.06
  C 112.71 475.13 119.43 465.15 126.71 469.54
  Z"
/>
<path fill="#346338" d="
  M 226.62 472.53
  Q 233.68 478.15 227.16 483.71
  Q 222.14 486.07 219.19 482.64
  C 216.86 479.93 216.93 475.80 219.69 473.44
  Q 222.69 470.87 226.62 472.53
  Z"
/>
<path fill="#427e46" d="
  M 194.68 485.20
  L 195.81 496.69
  Q 193.25 496.83 192.09 496.25
  L 194.68 485.20
  Z"
/>
<path fill="#346338" d="
  M 154.84 493.59
  L 152.14 503.80
  C 144.43 506.07 140.01 496.07 146.78 492.21
  Q 150.67 489.99 154.84 493.59
  Z"
/>
<path fill="#4e9453" d="
  M 105.81 493.45
  L 124.33 529.79
  Q 124.46 530.11 124.30 530.34
  Q 123.98 530.78 123.56 530.44
  C 120.13 527.66 117.69 523.61 115.24 520.19
  Q 112.91 516.92 111.09 513.94
  Q 105.45 504.68 105.81 493.45
  Z"
/>
<path fill="#346338" d="
  M 192.09 496.25
  Q 193.25 496.83 195.81 496.69
  C 200.52 499.68 201.71 504.73 197.02 508.41
  Q 194.18 509.77 190.70 508.96
  L 192.09 496.25
  Z"
/>
<path fill="#427e46" d="
  M 197.02 508.41
  Q 197.25 514.21 195.10 520.80
  Q 193.38 526.08 189.54 527.66
  L 190.70 508.96
  Q 194.18 509.77 197.02 508.41
  Z"
/>
<path fill="#427e46" d="
  M 164.96 530.03
  Q 167.59 533.74 170.22 535.63
  L 166.61 554.82
  A 0.61 0.60 0.6 0 1 166.11 555.30
  Q 165.17 555.45 165.12 554.25
  Q 164.64 542.44 164.96 530.03
  Z"
/>
<path fill="#a47454" d="
  M 194.75 629.00
  L 180.86 629.00
  Q 178.33 623.02 175.89 617.19
  Q 174.43 613.72 174.03 607.40
  Q 173.80 603.78 174.06 596.25
  Q 174.54 581.95 176.48 568.42
  Q 176.67 567.08 176.81 568.42
  Q 180.00 600.20 194.75 629.00
  Z"
/>
</svg>
