<?xml version="1.0" encoding="UTF-8" standalone="no"?>
<!DOCTYPE svg PUBLIC "-//W3C//DTD SVG 1.1//EN" "http://www.w3.org/Graphics/SVG/1.1/DTD/svg11.dtd">
<svg xmlns="http://www.w3.org/2000/svg" version="1.1" viewBox="0.00 0.00 251.00 475.00">
<g stroke-width="2.00" fill="none" stroke-linecap="butt">
<path stroke="#596740" vector-effect="non-scaling-stroke" d="
  M 146.95 451.92
  L 152.23 436.77"
/>
<path stroke="#48894d" vector-effect="non-scaling-stroke" d="
  M 152.23 436.77
  Q 153.14 437.25 153.81 436.07
  Q 154.62 434.64 154.90 433.13
  Q 156.28 425.79 161.03 421.59
  C 163.20 419.66 166.08 418.53 167.66 416.07
  C 173.53 406.89 175.06 396.42 176.25 385.74
  Q 176.80 380.76 179.07 377.37
  C 183.90 370.16 189.29 362.96 188.02 353.79
  C 187.39 349.20 186.50 344.94 186.86 340.31
  Q 187.54 331.74 191.09 323.49"
/>
<path stroke="#3b713f" vector-effect="non-scaling-stroke" d="
  M 191.09 323.49
  Q 198.06 320.56 194.43 313.53"
/>
<path stroke="#48894d" vector-effect="non-scaling-stroke" d="
  M 194.43 313.53
  Q 195.89 314.83 196.36 314.10
  Q 202.31 304.84 202.56 293.75
  Q 202.76 284.47 203.73 279.32"
/>
<path stroke="#3b713f" vector-effect="non-scaling-stroke" d="
  M 203.73 279.32
  Q 209.47 280.09 211.32 275.50
  Q 213.14 270.96 209.07 267.82"
/>
<path stroke="#48894d" vector-effect="non-scaling-stroke" d="
  M 209.07 267.82
  Q 214.71 261.55 213.40 252.99
  Q 212.04 244.12 213.98 236.71"
/>
<path stroke="#3b713f" vector-effect="non-scaling-stroke" d="
  M 213.98 236.71
  Q 218.85 233.53 216.69 228.02"
/>
<path stroke="#48894d" vector-effect="non-scaling-stroke" d="
  M 216.69 228.02
  C 221.59 218.69 222.18 206.82 213.71 199.82
  Q 212.81 199.08 211.75 198.61
  Q 211.18 198.36 210.57 198.51
  Q 206.04 199.63 202.26 202.53
  Q 201.78 202.90 201.77 203.51
  L 201.66 211.26"
/>
<path stroke="#3b713f" vector-effect="non-scaling-stroke" d="
  M 201.66 211.26
  Q 195.84 208.96 193.14 212.25
  Q 190.61 215.34 192.01 219.12
  Q 193.61 223.44 200.68 222.43"
/>
<path stroke="#48894d" vector-effect="non-scaling-stroke" d="
  M 200.68 222.43
  Q 198.55 223.66 196.19 223.26
  A 1.28 1.25 32.6 0 0 195.29 223.45
  Q 192.47 225.34 190.84 227.35
  Q 184.33 235.33 183.44 245.73"
/>
<path stroke="#3b713f" vector-effect="non-scaling-stroke" d="
  M 183.44 245.73
  Q 180.81 246.64 179.86 248.84
  Q 177.84 253.53 181.42 256.50
  C 183.12 257.91 185.61 257.92 187.71 257.83"
/>
<path stroke="#48894d" vector-effect="non-scaling-stroke" d="
  M 187.71 257.83
  L 184.39 258.50
  A 0.71 0.70 83.9 0 0 183.82 259.22
  C 184.03 266.29 182.54 273.75 177.81 279.08
  C 175.39 281.81 173.91 284.72 173.01 288.26
  Q 171.19 295.42 174.84 296.13"
/>
<path stroke="#3b713f" vector-effect="non-scaling-stroke" d="
  M 174.84 296.13
  Q 167.55 301.65 174.88 308.00"
/>
<path stroke="#48894d" vector-effect="non-scaling-stroke" d="
  M 174.88 308.00
  C 174.15 316.46 172.89 322.64 167.98 328.50
  Q 166.25 330.58 168.93 330.27
  Q 169.03 330.26 170.00 330.41"
/>
<path stroke="#3b713f" vector-effect="non-scaling-stroke" d="
  M 170.00 330.41
  Q 166.54 330.52 165.42 331.39
  C 161.49 334.45 161.60 340.92 166.60 342.69"
/>
<path stroke="#48894d" vector-effect="non-scaling-stroke" d="
  M 166.60 342.69
  Q 166.65 344.58 167.21 345.24"
/>
<path stroke="#596740" vector-effect="non-scaling-stroke" d="
  M 167.21 345.24
  Q 164.20 348.67 162.84 351.33
  C 158.97 358.91 155.88 366.97 153.15 375.95
  Q 144.91 403.10 136.15 429.88
  Q 135.87 430.72 135.88 429.84
  L 136.04 407.12"
/>
<path stroke="#48894d" vector-effect="non-scaling-stroke" d="
  M 136.04 407.12
  Q 140.76 399.37 139.38 391.21
  Q 138.39 385.42 138.51 380.94
  C 138.66 375.00 141.31 368.69 144.89 363.47
  Q 148.14 358.73 148.18 352.25
  Q 148.22 344.04 145.63 337.00"
/>
<path stroke="#3b713f" vector-effect="non-scaling-stroke" d="
  M 145.63 337.00
  Q 150.90 335.74 150.75 330.84
  C 150.59 325.62 146.90 323.95 142.10 325.13"
/>
<path stroke="#48894d" vector-effect="non-scaling-stroke" d="
  M 142.10 325.13
  Q 142.60 323.93 144.69 323.69
  Q 145.30 323.62 145.37 323.01
  Q 146.09 316.95 148.69 311.02
  C 152.23 302.95 151.88 295.04 150.13 286.61
  Q 149.52 283.67 148.59 280.58
  Q 144.41 266.80 149.60 254.23
  Q 154.60 242.09 153.70 228.50
  C 153.41 224.19 151.94 220.42 150.71 216.38
  C 146.33 202.07 149.54 188.28 152.90 174.21
  Q 154.81 166.21 150.50 158.39
  C 144.45 147.38 141.09 135.21 144.15 122.91
  Q 145.25 118.52 146.20 114.18
  C 148.14 105.39 145.68 95.81 142.46 87.51
  C 139.66 80.31 141.24 73.33 143.98 66.34
  Q 146.51 59.91 141.99 56.02
  Q 136.70 51.47 130.82 48.36"
/>
<path stroke="#3b713f" vector-effect="non-scaling-stroke" d="
  M 130.82 48.36
  Q 133.73 43.83 129.82 39.88
  C 127.47 37.51 123.26 38.45 120.95 40.27"
/>
<path stroke="#48894d" vector-effect="non-scaling-stroke" d="
  M 120.95 40.27
  Q 122.13 38.60 123.98 38.08
  A 0.86 0.86 0.0 0 0 124.59 37.12
  Q 123.52 30.70 120.46 25.13
  A 2.52 2.51 70.5 0 0 117.83 23.87
  C 109.67 25.31 100.16 29.32 96.65 37.01
  C 94.76 41.15 93.04 46.70 94.15 51.29
  Q 94.98 54.71 94.87 58.28
  Q 94.86 58.79 95.22 59.15
  Q 96.08 60.01 97.54 60.43"
/>
<path stroke="#3b713f" vector-effect="non-scaling-stroke" d="
  M 97.54 60.43
  L 93.66 60.57
  Q 93.16 60.59 92.75 60.85
  Q 86.55 64.69 91.11 71.19"
/>
<path stroke="#48894d" vector-effect="non-scaling-stroke" d="
  M 91.11 71.19
  Q 90.01 70.93 89.08 73.07
  C 85.08 82.32 83.79 93.42 87.34 103.05
  Q 89.05 107.71 90.15 111.84
  Q 93.36 123.84 91.79 137.81"
/>
<path stroke="#3b713f" vector-effect="non-scaling-stroke" d="
  M 91.79 137.81
  L 91.06 143.07"
/>
<path stroke="#48894d" vector-effect="non-scaling-stroke" d="
  M 91.06 143.07
  Q 87.82 154.49 87.06 157.56
  C 84.88 166.27 87.66 173.02 92.71 179.98"
/>
<path stroke="#3b713f" vector-effect="non-scaling-stroke" d="
  M 92.71 179.98
  Q 88.59 189.29 97.95 190.34"
/>
<path stroke="#48894d" vector-effect="non-scaling-stroke" d="
  M 97.95 190.34
  Q 97.21 192.19 97.66 195.33
  Q 98.14 198.71 98.06 200.21
  Q 97.80 205.22 96.57 210.75
  Q 95.88 213.81 96.52 217.10"
/>
<path stroke="#3b713f" vector-effect="non-scaling-stroke" d="
  M 96.52 217.10
  Q 91.33 219.02 92.32 224.50
  Q 93.01 228.30 97.30 229.86"
/>
<path stroke="#48894d" vector-effect="non-scaling-stroke" d="
  M 97.30 229.86
  Q 98.76 236.42 101.57 240.19
  C 106.47 246.74 108.06 251.31 107.23 259.05"
/>
<path stroke="#3b713f" vector-effect="non-scaling-stroke" d="
  M 107.23 259.05
  Q 102.94 256.44 99.62 258.63
  C 93.57 262.63 97.42 271.32 104.55 270.21"
/>
<path stroke="#48894d" vector-effect="non-scaling-stroke" d="
  M 104.55 270.21
  Q 99.65 282.42 101.72 293.75
  Q 102.86 299.98 108.42 304.70"
/>
<path stroke="#3b713f" vector-effect="non-scaling-stroke" d="
  M 108.42 304.70
  Q 102.91 305.15 101.99 309.32
  Q 101.21 312.89 103.76 315.64
  Q 107.00 319.14 112.37 315.82"
/>
<path stroke="#48894d" vector-effect="non-scaling-stroke" d="
  M 112.37 315.82
  Q 114.47 324.19 113.43 333.49
  Q 112.76 339.56 113.62 346.77"
/>
<path stroke="#3b713f" vector-effect="non-scaling-stroke" d="
  M 113.62 346.77
  Q 109.59 346.43 107.45 349.17
  C 103.00 354.89 109.74 362.09 116.00 358.29"
/>
<path stroke="#48894d" vector-effect="non-scaling-stroke" d="
  M 116.00 358.29
  Q 115.52 362.77 118.57 365.56"
/>
<path stroke="#596740" vector-effect="non-scaling-stroke" d="
  M 118.57 365.56
  Q 118.09 369.46 117.81 374.25
  C 116.72 393.05 115.28 411.99 115.14 430.58
  Q 115.13 432.61 114.53 430.67
  L 107.68 408.39"
/>
<path stroke="#48894d" vector-effect="non-scaling-stroke" d="
  M 107.68 408.39
  Q 108.38 391.99 106.47 381.00
  Q 104.95 372.26 101.80 366.33
  Q 95.43 354.38 94.60 343.45
  C 93.82 333.06 93.24 323.53 89.91 313.55
  C 88.58 309.55 86.62 306.01 84.99 302.24
  C 83.42 298.59 82.08 293.64 81.77 290.08
  Q 80.93 280.40 82.24 267.30
  C 82.84 261.32 81.94 253.49 76.69 249.81
  Q 69.08 244.47 63.49 239.05"
/>
<path stroke="#3b713f" vector-effect="non-scaling-stroke" d="
  M 63.49 239.05
  Q 63.82 234.70 60.14 232.45"
/>
<path stroke="#48894d" vector-effect="non-scaling-stroke" d="
  M 60.14 232.45
  Q 57.86 223.36 57.13 217.62
  C 56.42 212.13 56.06 205.13 52.94 200.75
  C 51.33 198.49 44.62 192.50 40.97 194.12
  C 33.43 197.45 32.71 202.09 33.30 209.47
  C 33.60 213.20 35.71 217.21 36.59 221.29"
/>
<path stroke="#3b713f" vector-effect="non-scaling-stroke" d="
  M 36.59 221.29
  C 30.85 219.44 25.99 222.56 27.29 228.63
  Q 28.24 233.02 34.02 233.32"
/>
<path stroke="#48894d" vector-effect="non-scaling-stroke" d="
  M 34.02 233.32
  Q 28.69 244.07 34.41 254.07
  Q 35.09 255.25 36.23 254.99
  C 39.36 254.30 42.01 255.02 43.45 257.85"
/>
<path stroke="#3b713f" vector-effect="non-scaling-stroke" d="
  M 43.45 257.85
  Q 39.46 253.51 34.31 256.40
  C 30.94 258.29 31.09 263.13 33.51 265.81
  Q 36.74 269.40 41.67 266.56"
/>
<path stroke="#48894d" vector-effect="non-scaling-stroke" d="
  M 41.67 266.56
  Q 41.39 271.60 40.45 276.60
  Q 39.11 283.75 39.07 285.48
  Q 38.96 290.63 40.81 294.45
  Q 42.75 298.44 45.03 302.26
  Q 45.97 303.84 46.99 303.78
  Q 50.14 303.60 51.70 306.42"
/>
<path stroke="#3b713f" vector-effect="non-scaling-stroke" d="
  M 51.70 306.42
  Q 45.86 303.08 42.75 305.88
  Q 39.91 308.43 40.96 312.73
  Q 42.20 317.80 49.05 316.67"
/>
<path stroke="#48894d" vector-effect="non-scaling-stroke" d="
  M 49.05 316.67
  Q 47.62 323.39 49.47 332.29
  Q 50.24 336.03 51.74 338.82
  Q 53.00 341.15 55.38 343.46
  C 58.33 346.33 60.72 349.85 63.08 353.23
  C 64.82 355.74 69.19 356.86 68.49 360.53"
/>
<path stroke="#3b713f" vector-effect="non-scaling-stroke" d="
  M 68.49 360.53
  Q 66.83 355.96 62.69 355.44
  C 55.31 354.51 53.41 364.60 59.76 367.42
  C 62.63 368.69 65.77 367.72 67.29 364.97
  Q 67.93 363.82 68.58 362.61"
/>
<path stroke="#48894d" vector-effect="non-scaling-stroke" d="
  M 68.58 362.61
  Q 68.11 372.94 70.32 379.64
  Q 72.94 387.57 78.91 393.63
  Q 86.93 401.75 90.94 411.39
  Q 91.55 412.85 91.94 414.41
  Q 92.40 416.28 93.42 416.94"
/>
<path stroke="#596740" vector-effect="non-scaling-stroke" d="
  M 93.42 416.94
  Q 95.95 430.71 99.26 442.25
  Q 99.52 443.15 99.02 443.61"
/>
<path stroke="#417c46" vector-effect="non-scaling-stroke" d="
  M 120.95 40.27
  Q 119.20 42.42 119.39 45.01
  Q 119.56 47.32 121.39 49.19
  Q 125.50 53.41 130.82 48.36"
/>
<path stroke="#417c46" vector-effect="non-scaling-stroke" d="
  M 142.10 325.13
  Q 136.27 327.66 138.92 333.80
  Q 140.58 337.63 145.63 337.00"
/>
<path stroke="#5f7246" vector-effect="non-scaling-stroke" d="
  M 136.04 407.12
  Q 136.00 381.67 135.21 369.00
  Q 134.62 359.51 132.87 350.94
  C 132.15 347.41 129.21 344.62 125.43 345.31
  C 122.14 345.90 120.80 349.05 120.29 352.00
  Q 119.45 356.88 118.57 365.56"
/>
<path stroke="#417c46" vector-effect="non-scaling-stroke" d="
  M 116.00 358.29
  Q 119.87 355.51 118.47 350.75
  Q 117.59 347.77 113.62 346.77"
/>
<path stroke="#417c46" vector-effect="non-scaling-stroke" d="
  M 112.37 315.82
  C 116.24 311.50 114.38 305.09 108.42 304.70"
/>
<path stroke="#417c46" vector-effect="non-scaling-stroke" d="
  M 104.55 270.21
  C 109.76 268.51 111.13 262.84 107.23 259.05"
/>
<path stroke="#417c46" vector-effect="non-scaling-stroke" d="
  M 97.30 229.86
  C 104.76 231.77 109.70 223.65 103.72 218.58
  Q 100.60 215.94 96.52 217.10"
/>
<path stroke="#417c46" vector-effect="non-scaling-stroke" d="
  M 97.95 190.34
  Q 104.33 189.37 104.68 184.64
  C 105.23 177.29 97.41 175.08 92.71 179.98"
/>
<path stroke="#417c46" vector-effect="non-scaling-stroke" d="
  M 91.06 143.07
  C 96.89 154.45 110.28 141.28 101.67 135.03
  C 98.24 132.54 93.94 134.34 91.79 137.81"
/>
<path stroke="#417c46" vector-effect="non-scaling-stroke" d="
  M 91.11 71.19
  Q 94.24 74.00 97.76 72.53
  C 103.30 70.23 103.34 62.56 97.54 60.43"
/>
<path stroke="#417c46" vector-effect="non-scaling-stroke" d="
  M 134.3336 73.0800
  A 7.13 6.61 -24.0 0 0 125.1315 69.9415
  A 7.13 6.61 -24.0 0 0 121.3064 78.8800
  A 7.13 6.61 -24.0 0 0 130.5085 82.0185
  A 7.13 6.61 -24.0 0 0 134.3336 73.0800"
/>
<path stroke="#417c46" vector-effect="non-scaling-stroke" d="
  M 89.9715 101.4401
  A 7.16 6.68 130.8 0 0 99.7067 100.3848
  A 7.16 6.68 130.8 0 0 99.3285 90.5999
  A 7.16 6.68 130.8 0 0 89.5933 91.6552
  A 7.16 6.68 130.8 0 0 89.9715 101.4401"
/>
<path stroke="#417c46" vector-effect="non-scaling-stroke" d="
  M 138.96 111.79
  A 6.37 6.37 0.0 0 0 132.59 105.42
  A 6.37 6.37 0.0 0 0 126.22 111.79
  A 6.37 6.37 0.0 0 0 132.59 118.16
  A 6.37 6.37 0.0 0 0 138.96 111.79"
/>
<path stroke="#417c46" vector-effect="non-scaling-stroke" d="
  M 140.81 158.54
  A 6.35 6.35 0.0 0 0 134.46 152.19
  A 6.35 6.35 0.0 0 0 128.11 158.54
  A 6.35 6.35 0.0 0 0 134.46 164.89
  A 6.35 6.35 0.0 0 0 140.81 158.54"
/>
<path stroke="#417c46" vector-effect="non-scaling-stroke" d="
  M 145.84 193.03
  A 6.37 6.37 0.0 0 0 139.47 186.66
  A 6.37 6.37 0.0 0 0 133.10 193.03
  A 6.37 6.37 0.0 0 0 139.47 199.40
  A 6.37 6.37 0.0 0 0 145.84 193.03"
/>
<path stroke="#417c46" vector-effect="non-scaling-stroke" d="
  M 145.26 238.20
  A 6.38 6.38 0.0 0 0 138.88 231.82
  A 6.38 6.38 0.0 0 0 132.50 238.20
  A 6.38 6.38 0.0 0 0 138.88 244.58
  A 6.38 6.38 0.0 0 0 145.26 238.20"
/>
<path stroke="#417c46" vector-effect="non-scaling-stroke" d="
  M 149.31 285.93
  A 6.38 6.38 0.0 0 0 142.93 279.55
  A 6.38 6.38 0.0 0 0 136.55 285.93
  A 6.38 6.38 0.0 0 0 142.93 292.31
  A 6.38 6.38 0.0 0 0 149.31 285.93"
/>
<path stroke="#417c46" vector-effect="non-scaling-stroke" d="
  M 60.14 232.45
  Q 54.32 230.57 51.93 234.70
  C 46.92 243.37 60.91 249.57 63.49 239.05"
/>
<path stroke="#5f7246" vector-effect="non-scaling-stroke" d="
  M 107.68 408.39
  Q 103.40 397.42 99.77 386.62
  Q 98.52 382.91 96.37 380.47
  C 94.28 378.11 89.65 378.95 88.80 381.73
  C 87.85 384.84 87.80 388.89 88.24 392.00
  Q 89.92 403.92 93.42 416.94"
/>
<path stroke="#417c46" vector-effect="non-scaling-stroke" d="
  M 68.58 362.61
  L 68.49 360.53"
/>
<path stroke="#417c46" vector-effect="non-scaling-stroke" d="
  M 49.05 316.67
  Q 55.96 313.19 51.70 306.42"
/>
<path stroke="#417c46" vector-effect="non-scaling-stroke" d="
  M 41.67 266.56
  Q 46.12 263.38 43.45 257.85"
/>
<path stroke="#417c46" vector-effect="non-scaling-stroke" d="
  M 34.02 233.32
  C 40.35 232.08 41.97 224.83 36.59 221.29"
/>
<path stroke="#417c46" vector-effect="non-scaling-stroke" d="
  M 80.28 278.75
  A 6.38 6.38 0.0 0 0 73.90 272.37
  A 6.38 6.38 0.0 0 0 67.52 278.75
  A 6.38 6.38 0.0 0 0 73.90 285.13
  A 6.38 6.38 0.0 0 0 80.28 278.75"
/>
<path stroke="#417c46" vector-effect="non-scaling-stroke" d="
  M 88.43 321.73
  A 6.38 6.38 0.0 0 0 82.05 315.35
  A 6.38 6.38 0.0 0 0 75.67 321.73
  A 6.38 6.38 0.0 0 0 82.05 328.11
  A 6.38 6.38 0.0 0 0 88.43 321.73"
/>
<path stroke="#417c46" vector-effect="non-scaling-stroke" d="
  M 89.7270 376.7204
  A 7.17 6.61 122.6 0 0 99.1586 374.2413
  A 7.17 6.61 122.6 0 0 97.4530 364.6396
  A 7.17 6.61 122.6 0 0 88.0214 367.1187
  A 7.17 6.61 122.6 0 0 89.7270 376.7204"
/>
<path stroke="#417c46" vector-effect="non-scaling-stroke" d="
  M 216.69 228.02
  C 213.48 222.58 205.17 224.03 204.70 230.54
  C 204.33 235.74 209.25 238.64 213.98 236.71"
/>
<path stroke="#417c46" vector-effect="non-scaling-stroke" d="
  M 209.07 267.82
  Q 205.75 266.07 203.02 267.14
  Q 200.51 268.12 199.41 271.17
  Q 197.50 276.46 203.73 279.32"
/>
<path stroke="#417c46" vector-effect="non-scaling-stroke" d="
  M 194.43 313.53
  C 191.88 309.61 185.67 310.23 183.78 314.08
  Q 182.39 316.92 183.59 319.95
  Q 185.23 324.07 191.09 323.49"
/>
<path stroke="#5f7246" vector-effect="non-scaling-stroke" d="
  M 152.23 436.77
  Q 155.24 427.51 158.80 418.49
  Q 163.64 406.26 165.56 400.30
  Q 171.64 381.45 176.56 362.25
  C 177.59 358.23 178.98 352.12 177.10 348.52
  Q 173.61 341.86 167.21 345.24"
/>
<path stroke="#417c46" vector-effect="non-scaling-stroke" d="
  M 166.60 342.69
  Q 175.51 344.20 175.30 336.25
  Q 175.17 331.60 170.00 330.41"
/>
<path stroke="#417c46" vector-effect="non-scaling-stroke" d="
  M 174.88 308.00
  Q 179.95 310.33 183.30 307.25
  C 185.24 305.46 185.99 302.32 184.87 299.96
  Q 181.90 293.69 174.84 296.13"
/>
<path stroke="#417c46" vector-effect="non-scaling-stroke" d="
  M 187.71 257.83
  Q 193.28 255.31 192.00 250.50
  Q 190.43 244.56 183.44 245.73"
/>
<path stroke="#417c46" vector-effect="non-scaling-stroke" d="
  M 200.68 222.43
  Q 207.42 217.50 201.66 211.26"
/>
</g>
<path fill="#427e46" d="
  M 146.95 451.92
  L 152.23 436.77
  Q 153.14 437.25 153.81 436.07
  Q 154.62 434.64 154.90 433.13
  Q 156.28 425.79 161.03 421.59
  C 163.20 419.66 166.08 418.53 167.66 416.07
  C 173.53 406.89 175.06 396.42 176.25 385.74
  Q 176.80 380.76 179.07 377.37
  C 183.90 370.16 189.29 362.96 188.02 353.79
  C 187.39 349.20 186.50 344.94 186.86 340.31
  Q 187.54 331.74 191.09 323.49
  Q 198.06 320.56 194.43 313.53
  Q 195.89 314.83 196.36 314.10
  Q 202.31 304.84 202.56 293.75
  Q 202.76 284.47 203.73 279.32
  Q 209.47 280.09 211.32 275.50
  Q 213.14 270.96 209.07 267.82
  Q 214.71 261.55 213.40 252.99
  Q 212.04 244.12 213.98 236.71
  Q 218.85 233.53 216.69 228.02
  C 221.59 218.69 222.18 206.82 213.71 199.82
  Q 212.81 199.08 211.75 198.61
  Q 211.18 198.36 210.57 198.51
  Q 206.04 199.63 202.26 202.53
  Q 201.78 202.90 201.77 203.51
  L 201.66 211.26
  Q 195.84 208.96 193.14 212.25
  Q 190.61 215.34 192.01 219.12
  Q 193.61 223.44 200.68 222.43
  Q 198.55 223.66 196.19 223.26
  A 1.28 1.25 32.6 0 0 195.29 223.45
  Q 192.47 225.34 190.84 227.35
  Q 184.33 235.33 183.44 245.73
  Q 180.81 246.64 179.86 248.84
  Q 177.84 253.53 181.42 256.50
  C 183.12 257.91 185.61 257.92 187.71 257.83
  L 184.39 258.50
  A 0.71 0.70 83.9 0 0 183.82 259.22
  C 184.03 266.29 182.54 273.75 177.81 279.08
  C 175.39 281.81 173.91 284.72 173.01 288.26
  Q 171.19 295.42 174.84 296.13
  Q 167.55 301.65 174.88 308.00
  C 174.15 316.46 172.89 322.64 167.98 328.50
  Q 166.25 330.58 168.93 330.27
  Q 169.03 330.26 170.00 330.41
  Q 166.54 330.52 165.42 331.39
  C 161.49 334.45 161.60 340.92 166.60 342.69
  Q 166.65 344.58 167.21 345.24
  Q 164.20 348.67 162.84 351.33
  C 158.97 358.91 155.88 366.97 153.15 375.95
  Q 144.91 403.10 136.15 429.88
  Q 135.87 430.72 135.88 429.84
  L 136.04 407.12
  Q 140.76 399.37 139.38 391.21
  Q 138.39 385.42 138.51 380.94
  C 138.66 375.00 141.31 368.69 144.89 363.47
  Q 148.14 358.73 148.18 352.25
  Q 148.22 344.04 145.63 337.00
  Q 150.90 335.74 150.75 330.84
  C 150.59 325.62 146.90 323.95 142.10 325.13
  Q 142.60 323.93 144.69 323.69
  Q 145.30 323.62 145.37 323.01
  Q 146.09 316.95 148.69 311.02
  C 152.23 302.95 151.88 295.04 150.13 286.61
  Q 149.52 283.67 148.59 280.58
  Q 144.41 266.80 149.60 254.23
  Q 154.60 242.09 153.70 228.50
  C 153.41 224.19 151.94 220.42 150.71 216.38
  C 146.33 202.07 149.54 188.28 152.90 174.21
  Q 154.81 166.21 150.50 158.39
  C 144.45 147.38 141.09 135.21 144.15 122.91
  Q 145.25 118.52 146.20 114.18
  C 148.14 105.39 145.68 95.81 142.46 87.51
  C 139.66 80.31 141.24 73.33 143.98 66.34
  Q 146.51 59.91 141.99 56.02
  Q 136.70 51.47 130.82 48.36
  Q 133.73 43.83 129.82 39.88
  C 127.47 37.51 123.26 38.45 120.95 40.27
  Q 122.13 38.60 123.98 38.08
  A 0.86 0.86 0.0 0 0 124.59 37.12
  Q 123.52 30.70 120.46 25.13
  A 2.52 2.51 70.5 0 0 117.83 23.87
  C 109.67 25.31 100.16 29.32 96.65 37.01
  C 94.76 41.15 93.04 46.70 94.15 51.29
  Q 94.98 54.71 94.87 58.28
  Q 94.86 58.79 95.22 59.15
  Q 96.08 60.01 97.54 60.43
  L 93.66 60.57
  Q 93.16 60.59 92.75 60.85
  Q 86.55 64.69 91.11 71.19
  Q 90.01 70.93 89.08 73.07
  C 85.08 82.32 83.79 93.42 87.34 103.05
  Q 89.05 107.71 90.15 111.84
  Q 93.36 123.84 91.79 137.81
  L 91.06 143.07
  Q 87.82 154.49 87.06 157.56
  C 84.88 166.27 87.66 173.02 92.71 179.98
  Q 88.59 189.29 97.95 190.34
  Q 97.21 192.19 97.66 195.33
  Q 98.14 198.71 98.06 200.21
  Q 97.80 205.22 96.57 210.75
  Q 95.88 213.81 96.52 217.10
  Q 91.33 219.02 92.32 224.50
  Q 93.01 228.30 97.30 229.86
  Q 98.76 236.42 101.57 240.19
  C 106.47 246.74 108.06 251.31 107.23 259.05
  Q 102.94 256.44 99.62 258.63
  C 93.57 262.63 97.42 271.32 104.55 270.21
  Q 99.65 282.42 101.72 293.75
  Q 102.86 299.98 108.42 304.70
  Q 102.91 305.15 101.99 309.32
  Q 101.21 312.89 103.76 315.64
  Q 107.00 319.14 112.37 315.82
  Q 114.47 324.19 113.43 333.49
  Q 112.76 339.56 113.62 346.77
  Q 109.59 346.43 107.45 349.17
  C 103.00 354.89 109.74 362.09 116.00 358.29
  Q 115.52 362.77 118.57 365.56
  Q 118.09 369.46 117.81 374.25
  C 116.72 393.05 115.28 411.99 115.14 430.58
  Q 115.13 432.61 114.53 430.67
  L 107.68 408.39
  Q 108.38 391.99 106.47 381.00
  Q 104.95 372.26 101.80 366.33
  Q 95.43 354.38 94.60 343.45
  C 93.82 333.06 93.24 323.53 89.91 313.55
  C 88.58 309.55 86.62 306.01 84.99 302.24
  C 83.42 298.59 82.08 293.64 81.77 290.08
  Q 80.93 280.40 82.24 267.30
  C 82.84 261.32 81.94 253.49 76.69 249.81
  Q 69.08 244.47 63.49 239.05
  Q 63.82 234.70 60.14 232.45
  Q 57.86 223.36 57.13 217.62
  C 56.42 212.13 56.06 205.13 52.94 200.75
  C 51.33 198.49 44.62 192.50 40.97 194.12
  C 33.43 197.45 32.71 202.09 33.30 209.47
  C 33.60 213.20 35.71 217.21 36.59 221.29
  C 30.85 219.44 25.99 222.56 27.29 228.63
  Q 28.24 233.02 34.02 233.32
  Q 28.69 244.07 34.41 254.07
  Q 35.09 255.25 36.23 254.99
  C 39.36 254.30 42.01 255.02 43.45 257.85
  Q 39.46 253.51 34.31 256.40
  C 30.94 258.29 31.09 263.13 33.51 265.81
  Q 36.74 269.40 41.67 266.56
  Q 41.39 271.60 40.45 276.60
  Q 39.11 283.75 39.07 285.48
  Q 38.96 290.63 40.81 294.45
  Q 42.75 298.44 45.03 302.26
  Q 45.97 303.84 46.99 303.78
  Q 50.14 303.60 51.70 306.42
  Q 45.86 303.08 42.75 305.88
  Q 39.91 308.43 40.96 312.73
  Q 42.20 317.80 49.05 316.67
  Q 47.62 323.39 49.47 332.29
  Q 50.24 336.03 51.74 338.82
  Q 53.00 341.15 55.38 343.46
  C 58.33 346.33 60.72 349.85 63.08 353.23
  C 64.82 355.74 69.19 356.86 68.49 360.53
  Q 66.83 355.96 62.69 355.44
  C 55.31 354.51 53.41 364.60 59.76 367.42
  C 62.63 368.69 65.77 367.72 67.29 364.97
  Q 67.93 363.82 68.58 362.61
  Q 68.11 372.94 70.32 379.64
  Q 72.94 387.57 78.91 393.63
  Q 86.93 401.75 90.94 411.39
  Q 91.55 412.85 91.94 414.41
  Q 92.40 416.28 93.42 416.94
  Q 95.95 430.71 99.26 442.25
  Q 99.52 443.15 99.02 443.61
  Q 91.14 440.11 85.31 431.97
  C 82.46 427.99 80.14 424.89 78.83 419.51
  C 77.33 413.35 72.17 407.21 67.58 402.68
  Q 55.98 391.23 54.04 374.01
  C 53.58 369.95 53.48 366.48 51.34 362.78
  C 48.58 357.99 45.08 354.35 41.41 350.21
  C 36.26 344.38 34.79 335.98 34.00 328.46
  Q 33.13 320.12 32.38 312.47
  C 31.96 308.20 28.28 303.81 26.87 299.96
  Q 23.86 291.77 24.01 284.88
  Q 24.11 280.26 26.03 272.59
  C 26.28 271.59 26.15 270.34 25.60 269.44
  C 20.98 261.80 16.46 252.76 16.47 243.74
  C 16.47 237.24 18.78 230.91 20.61 224.63
  C 21.20 222.60 21.03 221.36 20.25 219.23
  C 16.29 208.47 17.14 193.01 26.81 185.38
  Q 30.63 182.37 35.49 180.12
  C 41.79 177.20 46.91 178.72 52.86 181.72
  Q 68.63 189.67 70.96 208.25
  Q 71.85 215.35 73.04 221.83
  Q 74.75 231.09 82.86 235.92
  Q 83.41 236.24 83.24 235.63
  C 80.53 225.55 80.35 214.98 82.48 204.67
  C 83.41 200.19 83.07 195.15 81.33 190.86
  C 79.74 186.94 77.03 183.73 75.14 179.89
  Q 69.99 169.40 71.85 157.63
  C 72.96 150.59 75.89 143.40 76.72 136.19
  Q 77.69 127.75 76.32 119.03
  C 75.15 111.64 71.36 105.07 70.69 97.49
  Q 68.95 77.73 77.78 62.25
  C 79.27 59.66 80.17 56.84 79.35 53.90
  Q 77.75 48.16 80.06 39.00
  Q 84.73 20.46 102.54 12.90
  Q 108.90 10.20 115.22 9.01
  C 130.66 6.10 136.34 21.44 139.25 33.00
  Q 140.07 36.25 142.50 37.79
  C 147.59 41.03 154.24 45.70 157.07 50.83
  Q 161.64 59.13 158.97 68.69
  C 157.48 74.02 154.69 77.83 156.97 83.74
  C 161.14 94.54 163.56 106.73 160.75 118.01
  Q 159.87 121.51 159.03 125.00
  C 156.28 136.37 160.04 144.22 165.13 154.25
  C 168.89 161.66 169.20 170.78 167.22 178.84
  Q 165.46 186.02 164.31 192.55
  C 163.07 199.58 163.23 206.24 165.35 213.11
  C 166.52 216.90 167.88 220.60 168.38 224.53
  Q 169.41 232.64 168.32 240.26
  Q 168.07 242.05 167.89 243.92
  C 167.38 249.35 165.32 255.09 163.32 260.31
  Q 160.86 266.73 162.40 274.14
  Q 162.57 274.98 162.97 274.22
  Q 164.03 272.17 165.77 270.26
  C 170.04 265.58 168.76 258.21 168.09 252.50
  Q 167.72 249.27 168.06 245.74
  Q 169.30 232.92 176.55 221.60
  C 178.76 218.16 181.83 215.32 184.71 212.37
  A 6.19 6.18 -22.5 0 0 186.46 208.16
  C 186.60 200.24 187.26 193.90 194.80 189.36
  C 203.85 183.90 213.12 180.23 222.58 187.74
  C 234.29 197.03 237.88 211.85 233.46 226.05
  Q 231.76 231.50 229.51 237.01
  C 226.79 243.67 228.45 249.95 228.41 256.74
  C 228.36 265.14 225.17 271.53 220.62 278.24
  C 216.68 284.05 217.61 292.06 217.12 298.51
  Q 216.36 308.66 212.15 316.36
  C 208.10 323.76 202.91 331.17 201.96 340.04
  C 201.52 344.11 202.39 348.16 202.99 352.26
  C 204.70 363.95 199.36 374.46 192.60 383.94
  Q 191.32 385.73 191.10 387.75
  Q 190.38 394.26 189.19 400.77
  Q 187.10 412.16 181.35 422.41
  Q 177.75 428.81 171.34 432.38
  Q 170.91 432.62 170.68 433.07
  Q 169.70 434.99 169.12 437.65
  C 166.95 447.58 157.40 455.19 146.95 451.92
  Z"
/>
<path fill="#4e9453" d="
  M 120.95 40.27
  Q 119.20 42.42 119.39 45.01
  Q 119.56 47.32 121.39 49.19
  Q 125.50 53.41 130.82 48.36
  Q 136.70 51.47 141.99 56.02
  Q 146.51 59.91 143.98 66.34
  C 141.24 73.33 139.66 80.31 142.46 87.51
  C 145.68 95.81 148.14 105.39 146.20 114.18
  Q 145.25 118.52 144.15 122.91
  C 141.09 135.21 144.45 147.38 150.50 158.39
  Q 154.81 166.21 152.90 174.21
  C 149.54 188.28 146.33 202.07 150.71 216.38
  C 151.94 220.42 153.41 224.19 153.70 228.50
  Q 154.60 242.09 149.60 254.23
  Q 144.41 266.80 148.59 280.58
  Q 149.52 283.67 150.13 286.61
  C 151.88 295.04 152.23 302.95 148.69 311.02
  Q 146.09 316.95 145.37 323.01
  Q 145.30 323.62 144.69 323.69
  Q 142.60 323.93 142.10 325.13
  Q 136.27 327.66 138.92 333.80
  Q 140.58 337.63 145.63 337.00
  Q 148.22 344.04 148.18 352.25
  Q 148.14 358.73 144.89 363.47
  C 141.31 368.69 138.66 375.00 138.51 380.94
  Q 138.39 385.42 139.38 391.21
  Q 140.76 399.37 136.04 407.12
  Q 136.00 381.67 135.21 369.00
  Q 134.62 359.51 132.87 350.94
  C 132.15 347.41 129.21 344.62 125.43 345.31
  C 122.14 345.90 120.80 349.05 120.29 352.00
  Q 119.45 356.88 118.57 365.56
  Q 115.52 362.77 116.00 358.29
  Q 119.87 355.51 118.47 350.75
  Q 117.59 347.77 113.62 346.77
  Q 112.76 339.56 113.43 333.49
  Q 114.47 324.19 112.37 315.82
  C 116.24 311.50 114.38 305.09 108.42 304.70
  Q 102.86 299.98 101.72 293.75
  Q 99.65 282.42 104.55 270.21
  C 109.76 268.51 111.13 262.84 107.23 259.05
  C 108.06 251.31 106.47 246.74 101.57 240.19
  Q 98.76 236.42 97.30 229.86
  C 104.76 231.77 109.70 223.65 103.72 218.58
  Q 100.60 215.94 96.52 217.10
  Q 95.88 213.81 96.57 210.75
  Q 97.80 205.22 98.06 200.21
  Q 98.14 198.71 97.66 195.33
  Q 97.21 192.19 97.95 190.34
  Q 104.33 189.37 104.68 184.64
  C 105.23 177.29 97.41 175.08 92.71 179.98
  C 87.66 173.02 84.88 166.27 87.06 157.56
  Q 87.82 154.49 91.06 143.07
  C 96.89 154.45 110.28 141.28 101.67 135.03
  C 98.24 132.54 93.94 134.34 91.79 137.81
  Q 93.36 123.84 90.15 111.84
  Q 89.05 107.71 87.34 103.05
  C 83.79 93.42 85.08 82.32 89.08 73.07
  Q 90.01 70.93 91.11 71.19
  Q 94.24 74.00 97.76 72.53
  C 103.30 70.23 103.34 62.56 97.54 60.43
  Q 96.08 60.01 95.22 59.15
  Q 94.86 58.79 94.87 58.28
  Q 94.98 54.71 94.15 51.29
  C 93.04 46.70 94.76 41.15 96.65 37.01
  C 100.16 29.32 109.67 25.31 117.83 23.87
  A 2.52 2.51 70.5 0 1 120.46 25.13
  Q 123.52 30.70 124.59 37.12
  A 0.86 0.86 0.0 0 1 123.98 38.08
  Q 122.13 38.60 120.95 40.27
  Z
  M 134.3336 73.0800
  A 7.13 6.61 -24.0 0 0 125.1315 69.9415
  A 7.13 6.61 -24.0 0 0 121.3064 78.8800
  A 7.13 6.61 -24.0 0 0 130.5085 82.0185
  A 7.13 6.61 -24.0 0 0 134.3336 73.0800
  Z
  M 89.9715 101.4401
  A 7.16 6.68 130.8 0 0 99.7067 100.3848
  A 7.16 6.68 130.8 0 0 99.3285 90.5999
  A 7.16 6.68 130.8 0 0 89.5933 91.6552
  A 7.16 6.68 130.8 0 0 89.9715 101.4401
  Z
  M 138.96 111.79
  A 6.37 6.37 0.0 0 0 132.59 105.42
  A 6.37 6.37 0.0 0 0 126.22 111.79
  A 6.37 6.37 0.0 0 0 132.59 118.16
  A 6.37 6.37 0.0 0 0 138.96 111.79
  Z
  M 140.81 158.54
  A 6.35 6.35 0.0 0 0 134.46 152.19
  A 6.35 6.35 0.0 0 0 128.11 158.54
  A 6.35 6.35 0.0 0 0 134.46 164.89
  A 6.35 6.35 0.0 0 0 140.81 158.54
  Z
  M 145.84 193.03
  A 6.37 6.37 0.0 0 0 139.47 186.66
  A 6.37 6.37 0.0 0 0 133.10 193.03
  A 6.37 6.37 0.0 0 0 139.47 199.40
  A 6.37 6.37 0.0 0 0 145.84 193.03
  Z
  M 145.26 238.20
  A 6.38 6.38 0.0 0 0 138.88 231.82
  A 6.38 6.38 0.0 0 0 132.50 238.20
  A 6.38 6.38 0.0 0 0 138.88 244.58
  A 6.38 6.38 0.0 0 0 145.26 238.20
  Z
  M 149.31 285.93
  A 6.38 6.38 0.0 0 0 142.93 279.55
  A 6.38 6.38 0.0 0 0 136.55 285.93
  A 6.38 6.38 0.0 0 0 142.93 292.31
  A 6.38 6.38 0.0 0 0 149.31 285.93
  Z"
/>
<path fill="#346338" d="
  M 130.82 48.36
  Q 125.50 53.41 121.39 49.19
  Q 119.56 47.32 119.39 45.01
  Q 119.20 42.42 120.95 40.27
  C 123.26 38.45 127.47 37.51 129.82 39.88
  Q 133.73 43.83 130.82 48.36
  Z"
/>
<path fill="#346338" d="
  M 97.54 60.43
  C 103.34 62.56 103.30 70.23 97.76 72.53
  Q 94.24 74.00 91.11 71.19
  Q 86.55 64.69 92.75 60.85
  Q 93.16 60.59 93.66 60.57
  L 97.54 60.43
  Z"
/>
<ellipse fill="#346338" cx="0.00" cy="0.00" transform="translate(127.82,75.98) rotate(-24.0)" rx="7.13" ry="6.61"/>
<ellipse fill="#346338" cx="0.00" cy="0.00" transform="translate(94.65,96.02) rotate(130.8)" rx="7.16" ry="6.68"/>
<circle fill="#346338" cx="132.59" cy="111.79" r="6.37"/>
<path fill="#346338" d="
  M 91.06 143.07
  L 91.79 137.81
  C 93.94 134.34 98.24 132.54 101.67 135.03
  C 110.28 141.28 96.89 154.45 91.06 143.07
  Z"
/>
<circle fill="#346338" cx="134.46" cy="158.54" r="6.35"/>
<path fill="#346338" d="
  M 97.95 190.34
  Q 88.59 189.29 92.71 179.98
  C 97.41 175.08 105.23 177.29 104.68 184.64
  Q 104.33 189.37 97.95 190.34
  Z"
/>
<circle fill="#346338" cx="139.47" cy="193.03" r="6.37"/>
<path fill="#4e9453" d="
  M 60.14 232.45
  Q 54.32 230.57 51.93 234.70
  C 46.92 243.37 60.91 249.57 63.49 239.05
  Q 69.08 244.47 76.69 249.81
  C 81.94 253.49 82.84 261.32 82.24 267.30
  Q 80.93 280.40 81.77 290.08
  C 82.08 293.64 83.42 298.59 84.99 302.24
  C 86.62 306.01 88.58 309.55 89.91 313.55
  C 93.24 323.53 93.82 333.06 94.60 343.45
  Q 95.43 354.38 101.80 366.33
  Q 104.95 372.26 106.47 381.00
  Q 108.38 391.99 107.68 408.39
  Q 103.40 397.42 99.77 386.62
  Q 98.52 382.91 96.37 380.47
  C 94.28 378.11 89.65 378.95 88.80 381.73
  C 87.85 384.84 87.80 388.89 88.24 392.00
  Q 89.92 403.92 93.42 416.94
  Q 92.40 416.28 91.94 414.41
  Q 91.55 412.85 90.94 411.39
  Q 86.93 401.75 78.91 393.63
  Q 72.94 387.57 70.32 379.64
  Q 68.11 372.94 68.58 362.61
  L 68.49 360.53
  C 69.19 356.86 64.82 355.74 63.08 353.23
  C 60.72 349.85 58.33 346.33 55.38 343.46
  Q 53.00 341.15 51.74 338.82
  Q 50.24 336.03 49.47 332.29
  Q 47.62 323.39 49.05 316.67
  Q 55.96 313.19 51.70 306.42
  Q 50.14 303.60 46.99 303.78
  Q 45.97 303.84 45.03 302.26
  Q 42.75 298.44 40.81 294.45
  Q 38.96 290.63 39.07 285.48
  Q 39.11 283.75 40.45 276.60
  Q 41.39 271.60 41.67 266.56
  Q 46.12 263.38 43.45 257.85
  C 42.01 255.02 39.36 254.30 36.23 254.99
  Q 35.09 255.25 34.41 254.07
  Q 28.69 244.07 34.02 233.32
  C 40.35 232.08 41.97 224.83 36.59 221.29
  C 35.71 217.21 33.60 213.20 33.30 209.47
  C 32.71 202.09 33.43 197.45 40.97 194.12
  C 44.62 192.50 51.33 198.49 52.94 200.75
  C 56.06 205.13 56.42 212.13 57.13 217.62
  Q 57.86 223.36 60.14 232.45
  Z
  M 80.28 278.75
  A 6.38 6.38 0.0 0 0 73.90 272.37
  A 6.38 6.38 0.0 0 0 67.52 278.75
  A 6.38 6.38 0.0 0 0 73.90 285.13
  A 6.38 6.38 0.0 0 0 80.28 278.75
  Z
  M 88.43 321.73
  A 6.38 6.38 0.0 0 0 82.05 315.35
  A 6.38 6.38 0.0 0 0 75.67 321.73
  A 6.38 6.38 0.0 0 0 82.05 328.11
  A 6.38 6.38 0.0 0 0 88.43 321.73
  Z
  M 89.7270 376.7204
  A 7.17 6.61 122.6 0 0 99.1586 374.2413
  A 7.17 6.61 122.6 0 0 97.4530 364.6396
  A 7.17 6.61 122.6 0 0 88.0214 367.1187
  A 7.17 6.61 122.6 0 0 89.7270 376.7204
  Z"
/>
<path fill="#4e9453" d="
  M 216.69 228.02
  C 213.48 222.58 205.17 224.03 204.70 230.54
  C 204.33 235.74 209.25 238.64 213.98 236.71
  Q 212.04 244.12 213.40 252.99
  Q 214.71 261.55 209.07 267.82
  Q 205.75 266.07 203.02 267.14
  Q 200.51 268.12 199.41 271.17
  Q 197.50 276.46 203.73 279.32
  Q 202.76 284.47 202.56 293.75
  Q 202.31 304.84 196.36 314.10
  Q 195.89 314.83 194.43 313.53
  C 191.88 309.61 185.67 310.23 183.78 314.08
  Q 182.39 316.92 183.59 319.95
  Q 185.23 324.07 191.09 323.49
  Q 187.54 331.74 186.86 340.31
  C 186.50 344.94 187.39 349.20 188.02 353.79
  C 189.29 362.96 183.90 370.16 179.07 377.37
  Q 176.80 380.76 176.25 385.74
  C 175.06 396.42 173.53 406.89 167.66 416.07
  C 166.08 418.53 163.20 419.66 161.03 421.59
  Q 156.28 425.79 154.90 433.13
  Q 154.62 434.64 153.81 436.07
  Q 153.14 437.25 152.23 436.77
  Q 155.24 427.51 158.80 418.49
  Q 163.64 406.26 165.56 400.30
  Q 171.64 381.45 176.56 362.25
  C 177.59 358.23 178.98 352.12 177.10 348.52
  Q 173.61 341.86 167.21 345.24
  Q 166.65 344.58 166.60 342.69
  Q 175.51 344.20 175.30 336.25
  Q 175.17 331.60 170.00 330.41
  Q 169.03 330.26 168.93 330.27
  Q 166.25 330.58 167.98 328.50
  C 172.89 322.64 174.15 316.46 174.88 308.00
  Q 179.95 310.33 183.30 307.25
  C 185.24 305.46 185.99 302.32 184.87 299.96
  Q 181.90 293.69 174.84 296.13
  Q 171.19 295.42 173.01 288.26
  C 173.91 284.72 175.39 281.81 177.81 279.08
  C 182.54 273.75 184.03 266.29 183.82 259.22
  A 0.71 0.70 83.9 0 1 184.39 258.50
  L 187.71 257.83
  Q 193.28 255.31 192.00 250.50
  Q 190.43 244.56 183.44 245.73
  Q 184.33 235.33 190.84 227.35
  Q 192.47 225.34 195.29 223.45
  A 1.28 1.25 32.6 0 1 196.19 223.26
  Q 198.55 223.66 200.68 222.43
  Q 207.42 217.50 201.66 211.26
  L 201.77 203.51
  Q 201.78 202.90 202.26 202.53
  Q 206.04 199.63 210.57 198.51
  Q 211.18 198.36 211.75 198.61
  Q 212.81 199.08 213.71 199.82
  C 222.18 206.82 221.59 218.69 216.69 228.02
  Z"
/>
<path fill="#346338" d="
  M 201.66 211.26
  Q 207.42 217.50 200.68 222.43
  Q 193.61 223.44 192.01 219.12
  Q 190.61 215.34 193.14 212.25
  Q 195.84 208.96 201.66 211.26
  Z"
/>
<path fill="#346338" d="
  M 97.30 229.86
  Q 93.01 228.30 92.32 224.50
  Q 91.33 219.02 96.52 217.10
  Q 100.60 215.94 103.72 218.58
  C 109.70 223.65 104.76 231.77 97.30 229.86
  Z"
/>
<path fill="#346338" d="
  M 36.59 221.29
  C 41.97 224.83 40.35 232.08 34.02 233.32
  Q 28.24 233.02 27.29 228.63
  C 25.99 222.56 30.85 219.44 36.59 221.29
  Z"
/>
<path fill="#346338" d="
  M 216.69 228.02
  Q 218.85 233.53 213.98 236.71
  C 209.25 238.64 204.33 235.74 204.70 230.54
  C 205.17 224.03 213.48 222.58 216.69 228.02
  Z"
/>
<circle fill="#346338" cx="138.88" cy="238.20" r="6.38"/>
<path fill="#346338" d="
  M 60.14 232.45
  Q 63.82 234.70 63.49 239.05
  C 60.91 249.57 46.92 243.37 51.93 234.70
  Q 54.32 230.57 60.14 232.45
  Z"
/>
<path fill="#346338" d="
  M 187.71 257.83
  C 185.61 257.92 183.12 257.91 181.42 256.50
  Q 177.84 253.53 179.86 248.84
  Q 180.81 246.64 183.44 245.73
  Q 190.43 244.56 192.00 250.50
  Q 193.28 255.31 187.71 257.83
  Z"
/>
<path fill="#346338" d="
  M 43.45 257.85
  Q 46.12 263.38 41.67 266.56
  Q 36.74 269.40 33.51 265.81
  C 31.09 263.13 30.94 258.29 34.31 256.40
  Q 39.46 253.51 43.45 257.85
  Z"
/>
<path fill="#346338" d="
  M 107.23 259.05
  C 111.13 262.84 109.76 268.51 104.55 270.21
  C 97.42 271.32 93.57 262.63 99.62 258.63
  Q 102.94 256.44 107.23 259.05
  Z"
/>
<path fill="#346338" d="
  M 209.07 267.82
  Q 213.14 270.96 211.32 275.50
  Q 209.47 280.09 203.73 279.32
  Q 197.50 276.46 199.41 271.17
  Q 200.51 268.12 203.02 267.14
  Q 205.75 266.07 209.07 267.82
  Z"
/>
<circle fill="#346338" cx="73.90" cy="278.75" r="6.38"/>
<circle fill="#346338" cx="142.93" cy="285.93" r="6.38"/>
<path fill="#346338" d="
  M 174.88 308.00
  Q 167.55 301.65 174.84 296.13
  Q 181.90 293.69 184.87 299.96
  C 185.99 302.32 185.24 305.46 183.30 307.25
  Q 179.95 310.33 174.88 308.00
  Z"
/>
<path fill="#346338" d="
  M 51.70 306.42
  Q 55.96 313.19 49.05 316.67
  Q 42.20 317.80 40.96 312.73
  Q 39.91 308.43 42.75 305.88
  Q 45.86 303.08 51.70 306.42
  Z"
/>
<path fill="#346338" d="
  M 108.42 304.70
  C 114.38 305.09 116.24 311.50 112.37 315.82
  Q 107.00 319.14 103.76 315.64
  Q 101.21 312.89 101.99 309.32
  Q 102.91 305.15 108.42 304.70
  Z"
/>
<path fill="#346338" d="
  M 194.43 313.53
  Q 198.06 320.56 191.09 323.49
  Q 185.23 324.07 183.59 319.95
  Q 182.39 316.92 183.78 314.08
  C 185.67 310.23 191.88 309.61 194.43 313.53
  Z"
/>
<circle fill="#346338" cx="82.05" cy="321.73" r="6.38"/>
<path fill="#346338" d="
  M 145.63 337.00
  Q 140.58 337.63 138.92 333.80
  Q 136.27 327.66 142.10 325.13
  C 146.90 323.95 150.59 325.62 150.75 330.84
  Q 150.90 335.74 145.63 337.00
  Z"
/>
<path fill="#346338" d="
  M 170.00 330.41
  Q 175.17 331.60 175.30 336.25
  Q 175.51 344.20 166.60 342.69
  C 161.60 340.92 161.49 334.45 165.42 331.39
  Q 166.54 330.52 170.00 330.41
  Z"
/>
<path fill="#704f39" d="
  M 152.23 436.77
  L 146.95 451.92
  L 141.65 475.00
  L 104.71 475.00
  Q 104.31 464.73 103.08 459.75
  Q 101.17 452.03 99.58 444.24
  Q 99.51 443.92 99.02 443.61
  Q 99.52 443.15 99.26 442.25
  Q 95.95 430.71 93.42 416.94
  Q 89.92 403.92 88.24 392.00
  C 87.80 388.89 87.85 384.84 88.80 381.73
  C 89.65 378.95 94.28 378.11 96.37 380.47
  Q 98.52 382.91 99.77 386.62
  Q 103.40 397.42 107.68 408.39
  L 114.53 430.67
  Q 115.13 432.61 115.14 430.58
  C 115.28 411.99 116.72 393.05 117.81 374.25
  Q 118.09 369.46 118.57 365.56
  Q 119.45 356.88 120.29 352.00
  C 120.80 349.05 122.14 345.90 125.43 345.31
  C 129.21 344.62 132.15 347.41 132.87 350.94
  Q 134.62 359.51 135.21 369.00
  Q 136.00 381.67 136.04 407.12
  L 135.88 429.84
  Q 135.87 430.72 136.15 429.88
  Q 144.91 403.10 153.15 375.95
  C 155.88 366.97 158.97 358.91 162.84 351.33
  Q 164.20 348.67 167.21 345.24
  Q 173.61 341.86 177.10 348.52
  C 178.98 352.12 177.59 358.23 176.56 362.25
  Q 171.64 381.45 165.56 400.30
  Q 163.64 406.26 158.80 418.49
  Q 155.24 427.51 152.23 436.77
  Z"
/>
<path fill="#346338" d="
  M 113.62 346.77
  Q 117.59 347.77 118.47 350.75
  Q 119.87 355.51 116.00 358.29
  C 109.74 362.09 103.00 354.89 107.45 349.17
  Q 109.59 346.43 113.62 346.77
  Z"
/>
<path fill="#346338" d="
  M 68.49 360.53
  L 68.58 362.61
  Q 67.93 363.82 67.29 364.97
  C 65.77 367.72 62.63 368.69 59.76 367.42
  C 53.41 364.60 55.31 354.51 62.69 355.44
  Q 66.83 355.96 68.49 360.53
  Z"
/>
<ellipse fill="#346338" cx="0.00" cy="0.00" transform="translate(93.59,370.68) rotate(122.6)" rx="7.17" ry="6.61"/>
</svg>
