<?xml version="1.0" encoding="UTF-8" standalone="no"?>
<!DOCTYPE svg PUBLIC "-//W3C//DTD SVG 1.1//EN" "http://www.w3.org/Graphics/SVG/1.1/DTD/svg11.dtd">
<svg xmlns="http://www.w3.org/2000/svg" version="1.1" viewBox="0.00 0.00 257.00 625.00">
<g stroke-width="2.00" fill="none" stroke-linecap="butt">
<path stroke="#3b713f" vector-effect="non-scaling-stroke" d="
  M 221.92 356.50
  L 221.89 362.73"
/>
<path stroke="#596740" vector-effect="non-scaling-stroke" d="
  M 144.37 598.20
  Q 147.51 588.12 151.36 580.44"
/>
<path stroke="#48894d" vector-effect="non-scaling-stroke" d="
  M 151.36 580.44
  Q 157.53 578.22 161.69 574.68
  Q 166.78 570.34 169.34 563.53
  Q 173.64 552.11 178.92 538.73
  C 181.58 531.98 184.58 525.61 189.75 520.06
  C 192.18 517.45 196.52 513.21 196.60 509.50
  Q 196.72 504.35 195.45 498.03"
/>
<path stroke="#3b713f" vector-effect="non-scaling-stroke" d="
  M 195.45 498.03
  Q 200.88 499.15 202.95 494.95
  C 205.65 489.48 200.80 484.23 194.99 486.00"
/>
<path stroke="#48894d" vector-effect="non-scaling-stroke" d="
  M 194.99 486.00
  Q 195.72 484.96 196.65 481.24
  C 198.99 471.83 202.64 462.85 205.99 453.77
  Q 206.98 451.09 206.92 447.75"
/>
<path stroke="#3b713f" vector-effect="non-scaling-stroke" d="
  M 206.92 447.75
  Q 207.63 444.54 206.37 441.62"
/>
<path stroke="#48894d" vector-effect="non-scaling-stroke" d="
  M 206.37 441.62
  Q 206.08 439.74 204.54 434.68
  C 203.39 430.92 203.50 425.91 204.32 421.84
  C 205.71 414.89 208.53 408.00 210.64 401.36
  C 211.96 397.19 211.96 392.19 210.33 388.09
  C 207.02 379.73 203.62 368.18 207.62 359.46
  A 1.38 1.36 42.9 0 0 207.57 358.22
  Q 205.56 354.57 204.91 349.50"
/>
<path stroke="#3b713f" vector-effect="non-scaling-stroke" d="
  M 204.91 349.50
  Q 210.20 345.56 205.84 339.64"
/>
<path stroke="#48894d" vector-effect="non-scaling-stroke" d="
  M 205.84 339.64
  Q 207.09 340.33 207.22 338.75
  Q 207.62 334.01 206.63 329.23
  C 206.08 326.62 204.88 324.33 203.80 321.94
  C 200.04 313.55 204.95 304.66 205.39 296.32
  Q 205.86 287.60 202.78 279.21
  Q 199.90 271.33 199.32 269.25
  Q 197.09 261.28 197.92 251.43"
/>
<path stroke="#3b713f" vector-effect="non-scaling-stroke" d="
  M 197.92 251.43
  Q 205.06 246.90 199.58 240.12"
/>
<path stroke="#48894d" vector-effect="non-scaling-stroke" d="
  M 199.58 240.12
  Q 201.73 234.19 201.96 227.75
  Q 202.12 222.94 200.36 219.09
  C 198.16 214.27 194.96 210.29 194.37 204.78
  C 193.76 199.00 194.47 194.00 195.78 187.59
  Q 197.38 179.82 198.22 172.78
  C 198.55 170.01 197.98 167.41 195.73 165.52
  C 191.67 162.10 191.10 158.38 190.63 153.19"
/>
<path stroke="#3b713f" vector-effect="non-scaling-stroke" d="
  M 190.63 153.19
  Q 194.72 152.84 196.01 149.50
  Q 197.76 144.98 193.94 141.75"
/>
<path stroke="#48894d" vector-effect="non-scaling-stroke" d="
  M 193.94 141.75
  Q 196.52 134.34 193.16 126.52
  Q 190.30 119.85 187.13 112.76"
/>
<path stroke="#3b713f" vector-effect="non-scaling-stroke" d="
  M 187.13 112.76
  Q 190.77 108.55 186.94 103.93"
/>
<path stroke="#48894d" vector-effect="non-scaling-stroke" d="
  M 186.94 103.93
  Q 189.39 95.73 191.58 88.28
  C 192.98 83.51 193.53 77.47 188.66 74.59
  Q 183.92 71.79 179.40 69.32
  Q 177.41 68.23 178.17 70.37
  Q 178.84 72.27 177.00 74.42"
/>
<path stroke="#3b713f" vector-effect="non-scaling-stroke" d="
  M 177.00 74.42
  Q 179.74 65.88 171.57 64.55"
/>
<path stroke="#48894d" vector-effect="non-scaling-stroke" d="
  M 171.57 64.55
  Q 172.10 64.69 172.41 64.40
  Q 172.80 64.03 172.47 63.60
  C 166.65 55.97 168.81 49.29 170.33 40.78
  C 170.59 39.31 169.54 38.56 168.30 38.16
  C 158.67 35.09 156.22 39.92 153.90 47.33
  Q 152.42 52.04 152.18 55.01
  Q 150.77 72.19 146.74 86.37"
/>
<path stroke="#3b713f" vector-effect="non-scaling-stroke" d="
  M 146.74 86.37
  Q 142.36 90.82 145.23 95.42"
/>
<path stroke="#48894d" vector-effect="non-scaling-stroke" d="
  M 145.23 95.42
  Q 144.03 98.56 143.78 101.80
  C 143.47 105.78 146.11 109.62 146.89 113.10
  Q 148.18 118.89 147.91 127.96"
/>
<path stroke="#3b713f" vector-effect="non-scaling-stroke" d="
  M 147.91 127.96
  L 147.17 133.73"
/>
<path stroke="#48894d" vector-effect="non-scaling-stroke" d="
  M 147.17 133.73
  Q 145.31 139.45 146.63 143.51
  C 147.63 146.62 148.75 149.53 149.27 152.74
  Q 150.65 161.30 151.47 170.28"
/>
<path stroke="#3b713f" vector-effect="non-scaling-stroke" d="
  M 151.47 170.28
  Q 146.68 174.37 150.06 179.74"
/>
<path stroke="#48894d" vector-effect="non-scaling-stroke" d="
  M 150.06 179.74
  Q 145.64 195.34 153.06 210.09"
/>
<path stroke="#3b713f" vector-effect="non-scaling-stroke" d="
  M 153.06 210.09
  Q 151.20 214.90 154.84 218.18"
/>
<path stroke="#48894d" vector-effect="non-scaling-stroke" d="
  M 154.84 218.18
  Q 156.67 230.70 157.20 239.25
  C 158.02 252.43 154.79 266.55 152.31 279.73
  Q 150.22 290.78 151.29 301.38
  C 152.16 309.99 155.21 319.70 156.18 328.50
  Q 156.87 334.74 156.90 340.78
  Q 156.97 353.68 157.34 367.02
  Q 157.55 374.27 159.86 383.70
  C 160.69 387.06 163.07 388.61 161.50 392.58
  Q 161.02 393.79 161.72 394.93
  Q 165.82 401.68 166.94 408.90
  A 2.28 2.28 0.0 0 0 169.12 410.83
  Q 172.60 410.94 174.30 413.91
  Q 176.61 417.95 174.08 421.24"
/>
<path stroke="#3b713f" vector-effect="non-scaling-stroke" d="
  M 174.08 421.24
  Q 175.68 418.01 174.60 415.55
  Q 173.03 412.00 168.28 411.67
  C 162.11 411.24 160.45 419.91 165.11 422.97
  Q 166.03 423.57 167.58 423.75
  Q 168.89 423.89 170.23 424.04"
/>
<path stroke="#48894d" vector-effect="non-scaling-stroke" d="
  M 170.23 424.04
  Q 168.93 424.57 166.84 424.40
  A 0.54 0.53 10.1 0 0 166.29 424.78
  Q 163.56 433.85 161.22 442.25
  C 159.82 447.28 161.32 452.04 163.26 456.58
  A 1.15 1.14 -26.9 0 0 164.90 457.11
  Q 166.64 456.07 168.90 455.85
  Q 171.36 455.61 173.09 457.41
  Q 177.52 462.00 173.61 467.09
  Q 173.19 467.64 172.30 467.96"
/>
<path stroke="#3b713f" vector-effect="non-scaling-stroke" d="
  M 172.30 467.96
  Q 173.33 466.81 174.13 465.55
  Q 174.97 464.23 174.86 462.82
  Q 174.45 457.43 168.93 456.61
  C 166.19 456.20 162.55 459.21 162.42 461.98
  Q 162.20 466.62 166.25 468.56
  Q 166.69 468.77 167.17 468.74
  L 171.47 468.49"
/>
<path stroke="#48894d" vector-effect="non-scaling-stroke" d="
  M 171.47 468.49
  L 169.50 469.50
  A 1.09 1.09 0.0 0 0 168.98 470.83
  Q 173.05 482.11 171.14 494.00
  Q 170.18 499.99 167.56 509.83"
/>
<path stroke="#3b713f" vector-effect="non-scaling-stroke" d="
  M 167.56 509.83
  Q 162.97 507.40 159.76 510.04
  C 156.82 512.47 156.55 516.98 159.33 519.65
  Q 162.33 522.54 166.65 520.75"
/>
<path stroke="#48894d" vector-effect="non-scaling-stroke" d="
  M 166.65 520.75
  L 167.99 527.90"
/>
<path stroke="#596740" vector-effect="non-scaling-stroke" d="
  M 167.99 527.90
  Q 162.62 532.71 161.29 534.29
  Q 149.33 548.59 139.90 568.94"
/>
<path stroke="#48894d" vector-effect="non-scaling-stroke" d="
  M 139.90 568.94
  Q 140.01 563.75 142.28 559.06
  Q 146.21 550.89 150.02 543.02
  Q 154.05 534.69 152.28 526.53
  Q 150.80 519.77 150.89 515.26
  Q 150.90 514.79 150.49 515.02
  Q 150.28 515.14 150.04 515.48"
/>
<path stroke="#596740" vector-effect="non-scaling-stroke" d="
  M 150.04 515.48
  Q 149.85 513.95 150.28 513.12"
/>
<path stroke="#3b713f" vector-effect="non-scaling-stroke" d="
  M 150.28 513.12
  Q 153.84 512.71 155.15 510.16
  Q 157.48 505.63 153.46 501.80"
/>
<path stroke="#48894d" vector-effect="non-scaling-stroke" d="
  M 153.46 501.80
  Q 155.08 498.84 156.07 493.25
  Q 157.91 482.84 154.32 474.47
  Q 150.90 466.51 147.95 458.51
  Q 144.98 450.46 145.78 443.14
  C 146.48 436.66 149.54 429.29 151.26 422.50
  Q 155.45 405.93 142.48 395.63"
/>
<path stroke="#3b713f" vector-effect="non-scaling-stroke" d="
  M 142.48 395.63
  Q 142.36 391.42 139.01 389.25"
/>
<path stroke="#48894d" vector-effect="non-scaling-stroke" d="
  M 139.01 389.25
  Q 136.54 384.32 136.34 378.24
  Q 136.14 372.07 136.43 364.97
  Q 136.65 359.44 134.41 355.99
  Q 130.22 349.54 124.28 354.18
  Q 116.53 360.22 113.07 369.57"
/>
<path stroke="#3b713f" vector-effect="non-scaling-stroke" d="
  M 113.07 369.57
  Q 108.19 367.67 105.42 370.58
  Q 103.01 373.11 103.78 376.83
  Q 104.86 382.00 111.69 381.27"
/>
<path stroke="#48894d" vector-effect="non-scaling-stroke" d="
  M 111.69 381.27
  C 108.39 386.18 113.49 401.11 115.45 407.52"
/>
<path stroke="#3b713f" vector-effect="non-scaling-stroke" d="
  M 115.45 407.52
  C 109.88 408.25 106.90 413.28 110.25 417.90
  Q 112.20 420.60 116.23 420.33"
/>
<path stroke="#48894d" vector-effect="non-scaling-stroke" d="
  M 116.23 420.33
  Q 114.03 435.25 114.21 450.50
  Q 114.25 453.72 115.89 455.97"
/>
<path stroke="#3b713f" vector-effect="non-scaling-stroke" d="
  M 115.89 455.97
  Q 112.64 460.97 116.95 464.81
  Q 119.44 467.03 123.11 465.79"
/>
<path stroke="#48894d" vector-effect="non-scaling-stroke" d="
  M 123.11 465.79
  Q 123.57 467.65 124.32 469.43
  Q 125.29 471.74 125.65 473.00
  Q 128.18 481.84 129.18 487.25
  Q 130.69 495.46 129.99 506.53
  Q 129.66 511.81 131.11 515.98
  Q 132.12 518.86 131.75 521.49
  C 130.84 528.09 123.29 529.55 119.08 524.99
  Q 117.16 522.90 116.32 520.22
  Q 111.04 503.44 112.36 486.58
  C 112.60 483.49 112.09 480.67 110.41 478.02
  C 107.42 473.29 103.64 468.83 101.14 463.83
  Q 94.80 451.18 95.80 435.10
  Q 96.02 431.43 96.29 427.96
  C 96.79 421.48 95.71 414.64 93.63 408.59
  C 91.68 402.93 87.99 398.02 84.93 392.89
  Q 80.04 384.67 79.76 372.73
  Q 79.46 360.25 78.43 350.50
  Q 77.36 340.31 71.30 332.22
  Q 69.93 330.39 65.64 326.80
  C 60.55 322.53 57.50 317.44 56.30 310.98
  Q 54.67 302.28 52.95 293.82
  Q 52.32 290.74 49.56 290.35
  Q 45.96 289.85 42.44 290.08
  C 36.79 290.46 34.98 296.58 34.54 301.35
  Q 34.02 306.98 33.69 312.83
  A 1.65 1.65 0.0 0 0 35.23 314.58
  Q 36.86 314.69 38.23 315.94"
/>
<path stroke="#3b713f" vector-effect="non-scaling-stroke" d="
  M 38.23 315.94
  C 35.86 315.41 32.60 314.98 30.74 316.73
  Q 27.30 319.98 29.17 324.32
  C 30.58 327.60 33.57 327.36 36.50 327.79"
/>
<path stroke="#48894d" vector-effect="non-scaling-stroke" d="
  M 36.50 327.79
  Q 34.77 328.62 33.23 328.25
  Q 32.55 328.09 32.47 328.77
  Q 31.77 334.50 32.70 339.35
  C 33.58 343.92 36.55 348.39 38.87 352.51
  A 1.09 1.06 69.9 0 0 40.00 353.05
  Q 40.10 353.03 40.18 352.51"
/>
<path stroke="#3b713f" vector-effect="non-scaling-stroke" d="
  M 40.18 352.51
  C 40.24 354.04 39.89 355.71 40.29 357.07
  C 40.86 359.01 43.23 359.70 44.76 360.78"
/>
<path stroke="#48894d" vector-effect="non-scaling-stroke" d="
  M 44.76 360.78
  Q 43.99 360.64 43.58 360.79
  Q 43.06 360.99 43.25 361.51
  Q 47.83 374.11 49.74 382.00
  Q 51.98 391.31 50.78 403.51"
/>
<path stroke="#3b713f" vector-effect="non-scaling-stroke" d="
  M 50.78 403.51
  Q 47.11 408.26 51.10 412.76"
/>
<path stroke="#48894d" vector-effect="non-scaling-stroke" d="
  M 51.10 412.76
  Q 51.39 420.13 54.29 426.25
  C 57.57 433.18 62.54 441.77 66.31 450.73"
/>
<path stroke="#3b713f" vector-effect="non-scaling-stroke" d="
  M 66.31 450.73
  C 58.78 453.99 61.07 463.97 69.43 463.25"
/>
<path stroke="#48894d" vector-effect="non-scaling-stroke" d="
  M 69.43 463.25
  Q 70.70 472.88 71.46 482.50
  Q 72.00 489.44 74.77 496.12"
/>
<path stroke="#3b713f" vector-effect="non-scaling-stroke" d="
  M 74.77 496.12
  Q 74.09 502.12 79.26 504.22"
/>
<path stroke="#48894d" vector-effect="non-scaling-stroke" d="
  M 79.26 504.22
  Q 85.92 514.44 94.45 523.18"
/>
<path stroke="#596740" vector-effect="non-scaling-stroke" d="
  M 94.45 523.18
  Q 99.97 531.98 103.20 542.27
  Q 107.02 554.40 110.95 566.50
  Q 113.08 573.09 114.02 585.36"
/>
<path stroke="#3b713f" vector-effect="non-scaling-stroke" d="
  M 128.55 496.92
  A 6.34 6.34 0.0 0 0 122.21 490.58
  A 6.34 6.34 0.0 0 0 115.87 496.92
  A 6.34 6.34 0.0 0 0 122.21 503.26
  A 6.34 6.34 0.0 0 0 128.55 496.92"
/>
<path stroke="#417c46" vector-effect="non-scaling-stroke" d="
  M 171.57 64.55
  C 163.81 64.94 162.96 75.48 170.24 77.11
  Q 174.04 77.97 177.00 74.42"
/>
<path stroke="#417c46" vector-effect="non-scaling-stroke" d="
  M 186.94 103.93
  Q 184.10 101.19 180.45 102.42
  C 171.31 105.52 178.60 120.36 187.13 112.76"
/>
<path stroke="#417c46" vector-effect="non-scaling-stroke" d="
  M 193.94 141.75
  Q 189.36 139.27 186.18 141.91
  C 181.48 145.83 184.01 153.77 190.63 153.19"
/>
<path stroke="#417c46" vector-effect="non-scaling-stroke" d="
  M 199.58 240.12
  Q 195.74 238.27 192.85 239.62
  C 188.85 241.48 188.10 246.57 191.12 249.89
  Q 193.34 252.33 197.92 251.43"
/>
<path stroke="#417c46" vector-effect="non-scaling-stroke" d="
  M 205.84 339.64
  Q 202.02 336.41 198.27 338.76
  C 191.29 343.15 196.77 353.80 204.91 349.50"
/>
<path stroke="#417c46" vector-effect="non-scaling-stroke" d="
  M 206.37 441.62
  Q 203.43 437.81 199.49 438.94
  C 191.71 441.17 193.87 452.56 202.26 451.48
  Q 205.03 451.12 206.92 447.75"
/>
<path stroke="#417c46" vector-effect="non-scaling-stroke" d="
  M 194.99 486.00
  C 189.37 488.52 189.57 496.06 195.45 498.03"
/>
<path stroke="#5f7246" vector-effect="non-scaling-stroke" d="
  M 151.36 580.44
  Q 156.25 569.36 162.02 559.54
  C 166.47 551.97 172.31 544.58 177.89 537.49
  C 180.89 533.68 183.00 529.54 179.08 525.53
  C 175.89 522.26 170.79 525.57 167.99 527.90"
/>
<path stroke="#417c46" vector-effect="non-scaling-stroke" d="
  M 166.65 520.75
  Q 173.35 515.73 167.56 509.83"
/>
<path stroke="#417c46" vector-effect="non-scaling-stroke" d="
  M 171.47 468.49
  L 172.30 467.96"
/>
<path stroke="#417c46" vector-effect="non-scaling-stroke" d="
  M 170.23 424.04
  Q 172.57 423.35 174.08 421.24"
/>
<path stroke="#417c46" vector-effect="non-scaling-stroke" d="
  M 154.84 218.18
  C 162.78 223.11 169.42 212.10 161.86 207.59
  Q 157.17 204.79 153.06 210.09"
/>
<path stroke="#417c46" vector-effect="non-scaling-stroke" d="
  M 150.06 179.74
  Q 153.19 182.74 156.45 181.89
  C 165.31 179.57 161.34 165.69 151.47 170.28"
/>
<path stroke="#417c46" vector-effect="non-scaling-stroke" d="
  M 147.17 133.73
  C 149.58 138.00 154.06 139.53 157.71 136.18
  C 163.90 130.52 155.06 120.40 147.91 127.96"
/>
<path stroke="#417c46" vector-effect="non-scaling-stroke" d="
  M 145.23 95.42
  C 149.69 100.97 157.90 97.40 156.57 90.57
  Q 155.21 83.58 146.74 86.37"
/>
<path stroke="#417c46" vector-effect="non-scaling-stroke" d="
  M 166.09 54.17
  A 6.37 6.37 0.0 0 0 159.72 47.80
  A 6.37 6.37 0.0 0 0 153.35 54.17
  A 6.37 6.37 0.0 0 0 159.72 60.54
  A 6.37 6.37 0.0 0 0 166.09 54.17"
/>
<path stroke="#417c46" vector-effect="non-scaling-stroke" d="
  M 193.62 191.69
  A 6.36 6.36 0.0 0 0 187.26 185.33
  A 6.36 6.36 0.0 0 0 180.90 191.69
  A 6.36 6.36 0.0 0 0 187.26 198.05
  A 6.36 6.36 0.0 0 0 193.62 191.69"
/>
<path stroke="#417c46" vector-effect="non-scaling-stroke" d="
  M 170.38 268.77
  A 6.38 6.38 0.0 0 0 164.00 262.39
  A 6.38 6.38 0.0 0 0 157.62 268.77
  A 6.38 6.38 0.0 0 0 164.00 275.15
  A 6.38 6.38 0.0 0 0 170.38 268.77"
/>
<path stroke="#417c46" vector-effect="non-scaling-stroke" d="
  M 202.26 294.49
  A 6.37 6.37 0.0 0 0 195.89 288.12
  A 6.37 6.37 0.0 0 0 189.52 294.49
  A 6.37 6.37 0.0 0 0 195.89 300.86
  A 6.37 6.37 0.0 0 0 202.26 294.49"
/>
<path stroke="#417c46" vector-effect="non-scaling-stroke" d="
  M 167.73 316.44
  A 6.36 6.36 0.0 0 0 161.37 310.08
  A 6.36 6.36 0.0 0 0 155.01 316.44
  A 6.36 6.36 0.0 0 0 161.37 322.80
  A 6.36 6.36 0.0 0 0 167.73 316.44"
/>
<path stroke="#417c46" vector-effect="non-scaling-stroke" d="
  M 175.63 366.80
  A 6.36 6.36 0.0 0 0 169.27 360.44
  A 6.36 6.36 0.0 0 0 162.91 366.80
  A 6.36 6.36 0.0 0 0 169.27 373.16
  A 6.36 6.36 0.0 0 0 175.63 366.80"
/>
<path stroke="#417c46" vector-effect="non-scaling-stroke" d="
  M 206.30 393.74
  A 6.37 6.37 0.0 0 0 199.93 387.37
  A 6.37 6.37 0.0 0 0 193.56 393.74
  A 6.37 6.37 0.0 0 0 199.93 400.11
  A 6.37 6.37 0.0 0 0 206.30 393.74"
/>
<path stroke="#417c46" vector-effect="non-scaling-stroke" d="
  M 123.11 465.79
  Q 128.29 463.62 127.23 458.51
  C 126.12 453.21 119.43 451.70 115.89 455.97"
/>
<path stroke="#417c46" vector-effect="non-scaling-stroke" d="
  M 116.23 420.33
  C 123.98 418.43 123.27 408.79 115.45 407.52"
/>
<path stroke="#417c46" vector-effect="non-scaling-stroke" d="
  M 111.69 381.27
  C 117.14 379.09 117.84 372.99 113.07 369.57"
/>
<path stroke="#417c46" vector-effect="non-scaling-stroke" d="
  M 139.01 389.25
  C 127.69 385.74 126.50 401.79 136.48 401.36
  Q 140.97 401.17 142.48 395.63"
/>
<path stroke="#417c46" vector-effect="non-scaling-stroke" d="
  M 153.46 501.80
  Q 145.73 498.14 143.31 505.75"
/>
<path stroke="#5f7246" vector-effect="non-scaling-stroke" d="
  M 143.31 505.75
  Q 141.59 507.31 139.87 509.04
  Q 138.09 510.83 137.06 512.91
  Q 135.66 515.74 134.75 518.44
  Q 130.96 529.64 127.03 544.74
  Q 126.33 547.44 125.01 550.28
  A 0.44 0.43 -47.8 0 1 124.24 550.32
  Q 123.15 548.48 122.47 546.46
  Q 115.21 525.10 106.50 510.48
  Q 103.79 505.93 100.42 502.89
  Q 95.67 498.62 91.63 503.50
  C 87.79 508.13 92.53 518.23 94.45 523.18"
/>
<path stroke="#417c46" vector-effect="non-scaling-stroke" d="
  M 79.26 504.22
  Q 84.29 504.85 86.37 501.41
  C 91.10 493.58 79.44 486.92 74.77 496.12"
/>
<path stroke="#417c46" vector-effect="non-scaling-stroke" d="
  M 69.43 463.25
  C 73.10 462.21 75.02 459.41 74.27 455.58
  Q 73.18 450.02 66.31 450.73"
/>
<path stroke="#417c46" vector-effect="non-scaling-stroke" d="
  M 51.10 412.76
  Q 55.03 415.54 58.50 413.51
  C 66.35 408.89 58.88 397.00 50.78 403.51"
/>
<path stroke="#417c46" vector-effect="non-scaling-stroke" d="
  M 44.76 360.78
  Q 49.05 361.42 51.22 358.54
  Q 52.96 356.23 52.44 353.71
  Q 51.80 350.62 49.03 349.08
  Q 45.85 347.30 42.39 349.75
  Q 40.60 351.01 40.18 352.51"
/>
<path stroke="#417c46" vector-effect="non-scaling-stroke" d="
  M 36.50 327.79
  C 42.02 325.79 42.96 319.37 38.23 315.94"
/>
<path stroke="#417c46" vector-effect="non-scaling-stroke" d="
  M 66.75 331.90
  A 6.37 6.37 0.0 0 0 60.38 325.53
  A 6.37 6.37 0.0 0 0 54.01 331.90
  A 6.37 6.37 0.0 0 0 60.38 338.27
  A 6.37 6.37 0.0 0 0 66.75 331.90"
/>
<path stroke="#417c46" vector-effect="non-scaling-stroke" d="
  M 77.50 371.11
  A 6.38 6.38 0.0 0 0 71.12 364.73
  A 6.38 6.38 0.0 0 0 64.74 371.11
  A 6.38 6.38 0.0 0 0 71.12 377.49
  A 6.38 6.38 0.0 0 0 77.50 371.11"
/>
<path stroke="#417c46" vector-effect="non-scaling-stroke" d="
  M 90.07 425.25
  A 6.37 6.37 0.0 0 0 83.70 418.88
  A 6.37 6.37 0.0 0 0 77.33 425.25
  A 6.37 6.37 0.0 0 0 83.70 431.62
  A 6.37 6.37 0.0 0 0 90.07 425.25"
/>
<path stroke="#417c46" vector-effect="non-scaling-stroke" d="
  M 146.34 428.16
  A 6.38 6.38 0.0 0 0 139.96 421.78
  A 6.38 6.38 0.0 0 0 133.58 428.16
  A 6.38 6.38 0.0 0 0 139.96 434.54
  A 6.38 6.38 0.0 0 0 146.34 428.16"
/>
<path stroke="#417c46" vector-effect="non-scaling-stroke" d="
  M 149.16 468.81
  A 6.36 6.36 0.0 0 0 142.80 462.45
  A 6.36 6.36 0.0 0 0 136.44 468.81
  A 6.36 6.36 0.0 0 0 142.80 475.17
  A 6.36 6.36 0.0 0 0 149.16 468.81"
/>
<path stroke="#417c46" vector-effect="non-scaling-stroke" d="
  M 103.47 477.89
  A 6.34 6.34 0.0 0 0 97.13 471.55
  A 6.34 6.34 0.0 0 0 90.79 477.89
  A 6.34 6.34 0.0 0 0 97.13 484.23
  A 6.34 6.34 0.0 0 0 103.47 477.89"
/>
<path stroke="#525939" vector-effect="non-scaling-stroke" d="
  M 150.28 513.12
  Q 149.76 510.60 148.58 508.64
  Q 147.23 506.42 144.69 506.80
  Q 144.20 506.87 143.89 506.48
  L 143.31 505.75"
/>
<path stroke="#5f7246" vector-effect="non-scaling-stroke" d="
  M 150.04 515.48
  C 148.88 522.86 146.32 530.05 144.43 536.83
  C 142.26 544.61 140.77 552.23 139.16 559.96
  Q 138.61 562.56 137.88 565.06
  Q 136.86 568.54 137.05 572.67
  Q 137.08 573.35 137.45 572.77
  L 139.90 568.94"
/>
</g>
<path fill="#427e46" d="
  M 221.92 356.50
  L 221.89 362.73
  C 220.35 369.82 221.31 375.70 224.04 381.99
  C 229.03 393.54 225.69 405.52 221.15 417.14
  C 218.98 422.68 218.03 428.04 219.92 433.74
  C 220.83 436.47 221.73 439.32 222.09 442.16
  Q 223.10 450.14 219.76 459.57
  Q 216.87 467.69 214.02 475.22
  C 211.67 481.43 210.04 488.90 210.65 495.26
  Q 211.30 502.18 211.51 508.48
  Q 211.80 517.45 205.82 524.29
  C 201.53 529.18 197.02 533.84 194.51 540.01
  Q 188.57 554.62 182.80 568.94
  Q 178.69 579.13 170.48 585.72
  Q 160.44 593.77 144.37 598.20
  Q 147.51 588.12 151.36 580.44
  Q 157.53 578.22 161.69 574.68
  Q 166.78 570.34 169.34 563.53
  Q 173.64 552.11 178.92 538.73
  C 181.58 531.98 184.58 525.61 189.75 520.06
  C 192.18 517.45 196.52 513.21 196.60 509.50
  Q 196.72 504.35 195.45 498.03
  Q 200.88 499.15 202.95 494.95
  C 205.65 489.48 200.80 484.23 194.99 486.00
  Q 195.72 484.96 196.65 481.24
  C 198.99 471.83 202.64 462.85 205.99 453.77
  Q 206.98 451.09 206.92 447.75
  Q 207.63 444.54 206.37 441.62
  Q 206.08 439.74 204.54 434.68
  C 203.39 430.92 203.50 425.91 204.32 421.84
  C 205.71 414.89 208.53 408.00 210.64 401.36
  C 211.96 397.19 211.96 392.19 210.33 388.09
  C 207.02 379.73 203.62 368.18 207.62 359.46
  A 1.38 1.36 42.9 0 0 207.57 358.22
  Q 205.56 354.57 204.91 349.50
  Q 210.20 345.56 205.84 339.64
  Q 207.09 340.33 207.22 338.75
  Q 207.62 334.01 206.63 329.23
  C 206.08 326.62 204.88 324.33 203.80 321.94
  C 200.04 313.55 204.95 304.66 205.39 296.32
  Q 205.86 287.60 202.78 279.21
  Q 199.90 271.33 199.32 269.25
  Q 197.09 261.28 197.92 251.43
  Q 205.06 246.90 199.58 240.12
  Q 201.73 234.19 201.96 227.75
  Q 202.12 222.94 200.36 219.09
  C 198.16 214.27 194.96 210.29 194.37 204.78
  C 193.76 199.00 194.47 194.00 195.78 187.59
  Q 197.38 179.82 198.22 172.78
  C 198.55 170.01 197.98 167.41 195.73 165.52
  C 191.67 162.10 191.10 158.38 190.63 153.19
  Q 194.72 152.84 196.01 149.50
  Q 197.76 144.98 193.94 141.75
  Q 196.52 134.34 193.16 126.52
  Q 190.30 119.85 187.13 112.76
  Q 190.77 108.55 186.94 103.93
  Q 189.39 95.73 191.58 88.28
  C 192.98 83.51 193.53 77.47 188.66 74.59
  Q 183.92 71.79 179.40 69.32
  Q 177.41 68.23 178.17 70.37
  Q 178.84 72.27 177.00 74.42
  Q 179.74 65.88 171.57 64.55
  Q 172.10 64.69 172.41 64.40
  Q 172.80 64.03 172.47 63.60
  C 166.65 55.97 168.81 49.29 170.33 40.78
  C 170.59 39.31 169.54 38.56 168.30 38.16
  C 158.67 35.09 156.22 39.92 153.90 47.33
  Q 152.42 52.04 152.18 55.01
  Q 150.77 72.19 146.74 86.37
  Q 142.36 90.82 145.23 95.42
  Q 144.03 98.56 143.78 101.80
  C 143.47 105.78 146.11 109.62 146.89 113.10
  Q 148.18 118.89 147.91 127.96
  L 147.17 133.73
  Q 145.31 139.45 146.63 143.51
  C 147.63 146.62 148.75 149.53 149.27 152.74
  Q 150.65 161.30 151.47 170.28
  Q 146.68 174.37 150.06 179.74
  Q 145.64 195.34 153.06 210.09
  Q 151.20 214.90 154.84 218.18
  Q 156.67 230.70 157.20 239.25
  C 158.02 252.43 154.79 266.55 152.31 279.73
  Q 150.22 290.78 151.29 301.38
  C 152.16 309.99 155.21 319.70 156.18 328.50
  Q 156.87 334.74 156.90 340.78
  Q 156.97 353.68 157.34 367.02
  Q 157.55 374.27 159.86 383.70
  C 160.69 387.06 163.07 388.61 161.50 392.58
  Q 161.02 393.79 161.72 394.93
  Q 165.82 401.68 166.94 408.90
  A 2.28 2.28 0.0 0 0 169.12 410.83
  Q 172.60 410.94 174.30 413.91
  Q 176.61 417.95 174.08 421.24
  Q 175.68 418.01 174.60 415.55
  Q 173.03 412.00 168.28 411.67
  C 162.11 411.24 160.45 419.91 165.11 422.97
  Q 166.03 423.57 167.58 423.75
  Q 168.89 423.89 170.23 424.04
  Q 168.93 424.57 166.84 424.40
  A 0.54 0.53 10.1 0 0 166.29 424.78
  Q 163.56 433.85 161.22 442.25
  C 159.82 447.28 161.32 452.04 163.26 456.58
  A 1.15 1.14 -26.9 0 0 164.90 457.11
  Q 166.64 456.07 168.90 455.85
  Q 171.36 455.61 173.09 457.41
  Q 177.52 462.00 173.61 467.09
  Q 173.19 467.64 172.30 467.96
  Q 173.33 466.81 174.13 465.55
  Q 174.97 464.23 174.86 462.82
  Q 174.45 457.43 168.93 456.61
  C 166.19 456.20 162.55 459.21 162.42 461.98
  Q 162.20 466.62 166.25 468.56
  Q 166.69 468.77 167.17 468.74
  L 171.47 468.49
  L 169.50 469.50
  A 1.09 1.09 0.0 0 0 168.98 470.83
  Q 173.05 482.11 171.14 494.00
  Q 170.18 499.99 167.56 509.83
  Q 162.97 507.40 159.76 510.04
  C 156.82 512.47 156.55 516.98 159.33 519.65
  Q 162.33 522.54 166.65 520.75
  L 167.99 527.90
  Q 162.62 532.71 161.29 534.29
  Q 149.33 548.59 139.90 568.94
  Q 140.01 563.75 142.28 559.06
  Q 146.21 550.89 150.02 543.02
  Q 154.05 534.69 152.28 526.53
  Q 150.80 519.77 150.89 515.26
  Q 150.90 514.79 150.49 515.02
  Q 150.28 515.14 150.04 515.48
  Q 149.85 513.95 150.28 513.12
  Q 153.84 512.71 155.15 510.16
  Q 157.48 505.63 153.46 501.80
  Q 155.08 498.84 156.07 493.25
  Q 157.91 482.84 154.32 474.47
  Q 150.90 466.51 147.95 458.51
  Q 144.98 450.46 145.78 443.14
  C 146.48 436.66 149.54 429.29 151.26 422.50
  Q 155.45 405.93 142.48 395.63
  Q 142.36 391.42 139.01 389.25
  Q 136.54 384.32 136.34 378.24
  Q 136.14 372.07 136.43 364.97
  Q 136.65 359.44 134.41 355.99
  Q 130.22 349.54 124.28 354.18
  Q 116.53 360.22 113.07 369.57
  Q 108.19 367.67 105.42 370.58
  Q 103.01 373.11 103.78 376.83
  Q 104.86 382.00 111.69 381.27
  C 108.39 386.18 113.49 401.11 115.45 407.52
  C 109.88 408.25 106.90 413.28 110.25 417.90
  Q 112.20 420.60 116.23 420.33
  Q 114.03 435.25 114.21 450.50
  Q 114.25 453.72 115.89 455.97
  Q 112.64 460.97 116.95 464.81
  Q 119.44 467.03 123.11 465.79
  Q 123.57 467.65 124.32 469.43
  Q 125.29 471.74 125.65 473.00
  Q 128.18 481.84 129.18 487.25
  Q 130.69 495.46 129.99 506.53
  Q 129.66 511.81 131.11 515.98
  Q 132.12 518.86 131.75 521.49
  C 130.84 528.09 123.29 529.55 119.08 524.99
  Q 117.16 522.90 116.32 520.22
  Q 111.04 503.44 112.36 486.58
  C 112.60 483.49 112.09 480.67 110.41 478.02
  C 107.42 473.29 103.64 468.83 101.14 463.83
  Q 94.80 451.18 95.80 435.10
  Q 96.02 431.43 96.29 427.96
  C 96.79 421.48 95.71 414.64 93.63 408.59
  C 91.68 402.93 87.99 398.02 84.93 392.89
  Q 80.04 384.67 79.76 372.73
  Q 79.46 360.25 78.43 350.50
  Q 77.36 340.31 71.30 332.22
  Q 69.93 330.39 65.64 326.80
  C 60.55 322.53 57.50 317.44 56.30 310.98
  Q 54.67 302.28 52.95 293.82
  Q 52.32 290.74 49.56 290.35
  Q 45.96 289.85 42.44 290.08
  C 36.79 290.46 34.98 296.58 34.54 301.35
  Q 34.02 306.98 33.69 312.83
  A 1.65 1.65 0.0 0 0 35.23 314.58
  Q 36.86 314.69 38.23 315.94
  C 35.86 315.41 32.60 314.98 30.74 316.73
  Q 27.30 319.98 29.17 324.32
  C 30.58 327.60 33.57 327.36 36.50 327.79
  Q 34.77 328.62 33.23 328.25
  Q 32.55 328.09 32.47 328.77
  Q 31.77 334.50 32.70 339.35
  C 33.58 343.92 36.55 348.39 38.87 352.51
  A 1.09 1.06 69.9 0 0 40.00 353.05
  Q 40.10 353.03 40.18 352.51
  C 40.24 354.04 39.89 355.71 40.29 357.07
  C 40.86 359.01 43.23 359.70 44.76 360.78
  Q 43.99 360.64 43.58 360.79
  Q 43.06 360.99 43.25 361.51
  Q 47.83 374.11 49.74 382.00
  Q 51.98 391.31 50.78 403.51
  Q 47.11 408.26 51.10 412.76
  Q 51.39 420.13 54.29 426.25
  C 57.57 433.18 62.54 441.77 66.31 450.73
  C 58.78 453.99 61.07 463.97 69.43 463.25
  Q 70.70 472.88 71.46 482.50
  Q 72.00 489.44 74.77 496.12
  Q 74.09 502.12 79.26 504.22
  Q 85.92 514.44 94.45 523.18
  Q 99.97 531.98 103.20 542.27
  Q 107.02 554.40 110.95 566.50
  Q 113.08 573.09 114.02 585.36
  Q 108.49 579.07 106.30 574.95
  Q 101.13 565.20 95.06 552.59
  Q 89.35 540.73 83.50 533.81
  C 71.85 520.04 59.74 506.77 57.08 488.11
  C 55.32 475.78 55.89 461.95 50.02 450.88
  Q 45.58 442.50 41.56 434.24
  Q 35.66 422.14 35.64 408.94
  Q 35.63 402.19 35.94 392.79
  Q 36.08 388.61 34.37 382.64
  Q 31.75 373.43 29.14 366.90
  Q 26.89 361.28 22.49 353.89
  C 16.41 343.69 15.67 330.73 18.99 319.38
  Q 19.81 316.59 19.86 313.61
  Q 20.00 305.94 20.79 298.56
  C 21.95 287.70 29.04 276.21 41.05 275.59
  C 46.44 275.31 52.65 275.08 57.63 277.46
  C 64.13 280.55 67.17 287.42 68.41 294.31
  Q 69.63 301.05 70.88 307.61
  C 71.47 310.71 72.70 313.19 75.14 315.28
  C 78.40 318.06 81.82 321.06 84.26 324.58
  C 94.01 338.68 94.59 354.42 94.52 371.75
  Q 94.51 373.98 95.81 380.58
  Q 95.83 380.66 95.89 380.71
  Q 95.93 380.74 95.97 380.76
  Q 96.05 380.79 96.05 380.71
  Q 96.64 366.15 102.68 356.50
  C 108.14 347.78 119.86 334.71 131.72 337.21
  Q 137.74 338.47 142.08 342.30
  A 0.30 0.29 -70.1 0 0 142.57 342.07
  C 142.23 333.78 141.19 326.17 139.12 317.99
  C 135.64 304.27 134.95 291.61 137.48 277.67
  Q 139.31 267.60 141.20 256.97
  Q 141.71 254.09 141.96 251.08
  C 142.18 248.41 142.53 245.83 142.39 243.17
  Q 141.55 227.99 139.33 218.34
  C 137.94 212.28 135.15 206.19 134.14 200.00
  Q 132.73 191.34 134.09 182.99
  Q 135.50 174.32 135.88 167.17
  C 136.15 161.99 133.93 157.14 134.30 151.83
  C 134.49 149.07 133.01 146.49 132.76 143.68
  Q 132.14 136.66 133.28 129.45
  Q 134.88 119.38 131.14 111.86
  C 128.05 105.64 129.31 98.49 130.33 91.78
  C 132.09 80.24 136.49 69.23 136.95 57.47
  Q 137.32 48.17 140.96 38.95
  C 144.47 30.08 150.26 23.39 160.24 22.46
  C 168.25 21.71 178.51 23.94 182.98 31.32
  C 186.81 37.62 185.11 43.69 183.62 51.25
  Q 183.10 53.93 185.76 55.57
  Q 189.88 58.11 194.35 60.56
  Q 209.97 69.11 207.04 87.09
  C 206.00 93.53 202.79 100.16 202.41 107.19
  Q 202.23 110.38 203.59 113.13
  C 206.87 119.76 209.47 125.98 210.08 133.26
  C 210.64 139.91 208.58 146.96 206.37 153.39
  A 2.12 2.10 -58.7 0 0 206.90 155.60
  C 214.57 163.02 213.91 171.87 212.00 181.96
  Q 210.44 190.23 209.33 197.45
  C 208.86 200.49 209.07 203.87 210.62 206.60
  C 211.99 209.02 213.52 211.44 214.51 213.99
  C 217.86 222.66 217.32 229.78 215.51 238.77
  C 213.52 248.60 211.61 256.61 213.81 265.11
  Q 214.70 268.55 216.12 271.91
  C 219.66 280.31 221.06 290.62 220.23 299.00
  Q 219.72 304.02 217.52 312.74
  C 217.22 313.93 217.38 315.96 218.03 317.18
  C 223.53 327.59 223.17 340.31 220.38 351.49
  Q 220.26 351.99 220.51 352.44
  Q 221.60 354.43 221.92 356.50
  Z
  M 128.55 496.92
  A 6.34 6.34 0.0 0 0 122.21 490.58
  A 6.34 6.34 0.0 0 0 115.87 496.92
  A 6.34 6.34 0.0 0 0 122.21 503.26
  A 6.34 6.34 0.0 0 0 128.55 496.92
  Z"
/>
<path fill="#4e9453" d="
  M 171.57 64.55
  C 163.81 64.94 162.96 75.48 170.24 77.11
  Q 174.04 77.97 177.00 74.42
  Q 178.84 72.27 178.17 70.37
  Q 177.41 68.23 179.40 69.32
  Q 183.92 71.79 188.66 74.59
  C 193.53 77.47 192.98 83.51 191.58 88.28
  Q 189.39 95.73 186.94 103.93
  Q 184.10 101.19 180.45 102.42
  C 171.31 105.52 178.60 120.36 187.13 112.76
  Q 190.30 119.85 193.16 126.52
  Q 196.52 134.34 193.94 141.75
  Q 189.36 139.27 186.18 141.91
  C 181.48 145.83 184.01 153.77 190.63 153.19
  C 191.10 158.38 191.67 162.10 195.73 165.52
  C 197.98 167.41 198.55 170.01 198.22 172.78
  Q 197.38 179.82 195.78 187.59
  C 194.47 194.00 193.76 199.00 194.37 204.78
  C 194.96 210.29 198.16 214.27 200.36 219.09
  Q 202.12 222.94 201.96 227.75
  Q 201.73 234.19 199.58 240.12
  Q 195.74 238.27 192.85 239.62
  C 188.85 241.48 188.10 246.57 191.12 249.89
  Q 193.34 252.33 197.92 251.43
  Q 197.09 261.28 199.32 269.25
  Q 199.90 271.33 202.78 279.21
  Q 205.86 287.60 205.39 296.32
  C 204.95 304.66 200.04 313.55 203.80 321.94
  C 204.88 324.33 206.08 326.62 206.63 329.23
  Q 207.62 334.01 207.22 338.75
  Q 207.09 340.33 205.84 339.64
  Q 202.02 336.41 198.27 338.76
  C 191.29 343.15 196.77 353.80 204.91 349.50
  Q 205.56 354.57 207.57 358.22
  A 1.38 1.36 42.9 0 1 207.62 359.46
  C 203.62 368.18 207.02 379.73 210.33 388.09
  C 211.96 392.19 211.96 397.19 210.64 401.36
  C 208.53 408.00 205.71 414.89 204.32 421.84
  C 203.50 425.91 203.39 430.92 204.54 434.68
  Q 206.08 439.74 206.37 441.62
  Q 203.43 437.81 199.49 438.94
  C 191.71 441.17 193.87 452.56 202.26 451.48
  Q 205.03 451.12 206.92 447.75
  Q 206.98 451.09 205.99 453.77
  C 202.64 462.85 198.99 471.83 196.65 481.24
  Q 195.72 484.96 194.99 486.00
  C 189.37 488.52 189.57 496.06 195.45 498.03
  Q 196.72 504.35 196.60 509.50
  C 196.52 513.21 192.18 517.45 189.75 520.06
  C 184.58 525.61 181.58 531.98 178.92 538.73
  Q 173.64 552.11 169.34 563.53
  Q 166.78 570.34 161.69 574.68
  Q 157.53 578.22 151.36 580.44
  Q 156.25 569.36 162.02 559.54
  C 166.47 551.97 172.31 544.58 177.89 537.49
  C 180.89 533.68 183.00 529.54 179.08 525.53
  C 175.89 522.26 170.79 525.57 167.99 527.90
  L 166.65 520.75
  Q 173.35 515.73 167.56 509.83
  Q 170.18 499.99 171.14 494.00
  Q 173.05 482.11 168.98 470.83
  A 1.09 1.09 0.0 0 1 169.50 469.50
  L 171.47 468.49
  L 172.30 467.96
  Q 173.19 467.64 173.61 467.09
  Q 177.52 462.00 173.09 457.41
  Q 171.36 455.61 168.90 455.85
  Q 166.64 456.07 164.90 457.11
  A 1.15 1.14 -26.9 0 1 163.26 456.58
  C 161.32 452.04 159.82 447.28 161.22 442.25
  Q 163.56 433.85 166.29 424.78
  A 0.54 0.53 10.1 0 1 166.84 424.40
  Q 168.93 424.57 170.23 424.04
  Q 172.57 423.35 174.08 421.24
  Q 176.61 417.95 174.30 413.91
  Q 172.60 410.94 169.12 410.83
  A 2.28 2.28 0.0 0 1 166.94 408.90
  Q 165.82 401.68 161.72 394.93
  Q 161.02 393.79 161.50 392.58
  C 163.07 388.61 160.69 387.06 159.86 383.70
  Q 157.55 374.27 157.34 367.02
  Q 156.97 353.68 156.90 340.78
  Q 156.87 334.74 156.18 328.50
  C 155.21 319.70 152.16 309.99 151.29 301.38
  Q 150.22 290.78 152.31 279.73
  C 154.79 266.55 158.02 252.43 157.20 239.25
  Q 156.67 230.70 154.84 218.18
  C 162.78 223.11 169.42 212.10 161.86 207.59
  Q 157.17 204.79 153.06 210.09
  Q 145.64 195.34 150.06 179.74
  Q 153.19 182.74 156.45 181.89
  C 165.31 179.57 161.34 165.69 151.47 170.28
  Q 150.65 161.30 149.27 152.74
  C 148.75 149.53 147.63 146.62 146.63 143.51
  Q 145.31 139.45 147.17 133.73
  C 149.58 138.00 154.06 139.53 157.71 136.18
  C 163.90 130.52 155.06 120.40 147.91 127.96
  Q 148.18 118.89 146.89 113.10
  C 146.11 109.62 143.47 105.78 143.78 101.80
  Q 144.03 98.56 145.23 95.42
  C 149.69 100.97 157.90 97.40 156.57 90.57
  Q 155.21 83.58 146.74 86.37
  Q 150.77 72.19 152.18 55.01
  Q 152.42 52.04 153.90 47.33
  C 156.22 39.92 158.67 35.09 168.30 38.16
  C 169.54 38.56 170.59 39.31 170.33 40.78
  C 168.81 49.29 166.65 55.97 172.47 63.60
  Q 172.80 64.03 172.41 64.40
  Q 172.10 64.69 171.57 64.55
  Z
  M 166.09 54.17
  A 6.37 6.37 0.0 0 0 159.72 47.80
  A 6.37 6.37 0.0 0 0 153.35 54.17
  A 6.37 6.37 0.0 0 0 159.72 60.54
  A 6.37 6.37 0.0 0 0 166.09 54.17
  Z
  M 193.62 191.69
  A 6.36 6.36 0.0 0 0 187.26 185.33
  A 6.36 6.36 0.0 0 0 180.90 191.69
  A 6.36 6.36 0.0 0 0 187.26 198.05
  A 6.36 6.36 0.0 0 0 193.62 191.69
  Z
  M 170.38 268.77
  A 6.38 6.38 0.0 0 0 164.00 262.39
  A 6.38 6.38 0.0 0 0 157.62 268.77
  A 6.38 6.38 0.0 0 0 164.00 275.15
  A 6.38 6.38 0.0 0 0 170.38 268.77
  Z
  M 202.26 294.49
  A 6.37 6.37 0.0 0 0 195.89 288.12
  A 6.37 6.37 0.0 0 0 189.52 294.49
  A 6.37 6.37 0.0 0 0 195.89 300.86
  A 6.37 6.37 0.0 0 0 202.26 294.49
  Z
  M 167.73 316.44
  A 6.36 6.36 0.0 0 0 161.37 310.08
  A 6.36 6.36 0.0 0 0 155.01 316.44
  A 6.36 6.36 0.0 0 0 161.37 322.80
  A 6.36 6.36 0.0 0 0 167.73 316.44
  Z
  M 175.63 366.80
  A 6.36 6.36 0.0 0 0 169.27 360.44
  A 6.36 6.36 0.0 0 0 162.91 366.80
  A 6.36 6.36 0.0 0 0 169.27 373.16
  A 6.36 6.36 0.0 0 0 175.63 366.80
  Z
  M 206.30 393.74
  A 6.37 6.37 0.0 0 0 199.93 387.37
  A 6.37 6.37 0.0 0 0 193.56 393.74
  A 6.37 6.37 0.0 0 0 199.93 400.11
  A 6.37 6.37 0.0 0 0 206.30 393.74
  Z"
/>
<circle fill="#346338" cx="159.72" cy="54.17" r="6.37"/>
<path fill="#346338" d="
  M 171.57 64.55
  Q 179.74 65.88 177.00 74.42
  Q 174.04 77.97 170.24 77.11
  C 162.96 75.48 163.81 64.94 171.57 64.55
  Z"
/>
<path fill="#346338" d="
  M 145.23 95.42
  Q 142.36 90.82 146.74 86.37
  Q 155.21 83.58 156.57 90.57
  C 157.90 97.40 149.69 100.97 145.23 95.42
  Z"
/>
<path fill="#346338" d="
  M 186.94 103.93
  Q 190.77 108.55 187.13 112.76
  C 178.60 120.36 171.31 105.52 180.45 102.42
  Q 184.10 101.19 186.94 103.93
  Z"
/>
<path fill="#346338" d="
  M 147.17 133.73
  L 147.91 127.96
  C 155.06 120.40 163.90 130.52 157.71 136.18
  C 154.06 139.53 149.58 138.00 147.17 133.73
  Z"
/>
<path fill="#346338" d="
  M 193.94 141.75
  Q 197.76 144.98 196.01 149.50
  Q 194.72 152.84 190.63 153.19
  C 184.01 153.77 181.48 145.83 186.18 141.91
  Q 189.36 139.27 193.94 141.75
  Z"
/>
<path fill="#346338" d="
  M 150.06 179.74
  Q 146.68 174.37 151.47 170.28
  C 161.34 165.69 165.31 179.57 156.45 181.89
  Q 153.19 182.74 150.06 179.74
  Z"
/>
<circle fill="#346338" cx="187.26" cy="191.69" r="6.36"/>
<path fill="#346338" d="
  M 154.84 218.18
  Q 151.20 214.90 153.06 210.09
  Q 157.17 204.79 161.86 207.59
  C 169.42 212.10 162.78 223.11 154.84 218.18
  Z"
/>
<path fill="#346338" d="
  M 199.58 240.12
  Q 205.06 246.90 197.92 251.43
  Q 193.34 252.33 191.12 249.89
  C 188.10 246.57 188.85 241.48 192.85 239.62
  Q 195.74 238.27 199.58 240.12
  Z"
/>
<circle fill="#346338" cx="164.00" cy="268.77" r="6.38"/>
<circle fill="#346338" cx="195.89" cy="294.49" r="6.37"/>
<path fill="#4e9453" d="
  M 123.11 465.79
  Q 128.29 463.62 127.23 458.51
  C 126.12 453.21 119.43 451.70 115.89 455.97
  Q 114.25 453.72 114.21 450.50
  Q 114.03 435.25 116.23 420.33
  C 123.98 418.43 123.27 408.79 115.45 407.52
  C 113.49 401.11 108.39 386.18 111.69 381.27
  C 117.14 379.09 117.84 372.99 113.07 369.57
  Q 116.53 360.22 124.28 354.18
  Q 130.22 349.54 134.41 355.99
  Q 136.65 359.44 136.43 364.97
  Q 136.14 372.07 136.34 378.24
  Q 136.54 384.32 139.01 389.25
  C 127.69 385.74 126.50 401.79 136.48 401.36
  Q 140.97 401.17 142.48 395.63
  Q 155.45 405.93 151.26 422.50
  C 149.54 429.29 146.48 436.66 145.78 443.14
  Q 144.98 450.46 147.95 458.51
  Q 150.90 466.51 154.32 474.47
  Q 157.91 482.84 156.07 493.25
  Q 155.08 498.84 153.46 501.80
  Q 145.73 498.14 143.31 505.75
  Q 141.59 507.31 139.87 509.04
  Q 138.09 510.83 137.06 512.91
  Q 135.66 515.74 134.75 518.44
  Q 130.96 529.64 127.03 544.74
  Q 126.33 547.44 125.01 550.28
  A 0.44 0.43 -47.8 0 1 124.24 550.32
  Q 123.15 548.48 122.47 546.46
  Q 115.21 525.10 106.50 510.48
  Q 103.79 505.93 100.42 502.89
  Q 95.67 498.62 91.63 503.50
  C 87.79 508.13 92.53 518.23 94.45 523.18
  Q 85.92 514.44 79.26 504.22
  Q 84.29 504.85 86.37 501.41
  C 91.10 493.58 79.44 486.92 74.77 496.12
  Q 72.00 489.44 71.46 482.50
  Q 70.70 472.88 69.43 463.25
  C 73.10 462.21 75.02 459.41 74.27 455.58
  Q 73.18 450.02 66.31 450.73
  C 62.54 441.77 57.57 433.18 54.29 426.25
  Q 51.39 420.13 51.10 412.76
  Q 55.03 415.54 58.50 413.51
  C 66.35 408.89 58.88 397.00 50.78 403.51
  Q 51.98 391.31 49.74 382.00
  Q 47.83 374.11 43.25 361.51
  Q 43.06 360.99 43.58 360.79
  Q 43.99 360.64 44.76 360.78
  Q 49.05 361.42 51.22 358.54
  Q 52.96 356.23 52.44 353.71
  Q 51.80 350.62 49.03 349.08
  Q 45.85 347.30 42.39 349.75
  Q 40.60 351.01 40.18 352.51
  Q 40.10 353.03 40.00 353.05
  A 1.09 1.06 69.9 0 1 38.87 352.51
  C 36.55 348.39 33.58 343.92 32.70 339.35
  Q 31.77 334.50 32.47 328.77
  Q 32.55 328.09 33.23 328.25
  Q 34.77 328.62 36.50 327.79
  C 42.02 325.79 42.96 319.37 38.23 315.94
  Q 36.86 314.69 35.23 314.58
  A 1.65 1.65 0.0 0 1 33.69 312.83
  Q 34.02 306.98 34.54 301.35
  C 34.98 296.58 36.79 290.46 42.44 290.08
  Q 45.96 289.85 49.56 290.35
  Q 52.32 290.74 52.95 293.82
  Q 54.67 302.28 56.30 310.98
  C 57.50 317.44 60.55 322.53 65.64 326.80
  Q 69.93 330.39 71.30 332.22
  Q 77.36 340.31 78.43 350.50
  Q 79.46 360.25 79.76 372.73
  Q 80.04 384.67 84.93 392.89
  C 87.99 398.02 91.68 402.93 93.63 408.59
  C 95.71 414.64 96.79 421.48 96.29 427.96
  Q 96.02 431.43 95.80 435.10
  Q 94.80 451.18 101.14 463.83
  C 103.64 468.83 107.42 473.29 110.41 478.02
  C 112.09 480.67 112.60 483.49 112.36 486.58
  Q 111.04 503.44 116.32 520.22
  Q 117.16 522.90 119.08 524.99
  C 123.29 529.55 130.84 528.09 131.75 521.49
  Q 132.12 518.86 131.11 515.98
  Q 129.66 511.81 129.99 506.53
  Q 130.69 495.46 129.18 487.25
  Q 128.18 481.84 125.65 473.00
  Q 125.29 471.74 124.32 469.43
  Q 123.57 467.65 123.11 465.79
  Z
  M 66.75 331.90
  A 6.37 6.37 0.0 0 0 60.38 325.53
  A 6.37 6.37 0.0 0 0 54.01 331.90
  A 6.37 6.37 0.0 0 0 60.38 338.27
  A 6.37 6.37 0.0 0 0 66.75 331.90
  Z
  M 77.50 371.11
  A 6.38 6.38 0.0 0 0 71.12 364.73
  A 6.38 6.38 0.0 0 0 64.74 371.11
  A 6.38 6.38 0.0 0 0 71.12 377.49
  A 6.38 6.38 0.0 0 0 77.50 371.11
  Z
  M 90.07 425.25
  A 6.37 6.37 0.0 0 0 83.70 418.88
  A 6.37 6.37 0.0 0 0 77.33 425.25
  A 6.37 6.37 0.0 0 0 83.70 431.62
  A 6.37 6.37 0.0 0 0 90.07 425.25
  Z
  M 146.34 428.16
  A 6.38 6.38 0.0 0 0 139.96 421.78
  A 6.38 6.38 0.0 0 0 133.58 428.16
  A 6.38 6.38 0.0 0 0 139.96 434.54
  A 6.38 6.38 0.0 0 0 146.34 428.16
  Z
  M 149.16 468.81
  A 6.36 6.36 0.0 0 0 142.80 462.45
  A 6.36 6.36 0.0 0 0 136.44 468.81
  A 6.36 6.36 0.0 0 0 142.80 475.17
  A 6.36 6.36 0.0 0 0 149.16 468.81
  Z
  M 103.47 477.89
  A 6.34 6.34 0.0 0 0 97.13 471.55
  A 6.34 6.34 0.0 0 0 90.79 477.89
  A 6.34 6.34 0.0 0 0 97.13 484.23
  A 6.34 6.34 0.0 0 0 103.47 477.89
  Z"
/>
<circle fill="#346338" cx="161.37" cy="316.44" r="6.36"/>
<path fill="#346338" d="
  M 38.23 315.94
  C 42.96 319.37 42.02 325.79 36.50 327.79
  C 33.57 327.36 30.58 327.60 29.17 324.32
  Q 27.30 319.98 30.74 316.73
  C 32.60 314.98 35.86 315.41 38.23 315.94
  Z"
/>
<circle fill="#346338" cx="60.38" cy="331.90" r="6.37"/>
<path fill="#346338" d="
  M 205.84 339.64
  Q 210.20 345.56 204.91 349.50
  C 196.77 353.80 191.29 343.15 198.27 338.76
  Q 202.02 336.41 205.84 339.64
  Z"
/>
<path fill="#346338" d="
  M 44.76 360.78
  C 43.23 359.70 40.86 359.01 40.29 357.07
  C 39.89 355.71 40.24 354.04 40.18 352.51
  Q 40.60 351.01 42.39 349.75
  Q 45.85 347.30 49.03 349.08
  Q 51.80 350.62 52.44 353.71
  Q 52.96 356.23 51.22 358.54
  Q 49.05 361.42 44.76 360.78
  Z"
/>
<path fill="#346338" d="
  M 221.92 356.50
  Q 222.45 359.43 221.89 362.73
  L 221.92 356.50
  Z"
/>
<circle fill="#346338" cx="169.27" cy="366.80" r="6.36"/>
<circle fill="#346338" cx="71.12" cy="371.11" r="6.38"/>
<path fill="#346338" d="
  M 113.07 369.57
  C 117.84 372.99 117.14 379.09 111.69 381.27
  Q 104.86 382.00 103.78 376.83
  Q 103.01 373.11 105.42 370.58
  Q 108.19 367.67 113.07 369.57
  Z"
/>
<circle fill="#346338" cx="199.93" cy="393.74" r="6.37"/>
<path fill="#346338" d="
  M 139.01 389.25
  Q 142.36 391.42 142.48 395.63
  Q 140.97 401.17 136.48 401.36
  C 126.50 401.79 127.69 385.74 139.01 389.25
  Z"
/>
<path fill="#346338" d="
  M 51.10 412.76
  Q 47.11 408.26 50.78 403.51
  C 58.88 397.00 66.35 408.89 58.50 413.51
  Q 55.03 415.54 51.10 412.76
  Z"
/>
<path fill="#346338" d="
  M 115.45 407.52
  C 123.27 408.79 123.98 418.43 116.23 420.33
  Q 112.20 420.60 110.25 417.90
  C 106.90 413.28 109.88 408.25 115.45 407.52
  Z"
/>
<path fill="#346338" d="
  M 174.08 421.24
  Q 172.57 423.35 170.23 424.04
  Q 168.89 423.89 167.58 423.75
  Q 166.03 423.57 165.11 422.97
  C 160.45 419.91 162.11 411.24 168.28 411.67
  Q 173.03 412.00 174.60 415.55
  Q 175.68 418.01 174.08 421.24
  Z"
/>
<circle fill="#346338" cx="83.70" cy="425.25" r="6.37"/>
<circle fill="#346338" cx="139.96" cy="428.16" r="6.38"/>
<path fill="#346338" d="
  M 206.37 441.62
  Q 207.63 444.54 206.92 447.75
  Q 205.03 451.12 202.26 451.48
  C 193.87 452.56 191.71 441.17 199.49 438.94
  Q 203.43 437.81 206.37 441.62
  Z"
/>
<path fill="#346338" d="
  M 69.43 463.25
  C 61.07 463.97 58.78 453.99 66.31 450.73
  Q 73.18 450.02 74.27 455.58
  C 75.02 459.41 73.10 462.21 69.43 463.25
  Z"
/>
<path fill="#346338" d="
  M 123.11 465.79
  Q 119.44 467.03 116.95 464.81
  Q 112.64 460.97 115.89 455.97
  C 119.43 451.70 126.12 453.21 127.23 458.51
  Q 128.29 463.62 123.11 465.79
  Z"
/>
<path fill="#346338" d="
  M 172.30 467.96
  L 171.47 468.49
  L 167.17 468.74
  Q 166.69 468.77 166.25 468.56
  Q 162.20 466.62 162.42 461.98
  C 162.55 459.21 166.19 456.20 168.93 456.61
  Q 174.45 457.43 174.86 462.82
  Q 174.97 464.23 174.13 465.55
  Q 173.33 466.81 172.30 467.96
  Z"
/>
<circle fill="#346338" cx="142.80" cy="468.81" r="6.36"/>
<circle fill="#346338" cx="97.13" cy="477.89" r="6.34"/>
<path fill="#346338" d="
  M 195.45 498.03
  C 189.57 496.06 189.37 488.52 194.99 486.00
  C 200.80 484.23 205.65 489.48 202.95 494.95
  Q 200.88 499.15 195.45 498.03
  Z"
/>
<circle fill="#346338" cx="122.21" cy="496.92" r="6.34"/>
<path fill="#346338" d="
  M 79.26 504.22
  Q 74.09 502.12 74.77 496.12
  C 79.44 486.92 91.10 493.58 86.37 501.41
  Q 84.29 504.85 79.26 504.22
  Z"
/>
<path fill="#346338" d="
  M 153.46 501.80
  Q 157.48 505.63 155.15 510.16
  Q 153.84 512.71 150.28 513.12
  Q 149.76 510.60 148.58 508.64
  Q 147.23 506.42 144.69 506.80
  Q 144.20 506.87 143.89 506.48
  L 143.31 505.75
  Q 145.73 498.14 153.46 501.80
  Z"
/>
<path fill="#704f39" d="
  M 143.31 505.75
  L 143.89 506.48
  Q 144.20 506.87 144.69 506.80
  Q 147.23 506.42 148.58 508.64
  Q 149.76 510.60 150.28 513.12
  Q 149.85 513.95 150.04 515.48
  C 148.88 522.86 146.32 530.05 144.43 536.83
  C 142.26 544.61 140.77 552.23 139.16 559.96
  Q 138.61 562.56 137.88 565.06
  Q 136.86 568.54 137.05 572.67
  Q 137.08 573.35 137.45 572.77
  L 139.90 568.94
  Q 149.33 548.59 161.29 534.29
  Q 162.62 532.71 167.99 527.90
  C 170.79 525.57 175.89 522.26 179.08 525.53
  C 183.00 529.54 180.89 533.68 177.89 537.49
  C 172.31 544.58 166.47 551.97 162.02 559.54
  Q 156.25 569.36 151.36 580.44
  Q 147.51 588.12 144.37 598.20
  Q 139.89 610.81 139.35 625.00
  L 114.41 625.00
  Q 114.46 621.06 114.96 608.50
  Q 115.39 597.79 114.02 585.36
  Q 113.08 573.09 110.95 566.50
  Q 107.02 554.40 103.20 542.27
  Q 99.97 531.98 94.45 523.18
  C 92.53 518.23 87.79 508.13 91.63 503.50
  Q 95.67 498.62 100.42 502.89
  Q 103.79 505.93 106.50 510.48
  Q 115.21 525.10 122.47 546.46
  Q 123.15 548.48 124.24 550.32
  A 0.44 0.43 -47.8 0 0 125.01 550.28
  Q 126.33 547.44 127.03 544.74
  Q 130.96 529.64 134.75 518.44
  Q 135.66 515.74 137.06 512.91
  Q 138.09 510.83 139.87 509.04
  Q 141.59 507.31 143.31 505.75
  Z"
/>
<path fill="#346338" d="
  M 167.56 509.83
  Q 173.35 515.73 166.65 520.75
  Q 162.33 522.54 159.33 519.65
  C 156.55 516.98 156.82 512.47 159.76 510.04
  Q 162.97 507.40 167.56 509.83
  Z"
/>
<path fill="#4e9453" d="
  M 139.90 568.94
  L 137.45 572.77
  Q 137.08 573.35 137.05 572.67
  Q 136.86 568.54 137.88 565.06
  Q 138.61 562.56 139.16 559.96
  C 140.77 552.23 142.26 544.61 144.43 536.83
  C 146.32 530.05 148.88 522.86 150.04 515.48
  Q 150.28 515.14 150.49 515.02
  Q 150.90 514.79 150.89 515.26
  Q 150.80 519.77 152.28 526.53
  Q 154.05 534.69 150.02 543.02
  Q 146.21 550.89 142.28 559.06
  Q 140.01 563.75 139.90 568.94
  Z"
/>
</svg>
