<?xml version="1.0" encoding="UTF-8" standalone="no"?>
<!DOCTYPE svg PUBLIC "-//W3C//DTD SVG 1.1//EN" "http://www.w3.org/Graphics/SVG/1.1/DTD/svg11.dtd">
<svg xmlns="http://www.w3.org/2000/svg" version="1.1" viewBox="0.00 0.00 251.00 487.00">
<g stroke-width="2.00" fill="none" stroke-linecap="butt">
<path stroke="#596740" vector-effect="non-scaling-stroke" d="
  M 90.90 453.19
  Q 93.04 450.19 95.26 447.47
  Q 101.44 439.94 107.98 432.72
  Q 120.24 419.21 132.66 405.92"
/>
<path stroke="#3b713f" vector-effect="non-scaling-stroke" d="
  M 132.66 405.92
  L 134.24 406.23"
/>
<path stroke="#48894d" vector-effect="non-scaling-stroke" d="
  M 134.24 406.23
  Q 128.39 416.31 122.44 420.94
  Q 119.48 423.25 116.62 425.54
  C 113.96 427.67 112.03 430.29 110.05 433.01
  Q 108.92 434.57 110.62 433.66
  C 113.67 432.03 116.80 430.52 119.56 428.41
  Q 125.99 423.47 133.45 416.30
  Q 139.74 410.25 144.12 407.98
  Q 147.32 406.32 153.31 404.13
  Q 158.75 402.13 163.92 396.61"
/>
<path stroke="#3b713f" vector-effect="non-scaling-stroke" d="
  M 163.92 396.61
  Q 169.17 397.66 171.43 392.98
  Q 172.28 391.24 171.66 389.02
  Q 171.36 387.92 170.27 386.75
  Q 169.38 385.81 168.45 384.75"
/>
<path stroke="#48894d" vector-effect="non-scaling-stroke" d="
  M 168.45 384.75
  Q 169.63 385.53 170.67 385.66
  Q 171.19 385.73 171.32 385.23
  Q 173.52 376.98 178.41 372.66
  Q 185.20 366.66 192.19 360.62"
/>
<path stroke="#3b713f" vector-effect="non-scaling-stroke" d="
  M 192.19 360.62
  Q 197.11 362.48 200.07 358.57
  Q 203.21 354.42 199.45 350.10"
/>
<path stroke="#48894d" vector-effect="non-scaling-stroke" d="
  M 199.45 350.10
  Q 200.81 347.10 200.74 341.49
  Q 200.68 335.69 205.05 329.03
  Q 208.73 323.43 212.37 317.82
  Q 213.27 316.44 214.42 311.98"
/>
<path stroke="#3b713f" vector-effect="non-scaling-stroke" d="
  M 214.42 311.98
  Q 219.99 313.24 222.26 309.74
  Q 224.29 306.59 222.77 303.12
  Q 221.10 299.31 215.58 299.69"
/>
<path stroke="#48894d" vector-effect="non-scaling-stroke" d="
  M 215.58 299.69
  Q 210.23 288.59 214.43 277.13"
/>
<path stroke="#3b713f" vector-effect="non-scaling-stroke" d="
  M 214.43 277.13
  Q 218.85 282.30 223.54 279.03
  C 229.75 274.68 225.05 265.85 217.78 267.79"
/>
<path stroke="#48894d" vector-effect="non-scaling-stroke" d="
  M 217.78 267.79
  Q 219.24 264.63 219.07 261.36
  C 218.77 255.71 212.47 248.85 208.66 245.04
  A 0.41 0.40 35.9 0 0 208.01 245.14
  Q 206.58 247.91 206.70 250.54"
/>
<path stroke="#3b713f" vector-effect="non-scaling-stroke" d="
  M 206.70 250.54
  Q 197.72 248.54 197.05 255.39
  Q 196.72 258.83 198.71 261.21
  Q 201.05 264.00 205.01 263.65
  Q 207.43 263.44 209.78 260.52"
/>
<path stroke="#48894d" vector-effect="non-scaling-stroke" d="
  M 209.78 260.52
  Q 209.68 261.47 208.67 262.20
  Q 207.51 263.05 207.37 264.50
  Q 206.38 274.71 200.80 283.29
  Q 197.84 287.84 197.30 289.11"
/>
<path stroke="#3b713f" vector-effect="non-scaling-stroke" d="
  M 197.30 289.11
  Q 194.71 287.09 191.88 287.71
  Q 189.37 288.27 187.78 290.70
  Q 184.82 295.24 189.98 299.59"
/>
<path stroke="#48894d" vector-effect="non-scaling-stroke" d="
  M 189.98 299.59
  Q 189.37 302.67 189.56 305.99
  Q 189.83 310.85 189.70 312.02
  Q 189.27 315.71 187.90 317.87
  Q 186.05 320.79 184.34 323.70"
/>
<path stroke="#3b713f" vector-effect="non-scaling-stroke" d="
  M 184.34 323.70
  Q 175.57 324.24 177.85 332.98"
/>
<path stroke="#48894d" vector-effect="non-scaling-stroke" d="
  M 177.85 332.98
  Q 176.83 332.02 175.92 333.18
  Q 175.07 334.26 174.45 335.51
  Q 174.23 335.96 174.28 336.46
  Q 174.82 342.39 172.93 347.90"
/>
<path stroke="#3b713f" vector-effect="non-scaling-stroke" d="
  M 172.93 347.90
  Q 172.70 338.18 166.05 339.01
  Q 162.52 339.45 161.17 341.99
  Q 159.13 345.82 161.53 349.26
  C 162.71 350.94 164.91 351.10 166.78 351.22
  Q 168.49 351.33 170.08 350.08
  Q 171.44 349.01 172.75 347.46"
/>
<path stroke="#48894d" vector-effect="non-scaling-stroke" d="
  M 172.75 347.46
  C 172.34 350.90 169.69 351.65 166.88 352.28
  Q 166.39 352.39 165.90 352.26
  Q 165.01 352.01 164.12 352.18
  Q 163.59 352.27 163.28 352.72
  L 157.64 361.05"
/>
<path stroke="#3b713f" vector-effect="non-scaling-stroke" d="
  M 157.64 361.05
  Q 154.47 362.82 153.63 366.46"
/>
<path stroke="#48894d" vector-effect="non-scaling-stroke" d="
  M 153.63 366.46
  Q 148.42 371.60 144.44 377.23
  Q 140.80 382.38 138.58 388.24
  Q 137.32 391.55 138.85 394.00"
/>
<path stroke="#3b713f" vector-effect="non-scaling-stroke" d="
  M 138.85 394.00
  Q 138.22 394.31 136.95 393.84"
/>
<path stroke="#596740" vector-effect="non-scaling-stroke" d="
  M 136.95 393.84
  Q 136.11 393.27 135.18 392.85
  C 130.97 390.95 124.92 396.34 121.18 399.25"
/>
<path stroke="#48894d" vector-effect="non-scaling-stroke" d="
  M 121.18 399.25
  Q 122.58 395.70 122.79 390.75
  C 123.11 383.32 128.24 374.17 132.89 368.06
  Q 139.92 358.82 147.74 348.88
  C 153.02 342.16 156.08 333.53 155.19 324.98
  Q 154.78 321.06 154.16 316.83
  C 152.75 307.17 153.64 298.72 157.44 289.40
  C 159.85 283.48 162.95 278.06 164.85 272.12
  Q 168.32 261.27 169.25 250.22
  Q 169.39 248.63 169.17 247.00
  Q 168.07 238.62 166.57 228.49
  Q 165.62 222.12 166.27 219.50
  Q 167.04 216.37 167.42 213.20"
/>
<path stroke="#3b713f" vector-effect="non-scaling-stroke" d="
  M 167.42 213.20
  Q 167.80 211.14 168.43 210.14"
/>
<path stroke="#48894d" vector-effect="non-scaling-stroke" d="
  M 168.43 210.14
  Q 171.31 204.79 174.40 197.24
  C 176.60 191.85 178.69 181.52 174.03 176.96
  Q 169.73 172.75 165.79 168.18"
/>
<path stroke="#3b713f" vector-effect="non-scaling-stroke" d="
  M 165.79 168.18
  Q 169.68 164.95 167.71 160.50
  Q 165.88 156.39 161.41 156.93"
/>
<path stroke="#48894d" vector-effect="non-scaling-stroke" d="
  M 161.41 156.93
  Q 162.18 147.29 163.37 137.49
  C 164.23 130.39 161.65 122.76 153.38 122.25
  Q 146.29 121.80 142.22 123.16
  Q 132.67 126.34 135.19 136.38"
/>
<path stroke="#3b713f" vector-effect="non-scaling-stroke" d="
  M 135.19 136.38
  Q 129.12 142.88 136.54 147.81"
/>
<path stroke="#48894d" vector-effect="non-scaling-stroke" d="
  M 136.54 147.81
  Q 136.20 153.41 136.21 159.00
  Q 136.22 165.67 130.19 175.77"
/>
<path stroke="#3b713f" vector-effect="non-scaling-stroke" d="
  M 130.19 175.77
  Q 125.58 180.83 128.74 185.31"
/>
<path stroke="#48894d" vector-effect="non-scaling-stroke" d="
  M 128.74 185.31
  Q 128.14 189.26 129.41 193.21
  Q 131.09 198.47 132.66 203.72
  Q 135.42 212.98 132.33 222.85
  A 1.54 1.48 -68.8 0 0 133.09 224.68
  Q 133.15 224.71 133.79 224.58"
/>
<path stroke="#3b713f" vector-effect="non-scaling-stroke" d="
  M 133.79 224.58
  Q 130.80 224.62 129.94 225.16
  Q 123.67 229.08 127.88 235.26"
/>
<path stroke="#48894d" vector-effect="non-scaling-stroke" d="
  M 127.88 235.26
  Q 120.91 248.87 124.49 263.61
  A 2.76 2.76 0.0 0 0 126.20 265.53
  C 127.47 266.01 128.89 266.23 129.97 267.24
  Q 133.95 270.99 131.43 275.91
  C 130.59 277.55 128.64 277.96 128.38 280.03
  Q 127.17 289.70 121.95 299.39
  C 119.08 304.71 116.27 310.05 115.87 316.02"
/>
<path stroke="#3b713f" vector-effect="non-scaling-stroke" d="
  M 115.87 316.02
  C 106.27 307.73 99.47 322.50 108.18 325.82
  C 111.04 326.91 112.28 325.67 114.59 324.98"
/>
<path stroke="#48894d" vector-effect="non-scaling-stroke" d="
  M 114.59 324.98
  Q 114.52 330.97 114.39 336.98
  C 114.30 340.74 113.58 344.38 113.57 348.09
  Q 113.57 352.19 112.84 356.38
  Q 111.85 362.09 110.42 367.80"
/>
<path stroke="#596740" vector-effect="non-scaling-stroke" d="
  M 110.42 367.80
  Q 108.92 368.96 107.59 370.59
  Q 97.14 383.47 87.78 397.24
  Q 87.46 397.70 87.45 397.15
  L 87.29 388.40"
/>
<path stroke="#48894d" vector-effect="non-scaling-stroke" d="
  M 87.29 388.40
  L 96.08 362.27"
/>
<path stroke="#3b713f" vector-effect="non-scaling-stroke" d="
  M 96.08 362.27
  Q 95.98 367.56 99.83 369.12
  C 103.46 370.60 107.82 368.62 108.56 364.50
  C 109.08 361.64 107.97 358.56 105.16 357.45
  Q 102.37 356.35 99.99 357.32
  Q 98.26 358.03 96.59 360.44"
/>
<path stroke="#48894d" vector-effect="non-scaling-stroke" d="
  M 96.59 360.44
  Q 99.02 352.67 96.31 344.71
  Q 95.03 340.93 93.72 336.91
  C 88.80 321.77 90.43 304.80 94.11 289.32
  C 97.35 275.71 99.65 260.43 92.29 248.00
  Q 89.44 243.18 88.03 239.89
  Q 85.44 233.86 83.98 227.09"
/>
<path stroke="#3b713f" vector-effect="non-scaling-stroke" d="
  M 83.98 227.09
  Q 88.54 224.35 87.37 220.10
  Q 86.43 216.69 83.27 215.68
  Q 80.04 214.66 76.50 217.00"
/>
<path stroke="#48894d" vector-effect="non-scaling-stroke" d="
  M 76.50 217.00
  Q 78.90 213.73 83.19 214.96
  A 0.92 0.91 -77.3 0 0 84.34 214.23
  Q 85.79 205.43 88.02 195.31
  Q 89.65 187.91 88.78 178.39
  C 88.28 172.91 86.12 169.77 83.32 165.41
  C 79.34 159.20 78.03 150.00 76.52 142.27"
/>
<path stroke="#3b713f" vector-effect="non-scaling-stroke" d="
  M 76.52 142.27
  Q 82.10 145.47 85.45 141.79
  C 90.93 135.75 83.04 127.37 76.28 132.96"
/>
<path stroke="#48894d" vector-effect="non-scaling-stroke" d="
  M 76.28 132.96
  C 77.90 123.98 80.91 117.10 84.06 109.54
  Q 87.97 100.18 84.99 92.20
  C 83.76 88.88 81.57 85.88 79.58 82.92
  Q 77.34 79.58 75.81 75.87
  Q 72.47 67.75 70.64 58.68"
/>
<path stroke="#3b713f" vector-effect="non-scaling-stroke" d="
  M 70.64 58.68
  Q 72.84 56.65 72.47 53.50
  Q 71.88 48.51 66.97 47.86"
/>
<path stroke="#48894d" vector-effect="non-scaling-stroke" d="
  M 66.97 47.86
  Q 68.22 47.54 66.82 44.31
  Q 63.54 36.75 60.56 27.84
  Q 60.31 27.12 59.63 26.80
  Q 56.50 25.32 53.51 25.59
  Q 52.97 25.64 52.56 26.00
  Q 48.39 29.57 48.66 34.82"
/>
<path stroke="#3b713f" vector-effect="non-scaling-stroke" d="
  M 48.66 34.82
  Q 42.07 36.52 43.60 42.91
  Q 44.48 46.56 48.34 47.26"
/>
<path stroke="#48894d" vector-effect="non-scaling-stroke" d="
  M 48.34 47.26
  Q 46.28 55.71 43.88 64.23
  Q 41.62 72.25 42.42 80.46
  Q 42.68 83.13 44.40 87.86
  Q 48.77 99.88 47.53 113.59"
/>
<path stroke="#3b713f" vector-effect="non-scaling-stroke" d="
  M 47.53 113.59
  Q 45.69 117.21 47.58 120.73"
/>
<path stroke="#48894d" vector-effect="non-scaling-stroke" d="
  M 47.58 120.73
  Q 46.68 134.65 44.04 148.72"
/>
<path stroke="#3b713f" vector-effect="non-scaling-stroke" d="
  M 44.04 148.72
  Q 40.26 152.08 42.19 156.83"
/>
<path stroke="#48894d" vector-effect="non-scaling-stroke" d="
  M 42.19 156.83
  Q 39.90 169.02 43.16 180.76
  Q 44.69 186.28 46.74 191.77
  Q 47.21 193.04 48.56 193.17
  L 51.55 193.46"
/>
<path stroke="#3b713f" vector-effect="non-scaling-stroke" d="
  M 51.55 193.46
  Q 45.37 192.86 43.80 196.97
  Q 42.63 200.02 44.22 202.93
  Q 46.02 206.25 50.57 205.75"
/>
<path stroke="#48894d" vector-effect="non-scaling-stroke" d="
  M 50.57 205.75
  Q 50.48 220.92 46.73 235.49
  Q 41.72 254.91 46.61 274.63
  C 47.84 279.62 50.50 284.98 51.58 290.43
  Q 52.13 293.23 52.51 296.03
  Q 52.58 296.54 52.97 296.87
  Q 54.05 297.79 55.48 297.90"
/>
<path stroke="#3b713f" vector-effect="non-scaling-stroke" d="
  M 55.48 297.90
  C 53.56 298.11 51.50 297.96 49.97 299.17
  Q 47.26 301.30 47.62 304.75
  Q 48.23 310.51 54.49 310.42"
/>
<path stroke="#48894d" vector-effect="non-scaling-stroke" d="
  M 54.49 310.42
  Q 53.01 311.36 52.83 314.25
  Q 52.08 326.50 52.35 334.75
  Q 52.54 340.78 54.10 347.08"
/>
<path stroke="#3b713f" vector-effect="non-scaling-stroke" d="
  M 54.10 347.08
  Q 52.67 351.47 55.82 354.82"
/>
<path stroke="#48894d" vector-effect="non-scaling-stroke" d="
  M 55.82 354.82
  Q 57.85 365.64 61.27 371.49
  Q 67.09 381.44 73.18 392.26"
/>
<path stroke="#596740" vector-effect="non-scaling-stroke" d="
  M 73.18 392.26
  Q 73.82 407.35 72.38 423.58"
/>
<path stroke="#3b713f" vector-effect="non-scaling-stroke" d="
  M 131.2485 271.8961
  A 6.87 6.58 -6.3 0 0 123.6979 266.1097
  A 6.87 6.58 -6.3 0 0 117.5915 273.4039
  A 6.87 6.58 -6.3 0 0 125.1421 279.1903
  A 6.87 6.58 -6.3 0 0 131.2485 271.8961"
/>
<path stroke="#417c46" vector-effect="non-scaling-stroke" d="
  M 66.97 47.86
  C 59.46 47.40 56.91 56.77 63.51 59.99
  Q 66.93 61.66 70.64 58.68"
/>
<path stroke="#417c46" vector-effect="non-scaling-stroke" d="
  M 76.28 132.96
  Q 72.54 137.49 76.52 142.27"
/>
<path stroke="#417c46" vector-effect="non-scaling-stroke" d="
  M 76.50 217.00
  Q 73.38 220.97 75.85 224.91
  Q 78.36 228.91 83.98 227.09"
/>
<path stroke="#417c46" vector-effect="non-scaling-stroke" d="
  M 96.59 360.44
  Q 96.14 361.23 96.08 362.27"
/>
<path stroke="#5f7246" vector-effect="non-scaling-stroke" d="
  M 87.29 388.40
  Q 85.48 378.12 84.56 369.25
  Q 83.77 361.66 81.16 354.31
  Q 80.09 351.28 77.15 350.68
  Q 71.63 349.55 70.52 354.56
  Q 69.90 357.40 70.29 359.50
  Q 73.22 375.21 73.18 392.26"
/>
<path stroke="#417c46" vector-effect="non-scaling-stroke" d="
  M 55.82 354.82
  Q 60.50 357.75 63.87 354.87
  C 71.67 348.20 59.80 337.78 54.10 347.08"
/>
<path stroke="#417c46" vector-effect="non-scaling-stroke" d="
  M 54.49 310.42
  C 61.81 309.58 62.33 300.13 55.48 297.90"
/>
<path stroke="#417c46" vector-effect="non-scaling-stroke" d="
  M 50.57 205.75
  Q 56.36 204.35 55.90 199.00
  Q 55.55 194.97 51.55 193.46"
/>
<path stroke="#417c46" vector-effect="non-scaling-stroke" d="
  M 42.19 156.83
  Q 45.34 161.60 49.94 159.92
  C 58.72 156.72 52.76 143.27 44.04 148.72"
/>
<path stroke="#417c46" vector-effect="non-scaling-stroke" d="
  M 47.58 120.73
  Q 50.42 124.04 53.84 123.50
  C 61.17 122.34 60.94 112.18 54.01 110.80
  Q 50.64 110.12 47.53 113.59"
/>
<path stroke="#417c46" vector-effect="non-scaling-stroke" d="
  M 48.34 47.26
  Q 53.46 47.69 55.24 44.38
  Q 56.90 41.30 55.38 38.07
  Q 53.74 34.59 48.66 34.82"
/>
<path stroke="#417c46" vector-effect="non-scaling-stroke" d="
  M 57.94 76.54
  A 6.36 6.36 0.0 0 0 51.58 70.18
  A 6.36 6.36 0.0 0 0 45.22 76.54
  A 6.36 6.36 0.0 0 0 51.58 82.90
  A 6.36 6.36 0.0 0 0 57.94 76.54"
/>
<path stroke="#417c46" vector-effect="non-scaling-stroke" d="
  M 75.55 92.66
  A 6.39 6.39 0.0 0 0 69.16 86.27
  A 6.39 6.39 0.0 0 0 62.77 92.66
  A 6.39 6.39 0.0 0 0 69.16 99.05
  A 6.39 6.39 0.0 0 0 75.55 92.66"
/>
<path stroke="#417c46" vector-effect="non-scaling-stroke" d="
  M 85.40 179.14
  A 6.38 6.38 0.0 0 0 79.02 172.76
  A 6.38 6.38 0.0 0 0 72.64 179.14
  A 6.38 6.38 0.0 0 0 79.02 185.52
  A 6.38 6.38 0.0 0 0 85.40 179.14"
/>
<path stroke="#417c46" vector-effect="non-scaling-stroke" d="
  M 61.59 250.75
  A 6.36 6.36 0.0 0 0 55.23 244.39
  A 6.36 6.36 0.0 0 0 48.87 250.75
  A 6.36 6.36 0.0 0 0 55.23 257.11
  A 6.36 6.36 0.0 0 0 61.59 250.75"
/>
<path stroke="#417c46" vector-effect="non-scaling-stroke" d="
  M 88.0197 263.1654
  A 7.15 6.59 -33.1 0 0 78.4312 261.5494
  A 7.15 6.59 -33.1 0 0 76.0403 270.9746
  A 7.15 6.59 -33.1 0 0 85.6288 272.5906
  A 7.15 6.59 -33.1 0 0 88.0197 263.1654"
/>
<path stroke="#417c46" vector-effect="non-scaling-stroke" d="
  M 88.48 318.25
  A 6.38 6.38 0.0 0 0 82.10 311.87
  A 6.38 6.38 0.0 0 0 75.72 318.25
  A 6.38 6.38 0.0 0 0 82.10 324.63
  A 6.38 6.38 0.0 0 0 88.48 318.25"
/>
<path stroke="#417c46" vector-effect="non-scaling-stroke" d="
  M 161.41 156.93
  Q 157.46 157.48 156.15 160.38
  C 153.37 166.51 160.33 172.22 165.79 168.18"
/>
<path stroke="#417c46" vector-effect="non-scaling-stroke" d="
  M 168.43 210.14
  Q 167.65 204.59 163.76 203.74
  C 155.23 201.86 152.12 213.71 160.35 216.07
  Q 164.30 217.21 167.42 213.20"
/>
<path stroke="#5f7246" vector-effect="non-scaling-stroke" d="
  M 121.18 399.25
  L 92.21 425.86
  Q 92.06 426.01 92.15 425.82
  C 94.87 420.54 97.04 414.93 100.08 409.87
  Q 110.45 392.61 120.26 373.67
  Q 121.14 371.96 120.62 370.10
  C 119.26 365.26 114.17 365.39 110.42 367.80"
/>
<path stroke="#417c46" vector-effect="non-scaling-stroke" d="
  M 114.59 324.98
  Q 118.23 321.17 115.87 316.02"
/>
<path stroke="#417c46" vector-effect="non-scaling-stroke" d="
  M 127.88 235.26
  Q 132.00 238.51 135.42 236.64
  Q 138.47 234.97 138.88 231.23
  Q 139.39 226.59 133.79 224.58"
/>
<path stroke="#417c46" vector-effect="non-scaling-stroke" d="
  M 128.74 185.31
  Q 132.27 189.66 136.79 187.10
  Q 140.65 184.91 140.19 181.18
  Q 139.78 177.87 137.07 176.21
  Q 134.25 174.47 130.19 175.77"
/>
<path stroke="#417c46" vector-effect="non-scaling-stroke" d="
  M 136.54 147.81
  C 141.16 149.18 145.82 147.56 146.74 142.66
  Q 147.30 139.67 145.16 137.34
  Q 141.47 133.32 135.19 136.38"
/>
<path stroke="#417c46" vector-effect="non-scaling-stroke" d="
  M 164.26 261.77
  A 6.37 6.37 0.0 0 0 157.89 255.40
  A 6.37 6.37 0.0 0 0 151.52 261.77
  A 6.37 6.37 0.0 0 0 157.89 268.14
  A 6.37 6.37 0.0 0 0 164.26 261.77"
/>
<path stroke="#417c46" vector-effect="non-scaling-stroke" d="
  M 150.17 303.55
  A 6.36 6.36 0.0 0 0 143.81 297.19
  A 6.36 6.36 0.0 0 0 137.45 303.55
  A 6.36 6.36 0.0 0 0 143.81 309.91
  A 6.36 6.36 0.0 0 0 150.17 303.55"
/>
<path stroke="#417c46" vector-effect="non-scaling-stroke" d="
  M 139.89 349.12
  A 6.37 6.37 0.0 0 0 133.52 342.75
  A 6.37 6.37 0.0 0 0 127.15 349.12
  A 6.37 6.37 0.0 0 0 133.52 355.49
  A 6.37 6.37 0.0 0 0 139.89 349.12"
/>
<path stroke="#417c46" vector-effect="non-scaling-stroke" d="
  M 217.78 267.79
  Q 211.92 270.85 214.43 277.13"
/>
<path stroke="#417c46" vector-effect="non-scaling-stroke" d="
  M 215.58 299.69
  C 209.59 301.93 209.02 308.71 214.42 311.98"
/>
<path stroke="#417c46" vector-effect="non-scaling-stroke" d="
  M 199.45 350.10
  C 195.56 347.15 190.91 348.09 189.02 352.57
  Q 187.21 356.87 192.19 360.62"
/>
<path stroke="#417c46" vector-effect="non-scaling-stroke" d="
  M 168.45 384.75
  Q 165.07 383.15 162.25 384.87
  C 157.61 387.69 158.15 394.82 163.92 396.61"
/>
<path stroke="#417c46" vector-effect="non-scaling-stroke" d="
  M 134.24 406.23
  Q 142.38 406.34 141.88 398.37
  Q 141.77 396.69 138.85 394.00"
/>
<path stroke="#417c46" vector-effect="non-scaling-stroke" d="
  M 153.63 366.46
  Q 154.03 371.93 158.37 373.04
  C 164.94 374.71 168.99 367.58 164.70 362.55
  Q 162.25 359.69 157.64 361.05"
/>
<path stroke="#417c46" vector-effect="non-scaling-stroke" d="
  M 172.75 347.46
  Q 172.84 347.68 172.93 347.90"
/>
<path stroke="#417c46" vector-effect="non-scaling-stroke" d="
  M 177.85 332.98
  C 180.21 336.74 184.41 337.67 187.86 334.88
  Q 189.33 333.69 189.59 332.62
  Q 191.35 325.46 184.34 323.70"
/>
<path stroke="#417c46" vector-effect="non-scaling-stroke" d="
  M 189.98 299.59
  Q 196.04 301.87 198.81 297.00
  Q 201.16 292.87 197.30 289.11"
/>
<path stroke="#417c46" vector-effect="non-scaling-stroke" d="
  M 209.78 260.52
  C 212.30 257.10 209.82 252.88 206.70 250.54"
/>
<path stroke="#525939" vector-effect="non-scaling-stroke" d="
  M 136.95 393.84
  C 138.28 396.22 139.72 398.69 137.33 401.06
  Q 134.94 403.43 132.66 405.92"
/>
</g>
<path fill="#427e46" d="
  M 90.90 453.19
  Q 93.04 450.19 95.26 447.47
  Q 101.44 439.94 107.98 432.72
  Q 120.24 419.21 132.66 405.92
  L 134.24 406.23
  Q 128.39 416.31 122.44 420.94
  Q 119.48 423.25 116.62 425.54
  C 113.96 427.67 112.03 430.29 110.05 433.01
  Q 108.92 434.57 110.62 433.66
  C 113.67 432.03 116.80 430.52 119.56 428.41
  Q 125.99 423.47 133.45 416.30
  Q 139.74 410.25 144.12 407.98
  Q 147.32 406.32 153.31 404.13
  Q 158.75 402.13 163.92 396.61
  Q 169.17 397.66 171.43 392.98
  Q 172.28 391.24 171.66 389.02
  Q 171.36 387.92 170.27 386.75
  Q 169.38 385.81 168.45 384.75
  Q 169.63 385.53 170.67 385.66
  Q 171.19 385.73 171.32 385.23
  Q 173.52 376.98 178.41 372.66
  Q 185.20 366.66 192.19 360.62
  Q 197.11 362.48 200.07 358.57
  Q 203.21 354.42 199.45 350.10
  Q 200.81 347.10 200.74 341.49
  Q 200.68 335.69 205.05 329.03
  Q 208.73 323.43 212.37 317.82
  Q 213.27 316.44 214.42 311.98
  Q 219.99 313.24 222.26 309.74
  Q 224.29 306.59 222.77 303.12
  Q 221.10 299.31 215.58 299.69
  Q 210.23 288.59 214.43 277.13
  Q 218.85 282.30 223.54 279.03
  C 229.75 274.68 225.05 265.85 217.78 267.79
  Q 219.24 264.63 219.07 261.36
  C 218.77 255.71 212.47 248.85 208.66 245.04
  A 0.41 0.40 35.9 0 0 208.01 245.14
  Q 206.58 247.91 206.70 250.54
  Q 197.72 248.54 197.05 255.39
  Q 196.72 258.83 198.71 261.21
  Q 201.05 264.00 205.01 263.65
  Q 207.43 263.44 209.78 260.52
  Q 209.68 261.47 208.67 262.20
  Q 207.51 263.05 207.37 264.50
  Q 206.38 274.71 200.80 283.29
  Q 197.84 287.84 197.30 289.11
  Q 194.71 287.09 191.88 287.71
  Q 189.37 288.27 187.78 290.70
  Q 184.82 295.24 189.98 299.59
  Q 189.37 302.67 189.56 305.99
  Q 189.83 310.85 189.70 312.02
  Q 189.27 315.71 187.90 317.87
  Q 186.05 320.79 184.34 323.70
  Q 175.57 324.24 177.85 332.98
  Q 176.83 332.02 175.92 333.18
  Q 175.07 334.26 174.45 335.51
  Q 174.23 335.96 174.28 336.46
  Q 174.82 342.39 172.93 347.90
  Q 172.70 338.18 166.05 339.01
  Q 162.52 339.45 161.17 341.99
  Q 159.13 345.82 161.53 349.26
  C 162.71 350.94 164.91 351.10 166.78 351.22
  Q 168.49 351.33 170.08 350.08
  Q 171.44 349.01 172.75 347.46
  C 172.34 350.90 169.69 351.65 166.88 352.28
  Q 166.39 352.39 165.90 352.26
  Q 165.01 352.01 164.12 352.18
  Q 163.59 352.27 163.28 352.72
  L 157.64 361.05
  Q 154.47 362.82 153.63 366.46
  Q 148.42 371.60 144.44 377.23
  Q 140.80 382.38 138.58 388.24
  Q 137.32 391.55 138.85 394.00
  Q 138.22 394.31 136.95 393.84
  Q 136.11 393.27 135.18 392.85
  C 130.97 390.95 124.92 396.34 121.18 399.25
  Q 122.58 395.70 122.79 390.75
  C 123.11 383.32 128.24 374.17 132.89 368.06
  Q 139.92 358.82 147.74 348.88
  C 153.02 342.16 156.08 333.53 155.19 324.98
  Q 154.78 321.06 154.16 316.83
  C 152.75 307.17 153.64 298.72 157.44 289.40
  C 159.85 283.48 162.95 278.06 164.85 272.12
  Q 168.32 261.27 169.25 250.22
  Q 169.39 248.63 169.17 247.00
  Q 168.07 238.62 166.57 228.49
  Q 165.62 222.12 166.27 219.50
  Q 167.04 216.37 167.42 213.20
  Q 167.80 211.14 168.43 210.14
  Q 171.31 204.79 174.40 197.24
  C 176.60 191.85 178.69 181.52 174.03 176.96
  Q 169.73 172.75 165.79 168.18
  Q 169.68 164.95 167.71 160.50
  Q 165.88 156.39 161.41 156.93
  Q 162.18 147.29 163.37 137.49
  C 164.23 130.39 161.65 122.76 153.38 122.25
  Q 146.29 121.80 142.22 123.16
  Q 132.67 126.34 135.19 136.38
  Q 129.12 142.88 136.54 147.81
  Q 136.20 153.41 136.21 159.00
  Q 136.22 165.67 130.19 175.77
  Q 125.58 180.83 128.74 185.31
  Q 128.14 189.26 129.41 193.21
  Q 131.09 198.47 132.66 203.72
  Q 135.42 212.98 132.33 222.85
  A 1.54 1.48 -68.8 0 0 133.09 224.68
  Q 133.15 224.71 133.79 224.58
  Q 130.80 224.62 129.94 225.16
  Q 123.67 229.08 127.88 235.26
  Q 120.91 248.87 124.49 263.61
  A 2.76 2.76 0.0 0 0 126.20 265.53
  C 127.47 266.01 128.89 266.23 129.97 267.24
  Q 133.95 270.99 131.43 275.91
  C 130.59 277.55 128.64 277.96 128.38 280.03
  Q 127.17 289.70 121.95 299.39
  C 119.08 304.71 116.27 310.05 115.87 316.02
  C 106.27 307.73 99.47 322.50 108.18 325.82
  C 111.04 326.91 112.28 325.67 114.59 324.98
  Q 114.52 330.97 114.39 336.98
  C 114.30 340.74 113.58 344.38 113.57 348.09
  Q 113.57 352.19 112.84 356.38
  Q 111.85 362.09 110.42 367.80
  Q 108.92 368.96 107.59 370.59
  Q 97.14 383.47 87.78 397.24
  Q 87.46 397.70 87.45 397.15
  L 87.29 388.40
  L 96.08 362.27
  Q 95.98 367.56 99.83 369.12
  C 103.46 370.60 107.82 368.62 108.56 364.50
  C 109.08 361.64 107.97 358.56 105.16 357.45
  Q 102.37 356.35 99.99 357.32
  Q 98.26 358.03 96.59 360.44
  Q 99.02 352.67 96.31 344.71
  Q 95.03 340.93 93.72 336.91
  C 88.80 321.77 90.43 304.80 94.11 289.32
  C 97.35 275.71 99.65 260.43 92.29 248.00
  Q 89.44 243.18 88.03 239.89
  Q 85.44 233.86 83.98 227.09
  Q 88.54 224.35 87.37 220.10
  Q 86.43 216.69 83.27 215.68
  Q 80.04 214.66 76.50 217.00
  Q 78.90 213.73 83.19 214.96
  A 0.92 0.91 -77.3 0 0 84.34 214.23
  Q 85.79 205.43 88.02 195.31
  Q 89.65 187.91 88.78 178.39
  C 88.28 172.91 86.12 169.77 83.32 165.41
  C 79.34 159.20 78.03 150.00 76.52 142.27
  Q 82.10 145.47 85.45 141.79
  C 90.93 135.75 83.04 127.37 76.28 132.96
  C 77.90 123.98 80.91 117.10 84.06 109.54
  Q 87.97 100.18 84.99 92.20
  C 83.76 88.88 81.57 85.88 79.58 82.92
  Q 77.34 79.58 75.81 75.87
  Q 72.47 67.75 70.64 58.68
  Q 72.84 56.65 72.47 53.50
  Q 71.88 48.51 66.97 47.86
  Q 68.22 47.54 66.82 44.31
  Q 63.54 36.75 60.56 27.84
  Q 60.31 27.12 59.63 26.80
  Q 56.50 25.32 53.51 25.59
  Q 52.97 25.64 52.56 26.00
  Q 48.39 29.57 48.66 34.82
  Q 42.07 36.52 43.60 42.91
  Q 44.48 46.56 48.34 47.26
  Q 46.28 55.71 43.88 64.23
  Q 41.62 72.25 42.42 80.46
  Q 42.68 83.13 44.40 87.86
  Q 48.77 99.88 47.53 113.59
  Q 45.69 117.21 47.58 120.73
  Q 46.68 134.65 44.04 148.72
  Q 40.26 152.08 42.19 156.83
  Q 39.90 169.02 43.16 180.76
  Q 44.69 186.28 46.74 191.77
  Q 47.21 193.04 48.56 193.17
  L 51.55 193.46
  Q 45.37 192.86 43.80 196.97
  Q 42.63 200.02 44.22 202.93
  Q 46.02 206.25 50.57 205.75
  Q 50.48 220.92 46.73 235.49
  Q 41.72 254.91 46.61 274.63
  C 47.84 279.62 50.50 284.98 51.58 290.43
  Q 52.13 293.23 52.51 296.03
  Q 52.58 296.54 52.97 296.87
  Q 54.05 297.79 55.48 297.90
  C 53.56 298.11 51.50 297.96 49.97 299.17
  Q 47.26 301.30 47.62 304.75
  Q 48.23 310.51 54.49 310.42
  Q 53.01 311.36 52.83 314.25
  Q 52.08 326.50 52.35 334.75
  Q 52.54 340.78 54.10 347.08
  Q 52.67 351.47 55.82 354.82
  Q 57.85 365.64 61.27 371.49
  Q 67.09 381.44 73.18 392.26
  Q 73.82 407.35 72.38 423.58
  Q 69.80 416.98 68.41 414.59
  Q 64.44 407.83 61.38 401.22
  C 58.60 395.22 55.39 389.41 51.83 384.00
  C 41.21 367.85 36.44 344.40 37.34 325.34
  Q 37.83 314.99 37.93 304.84
  Q 37.99 297.46 36.42 291.80
  C 35.14 287.17 33.04 282.78 31.96 278.07
  Q 28.40 262.41 29.46 247.94
  C 30.65 231.61 39.27 215.00 33.24 198.53
  Q 30.09 189.91 28.50 183.79
  Q 24.95 170.12 27.16 155.18
  C 28.29 147.60 30.68 139.75 31.51 132.04
  Q 33.15 116.69 32.54 102.82
  C 32.38 99.26 31.38 95.67 30.05 92.34
  C 25.09 79.83 27.37 66.56 31.32 53.67
  C 32.59 49.54 33.11 44.96 32.80 40.64
  Q 31.93 28.34 39.45 17.94
  C 45.92 8.98 57.61 8.98 66.73 13.55
  C 74.56 17.46 74.74 24.69 77.96 31.71
  C 82.60 41.78 84.47 52.53 87.24 63.24
  C 88.20 66.99 89.59 71.14 91.87 74.37
  C 99.37 85.04 103.58 95.21 100.12 108.32
  Q 98.42 114.74 94.92 122.52
  C 92.05 128.88 90.81 134.39 91.80 141.33
  C 92.71 147.77 93.77 154.31 97.46 159.69
  C 106.74 173.23 104.90 190.82 101.07 205.94
  C 98.63 215.55 97.72 227.82 103.10 236.71
  Q 106.14 241.74 108.42 246.84
  Q 108.71 247.49 108.81 246.79
  C 110.24 237.23 114.15 228.65 117.57 219.54
  C 120.87 210.76 116.77 204.69 114.77 196.60
  C 111.87 184.84 112.60 173.83 119.15 164.19
  C 121.11 161.30 121.56 157.55 121.38 154.16
  Q 121.07 148.19 120.18 141.78
  C 119.40 136.16 119.08 129.76 121.24 124.33
  Q 125.84 112.76 137.43 109.04
  C 161.34 101.36 181.67 114.83 178.05 140.90
  Q 177.27 146.56 177.03 152.23
  C 176.81 157.43 178.54 160.75 182.25 164.07
  C 194.25 174.79 193.80 190.42 187.65 204.32
  Q 185.04 210.20 182.41 216.56
  Q 180.53 221.11 181.50 227.43
  Q 182.76 235.67 183.95 243.97
  Q 184.62 248.67 184.01 253.76
  Q 182.69 264.90 179.42 275.82
  C 177.42 282.49 173.88 288.81 171.18 295.31
  Q 166.71 306.05 169.49 317.38
  Q 169.64 318.01 170.03 317.49
  Q 171.83 315.06 173.57 312.67
  C 175.07 310.60 174.88 307.90 174.65 305.50
  C 173.62 294.83 178.76 286.82 185.46 279.04
  C 189.53 274.31 193.24 266.83 192.28 260.51
  C 190.99 252.06 191.07 245.10 195.17 237.20
  C 198.66 230.47 204.42 226.95 212.21 230.16
  C 218.06 232.56 222.28 237.19 226.07 242.20
  C 232.90 251.23 236.54 259.82 232.54 271.45
  Q 230.68 276.84 228.71 281.88
  C 227.60 284.71 226.96 287.86 228.23 290.75
  C 231.63 298.49 230.42 307.62 228.81 315.84
  C 227.39 323.12 222.87 329.52 218.41 335.58
  C 215.53 339.50 215.97 343.00 215.54 347.53
  C 214.75 355.93 209.34 364.54 203.63 370.53
  C 199.55 374.81 193.40 378.80 188.71 383.72
  C 187.34 385.15 186.42 386.71 186.07 388.67
  C 185.21 393.47 183.68 397.76 180.47 401.54
  Q 172.50 410.92 161.81 416.62
  C 157.70 418.82 152.72 419.57 149.29 422.44
  Q 141.54 428.94 133.55 436.03
  C 125.01 443.61 114.72 447.53 104.40 451.93
  Q 98.94 454.25 90.90 453.19
  Z
  M 131.2485 271.8961
  A 6.87 6.58 -6.3 0 0 123.6979 266.1097
  A 6.87 6.58 -6.3 0 0 117.5915 273.4039
  A 6.87 6.58 -6.3 0 0 125.1421 279.1903
  A 6.87 6.58 -6.3 0 0 131.2485 271.8961
  Z
  M 111.86 273.54
  C 111.32 280.13 110.16 286.75 108.56 293.07
  Q 108.17 294.59 108.83 293.16
  C 111.83 286.62 114.75 280.86 111.91 273.53
  Q 111.87 273.41 111.86 273.54
  Z"
/>
<path fill="#4e9453" d="
  M 66.97 47.86
  C 59.46 47.40 56.91 56.77 63.51 59.99
  Q 66.93 61.66 70.64 58.68
  Q 72.47 67.75 75.81 75.87
  Q 77.34 79.58 79.58 82.92
  C 81.57 85.88 83.76 88.88 84.99 92.20
  Q 87.97 100.18 84.06 109.54
  C 80.91 117.10 77.90 123.98 76.28 132.96
  Q 72.54 137.49 76.52 142.27
  C 78.03 150.00 79.34 159.20 83.32 165.41
  C 86.12 169.77 88.28 172.91 88.78 178.39
  Q 89.65 187.91 88.02 195.31
  Q 85.79 205.43 84.34 214.23
  A 0.92 0.91 -77.3 0 1 83.19 214.96
  Q 78.90 213.73 76.50 217.00
  Q 73.38 220.97 75.85 224.91
  Q 78.36 228.91 83.98 227.09
  Q 85.44 233.86 88.03 239.89
  Q 89.44 243.18 92.29 248.00
  C 99.65 260.43 97.35 275.71 94.11 289.32
  C 90.43 304.80 88.80 321.77 93.72 336.91
  Q 95.03 340.93 96.31 344.71
  Q 99.02 352.67 96.59 360.44
  Q 96.14 361.23 96.08 362.27
  L 87.29 388.40
  Q 85.48 378.12 84.56 369.25
  Q 83.77 361.66 81.16 354.31
  Q 80.09 351.28 77.15 350.68
  Q 71.63 349.55 70.52 354.56
  Q 69.90 357.40 70.29 359.50
  Q 73.22 375.21 73.18 392.26
  Q 67.09 381.44 61.27 371.49
  Q 57.85 365.64 55.82 354.82
  Q 60.50 357.75 63.87 354.87
  C 71.67 348.20 59.80 337.78 54.10 347.08
  Q 52.54 340.78 52.35 334.75
  Q 52.08 326.50 52.83 314.25
  Q 53.01 311.36 54.49 310.42
  C 61.81 309.58 62.33 300.13 55.48 297.90
  Q 54.05 297.79 52.97 296.87
  Q 52.58 296.54 52.51 296.03
  Q 52.13 293.23 51.58 290.43
  C 50.50 284.98 47.84 279.62 46.61 274.63
  Q 41.72 254.91 46.73 235.49
  Q 50.48 220.92 50.57 205.75
  Q 56.36 204.35 55.90 199.00
  Q 55.55 194.97 51.55 193.46
  L 48.56 193.17
  Q 47.21 193.04 46.74 191.77
  Q 44.69 186.28 43.16 180.76
  Q 39.90 169.02 42.19 156.83
  Q 45.34 161.60 49.94 159.92
  C 58.72 156.72 52.76 143.27 44.04 148.72
  Q 46.68 134.65 47.58 120.73
  Q 50.42 124.04 53.84 123.50
  C 61.17 122.34 60.94 112.18 54.01 110.80
  Q 50.64 110.12 47.53 113.59
  Q 48.77 99.88 44.40 87.86
  Q 42.68 83.13 42.42 80.46
  Q 41.62 72.25 43.88 64.23
  Q 46.28 55.71 48.34 47.26
  Q 53.46 47.69 55.24 44.38
  Q 56.90 41.30 55.38 38.07
  Q 53.74 34.59 48.66 34.82
  Q 48.39 29.57 52.56 26.00
  Q 52.97 25.64 53.51 25.59
  Q 56.50 25.32 59.63 26.80
  Q 60.31 27.12 60.56 27.84
  Q 63.54 36.75 66.82 44.31
  Q 68.22 47.54 66.97 47.86
  Z
  M 57.94 76.54
  A 6.36 6.36 0.0 0 0 51.58 70.18
  A 6.36 6.36 0.0 0 0 45.22 76.54
  A 6.36 6.36 0.0 0 0 51.58 82.90
  A 6.36 6.36 0.0 0 0 57.94 76.54
  Z
  M 75.55 92.66
  A 6.39 6.39 0.0 0 0 69.16 86.27
  A 6.39 6.39 0.0 0 0 62.77 92.66
  A 6.39 6.39 0.0 0 0 69.16 99.05
  A 6.39 6.39 0.0 0 0 75.55 92.66
  Z
  M 85.40 179.14
  A 6.38 6.38 0.0 0 0 79.02 172.76
  A 6.38 6.38 0.0 0 0 72.64 179.14
  A 6.38 6.38 0.0 0 0 79.02 185.52
  A 6.38 6.38 0.0 0 0 85.40 179.14
  Z
  M 61.59 250.75
  A 6.36 6.36 0.0 0 0 55.23 244.39
  A 6.36 6.36 0.0 0 0 48.87 250.75
  A 6.36 6.36 0.0 0 0 55.23 257.11
  A 6.36 6.36 0.0 0 0 61.59 250.75
  Z
  M 88.0197 263.1654
  A 7.15 6.59 -33.1 0 0 78.4312 261.5494
  A 7.15 6.59 -33.1 0 0 76.0403 270.9746
  A 7.15 6.59 -33.1 0 0 85.6288 272.5906
  A 7.15 6.59 -33.1 0 0 88.0197 263.1654
  Z
  M 88.48 318.25
  A 6.38 6.38 0.0 0 0 82.10 311.87
  A 6.38 6.38 0.0 0 0 75.72 318.25
  A 6.38 6.38 0.0 0 0 82.10 324.63
  A 6.38 6.38 0.0 0 0 88.48 318.25
  Z"
/>
<path fill="#346338" d="
  M 48.66 34.82
  Q 53.74 34.59 55.38 38.07
  Q 56.90 41.30 55.24 44.38
  Q 53.46 47.69 48.34 47.26
  Q 44.48 46.56 43.60 42.91
  Q 42.07 36.52 48.66 34.82
  Z"
/>
<path fill="#346338" d="
  M 66.97 47.86
  Q 71.88 48.51 72.47 53.50
  Q 72.84 56.65 70.64 58.68
  Q 66.93 61.66 63.51 59.99
  C 56.91 56.77 59.46 47.40 66.97 47.86
  Z"
/>
<circle fill="#346338" cx="51.58" cy="76.54" r="6.36"/>
<circle fill="#346338" cx="69.16" cy="92.66" r="6.39"/>
<path fill="#346338" d="
  M 47.58 120.73
  Q 45.69 117.21 47.53 113.59
  Q 50.64 110.12 54.01 110.80
  C 60.94 112.18 61.17 122.34 53.84 123.50
  Q 50.42 124.04 47.58 120.73
  Z"
/>
<path fill="#4e9453" d="
  M 161.41 156.93
  Q 157.46 157.48 156.15 160.38
  C 153.37 166.51 160.33 172.22 165.79 168.18
  Q 169.73 172.75 174.03 176.96
  C 178.69 181.52 176.60 191.85 174.40 197.24
  Q 171.31 204.79 168.43 210.14
  Q 167.65 204.59 163.76 203.74
  C 155.23 201.86 152.12 213.71 160.35 216.07
  Q 164.30 217.21 167.42 213.20
  Q 167.04 216.37 166.27 219.50
  Q 165.62 222.12 166.57 228.49
  Q 168.07 238.62 169.17 247.00
  Q 169.39 248.63 169.25 250.22
  Q 168.32 261.27 164.85 272.12
  C 162.95 278.06 159.85 283.48 157.44 289.40
  C 153.64 298.72 152.75 307.17 154.16 316.83
  Q 154.78 321.06 155.19 324.98
  C 156.08 333.53 153.02 342.16 147.74 348.88
  Q 139.92 358.82 132.89 368.06
  C 128.24 374.17 123.11 383.32 122.79 390.75
  Q 122.58 395.70 121.18 399.25
  L 92.21 425.86
  Q 92.06 426.01 92.15 425.82
  C 94.87 420.54 97.04 414.93 100.08 409.87
  Q 110.45 392.61 120.26 373.67
  Q 121.14 371.96 120.62 370.10
  C 119.26 365.26 114.17 365.39 110.42 367.80
  Q 111.85 362.09 112.84 356.38
  Q 113.57 352.19 113.57 348.09
  C 113.58 344.38 114.30 340.74 114.39 336.98
  Q 114.52 330.97 114.59 324.98
  Q 118.23 321.17 115.87 316.02
  C 116.27 310.05 119.08 304.71 121.95 299.39
  Q 127.17 289.70 128.38 280.03
  C 128.64 277.96 130.59 277.55 131.43 275.91
  Q 133.95 270.99 129.97 267.24
  C 128.89 266.23 127.47 266.01 126.20 265.53
  A 2.76 2.76 0.0 0 1 124.49 263.61
  Q 120.91 248.87 127.88 235.26
  Q 132.00 238.51 135.42 236.64
  Q 138.47 234.97 138.88 231.23
  Q 139.39 226.59 133.79 224.58
  Q 133.15 224.71 133.09 224.68
  A 1.54 1.48 -68.8 0 1 132.33 222.85
  Q 135.42 212.98 132.66 203.72
  Q 131.09 198.47 129.41 193.21
  Q 128.14 189.26 128.74 185.31
  Q 132.27 189.66 136.79 187.10
  Q 140.65 184.91 140.19 181.18
  Q 139.78 177.87 137.07 176.21
  Q 134.25 174.47 130.19 175.77
  Q 136.22 165.67 136.21 159.00
  Q 136.20 153.41 136.54 147.81
  C 141.16 149.18 145.82 147.56 146.74 142.66
  Q 147.30 139.67 145.16 137.34
  Q 141.47 133.32 135.19 136.38
  Q 132.67 126.34 142.22 123.16
  Q 146.29 121.80 153.38 122.25
  C 161.65 122.76 164.23 130.39 163.37 137.49
  Q 162.18 147.29 161.41 156.93
  Z
  M 164.26 261.77
  A 6.37 6.37 0.0 0 0 157.89 255.40
  A 6.37 6.37 0.0 0 0 151.52 261.77
  A 6.37 6.37 0.0 0 0 157.89 268.14
  A 6.37 6.37 0.0 0 0 164.26 261.77
  Z
  M 150.17 303.55
  A 6.36 6.36 0.0 0 0 143.81 297.19
  A 6.36 6.36 0.0 0 0 137.45 303.55
  A 6.36 6.36 0.0 0 0 143.81 309.91
  A 6.36 6.36 0.0 0 0 150.17 303.55
  Z
  M 139.89 349.12
  A 6.37 6.37 0.0 0 0 133.52 342.75
  A 6.37 6.37 0.0 0 0 127.15 349.12
  A 6.37 6.37 0.0 0 0 133.52 355.49
  A 6.37 6.37 0.0 0 0 139.89 349.12
  Z"
/>
<path fill="#346338" d="
  M 76.52 142.27
  Q 72.54 137.49 76.28 132.96
  C 83.04 127.37 90.93 135.75 85.45 141.79
  Q 82.10 145.47 76.52 142.27
  Z"
/>
<path fill="#346338" d="
  M 136.54 147.81
  Q 129.12 142.88 135.19 136.38
  Q 141.47 133.32 145.16 137.34
  Q 147.30 139.67 146.74 142.66
  C 145.82 147.56 141.16 149.18 136.54 147.81
  Z"
/>
<path fill="#346338" d="
  M 42.19 156.83
  Q 40.26 152.08 44.04 148.72
  C 52.76 143.27 58.72 156.72 49.94 159.92
  Q 45.34 161.60 42.19 156.83
  Z"
/>
<path fill="#346338" d="
  M 161.41 156.93
  Q 165.88 156.39 167.71 160.50
  Q 169.68 164.95 165.79 168.18
  C 160.33 172.22 153.37 166.51 156.15 160.38
  Q 157.46 157.48 161.41 156.93
  Z"
/>
<circle fill="#346338" cx="79.02" cy="179.14" r="6.38"/>
<path fill="#346338" d="
  M 128.74 185.31
  Q 125.58 180.83 130.19 175.77
  Q 134.25 174.47 137.07 176.21
  Q 139.78 177.87 140.19 181.18
  Q 140.65 184.91 136.79 187.10
  Q 132.27 189.66 128.74 185.31
  Z"
/>
<path fill="#346338" d="
  M 51.55 193.46
  Q 55.55 194.97 55.90 199.00
  Q 56.36 204.35 50.57 205.75
  Q 46.02 206.25 44.22 202.93
  Q 42.63 200.02 43.80 196.97
  Q 45.37 192.86 51.55 193.46
  Z"
/>
<path fill="#346338" d="
  M 168.43 210.14
  Q 167.80 211.14 167.42 213.20
  Q 164.30 217.21 160.35 216.07
  C 152.12 213.71 155.23 201.86 163.76 203.74
  Q 167.65 204.59 168.43 210.14
  Z"
/>
<path fill="#346338" d="
  M 83.98 227.09
  Q 78.36 228.91 75.85 224.91
  Q 73.38 220.97 76.50 217.00
  Q 80.04 214.66 83.27 215.68
  Q 86.43 216.69 87.37 220.10
  Q 88.54 224.35 83.98 227.09
  Z"
/>
<path fill="#346338" d="
  M 133.79 224.58
  Q 139.39 226.59 138.88 231.23
  Q 138.47 234.97 135.42 236.64
  Q 132.00 238.51 127.88 235.26
  Q 123.67 229.08 129.94 225.16
  Q 130.80 224.62 133.79 224.58
  Z"
/>
<circle fill="#346338" cx="55.23" cy="250.75" r="6.36"/>
<path fill="#4e9453" d="
  M 217.78 267.79
  Q 211.92 270.85 214.43 277.13
  Q 210.23 288.59 215.58 299.69
  C 209.59 301.93 209.02 308.71 214.42 311.98
  Q 213.27 316.44 212.37 317.82
  Q 208.73 323.43 205.05 329.03
  Q 200.68 335.69 200.74 341.49
  Q 200.81 347.10 199.45 350.10
  C 195.56 347.15 190.91 348.09 189.02 352.57
  Q 187.21 356.87 192.19 360.62
  Q 185.20 366.66 178.41 372.66
  Q 173.52 376.98 171.32 385.23
  Q 171.19 385.73 170.67 385.66
  Q 169.63 385.53 168.45 384.75
  Q 165.07 383.15 162.25 384.87
  C 157.61 387.69 158.15 394.82 163.92 396.61
  Q 158.75 402.13 153.31 404.13
  Q 147.32 406.32 144.12 407.98
  Q 139.74 410.25 133.45 416.30
  Q 125.99 423.47 119.56 428.41
  C 116.80 430.52 113.67 432.03 110.62 433.66
  Q 108.92 434.57 110.05 433.01
  C 112.03 430.29 113.96 427.67 116.62 425.54
  Q 119.48 423.25 122.44 420.94
  Q 128.39 416.31 134.24 406.23
  Q 142.38 406.34 141.88 398.37
  Q 141.77 396.69 138.85 394.00
  Q 137.32 391.55 138.58 388.24
  Q 140.80 382.38 144.44 377.23
  Q 148.42 371.60 153.63 366.46
  Q 154.03 371.93 158.37 373.04
  C 164.94 374.71 168.99 367.58 164.70 362.55
  Q 162.25 359.69 157.64 361.05
  L 163.28 352.72
  Q 163.59 352.27 164.12 352.18
  Q 165.01 352.01 165.90 352.26
  Q 166.39 352.39 166.88 352.28
  C 169.69 351.65 172.34 350.90 172.75 347.46
  Q 172.84 347.68 172.93 347.90
  Q 174.82 342.39 174.28 336.46
  Q 174.23 335.96 174.45 335.51
  Q 175.07 334.26 175.92 333.18
  Q 176.83 332.02 177.85 332.98
  C 180.21 336.74 184.41 337.67 187.86 334.88
  Q 189.33 333.69 189.59 332.62
  Q 191.35 325.46 184.34 323.70
  Q 186.05 320.79 187.90 317.87
  Q 189.27 315.71 189.70 312.02
  Q 189.83 310.85 189.56 305.99
  Q 189.37 302.67 189.98 299.59
  Q 196.04 301.87 198.81 297.00
  Q 201.16 292.87 197.30 289.11
  Q 197.84 287.84 200.80 283.29
  Q 206.38 274.71 207.37 264.50
  Q 207.51 263.05 208.67 262.20
  Q 209.68 261.47 209.78 260.52
  C 212.30 257.10 209.82 252.88 206.70 250.54
  Q 206.58 247.91 208.01 245.14
  A 0.41 0.40 35.9 0 1 208.66 245.04
  C 212.47 248.85 218.77 255.71 219.07 261.36
  Q 219.24 264.63 217.78 267.79
  Z"
/>
<path fill="#346338" d="
  M 206.70 250.54
  C 209.82 252.88 212.30 257.10 209.78 260.52
  Q 207.43 263.44 205.01 263.65
  Q 201.05 264.00 198.71 261.21
  Q 196.72 258.83 197.05 255.39
  Q 197.72 248.54 206.70 250.54
  Z"
/>
<circle fill="#346338" cx="157.89" cy="261.77" r="6.37"/>
<ellipse fill="#346338" cx="0.00" cy="0.00" transform="translate(82.03,267.07) rotate(-33.1)" rx="7.15" ry="6.59"/>
<ellipse fill="#346338" cx="0.00" cy="0.00" transform="translate(124.42,272.65) rotate(-6.3)" rx="6.87" ry="6.58"/>
<path fill="#346338" d="
  M 214.43 277.13
  Q 211.92 270.85 217.78 267.79
  C 225.05 265.85 229.75 274.68 223.54 279.03
  Q 218.85 282.30 214.43 277.13
  Z"
/>
<path fill="#346338" d="
  M 197.30 289.11
  Q 201.16 292.87 198.81 297.00
  Q 196.04 301.87 189.98 299.59
  Q 184.82 295.24 187.78 290.70
  Q 189.37 288.27 191.88 287.71
  Q 194.71 287.09 197.30 289.11
  Z"
/>
<circle fill="#346338" cx="143.81" cy="303.55" r="6.36"/>
<path fill="#346338" d="
  M 55.48 297.90
  C 62.33 300.13 61.81 309.58 54.49 310.42
  Q 48.23 310.51 47.62 304.75
  Q 47.26 301.30 49.97 299.17
  C 51.50 297.96 53.56 298.11 55.48 297.90
  Z"
/>
<path fill="#346338" d="
  M 215.58 299.69
  Q 221.10 299.31 222.77 303.12
  Q 224.29 306.59 222.26 309.74
  Q 219.99 313.24 214.42 311.98
  C 209.02 308.71 209.59 301.93 215.58 299.69
  Z"
/>
<circle fill="#346338" cx="82.10" cy="318.25" r="6.38"/>
<path fill="#346338" d="
  M 115.87 316.02
  Q 118.23 321.17 114.59 324.98
  C 112.28 325.67 111.04 326.91 108.18 325.82
  C 99.47 322.50 106.27 307.73 115.87 316.02
  Z"
/>
<path fill="#346338" d="
  M 184.34 323.70
  Q 191.35 325.46 189.59 332.62
  Q 189.33 333.69 187.86 334.88
  C 184.41 337.67 180.21 336.74 177.85 332.98
  Q 175.57 324.24 184.34 323.70
  Z"
/>
<path fill="#346338" d="
  M 172.93 347.90
  Q 172.84 347.68 172.75 347.46
  Q 171.44 349.01 170.08 350.08
  Q 168.49 351.33 166.78 351.22
  C 164.91 351.10 162.71 350.94 161.53 349.26
  Q 159.13 345.82 161.17 341.99
  Q 162.52 339.45 166.05 339.01
  Q 172.70 338.18 172.93 347.90
  Z"
/>
<circle fill="#346338" cx="133.52" cy="349.12" r="6.37"/>
<path fill="#346338" d="
  M 55.82 354.82
  Q 52.67 351.47 54.10 347.08
  C 59.80 337.78 71.67 348.20 63.87 354.87
  Q 60.50 357.75 55.82 354.82
  Z"
/>
<path fill="#346338" d="
  M 199.45 350.10
  Q 203.21 354.42 200.07 358.57
  Q 197.11 362.48 192.19 360.62
  Q 187.21 356.87 189.02 352.57
  C 190.91 348.09 195.56 347.15 199.45 350.10
  Z"
/>
<path fill="#704f39" d="
  M 87.29 388.40
  L 87.45 397.15
  Q 87.46 397.70 87.78 397.24
  Q 97.14 383.47 107.59 370.59
  Q 108.92 368.96 110.42 367.80
  C 114.17 365.39 119.26 365.26 120.62 370.10
  Q 121.14 371.96 120.26 373.67
  Q 110.45 392.61 100.08 409.87
  C 97.04 414.93 94.87 420.54 92.15 425.82
  Q 92.06 426.01 92.21 425.86
  L 121.18 399.25
  C 124.92 396.34 130.97 390.95 135.18 392.85
  Q 136.11 393.27 136.95 393.84
  C 138.28 396.22 139.72 398.69 137.33 401.06
  Q 134.94 403.43 132.66 405.92
  Q 120.24 419.21 107.98 432.72
  Q 101.44 439.94 95.26 447.47
  Q 93.04 450.19 90.90 453.19
  Q 86.09 460.22 81.76 467.74
  Q 78.24 473.86 75.75 477.53
  Q 72.52 482.32 69.24 487.00
  L 27.22 487.00
  Q 49.37 472.00 63.47 452.48
  C 67.99 446.24 69.54 438.70 71.23 431.34
  Q 71.58 429.83 71.80 427.46
  Q 71.99 425.42 72.38 423.58
  Q 73.82 407.35 73.18 392.26
  Q 73.22 375.21 70.29 359.50
  Q 69.90 357.40 70.52 354.56
  Q 71.63 349.55 77.15 350.68
  Q 80.09 351.28 81.16 354.31
  Q 83.77 361.66 84.56 369.25
  Q 85.48 378.12 87.29 388.40
  Z"
/>
<path fill="#346338" d="
  M 96.08 362.27
  Q 96.14 361.23 96.59 360.44
  Q 98.26 358.03 99.99 357.32
  Q 102.37 356.35 105.16 357.45
  C 107.97 358.56 109.08 361.64 108.56 364.50
  C 107.82 368.62 103.46 370.60 99.83 369.12
  Q 95.98 367.56 96.08 362.27
  Z"
/>
<path fill="#346338" d="
  M 153.63 366.46
  Q 154.47 362.82 157.64 361.05
  Q 162.25 359.69 164.70 362.55
  C 168.99 367.58 164.94 374.71 158.37 373.04
  Q 154.03 371.93 153.63 366.46
  Z"
/>
<path fill="#346338" d="
  M 168.45 384.75
  Q 169.38 385.81 170.27 386.75
  Q 171.36 387.92 171.66 389.02
  Q 172.28 391.24 171.43 392.98
  Q 169.17 397.66 163.92 396.61
  C 158.15 394.82 157.61 387.69 162.25 384.87
  Q 165.07 383.15 168.45 384.75
  Z"
/>
<path fill="#346338" d="
  M 136.95 393.84
  Q 138.22 394.31 138.85 394.00
  Q 141.77 396.69 141.88 398.37
  Q 142.38 406.34 134.24 406.23
  L 132.66 405.92
  Q 134.94 403.43 137.33 401.06
  C 139.72 398.69 138.28 396.22 136.95 393.84
  Z"
/>
</svg>
