<svg xmlns="http://www.w3.org/2000/svg" width="103.721" height="106.723" viewBox="0 0 103.721 106.723">
  <g id="_12" data-name="12" transform="translate(-4.405 -5.45)">
    <g id="그룹_9" data-name="그룹 9" transform="translate(5.818 6.863)">
      <path id="패스_82" data-name="패스 82" d="M350.78,245.991q3.512-.3,7.124-.821a81.226,81.226,0,0,0,9.426-1.928,32.063,32.063,0,0,0,10.527-4.712,8.2,8.2,0,0,0,2.432-2.9,10.2,10.2,0,0,0,1.19-6.088,5.656,5.656,0,0,0-1.038-2.707.157.157,0,0,0-.245-.042c-.674.461-1.151-.186-1.384-.738a23.222,23.222,0,0,1-.971-2.778,5.315,5.315,0,0,1-.184-1.584,15.362,15.362,0,0,0-.255-3.322c-.425-2.189-1.093-4.392-1.376-6.632q-.208-1.641-.263-3.348a43.747,43.747,0,0,1,.158-5.289q.227-2.521.753-6.527.144-1.1.263-2.3.123-1.258.14-2.221.014-.9.042-1.985.123-4.518-.1-7.662a25.085,25.085,0,0,0-1.267-6.335q-.121-.354-.419-.127a12.191,12.191,0,0,1-2.327,1.384,2.418,2.418,0,0,1-2.3.115" transform="translate(-282.114 -142.79)" fill="none" stroke="#605341" stroke-width="2"/>
      <path id="패스_83" data-name="패스 83" d="M363.439,52.347c-.312-.813.032-1.04.787-1.141a3.013,3.013,0,0,0,.87-.233,11.51,11.51,0,0,0,5.272-4.92,16.943,16.943,0,0,0,1.285-3.634q.5-1.873,1.115-3.707a28.374,28.374,0,0,1,1.96-3.889,6.209,6.209,0,0,0,1-2.865,6.751,6.751,0,0,0-.227-2.088,6.324,6.324,0,0,0-3.889-3.915q-.961-.291-1.853-.473c-3.154-.649-6.337-1.18-9.463-1.975q-3.793-.967-7.447-1.944-5.525-1.479-10.96-2.507-.431-.081-.026.089a6.446,6.446,0,0,1,1.182.643,4.966,4.966,0,0,0,1.764,1.091,31.234,31.234,0,0,0,3.478.494,4.1,4.1,0,0,1,1.817.625c.923.575,1.847.441,2.835.712a1.8,1.8,0,0,1,.714.326,4.655,4.655,0,0,0,1.708,1.068" transform="translate(-274.848 -17.696)" fill="none" stroke="#70614c" stroke-width="2"/>
      <path id="패스_84" data-name="패스 84" d="M409.35,44.11a17.089,17.089,0,0,1,2.588,1.871c.237.21.4.743.73,1.064a2.129,2.129,0,0,0,.435.328,6.388,6.388,0,0,1,2.385,1.793,3.628,3.628,0,0,0,1.606,1.072,3.156,3.156,0,0,1,1.76,2.489.085.085,0,0,0,.125.063,10.63,10.63,0,0,0,4.257-4.182" transform="translate(-328.834 -37.701)" fill="none" stroke="#605341" stroke-width="2"/>
      <path id="패스_85" data-name="패스 85" d="M135.221,57.12a1.089,1.089,0,0,1,.836.109c.734.694-.68,2.31-1.226,2.873a16.714,16.714,0,0,1-4.218,3.059,47.987,47.987,0,0,1-4.89,2.258,91.965,91.965,0,0,1-19.275,5.222,59.38,59.38,0,0,1-6.426.585c-.208.01-.409.087-.609.085q-2.723-.008-5.262,0c-.5,0-1.006-.087-1.528-.109q-2.495-.111-5.321-.484A127.59,127.59,0,0,1,74.07,68.187a81.023,81.023,0,0,1-10.529-3.3q-1.916-.749-3.812-1.519a60.985,60.985,0,0,1-6.982-3.356,11.767,11.767,0,0,1-3.97-3.174c-.386-.516-.738-1.23-.273-1.791a.57.57,0,0,1,.951-.022" transform="translate(-40.818 -46.214)" fill="none" stroke="#70614c" stroke-width="2"/>
      <path id="패스_86" data-name="패스 86" d="M54.08,41.44a3.173,3.173,0,0,1,.168.544c.219.973,1.8,2.108,2.675,2.624a54.788,54.788,0,0,0,5.325,2.76q.121.055.154-.075c.35-1.382,1.291-1.918,2.476-2.474a2.53,2.53,0,0,0,1.19-1.451c.571-1.436,1.924-2.12,3.272-2.861a4.508,4.508,0,0,0,1.1-.969,12.564,12.564,0,0,1,1.906-1.789" transform="translate(-45.442 -32.628)" fill="none" stroke="#605341" stroke-width="2"/>
      <path id="패스_87" data-name="패스 87" d="M38.292,17.556a4.963,4.963,0,0,1,2.2-1.014,7.018,7.018,0,0,0,3.2-.941c1.519-1.244,3.783-.963,5.6-.842a8.41,8.41,0,0,0,3.34-.461,19.183,19.183,0,0,1,2.986-.949,8.756,8.756,0,0,1,2.917.008,15.419,15.419,0,0,0,2.359.127,7.184,7.184,0,0,0,1.677-.216,15.172,15.172,0,0,1,2.448-.364,13.969,13.969,0,0,1,2.78.225q.643.1,1.311.221a14.277,14.277,0,0,0,3.439.2q1.323-.081,1.837-.077l1.843.02a.029.029,0,0,0,.032-.03v0a.027.027,0,0,0-.026-.034,98.656,98.656,0,0,0-18.16-.906l-3.516.144a64.662,64.662,0,0,0-11.548,1.416c-1.356.3-2.905.621-4.05.789a23.465,23.465,0,0,0-6.893,1.7,1.025,1.025,0,0,1-.623.079q-.686-.125-1.337-.277a4.616,4.616,0,0,0-2.79.429,7.768,7.768,0,0,1-4.518.585c-2.99-.6-4.714,1.248-6.276,3.433a10.428,10.428,0,0,0-.676,1.519,9.254,9.254,0,0,0-1.1,2.493,6.478,6.478,0,0,0,.107,2.944,18.816,18.816,0,0,1,.783,3.48q.045.566.087,1.151c.277,3.787,3.371,7.114,6.753,8.6a.665.665,0,0,1,.417.87.311.311,0,0,1-.065.123.769.769,0,0,1-1.014.229,7.751,7.751,0,0,1-.955-.564q-.142-.1-.105.069A17.89,17.89,0,0,1,21.281,47a22.759,22.759,0,0,0-.022,3.943q.18,1.716.625,3.927a9.333,9.333,0,0,1,0,3.9q-.308,1.382-.571,2.707c-.827,4.2.827,8.174,2.294,12.054a3.8,3.8,0,0,0,.477.9.667.667,0,0,1-.146.9c-.728.388-1.287-.508-1.5-1.072q-.053-.142-.109,0a13.467,13.467,0,0,0-1.147,7.332,31.246,31.246,0,0,0,1.491,5.376.232.232,0,0,1-.034.223c-.753.975-1.265,2.074-2.009,3.053q-2.476,3.257-4.7,5.92a4.446,4.446,0,0,0-.753,1.19c-.344.874-1.489.305-1.242-.56q.042-.154-.1-.085c-1.078.516-2.616,1.75-2.422,3.059a3.881,3.881,0,0,0,.526,1.4,17,17,0,0,0,2.315,3.144,8,8,0,0,0,2.24,1.554c1.08.532,1.813,1.5,2.863,2.157a23.292,23.292,0,0,0,2.7,1.475,77.723,77.723,0,0,0,9.181,3.47,62.781,62.781,0,0,0,16.048,2.656q1.356.059,2.711.125,1.4.071,2.7.087,1.987.028,4.044.127t4.182.087q.54,0,1.042.04c.819.073,1.643.061,2.468.1a103.427,103.427,0,0,0,15.631-.548" transform="translate(-11.387 -12.434)" fill="none" stroke="#70614c" stroke-width="2"/>
      <path id="패스_88" data-name="패스 88" d="M72.347,37.192q-.433-.045-.827-.1a3.864,3.864,0,0,0-.83-.03c-.917.071-1.823.061-2.733.221a32.817,32.817,0,0,1-3.644.477,25.741,25.741,0,0,0-5.592.908q-.953.269-2.029.684-.35.134-.7.255a4.466,4.466,0,0,0-1.91,1.277" transform="translate(-45.442 -32.07)" fill="none" stroke="#d0b38d" stroke-width="2"/>
      <path id="패스_89" data-name="패스 89" d="M423.237,48.608a6.493,6.493,0,0,0-.819-.761,1.381,1.381,0,0,1-.4-.544,1.248,1.248,0,0,0-.826-.56q-3.619-1.163-7.652-2.122a23.944,23.944,0,0,0-4.194-.51" transform="translate(-328.834 -37.701)" fill="none" stroke="#d0b38d" stroke-width="2"/>
      <path id="패스_90" data-name="패스 90" d="M443.349,183.7l-1.5.86" transform="translate(-354.759 -149.049)" fill="none" stroke="#d0b38d" stroke-width="2"/>
      <path id="패스_91" data-name="패스 91" d="M149.669,163.581c.008-.516-.366-.787-.815-.6a39.969,39.969,0,0,1-7.638,2.373,107.055,107.055,0,0,1-12.712,1.829q-4.182.33-5.568.346-3.4.04-7.223.008-1.855-.016-3.441-.123-1.384-.091-3.437-.259a89.089,89.089,0,0,1-13.359-2.086q-1.859-.441-3.787-1.052a112.567,112.567,0,0,1-10.63-3.927,19.835,19.835,0,0,1-4.2-2.464.725.725,0,0,0-1.062,0q-.607.6.358,1.242" transform="translate(-62.578 -128.07)" fill="none" stroke="#70614c" stroke-width="2"/>
      <path id="패스_92" data-name="패스 92" d="M74.613,164.69a2.335,2.335,0,0,0-.842.825,1.15,1.15,0,0,0,.253,1.416,7.212,7.212,0,0,0,1.936,1.43,64.387,64.387,0,0,0,9.032,3.794q1.965.66,4.03,1.262a.116.116,0,0,1,.079.075.064.064,0,0,0,.067.047,1.448,1.448,0,0,1,.712.172.388.388,0,0,0,.2.047.694.694,0,0,1,.33.071,2.755,2.755,0,0,0,.917.17,2.745,2.745,0,0,1,.556.121,5.768,5.768,0,0,0,1.384.283,3.237,3.237,0,0,1,.708.136,4.863,4.863,0,0,0,.753.168q.581.085,1.125.216a13.213,13.213,0,0,0,1.831.31c.279.026.506.113.771.14q2.147.21,4.336.607c.285.053.546,0,.809.032q2.62.324,5.317.611,1.109.119,2.221.148c.836.02,1.667.125,2.5.146q6.029.15,9.582-.073,1.509-.093,3.079-.168,1.115-.051,2.331-.132,1.254-.085,2.489-.077a.878.878,0,0,1,.447.113,17.5,17.5,0,0,1,5.238,4.823,14.915,14.915,0,0,1,1.855,3.486,11.656,11.656,0,0,1,.473,1.4" transform="translate(-61.036 -133.886)" fill="none" stroke="#d0b38d" stroke-width="2"/>
      <path id="패스_93" data-name="패스 93" d="M384.5,271.43q-1.155.012-2.256.044-1.054.028-1.014,1.131.105,2.964.2,5.58.051,1.447,1.218,1.459,1.7.02,3.47.008" transform="translate(-306.405 -219.03)" fill="none" stroke="#70614c" stroke-width="2"/>
      <path id="패스_94" data-name="패스 94" d="M405.39,312.07a4.231,4.231,0,0,1,.057,1.7" transform="translate(-325.675 -251.448)" fill="none" stroke="#d0b38d" stroke-width="2"/>
      <path id="패스_95" data-name="패스 95" d="M379.8,320.331q-2.7.044-5.331-.028a2,2,0,0,0-.726.073.807.807,0,0,0,.293,1.554c1.918.121,3.828.032,5.794.016" transform="translate(-300.027 -258.013)" fill="none" stroke="#70614c" stroke-width="2"/>
      <path id="패스_96" data-name="패스 96" d="M329.873,328.43a2.393,2.393,0,0,1,.071,1.21.343.343,0,0,1-.182.247q-3.644,1.835-7.294,3.518-3.047,1.406-5.867,2.735a15.457,15.457,0,0,0-1.873,1.05q-.858.56-1.878,1.1a12.091,12.091,0,0,0-1.139.69q-.544.368-1.1.734" transform="translate(-250.071 -264.498)" fill="none" stroke="#d0b38d" stroke-width="2"/>
      <path id="패스_97" data-name="패스 97" d="M282.942,379.815a3.4,3.4,0,0,0-5.226.233,9.026,9.026,0,0,0-1.791,5.841c.03,2.122.625,4.85,2.618,5.734a3.683,3.683,0,0,0,3.751-.781,6.824,6.824,0,0,0,2.094-4.194q.077-.573.154-1.677" transform="translate(-222.403 -304.597)" fill="none" stroke="#f0e0cc" stroke-width="2"/>
      <path id="패스_98" data-name="패스 98" d="M318.52,409.674a10.129,10.129,0,0,0,2.784,0" transform="translate(-256.381 -329.301)" fill="none" stroke="#d0b38d" stroke-width="2"/>
      <path id="패스_99" data-name="패스 99" d="M332.269,409.67a24.856,24.856,0,0,0,.194,3.506c.162,1.273.6,2.487,2.015,2.762a13.775,13.775,0,0,0,3.112.091,17.3,17.3,0,0,0,3.308-.453" transform="translate(-267.346 -329.301)" fill="none" stroke="#f0e0cc" stroke-width="2"/>
      <path id="패스_100" data-name="패스 100" d="M353.483,438.86a9.41,9.41,0,0,0-.558,1.222,11.107,11.107,0,0,1-.627,1.392,61.506,61.506,0,0,0-2.851,6.337,15.866,15.866,0,0,0-1.4,6.5,3.7,3.7,0,0,0,.546,1.471" transform="translate(-279.931 -352.585)" fill="none" stroke="#d0b38d" stroke-width="2"/>
      <path id="패스_101" data-name="패스 101" d="M374.93,435.334a1.036,1.036,0,0,0,.354-.894" transform="translate(-301.378 -349.06)" fill="none" stroke="#dfd2c1" stroke-width="2"/>
      <path id="패스_102" data-name="패스 102" d="M348.219,403.925l3.215-7.583q.081-.194-.123-.148-2.264.514-4.645.969-1.515.289-5.665,1.477" transform="translate(-274.313 -318.545)" fill="none" stroke="#d0b38d" stroke-width="2"/>
      <path id="패스_103" data-name="패스 103" d="M334.01,384.552q.079-2.005.322-4.316a3.824,3.824,0,0,0,.016-1.238.877.877,0,0,0-1.445-.178,1.815,1.815,0,0,0-.308.86,27.751,27.751,0,0,0-.35,5.145" transform="translate(-267.322 -304.456)" fill="none" stroke="#dfd2c1" stroke-width="2"/>
      <path id="패스_104" data-name="패스 104" d="M312.21,389.365a7.493,7.493,0,0,0-1.6-5.155" transform="translate(-250.071 -308.992)" fill="none" stroke="#dfd2c1" stroke-width="2"/>
      <path id="패스_105" data-name="패스 105" d="M405.7,321.817q2-.014,4.411-.075a.717.717,0,0,0,.8-.8c0-.53-.21-.807-.761-.805q-2.4.012-4.475.063" transform="translate(-325.899 -257.885)" fill="none" stroke="#605341" stroke-width="2"/>
      <path id="패스_106" data-name="패스 106" d="M404.983,305.577l2.448-.075a.651.651,0,0,0,.706-.69l.012-.194a.575.575,0,0,0-.66-.688l-2.61.022" transform="translate(-325.268 -244.954)" fill="none" stroke="#605341" stroke-width="2"/>
      <path id="패스_107" data-name="패스 107" d="M404.09,297.451l-.2-1.671" transform="translate(-324.479 -238.453)" fill="none" stroke="#d0b38d" stroke-width="2"/>
      <path id="패스_108" data-name="패스 108" d="M402.558,289.43q1.345,0,2.628-.016a.8.8,0,1,0-.045-1.594q-1.584,0-2.922.02" transform="translate(-323.147 -232.103)" fill="none" stroke="#605341" stroke-width="2"/>
      <path id="패스_109" data-name="패스 109" d="M399.636,281.02q-.1-.38-.166-.773a1.475,1.475,0,0,0-.184-.512q-.144-.239-.306-.465" transform="translate(-320.562 -225.284)" fill="none" stroke="#d0b38d" stroke-width="2"/>
      <path id="패스_110" data-name="패스 110" d="M397.72,272.785q1.845-.024,3.648-.059a.793.793,0,1,0-.047-1.586q-2.122.018-3.921.059" transform="translate(-319.302 -218.798)" fill="none" stroke="#605341" stroke-width="2"/>
      <path id="패스_111" data-name="패스 111" d="M152.005,169.4a1.208,1.208,0,0,1-.781.817,44.972,44.972,0,0,1-7.237,2.242q-2.035.447-4.168.821a94.845,94.845,0,0,1-9.887,1.216c-1.194.083-2.377.19-3.662.206q-1.58.018-2.83.079c-2.442.115-4.866-.03-7.255-.061-1.248-.018-2.474-.142-3.7-.223a100.466,100.466,0,0,1-10.067-1.212,71.981,71.981,0,0,1-11.828-3.077q-4.358-1.534-7.4-2.824a23.133,23.133,0,0,1-4.706-2.691" transform="translate(-64.914 -133.886)" fill="none" stroke="#605341" stroke-width="2"/>
      <path id="패스_112" data-name="패스 112" d="M340.977,408.32a28.407,28.407,0,0,0,.1,3.071c.152,1.663.86,1.942,2.432,1.795q1.882-.178,3.49-.322a1.017,1.017,0,0,1,1.2.741" transform="translate(-274.289 -328.224)" fill="none" stroke="#f0e0cc" stroke-width="2"/>
      <path id="패스_113" data-name="패스 113" d="M391.274,279.27l-1.892.028a.055.055,0,0,0-.063.065l.051,1.59a.083.083,0,0,0,.083.081l2.476-.014" transform="translate(-312.856 -225.284)" fill="none" stroke="#70614c" stroke-width="2"/>
      <path id="패스_114" data-name="패스 114" d="M392.571,295.78l-2.808.024a.065.065,0,0,0-.063.067l.061,1.574a.046.046,0,0,0,.053.049l2.958-.042" transform="translate(-313.16 -238.453)" fill="none" stroke="#70614c" stroke-width="2"/>
      <path id="패스_115" data-name="패스 115" d="M130.517,23.582a6.417,6.417,0,0,0-2.484-.113,8.649,8.649,0,0,0-2,.587,11.1,11.1,0,0,1-4.354.9,11.666,11.666,0,0,0-4.6.17c-.56.192-.858.706-1.422.9a13.855,13.855,0,0,1-2.745.629A6.235,6.235,0,0,0,109.35,29a12.278,12.278,0,0,1-3.164,2.234,2.559,2.559,0,0,0-1.016,1.159,4.187,4.187,0,0,1-2.525,2.478,2.059,2.059,0,0,0-.957.789.272.272,0,0,0-.032.237.481.481,0,0,1-.083.449q-.1.136.055.2,5.839,2.381,7.486,2.924,3.5,1.155,4.483,1.422a134.628,134.628,0,0,0,13.618,2.974" transform="translate(-83.295 -21.179)" fill="none" stroke="#737373" stroke-width="2"/>
      <path id="패스_116" data-name="패스 116" d="M228.47,124.55a57,57,0,0,0,6.986.848q1.72.073,3.439.194a40.222,40.222,0,0,0,5.936-.212" transform="translate(-184.55 -101.867)" fill="none" stroke="#5d5d5d" stroke-width="2"/>
      <path id="패스_117" data-name="패스 117" d="M309.34,103.3a2.46,2.46,0,0,0,.639.014,76.771,76.771,0,0,0,13.784-2.47,86.148,86.148,0,0,0,11.6-3.974" transform="translate(-249.058 -79.787)" fill="none" stroke="#4b4b4b" stroke-width="2"/>
      <path id="패스_118" data-name="패스 118" d="M283.87,37.01l2.446-1.2a.125.125,0,0,0,.069-.174c-.235-.635-.358-1.505-1.032-1.855-.518-.269-1.659-.7-1.963-1.2a5.7,5.7,0,0,0-2.379-1.88,2.947,2.947,0,0,1-.965-.862,3.829,3.829,0,0,0-.477-.785,8.79,8.79,0,0,0-2.159-1.424,6.558,6.558,0,0,1-1.7-1.056,1.99,1.99,0,0,0-1.145-.4,5.063,5.063,0,0,1-2.1-.526,4.437,4.437,0,0,0-2.058-.7,9.219,9.219,0,0,1-1.008-.1c-1.319-.2-2.772-.267-3.8-1.169a5.3,5.3,0,0,0-4-1.38,35.021,35.021,0,0,1-5.289.109q-1.25-.156-2.582-.4a11.3,11.3,0,0,0-4.9.194,8.823,8.823,0,0,1-1.542.176c-.8.057-1.641-.1-2.5-.051" transform="translate(-197.568 -19.927)" fill="none" stroke="#5d5d5d" stroke-width="2"/>
      <path id="패스_119" data-name="패스 119" d="M412.943,76.186l-.738-.6a.173.173,0,0,0-.057-.032,2.209,2.209,0,0,1-.7-.419.178.178,0,0,1-.061-.178,1.206,1.206,0,0,1,.188-.463.216.216,0,0,0,.016-.221,1.671,1.671,0,0,0-1.651-1.04,1.131,1.131,0,0,0-.852.38.167.167,0,0,1-.194.049,3.171,3.171,0,0,1-.488-.214,5.632,5.632,0,0,0-1.208-.31.337.337,0,0,1-.275-.36,5.845,5.845,0,0,0-.32-1.833" transform="translate(-326.64 -59.103)" fill="none" stroke="#a8a8a8" stroke-width="2"/>
      <path id="패스_120" data-name="패스 120" d="M397.259,67.377c-.4-.87-1.54-.955-2.369-.884" transform="translate(-317.3 -55.54)" fill="none" stroke="#5d5d5d" stroke-width="2"/>
      <path id="패스_121" data-name="패스 121" d="M358.436,50.815a1.178,1.178,0,0,0-.844-.376q-.326.006-.241-.308A1.545,1.545,0,0,0,357.3,48.9a1.428,1.428,0,0,0-2.671.2.128.128,0,0,1-.17.1,10.084,10.084,0,0,1-2.211-.773.29.29,0,0,1-.16-.243,1.275,1.275,0,0,0-.947-1.285,1.093,1.093,0,0,0-1.362.407,1.92,1.92,0,0,1-.587.635" transform="translate(-280.846 -39.862)" fill="none" stroke="#a8a8a8" stroke-width="2"/>
      <path id="패스_122" data-name="패스 122" d="M330.814,47.447a2.868,2.868,0,0,0-4.089-.7c-1.455.862.281,2.381.641,1.2a.283.283,0,0,1,.111-.156,1.915,1.915,0,0,1,1.337-.326" transform="translate(-262.469 -39.369)" fill="none" stroke="#5d5d5d" stroke-width="2"/>
      <path id="패스_123" data-name="패스 123" d="M334.548,52.42c-.4.631-.354,1.012.374,1.287a7.565,7.565,0,0,0,1.169.338.075.075,0,0,1,.03.132,1.466,1.466,0,0,0-.37.437,1.817,1.817,0,0,0,.006.943.188.188,0,0,1-.077.194c-.267.2-.647.421-.773.747a1.082,1.082,0,0,0-.018,1.036,1.954,1.954,0,0,0,.694.7.417.417,0,0,1,.214.518,11.261,11.261,0,0,1-.668,1.819.187.187,0,0,1-.176.109,1.349,1.349,0,0,0-1.161.518,2.023,2.023,0,0,0-.291.977q-.061.54-.162,1.05" transform="translate(-268.202 -44.33)" fill="none" stroke="#a8a8a8" stroke-width="2"/>
      <path id="패스_124" data-name="패스 124" d="M324.185,105.81c-.813.065-3.134.8-2.029,1.975" transform="translate(-259.048 -86.918)" fill="none" stroke="#5d5d5d" stroke-width="2"/>
      <path id="패스_125" data-name="패스 125" d="M312.166,115.57a2.464,2.464,0,0,1-1.275.613,3.121,3.121,0,0,0-1.216.886,1.926,1.926,0,0,0-.336,1.147" transform="translate(-249.058 -94.704)" fill="none" stroke="#a8a8a8" stroke-width="2"/>
      <path id="패스_126" data-name="패스 126" d="M228.47,105.533l1.689-.235a.217.217,0,0,0,.182-.14,1.3,1.3,0,0,1,.747-.708,3.556,3.556,0,0,1,.753-.216.936.936,0,0,0,.745-.718.207.207,0,0,0-.04-.206c-.113-.134-.291-.208-.374-.332a1.3,1.3,0,0,1,0-1.718,1.217,1.217,0,0,1,2.007.119q.281.372.486-.049a3.059,3.059,0,0,0,.168-.621" transform="translate(-184.55 -82.85)" fill="none" stroke="#cfcfcf" stroke-width="2"/>
      <path id="패스_127" data-name="패스 127" d="M259.89,96.993q.548-.152.538-.943" transform="translate(-209.613 -79.133)" fill="none" stroke="#5d5d5d" stroke-width="2"/>
      <path id="패스_128" data-name="패스 128" d="M261.865,56.461a3.005,3.005,0,0,1,.372-2.766,1.79,1.79,0,0,1,.583-.54,2.367,2.367,0,0,0,.864-.884.179.179,0,0,0,.018-.142c-.073-.283-.293-.457-.342-.769q-.032-.223-.047-.453a.382.382,0,0,0-.063-.19q-.227-.342-.445-.69a1.15,1.15,0,0,1,.692-1.649,1.365,1.365,0,0,1,1.008-.061q.172.063.162-.119l-.016-.267a.352.352,0,0,0-.168-.289c-.2-.127-.427-.036-.662-.107a4.077,4.077,0,0,1-1.768-1.115" transform="translate(-211.05 -39.544)" fill="none" stroke="#cfcfcf" stroke-width="2"/>
      <path id="패스_129" data-name="패스 129" d="M263.113,41.331a1.97,1.97,0,0,1,1.246.154.358.358,0,0,1,.2.237.826.826,0,0,0,.52.591.558.558,0,0,0,.736-.469,1.433,1.433,0,0,0-.983-1.542,4.04,4.04,0,0,0-1.815-.243" transform="translate(-212.11 -34.455)" fill="none" stroke="#5d5d5d" stroke-width="2"/>
      <path id="패스_130" data-name="패스 130" d="M248.478,27.511a1.9,1.9,0,0,1-.892-.834.686.686,0,0,0-.427-.378,3.949,3.949,0,0,1-2.369-1.989" transform="translate(-197.568 -21.907)" fill="none" stroke="#cfcfcf" stroke-width="2"/>
      <path id="패스_131" data-name="패스 131" d="M254.636,40.13c-1.008.1-2.114.56-2.126,1.706a.6.6,0,0,0,.409.637.542.542,0,0,0,.575-.075s.094-.166.271-.486a1.178,1.178,0,0,1,.965-.51" transform="translate(-203.726 -34.527)" fill="none" stroke="#737373" stroke-width="2"/>
      <path id="패스_132" data-name="패스 132" d="M250.592,92.523a1.875,1.875,0,0,0-1.426-.888,1.575,1.575,0,0,0-1.424.607c-.595.728.4,1.621,1.111.763a.209.209,0,0,1,.318-.04c.322.231.429.52.884.5" transform="translate(-199.777 -75.606)" fill="none" stroke="#737373" stroke-width="2"/>
      <path id="패스_133" data-name="패스 133" d="M341.309,52.36q.372.613-.063.977c-.615.516-1.107-.437-1.366-.668a1.452,1.452,0,0,0-.571-.3" transform="translate(-272.965 -44.282)" fill="none" stroke="#4b4b4b" stroke-width="2"/>
      <path id="패스_134" data-name="패스 134" d="M384.6,66.57a3.788,3.788,0,0,0-2.11.676c-.368.269-.763,1.024-.267,1.406a.633.633,0,0,0,.593.1.415.415,0,0,0,.249-.19c.473-.789,1.722-.825,2.5-.686a.245.245,0,0,1,.168.113l.176.289a.239.239,0,0,0,.146.107c.688.192.947-.336.919-.929" transform="translate(-307.009 -55.617)" fill="none" stroke="#4b4b4b" stroke-width="2"/>
      <path id="패스_135" data-name="패스 135" d="M323.31,107.7q.431.293.682.018a1.942,1.942,0,0,1,1.655-.753.261.261,0,0,1,.19.119.588.588,0,0,0,1.107-.372q-.1-1.155-1.6-.987" transform="translate(-260.202 -86.834)" fill="none" stroke="#4b4b4b" stroke-width="2"/>
      <path id="패스_136" data-name="패스 136" d="M153.395,265.486q-1.384,0-2.8.038a.834.834,0,1,0,.04,1.663q1.434,0,2.812-.026a.11.11,0,0,1,.125.125q-.006,1.2,0,2.288a.872.872,0,1,0,1.736-.077q.069-3.213-.061-6.636a.862.862,0,1,0-1.718.081q-.018,1.311.006,2.4a.12.12,0,0,1-.136.14" transform="translate(-121.733 -211.496)" fill="none" stroke="#70614c" stroke-width="2"/>
      <path id="패스_137" data-name="패스 137" d="M114.552,266.169l.54-.018a.81.81,0,0,0,.856-.761.442.442,0,0,0,0-.158.744.744,0,0,0-.848-.658q-3.852.172-7.051.247a.827.827,0,0,0-.892.767c-.123.8,1.014.85,1.509.828a.115.115,0,0,1,.136.115l.441,4.3q.012.113-.1.109c-.36-.006-.937,0-1.141.374-.376.686.154,1.281.892,1.246q3.2-.15,6.292-.3a.777.777,0,0,0,.738-.742l0-.075a.64.64,0,0,0-.716-.757l-.552-.01a.126.126,0,0,1-.14-.14l-.089-4.229a.115.115,0,0,1,.125-.134" transform="translate(-87.771 -213.56)" fill="none" stroke="#70614c" stroke-width="2"/>
      <path id="패스_138" data-name="패스 138" d="M344.159,273.541a.791.791,0,0,0-.791-.791h-.077a.791.791,0,0,0-.791.791v7.834a.791.791,0,0,0,.791.791h.077a.791.791,0,0,0,.791-.791v-7.834" transform="translate(-275.509 -220.083)" fill="none" stroke="#70614c" stroke-width="2"/>
      <path id="패스_139" data-name="패스 139" d="M205.173,277.419q-1.422-.018-2.982.034a1.3,1.3,0,0,0-1.4,1.04,8.105,8.105,0,0,0,.018,2.962,1.933,1.933,0,0,0,1.645,1.795c.635.1,5,.629,4.457-1.05a.714.714,0,0,0-.805-.524q-1.1.063-2.28.067c-.6,0-1.362.047-1.441-.769a8.057,8.057,0,0,1-.006-1.758.146.146,0,0,1,.132-.138,4.16,4.16,0,0,1,.836-.053,20.737,20.737,0,0,0,2.484-.044c.811-.067,1.115-1.01,1.171-1.706a16.878,16.878,0,0,0,0-2.812,1.525,1.525,0,0,0-1.588-1.475,20.988,20.988,0,0,0-4.026.032.807.807,0,1,0,.162,1.6q1.716-.091,3.5-.079a.3.3,0,0,1,.342.324,18.126,18.126,0,0,1-.051,2.4.149.149,0,0,1-.168.152" transform="translate(-162.329 -220.208)" fill="none" stroke="#70614c" stroke-width="2"/>
      <path id="패스_140" data-name="패스 140" d="M252.511,279.282q1.095.014,2.329,0a.829.829,0,1,0,.109-1.653q-1.244-.012-2.422-.016a.1.1,0,0,1-.115-.115q.02-1.149.01-2.258a.821.821,0,1,0-1.639-.02q-.079,3.46-.154,7.15a.814.814,0,1,0,1.623.034q.067-1.414.1-2.974a.137.137,0,0,1,.156-.152" transform="translate(-202.225 -221.367)" fill="none" stroke="#70614c" stroke-width="2"/>
      <path id="패스_141" data-name="패스 141" d="M295.313,279.738a3.179,3.179,0,0,0-3.382-2.961l-.626.042a3.178,3.178,0,0,0-2.961,3.382l.043.646a3.178,3.178,0,0,0,3.382,2.961l.626-.042a3.178,3.178,0,0,0,2.961-3.382l-.043-.646" transform="translate(-232.304 -223.29)" fill="none" stroke="#70614c" stroke-width="2"/>
      <path id="패스_142" data-name="패스 142" d="M144.7,311.665q-1.661-.008-3.425,0c-.987.006-.706,2.537-.666,3.122.071,1.032,1.026,1.165,1.847,1.194q1.948.069,3.755-.022a.677.677,0,0,0,.7-.607l.022-.119q.138-.734-.607-.734l-3.783-.008a.3.3,0,0,1-.346-.36l.028-.769a.257.257,0,0,1,.3-.281q.912.012,1.863.032c.651.014,1.7-.006,1.876-.807a12.348,12.348,0,0,0,.212-2.861,1.113,1.113,0,0,0-1.1-1.2,33.588,33.588,0,0,0-3.579.053.563.563,0,0,0-.587.627v.125a.672.672,0,0,0,.761.763l2.822,0a.079.079,0,0,1,.089.091l-.059,1.651a.1.1,0,0,1-.115.111" transform="translate(-114.414 -248.378)" fill="none" stroke="#70614c" stroke-width="2"/>
      <path id="패스_143" data-name="패스 143" d="M183.754,380.981q-.208,3.864-.15,7.346a20.479,20.479,0,0,0,.162,2.81.7.7,0,0,0,.91.656q.356-.057.621-.573a.732.732,0,0,0,.079-.364,86.712,86.712,0,0,1,.042-9.44c.038-.591.012-1.2.018-1.8.012-1.55-2.4-.508-3.029-.152-.658.37-1.542,1.327-.73,2.017.479.4,1.53-.326,1.944-.579q.142-.085.132.079" transform="translate(-146.966 -304.669)" fill="none" stroke="#f0e0cc" stroke-width="2"/>
      <path id="패스_144" data-name="패스 144" d="M219.631,381.758a10.946,10.946,0,0,0-.453,6.586c.382,1.627,1.542,3.506,3.431,3.5,2.814,0,4.4-2.806,4.746-5.258.346-2.434.121-5.2-1.623-6.931a3.255,3.255,0,0,0-1.963-.947c-1.96-.233-3.5,1.376-4.139,3.047" transform="translate(-176.892 -304.588)" fill="none" stroke="#f0e0cc" stroke-width="2"/>
      <path id="패스_145" data-name="패스 145" d="M295.317,36.923a1.194,1.194,0,0,1,1.449.5c.237.358.7.692,1.129.425.791-.5-.484-1.677-.85-1.924a2.972,2.972,0,0,0-2.887.154c-.621.388-.7,1.457.214,1.487a.526.526,0,0,0,.488-.293.65.65,0,0,1,.457-.344" transform="translate(-236.573 -30.921)" fill="none" stroke="#5d5d5d" stroke-width="2"/>
      <path id="패스_146" data-name="패스 146" d="M317.28,57.225a1.087,1.087,0,0,0-1.02-.39.758.758,0,0,0-.688.431,2.806,2.806,0,0,0-.206.668,1.113,1.113,0,0,0,.591,1.06.989.989,0,0,0,1.432-.214,1.1,1.1,0,0,0,.172-1.281.252.252,0,0,0-.071-.093.975.975,0,0,1-.21-.18" transform="translate(-253.854 -47.847)" fill="none" stroke="#a8a8a8" stroke-width="2"/>
      <path id="패스_147" data-name="패스 147" d="M279.346,70.877a.21.21,0,0,0,.087-.085,2.349,2.349,0,0,1,2-1.151.239.239,0,0,1,.192.071q.115.111.231.229a.588.588,0,0,0,1.022-.374c-.053-1.269-1.5-1.345-2.432-1.042a4.445,4.445,0,0,0-1.756,1.072c-.49.482-.4,1.36.4,1.39a.246.246,0,0,0,.152-.047.872.872,0,0,1,.1-.063" transform="translate(-224.367 -57.058)" fill="none" stroke="#5d5d5d" stroke-width="2"/>
      <path id="패스_148" data-name="패스 148" d="M320.7,78.063c.809.073.755-.819.451-1.295-1.095-1.71-3.387-1.275-4.785-.186a1.147,1.147,0,0,0-.508,1.034.642.642,0,0,0,1.01.475.332.332,0,0,0,.132-.148,1.021,1.021,0,0,1,.35-.532c.647-.439,2.108-.88,2.624-.034.194.32.3.647.726.686" transform="translate(-254.252 -62.839)" fill="none" stroke="#5d5d5d" stroke-width="2"/>
      <path id="패스_149" data-name="패스 149" d="M314.954,90.812a1.2,1.2,0,1,0-1.2,1.2,1.2,1.2,0,0,0,1.2-1.2" transform="translate(-251.619 -73.996)" fill="none" stroke="#a8a8a8" stroke-width="2"/>
      <path id="패스_150" data-name="패스 150" d="M294.167,109.759a1.6,1.6,0,1,0-1.906.491,1.413,1.413,0,0,0,1.906-.491" transform="translate(-234.621 -88.561)" fill="none" stroke="#a8a8a8" stroke-width="2"/>
      <path id="패스_151" data-name="패스 151" d="M239.618,34.162a1.3,1.3,0,1,0-.4,1.757,1.276,1.276,0,0,0,.4-1.757" transform="translate(-191.547 -29.329)" fill="none" stroke="#cfcfcf" stroke-width="2"/>
      <path id="패스_152" data-name="패스 152" d="M189.126,35.522a1.085,1.085,0,0,1,1.113.087.71.71,0,0,0,1.155-.227.267.267,0,0,0,.028-.216,1.256,1.256,0,0,0-.767-.844,2.413,2.413,0,0,0-2.658.425c-.617.528-.243,1.807.692,1.337.2-.1.206-.245.291-.421a.287.287,0,0,1,.146-.142" transform="translate(-152.024 -29.718)" fill="none" stroke="#737373" stroke-width="2"/>
      <path id="패스_153" data-name="패스 153" d="M213.019,50.214a2.326,2.326,0,0,0-1.323,1.5.344.344,0,0,0,.012.227.675.675,0,0,0,.979.4.283.283,0,0,0,.164-.154,1.554,1.554,0,0,1,.569-.688,1.828,1.828,0,0,1,2.458.146.678.678,0,0,0,1.038.02.347.347,0,0,0,.093-.146.75.75,0,0,0-.19-.811,3.041,3.041,0,0,0-3.8-.5" transform="translate(-171.159 -42.219)" fill="none" stroke="#737373" stroke-width="2"/>
      <path id="패스_154" data-name="패스 154" d="M161.788,53.378c.255.164.342.443.647.542a.688.688,0,0,0,.945-.8c-.059-.306-.356-.421-.552-.635a1.858,1.858,0,0,0-2.228-.174,2.877,2.877,0,0,0-1.4,1.619,1.133,1.133,0,0,0-.032.607q.1.441.39.52a.6.6,0,0,0,.813-.5,1.585,1.585,0,0,1,1.23-1.218.244.244,0,0,1,.19.034" transform="translate(-129.244 -44.018)" fill="none" stroke="#737373" stroke-width="2"/>
      <path id="패스_155" data-name="패스 155" d="M246.439,66.725a1.265,1.265,0,1,0-1.265,1.264,1.265,1.265,0,0,0,1.265-1.264" transform="translate(-196.866 -54.732)" fill="none" stroke="#cfcfcf" stroke-width="2"/>
      <path id="패스_156" data-name="패스 156" d="M186.087,78.356a2.608,2.608,0,0,0-1.335,1.147.77.77,0,0,0,.04.767.618.618,0,0,0,1.074-.083,1.571,1.571,0,0,1,1.718-.726.291.291,0,0,1,.148.071,2.2,2.2,0,0,1,.269.3c.291.384,1.068.277,1.115-.263a1.027,1.027,0,0,0-.431-.961,2.388,2.388,0,0,0-2.6-.247" transform="translate(-149.61 -64.803)" fill="none" stroke="#737373" stroke-width="2"/>
      <path id="패스_157" data-name="패스 157" d="M133.847,86.4a2.205,2.205,0,0,1,.813-.138c.427.01.694.285,1.08.395.755.21,1.36-.55.686-1.07a3.067,3.067,0,0,0-2.924-.453c-2.189.67-.5,2.741.107,1.481a.422.422,0,0,1,.237-.214" transform="translate(-107.929 -70.285)" fill="none" stroke="#737373" stroke-width="2"/>
      <path id="패스_158" data-name="패스 158" d="M386.835,93.919c.265.2.67.35.941.071a.6.6,0,0,0,.091-.832c-.971-1.489-4.933.239-4.556,1.837.091.388.471.471.819.407a.245.245,0,0,0,.184-.142,2.585,2.585,0,0,1,2.246-1.416.393.393,0,0,1,.275.075" transform="translate(-308.043 -76.373)" fill="none" stroke="#4b4b4b" stroke-width="2"/>
      <path id="패스_159" data-name="패스 159" d="M125.641,272.868a.061.061,0,0,0-.065-.059l-2.3.115a.061.061,0,0,0-.059.067l.445,4.37a.061.061,0,0,0,.063.055l1.932-.093a.061.061,0,0,0,.057-.061l-.075-4.394" transform="translate(-100.593 -220.13)" fill="none" stroke="#70614c" stroke-width="2"/>
      <path id="패스_160" data-name="패스 160" d="M297.136,288.011a1.966,1.966,0,1,0-.314-2.713,1.932,1.932,0,0,0,.314,2.713" transform="translate(-238.741 -229.463)" fill="none" stroke="#70614c" stroke-width="2"/>
      <path id="패스_161" data-name="패스 161" d="M229.45,396.538c1.422.114,2.753-1.995,2.971-4.712s-.757-5.011-2.18-5.126-2.753,2-2.971,4.712.757,5.011,2.18,5.126" transform="translate(-183.569 -310.976)" fill="none" stroke="#f0e0cc" stroke-width="2"/>
      <path id="패스_162" data-name="패스 162" d="M306.041,393.425a5.651,5.651,0,0,0-.981-3.075" transform="translate(-245.644 -313.89)" fill="none" stroke="#dfd2c1" stroke-width="2"/>
      <path id="패스_163" data-name="패스 163" d="M288.449,387.443a1.578,1.578,0,0,0-2.5-.229,4.152,4.152,0,0,0-.894,1.222,8.677,8.677,0,0,0-.805,4.3,5.784,5.784,0,0,0,.925,3.009,1.575,1.575,0,0,0,2.047.647,4.067,4.067,0,0,0,1.752-2.4,9.126,9.126,0,0,0,.453-3.472" transform="translate(-229.033 -310.983)" fill="none" stroke="#f0e0cc" stroke-width="2"/>
      <path id="패스_164" data-name="패스 164" d="M303.488,390.35a2.3,2.3,0,0,0-.322,1.946,2.945,2.945,0,0,0,.945,1.293.157.157,0,0,0,.136.04.262.262,0,0,0,.223-.2" transform="translate(-244.072 -313.89)" fill="none" stroke="#d0b38d" stroke-width="2"/>
    </g>
    <path id="패스_165" data-name="패스 165" d="M100.383,39.072a.944.944,0,0,1,.223.352,26.178,26.178,0,0,1,1.333,5.608q.214,1.73.267,3.573.115,3.953-.026,8.117-.026.767-.121,1.661-.057.532-.1,1.111-.042.538-.121,1.109-.54,3.929-.874,7.71c-.065.736.028,1.436-.1,2.185a3.982,3.982,0,0,0-.012,1.216,8.867,8.867,0,0,1,.105,1.155,21.391,21.391,0,0,0,.388,4.328q.326,1.592,1.034,4.366a17.108,17.108,0,0,1,.344,1.993c.17,1.246-.182,2.489.3,3.682a5.009,5.009,0,0,1,.277.971q.022.121.269.308a6.975,6.975,0,0,1,2.3,2.695,9.036,9.036,0,0,1,.672,2.879,11.837,11.837,0,0,1-2.418,8.044,7.883,7.883,0,0,1-1.588,1.54,25.169,25.169,0,0,1-4.86,2.83q-1.712.767-3.225,1.275t-2.972.9q-3.178.862-7.128,1.592-1.337.247-2.632.395-3.1.356-6.246.71c-.538.061-1.064.073-1.608.162a8.718,8.718,0,0,1-.973.1,8.888,8.888,0,0,0-.985.109,22.048,22.048,0,0,1-3.437.233c-.186,0-.362.121-.573.117-1.89-.04-3.836.121-5.744.053q-2.181-.079-4.37-.065a.507.507,0,0,1-.223-.051.207.207,0,0,0-.1-.024q-3.694-.105-6.849-.172l-.229-.006q-3.288-.154-6.023-.168c-.144,0-.263-.065-.425-.069q-1.841-.063-3.672-.132c-.178-.006-.308-.089-.484-.1q-1.184-.042-2.234-.144a62.671,62.671,0,0,1-15.174-3.379q-3.039-1.084-5.643-2.181a27.5,27.5,0,0,1-3.476-1.8,10.157,10.157,0,0,1-1.651-1.222,12.355,12.355,0,0,0-1.637-1.271q-.479-.312-1-.609a4.473,4.473,0,0,1-.923-.722,17.883,17.883,0,0,1-2.905-3.852,4.941,4.941,0,0,1-.728-2.041,3.541,3.541,0,0,1,.7-2.213,5.983,5.983,0,0,1,3.429-2.387c.435-.077.656-.386,1.086-.4A.386.386,0,0,0,9.9,89q2.094-2.6,3.911-5.05a16.617,16.617,0,0,0,1.592-2.622.84.84,0,0,0,.03-.651,36.764,36.764,0,0,1-1.265-4.744,9.9,9.9,0,0,1-.049-2.9,18.7,18.7,0,0,1,1.131-4.457q.249-.645.473-1.267a1.513,1.513,0,0,1,.326-.526.15.15,0,0,0,.034-.172,38.574,38.574,0,0,1-1.291-3.67,19.74,19.74,0,0,1-.52-2.551q-.045-.334-.1-.619A12.045,12.045,0,0,1,14.1,57.56a9.1,9.1,0,0,1,.146-1.5q.085-.494.164-.989t.2-.981A19.1,19.1,0,0,0,15,52.15a8.368,8.368,0,0,0-.166-2.828q-.417-2.011-.664-4.109-.016-.146-.026-.306a18.656,18.656,0,0,1-.01-2.141c.014-.251.105-.427.107-.688q.012-1.3,0-2.65a3.238,3.238,0,0,0-.087-.732,8.769,8.769,0,0,0-.229-1.374c-.109-.261-.049-.538-.152-.8a1.862,1.862,0,0,1-.065-1.238.162.162,0,0,0-.063-.19,13.554,13.554,0,0,1-4.233-5.212,9.352,9.352,0,0,1-.4-1.3,13.684,13.684,0,0,1-.366-2.541,7.911,7.911,0,0,0-.257-1.582q-.214-.8-.441-1.57a7.747,7.747,0,0,1-.326-2.043,10.029,10.029,0,0,1,.2-2.321,3.5,3.5,0,0,1,.52-1.206c.3-.439.374-.963.745-1.339.223-.229.18-.488.314-.732a14.51,14.51,0,0,1,1.728-2.418,6.308,6.308,0,0,1,4.955-2.521,11.647,11.647,0,0,1,1.645.138,5.477,5.477,0,0,0,2.79-.318q.6-.223,1.208-.445a6.076,6.076,0,0,1,1.238-.338,6.412,6.412,0,0,1,2.865.251.265.265,0,0,0,.19-.01,18.032,18.032,0,0,1,3.5-1.119q1.58-.332,3.182-.538,1.279-.164,4.4-.83,2.764-.589,3.972-.777,2.667-.413,6.116-.607a.3.3,0,0,0,.1-.02.321.321,0,0,1,.1-.02q2-.065,3.986-.125a2.63,2.63,0,0,0,.409-.045,2.813,2.813,0,0,1,.4-.055h8.951c.1,0,.21.1.344.1q1.942.028,3.306.146A98.627,98.627,0,0,1,81.047,8.515l.5.127Q86.3,9.855,91.475,11.22q1.9.5,4.263.931,2.859.52,5.54,1.139.627.146,1.287.3a7.679,7.679,0,0,1,5.372,5.159,2.63,2.63,0,0,1,.158,1.376c-.115.68-.04,1.358-.192,2.041a20.044,20.044,0,0,1-2.213,4.744,11.215,11.215,0,0,0-.864,2.215q-.556,1.96-1.072,3.876a13.011,13.011,0,0,1-1.042,2.772,14.635,14.635,0,0,1-2.327,3.174.085.085,0,0,0,0,.119Zm-25.9,70.992q3.512-.3,7.124-.821a81.229,81.229,0,0,0,9.426-1.928A32.063,32.063,0,0,0,101.56,102.6a8.2,8.2,0,0,0,2.432-2.9,10.2,10.2,0,0,0,1.19-6.088,5.656,5.656,0,0,0-1.038-2.707.157.157,0,0,0-.245-.042c-.674.461-1.151-.186-1.384-.738a23.22,23.22,0,0,1-.971-2.778,5.316,5.316,0,0,1-.184-1.584,15.363,15.363,0,0,0-.255-3.322c-.425-2.189-1.093-4.392-1.376-6.632q-.208-1.641-.263-3.348a43.749,43.749,0,0,1,.158-5.289q.227-2.521.753-6.527.144-1.1.263-2.3.123-1.258.14-2.221.014-.9.042-1.985.123-4.518-.1-7.662a25.085,25.085,0,0,0-1.267-6.335q-.121-.354-.419-.127A12.19,12.19,0,0,1,96.711,41.4a2.418,2.418,0,0,1-2.3.115c-.312-.813.032-1.04.787-1.141a3.013,3.013,0,0,0,.87-.233,11.51,11.51,0,0,0,5.272-4.92,16.943,16.943,0,0,0,1.285-3.634q.5-1.873,1.115-3.707a28.374,28.374,0,0,1,1.96-3.889,6.209,6.209,0,0,0,1-2.865,6.751,6.751,0,0,0-.227-2.088,6.324,6.324,0,0,0-3.889-3.915q-.961-.291-1.853-.473C97.579,14,94.4,13.47,91.27,12.675q-3.793-.967-7.447-1.944Q78.3,9.252,72.863,8.224q-.431-.081-.026.089a6.445,6.445,0,0,1,1.182.643,4.966,4.966,0,0,0,1.764,1.091,31.235,31.235,0,0,0,3.478.494,4.1,4.1,0,0,1,1.817.625c.923.575,1.847.441,2.835.712a1.8,1.8,0,0,1,.714.326,4.655,4.655,0,0,0,1.708,1.068,17.089,17.089,0,0,1,2.588,1.871c.237.21.4.743.73,1.064a2.128,2.128,0,0,0,.435.328,6.389,6.389,0,0,1,2.385,1.793A3.628,3.628,0,0,0,94.079,19.4a3.156,3.156,0,0,1,1.76,2.489.085.085,0,0,0,.125.063,10.629,10.629,0,0,0,4.257-4.182,1.089,1.089,0,0,1,.836.109c.734.694-.68,2.31-1.226,2.873a16.714,16.714,0,0,1-4.218,3.059,47.985,47.985,0,0,1-4.89,2.258A91.964,91.964,0,0,1,71.447,31.29a59.379,59.379,0,0,1-6.426.585c-.208.01-.409.087-.609.085q-2.723-.008-5.262,0c-.5,0-1.006-.087-1.528-.109q-2.495-.111-5.321-.484A127.592,127.592,0,0,1,39.07,28.836a81.024,81.024,0,0,1-10.529-3.3q-1.916-.749-3.812-1.519a60.986,60.986,0,0,1-6.982-3.356,11.767,11.767,0,0,1-3.97-3.174c-.386-.516-.738-1.23-.273-1.791a.57.57,0,0,1,.951-.022,3.173,3.173,0,0,1,.168.544c.219.973,1.8,2.108,2.675,2.624a54.787,54.787,0,0,0,5.325,2.76q.121.055.154-.075c.35-1.382,1.291-1.918,2.476-2.474a2.53,2.53,0,0,0,1.19-1.451c.571-1.436,1.924-2.12,3.272-2.861a4.508,4.508,0,0,0,1.1-.969,12.564,12.564,0,0,1,1.906-1.789,4.963,4.963,0,0,1,2.2-1.014,7.018,7.018,0,0,0,3.2-.941c1.519-1.244,3.783-.963,5.6-.842a8.41,8.41,0,0,0,3.34-.461,19.183,19.183,0,0,1,2.986-.949,8.756,8.756,0,0,1,2.917.008,15.419,15.419,0,0,0,2.359.127A7.184,7.184,0,0,0,57.007,7.7a15.172,15.172,0,0,1,2.448-.364,13.969,13.969,0,0,1,2.78.225q.643.1,1.311.221a14.277,14.277,0,0,0,3.439.2Q68.309,7.9,68.823,7.9l1.843.02a.029.029,0,0,0,.032-.03v0a.027.027,0,0,0-.026-.034,98.656,98.656,0,0,0-18.16-.906L49,7.095A64.662,64.662,0,0,0,37.447,8.511c-1.356.3-2.905.621-4.05.789A23.465,23.465,0,0,0,26.5,11a1.025,1.025,0,0,1-.623.079q-.686-.125-1.337-.277a4.616,4.616,0,0,0-2.79.429,7.768,7.768,0,0,1-4.518.585c-2.99-.6-4.714,1.248-6.276,3.433a10.427,10.427,0,0,0-.676,1.519,9.254,9.254,0,0,0-1.1,2.493,6.478,6.478,0,0,0,.107,2.944,18.816,18.816,0,0,1,.783,3.48q.045.566.087,1.151c.277,3.787,3.371,7.114,6.753,8.6a.665.665,0,0,1,.417.87.311.311,0,0,1-.065.123.769.769,0,0,1-1.014.229A7.751,7.751,0,0,1,15.3,36.1q-.142-.1-.105.069a17.89,17.89,0,0,1,.518,5.26,22.759,22.759,0,0,0-.022,3.943q.18,1.716.625,3.927a9.333,9.333,0,0,1,0,3.9Q16,54.585,15.74,55.911c-.827,4.2.827,8.174,2.294,12.054a3.8,3.8,0,0,0,.477.9.667.667,0,0,1-.146.9c-.728.388-1.287-.508-1.5-1.072q-.053-.142-.109,0a13.467,13.467,0,0,0-1.147,7.332A31.246,31.246,0,0,0,17.1,81.4a.232.232,0,0,1-.034.223c-.753.975-1.264,2.074-2.009,3.053q-2.476,3.257-4.7,5.92a4.446,4.446,0,0,0-.753,1.19c-.344.874-1.489.305-1.242-.56q.042-.154-.1-.085c-1.078.516-2.616,1.75-2.422,3.059a3.881,3.881,0,0,0,.526,1.4,17,17,0,0,0,2.315,3.144,8,8,0,0,0,2.24,1.554c1.08.532,1.813,1.5,2.863,2.157a23.291,23.291,0,0,0,2.7,1.475,77.722,77.722,0,0,0,9.181,3.47,62.78,62.78,0,0,0,16.048,2.656q1.356.059,2.711.125,1.4.071,2.7.087,1.987.028,4.044.127t4.182.087q.54,0,1.042.04c.819.073,1.643.061,2.468.1A103.427,103.427,0,0,0,74.484,110.064ZM53.04,9.266a6.417,6.417,0,0,0-2.484-.113,8.649,8.649,0,0,0-2,.587,11.1,11.1,0,0,1-4.354.9,11.666,11.666,0,0,0-4.6.17c-.56.192-.858.706-1.422.9a13.855,13.855,0,0,1-2.745.629,6.235,6.235,0,0,0-3.557,2.335,12.279,12.279,0,0,1-3.164,2.234,2.559,2.559,0,0,0-1.016,1.159,4.187,4.187,0,0,1-2.525,2.478,2.059,2.059,0,0,0-.957.789.272.272,0,0,0-.032.237.481.481,0,0,1-.083.449q-.1.136.055.2,5.839,2.381,7.486,2.924,3.5,1.155,4.483,1.422a134.628,134.628,0,0,0,13.618,2.974,57,57,0,0,0,6.986.848q1.72.073,3.439.194a40.224,40.224,0,0,0,5.936-.212,2.46,2.46,0,0,0,.639.014,76.769,76.769,0,0,0,13.784-2.47,86.143,86.143,0,0,0,11.6-3.974l2.446-1.2a.125.125,0,0,0,.069-.174c-.235-.635-.358-1.505-1.032-1.855-.518-.269-1.659-.7-1.963-1.2a5.7,5.7,0,0,0-2.379-1.88,2.947,2.947,0,0,1-.965-.862,3.829,3.829,0,0,0-.477-.785,8.79,8.79,0,0,0-2.159-1.424,6.558,6.558,0,0,1-1.7-1.056,1.99,1.99,0,0,0-1.145-.4,5.063,5.063,0,0,1-2.1-.526,4.438,4.438,0,0,0-2.058-.7,9.22,9.22,0,0,1-1.008-.1c-1.319-.2-2.772-.267-3.8-1.169a5.3,5.3,0,0,0-4-1.38,35.02,35.02,0,0,1-5.289.109q-1.25-.156-2.582-.4a11.3,11.3,0,0,0-4.9.194,8.823,8.823,0,0,1-1.542.176C54.741,9.373,53.9,9.221,53.04,9.266Z" transform="translate(0)"/>
    <path id="패스_166" data-name="패스 166" d="M38.292,17.556q-.433-.045-.827-.1a3.864,3.864,0,0,0-.83-.03c-.917.071-1.823.061-2.733.221a32.817,32.817,0,0,1-3.644.477,25.741,25.741,0,0,0-5.592.908q-.953.269-2.029.684-.35.134-.7.255a4.466,4.466,0,0,0-1.91,1.277.57.57,0,0,0-.951.022c-.465.56-.113,1.275.273,1.791a11.767,11.767,0,0,0,3.97,3.174A60.986,60.986,0,0,0,30.3,29.59q1.9.771,3.812,1.519a81.022,81.022,0,0,0,10.529,3.3,127.591,127.591,0,0,0,13.232,2.531q2.826.372,5.321.484c.522.022,1.024.111,1.528.109q2.539-.008,5.262,0c.2,0,.4-.075.609-.085a59.381,59.381,0,0,0,6.426-.585,91.964,91.964,0,0,0,19.275-5.222,47.984,47.984,0,0,0,4.89-2.258,16.714,16.714,0,0,0,4.218-3.059c.546-.562,1.96-2.179,1.226-2.873a1.089,1.089,0,0,0-.836-.109,6.491,6.491,0,0,0-.819-.761,1.381,1.381,0,0,1-.4-.544,1.248,1.248,0,0,0-.825-.56q-3.62-1.163-7.652-2.122a23.944,23.944,0,0,0-4.194-.51A4.655,4.655,0,0,1,90.2,17.774a1.8,1.8,0,0,0-.714-.326c-.987-.271-1.912-.138-2.835-.712a4.1,4.1,0,0,0-1.817-.625,31.235,31.235,0,0,1-3.478-.494,4.966,4.966,0,0,1-1.764-1.091,6.445,6.445,0,0,0-1.182-.643q-.4-.17.026-.089,5.434,1.028,10.96,2.507,3.654.977,7.447,1.944c3.126.8,6.308,1.325,9.463,1.975q.892.182,1.853.473a6.324,6.324,0,0,1,3.889,3.915,6.751,6.751,0,0,1,.227,2.088,6.209,6.209,0,0,1-1,2.865,28.374,28.374,0,0,0-1.96,3.889q-.619,1.833-1.115,3.707a16.943,16.943,0,0,1-1.285,3.634,11.51,11.51,0,0,1-5.272,4.92,3.013,3.013,0,0,1-.87.233c-.755.1-1.1.328-.787,1.141l-1.5.86c.008-.516-.366-.787-.815-.6a39.967,39.967,0,0,1-7.638,2.373A107.056,107.056,0,0,1,77.314,51.55q-4.182.33-5.568.346-3.4.04-7.223.008-1.855-.016-3.441-.123-1.384-.091-3.437-.259a89.085,89.085,0,0,1-13.359-2.086q-1.859-.441-3.787-1.052a112.568,112.568,0,0,1-10.63-3.927,19.834,19.834,0,0,1-4.2-2.464.725.725,0,0,0-1.062,0q-.607.6.358,1.242a2.334,2.334,0,0,0-.842.825,1.15,1.15,0,0,0,.253,1.416,7.212,7.212,0,0,0,1.936,1.43A64.388,64.388,0,0,0,35.343,50.7q1.965.66,4.03,1.262a.116.116,0,0,1,.079.075.064.064,0,0,0,.067.047,1.448,1.448,0,0,1,.712.172.388.388,0,0,0,.2.047.694.694,0,0,1,.33.071,2.755,2.755,0,0,0,.917.17,2.745,2.745,0,0,1,.556.121,5.767,5.767,0,0,0,1.384.283,3.237,3.237,0,0,1,.708.136,4.861,4.861,0,0,0,.753.168q.581.085,1.125.216a13.216,13.216,0,0,0,1.831.31c.279.026.506.113.771.14q2.147.21,4.336.607c.285.053.546,0,.809.032q2.62.324,5.317.611,1.109.119,2.221.148c.836.02,1.667.125,2.5.146q6.029.15,9.582-.073,1.509-.093,3.079-.168,1.115-.051,2.331-.132,1.254-.085,2.489-.077a.878.878,0,0,1,.447.113,17.5,17.5,0,0,1,5.238,4.823,14.915,14.915,0,0,1,1.855,3.486,11.65,11.65,0,0,1,.473,1.4q-1.155.012-2.256.045-1.054.028-1.014,1.131.105,2.964.2,5.58.051,1.447,1.218,1.459,1.7.02,3.47.008a4.23,4.23,0,0,1,.057,1.7q-2.7.045-5.331-.028a2,2,0,0,0-.726.073.807.807,0,0,0,.293,1.554c1.918.121,3.828.032,5.794.016a2.392,2.392,0,0,1,.071,1.21.343.343,0,0,1-.182.247q-3.644,1.835-7.294,3.518-3.047,1.406-5.867,2.735a15.448,15.448,0,0,0-1.873,1.05q-.858.56-1.878,1.1a12.092,12.092,0,0,0-1.139.69q-.544.368-1.1.734a3.4,3.4,0,0,0-5.226.233,9.025,9.025,0,0,0-1.791,5.841c.03,2.122.625,4.85,2.618,5.734a3.683,3.683,0,0,0,3.751-.781,6.824,6.824,0,0,0,2.094-4.194q.077-.573.154-1.677a10.129,10.129,0,0,0,2.784,0,24.857,24.857,0,0,0,.194,3.506c.162,1.273.6,2.487,2.015,2.762a13.772,13.772,0,0,0,3.112.091,17.3,17.3,0,0,0,3.308-.453,9.407,9.407,0,0,0-.558,1.222,11.109,11.109,0,0,1-.627,1.392,61.492,61.492,0,0,0-2.851,6.337,15.866,15.866,0,0,0-1.4,6.5,3.7,3.7,0,0,0,.546,1.471,103.427,103.427,0,0,1-15.631.548c-.825-.034-1.649-.022-2.468-.1q-.5-.043-1.042-.04-2.126.012-4.182-.087t-4.044-.127q-1.293-.016-2.7-.087-1.356-.067-2.711-.125a62.781,62.781,0,0,1-16.048-2.656,77.723,77.723,0,0,1-9.181-3.47,23.292,23.292,0,0,1-2.7-1.475c-1.05-.658-1.782-1.625-2.863-2.157a8,8,0,0,1-2.24-1.554,17,17,0,0,1-2.315-3.144,3.881,3.881,0,0,1-.526-1.4c-.194-1.309,1.343-2.543,2.422-3.059q.144-.069.1.085c-.247.866.9,1.434,1.242.56a4.446,4.446,0,0,1,.753-1.19q2.228-2.663,4.7-5.92c.745-.979,1.256-2.078,2.009-3.053a.232.232,0,0,0,.034-.223,31.246,31.246,0,0,1-1.491-5.376,13.467,13.467,0,0,1,1.147-7.332q.057-.142.109,0c.214.564.773,1.461,1.5,1.072a.667.667,0,0,0,.146-.9,3.8,3.8,0,0,1-.477-.9c-1.467-3.88-3.122-7.858-2.294-12.054q.263-1.325.571-2.707a9.333,9.333,0,0,0,0-3.9q-.445-2.211-.625-3.927A22.759,22.759,0,0,1,21.281,47a17.89,17.89,0,0,0-.518-5.26q-.036-.168.105-.069a7.751,7.751,0,0,0,.955.564.769.769,0,0,0,1.014-.229.311.311,0,0,0,.065-.123.665.665,0,0,0-.417-.87c-3.383-1.491-6.476-4.817-6.753-8.6q-.042-.585-.087-1.151a18.816,18.816,0,0,0-.783-3.48,6.478,6.478,0,0,1-.107-2.944,9.254,9.254,0,0,1,1.1-2.493,10.427,10.427,0,0,1,.676-1.519c1.562-2.185,3.286-4.036,6.276-3.433a7.768,7.768,0,0,0,4.518-.585,4.616,4.616,0,0,1,2.79-.429q.651.152,1.337.277a1.025,1.025,0,0,0,.623-.079,23.465,23.465,0,0,1,6.893-1.7c1.145-.168,2.695-.49,4.05-.789a64.662,64.662,0,0,1,11.548-1.416l3.516-.144a98.656,98.656,0,0,1,18.16.906.027.027,0,0,1,.026.034v0a.029.029,0,0,1-.032.03l-1.843-.02q-.514,0-1.837.077a14.277,14.277,0,0,1-3.439-.2q-.668-.121-1.311-.221a13.969,13.969,0,0,0-2.78-.225,15.172,15.172,0,0,0-2.448.364,7.184,7.184,0,0,1-1.677.216,15.419,15.419,0,0,1-2.359-.127,8.756,8.756,0,0,0-2.917-.008,19.183,19.183,0,0,0-2.986.949,8.41,8.41,0,0,1-3.34.461c-1.815-.121-4.079-.4-5.6.842a7.018,7.018,0,0,1-3.2.941A4.963,4.963,0,0,0,38.292,17.556Zm4.757,48.868q-1.384,0-2.8.038a.834.834,0,1,0,.04,1.663q1.434,0,2.812-.026a.11.11,0,0,1,.125.125q-.006,1.2,0,2.288a.872.872,0,1,0,1.736-.077q.069-3.213-.061-6.636a.862.862,0,1,0-1.718.081q-.018,1.311.006,2.4A.12.12,0,0,1,43.049,66.424Zm-4.88-1.382.54-.018a.81.81,0,0,0,.856-.761.442.442,0,0,0,0-.158.744.744,0,0,0-.848-.658q-3.852.172-7.051.247a.827.827,0,0,0-.892.767c-.123.8,1.014.85,1.509.827a.115.115,0,0,1,.136.115l.441,4.3q.012.113-.1.109c-.36-.006-.937,0-1.141.374-.376.686.154,1.281.892,1.246q3.2-.15,6.292-.3a.777.777,0,0,0,.738-.743l0-.075a.64.64,0,0,0-.716-.757l-.552-.01a.126.126,0,0,1-.14-.14l-.089-4.229A.115.115,0,0,1,38.169,65.043Zm41.868.85a.791.791,0,0,0-.791-.791h-.077a.791.791,0,0,0-.791.791v7.834a.791.791,0,0,0,.791.791h.077a.791.791,0,0,0,.791-.791ZM54.231,69.645q-1.422-.018-2.982.034a1.3,1.3,0,0,0-1.4,1.04,8.105,8.105,0,0,0,.018,2.962,1.933,1.933,0,0,0,1.645,1.795c.635.1,5,.629,4.457-1.05a.714.714,0,0,0-.805-.524q-1.1.063-2.28.067c-.6,0-1.362.047-1.441-.769a8.057,8.057,0,0,1-.006-1.758.146.146,0,0,1,.132-.138,4.162,4.162,0,0,1,.836-.053,20.739,20.739,0,0,0,2.484-.045C55.7,71.14,56,70.2,56.06,69.5a16.879,16.879,0,0,0,0-2.812,1.525,1.525,0,0,0-1.588-1.475,20.99,20.99,0,0,0-4.026.032.807.807,0,1,0,.162,1.6q1.716-.091,3.5-.079a.3.3,0,0,1,.342.324,18.126,18.126,0,0,1-.051,2.4A.149.149,0,0,1,54.231,69.645Zm7.441.7q1.095.014,2.329,0A.829.829,0,1,0,64.11,68.7q-1.244-.012-2.422-.016a.1.1,0,0,1-.115-.115q.02-1.149.01-2.258a.821.821,0,1,0-1.639-.02q-.079,3.46-.154,7.15a.814.814,0,1,0,1.623.034q.067-1.414.1-2.974A.137.137,0,0,1,61.672,70.349ZM74.4,68.882a3.178,3.178,0,0,0-3.382-2.961l-.626.042a3.178,3.178,0,0,0-2.961,3.382l.043.646a3.178,3.178,0,0,0,3.382,2.961l.626-.042a3.178,3.178,0,0,0,2.961-3.382ZM41.677,75.721q-1.661-.008-3.425,0c-.987.006-.706,2.537-.666,3.122.071,1.032,1.026,1.165,1.847,1.194q1.948.069,3.755-.022a.677.677,0,0,0,.7-.607l.022-.119q.138-.734-.607-.734l-3.783-.008a.3.3,0,0,1-.346-.36l.028-.769a.257.257,0,0,1,.3-.281q.912.012,1.863.032c.651.014,1.7-.006,1.876-.807a12.347,12.347,0,0,0,.212-2.861,1.113,1.113,0,0,0-1.1-1.2,33.583,33.583,0,0,0-3.579.053.563.563,0,0,0-.587.627v.125a.672.672,0,0,0,.761.763l2.822,0a.079.079,0,0,1,.089.091l-.059,1.651A.1.1,0,0,1,41.677,75.721Zm6.5,13.025q-.208,3.864-.15,7.346a20.473,20.473,0,0,0,.162,2.81.7.7,0,0,0,.91.656q.356-.057.621-.573a.732.732,0,0,0,.079-.364,86.713,86.713,0,0,1,.042-9.44c.038-.591.012-1.2.018-1.8.012-1.55-2.4-.508-3.029-.152-.658.37-1.542,1.327-.73,2.017.479.4,1.53-.326,1.944-.579Q48.186,88.582,48.176,88.746Zm5.95.858a10.946,10.946,0,0,0-.453,6.586c.382,1.627,1.542,3.506,3.431,3.5,2.814,0,4.4-2.806,4.746-5.258.346-2.434.121-5.2-1.623-6.931a3.255,3.255,0,0,0-1.962-.947C56.3,86.325,54.767,87.933,54.126,89.6Z" transform="translate(-5.569 -5.571)" fill="#e0c198"/>
    <path id="패스_167" data-name="패스 167" d="M270.852,37.01l-.738-.6a.173.173,0,0,0-.057-.032,2.209,2.209,0,0,1-.7-.419.178.178,0,0,1-.061-.178,1.207,1.207,0,0,1,.188-.463.216.216,0,0,0,.016-.221,1.671,1.671,0,0,0-1.651-1.04,1.131,1.131,0,0,0-.852.38.167.167,0,0,1-.194.049,3.171,3.171,0,0,1-.488-.214,5.631,5.631,0,0,0-1.208-.31.337.337,0,0,1-.275-.36,5.845,5.845,0,0,0-.32-1.833c-.4-.87-1.54-.955-2.369-.884a1.178,1.178,0,0,0-.844-.376q-.326.006-.241-.308A1.545,1.545,0,0,0,261,28.963a1.428,1.428,0,0,0-2.671.2.128.128,0,0,1-.17.1,10.084,10.084,0,0,1-2.211-.773.29.29,0,0,1-.16-.243,1.275,1.275,0,0,0-.947-1.285,1.093,1.093,0,0,0-1.362.407,1.92,1.92,0,0,1-.587.635,2.868,2.868,0,0,0-4.089-.7c-1.455.862.281,2.381.641,1.2a.283.283,0,0,1,.111-.156,1.915,1.915,0,0,1,1.337-.326c-.4.631-.354,1.012.374,1.287a7.565,7.565,0,0,0,1.169.338.075.075,0,0,1,.03.132,1.466,1.466,0,0,0-.37.437,1.816,1.816,0,0,0,.006.943.188.188,0,0,1-.077.194c-.267.2-.647.421-.773.747a1.082,1.082,0,0,0-.018,1.036,1.954,1.954,0,0,0,.694.7.417.417,0,0,1,.214.518,11.261,11.261,0,0,1-.668,1.819.187.187,0,0,1-.176.109,1.349,1.349,0,0,0-1.161.518,2.024,2.024,0,0,0-.291.977q-.061.54-.162,1.05c-.813.065-3.134.8-2.029,1.975a2.464,2.464,0,0,1-1.275.613,3.121,3.121,0,0,0-1.216.886,1.925,1.925,0,0,0-.336,1.147,40.224,40.224,0,0,1-5.936.212q-1.72-.121-3.439-.194a57,57,0,0,1-6.986-.848l1.689-.235a.217.217,0,0,0,.182-.14,1.3,1.3,0,0,1,.747-.708,3.555,3.555,0,0,1,.753-.216.936.936,0,0,0,.745-.718.207.207,0,0,0-.04-.206c-.113-.134-.291-.208-.374-.332a1.3,1.3,0,0,1,0-1.718,1.217,1.217,0,0,1,2.007.119q.281.372.486-.049a3.059,3.059,0,0,0,.168-.621q.548-.152.538-.943a3.005,3.005,0,0,1,.372-2.766,1.79,1.79,0,0,1,.583-.54,2.367,2.367,0,0,0,.864-.884.179.179,0,0,0,.018-.142c-.073-.283-.293-.457-.342-.769q-.032-.223-.047-.453a.382.382,0,0,0-.063-.19q-.227-.342-.445-.69A1.15,1.15,0,0,1,237,28.761a1.365,1.365,0,0,1,1.008-.061q.172.063.162-.119l-.016-.267a.351.351,0,0,0-.168-.289c-.2-.127-.427-.036-.662-.107a4.077,4.077,0,0,1-1.768-1.115,1.97,1.97,0,0,1,1.246.154.358.358,0,0,1,.2.237.826.826,0,0,0,.52.591.558.558,0,0,0,.736-.469,1.433,1.433,0,0,0-.983-1.542,4.04,4.04,0,0,0-1.815-.243,1.9,1.9,0,0,1-.892-.834.686.686,0,0,0-.427-.378,3.949,3.949,0,0,1-2.369-1.989c.856-.045,1.7.107,2.5.051a8.823,8.823,0,0,0,1.542-.176,11.3,11.3,0,0,1,4.9-.194q1.331.249,2.582.4a35.021,35.021,0,0,0,5.289-.109,5.3,5.3,0,0,1,4,1.38c1.032.9,2.484.965,3.8,1.169a9.219,9.219,0,0,0,1.008.1,4.437,4.437,0,0,1,2.058.7,5.063,5.063,0,0,0,2.1.526,1.99,1.99,0,0,1,1.145.4,6.558,6.558,0,0,0,1.7,1.056,8.79,8.79,0,0,1,2.159,1.424,3.83,3.83,0,0,1,.477.785,2.946,2.946,0,0,0,.965.862,5.7,5.7,0,0,1,2.379,1.88c.3.5,1.445.931,1.962,1.2.674.35.8,1.22,1.032,1.855a.125.125,0,0,1-.069.174ZM243.294,25.929a1.194,1.194,0,0,1,1.449.5c.237.358.7.692,1.129.425.791-.5-.484-1.677-.85-1.924a2.972,2.972,0,0,0-2.887.154c-.621.388-.7,1.457.214,1.487a.526.526,0,0,0,.488-.293A.65.65,0,0,1,243.294,25.929Zm4.682,3.377a1.087,1.087,0,0,0-1.02-.39.758.758,0,0,0-.688.431,2.808,2.808,0,0,0-.206.668,1.113,1.113,0,0,0,.591,1.06.989.989,0,0,0,1.432-.214,1.1,1.1,0,0,0,.172-1.281.252.252,0,0,0-.071-.093A.975.975,0,0,1,247.976,29.305Zm-8.447,4.441a.21.21,0,0,0,.087-.085,2.349,2.349,0,0,1,2-1.151.239.239,0,0,1,.192.071q.115.111.231.229a.588.588,0,0,0,1.022-.374c-.053-1.269-1.5-1.345-2.432-1.042a4.445,4.445,0,0,0-1.756,1.072c-.49.482-.4,1.36.4,1.39a.246.246,0,0,0,.152-.047A.876.876,0,0,1,239.529,33.746Zm11.465,1.4c.809.073.755-.819.451-1.295-1.095-1.71-3.387-1.275-4.785-.186a1.147,1.147,0,0,0-.508,1.034.642.642,0,0,0,1.01.475.332.332,0,0,0,.132-.148,1.021,1.021,0,0,1,.35-.532c.647-.439,2.108-.88,2.624-.034C250.462,34.784,250.567,35.112,250.994,35.15Zm-3.11,1.592a1.2,1.2,0,1,0-1.2,1.2A1.2,1.2,0,0,0,247.885,36.743ZM244.1,41.125a1.6,1.6,0,0,0-2.846-1.238,1.6,1.6,0,0,0,2.846,1.238Z" transform="translate(-178.732 -13.064)" fill="#b9b9b9"/>
    <path id="패스_168" data-name="패스 168" d="M130.517,23.582a3.949,3.949,0,0,0,2.369,1.989.686.686,0,0,1,.427.378,1.9,1.9,0,0,0,.892.834c-1.008.1-2.114.56-2.126,1.706a.6.6,0,0,0,.409.637.542.542,0,0,0,.575-.075s.094-.166.271-.486a1.178,1.178,0,0,1,.965-.51,4.076,4.076,0,0,0,1.768,1.115c.235.071.463-.02.662.107a.352.352,0,0,1,.168.289l.016.267q.01.182-.162.119a1.365,1.365,0,0,0-1.008.061,1.15,1.15,0,0,0-.692,1.649q.219.348.445.69a.383.383,0,0,1,.063.19q.014.231.047.453c.049.312.269.486.342.769a.18.18,0,0,1-.018.142,2.367,2.367,0,0,1-.864.884,1.789,1.789,0,0,0-.583.54,3.005,3.005,0,0,0-.372,2.766,1.875,1.875,0,0,0-1.426-.888,1.575,1.575,0,0,0-1.424.607c-.595.728.4,1.621,1.111.763a.209.209,0,0,1,.318-.04c.322.231.429.52.884.5a3.059,3.059,0,0,1-.168.621q-.2.421-.486.049a1.217,1.217,0,0,0-2.007-.119,1.3,1.3,0,0,0,0,1.718c.083.123.261.2.374.332a.206.206,0,0,1,.04.206.936.936,0,0,1-.745.718,3.556,3.556,0,0,0-.753.216,1.3,1.3,0,0,0-.747.708.217.217,0,0,1-.182.14l-1.689.235A134.628,134.628,0,0,1,113.6,40.888q-.983-.267-4.483-1.422-1.647-.542-7.486-2.924-.156-.065-.055-.2a.481.481,0,0,0,.083-.449.272.272,0,0,1,.032-.237,2.059,2.059,0,0,1,.957-.789,4.187,4.187,0,0,0,2.525-2.478,2.559,2.559,0,0,1,1.016-1.159A12.278,12.278,0,0,0,109.35,29a6.235,6.235,0,0,1,3.557-2.335,13.855,13.855,0,0,0,2.745-.629c.564-.2.862-.712,1.422-.9a11.666,11.666,0,0,1,4.6-.17,11.1,11.1,0,0,0,4.354-.9,8.649,8.649,0,0,1,2-.587A6.417,6.417,0,0,1,130.517,23.582Zm.848,2.431a1.3,1.3,0,1,0-.4,1.757,1.276,1.276,0,0,0,.4-1.757Zm-10.968.97a1.085,1.085,0,0,1,1.113.087.71.71,0,0,0,1.155-.227.267.267,0,0,0,.028-.216,1.256,1.256,0,0,0-.767-.844,2.413,2.413,0,0,0-2.658.425c-.617.528-.243,1.807.692,1.337.2-.1.206-.245.291-.421A.287.287,0,0,1,120.4,26.983Zm4.759,2.191a2.326,2.326,0,0,0-1.323,1.5.344.344,0,0,0,.012.227.675.675,0,0,0,.979.4.283.283,0,0,0,.164-.154,1.554,1.554,0,0,1,.569-.688,1.828,1.828,0,0,1,2.458.146.678.678,0,0,0,1.038.02.347.347,0,0,0,.093-.146.75.75,0,0,0-.19-.811A3.041,3.041,0,0,0,125.155,29.174Zm-9.317,1.366c.255.164.342.443.647.542a.688.688,0,0,0,.945-.8c-.059-.306-.356-.421-.552-.635a1.858,1.858,0,0,0-2.228-.174,2.877,2.877,0,0,0-1.4,1.619,1.133,1.133,0,0,0-.032.607q.1.441.39.52a.6.6,0,0,0,.813-.5,1.585,1.585,0,0,1,1.23-1.218A.244.244,0,0,1,115.839,30.54Zm17.029,2.632a1.265,1.265,0,1,0-1.264,1.264A1.265,1.265,0,0,0,132.868,33.172Zm-13.1,1.56a2.609,2.609,0,0,0-1.335,1.147.77.77,0,0,0,.04.767.618.618,0,0,0,1.074-.083,1.571,1.571,0,0,1,1.718-.726.291.291,0,0,1,.148.071,2.2,2.2,0,0,1,.269.3c.291.384,1.068.277,1.115-.263a1.027,1.027,0,0,0-.431-.961A2.388,2.388,0,0,0,119.772,34.732ZM109.213,37.3a2.205,2.205,0,0,1,.813-.138c.427.01.694.285,1.08.395.755.21,1.36-.55.686-1.07a3.067,3.067,0,0,0-2.924-.453c-2.189.67-.5,2.741.107,1.481A.422.422,0,0,1,109.213,37.3Z" transform="translate(-77.477 -14.316)" fill="#e5e5e5"/>
    <ellipse id="타원_4" data-name="타원 4" cx="1.303" cy="1.246" rx="1.303" ry="1.246" transform="matrix(0.836, -0.549, 0.549, 0.836, 51.026, 12.086)" fill="#b9b9b9"/>
    <path id="패스_169" data-name="패스 169" d="M188.98,35.664c-.085.176-.093.322-.291.421-.935.469-1.309-.809-.692-1.337a2.413,2.413,0,0,1,2.658-.425,1.256,1.256,0,0,1,.767.844.267.267,0,0,1-.028.216.71.71,0,0,1-1.155.227,1.085,1.085,0,0,0-1.113-.087A.287.287,0,0,0,188.98,35.664Z" transform="translate(-146.206 -22.855)"/>
    <path id="패스_170" data-name="패스 170" d="M296.766,37.418a1.194,1.194,0,0,0-1.449-.5.65.65,0,0,0-.457.344.526.526,0,0,1-.488.293c-.914-.03-.836-1.1-.214-1.487a2.972,2.972,0,0,1,2.887-.154c.366.247,1.641,1.428.85,1.924C297.466,38.11,297,37.777,296.766,37.418Z" transform="translate(-230.755 -24.058)"/>
    <path id="패스_171" data-name="패스 171" d="M72.347,37.192a12.564,12.564,0,0,0-1.906,1.789,4.508,4.508,0,0,1-1.1.969c-1.347.74-2.7,1.424-3.272,2.861a2.53,2.53,0,0,1-1.19,1.451c-1.186.556-2.126,1.093-2.476,2.474q-.032.129-.154.075a54.788,54.788,0,0,1-5.325-2.76c-.878-.516-2.456-1.651-2.675-2.624a3.173,3.173,0,0,0-.168-.544,4.466,4.466,0,0,1,1.91-1.277q.352-.121.7-.255,1.076-.415,2.029-.684a25.741,25.741,0,0,1,5.592-.908,32.817,32.817,0,0,0,3.644-.477c.91-.16,1.817-.15,2.733-.221a3.864,3.864,0,0,1,.83.03Q71.915,37.147,72.347,37.192Z" transform="translate(-39.625 -25.207)" fill="#bfa582"/>
    <path id="패스_172" data-name="패스 172" d="M254.729,41.331a1.178,1.178,0,0,0-.965.51q-.265.48-.271.486a.542.542,0,0,1-.575.075.6.6,0,0,1-.409-.637c.012-1.145,1.119-1.608,2.126-1.706a4.04,4.04,0,0,1,1.815.243,1.433,1.433,0,0,1,.983,1.542.559.559,0,0,1-.736.469.826.826,0,0,1-.52-.591.358.358,0,0,0-.2-.237A1.97,1.97,0,0,0,254.729,41.331Z" transform="translate(-197.908 -27.592)"/>
    <path id="패스_173" data-name="패스 173" d="M423.237,48.608a10.63,10.63,0,0,1-4.257,4.182.085.085,0,0,1-.125-.063,3.156,3.156,0,0,0-1.76-2.489,3.628,3.628,0,0,1-1.606-1.072,6.388,6.388,0,0,0-2.385-1.793,2.129,2.129,0,0,1-.435-.328c-.328-.322-.494-.854-.73-1.064a17.089,17.089,0,0,0-2.588-1.871,23.944,23.944,0,0,1,4.194.51q4.032.959,7.652,2.122a1.248,1.248,0,0,1,.826.56,1.381,1.381,0,0,0,.4.544A6.493,6.493,0,0,1,423.237,48.608Z" transform="translate(-323.016 -30.838)" fill="#bfa582"/>
    <path id="패스_174" data-name="패스 174" d="M330.814,47.447q.372.613-.063.977c-.615.516-1.107-.437-1.366-.668a1.452,1.452,0,0,0-.571-.3,1.915,1.915,0,0,0-1.337.326.283.283,0,0,0-.111.156c-.36,1.186-2.1-.334-.641-1.2A2.868,2.868,0,0,1,330.814,47.447Z" transform="translate(-256.651 -32.506)"/>
    <path id="패스_175" data-name="패스 175" d="M326.648,50.815a3.788,3.788,0,0,0-2.11.676c-.368.269-.763,1.024-.267,1.406a.633.633,0,0,0,.593.1.415.415,0,0,0,.249-.19c.473-.789,1.722-.825,2.5-.686a.245.245,0,0,1,.168.113l.176.289a.238.238,0,0,0,.146.107c.688.192.947-.336.919-.929a5.846,5.846,0,0,1,.32,1.833.337.337,0,0,0,.275.36,5.632,5.632,0,0,1,1.208.31,3.171,3.171,0,0,0,.488.214.167.167,0,0,0,.194-.049,1.131,1.131,0,0,1,.852-.38A1.671,1.671,0,0,1,334,55.027a.216.216,0,0,1-.016.221,1.206,1.206,0,0,0-.188.463.178.178,0,0,0,.061.178,2.209,2.209,0,0,0,.7.419.173.173,0,0,1,.057.032l.738.6a86.145,86.145,0,0,1-11.6,3.974,76.77,76.77,0,0,1-13.784,2.47,2.46,2.46,0,0,1-.639-.014,1.926,1.926,0,0,1,.336-1.147,3.121,3.121,0,0,1,1.216-.886,2.464,2.464,0,0,0,1.275-.613q.431.293.682.018a1.942,1.942,0,0,1,1.655-.753.261.261,0,0,1,.19.119.588.588,0,0,0,1.107-.372q-.1-1.155-1.6-.987.1-.51.162-1.05a2.023,2.023,0,0,1,.291-.977,1.349,1.349,0,0,1,1.161-.518.187.187,0,0,0,.176-.109,11.264,11.264,0,0,0,.668-1.819.417.417,0,0,0-.214-.518,1.954,1.954,0,0,1-.694-.7,1.082,1.082,0,0,1,.018-1.036c.125-.326.506-.544.773-.747a.188.188,0,0,0,.077-.194,1.816,1.816,0,0,1-.006-.943,1.466,1.466,0,0,1,.37-.437.075.075,0,0,0-.03-.132,7.564,7.564,0,0,1-1.169-.338c-.728-.275-.779-.656-.374-1.287a1.452,1.452,0,0,1,.571.3c.259.231.751,1.184,1.366.668q.435-.364.063-.977a1.919,1.919,0,0,0,.587-.635,1.093,1.093,0,0,1,1.362-.407,1.275,1.275,0,0,1,.947,1.285.29.29,0,0,0,.16.243,10.084,10.084,0,0,0,2.211.773.128.128,0,0,0,.17-.1,1.428,1.428,0,0,1,2.671-.2,1.545,1.545,0,0,1,.055,1.232q-.085.314.241.308A1.178,1.178,0,0,1,326.648,50.815Zm1.2,6.594c.265.2.67.35.941.071a.6.6,0,0,0,.091-.832c-.971-1.489-4.933.239-4.556,1.837.091.388.471.471.819.407a.245.245,0,0,0,.184-.142,2.586,2.586,0,0,1,2.246-1.416A.394.394,0,0,1,327.85,57.409Z" transform="translate(-243.24 -32.999)" fill="#969696"/>
    <path id="패스_176" data-name="패스 176" d="M213.019,50.214a3.041,3.041,0,0,1,3.8.5.75.75,0,0,1,.19.811.347.347,0,0,1-.093.146.678.678,0,0,1-1.038-.02,1.828,1.828,0,0,0-2.458-.146,1.554,1.554,0,0,0-.569.688.283.283,0,0,1-.164.154.675.675,0,0,1-.979-.4.344.344,0,0,1-.012-.227A2.326,2.326,0,0,1,213.019,50.214Z" transform="translate(-165.341 -35.356)"/>
    <path id="패스_177" data-name="패스 177" d="M161.6,53.344a1.585,1.585,0,0,0-1.23,1.218.6.6,0,0,1-.813.5q-.293-.079-.39-.52a1.133,1.133,0,0,1,.032-.607,2.877,2.877,0,0,1,1.4-1.619,1.858,1.858,0,0,1,2.228.174c.2.214.494.33.552.635a.688.688,0,0,1-.945.8c-.306-.1-.393-.378-.647-.542A.244.244,0,0,0,161.6,53.344Z" transform="translate(-123.426 -37.155)"/>
    <path id="패스_178" data-name="패스 178" d="M317.28,57.225a.975.975,0,0,0,.21.18.252.252,0,0,1,.071.093,1.1,1.1,0,0,1-.172,1.281.989.989,0,0,1-1.432.214,1.113,1.113,0,0,1-.591-1.06,2.806,2.806,0,0,1,.206-.668.758.758,0,0,1,.688-.431A1.087,1.087,0,0,1,317.28,57.225Z" transform="translate(-248.036 -40.984)" fill="#969696"/>
    <circle id="타원_5" data-name="타원 5" cx="1.265" cy="1.265" r="1.265" transform="translate(52.862 17.591)" fill="#b9b9b9"/>
    <path id="패스_179" data-name="패스 179" d="M384.6,66.493c.83-.071,1.973.014,2.369.884.028.593-.231,1.121-.919.929a.238.238,0,0,1-.146-.107l-.176-.289a.245.245,0,0,0-.168-.113c-.775-.14-2.023-.1-2.5.686a.415.415,0,0,1-.249.19.633.633,0,0,1-.593-.1c-.5-.382-.1-1.137.267-1.406A3.788,3.788,0,0,1,384.6,66.493Z" transform="translate(-301.191 -48.677)"/>
    <path id="패스_180" data-name="패스 180" d="M279.242,70.94a.246.246,0,0,1-.152.047c-.807-.03-.892-.908-.4-1.39a4.445,4.445,0,0,1,1.756-1.072c.933-.3,2.379-.227,2.432,1.042a.588.588,0,0,1-1.022.374q-.115-.117-.231-.229a.239.239,0,0,0-.192-.071,2.349,2.349,0,0,0-2,1.151.21.21,0,0,1-.087.085A.872.872,0,0,0,279.242,70.94Z" transform="translate(-218.549 -50.195)"/>
    <path id="패스_181" data-name="패스 181" d="M320.7,78.063c-.427-.038-.532-.366-.726-.686-.516-.846-1.977-.4-2.624.034a1.021,1.021,0,0,0-.35.532.332.332,0,0,1-.132.148.642.642,0,0,1-1.01-.475,1.147,1.147,0,0,1,.508-1.034c1.4-1.088,3.69-1.523,4.785.186C321.451,77.243,321.505,78.136,320.7,78.063Z" transform="translate(-248.434 -55.976)"/>
    <path id="패스_182" data-name="패스 182" d="M186.087,78.356a2.388,2.388,0,0,1,2.6.247,1.027,1.027,0,0,1,.431.961c-.047.54-.823.647-1.115.263a2.2,2.2,0,0,0-.269-.3.291.291,0,0,0-.148-.071,1.571,1.571,0,0,0-1.718.726.618.618,0,0,1-1.074.083.77.77,0,0,1-.04-.767A2.608,2.608,0,0,1,186.087,78.356Z" transform="translate(-143.792 -57.94)"/>
    <path id="패스_183" data-name="패스 183" d="M133.611,86.615c-.6,1.26-2.3-.811-.107-1.481a3.067,3.067,0,0,1,2.924.453c.674.52.069,1.281-.686,1.07-.386-.109-.654-.384-1.08-.395a2.205,2.205,0,0,0-.813.138A.422.422,0,0,0,133.611,86.615Z" transform="translate(-102.112 -63.422)"/>
    <circle id="타원_6" data-name="타원 6" cx="1.202" cy="1.202" r="1.202" transform="translate(66.749 22.477)" fill="#969696"/>
    <path id="패스_184" data-name="패스 184" d="M250.592,92.523q.01.791-.538.943c-.455.018-.562-.271-.884-.5a.209.209,0,0,0-.318.04c-.714.858-1.706-.034-1.111-.763a1.575,1.575,0,0,1,1.424-.607A1.875,1.875,0,0,1,250.592,92.523Z" transform="translate(-193.959 -68.743)"/>
    <path id="패스_185" data-name="패스 185" d="M386.835,93.919a.393.393,0,0,0-.275-.075,2.585,2.585,0,0,0-2.246,1.416.245.245,0,0,1-.184.142c-.348.065-.728-.018-.819-.407-.376-1.6,3.585-3.326,4.556-1.837a.6.6,0,0,1-.091.832C387.505,94.269,387.1,94.116,386.835,93.919Z" transform="translate(-302.225 -69.51)"/>
    <path id="패스_186" data-name="패스 186" d="M324.185,105.726q1.5-.168,1.6.987a.588.588,0,0,1-1.107.372.261.261,0,0,0-.19-.119,1.942,1.942,0,0,0-1.655.753q-.251.275-.682-.018C321.052,106.529,323.372,105.791,324.185,105.726Z" transform="translate(-253.23 -79.971)"/>
    <ellipse id="타원_7" data-name="타원 7" cx="1.552" cy="1.21" rx="1.552" ry="1.21" transform="translate(63 25.714) rotate(23.5)" fill="#969696"/>
    <path id="패스_187" data-name="패스 187" d="M149.669,163.581a1.207,1.207,0,0,1-.781.817,44.969,44.969,0,0,1-7.237,2.242q-2.035.447-4.168.821a94.84,94.84,0,0,1-9.887,1.216c-1.194.083-2.377.19-3.662.206q-1.58.018-2.83.079c-2.442.115-4.866-.03-7.255-.061-1.248-.018-2.474-.142-3.7-.223a100.471,100.471,0,0,1-10.067-1.212,71.981,71.981,0,0,1-11.828-3.077q-4.358-1.534-7.4-2.824a23.132,23.132,0,0,1-4.706-2.691q-.965-.637-.358-1.242a.725.725,0,0,1,1.062,0,19.835,19.835,0,0,0,4.2,2.464,112.567,112.567,0,0,0,10.63,3.927q1.928.611,3.787,1.052a89.089,89.089,0,0,0,13.359,2.086q2.054.168,3.437.259,1.586.107,3.441.123,3.824.032,7.223-.008,1.386-.016,5.568-.346a107.055,107.055,0,0,0,12.712-1.829,39.969,39.969,0,0,0,7.638-2.373C149.3,162.794,149.677,163.065,149.669,163.581Z" transform="translate(-56.76 -121.207)"/>
    <path id="패스_188" data-name="패스 188" d="M74.613,164.69a23.132,23.132,0,0,0,4.706,2.691q3.039,1.291,7.4,2.824a71.981,71.981,0,0,0,11.828,3.077,100.466,100.466,0,0,0,10.067,1.212c1.222.081,2.448.2,3.7.223,2.389.03,4.813.176,7.255.061q1.25-.061,2.83-.079c1.285-.016,2.468-.123,3.662-.206a94.844,94.844,0,0,0,9.887-1.216q2.132-.374,4.168-.821a44.972,44.972,0,0,0,7.237-2.242,1.208,1.208,0,0,0,.781-.817l1.5-.86a2.418,2.418,0,0,0,2.3-.115,12.189,12.189,0,0,0,2.327-1.384q.3-.227.419.127a25.087,25.087,0,0,1,1.267,6.335q.223,3.144.1,7.662-.028,1.082-.042,1.985-.016.963-.14,2.221-.119,1.206-.263,2.3-.526,4.006-.753,6.527a43.748,43.748,0,0,0-.158,5.289q.055,1.708.263,3.348c.283,2.24.951,4.443,1.376,6.632a15.364,15.364,0,0,1,.255,3.322,5.315,5.315,0,0,0,.184,1.584,23.214,23.214,0,0,0,.971,2.778c.233.552.71,1.2,1.384.738a.157.157,0,0,1,.245.042,5.656,5.656,0,0,1,1.038,2.707,10.2,10.2,0,0,1-1.19,6.088,8.2,8.2,0,0,1-2.432,2.9,32.063,32.063,0,0,1-10.527,4.712,81.234,81.234,0,0,1-9.426,1.928q-3.611.522-7.124.821a3.7,3.7,0,0,1-.546-1.471,15.867,15.867,0,0,1,1.4-6.5,61.5,61.5,0,0,1,2.851-6.337,11.112,11.112,0,0,0,.627-1.392,9.406,9.406,0,0,1,.558-1.222,1.036,1.036,0,0,0,.354-.894l3.215-7.583q.081-.194-.123-.148-2.264.514-4.645.969-1.515.289-5.665,1.477.079-2.005.322-4.316a3.824,3.824,0,0,0,.016-1.238.877.877,0,0,0-1.445-.178,1.814,1.814,0,0,0-.308.86,27.751,27.751,0,0,0-.35,5.145,10.129,10.129,0,0,1-2.784,0,7.493,7.493,0,0,0-1.6-5.155q.556-.366,1.1-.734a12.094,12.094,0,0,1,1.139-.69q1.02-.54,1.878-1.1a15.446,15.446,0,0,1,1.873-1.05q2.82-1.329,5.867-2.735,3.65-1.683,7.294-3.518a.343.343,0,0,0,.182-.247,2.392,2.392,0,0,0-.071-1.21q2-.014,4.411-.075a.717.717,0,0,0,.8-.8c0-.53-.21-.807-.761-.805q-2.4.012-4.475.063a4.23,4.23,0,0,0-.057-1.7l2.448-.075a.651.651,0,0,0,.706-.69l.012-.194a.575.575,0,0,0-.66-.688l-2.61.022-.2-1.671q1.345,0,2.628-.016a.8.8,0,1,0-.044-1.594q-1.584,0-2.922.02-.1-.38-.166-.773a1.475,1.475,0,0,0-.184-.512q-.144-.239-.306-.465,1.845-.024,3.648-.059a.793.793,0,1,0-.047-1.586q-2.122.018-3.921.059a11.656,11.656,0,0,0-.473-1.4,14.915,14.915,0,0,0-1.855-3.486,17.5,17.5,0,0,0-5.238-4.823.878.878,0,0,0-.447-.113q-1.234-.008-2.489.077-1.216.081-2.331.132-1.57.075-3.079.168-3.553.223-9.582.073c-.836-.02-1.667-.125-2.5-.146q-1.113-.028-2.221-.148-2.7-.287-5.317-.611c-.263-.032-.524.02-.809-.032q-2.189-.4-4.336-.607c-.265-.026-.492-.113-.771-.14a13.213,13.213,0,0,1-1.831-.31q-.544-.132-1.125-.216a4.863,4.863,0,0,1-.753-.168,3.237,3.237,0,0,0-.708-.136,5.768,5.768,0,0,1-1.384-.283,2.745,2.745,0,0,0-.556-.121,2.755,2.755,0,0,1-.917-.17.694.694,0,0,0-.33-.071.388.388,0,0,1-.2-.047,1.448,1.448,0,0,0-.712-.172.064.064,0,0,1-.067-.047.116.116,0,0,0-.079-.075q-2.066-.6-4.03-1.262a64.387,64.387,0,0,1-9.032-3.794,7.212,7.212,0,0,1-1.936-1.43,1.15,1.15,0,0,1-.253-1.416A2.335,2.335,0,0,1,74.613,164.69Z" transform="translate(-55.219 -127.023)" fill="#bfa582"/>
    <path id="패스_189" data-name="패스 189" d="M153.53,265.347q-.024-1.093-.006-2.4a.862.862,0,1,1,1.718-.081q.129,3.423.061,6.636a.872.872,0,1,1-1.736.077q0-1.091,0-2.288a.11.11,0,0,0-.125-.125q-1.378.03-2.812.026a.834.834,0,1,1-.04-1.663q1.42-.043,2.8-.038A.12.12,0,0,0,153.53,265.347Z" transform="translate(-115.915 -204.633)"/>
    <path id="패스_190" data-name="패스 190" d="M114.427,266.3l.089,4.229a.126.126,0,0,0,.14.14l.552.01a.64.64,0,0,1,.716.757l0,.075a.777.777,0,0,1-.738.742q-3.089.154-6.292.3c-.738.034-1.269-.56-.892-1.246.2-.37.781-.38,1.141-.374q.113,0,.1-.109l-.441-4.3a.115.115,0,0,0-.136-.115c-.5.022-1.633-.026-1.509-.828a.827.827,0,0,1,.892-.767q3.2-.075,7.051-.247a.744.744,0,0,1,.848.658.442.442,0,0,1,0,.158.81.81,0,0,1-.856.761l-.54.018A.115.115,0,0,0,114.427,266.3Zm-1.608,0a.061.061,0,0,0-.065-.059l-2.3.115a.061.061,0,0,0-.059.067l.445,4.37a.061.061,0,0,0,.063.055l1.932-.093a.061.061,0,0,0,.057-.061Z" transform="translate(-81.953 -206.697)"/>
    <path id="패스_191" data-name="패스 191" d="M384.823,272.785l-1.892.028a.055.055,0,0,0-.063.065l.051,1.59a.083.083,0,0,0,.083.081l2.476-.014q1.337-.022,2.922-.02a.8.8,0,1,1,.044,1.594q-1.283.016-2.628.016l-2.808.024a.065.065,0,0,0-.063.067l.061,1.574a.046.046,0,0,0,.053.049l2.958-.043,2.61-.022a.575.575,0,0,1,.66.688l-.012.194a.651.651,0,0,1-.706.69l-2.448.075q-1.768.012-3.47-.008-1.167-.012-1.218-1.459-.093-2.616-.2-5.58-.041-1.1,1.014-1.131,1.1-.032,2.256-.045,1.8-.04,3.921-.059a.793.793,0,1,1,.047,1.586Q386.668,272.76,384.823,272.785Z" transform="translate(-300.588 -211.935)"/>
    <path id="패스_192" data-name="패스 192" d="M125.641,272.868l.075,4.394a.061.061,0,0,1-.057.061l-1.932.093a.061.061,0,0,1-.063-.055l-.445-4.37a.061.061,0,0,1,.059-.067l2.3-.115a.061.061,0,0,1,.065.059Z" transform="translate(-94.775 -213.267)" fill="#e0c198"/>
    <rect id="사각형_15" data-name="사각형 15" width="1.659" height="9.416" rx="0.83" transform="translate(72.809 59.53)"/>
    <path id="패스_193" data-name="패스 193" d="M205.341,277.267a18.126,18.126,0,0,0,.051-2.4.3.3,0,0,0-.342-.324q-1.78-.012-3.5.079a.807.807,0,1,1-.162-1.6,20.988,20.988,0,0,1,4.026-.032,1.525,1.525,0,0,1,1.588,1.475,16.878,16.878,0,0,1,0,2.812c-.057.7-.36,1.639-1.171,1.706a20.737,20.737,0,0,1-2.484.044,4.16,4.16,0,0,0-.836.053.146.146,0,0,0-.132.138,8.057,8.057,0,0,0,.006,1.758c.079.815.84.771,1.441.769q1.178,0,2.28-.067a.714.714,0,0,1,.805.524c.544,1.679-3.822,1.145-4.457,1.05a1.933,1.933,0,0,1-1.645-1.795,8.105,8.105,0,0,1-.018-2.962,1.3,1.3,0,0,1,1.4-1.04q1.56-.053,2.982-.034A.149.149,0,0,0,205.341,277.267Z" transform="translate(-156.511 -213.345)"/>
    <path id="패스_194" data-name="패스 194" d="M252.355,279.434q-.036,1.56-.1,2.974a.814.814,0,1,1-1.623-.034q.075-3.69.154-7.15a.821.821,0,1,1,1.639.02q.01,1.109-.01,2.258a.1.1,0,0,0,.115.115q1.178,0,2.422.016a.829.829,0,1,1-.109,1.653q-1.234.01-2.329,0A.137.137,0,0,0,252.355,279.434Z" transform="translate(-196.408 -214.504)"/>
    <path id="패스_195" data-name="패스 195" d="M295.355,280.384a3.178,3.178,0,0,1-2.961,3.382l-.626.042a3.178,3.178,0,0,1-3.382-2.961l-.043-.646a3.178,3.178,0,0,1,2.961-3.382l.626-.042a3.179,3.179,0,0,1,3.382,2.961Zm-4.657,1.453a1.966,1.966,0,1,0-.314-2.713,1.932,1.932,0,0,0,.314,2.713Z" transform="translate(-226.486 -216.427)"/>
    <path id="패스_196" data-name="패스 196" d="M391.274,279.27q.162.227.306.465a1.475,1.475,0,0,1,.184.512q.071.393.166.773l-2.476.014a.083.083,0,0,1-.083-.081l-.051-1.59a.055.055,0,0,1,.063-.065Z" transform="translate(-307.038 -218.421)" fill="#e0c198"/>
    <ellipse id="타원_8" data-name="타원 8" cx="1.965" cy="1.898" rx="1.965" ry="1.898" transform="translate(68.107 63.442) rotate(127.4)" fill="#e0c198"/>
    <path id="패스_197" data-name="패스 197" d="M392.571,295.78l.2,1.671-2.958.042a.046.046,0,0,1-.053-.049l-.061-1.574a.065.065,0,0,1,.063-.067Z" transform="translate(-307.342 -231.59)" fill="#e0c198"/>
    <path id="패스_198" data-name="패스 198" d="M144.7,311.665a.1.1,0,0,0,.115-.111l.059-1.651a.079.079,0,0,0-.089-.091l-2.822,0a.672.672,0,0,1-.761-.763v-.125a.563.563,0,0,1,.587-.627,33.588,33.588,0,0,1,3.579-.053,1.113,1.113,0,0,1,1.1,1.2,12.348,12.348,0,0,1-.212,2.861c-.172.8-1.224.821-1.876.807q-.951-.02-1.863-.032a.257.257,0,0,0-.3.281l-.028.769a.3.3,0,0,0,.346.36l3.783.008q.745,0,.607.734l-.022.119a.677.677,0,0,1-.7.607q-1.807.091-3.755.022c-.821-.028-1.776-.162-1.847-1.194-.04-.585-.322-3.116.666-3.122Q143.043,311.657,144.7,311.665Z" transform="translate(-108.596 -241.515)"/>
    <path id="패스_199" data-name="패스 199" d="M379.829,321.817c-1.967.016-3.876.105-5.794-.016a.807.807,0,0,1-.293-1.554,2,2,0,0,1,.726-.073q2.628.073,5.331.028,2.072-.051,4.475-.063c.55,0,.763.275.761.805a.717.717,0,0,1-.8.8Q381.834,321.8,379.829,321.817Z" transform="translate(-294.209 -251.022)"/>
    <path id="패스_200" data-name="패스 200" d="M334.01,384.552a28.407,28.407,0,0,0,.1,3.071c.152,1.663.86,1.942,2.432,1.795q1.882-.178,3.49-.322a1.017,1.017,0,0,1,1.2.741,1.035,1.035,0,0,1-.354.894,17.3,17.3,0,0,1-3.308.453,13.771,13.771,0,0,1-3.112-.091c-1.414-.275-1.853-1.489-2.015-2.762a24.852,24.852,0,0,1-.194-3.506,27.751,27.751,0,0,1,.35-5.145,1.815,1.815,0,0,1,.308-.86.877.877,0,0,1,1.445.178,3.824,3.824,0,0,1-.016,1.238Q334.089,382.547,334.01,384.552Z" transform="translate(-261.505 -297.593)" fill="#fff"/>
    <path id="패스_201" data-name="패스 201" d="M183.623,380.9c-.415.253-1.465.983-1.944.579-.811-.69.073-1.647.73-2.017.633-.356,3.041-1.4,3.029.152-.006.6.02,1.21-.018,1.8a86.712,86.712,0,0,0-.042,9.44.732.732,0,0,1-.079.364q-.265.516-.621.573a.7.7,0,0,1-.91-.656,20.479,20.479,0,0,1-.162-2.81q-.059-3.482.15-7.346Q183.764,380.817,183.623,380.9Z" transform="translate(-141.148 -297.806)" fill="#fff"/>
    <path id="패스_202" data-name="패스 202" d="M219.631,381.758c.641-1.671,2.179-3.28,4.139-3.047a3.255,3.255,0,0,1,1.963.947c1.744,1.734,1.969,4.5,1.623,6.931-.348,2.452-1.932,5.256-4.746,5.258-1.89,0-3.049-1.878-3.431-3.5A10.946,10.946,0,0,1,219.631,381.758Zm3.143,8.393c1.422.114,2.753-1.995,2.971-4.712s-.757-5.011-2.18-5.126-2.753,1.995-2.971,4.712.757,5.011,2.18,5.126Z" transform="translate(-171.074 -297.725)" fill="#fff"/>
    <path id="패스_203" data-name="패스 203" d="M282.942,379.815a7.492,7.492,0,0,1,1.6,5.155q-.077,1.1-.154,1.677a6.824,6.824,0,0,1-2.094,4.194,3.683,3.683,0,0,1-3.751.781c-1.993-.884-2.588-3.611-2.618-5.734a9.026,9.026,0,0,1,1.791-5.841A3.4,3.4,0,0,1,282.942,379.815Zm-.142,4.318a5.651,5.651,0,0,0-.981-3.075,1.578,1.578,0,0,0-2.5-.229,4.152,4.152,0,0,0-.894,1.222,8.676,8.676,0,0,0-.805,4.3,5.784,5.784,0,0,0,.925,3.008A1.575,1.575,0,0,0,280.6,390a4.067,4.067,0,0,0,1.752-2.4A9.126,9.126,0,0,0,282.8,384.132Z" transform="translate(-216.585 -297.734)" fill="#fff"/>
    <ellipse id="타원_9" data-name="타원 9" cx="4.935" cy="2.584" rx="4.935" ry="2.584" transform="matrix(-0.08, 0.997, -0.997, -0.08, 55.066, 82.796)" fill="#e0c198"/>
    <path id="패스_204" data-name="패스 204" d="M288.449,387.443a2.3,2.3,0,0,0-.322,1.946,2.945,2.945,0,0,0,.945,1.293.157.157,0,0,0,.136.04.262.262,0,0,0,.223-.2,9.127,9.127,0,0,1-.453,3.472,4.067,4.067,0,0,1-1.752,2.4,1.575,1.575,0,0,1-2.047-.647,5.784,5.784,0,0,1-.925-3.009,8.677,8.677,0,0,1,.805-4.3,4.151,4.151,0,0,1,.894-1.222A1.578,1.578,0,0,1,288.449,387.443Z" transform="translate(-223.215 -304.12)" fill="#e0c198"/>
    <path id="패스_205" data-name="패스 205" d="M303.488,390.35a5.65,5.65,0,0,1,.981,3.075.262.262,0,0,1-.223.2.157.157,0,0,1-.136-.04,2.945,2.945,0,0,1-.945-1.293A2.3,2.3,0,0,1,303.488,390.35Z" transform="translate(-238.254 -307.027)" fill="#bfa582"/>
    <path id="패스_206" data-name="패스 206" d="M348.2,403.925a1.017,1.017,0,0,0-1.2-.74q-1.608.144-3.49.322c-1.572.148-2.28-.132-2.432-1.795a28.407,28.407,0,0,1-.1-3.071q4.15-1.188,5.665-1.477,2.381-.455,4.645-.969.2-.047.123.148Z" transform="translate(-268.471 -311.682)" fill="#e0c198"/>
  </g>
</svg>
