<?xml version="1.0" encoding="UTF-8" standalone="no"?>
<!DOCTYPE svg PUBLIC "-//W3C//DTD SVG 1.1//EN" "http://www.w3.org/Graphics/SVG/1.1/DTD/svg11.dtd">
<svg xmlns="http://www.w3.org/2000/svg" version="1.1" viewBox="0.00 0.00 408.00 522.00">
<g stroke-width="2.00" fill="none" stroke-linecap="butt">
<path stroke="#808080" vector-effect="non-scaling-stroke" d="
  M 332.93 74.01
  L 64.85 74.46
  A 0.46 0.46 0.0 0 0 64.39 74.94
  C 64.86 87.97 68.17 99.56 72.99 112.05
  C 73.83 114.23 75.44 115.76 75.44 118.35
  Q 75.43 158.89 75.43 199.82
  C 75.43 202.54 75.00 205.28 75.00 208.01
  Q 75.06 304.47 74.86 406.57
  C 74.86 409.15 74.04 411.51 73.40 413.97
  C 71.07 422.88 67.00 431.21 65.31 440.30
  Q 64.25 445.94 63.58 451.99
  Q 63.35 454.02 63.46 456.00
  Q 63.50 456.55 64.04 456.55
  L 331.45 457.00"
/>
<path stroke="#474747" vector-effect="non-scaling-stroke" d="
  M 331.45 457.00
  L 349.26 457.08
  Q 349.78 457.09 349.76 456.57
  Q 348.99 433.62 341.69 413.80
  Q 340.73 411.20 340.73 408.37
  Q 340.67 362.58 340.99 315.50
  Q 341.00 314.00 341.00 312.50
  Q 341.09 212.85 341.33 118.86
  Q 341.33 117.82 342.39 116.59
  Q 343.36 115.46 343.81 114.10
  Q 350.11 95.12 350.75 74.54
  Q 350.77 73.98 350.21 73.98
  L 332.93 74.01"
/>
<path stroke="#c7c7c7" vector-effect="non-scaling-stroke" d="
  M 331.45 457.00
  Q 329.65 448.84 326.42 441.29
  C 325.10 438.21 324.27 435.06 323.06 431.98
  A 0.65 0.65 0.0 0 0 322.38 431.57
  C 314.63 432.47 306.88 432.45 299.16 433.01
  Q 285.76 433.98 272.05 435.12
  C 267.54 435.49 262.96 435.61 258.49 435.89
  Q 253.52 436.21 248.48 436.31
  Q 229.71 436.66 209.00 437.10
  C 200.52 437.28 190.70 436.68 182.67 436.58
  C 170.38 436.43 158.06 436.53 145.83 435.73
  Q 138.14 435.22 130.48 434.46
  Q 119.78 433.41 113.26 431.75
  Q 108.05 430.43 107.60 425.73"
/>
<path stroke="#474747" vector-effect="non-scaling-stroke" d="
  M 107.60 425.73
  Q 112.39 427.46 119.50 427.31
  Q 139.76 426.88 162.33 427.99
  C 167.88 428.27 173.37 428.20 178.93 428.68
  C 187.61 429.43 196.27 429.30 204.93 429.69
  C 215.78 430.19 229.25 429.27 241.33 429.25
  Q 257.92 429.24 275.75 428.40
  Q 285.09 427.96 293.75 427.48
  Q 306.19 426.79 318.53 424.95
  C 324.18 424.11 322.52 416.40 316.82 418.36
  Q 315.64 418.76 314.87 418.53"
/>
<path stroke="#c7c7c7" vector-effect="non-scaling-stroke" d="
  M 314.87 418.53
  C 314.41 415.78 313.83 413.27 313.84 410.47
  Q 313.88 335.84 314.01 261.42"
/>
<path stroke="#474747" vector-effect="non-scaling-stroke" d="
  M 314.01 261.42
  Q 315.68 260.39 315.28 258.25
  Q 315.08 257.16 313.95 256.34"
/>
<path stroke="#c7c7c7" vector-effect="non-scaling-stroke" d="
  M 313.95 256.34
  Q 314.29 178.54 314.12 132.00
  Q 314.09 124.12 314.62 118.84"
/>
<path stroke="#474747" vector-effect="non-scaling-stroke" d="
  M 314.62 118.84
  Q 316.28 118.71 321.11 119.52
  Q 323.89 119.99 325.12 116.88
  Q 325.20 116.67 325.20 116.45
  Q 325.19 113.13 322.16 112.72
  Q 298.97 109.63 273.75 106.85
  Q 272.42 106.71 271.03 106.55
  Q 266.98 106.09 263.18 105.89
  C 258.38 105.65 253.71 104.87 248.94 104.80
  C 241.80 104.70 234.68 103.76 227.48 103.75
  Q 210.83 103.73 193.82 103.77
  C 188.39 103.79 182.99 104.38 177.57 104.63
  Q 171.54 104.92 165.42 105.51
  C 142.89 107.67 124.82 110.32 97.92 114.29
  Q 96.34 114.53 95.59 115.58
  Q 93.22 118.90 97.52 120.77"
/>
<path stroke="#c7c7c7" vector-effect="non-scaling-stroke" d="
  M 97.52 120.77
  C 94.33 121.41 92.34 118.74 93.64 115.97
  Q 95.30 112.45 98.92 111.35
  Q 117.65 105.69 138.92 102.47
  C 163.26 98.79 188.41 96.10 210.90 95.83
  Q 228.25 95.62 246.92 96.92
  Q 285.46 99.59 319.80 105.10
  Q 320.44 105.20 320.77 104.65
  Q 323.24 100.53 325.81 96.14
  Q 327.61 93.07 329.42 86.47
  Q 331.14 80.22 332.93 74.01"
/>
<path stroke="#474747" vector-effect="non-scaling-stroke" d="
  M 107.95 119.49
  Q 104.42 119.14 100.81 120.43"
/>
<path stroke="#808080" vector-effect="non-scaling-stroke" d="
  M 97.52 120.77
  L 100.81 120.43"
/>
<path stroke="#c7c7c7" vector-effect="non-scaling-stroke" d="
  M 100.81 120.43
  Q 104.58 120.69 107.95 119.49"
/>
<path stroke="#808080" vector-effect="non-scaling-stroke" d="
  M 107.95 119.49
  Q 147.51 113.07 187.50 111.03
  Q 213.35 109.71 236.66 111.20
  C 241.00 111.47 245.03 111.43 249.13 111.74
  Q 281.88 114.22 314.62 118.84"
/>
<path stroke="#808080" vector-effect="non-scaling-stroke" d="
  M 313.95 256.34
  Q 297.37 256.65 279.45 256.53
  Q 278.11 256.52 277.48 258.52
  Q 277.27 259.18 277.69 259.81
  Q 279.04 261.84 281.49 261.81
  L 314.01 261.42"
/>
<path stroke="#808080" vector-effect="non-scaling-stroke" d="
  M 314.87 418.53
  Q 304.45 419.79 301.25 419.98
  Q 290.47 420.65 279.86 421.36
  C 275.66 421.64 271.51 421.37 267.40 421.67
  Q 262.72 422.02 258.08 422.02
  C 250.72 422.03 243.36 422.51 236.11 422.53
  Q 215.55 422.59 194.99 422.51
  C 188.74 422.48 182.23 421.76 175.99 421.64
  C 169.33 421.51 163.53 421.03 157.33 421.02
  Q 142.36 420.99 128.01 421.00
  C 123.55 421.00 116.84 420.30 110.99 420.71
  Q 106.74 421.01 107.60 425.73"
/>
<path stroke="#808080" vector-effect="non-scaling-stroke" d="
  M 142.82 230.88
  L 133.57 231.02
  A 2.17 2.17 0.0 0 0 131.49 233.69
  L 131.64 234.30
  Q 132.13 236.36 134.25 236.35
  L 142.96 236.28
  Q 143.64 236.27 143.64 236.96
  L 143.65 243.69
  Q 143.65 245.78 145.69 246.22
  L 146.19 246.32
  A 2.58 2.58 0.0 0 0 149.32 243.78
  L 149.17 222.17
  Q 149.15 219.45 146.44 219.24
  Q 145.97 219.20 145.51 219.32
  Q 143.50 219.84 143.50 221.91
  L 143.50 230.18
  Q 143.50 230.87 142.82 230.88"
/>
<path stroke="#808080" vector-effect="non-scaling-stroke" d="
  M 109.06 244.26
  A 4.50 4.35 57.9 0 0 110.84 244.70
  Q 117.84 244.98 124.30 244.43
  Q 128.61 244.06 128.74 239.34
  Q 128.96 231.45 128.64 224.82
  Q 128.50 221.77 125.44 221.79
  L 109.95 221.89
  Q 106.18 221.91 106.25 225.68
  Q 106.41 233.93 107.05 241.27
  Q 107.23 243.38 109.06 244.26"
/>
<path stroke="#808080" vector-effect="non-scaling-stroke" d="
  M 288.02 243.31
  L 287.62 231.74
  Q 287.60 231.08 288.26 231.07
  L 305.34 230.84
  Q 307.84 230.81 308.07 228.31
  Q 308.13 227.57 307.80 226.83
  A 1.97 1.96 -12.6 0 0 305.98 225.68
  L 285.25 226.00
  A 2.99 2.98 -0.8 0 0 282.31 229.01
  Q 282.39 236.96 283.02 245.01
  Q 283.34 249.13 287.58 249.10
  Q 297.02 249.03 305.63 248.97
  A 2.64 2.64 0.0 0 0 308.24 246.05
  Q 308.22 245.87 308.19 245.69
  Q 307.91 243.78 305.98 243.81
  L 288.81 244.06
  Q 288.05 244.07 288.02 243.31"
/>
<path stroke="#808080" vector-effect="non-scaling-stroke" d="
  M 244.59 232.21
  Q 246.27 232.42 247.88 231.89
  Q 249.34 231.41 249.29 229.87
  Q 249.28 229.63 249.24 229.40
  Q 248.86 227.04 246.48 227.15
  Q 233.22 227.78 222.62 228.02
  Q 220.69 228.07 219.39 229.38
  A 1.23 1.22 -22.2 0 0 219.03 230.22
  Q 218.94 233.50 223.04 233.12
  Q 224.25 233.01 224.39 234.22
  L 226.58 252.37
  Q 226.70 253.39 225.70 253.20
  Q 222.81 252.66 222.07 255.15
  C 221.01 258.74 226.01 258.48 228.08 258.30
  Q 236.87 257.53 245.25 257.29
  C 250.84 257.12 250.53 251.02 244.74 252.06
  Q 244.05 252.18 244.04 251.48
  L 243.76 232.96
  Q 243.74 232.11 244.59 232.21"
/>
<path stroke="#808080" vector-effect="non-scaling-stroke" d="
  M 205.2232 230.5342
  A 2.63 2.63 0.0 0 0 202.6535 227.8453
  L 202.5135 227.8421
  A 2.63 2.63 0.0 0 0 199.8245 230.4117
  L 199.2968 253.6658
  A 2.63 2.63 0.0 0 0 201.8665 256.3547
  L 202.0065 256.3579
  A 2.63 2.63 0.0 0 0 204.6955 253.7883
  L 205.2232 230.5342"
/>
<path stroke="#808080" vector-effect="non-scaling-stroke" d="
  M 262.6634 230.5443
  A 2.63 2.63 0.0 0 0 260.0937 227.8553
  L 259.9538 227.8521
  A 2.63 2.63 0.0 0 0 257.2648 230.4217
  L 256.7366 253.6957
  A 2.63 2.63 0.0 0 0 259.3063 256.3847
  L 259.4462 256.3879
  A 2.63 2.63 0.0 0 0 262.1352 253.8183
  L 262.6634 230.5443"
/>
<path stroke="#808080" vector-effect="non-scaling-stroke" d="
  M 169.30 245.61
  L 186.16 245.49
  Q 188.11 245.47 188.64 243.60
  Q 188.75 243.20 188.72 242.80
  Q 188.56 240.31 186.06 240.33
  L 169.33 240.50
  Q 168.90 240.51 168.89 240.08
  L 168.73 234.80
  Q 168.71 234.32 169.20 234.32
  L 185.17 234.11
  Q 187.70 234.08 187.99 231.57
  Q 188.11 230.50 187.23 229.57
  A 2.07 2.07 0.0 0 0 185.71 228.93
  L 166.48 229.26
  A 3.09 3.09 0.0 0 0 163.44 232.44
  Q 163.74 242.30 164.09 253.17
  Q 164.23 257.48 168.58 257.55
  Q 177.89 257.71 185.66 257.41
  A 2.50 2.50 0.0 0 0 188.06 255.07
  Q 188.07 254.89 188.06 254.72
  Q 188.03 252.17 185.49 252.23
  L 169.51 252.58
  Q 169.18 252.59 169.17 252.26
  L 168.97 245.95
  Q 168.96 245.61 169.30 245.61"
/>
<path stroke="#808080" vector-effect="non-scaling-stroke" d="
  M 138.48 260.28
  C 135.12 260.27 131.69 260.43 128.39 260.24
  C 124.07 260.00 125.25 268.61 125.68 271.35
  C 126.07 273.79 129.55 274.21 131.52 274.25
  Q 137.59 274.34 143.40 274.21
  Q 145.39 274.16 145.79 272.21
  L 145.85 271.93
  Q 146.35 269.47 143.85 269.47
  L 131.82 269.44
  A 1.20 1.20 0.0 0 1 130.62 268.19
  L 130.72 265.70
  Q 130.75 264.90 131.55 264.92
  C 134.00 264.97 142.19 265.86 143.41 263.11
  C 144.54 260.57 144.40 256.38 144.40 253.55
  Q 144.41 249.37 140.21 249.26
  Q 134.17 249.10 129.41 249.50
  A 2.10 2.09 -3.1 0 0 127.49 251.63
  Q 127.50 251.86 127.53 252.09
  Q 127.82 254.34 130.10 254.35
  L 138.83 254.37
  Q 139.29 254.38 139.27 254.83
  L 139.06 259.73
  Q 139.04 260.29 138.48 260.28"
/>
<path stroke="#808080" vector-effect="non-scaling-stroke" d="
  M 111.59 227.68
  L 111.87 239.30
  A 0.61 0.61 0.0 0 0 112.50 239.89
  L 122.12 239.66
  A 1.95 1.31 -1.4 0 0 124.03 238.30
  L 123.78 228.08
  A 1.95 1.31 -1.4 0 0 121.80 226.82
  L 112.18 227.06
  A 0.61 0.61 0.0 0 0 111.59 227.68"
/>
<path stroke="#808080" vector-effect="non-scaling-stroke" d="
  M 238.57 233.00
  A 0.40 0.40 0.0 0 0 238.15 232.61
  L 229.87 233.03
  A 0.40 0.40 0.0 0 0 229.49 233.48
  L 231.79 252.43
  A 0.40 0.40 0.0 0 0 232.22 252.78
  L 238.54 252.37
  A 0.40 0.40 0.0 0 0 238.91 251.97
  L 238.57 233.00"
/>
</g>
<path fill="#000000" d="
  M 66.32 112.97
  Q 59.30 96.39 57.57 78.00
  Q 57.47 76.97 57.65 75.97
  C 57.82 75.01 57.41 74.38 57.51 73.40
  Q 57.83 70.44 58.76 67.96
  A 1.19 1.18 10.4 0 1 59.87 67.20
  L 353.72 66.94
  A 2.88 2.87 -7.5 0 1 356.50 69.07
  C 357.35 72.24 357.61 74.98 357.14 78.13
  Q 356.93 79.56 356.95 81.06
  Q 356.96 82.48 356.83 83.93
  C 355.81 95.05 353.24 106.61 349.36 117.60
  Q 348.41 120.27 348.41 124.02
  Q 348.43 161.76 348.23 204.50
  Q 348.23 206.02 348.22 207.50
  Q 348.09 305.35 347.82 408.79
  Q 347.82 411.87 348.70 414.41
  Q 355.61 434.34 356.36 455.79
  C 356.44 457.95 355.79 459.88 355.43 461.95
  A 2.55 2.55 0.0 0 1 352.92 464.06
  L 58.56 463.80
  Q 58.13 463.80 57.95 463.40
  Q 56.36 459.77 56.61 456.28
  C 56.70 455.06 56.43 454.05 56.57 452.84
  Q 57.80 442.34 58.53 439.25
  Q 61.03 428.64 65.06 418.51
  Q 65.84 416.55 66.41 414.44
  C 66.93 412.55 67.52 410.82 67.52 408.81
  Q 67.51 361.15 67.51 313.50
  C 67.51 312.89 68.01 312.05 68.01 311.32
  Q 67.96 212.81 68.10 120.37
  C 68.11 118.31 67.32 116.91 66.94 115.00
  Q 66.74 113.98 66.32 112.97
  Z
  M 332.93 74.01
  L 64.85 74.46
  A 0.46 0.46 0.0 0 0 64.39 74.94
  C 64.86 87.97 68.17 99.56 72.99 112.05
  C 73.83 114.23 75.44 115.76 75.44 118.35
  Q 75.43 158.89 75.43 199.82
  C 75.43 202.54 75.00 205.28 75.00 208.01
  Q 75.06 304.47 74.86 406.57
  C 74.86 409.15 74.04 411.51 73.40 413.97
  C 71.07 422.88 67.00 431.21 65.31 440.30
  Q 64.25 445.94 63.58 451.99
  Q 63.35 454.02 63.46 456.00
  Q 63.50 456.55 64.04 456.55
  L 331.45 457.00
  L 349.26 457.08
  Q 349.78 457.09 349.76 456.57
  Q 348.99 433.62 341.69 413.80
  Q 340.73 411.20 340.73 408.37
  Q 340.67 362.58 340.99 315.50
  Q 341.00 314.00 341.00 312.50
  Q 341.09 212.85 341.33 118.86
  Q 341.33 117.82 342.39 116.59
  Q 343.36 115.46 343.81 114.10
  Q 350.11 95.12 350.75 74.54
  Q 350.77 73.98 350.21 73.98
  L 332.93 74.01
  Z"
/>
<path fill="#8e8e8e" d="
  M 331.45 457.00
  Q 329.65 448.84 326.42 441.29
  C 325.10 438.21 324.27 435.06 323.06 431.98
  A 0.65 0.65 0.0 0 0 322.38 431.57
  C 314.63 432.47 306.88 432.45 299.16 433.01
  Q 285.76 433.98 272.05 435.12
  C 267.54 435.49 262.96 435.61 258.49 435.89
  Q 253.52 436.21 248.48 436.31
  Q 229.71 436.66 209.00 437.10
  C 200.52 437.28 190.70 436.68 182.67 436.58
  C 170.38 436.43 158.06 436.53 145.83 435.73
  Q 138.14 435.22 130.48 434.46
  Q 119.78 433.41 113.26 431.75
  Q 108.05 430.43 107.60 425.73
  Q 112.39 427.46 119.50 427.31
  Q 139.76 426.88 162.33 427.99
  C 167.88 428.27 173.37 428.20 178.93 428.68
  C 187.61 429.43 196.27 429.30 204.93 429.69
  C 215.78 430.19 229.25 429.27 241.33 429.25
  Q 257.92 429.24 275.75 428.40
  Q 285.09 427.96 293.75 427.48
  Q 306.19 426.79 318.53 424.95
  C 324.18 424.11 322.52 416.40 316.82 418.36
  Q 315.64 418.76 314.87 418.53
  C 314.41 415.78 313.83 413.27 313.84 410.47
  Q 313.88 335.84 314.01 261.42
  Q 315.68 260.39 315.28 258.25
  Q 315.08 257.16 313.95 256.34
  Q 314.29 178.54 314.12 132.00
  Q 314.09 124.12 314.62 118.84
  Q 316.28 118.71 321.11 119.52
  Q 323.89 119.99 325.12 116.88
  Q 325.20 116.67 325.20 116.45
  Q 325.19 113.13 322.16 112.72
  Q 298.97 109.63 273.75 106.85
  Q 272.42 106.71 271.03 106.55
  Q 266.98 106.09 263.18 105.89
  C 258.38 105.65 253.71 104.87 248.94 104.80
  C 241.80 104.70 234.68 103.76 227.48 103.75
  Q 210.83 103.73 193.82 103.77
  C 188.39 103.79 182.99 104.38 177.57 104.63
  Q 171.54 104.92 165.42 105.51
  C 142.89 107.67 124.82 110.32 97.92 114.29
  Q 96.34 114.53 95.59 115.58
  Q 93.22 118.90 97.52 120.77
  C 94.33 121.41 92.34 118.74 93.64 115.97
  Q 95.30 112.45 98.92 111.35
  Q 117.65 105.69 138.92 102.47
  C 163.26 98.79 188.41 96.10 210.90 95.83
  Q 228.25 95.62 246.92 96.92
  Q 285.46 99.59 319.80 105.10
  Q 320.44 105.20 320.77 104.65
  Q 323.24 100.53 325.81 96.14
  Q 327.61 93.07 329.42 86.47
  Q 331.14 80.22 332.93 74.01
  L 350.21 73.98
  Q 350.77 73.98 350.75 74.54
  Q 350.11 95.12 343.81 114.10
  Q 343.36 115.46 342.39 116.59
  Q 341.33 117.82 341.33 118.86
  Q 341.09 212.85 341.00 312.50
  Q 341.00 314.00 340.99 315.50
  Q 340.67 362.58 340.73 408.37
  Q 340.73 411.20 341.69 413.80
  Q 348.99 433.62 349.76 456.57
  Q 349.78 457.09 349.26 457.08
  L 331.45 457.00
  Z"
/>
<path fill="#ffffff" d="
  M 332.93 74.01
  Q 331.14 80.22 329.42 86.47
  Q 327.61 93.07 325.81 96.14
  Q 323.24 100.53 320.77 104.65
  Q 320.44 105.20 319.80 105.10
  Q 285.46 99.59 246.92 96.92
  Q 228.25 95.62 210.90 95.83
  C 188.41 96.10 163.26 98.79 138.92 102.47
  Q 117.65 105.69 98.92 111.35
  Q 95.30 112.45 93.64 115.97
  C 92.34 118.74 94.33 121.41 97.52 120.77
  L 100.81 120.43
  Q 104.58 120.69 107.95 119.49
  Q 147.51 113.07 187.50 111.03
  Q 213.35 109.71 236.66 111.20
  C 241.00 111.47 245.03 111.43 249.13 111.74
  Q 281.88 114.22 314.62 118.84
  Q 314.09 124.12 314.12 132.00
  Q 314.29 178.54 313.95 256.34
  Q 297.37 256.65 279.45 256.53
  Q 278.11 256.52 277.48 258.52
  Q 277.27 259.18 277.69 259.81
  Q 279.04 261.84 281.49 261.81
  L 314.01 261.42
  Q 313.88 335.84 313.84 410.47
  C 313.83 413.27 314.41 415.78 314.87 418.53
  Q 304.45 419.79 301.25 419.98
  Q 290.47 420.65 279.86 421.36
  C 275.66 421.64 271.51 421.37 267.40 421.67
  Q 262.72 422.02 258.08 422.02
  C 250.72 422.03 243.36 422.51 236.11 422.53
  Q 215.55 422.59 194.99 422.51
  C 188.74 422.48 182.23 421.76 175.99 421.64
  C 169.33 421.51 163.53 421.03 157.33 421.02
  Q 142.36 420.99 128.01 421.00
  C 123.55 421.00 116.84 420.30 110.99 420.71
  Q 106.74 421.01 107.60 425.73
  Q 108.05 430.43 113.26 431.75
  Q 119.78 433.41 130.48 434.46
  Q 138.14 435.22 145.83 435.73
  C 158.06 436.53 170.38 436.43 182.67 436.58
  C 190.70 436.68 200.52 437.28 209.00 437.10
  Q 229.71 436.66 248.48 436.31
  Q 253.52 436.21 258.49 435.89
  C 262.96 435.61 267.54 435.49 272.05 435.12
  Q 285.76 433.98 299.16 433.01
  C 306.88 432.45 314.63 432.47 322.38 431.57
  A 0.65 0.65 0.0 0 1 323.06 431.98
  C 324.27 435.06 325.10 438.21 326.42 441.29
  Q 329.65 448.84 331.45 457.00
  L 64.04 456.55
  Q 63.50 456.55 63.46 456.00
  Q 63.35 454.02 63.58 451.99
  Q 64.25 445.94 65.31 440.30
  C 67.00 431.21 71.07 422.88 73.40 413.97
  C 74.04 411.51 74.86 409.15 74.86 406.57
  Q 75.06 304.47 75.00 208.01
  C 75.00 205.28 75.43 202.54 75.43 199.82
  Q 75.43 158.89 75.44 118.35
  C 75.44 115.76 73.83 114.23 72.99 112.05
  C 68.17 99.56 64.86 87.97 64.39 74.94
  A 0.46 0.46 0.0 0 1 64.85 74.46
  L 332.93 74.01
  Z
  M 142.82 230.88
  L 133.57 231.02
  A 2.17 2.17 0.0 0 0 131.49 233.69
  L 131.64 234.30
  Q 132.13 236.36 134.25 236.35
  L 142.96 236.28
  Q 143.64 236.27 143.64 236.96
  L 143.65 243.69
  Q 143.65 245.78 145.69 246.22
  L 146.19 246.32
  A 2.58 2.58 0.0 0 0 149.32 243.78
  L 149.17 222.17
  Q 149.15 219.45 146.44 219.24
  Q 145.97 219.20 145.51 219.32
  Q 143.50 219.84 143.50 221.91
  L 143.50 230.18
  Q 143.50 230.87 142.82 230.88
  Z
  M 109.06 244.26
  A 4.50 4.35 57.9 0 0 110.84 244.70
  Q 117.84 244.98 124.30 244.43
  Q 128.61 244.06 128.74 239.34
  Q 128.96 231.45 128.64 224.82
  Q 128.50 221.77 125.44 221.79
  L 109.95 221.89
  Q 106.18 221.91 106.25 225.68
  Q 106.41 233.93 107.05 241.27
  Q 107.23 243.38 109.06 244.26
  Z
  M 288.02 243.31
  L 287.62 231.74
  Q 287.60 231.08 288.26 231.07
  L 305.34 230.84
  Q 307.84 230.81 308.07 228.31
  Q 308.13 227.57 307.80 226.83
  A 1.97 1.96 -12.6 0 0 305.98 225.68
  L 285.25 226.00
  A 2.99 2.98 -0.8 0 0 282.31 229.01
  Q 282.39 236.96 283.02 245.01
  Q 283.34 249.13 287.58 249.10
  Q 297.02 249.03 305.63 248.97
  A 2.64 2.64 0.0 0 0 308.24 246.05
  Q 308.22 245.87 308.19 245.69
  Q 307.91 243.78 305.98 243.81
  L 288.81 244.06
  Q 288.05 244.07 288.02 243.31
  Z
  M 244.59 232.21
  Q 246.27 232.42 247.88 231.89
  Q 249.34 231.41 249.29 229.87
  Q 249.28 229.63 249.24 229.40
  Q 248.86 227.04 246.48 227.15
  Q 233.22 227.78 222.62 228.02
  Q 220.69 228.07 219.39 229.38
  A 1.23 1.22 -22.2 0 0 219.03 230.22
  Q 218.94 233.50 223.04 233.12
  Q 224.25 233.01 224.39 234.22
  L 226.58 252.37
  Q 226.70 253.39 225.70 253.20
  Q 222.81 252.66 222.07 255.15
  C 221.01 258.74 226.01 258.48 228.08 258.30
  Q 236.87 257.53 245.25 257.29
  C 250.84 257.12 250.53 251.02 244.74 252.06
  Q 244.05 252.18 244.04 251.48
  L 243.76 232.96
  Q 243.74 232.11 244.59 232.21
  Z
  M 205.2232 230.5342
  A 2.63 2.63 0.0 0 0 202.6535 227.8453
  L 202.5135 227.8421
  A 2.63 2.63 0.0 0 0 199.8245 230.4117
  L 199.2968 253.6658
  A 2.63 2.63 0.0 0 0 201.8665 256.3547
  L 202.0065 256.3579
  A 2.63 2.63 0.0 0 0 204.6955 253.7883
  L 205.2232 230.5342
  Z
  M 262.6634 230.5443
  A 2.63 2.63 0.0 0 0 260.0937 227.8553
  L 259.9538 227.8521
  A 2.63 2.63 0.0 0 0 257.2648 230.4217
  L 256.7366 253.6957
  A 2.63 2.63 0.0 0 0 259.3063 256.3847
  L 259.4462 256.3879
  A 2.63 2.63 0.0 0 0 262.1352 253.8183
  L 262.6634 230.5443
  Z
  M 169.30 245.61
  L 186.16 245.49
  Q 188.11 245.47 188.64 243.60
  Q 188.75 243.20 188.72 242.80
  Q 188.56 240.31 186.06 240.33
  L 169.33 240.50
  Q 168.90 240.51 168.89 240.08
  L 168.73 234.80
  Q 168.71 234.32 169.20 234.32
  L 185.17 234.11
  Q 187.70 234.08 187.99 231.57
  Q 188.11 230.50 187.23 229.57
  A 2.07 2.07 0.0 0 0 185.71 228.93
  L 166.48 229.26
  A 3.09 3.09 0.0 0 0 163.44 232.44
  Q 163.74 242.30 164.09 253.17
  Q 164.23 257.48 168.58 257.55
  Q 177.89 257.71 185.66 257.41
  A 2.50 2.50 0.0 0 0 188.06 255.07
  Q 188.07 254.89 188.06 254.72
  Q 188.03 252.17 185.49 252.23
  L 169.51 252.58
  Q 169.18 252.59 169.17 252.26
  L 168.97 245.95
  Q 168.96 245.61 169.30 245.61
  Z
  M 138.48 260.28
  C 135.12 260.27 131.69 260.43 128.39 260.24
  C 124.07 260.00 125.25 268.61 125.68 271.35
  C 126.07 273.79 129.55 274.21 131.52 274.25
  Q 137.59 274.34 143.40 274.21
  Q 145.39 274.16 145.79 272.21
  L 145.85 271.93
  Q 146.35 269.47 143.85 269.47
  L 131.82 269.44
  A 1.20 1.20 0.0 0 1 130.62 268.19
  L 130.72 265.70
  Q 130.75 264.90 131.55 264.92
  C 134.00 264.97 142.19 265.86 143.41 263.11
  C 144.54 260.57 144.40 256.38 144.40 253.55
  Q 144.41 249.37 140.21 249.26
  Q 134.17 249.10 129.41 249.50
  A 2.10 2.09 -3.1 0 0 127.49 251.63
  Q 127.50 251.86 127.53 252.09
  Q 127.82 254.34 130.10 254.35
  L 138.83 254.37
  Q 139.29 254.38 139.27 254.83
  L 139.06 259.73
  Q 139.04 260.29 138.48 260.28
  Z"
/>
<path fill="#000000" d="
  M 314.62 118.84
  Q 281.88 114.22 249.13 111.74
  C 245.03 111.43 241.00 111.47 236.66 111.20
  Q 213.35 109.71 187.50 111.03
  Q 147.51 113.07 107.95 119.49
  Q 104.42 119.14 100.81 120.43
  L 97.52 120.77
  Q 93.22 118.90 95.59 115.58
  Q 96.34 114.53 97.92 114.29
  C 124.82 110.32 142.89 107.67 165.42 105.51
  Q 171.54 104.92 177.57 104.63
  C 182.99 104.38 188.39 103.79 193.82 103.77
  Q 210.83 103.73 227.48 103.75
  C 234.68 103.76 241.80 104.70 248.94 104.80
  C 253.71 104.87 258.38 105.65 263.18 105.89
  Q 266.98 106.09 271.03 106.55
  Q 272.42 106.71 273.75 106.85
  Q 298.97 109.63 322.16 112.72
  Q 325.19 113.13 325.20 116.45
  Q 325.20 116.67 325.12 116.88
  Q 323.89 119.99 321.11 119.52
  Q 316.28 118.71 314.62 118.84
  Z"
/>
<path fill="#8e8e8e" d="
  M 107.95 119.49
  Q 104.58 120.69 100.81 120.43
  Q 104.42 119.14 107.95 119.49
  Z"
/>
<path fill="#000000" d="
  M 143.50 230.18
  L 143.50 221.91
  Q 143.50 219.84 145.51 219.32
  Q 145.97 219.20 146.44 219.24
  Q 149.15 219.45 149.17 222.17
  L 149.32 243.78
  A 2.58 2.58 0.0 0 1 146.19 246.32
  L 145.69 246.22
  Q 143.65 245.78 143.65 243.69
  L 143.64 236.96
  Q 143.64 236.27 142.96 236.28
  L 134.25 236.35
  Q 132.13 236.36 131.64 234.30
  L 131.49 233.69
  A 2.17 2.17 0.0 0 1 133.57 231.02
  L 142.82 230.88
  Q 143.50 230.87 143.50 230.18
  Z"
/>
<path fill="#000000" d="
  M 109.06 244.26
  Q 107.23 243.38 107.05 241.27
  Q 106.41 233.93 106.25 225.68
  Q 106.18 221.91 109.95 221.89
  L 125.44 221.79
  Q 128.50 221.77 128.64 224.82
  Q 128.96 231.45 128.74 239.34
  Q 128.61 244.06 124.30 244.43
  Q 117.84 244.98 110.84 244.70
  A 4.50 4.35 57.9 0 1 109.06 244.26
  Z
  M 111.59 227.68
  L 111.87 239.30
  A 0.61 0.61 0.0 0 0 112.50 239.89
  L 122.12 239.66
  A 1.95 1.31 -1.4 0 0 124.03 238.30
  L 123.78 228.08
  A 1.95 1.31 -1.4 0 0 121.80 226.82
  L 112.18 227.06
  A 0.61 0.61 0.0 0 0 111.59 227.68
  Z"
/>
<path fill="#000000" d="
  M 288.81 244.06
  L 305.98 243.81
  Q 307.91 243.78 308.19 245.69
  Q 308.22 245.87 308.24 246.05
  A 2.64 2.64 0.0 0 1 305.63 248.97
  Q 297.02 249.03 287.58 249.10
  Q 283.34 249.13 283.02 245.01
  Q 282.39 236.96 282.31 229.01
  A 2.99 2.98 -0.8 0 1 285.25 226.00
  L 305.98 225.68
  A 1.97 1.96 -12.6 0 1 307.80 226.83
  Q 308.13 227.57 308.07 228.31
  Q 307.84 230.81 305.34 230.84
  L 288.26 231.07
  Q 287.60 231.08 287.62 231.74
  L 288.02 243.31
  Q 288.05 244.07 288.81 244.06
  Z"
/>
<path fill="#ffffff" d="
  M 111.59 227.68
  A 0.61 0.61 0.0 0 1 112.18 227.06
  L 121.80 226.82
  A 1.95 1.31 -1.4 0 1 123.78 228.08
  L 124.03 238.30
  A 1.95 1.31 -1.4 0 1 122.12 239.66
  L 112.50 239.89
  A 0.61 0.61 0.0 0 1 111.87 239.30
  L 111.59 227.68
  Z"
/>
<path fill="#000000" d="
  M 243.76 232.96
  L 244.04 251.48
  Q 244.05 252.18 244.74 252.06
  C 250.53 251.02 250.84 257.12 245.25 257.29
  Q 236.87 257.53 228.08 258.30
  C 226.01 258.48 221.01 258.74 222.07 255.15
  Q 222.81 252.66 225.70 253.20
  Q 226.70 253.39 226.58 252.37
  L 224.39 234.22
  Q 224.25 233.01 223.04 233.12
  Q 218.94 233.50 219.03 230.22
  A 1.23 1.22 -22.2 0 1 219.39 229.38
  Q 220.69 228.07 222.62 228.02
  Q 233.22 227.78 246.48 227.15
  Q 248.86 227.04 249.24 229.40
  Q 249.28 229.63 249.29 229.87
  Q 249.34 231.41 247.88 231.89
  Q 246.27 232.42 244.59 232.21
  Q 243.74 232.11 243.76 232.96
  Z
  M 238.57 233.00
  A 0.40 0.40 0.0 0 0 238.15 232.61
  L 229.87 233.03
  A 0.40 0.40 0.0 0 0 229.49 233.48
  L 231.79 252.43
  A 0.40 0.40 0.0 0 0 232.22 252.78
  L 238.54 252.37
  A 0.40 0.40 0.0 0 0 238.91 251.97
  L 238.57 233.00
  Z"
/>
<rect fill="#000000" x="-2.70" y="-14.26" transform="translate(202.26,242.10) rotate(1.3)" width="5.40" height="28.52" rx="2.63"/>
<rect fill="#000000" x="-2.70" y="-14.27" transform="translate(259.70,242.12) rotate(1.3)" width="5.40" height="28.54" rx="2.63"/>
<path fill="#000000" d="
  M 169.30 245.61
  Q 168.96 245.61 168.97 245.95
  L 169.17 252.26
  Q 169.18 252.59 169.51 252.58
  L 185.49 252.23
  Q 188.03 252.17 188.06 254.72
  Q 188.07 254.89 188.06 255.07
  A 2.50 2.50 0.0 0 1 185.66 257.41
  Q 177.89 257.71 168.58 257.55
  Q 164.23 257.48 164.09 253.17
  Q 163.74 242.30 163.44 232.44
  A 3.09 3.09 0.0 0 1 166.48 229.26
  L 185.71 228.93
  A 2.07 2.07 0.0 0 1 187.23 229.57
  Q 188.11 230.50 187.99 231.57
  Q 187.70 234.08 185.17 234.11
  L 169.20 234.32
  Q 168.71 234.32 168.73 234.80
  L 168.89 240.08
  Q 168.90 240.51 169.33 240.50
  L 186.06 240.33
  Q 188.56 240.31 188.72 242.80
  Q 188.75 243.20 188.64 243.60
  Q 188.11 245.47 186.16 245.49
  L 169.30 245.61
  Z"
/>
<path fill="#ffffff" d="
  M 238.57 233.00
  L 238.91 251.97
  A 0.40 0.40 0.0 0 1 238.54 252.37
  L 232.22 252.78
  A 0.40 0.40 0.0 0 1 231.79 252.43
  L 229.49 233.48
  A 0.40 0.40 0.0 0 1 229.87 233.03
  L 238.15 232.61
  A 0.40 0.40 0.0 0 1 238.57 233.00
  Z"
/>
<path fill="#000000" d="
  M 138.48 260.28
  Q 139.04 260.29 139.06 259.73
  L 139.27 254.83
  Q 139.29 254.38 138.83 254.37
  L 130.10 254.35
  Q 127.82 254.34 127.53 252.09
  Q 127.50 251.86 127.49 251.63
  A 2.10 2.09 -3.1 0 1 129.41 249.50
  Q 134.17 249.10 140.21 249.26
  Q 144.41 249.37 144.40 253.55
  C 144.40 256.38 144.54 260.57 143.41 263.11
  C 142.19 265.86 134.00 264.97 131.55 264.92
  Q 130.75 264.90 130.72 265.70
  L 130.62 268.19
  A 1.20 1.20 0.0 0 0 131.82 269.44
  L 143.85 269.47
  Q 146.35 269.47 145.85 271.93
  L 145.79 272.21
  Q 145.39 274.16 143.40 274.21
  Q 137.59 274.34 131.52 274.25
  C 129.55 274.21 126.07 273.79 125.68 271.35
  C 125.25 268.61 124.07 260.00 128.39 260.24
  C 131.69 260.43 135.12 260.27 138.48 260.28
  Z"
/>
<path fill="#000000" d="
  M 313.95 256.34
  Q 315.08 257.16 315.28 258.25
  Q 315.68 260.39 314.01 261.42
  L 281.49 261.81
  Q 279.04 261.84 277.69 259.81
  Q 277.27 259.18 277.48 258.52
  Q 278.11 256.52 279.45 256.53
  Q 297.37 256.65 313.95 256.34
  Z"
/>
<path fill="#000000" d="
  M 107.60 425.73
  Q 106.74 421.01 110.99 420.71
  C 116.84 420.30 123.55 421.00 128.01 421.00
  Q 142.36 420.99 157.33 421.02
  C 163.53 421.03 169.33 421.51 175.99 421.64
  C 182.23 421.76 188.74 422.48 194.99 422.51
  Q 215.55 422.59 236.11 422.53
  C 243.36 422.51 250.72 422.03 258.08 422.02
  Q 262.72 422.02 267.40 421.67
  C 271.51 421.37 275.66 421.64 279.86 421.36
  Q 290.47 420.65 301.25 419.98
  Q 304.45 419.79 314.87 418.53
  Q 315.64 418.76 316.82 418.36
  C 322.52 416.40 324.18 424.11 318.53 424.95
  Q 306.19 426.79 293.75 427.48
  Q 285.09 427.96 275.75 428.40
  Q 257.92 429.24 241.33 429.25
  C 229.25 429.27 215.78 430.19 204.93 429.69
  C 196.27 429.30 187.61 429.43 178.93 428.68
  C 173.37 428.20 167.88 428.27 162.33 427.99
  Q 139.76 426.88 119.50 427.31
  Q 112.39 427.46 107.60 425.73
  Z"
/>
</svg>
