<?xml version="1.0" encoding="UTF-8" standalone="no"?>
<!DOCTYPE svg PUBLIC "-//W3C//DTD SVG 1.1//EN" "http://www.w3.org/Graphics/SVG/1.1/DTD/svg11.dtd">
<svg xmlns="http://www.w3.org/2000/svg" version="1.1" viewBox="0.00 0.00 510.00 534.00">
<g stroke-width="2.00" fill="none" stroke-linecap="butt">
<path stroke="#12203f" vector-effect="non-scaling-stroke" d="
  M 374.14 101.55
  L 334.74 101.88"
/>
<path stroke="#12203f" vector-effect="non-scaling-stroke" d="
  M 413.42 266.54
  L 413.56 273.69"
/>
<path stroke="#2d3b5a" vector-effect="non-scaling-stroke" d="
  M 413.56 273.69
  L 413.08 287.58"
/>
<path stroke="#12203f" vector-effect="non-scaling-stroke" d="
  M 413.08 287.58
  L 409.82 294.77"
/>
<path stroke="#12203f" vector-effect="non-scaling-stroke" d="
  M 371.84 302.02
  L 338.12 302.04"
/>
<path stroke="#12203f" vector-effect="non-scaling-stroke" d="
  M 302.83 296.77
  L 298.80 289.61"
/>
<path stroke="#2d3b5a" vector-effect="non-scaling-stroke" d="
  M 298.80 289.61
  L 297.74 275.40"
/>
<path stroke="#12203f" vector-effect="non-scaling-stroke" d="
  M 297.74 275.40
  L 297.46 268.51"
/>
<path stroke="#597abe" vector-effect="non-scaling-stroke" d="
  M 314.28 109.04
  Q 304.26 111.23 304.18 120.25
  Q 304.03 138.61 304.68 206.49
  Q 304.68 206.75 304.95 206.75
  L 313.49 206.75
  A 0.27 0.26 0.0 0 0 313.76 206.49
  Q 313.75 192.19 313.79 177.50
  Q 313.80 174.08 315.98 173.10"
/>
<path stroke="#3257a2" vector-effect="non-scaling-stroke" d="
  M 315.98 173.10
  Q 316.53 172.53 318.02 172.70
  C 319.56 172.88 320.61 174.08 320.65 175.60
  Q 320.95 187.52 320.49 205.84
  Q 320.48 206.59 321.22 206.57
  L 330.03 206.43
  Q 330.74 206.42 330.74 205.72
  L 330.79 174.26
  A 3.06 3.03 65.3 0 1 331.51 172.29
  Q 333.29 170.20 335.01 170.60
  Q 337.82 171.25 337.79 174.12
  L 337.55 205.78
  Q 337.54 206.26 338.03 206.26
  L 349.92 206.23
  A 0.66 0.65 -0.4 0 0 350.57 205.58
  L 350.51 171.82
  A 3.00 2.99 -23.2 0 1 351.34 169.75
  C 353.87 167.10 357.90 168.32 357.92 172.22
  Q 358.05 188.80 357.79 205.40
  Q 357.78 206.14 358.52 206.12
  L 372.22 205.80
  Q 372.73 205.79 372.73 205.28
  L 372.81 175.02
  Q 372.82 171.81 375.81 170.64
  Q 376.64 170.32 377.45 170.76
  Q 379.81 172.06 379.79 174.75
  L 379.55 205.28
  A 0.48 0.48 0.0 0 0 380.03 205.76
  L 390.25 205.75
  Q 390.76 205.75 390.76 205.25
  L 390.80 176.70
  A 2.24 2.19 -34.3 0 1 390.97 175.85
  Q 392.40 172.30 394.41 172.53
  Q 397.82 172.92 397.80 176.36
  L 397.58 205.12
  Q 397.58 205.69 398.15 205.70
  L 405.47 205.78
  Q 405.99 205.79 405.99 205.28
  Q 406.19 186.97 405.77 169.75
  Q 405.70 166.49 405.65 163.50
  Q 405.41 148.42 405.48 131.63
  Q 405.50 128.80 405.33 125.77
  C 404.94 118.54 404.51 112.75 396.71 109.69
  C 394.30 108.74 391.83 108.95 389.25 108.95
  Q 351.68 109.07 314.28 109.04"
/>
<path stroke="#6691e3" vector-effect="non-scaling-stroke" d="
  M 315.98 173.10
  Q 316.14 131.47 315.72 113.25
  Q 315.69 112.02 314.28 109.04"
/>
<path stroke="#597abe" vector-effect="non-scaling-stroke" d="
  M 316.27 213.32
  L 305.27 213.30
  Q 304.61 213.30 304.61 213.96
  L 304.63 227.12
  Q 304.64 227.71 305.23 227.71
  L 316.37 227.73"
/>
<path stroke="#3257a2" vector-effect="non-scaling-stroke" d="
  M 316.37 227.73
  L 405.83 226.79
  A 0.34 0.34 0.0 0 0 406.17 226.45
  L 406.03 212.78
  Q 406.03 212.18 405.42 212.19
  L 316.27 213.32"
/>
<path stroke="#6691e3" vector-effect="non-scaling-stroke" d="
  M 316.37 227.73
  L 316.27 213.32"
/>
<path stroke="#597abe" vector-effect="non-scaling-stroke" d="
  M 316.42 234.29
  L 305.08 234.28
  Q 304.67 234.28 304.67 234.70
  Q 304.74 258.21 305.14 281.82
  Q 305.34 293.77 316.63 295.05"
/>
<path stroke="#3257a2" vector-effect="non-scaling-stroke" d="
  M 316.63 295.05
  Q 332.56 295.04 349.00 294.98
  C 363.38 294.92 377.12 294.26 391.53 294.64
  Q 396.80 294.78 399.69 293.35
  Q 404.89 290.77 405.80 284.30
  Q 406.46 279.61 406.49 275.75
  Q 406.66 254.31 406.13 233.66
  A 0.37 0.36 88.4 0 0 405.76 233.30
  L 332.82 234.35
  Q 332.25 234.36 332.25 234.93
  L 332.25 285.23
  Q 332.25 288.36 329.24 289.20
  Q 328.69 289.36 328.15 289.16
  Q 325.69 288.23 325.70 285.61
  L 325.73 234.72
  A 0.42 0.42 0.0 0 0 325.31 234.30
  L 316.42 234.29"
/>
<path stroke="#6691e3" vector-effect="non-scaling-stroke" d="
  M 316.63 295.05
  L 316.42 234.29"
/>
<path stroke="#1b1b1b" vector-effect="non-scaling-stroke" d="
  M 297.74 275.40
  L 198.85 275.70
  Q 198.26 275.71 198.26 276.29
  L 198.25 289.00
  Q 198.25 289.60 198.86 289.60
  L 298.80 289.61"
/>
<path stroke="#1b1b1b" vector-effect="non-scaling-stroke" d="
  M 174.48 534.00
  L 174.44 422.32
  Q 174.44 421.82 173.94 421.82
  L 152.30 421.86"
/>
<path stroke="#3f3f3f" vector-effect="non-scaling-stroke" d="
  M 152.30 421.86
  L 147.83 421.76
  Q 147.30 421.75 147.30 422.28
  L 147.26 534.00"
/>
<path stroke="#12203f" vector-effect="non-scaling-stroke" d="
  M 133.86 405.17
  Q 130.70 402.92 131.20 398.76"
/>
<path stroke="#203764" vector-effect="non-scaling-stroke" d="
  M 131.20 398.76
  L 131.57 392.13"
/>
<path stroke="#12203f" vector-effect="non-scaling-stroke" d="
  M 131.57 392.13
  L 132.76 385.73"
/>
<path stroke="#3f3f3f" vector-effect="non-scaling-stroke" d="
  M 146.74 277.07
  Q 144.41 279.76 144.35 282.51
  Q 144.12 292.53 144.47 315.47
  Q 144.48 315.99 145.00 315.96
  L 151.16 315.62"
/>
<path stroke="#1b1b1b" vector-effect="non-scaling-stroke" d="
  M 151.16 315.62
  L 176.78 315.26
  Q 177.41 315.26 177.46 314.62
  Q 177.72 311.00 177.99 307.15
  C 178.48 300.15 183.31 296.90 190.06 296.45
  A 1.42 1.42 0.0 0 0 191.38 295.07
  L 191.97 271.43
  A 0.72 0.71 -84.9 0 0 191.38 270.71
  Q 188.22 270.20 184.75 270.29
  Q 173.27 270.60 161.76 270.49
  Q 153.67 270.42 146.74 277.07"
/>
<path stroke="#5a5a5a" vector-effect="non-scaling-stroke" d="
  M 151.16 315.62
  Q 151.30 299.54 151.16 283.35
  Q 151.14 280.70 150.32 279.47
  Q 149.14 277.73 146.74 277.07"
/>
<path stroke="#3f3f3f" vector-effect="non-scaling-stroke" d="
  M 155.78 322.84
  L 150.85 322.81
  Q 150.23 322.81 150.23 323.43
  L 150.28 359.04
  Q 150.28 359.63 150.87 359.63
  L 155.42 359.65"
/>
<path stroke="#1b1b1b" vector-effect="non-scaling-stroke" d="
  M 155.42 359.65
  L 171.01 359.53
  Q 171.53 359.52 171.52 359.00
  L 171.46 323.22
  Q 171.46 322.46 170.70 322.48
  L 155.78 322.84"
/>
<path stroke="#5a5a5a" vector-effect="non-scaling-stroke" d="
  M 155.42 359.65
  L 155.78 322.84"
/>
<path stroke="#1b1b1b" vector-effect="non-scaling-stroke" d="
  M 149.53 374.65
  L 175.11 374.63
  Q 175.88 374.63 176.04 373.87
  Q 176.67 370.71 176.04 367.58
  Q 175.88 366.76 175.04 366.76
  L 149.59 366.93"
/>
<path stroke="#3f3f3f" vector-effect="non-scaling-stroke" d="
  M 149.59 366.93
  Q 148.08 366.50 146.59 366.73
  Q 146.08 366.80 145.96 367.30
  Q 143.72 376.17 149.53 374.65"
/>
<path stroke="#5a5a5a" vector-effect="non-scaling-stroke" d="
  M 149.59 366.93
  L 149.53 374.65"
/>
<path stroke="#3f3f3f" vector-effect="non-scaling-stroke" d="
  M 143.98 382.06
  Q 140.03 383.43 138.72 388.25
  Q 137.39 393.11 137.54 398.17
  Q 137.56 398.70 138.09 398.67
  L 142.55 398.48"
/>
<path stroke="#1b1b1b" vector-effect="non-scaling-stroke" d="
  M 142.55 398.48
  L 182.92 398.22
  A 0.38 0.38 0.0 0 0 183.30 397.84
  C 183.31 392.86 182.88 387.42 179.45 383.58
  C 178.28 382.27 174.70 381.78 173.01 381.78
  Q 158.39 381.81 143.98 382.06"
/>
<path stroke="#5a5a5a" vector-effect="non-scaling-stroke" d="
  M 142.55 398.48
  Q 141.15 389.83 143.98 382.06"
/>
<path stroke="#1b1b1b" vector-effect="non-scaling-stroke" d="
  M 150.00 414.65
  L 175.06 414.63
  Q 175.90 414.63 176.06 413.80
  Q 176.63 410.71 176.07 407.66
  Q 175.90 406.74 174.97 406.74
  L 150.39 406.86"
/>
<path stroke="#3f3f3f" vector-effect="non-scaling-stroke" d="
  M 150.39 406.86
  L 146.63 406.75
  Q 146.10 406.74 145.97 407.25
  Q 143.59 416.35 150.00 414.65"
/>
<path stroke="#5a5a5a" vector-effect="non-scaling-stroke" d="
  M 150.39 406.86
  L 150.00 414.65"
/>
<path stroke="#1b1b1b" vector-effect="non-scaling-stroke" d="
  M 510.00 273.89
  L 413.56 273.69"
/>
<path stroke="#1b1b1b" vector-effect="non-scaling-stroke" d="
  M 510.00 287.54
  L 413.08 287.58"
/>
<path stroke="#586675" vector-effect="non-scaling-stroke" d="
  M 359.05 445.03
  L 350.48 444.73"
/>
<path stroke="#1b1b1b" vector-effect="non-scaling-stroke" d="
  M 343.71 316.70
  L 368.50 316.69
  Q 370.41 316.69 370.38 314.78
  L 370.32 310.59
  Q 370.29 308.75 368.45 308.75
  L 343.88 308.86"
/>
<path stroke="#3f3f3f" vector-effect="non-scaling-stroke" d="
  M 343.88 308.86
  L 340.64 308.72
  Q 340.10 308.70 339.96 309.22
  Q 337.66 318.18 343.71 316.70"
/>
<path stroke="#5a5a5a" vector-effect="non-scaling-stroke" d="
  M 343.88 308.86
  Q 344.81 312.87 343.71 316.70"
/>
<path stroke="#808080" vector-effect="non-scaling-stroke" d="
  M 342.28 329.73
  L 342.26 340.59"
/>
<path stroke="#3f3f3f" vector-effect="non-scaling-stroke" d="
  M 342.26 340.59
  L 342.49 421.61
  Q 342.49 422.13 342.88 422.48
  Q 344.74 424.13 347.83 424.91"
/>
<path stroke="#1b1b1b" vector-effect="non-scaling-stroke" d="
  M 347.83 424.91
  Q 354.81 426.53 361.75 424.72
  Q 364.11 424.10 366.59 422.03
  A 1.22 1.17 73.9 0 0 367.02 421.22
  C 367.24 419.00 367.55 416.68 367.54 414.43
  Q 367.41 377.57 367.56 340.70"
/>
<path stroke="#808080" vector-effect="non-scaling-stroke" d="
  M 367.56 340.70
  L 367.60 329.50"
/>
<path stroke="#1b1b1b" vector-effect="non-scaling-stroke" d="
  M 367.60 329.50
  L 367.59 324.37
  Q 367.59 323.88 367.10 323.89
  L 345.55 323.97"
/>
<path stroke="#3f3f3f" vector-effect="non-scaling-stroke" d="
  M 345.55 323.97
  L 342.87 323.79
  Q 342.32 323.75 342.31 324.30
  L 342.28 329.73"
/>
<path stroke="#5a5a5a" vector-effect="non-scaling-stroke" d="
  M 345.55 323.97
  Q 347.76 325.96 347.39 329.56"
/>
<path stroke="#bebebe" vector-effect="non-scaling-stroke" d="
  M 347.39 329.56
  L 342.28 329.73"
/>
<path stroke="#9b9b9b" vector-effect="non-scaling-stroke" d="
  M 367.56 340.70
  L 363.73 340.87"
/>
<path stroke="#bebebe" vector-effect="non-scaling-stroke" d="
  M 363.73 340.87
  L 342.26 340.59"
/>
<path stroke="#9b9b9b" vector-effect="non-scaling-stroke" d="
  M 367.60 329.50
  L 347.39 329.56"
/>
<path stroke="#5a5a5a" vector-effect="non-scaling-stroke" d="
  M 363.73 340.87
  L 348.44 341.04
  A 1.27 1.27 0.0 0 0 347.18 342.32
  L 347.83 424.91"
/>
<path stroke="#1b1b1b" vector-effect="non-scaling-stroke" d="
  M 345.81 432.14
  C 351.12 440.39 360.00 439.83 365.12 431.66
  Q 365.53 431.01 364.79 431.24
  Q 355.23 434.20 346.10 431.75
  Q 345.44 431.57 345.81 432.14"
/>
<path stroke="#3257a2" vector-effect="non-scaling-stroke" d="
  M 131.57 392.13
  L 123.48 392.85
  Q 121.13 393.06 121.13 390.69
  L 121.12 371.19
  Q 121.12 370.27 120.19 370.27
  L 115.94 370.31
  A 1.00 0.99 -90.0 0 0 114.95 371.31
  L 114.94 421.71
  Q 114.94 422.47 115.71 422.45
  L 120.17 422.28
  Q 121.09 422.25 121.10 421.33
  L 121.27 400.71
  A 1.91 1.91 0.0 0 1 123.16 398.82
  L 131.20 398.76"
/>
<path stroke="#5a5a5a" vector-effect="non-scaling-stroke" d="
  M 152.30 421.86
  L 151.47 534.00"
/>
</g>
<path fill="#000000" d="
  M 374.14 101.55
  L 334.74 101.88
  Q 346.26 90.56 362.99 95.05
  Q 369.32 96.75 374.14 101.55
  Z"
/>
<path fill="#24407d" d="
  M 374.14 101.55
  Q 381.89 101.53 389.86 101.51
  Q 397.22 101.50 400.26 102.79
  Q 409.52 106.71 411.75 115.61
  Q 412.72 119.46 412.76 125.36
  Q 413.04 164.86 413.00 192.59
  C 413.00 197.09 413.60 201.50 413.44 206.01
  A 1.63 1.62 -64.8 0 0 413.84 207.13
  C 418.29 212.30 417.26 221.63 415.81 228.07
  Q 415.41 229.82 414.05 231.12
  Q 413.63 231.52 413.62 232.11
  L 413.42 266.54
  L 413.56 273.69
  L 413.08 287.58
  L 409.82 294.77
  Q 406.81 298.65 402.44 300.67
  Q 399.75 301.92 395.33 301.93
  Q 383.71 301.98 371.84 302.02
  L 338.12 302.04
  Q 319.93 302.29 314.25 301.83
  Q 307.95 301.32 302.83 296.77
  L 298.80 289.61
  L 297.74 275.40
  L 297.46 268.51
  Q 297.59 251.61 297.35 234.81
  C 297.31 232.44 295.91 232.24 295.47 230.32
  Q 293.31 220.72 295.05 212.32
  Q 295.46 210.39 296.86 208.73
  Q 297.22 208.31 297.21 207.76
  Q 296.90 173.69 297.02 138.85
  C 297.02 138.02 296.56 137.29 296.54 136.44
  C 296.30 125.87 294.70 107.78 308.04 103.48
  C 309.91 102.87 311.71 101.98 313.75 102.00
  Q 324.86 102.09 334.74 101.88
  L 374.14 101.55
  Z
  M 314.28 109.04
  Q 304.26 111.23 304.18 120.25
  Q 304.03 138.61 304.68 206.49
  Q 304.68 206.75 304.95 206.75
  L 313.49 206.75
  A 0.27 0.26 0.0 0 0 313.76 206.49
  Q 313.75 192.19 313.79 177.50
  Q 313.80 174.08 315.98 173.10
  Q 316.53 172.53 318.02 172.70
  C 319.56 172.88 320.61 174.08 320.65 175.60
  Q 320.95 187.52 320.49 205.84
  Q 320.48 206.59 321.22 206.57
  L 330.03 206.43
  Q 330.74 206.42 330.74 205.72
  L 330.79 174.26
  A 3.06 3.03 65.3 0 1 331.51 172.29
  Q 333.29 170.20 335.01 170.60
  Q 337.82 171.25 337.79 174.12
  L 337.55 205.78
  Q 337.54 206.26 338.03 206.26
  L 349.92 206.23
  A 0.66 0.65 -0.4 0 0 350.57 205.58
  L 350.51 171.82
  A 3.00 2.99 -23.2 0 1 351.34 169.75
  C 353.87 167.10 357.90 168.32 357.92 172.22
  Q 358.05 188.80 357.79 205.40
  Q 357.78 206.14 358.52 206.12
  L 372.22 205.80
  Q 372.73 205.79 372.73 205.28
  L 372.81 175.02
  Q 372.82 171.81 375.81 170.64
  Q 376.64 170.32 377.45 170.76
  Q 379.81 172.06 379.79 174.75
  L 379.55 205.28
  A 0.48 0.48 0.0 0 0 380.03 205.76
  L 390.25 205.75
  Q 390.76 205.75 390.76 205.25
  L 390.80 176.70
  A 2.24 2.19 -34.3 0 1 390.97 175.85
  Q 392.40 172.30 394.41 172.53
  Q 397.82 172.92 397.80 176.36
  L 397.58 205.12
  Q 397.58 205.69 398.15 205.70
  L 405.47 205.78
  Q 405.99 205.79 405.99 205.28
  Q 406.19 186.97 405.77 169.75
  Q 405.70 166.49 405.65 163.50
  Q 405.41 148.42 405.48 131.63
  Q 405.50 128.80 405.33 125.77
  C 404.94 118.54 404.51 112.75 396.71 109.69
  C 394.30 108.74 391.83 108.95 389.25 108.95
  Q 351.68 109.07 314.28 109.04
  Z
  M 316.27 213.32
  L 305.27 213.30
  Q 304.61 213.30 304.61 213.96
  L 304.63 227.12
  Q 304.64 227.71 305.23 227.71
  L 316.37 227.73
  L 405.83 226.79
  A 0.34 0.34 0.0 0 0 406.17 226.45
  L 406.03 212.78
  Q 406.03 212.18 405.42 212.19
  L 316.27 213.32
  Z
  M 316.42 234.29
  L 305.08 234.28
  Q 304.67 234.28 304.67 234.70
  Q 304.74 258.21 305.14 281.82
  Q 305.34 293.77 316.63 295.05
  Q 332.56 295.04 349.00 294.98
  C 363.38 294.92 377.12 294.26 391.53 294.64
  Q 396.80 294.78 399.69 293.35
  Q 404.89 290.77 405.80 284.30
  Q 406.46 279.61 406.49 275.75
  Q 406.66 254.31 406.13 233.66
  A 0.37 0.36 88.4 0 0 405.76 233.30
  L 332.82 234.35
  Q 332.25 234.36 332.25 234.93
  L 332.25 285.23
  Q 332.25 288.36 329.24 289.20
  Q 328.69 289.36 328.15 289.16
  Q 325.69 288.23 325.70 285.61
  L 325.73 234.72
  A 0.42 0.42 0.0 0 0 325.31 234.30
  L 316.42 234.29
  Z"
/>
<path fill="#3f6dc7" d="
  M 315.98 173.10
  Q 316.14 131.47 315.72 113.25
  Q 315.69 112.02 314.28 109.04
  Q 351.68 109.07 389.25 108.95
  C 391.83 108.95 394.30 108.74 396.71 109.69
  C 404.51 112.75 404.94 118.54 405.33 125.77
  Q 405.50 128.80 405.48 131.63
  Q 405.41 148.42 405.65 163.50
  Q 405.70 166.49 405.77 169.75
  Q 406.19 186.97 405.99 205.28
  Q 405.99 205.79 405.47 205.78
  L 398.15 205.70
  Q 397.58 205.69 397.58 205.12
  L 397.80 176.36
  Q 397.82 172.92 394.41 172.53
  Q 392.40 172.30 390.97 175.85
  A 2.24 2.19 -34.3 0 0 390.80 176.70
  L 390.76 205.25
  Q 390.76 205.75 390.25 205.75
  L 380.03 205.76
  A 0.48 0.48 0.0 0 1 379.55 205.28
  L 379.79 174.75
  Q 379.81 172.06 377.45 170.76
  Q 376.64 170.32 375.81 170.64
  Q 372.82 171.81 372.81 175.02
  L 372.73 205.28
  Q 372.73 205.79 372.22 205.80
  L 358.52 206.12
  Q 357.78 206.14 357.79 205.40
  Q 358.05 188.80 357.92 172.22
  C 357.90 168.32 353.87 167.10 351.34 169.75
  A 3.00 2.99 -23.2 0 0 350.51 171.82
  L 350.57 205.58
  A 0.66 0.65 -0.4 0 1 349.92 206.23
  L 338.03 206.26
  Q 337.54 206.26 337.55 205.78
  L 337.79 174.12
  Q 337.82 171.25 335.01 170.60
  Q 333.29 170.20 331.51 172.29
  A 3.06 3.03 65.3 0 0 330.79 174.26
  L 330.74 205.72
  Q 330.74 206.42 330.03 206.43
  L 321.22 206.57
  Q 320.48 206.59 320.49 205.84
  Q 320.95 187.52 320.65 175.60
  C 320.61 174.08 319.56 172.88 318.02 172.70
  Q 316.53 172.53 315.98 173.10
  Z"
/>
<path fill="#8db4ff" d="
  M 314.28 109.04
  Q 315.69 112.02 315.72 113.25
  Q 316.14 131.47 315.98 173.10
  Q 313.80 174.08 313.79 177.50
  Q 313.75 192.19 313.76 206.49
  A 0.27 0.26 -0.0 0 1 313.49 206.75
  L 304.95 206.75
  Q 304.68 206.75 304.68 206.49
  Q 304.03 138.61 304.18 120.25
  Q 304.26 111.23 314.28 109.04
  Z"
/>
<path fill="#3f6dc7" d="
  M 316.37 227.73
  L 316.27 213.32
  L 405.42 212.19
  Q 406.03 212.18 406.03 212.78
  L 406.17 226.45
  A 0.34 0.34 0.0 0 1 405.83 226.79
  L 316.37 227.73
  Z"
/>
<path fill="#8db4ff" d="
  M 316.27 213.32
  L 316.37 227.73
  L 305.23 227.71
  Q 304.64 227.71 304.63 227.12
  L 304.61 213.96
  Q 304.61 213.30 305.27 213.30
  L 316.27 213.32
  Z"
/>
<path fill="#3f6dc7" d="
  M 316.63 295.05
  L 316.42 234.29
  L 325.31 234.30
  A 0.42 0.42 0.0 0 1 325.73 234.72
  L 325.70 285.61
  Q 325.69 288.23 328.15 289.16
  Q 328.69 289.36 329.24 289.20
  Q 332.25 288.36 332.25 285.23
  L 332.25 234.93
  Q 332.25 234.36 332.82 234.35
  L 405.76 233.30
  A 0.37 0.36 88.4 0 1 406.13 233.66
  Q 406.66 254.31 406.49 275.75
  Q 406.46 279.61 405.80 284.30
  Q 404.89 290.77 399.69 293.35
  Q 396.80 294.78 391.53 294.64
  C 377.12 294.26 363.38 294.92 349.00 294.98
  Q 332.56 295.04 316.63 295.05
  Z"
/>
<path fill="#8db4ff" d="
  M 316.42 234.29
  L 316.63 295.05
  Q 305.34 293.77 305.14 281.82
  Q 304.74 258.21 304.67 234.70
  Q 304.67 234.28 305.08 234.28
  L 316.42 234.29
  Z"
/>
<path fill="#000000" d="
  M 297.46 268.51
  L 297.74 275.40
  L 198.85 275.70
  Q 198.26 275.71 198.26 276.29
  L 198.25 289.00
  Q 198.25 289.60 198.86 289.60
  L 298.80 289.61
  L 302.83 296.77
  L 199.04 296.93
  Q 198.37 296.93 198.44 297.60
  C 198.75 300.29 198.03 304.99 193.89 303.52
  C 191.31 302.60 184.77 302.93 184.38 306.97
  Q 184.09 309.99 183.74 313.09
  C 183.45 315.70 184.19 318.08 183.37 320.70
  Q 183.23 321.17 182.81 321.45
  Q 181.07 322.63 179.03 322.47
  Q 178.44 322.42 178.44 323.01
  L 178.39 360.04
  Q 178.39 360.62 178.87 360.94
  C 183.69 364.15 183.56 371.81 182.08 376.72
  Q 181.94 377.18 182.32 377.46
  Q 188.56 382.03 189.57 391.59
  C 189.93 395.01 190.37 399.05 189.88 402.44
  C 189.40 405.69 185.46 405.62 182.85 405.41
  Q 182.18 405.36 182.35 406.01
  Q 183.73 411.42 182.11 416.31
  Q 181.41 418.40 181.41 421.16
  Q 181.39 477.58 181.40 534.00
  L 174.48 534.00
  L 174.44 422.32
  Q 174.44 421.82 173.94 421.82
  L 152.30 421.86
  L 147.83 421.76
  Q 147.30 421.75 147.30 422.28
  L 147.26 534.00
  L 140.53 534.00
  L 140.71 418.91
  Q 140.71 418.38 140.48 417.91
  Q 138.14 412.95 139.61 406.02
  Q 139.73 405.45 139.15 405.42
  L 133.86 405.17
  Q 130.70 402.92 131.20 398.76
  L 131.57 392.13
  L 132.76 385.73
  Q 134.51 380.20 139.49 376.86
  Q 139.90 376.59 139.77 376.12
  C 138.43 370.94 138.54 364.32 143.01 360.95
  Q 143.51 360.56 143.51 359.93
  L 143.52 323.54
  Q 143.52 322.85 142.84 322.93
  C 137.21 323.59 138.01 318.39 138.01 314.89
  Q 138.03 298.64 137.89 284.59
  Q 137.85 280.51 140.18 275.69
  Q 141.77 272.41 145.08 269.86
  C 150.73 265.50 158.15 263.28 165.20 263.44
  C 172.54 263.61 179.70 263.21 186.91 263.84
  Q 190.69 264.18 194.67 264.06
  Q 198.27 263.96 198.70 267.58
  Q 198.76 268.13 199.32 268.14
  L 297.46 268.51
  Z
  M 146.74 277.07
  Q 144.41 279.76 144.35 282.51
  Q 144.12 292.53 144.47 315.47
  Q 144.48 315.99 145.00 315.96
  L 151.16 315.62
  L 176.78 315.26
  Q 177.41 315.26 177.46 314.62
  Q 177.72 311.00 177.99 307.15
  C 178.48 300.15 183.31 296.90 190.06 296.45
  A 1.42 1.42 0.0 0 0 191.38 295.07
  L 191.97 271.43
  A 0.72 0.71 -84.9 0 0 191.38 270.71
  Q 188.22 270.20 184.75 270.29
  Q 173.27 270.60 161.76 270.49
  Q 153.67 270.42 146.74 277.07
  Z
  M 155.78 322.84
  L 150.85 322.81
  Q 150.23 322.81 150.23 323.43
  L 150.28 359.04
  Q 150.28 359.63 150.87 359.63
  L 155.42 359.65
  L 171.01 359.53
  Q 171.53 359.52 171.52 359.00
  L 171.46 323.22
  Q 171.46 322.46 170.70 322.48
  L 155.78 322.84
  Z
  M 149.53 374.65
  L 175.11 374.63
  Q 175.88 374.63 176.04 373.87
  Q 176.67 370.71 176.04 367.58
  Q 175.88 366.76 175.04 366.76
  L 149.59 366.93
  Q 148.08 366.50 146.59 366.73
  Q 146.08 366.80 145.96 367.30
  Q 143.72 376.17 149.53 374.65
  Z
  M 143.98 382.06
  Q 140.03 383.43 138.72 388.25
  Q 137.39 393.11 137.54 398.17
  Q 137.56 398.70 138.09 398.67
  L 142.55 398.48
  L 182.92 398.22
  A 0.38 0.38 0.0 0 0 183.30 397.84
  C 183.31 392.86 182.88 387.42 179.45 383.58
  C 178.28 382.27 174.70 381.78 173.01 381.78
  Q 158.39 381.81 143.98 382.06
  Z
  M 150.00 414.65
  L 175.06 414.63
  Q 175.90 414.63 176.06 413.80
  Q 176.63 410.71 176.07 407.66
  Q 175.90 406.74 174.97 406.74
  L 150.39 406.86
  L 146.63 406.75
  Q 146.10 406.74 145.97 407.25
  Q 143.59 416.35 150.00 414.65
  Z"
/>
<path fill="#000000" d="
  M 413.42 266.54
  L 510.00 266.54
  L 510.00 273.89
  L 413.56 273.69
  L 413.42 266.54
  Z"
/>
<path fill="#363636" d="
  M 151.16 315.62
  Q 151.30 299.54 151.16 283.35
  Q 151.14 280.70 150.32 279.47
  Q 149.14 277.73 146.74 277.07
  Q 153.67 270.42 161.76 270.49
  Q 173.27 270.60 184.75 270.29
  Q 188.22 270.20 191.38 270.71
  A 0.72 0.71 -84.9 0 1 191.97 271.43
  L 191.38 295.07
  A 1.42 1.42 0.0 0 1 190.06 296.45
  C 183.31 296.90 178.48 300.15 177.99 307.15
  Q 177.72 311.00 177.46 314.62
  Q 177.41 315.26 176.78 315.26
  L 151.16 315.62
  Z"
/>
<path fill="#363636" d="
  M 413.56 273.69
  L 510.00 273.89
  L 510.00 287.54
  L 413.08 287.58
  L 413.56 273.69
  Z"
/>
<path fill="#363636" d="
  M 297.74 275.40
  L 298.80 289.61
  L 198.86 289.60
  Q 198.25 289.60 198.25 289.00
  L 198.26 276.29
  Q 198.26 275.71 198.85 275.70
  L 297.74 275.40
  Z"
/>
<path fill="#7d7d7d" d="
  M 146.74 277.07
  Q 149.14 277.73 150.32 279.47
  Q 151.14 280.70 151.16 283.35
  Q 151.30 299.54 151.16 315.62
  L 145.00 315.96
  Q 144.48 315.99 144.47 315.47
  Q 144.12 292.53 144.35 282.51
  Q 144.41 279.76 146.74 277.07
  Z"
/>
<path fill="#000000" d="
  M 510.00 287.54
  L 510.00 294.92
  L 409.82 294.77
  L 413.08 287.58
  L 510.00 287.54
  Z"
/>
<path fill="#000000" d="
  M 338.12 302.04
  L 371.84 302.02
  Q 376.00 304.82 376.70 309.73
  Q 377.75 317.06 374.26 322.09
  Q 373.94 322.55 374.02 323.11
  C 374.19 324.34 374.46 325.35 374.46 326.62
  Q 374.33 375.08 374.48 422.71
  Q 374.50 428.00 373.14 431.65
  Q 369.47 441.51 359.05 445.03
  L 350.48 444.73
  C 338.58 440.20 335.45 429.06 335.48 417.34
  Q 335.55 384.13 335.50 352.34
  C 335.49 343.36 336.06 334.05 335.48 324.93
  C 335.41 323.88 336.21 322.78 335.59 321.86
  Q 332.17 316.79 333.33 309.48
  Q 334.08 304.79 338.12 302.04
  Z
  M 343.71 316.70
  L 368.50 316.69
  Q 370.41 316.69 370.38 314.78
  L 370.32 310.59
  Q 370.29 308.75 368.45 308.75
  L 343.88 308.86
  L 340.64 308.72
  Q 340.10 308.70 339.96 309.22
  Q 337.66 318.18 343.71 316.70
  Z
  M 342.28 329.73
  L 342.26 340.59
  L 342.49 421.61
  Q 342.49 422.13 342.88 422.48
  Q 344.74 424.13 347.83 424.91
  Q 354.81 426.53 361.75 424.72
  Q 364.11 424.10 366.59 422.03
  A 1.22 1.17 73.9 0 0 367.02 421.22
  C 367.24 419.00 367.55 416.68 367.54 414.43
  Q 367.41 377.57 367.56 340.70
  L 367.60 329.50
  L 367.59 324.37
  Q 367.59 323.88 367.10 323.89
  L 345.55 323.97
  L 342.87 323.79
  Q 342.32 323.75 342.31 324.30
  L 342.28 329.73
  Z
  M 345.81 432.14
  C 351.12 440.39 360.00 439.83 365.12 431.66
  Q 365.53 431.01 364.79 431.24
  Q 355.23 434.20 346.10 431.75
  Q 345.44 431.57 345.81 432.14
  Z"
/>
<path fill="#7d7d7d" d="
  M 343.88 308.86
  Q 344.81 312.87 343.71 316.70
  Q 337.66 318.18 339.96 309.22
  Q 340.10 308.70 340.64 308.72
  L 343.88 308.86
  Z"
/>
<path fill="#363636" d="
  M 343.88 308.86
  L 368.45 308.75
  Q 370.29 308.75 370.32 310.59
  L 370.38 314.78
  Q 370.41 316.69 368.50 316.69
  L 343.71 316.70
  Q 344.81 312.87 343.88 308.86
  Z"
/>
<path fill="#363636" d="
  M 155.42 359.65
  L 155.78 322.84
  L 170.70 322.48
  Q 171.46 322.46 171.46 323.22
  L 171.52 359.00
  Q 171.53 359.52 171.01 359.53
  L 155.42 359.65
  Z"
/>
<path fill="#7d7d7d" d="
  M 155.78 322.84
  L 155.42 359.65
  L 150.87 359.63
  Q 150.28 359.63 150.28 359.04
  L 150.23 323.43
  Q 150.23 322.81 150.85 322.81
  L 155.78 322.84
  Z"
/>
<path fill="#7d7d7d" d="
  M 345.55 323.97
  Q 347.76 325.96 347.39 329.56
  L 342.28 329.73
  L 342.31 324.30
  Q 342.32 323.75 342.87 323.79
  L 345.55 323.97
  Z"
/>
<path fill="#363636" d="
  M 367.60 329.50
  L 347.39 329.56
  Q 347.76 325.96 345.55 323.97
  L 367.10 323.89
  Q 367.59 323.88 367.59 324.37
  L 367.60 329.50
  Z"
/>
<path fill="#ffffff" d="
  M 347.39 329.56
  L 367.60 329.50
  L 367.56 340.70
  L 363.73 340.87
  L 342.26 340.59
  L 342.28 329.73
  L 347.39 329.56
  Z"
/>
<path fill="#7d7d7d" d="
  M 342.26 340.59
  L 363.73 340.87
  L 348.44 341.04
  A 1.27 1.27 0.0 0 0 347.18 342.32
  L 347.83 424.91
  Q 344.74 424.13 342.88 422.48
  Q 342.49 422.13 342.49 421.61
  L 342.26 340.59
  Z"
/>
<path fill="#363636" d="
  M 363.73 340.87
  L 367.56 340.70
  Q 367.41 377.57 367.54 414.43
  C 367.55 416.68 367.24 419.00 367.02 421.22
  A 1.22 1.17 73.9 0 1 366.59 422.03
  Q 364.11 424.10 361.75 424.72
  Q 354.81 426.53 347.83 424.91
  L 347.18 342.32
  A 1.27 1.27 0.0 0 1 348.44 341.04
  L 363.73 340.87
  Z"
/>
<path fill="#24407d" d="
  M 132.76 385.73
  L 131.57 392.13
  L 123.48 392.85
  Q 121.13 393.06 121.13 390.69
  L 121.12 371.19
  Q 121.12 370.27 120.19 370.27
  L 115.94 370.31
  A 1.00 0.99 -90.0 0 0 114.95 371.31
  L 114.94 421.71
  Q 114.94 422.47 115.71 422.45
  L 120.17 422.28
  Q 121.09 422.25 121.10 421.33
  L 121.27 400.71
  A 1.91 1.91 0.0 0 1 123.16 398.82
  L 131.20 398.76
  Q 130.70 402.92 133.86 405.17
  L 128.48 405.76
  Q 128.00 405.81 128.00 406.30
  L 128.00 425.10
  A 4.36 4.35 -0.1 0 1 123.65 429.45
  L 111.75 429.48
  A 3.73 3.73 0.0 0 1 108.01 425.75
  L 108.00 367.76
  A 4.24 4.23 0.0 0 1 112.24 363.53
  L 124.36 363.54
  A 3.64 3.64 0.0 0 1 128.00 367.18
  L 128.00 384.98
  Q 128.00 385.48 128.50 385.51
  L 132.76 385.73
  Z"
/>
<path fill="#7d7d7d" d="
  M 149.59 366.93
  L 149.53 374.65
  Q 143.72 376.17 145.96 367.30
  Q 146.08 366.80 146.59 366.73
  Q 148.08 366.50 149.59 366.93
  Z"
/>
<path fill="#363636" d="
  M 149.53 374.65
  L 149.59 366.93
  L 175.04 366.76
  Q 175.88 366.76 176.04 367.58
  Q 176.67 370.71 176.04 373.87
  Q 175.88 374.63 175.11 374.63
  L 149.53 374.65
  Z"
/>
<path fill="#afcbe9" d="
  M 510.00 383.38
  L 510.00 396.15
  Q 496.56 380.56 478.24 378.51
  Q 468.75 377.45 458.46 380.32
  C 442.33 384.82 428.11 395.85 419.63 410.56
  Q 415.99 416.87 413.43 423.39
  C 407.33 438.93 401.67 455.23 391.40 468.85
  C 386.39 475.49 377.69 483.26 368.40 480.93
  C 360.61 478.98 356.05 473.03 353.92 465.70
  Q 350.96 455.54 350.48 444.73
  L 359.05 445.03
  Q 359.15 453.25 361.49 461.24
  Q 363.49 468.11 366.29 470.43
  C 379.39 481.32 394.71 446.26 397.80 438.10
  Q 403.19 423.89 407.50 414.27
  Q 420.60 385.06 450.46 373.33
  Q 458.06 370.35 466.32 369.59
  Q 475.77 368.72 483.00 369.92
  Q 497.78 372.36 510.00 383.38
  Z"
/>
<path fill="#3f6dc7" d="
  M 131.57 392.13
  L 131.20 398.76
  L 123.16 398.82
  A 1.91 1.91 0.0 0 0 121.27 400.71
  L 121.10 421.33
  Q 121.09 422.25 120.17 422.28
  L 115.71 422.45
  Q 114.94 422.47 114.94 421.71
  L 114.95 371.31
  A 1.00 0.99 -90.0 0 1 115.94 370.31
  L 120.19 370.27
  Q 121.12 370.27 121.12 371.19
  L 121.13 390.69
  Q 121.13 393.06 123.48 392.85
  L 131.57 392.13
  Z"
/>
<path fill="#363636" d="
  M 142.55 398.48
  Q 141.15 389.83 143.98 382.06
  Q 158.39 381.81 173.01 381.78
  C 174.70 381.78 178.28 382.27 179.45 383.58
  C 182.88 387.42 183.31 392.86 183.30 397.84
  A 0.38 0.38 0.0 0 1 182.92 398.22
  L 142.55 398.48
  Z"
/>
<path fill="#7d7d7d" d="
  M 143.98 382.06
  Q 141.15 389.83 142.55 398.48
  L 138.09 398.67
  Q 137.56 398.70 137.54 398.17
  Q 137.39 393.11 138.72 388.25
  Q 140.03 383.43 143.98 382.06
  Z"
/>
<path fill="#7d7d7d" d="
  M 150.39 406.86
  L 150.00 414.65
  Q 143.59 416.35 145.97 407.25
  Q 146.10 406.74 146.63 406.75
  L 150.39 406.86
  Z"
/>
<path fill="#363636" d="
  M 150.39 406.86
  L 174.97 406.74
  Q 175.90 406.74 176.07 407.66
  Q 176.63 410.71 176.06 413.80
  Q 175.90 414.63 175.06 414.63
  L 150.00 414.65
  L 150.39 406.86
  Z"
/>
<path fill="#7d7d7d" d="
  M 152.30 421.86
  L 151.47 534.00
  L 147.26 534.00
  L 147.30 422.28
  Q 147.30 421.75 147.83 421.76
  L 152.30 421.86
  Z"
/>
<path fill="#363636" d="
  M 152.30 421.86
  L 173.94 421.82
  Q 174.44 421.82 174.44 422.32
  L 174.48 534.00
  L 151.47 534.00
  L 152.30 421.86
  Z"
/>
<path fill="#363636" d="
  M 365.12 431.66
  C 360.00 439.83 351.12 440.39 345.81 432.14
  Q 345.44 431.57 346.10 431.75
  Q 355.23 434.20 364.79 431.24
  Q 365.53 431.01 365.12 431.66
  Z"
/>
</svg>
