<svg xmlns="http://www.w3.org/2000/svg" width="205.475" height="308.937" viewBox="0 0 205.475 308.937">
  <g id="_20" data-name="20" transform="translate(-180.678 -89.941)">
    <g id="그룹_15" data-name="그룹 15">
      <path id="패스_323" data-name="패스 323" d="M190.71,117.77l-.42,7.41" fill="none" stroke="#203764" stroke-width="2"/>
      <path id="패스_324" data-name="패스 324" d="M190.29,125.18l-.04,16.55" fill="none" stroke="gray" stroke-width="2"/>
      <path id="패스_325" data-name="패스 325" d="M190.25,141.73l.05,7.45" fill="none" stroke="#203764" stroke-width="2"/>
      <path id="패스_326" data-name="패스 326" d="M190.3,149.18l.12,17.5" fill="none" stroke="gray" stroke-width="2"/>
      <path id="패스_327" data-name="패스 327" d="M190.42,166.68l.05,7.5" fill="none" stroke="#203764" stroke-width="2"/>
      <path id="패스_328" data-name="패스 328" d="M190.47,174.18l.02,16.51" fill="none" stroke="gray" stroke-width="2"/>
      <path id="패스_329" data-name="패스 329" d="M190.49,190.69l.21,7.48" fill="none" stroke="#203764" stroke-width="2"/>
      <path id="패스_330" data-name="패스 330" d="M190.7,198.17l.08,17.53" fill="none" stroke="gray" stroke-width="2"/>
      <path id="패스_331" data-name="패스 331" d="M190.78,215.7l.08,7.48" fill="none" stroke="#203764" stroke-width="2"/>
      <path id="패스_332" data-name="패스 332" d="M190.86,223.18l.01,16.56" fill="none" stroke="gray" stroke-width="2"/>
      <path id="패스_333" data-name="패스 333" d="M190.87,239.74l-.01,7.43" fill="none" stroke="#203764" stroke-width="2"/>
      <path id="패스_334" data-name="패스 334" d="M190.86,247.17l.03,17.49" fill="none" stroke="gray" stroke-width="2"/>
      <path id="패스_335" data-name="패스 335" d="M190.89,264.66l-.04,7.52" fill="none" stroke="#203764" stroke-width="2"/>
      <path id="패스_336" data-name="패스 336" d="M190.85,272.18l-.08,17.38" fill="none" stroke="gray" stroke-width="2"/>
      <path id="패스_337" data-name="패스 337" d="M190.77,289.56l-.05,5.48" fill="none" stroke="#203764" stroke-width="2"/>
      <path id="패스_338" data-name="패스 338" d="M190.72,295.04l.07,18.65" fill="none" stroke="gray" stroke-width="2"/>
      <path id="패스_339" data-name="패스 339" d="M190.79,313.69l.04,7.51" fill="none" stroke="#203764" stroke-width="2"/>
      <path id="패스_340" data-name="패스 340" d="M190.83,321.2l.21,16.5" fill="none" stroke="gray" stroke-width="2"/>
      <path id="패스_341" data-name="패스 341" d="M191.04,337.7l.17,7.49" fill="none" stroke="#203764" stroke-width="2"/>
      <path id="패스_342" data-name="패스 342" d="M191.21,345.19l.32,17.47" fill="none" stroke="gray" stroke-width="2"/>
      <path id="패스_343" data-name="패스 343" d="M191.53,362.66l.44,7.41" fill="none" stroke="#203764" stroke-width="2"/>
      <path id="패스_344" data-name="패스 344" d="M191.97,370.07c-.11,8.48,4.75,16.43,13.42,17.93a31.5,31.5,0,0,0,5.68.5q27.22-.14,55.82-.33c3.84-.02,7.52-.36,11.34-.39q15.45-.12,31.23.07a16.986,16.986,0,0,0,7.42-1.34c6.26-2.94,9.62-9.64,9.51-16.44" fill="none" stroke="gray" stroke-width="2"/>
      <path id="패스_345" data-name="패스 345" d="M326.39,370.07l.75-7.54" fill="none" stroke="#203764" stroke-width="2"/>
      <path id="패스_346" data-name="패스 346" d="M327.14,362.53l.11-17.36" fill="none" stroke="gray" stroke-width="2"/>
      <path id="패스_347" data-name="패스 347" d="M327.25,345.17l.01-7.6" fill="none" stroke="#203764" stroke-width="2"/>
      <path id="패스_348" data-name="패스 348" d="M327.26,337.57l-.01-16.6" fill="none" stroke="gray" stroke-width="2"/>
      <path id="패스_349" data-name="패스 349" d="M327.25,320.97l-.09-7.4" fill="none" stroke="#203764" stroke-width="2"/>
      <path id="패스_350" data-name="패스 350" d="M327.16,313.57,327,295.99" fill="none" stroke="gray" stroke-width="2"/>
      <path id="패스_351" data-name="패스 351" d="M327,295.99l-.06-7.45" fill="none" stroke="#203764" stroke-width="2"/>
      <path id="패스_352" data-name="패스 352" d="M326.94,288.54,326.82,272" fill="none" stroke="gray" stroke-width="2"/>
      <path id="패스_353" data-name="패스 353" d="M326.82,272l-.12-7.39" fill="none" stroke="#203764" stroke-width="2"/>
      <path id="패스_354" data-name="패스 354" d="M326.7,264.61l-.05-17.64" fill="none" stroke="gray" stroke-width="2"/>
      <path id="패스_355" data-name="패스 355" d="M326.65,246.97l-.09-7.39" fill="none" stroke="#203764" stroke-width="2"/>
      <path id="패스_356" data-name="패스 356" d="M326.56,239.58l-.03-16.62" fill="none" stroke="gray" stroke-width="2"/>
      <path id="패스_357" data-name="패스 357" d="M326.53,222.96l-.03-7.43" fill="none" stroke="#203764" stroke-width="2"/>
      <path id="패스_358" data-name="패스 358" d="M326.5,215.53,326.45,198" fill="none" stroke="gray" stroke-width="2"/>
      <path id="패스_359" data-name="패스 359" d="M326.45,198l-.22-7.48" fill="none" stroke="#203764" stroke-width="2"/>
      <path id="패스_360" data-name="패스 360" d="M326.23,190.52l-.05-16.5" fill="none" stroke="gray" stroke-width="2"/>
      <path id="패스_361" data-name="패스 361" d="M326.18,174.02l-.15-7.48" fill="none" stroke="#203764" stroke-width="2"/>
      <path id="패스_362" data-name="패스 362" d="M326.03,166.54l.03-17.55" fill="none" stroke="gray" stroke-width="2"/>
      <path id="패스_363" data-name="패스 363" d="M326.06,148.99l-.09-7.42" fill="none" stroke="#203764" stroke-width="2"/>
      <path id="패스_364" data-name="패스 364" d="M325.97,141.57l-.2-16.56" fill="none" stroke="gray" stroke-width="2"/>
      <path id="패스_365" data-name="패스 365" d="M325.77,125.01l-.82-7.43" fill="none" stroke="#203764" stroke-width="2"/>
      <path id="패스_366" data-name="패스 366" d="M324.95,117.58q-.91-9.75-8.47-14.14c-4.46-2.59-10.71-2.92-15.98-2.85q-46.58.57-87.75.65-1.74,0-3.49-.02-5.62-.07-8.03,1.02-10.04,4.59-10.52,15.53" fill="none" stroke="gray" stroke-width="2"/>
      <path id="패스_367" data-name="패스 367" d="M324.95,117.58l-134.24.19" fill="none" stroke="#9fb6e3" stroke-width="2"/>
      <path id="패스_368" data-name="패스 368" d="M325.77,125.01l-135.48.17" fill="none" stroke="#9fb6e3" stroke-width="2"/>
      <path id="패스_369" data-name="패스 369" d="M325.97,141.57l-135.72.16" fill="none" stroke="#9fb6e3" stroke-width="2"/>
      <path id="패스_370" data-name="패스 370" d="M326.06,148.99l-135.76.19" fill="none" stroke="#9fb6e3" stroke-width="2"/>
      <path id="패스_371" data-name="패스 371" d="M326.03,166.54l-135.61.14" fill="none" stroke="#9fb6e3" stroke-width="2"/>
      <path id="패스_372" data-name="패스 372" d="M326.18,174.02l-135.71.16" fill="none" stroke="#9fb6e3" stroke-width="2"/>
      <path id="패스_373" data-name="패스 373" d="M326.23,190.52l-135.74.17" fill="none" stroke="#9fb6e3" stroke-width="2"/>
      <path id="패스_374" data-name="패스 374" d="M326.45,198l-135.75.17" fill="none" stroke="#9fb6e3" stroke-width="2"/>
      <path id="패스_375" data-name="패스 375" d="M326.5,215.53l-135.72.17" fill="none" stroke="#9fb6e3" stroke-width="2"/>
      <path id="패스_376" data-name="패스 376" d="M326.53,222.96l-135.67.22" fill="none" stroke="#9fb6e3" stroke-width="2"/>
      <path id="패스_377" data-name="패스 377" d="M326.56,239.58l-135.69.16" fill="none" stroke="#9fb6e3" stroke-width="2"/>
      <path id="패스_378" data-name="패스 378" d="M326.65,246.97l-135.79.2" fill="none" stroke="#9fb6e3" stroke-width="2"/>
      <path id="패스_379" data-name="패스 379" d="M326.7,264.61l-135.81.05" fill="none" stroke="#9fb6e3" stroke-width="2"/>
      <path id="패스_380" data-name="패스 380" d="M326.82,272l-135.97.18" fill="none" stroke="#9fb6e3" stroke-width="2"/>
      <path id="패스_381" data-name="패스 381" d="M326.94,288.54q-64.43-.13-128.82.02a22.4,22.4,0,0,0-7.35,1" fill="none" stroke="#9fb6e3" stroke-width="2"/>
      <path id="패스_382" data-name="패스 382" d="M327,295.99q-8.97.2-17.75.21-57.75.06-115.5.01a4.583,4.583,0,0,1-3.03-1.17" fill="none" stroke="#9fb6e3" stroke-width="2"/>
      <path id="패스_383" data-name="패스 383" d="M327.16,313.57l-136.37.12" fill="none" stroke="#9fb6e3" stroke-width="2"/>
      <path id="패스_384" data-name="패스 384" d="M327.25,320.97l-136.42.23" fill="none" stroke="#9fb6e3" stroke-width="2"/>
      <path id="패스_385" data-name="패스 385" d="M327.26,337.57l-136.22.13" fill="none" stroke="#9fb6e3" stroke-width="2"/>
      <path id="패스_386" data-name="패스 386" d="M327.25,345.17l-136.04.02" fill="none" stroke="#9fb6e3" stroke-width="2"/>
      <path id="패스_387" data-name="패스 387" d="M327.14,362.53l-135.61.13" fill="none" stroke="#9fb6e3" stroke-width="2"/>
      <path id="패스_388" data-name="패스 388" d="M326.39,370.07H191.97" fill="none" stroke="#9fb6e3" stroke-width="2"/>
    </g>
    <path id="패스_389" data-name="패스 389" d="M328.86,390.92c-3.03,3.72-9.48,8.29-14.54,7.79a33.95,33.95,0,0,0-4.58-.16c-5.3.2-10.41-.02-15.66.04q-44.17.48-77.57.16a115.172,115.172,0,0,1-13.02-.56c-5.6-.91-11.26-3.22-14.54-7.97a30.018,30.018,0,0,1-5.59-14.65q-.24-2.88-.39-5.58c-.45-7.63-.9-15.07-.9-23-.01-24.32.23-48.67-.06-72.99q-.69-59.21-.79-116.52-.02-8.21-.39-18.42-.34-9.23.08-18.46c.42-9.5,3.74-21.65,12.19-26.26a36.353,36.353,0,0,1,7.08-2.96,24.81,24.81,0,0,1,7.43-.9q19.77.32,37.9-.1c20.03-.48,40.27-.45,60.82-.43q7.36,0,10.85,1.35c11.5,4.46,17.64,15.84,17.78,27.7q.25,21.69.36,42.56c.03,4.91.27,9.58.2,14.43-.22,15.14.33,33.13.09,49.67-.1,7.43.34,14.72.35,21.96q.07,58.32.05,117.26c0,4.06-.28,8.11-.67,12.11C334.84,382.14,332.07,386.98,328.86,390.92ZM190.71,117.77l-.42,7.41-.04,16.55.05,7.45.12,17.5.05,7.5.02,16.51.21,7.48.08,17.53.08,7.48.01,16.56-.01,7.43.03,17.49-.04,7.52-.08,17.38-.05,5.48.07,18.65.04,7.51.21,16.5.17,7.49.32,17.47.44,7.41c-.11,8.48,4.75,16.43,13.42,17.93a31.5,31.5,0,0,0,5.68.5q27.22-.14,55.82-.33c3.84-.02,7.52-.36,11.34-.39q15.45-.12,31.23.07a16.986,16.986,0,0,0,7.42-1.34c6.26-2.94,9.62-9.64,9.51-16.44l.75-7.54.11-17.36.01-7.6-.01-16.6-.09-7.4L327,295.99l-.06-7.45L326.82,272l-.12-7.39-.05-17.64-.09-7.39-.03-16.62-.03-7.43L326.45,198l-.22-7.48-.05-16.5-.15-7.48.03-17.55-.09-7.42-.2-16.56-.82-7.43q-.91-9.75-8.47-14.14c-4.46-2.59-10.71-2.92-15.98-2.85q-46.58.57-87.75.65-1.74,0-3.49-.02-5.62-.07-8.03,1.02Q191.19,106.83,190.71,117.77Z"/>
    <path id="패스_390" data-name="패스 390" d="M324.95,117.58l-134.24.19q.48-10.94,10.52-15.53,2.41-1.09,8.03-1.02,1.75.02,3.49.02,41.17-.08,87.75-.65c5.27-.07,11.52.26,15.98,2.85Q324.04,107.83,324.95,117.58Z" fill="#fff"/>
    <path id="패스_391" data-name="패스 391" d="M351.7,125.32a.413.413,0,0,0-.075.454.437.437,0,0,0,.395.256l6.71-.12a.969.969,0,0,1,1.1.95,1.032,1.032,0,0,1-.01.32,1.182,1.182,0,0,1-1.15,1.11,44.128,44.128,0,0,1-9.56-.06,1.275,1.275,0,0,1-1.13-1.1,2.709,2.709,0,0,1,.64-2.13c2.22-2.71,6.24-6.93,6.11-10.49-.13-3.38-4.12-2.13-6.01-1.32a2.012,2.012,0,0,1-1.76-.03,1.06,1.06,0,0,1-.13-1.81,9.163,9.163,0,0,1,6.7-1.52c4.37.59,4.77,4.99,3.13,8.23A33.106,33.106,0,0,1,351.7,125.32Z"/>
    <path id="패스_392" data-name="패스 392" d="M377.671,129.211c-3.519-.271-6.036-4.852-5.622-10.232s3.6-9.522,7.121-9.251,6.036,4.852,5.622,10.232-3.6,9.521-7.12,9.251Zm.164-2.587c2.086.175,4.048-2.913,4.382-6.9s-1.085-7.357-3.171-7.532-4.048,2.913-4.383,6.9,1.085,7.356,3.171,7.532Z"/>
    <path id="패스_393" data-name="패스 393" d="M324.95,117.58l.82,7.43-135.48.17.42-7.41Z" fill="#3f6dc7"/>
    <path id="패스_394" data-name="패스 394" d="M190.29,125.18l135.48-.17.2,16.56-135.72.16Z" fill="#fff"/>
    <circle id="타원_17" data-name="타원 17" cx="2.11" cy="2.11" r="2.11" transform="translate(363.26 125.4)"/>
    <path id="패스_395" data-name="패스 395" d="M374.8,142.66a4.669,4.669,0,0,1-.02-8.61c3.91-1.81,9.94.57,7.64,5.84-.44,1.01-1.37,1.57-2.04,2.4a.52.52,0,0,0,.19.8c4.54,2.06,5.09,7.69-.06,9.6-6.4,2.37-11.56-4.79-5.62-9.08Q375.67,143.05,374.8,142.66Zm5.55-4.21a1.71,1.71,0,0,0-.96-2.15,4.485,4.485,0,0,0-3.82.11,2.116,2.116,0,0,0-1.114,1.3,2.1,2.1,0,0,0,.224,1.695,5.329,5.329,0,0,0,2.54,2.09.835.835,0,0,0,.87-.07A5.829,5.829,0,0,0,380.35,138.45Zm-4.55,11.51c4.61,2.86,8.74-2.79,2.96-5.39a1.1,1.1,0,0,0-.98.02,5.041,5.041,0,0,0-2.78,3.43,1.79,1.79,0,0,0,.8,1.94Z"/>
    <path id="패스_396" data-name="패스 396" d="M354.86,137.16a6.289,6.289,0,0,1-1.29.64,1.12,1.12,0,0,1-1.36-1.62,5.2,5.2,0,0,1,4.01-2.36q1.78-.23,1.76,1.55l-.16,16.44a1.122,1.122,0,0,1-1.97.82.916.916,0,0,1-.29-.6,90.663,90.663,0,0,1,.07-14.41Q355.72,136.61,354.86,137.16Z"/>
    <path id="패스_397" data-name="패스 397" d="M325.97,141.57l.09,7.42-135.76.19-.05-7.45Z" fill="#3f6dc7"/>
    <path id="패스_398" data-name="패스 398" d="M190.3,149.18l135.76-.19-.03,17.55-135.61.14Z" fill="#fff"/>
    <circle id="타원_18" data-name="타원 18" cx="2.11" cy="2.11" r="2.11" transform="translate(363.26 149.4)"/>
    <path id="패스_399" data-name="패스 399" d="M374.85,168.81q-.03.84.48.17a5.141,5.141,0,0,1,7.75-.82c4.43,4.36-1.17,12.85-7.24,8.98-5.96-3.8-3.76-16.02,2.47-18.75a.958.958,0,0,1,.9.05,1.059,1.059,0,0,1,.58,1.29,1.135,1.135,0,0,1-.48.68A9.971,9.971,0,0,0,374.85,168.81Zm6.87,1.99a2.4,2.4,0,0,0-3.37-1.31c-1.17.43-1.96,1.62-2.77,2.52a.694.694,0,0,0-.15.7C377.01,177.87,383.76,175.19,381.72,170.8Z"/>
    <path id="패스_400" data-name="패스 400" d="M354.86,162.16a6.309,6.309,0,0,1-1.33.65.982.982,0,0,1-1.35-.53,1.109,1.109,0,0,1,.08-1.21,5.417,5.417,0,0,1,4.16-2.27q1.76-.17,1.67,1.59-.41,8.09-.17,16.08a1.465,1.465,0,0,1-.24.84q-.81,1.23-1.8.35a.991.991,0,0,1-.34-.67,93.449,93.449,0,0,1,.1-14.36Q355.72,161.6,354.86,162.16Z"/>
    <path id="패스_401" data-name="패스 401" d="M326.03,166.54l.15,7.48-135.71.16-.05-7.5Z" fill="#3f6dc7"/>
    <path id="패스_402" data-name="패스 402" d="M190.47,174.18l135.71-.16.05,16.5-135.74.17Z" fill="#fff"/>
    <circle id="타원_19" data-name="타원 19" cx="2.11" cy="2.11" r="2.11" transform="translate(363.26 174.4)"/>
    <path id="패스_403" data-name="패스 403" d="M383.34,195.21a2.427,2.427,0,0,1,2.46.42,1.05,1.05,0,0,1-.59,1.83l-1.95.22a.5.5,0,0,0-.5.56l.02,3.37a1,1,0,0,1-.98,1.01,1.275,1.275,0,0,1-1.44-1.28,17.907,17.907,0,0,1-.1-3.02.472.472,0,0,0-.53-.56l-6.47-.13a1.56,1.56,0,0,1-1.49-1.89l2.29-10.56a1.156,1.156,0,0,1,1.15-.99,1.107,1.107,0,0,1,.42.06,1.21,1.21,0,0,1,.88,1.56l-1.9,9.01a.36.36,0,0,0,.35.43h4.75q.53,0,.49-.52a45.805,45.805,0,0,1,.36-10.16.987.987,0,0,1,1.41-.93l.35.09a.945.945,0,0,1,.7.95l-.34,10.01Q382.65,195.41,383.34,195.21Z"/>
    <path id="패스_404" data-name="패스 404" d="M355.62,187.73q.11-1.32-.92-.49-1.67,1.37-2.56-.11a1.09,1.09,0,0,1,.18-1.36,6.465,6.465,0,0,1,4.51-1.97,1.15,1.15,0,0,1,1.16,1.16l-.17,16.97a.553.553,0,0,1-.08.29q-.74,1.27-1.8.49a.985.985,0,0,1-.4-.73A97.792,97.792,0,0,1,355.62,187.73Z"/>
    <path id="패스_405" data-name="패스 405" d="M326.23,190.52l.22,7.48-135.75.17-.21-7.48Z" fill="#3f6dc7"/>
    <path id="패스_406" data-name="패스 406" d="M190.7,198.17,326.45,198l.05,17.53-135.72.17Z" fill="#fff"/>
    <circle id="타원_20" data-name="타원 20" cx="2.11" cy="2.11" r="2.11" transform="translate(363.26 199.4)"/>
    <path id="패스_407" data-name="패스 407" d="M354.85,212.17a7.232,7.232,0,0,1-1.31.64.99.99,0,0,1-1.36-.54,1.091,1.091,0,0,1,.08-1.2,5.4,5.4,0,0,1,4.14-2.27q1.8-.18,1.7,1.62-.44,8.08-.16,15.93a1.191,1.191,0,0,1-.11.54q-.86,1.94-2.06.57a1.02,1.02,0,0,1-.24-.6,96.806,96.806,0,0,1,.1-14.22Q355.72,211.61,354.85,212.17Z"/>
    <path id="패스_408" data-name="패스 408" d="M376.7,224.32a.413.413,0,0,0-.075.454.437.437,0,0,0,.395.256l6.74-.12a.952.952,0,0,1,1.06.86,1.277,1.277,0,0,1,0,.45,1.138,1.138,0,0,1-1.13,1.07,43.616,43.616,0,0,1-9.53-.06,1.375,1.375,0,0,1-1.09-.79,1.745,1.745,0,0,1,.24-1.93c2.15-2.8,6.64-7.47,6.43-11.05-.2-3.33-4.15-2.07-6.03-1.26a1.991,1.991,0,0,1-1.73-.03,1.07,1.07,0,0,1-.13-1.84,9.188,9.188,0,0,1,7.07-1.42c4.08.75,4.27,5.12,2.73,8.17A33.025,33.025,0,0,1,376.7,224.32Z"/>
    <path id="패스_409" data-name="패스 409" d="M190.78,215.7l135.72-.17.03,7.43-135.67.22Z" fill="#3f6dc7"/>
    <path id="패스_410" data-name="패스 410" d="M190.86,223.18l135.67-.22.03,16.62-135.69.16Z" fill="#fff"/>
    <circle id="타원_21" data-name="타원 21" cx="2.11" cy="2.11" r="2.11" transform="translate(363.26 224.4)"/>
    <path id="패스_411" data-name="패스 411" d="M354.85,236.16a6.991,6.991,0,0,1-1.26.64,1.031,1.031,0,0,1-1.45-.62.967.967,0,0,1,.05-.96,5.2,5.2,0,0,1,4.24-2.42q1.75-.18,1.66,1.58-.42,7.79-.17,16.25a1.256,1.256,0,0,1-.91,1.32.777.777,0,0,1-.3.04,1.128,1.128,0,0,1-1.19-1.18,95.3,95.3,0,0,1,.12-14.17Q355.73,235.6,354.85,236.16Z"/>
    <path id="패스_412" data-name="패스 412" d="M377.671,252.211c-3.519-.271-6.036-4.852-5.622-10.231s3.6-9.522,7.121-9.251,6.036,4.852,5.622,10.232-3.6,9.521-7.121,9.251Zm.164-2.587c2.086.175,4.048-2.913,4.382-6.9s-1.085-7.357-3.171-7.532-4.048,2.913-4.382,6.9,1.085,7.357,3.171,7.532Z"/>
    <path id="패스_413" data-name="패스 413" d="M326.56,239.58l.09,7.39-135.79.2.01-7.43Z" fill="#3f6dc7"/>
    <path id="패스_414" data-name="패스 414" d="M190.86,247.17l135.79-.2.05,17.64-135.81.05Z" fill="#fff"/>
    <circle id="타원_22" data-name="타원 22" cx="2.11" cy="2.11" r="2.11" transform="translate(363.26 248.4)"/>
    <path id="패스_415" data-name="패스 415" d="M374.82,266.67a4.667,4.667,0,0,1-.03-8.62c3.93-1.82,9.94.59,7.62,5.87-.44.98-1.37,1.55-2.03,2.37a.526.526,0,0,0-.1.445.5.5,0,0,0,.287.345c4.7,2.15,5.03,7.9-.34,9.7-6.34,2.13-11.13-5.01-5.32-9.18Q375.67,267.06,374.82,266.67Zm4.06-1.64,1.46-2.71a1.23,1.23,0,0,0-.49-1.66l-.51-.28a4.478,4.478,0,0,0-2.638-.553,2.318,2.318,0,0,0-1.822,1.123l-.14.26c-.689,1.272.188,3.08,1.96,4.04l.51.28a1.23,1.23,0,0,0,1.67-.5Zm-3.1,8.92c4.64,2.9,8.77-2.82,2.94-5.39a.975.975,0,0,0-.88.02,4.946,4.946,0,0,0-2.85,3.49,1.78,1.78,0,0,0,.79,1.88Z"/>
    <path id="패스_416" data-name="패스 416" d="M351.671,277.211c-3.519-.271-6.036-4.852-5.622-10.232s3.6-9.522,7.121-9.251,6.036,4.852,5.622,10.232-3.6,9.521-7.121,9.251Zm.164-2.587c2.086.175,4.048-2.913,4.382-6.9s-1.085-7.357-3.171-7.532-4.048,2.913-4.382,6.9,1.085,7.357,3.171,7.532Z"/>
    <path id="패스_417" data-name="패스 417" d="M326.7,264.61l.12,7.39-135.97.18.04-7.52Z" fill="#3f6dc7"/>
    <path id="패스_418" data-name="패스 418" d="M190.85,272.18,326.82,272l.12,16.54q-64.43-.13-128.82.02a22.4,22.4,0,0,0-7.35,1Z" fill="#fff"/>
    <circle id="타원_23" data-name="타원 23" cx="2.11" cy="2.11" r="2.11" transform="translate(363.26 273.4)"/>
    <path id="패스_419" data-name="패스 419" d="M374.85,292.77q-.05.89.49.19c2.07-2.67,5.98-3.07,8.13-.37,2.03,2.55,1.2,7.33-1.93,8.83-3.68,1.76-7.51-.45-8.58-4.19-1.42-4.99-.04-12.42,5.32-14.83a.983.983,0,0,1,.95.05,1.136,1.136,0,0,1,.12,1.94A9.935,9.935,0,0,0,374.85,292.77Zm4.31,6.75c4.21-.29,3.69-7.42-.68-6.07-1.25.39-1.97,1.57-2.85,2.47a.768.768,0,0,0-.19.85Q376.43,299.7,379.16,299.52Z"/>
    <path id="패스_420" data-name="패스 420" d="M351.671,302.211c-3.519-.271-6.036-4.852-5.622-10.232s3.6-9.522,7.121-9.251,6.036,4.852,5.622,10.232-3.6,9.521-7.121,9.251Zm.164-2.587c2.086.175,4.048-2.913,4.382-6.9s-1.085-7.357-3.171-7.532-4.048,2.913-4.382,6.9,1.085,7.357,3.171,7.532Z"/>
    <path id="패스_421" data-name="패스 421" d="M326.94,288.54l.06,7.45q-8.97.2-17.75.21-57.75.06-115.5.01a4.583,4.583,0,0,1-3.03-1.17l.05-5.48a22.4,22.4,0,0,1,7.35-1Q262.51,288.41,326.94,288.54Z" fill="#3f6dc7"/>
    <path id="패스_422" data-name="패스 422" d="M190.72,295.04a4.583,4.583,0,0,0,3.03,1.17q57.75.05,115.5-.01,8.78-.01,17.75-.21l.16,17.58-136.37.12Z" fill="#fff"/>
    <circle id="타원_24" data-name="타원 24" cx="2.11" cy="2.11" r="2.11" transform="translate(363.26 298.4)"/>
    <path id="패스_423" data-name="패스 423" d="M383.51,319.18a2.361,2.361,0,0,1,2.27.42,1.06,1.06,0,0,1-.58,1.86l-1.94.22a.5.5,0,0,0-.5.56l.02,3.38a.99.99,0,0,1-.96.99,1.267,1.267,0,0,1-1.46-1.27,17.864,17.864,0,0,1-.1-3.02.52.52,0,0,0-.51-.56l-6.61-.13a1.466,1.466,0,0,1-1.111-.556,1.444,1.444,0,0,1-.279-1.2l2.35-10.85a.95.95,0,0,1,.49-.65,1.242,1.242,0,0,1,1.08-.11,1.258,1.258,0,0,1,.84,1.58l-1.89,8.92q-.1.49.4.49h4.75a.43.43,0,0,0,.43-.46,47.43,47.43,0,0,1,.35-10.22q.18-1.32,1.46-.92l.4.12a.87.87,0,0,1,.61.87l-.34,9.87Q382.65,319.41,383.51,319.18Z"/>
    <path id="패스_424" data-name="패스 424" d="M351.671,327.211c-3.519-.271-6.036-4.852-5.622-10.232s3.6-9.522,7.121-9.251,6.036,4.852,5.622,10.232-3.6,9.521-7.121,9.251Zm.164-2.587c2.086.175,4.048-2.913,4.383-6.9s-1.085-7.357-3.171-7.532-4.048,2.913-4.383,6.9,1.085,7.356,3.171,7.532Z"/>
    <path id="패스_425" data-name="패스 425" d="M327.16,313.57l.09,7.4-136.42.23-.04-7.51Z" fill="#3f6dc7"/>
    <path id="패스_426" data-name="패스 426" d="M190.83,321.2l136.42-.23.01,16.6-136.22.13Z" fill="#fff"/>
    <circle id="타원_25" data-name="타원 25" cx="2.11" cy="2.11" r="2.11" transform="translate(363.25 323.4)"/>
    <path id="패스_427" data-name="패스 427" d="M351.671,353.211c-3.519-.271-6.036-4.852-5.622-10.232s3.6-9.522,7.121-9.251,6.036,4.852,5.622,10.232-3.6,9.521-7.121,9.251Zm.164-2.587c2.086.175,4.048-2.913,4.383-6.9s-1.085-7.357-3.171-7.532-4.048,2.913-4.383,6.9,1.085,7.356,3.171,7.532Z"/>
    <path id="패스_428" data-name="패스 428" d="M375.69,349.3a.423.423,0,0,0-.079.469.447.447,0,0,0,.409.261l6.76-.12a.942.942,0,0,1,1.02.76,1.758,1.758,0,0,1,.04.27,1.165,1.165,0,0,1-1.17,1.34,44.029,44.029,0,0,1-9.37-.02,1.61,1.61,0,0,1-1.11-2.58c2.16-2.82,6.66-7.48,6.55-11.15-.11-3.4-4.13-2.15-6.03-1.34a1.972,1.972,0,0,1-1.7-.01,1.07,1.07,0,0,1-.16-1.85c2.68-1.86,8.8-2.85,10.31,1.15C382.74,340.66,378.35,346.43,375.69,349.3Z"/>
    <path id="패스_429" data-name="패스 429" d="M327.26,337.57l-.01,7.6-136.04.02-.17-7.49Z" fill="#3f6dc7"/>
    <path id="패스_430" data-name="패스 430" d="M191.21,345.19l136.04-.02-.11,17.36-135.61.13Z" fill="#fff"/>
    <circle id="타원_26" data-name="타원 26" cx="2.11" cy="2.11" r="2.11" transform="translate(363.26 349.4)"/>
    <path id="패스_431" data-name="패스 431" d="M351.671,378.211c-3.519-.271-6.036-4.852-5.622-10.232s3.6-9.522,7.121-9.251,6.036,4.852,5.622,10.232-3.6,9.521-7.121,9.251Zm.164-2.587c2.086.175,4.048-2.913,4.383-6.9s-1.085-7.357-3.171-7.532-4.048,2.913-4.383,6.9,1.085,7.357,3.171,7.532Z"/>
    <path id="패스_432" data-name="패스 432" d="M191.53,362.66l135.61-.13-.75,7.54H191.97Z" fill="#3f6dc7"/>
    <path id="패스_433" data-name="패스 433" d="M191.97,370.07H326.39c.11,6.8-3.25,13.5-9.51,16.44a16.986,16.986,0,0,1-7.42,1.34q-15.78-.19-31.23-.07c-3.82.03-7.5.37-11.34.39q-28.6.19-55.82.33a31.5,31.5,0,0,1-5.68-.5C196.72,386.5,191.86,378.55,191.97,370.07Z" fill="#fff"/>
  </g>
</svg>
