<?xml version="1.0" encoding="UTF-8"?>
<svg id="_레이어_2" data-name="레이어 2" xmlns="http://www.w3.org/2000/svg" viewBox="0 0 157.58 438.01">
  <defs>
    <style>
      .cls-1 {
        fill: #b9b9b9;
      }

      .cls-1, .cls-2, .cls-3 {
        stroke-width: 0px;
      }

      .cls-2 {
        fill: #000;
      }

      .cls-4 {
        stroke: #737373;
      }

      .cls-4, .cls-5, .cls-6 {
        fill: none;
        stroke-width: 2px;
      }

      .cls-5 {
        stroke: #5d5d5d;
      }

      .cls-6 {
        stroke: #cfcfcf;
      }

      .cls-3 {
        fill: #e5e5e5;
      }
    </style>
  </defs>
  <g id="_레이어_1-2" data-name="레이어 1">
    <g>
      <path class="cls-2" d="M136.93,356.7c-.27-.21-.54-.43-.8-.64-3.24-2.61-6.05-5.16-8.41-7.65-1.99-2.1-3.35-4.59-4.1-7.47-.39-1.51-.47-3.41-.26-5.71.59-6.23.74-12.51.85-18.98.09-5.5-1.42-12.08-4.54-19.73-1.57-3.84-.62-8.58-.69-12.76-.07-4.31-.16-8.45-.28-12.44-.07-2.77-1.13-5.86-2.14-8.6-1.8-4.87-3.12-9.96-3.96-15.29-.49-3.17-.51-6.21-.06-9.11,1.05-6.66,1.93-13.77,3.82-20.23.91-3.09,1.34-5.78,1.3-8.07-.06-3.37-1.09-8.23-3.08-14.56-.61-1.93-.66-4.16-.16-6.68.95-4.75,2.3-9.45,4.07-14.11,2.19-5.76,2.95-12.01,5.05-18.05.3-.88.37-1.8.2-2.75-.45-2.56-.61-4.91.14-7.46,1.5-5.09,3.31-10.1,3.03-15.53-.31-5.97-.69-11.89-1.15-17.75-.2-2.5-.5-5-1.33-7.35-1.72-4.86-3.35-9.8-5.52-14.52-1.71-3.71-3.33-7.33-4.86-10.84-1.03-2.35-3.24-5.76-6.65-10.24-3.72-4.88-2.78-13.69-2.25-20.32.64-7.98.19-16.07-1.34-24.28-.57-3.03-.88-6.18-.94-9.47-.05-2.58-.23-5.16-.56-7.74-.31-2.55-.64-5.11-.99-7.66h-6.91c.86,5.49,1.41,11,1.64,16.54.17,4.16.51,7.59,1.01,10.29.93,5,1.37,9.64,1.33,13.92-.05,5.34-.28,11.07-.65,16.56-.49,7.29,1.57,13.76,6.18,19.42,1.81,2.23,2.99,4.25,4.25,6.94,4.02,8.55,7.38,16.99,10.07,25.3.61,1.89.9,4.4.85,7.51-.1,5.53,1.83,12.61.77,17.18-1.14,4.91-2.8,9.59-3.58,14.72-.35,2.36.88,4.62.16,6.76-1.83,5.48-2.65,11.11-4.61,16.57-2.75,7.63-6.61,18.67-3.92,25.62,2.14,5.53,3.44,11.32,1.9,17.3-2.03,7.91-3.54,16.25-4.55,25.02-.25,2.15-.22,4.23.09,6.23,1.13,7.39,2.9,14.26,5.31,20.61.97,2.58,1.46,5,1.45,7.26-.03,6.2-.02,12.75.01,19.66.01,3.65,2.47,8.73,3.64,11.92,1.68,4.58,1.81,10.14,1.63,15.17-.17,4.63-.32,9.36-.46,14.19-.11,3.71.14,6.55.75,8.52,1.66,5.39,5.75,10.07,10.31,13.55,2,1.53,3.32,6.12,6.32,5.41.49-.11.73.08.74.58l.06,4.66c0,.95-.34,1.88-.98,2.59l-7.18,8.01c-.23.26-.51.43-.85.5-1.98.44-3.72-.01-5.68.84-1.47.64-2.8,1.52-3.97,2.65-4.59,5.25-7,11.25-7.24,17.99,1.9,2.17,3.55,2.76,4.94,1.78.88-.62,1.33-1.36,1.35-2.23.09-4.01,1.63-8.06,4.63-12.15,1.11-1.53,2.71-2.55,4.73-2.52,6.44.1,10.95,2.46,16.33,4.99,1.21.57,2.52.81,3.93.72.37-.03.46.12.27.44M154.54,379.83c-.83,1.13-1.13,2.35-.9,3.66.07.38-.08.65-.43.8-1.97.85-3.67,1.99-5.09,3.42-.33.34-.54.27-.62-.2-.18-1.05-.75-1.93-1.78-2.36-3.55-1.48-7.03-3-10.42-4.55-.4-.19-.44-.43-.13-.74,2.97-2.89,6.65-6.33,6.83-10.62.06-1.48.02-2.94-.12-4.38-.12-1.28-.18-1.91.75-2.79"/>
      <path class="cls-4" d="M11.12.71c15.27,15.29,27.33,31.32,36.17,48.08,4.24,8.05,7.49,18.76,9.76,32.13.25,1.43,1.22,3.56,2.91,6.39,1.64,2.74,2.87,5.69,4.67,8.32" vector-effect="non-scaling-stroke"/>
      <path class="cls-4" d="M69.8,103.32c7.18,7.57,11.97,14.53,13.06,24.95.33,3.14,1.16,5.72,2.49,7.74,4.16,6.37,8.54,12.5,10.48,19.89,1.28,4.88.65,10.65.78,15.88.05,1.69.47,3.28,1.26,4.76,2.79,5.25,4.43,10.72,2.76,16.59-1.34,4.73-1.86,9.11-1.57,13.12.17,2.34.35,4.84.53,7.49.16,2.31.41,4.78.75,7.42.61,4.75.08,9.37-1.6,13.85" vector-effect="non-scaling-stroke"/>
      <path class="cls-4" d="M99.11,250.19c1.13,4.91,2.03,9.85,2.69,14.82.41,3.05.42,5.94.05,8.66-.42,3.07-.75,6-.99,8.8-.18,2.09.11,4,.88,5.71,2.84,6.31,4.54,11.54,3.74,18.97-.62,5.72-1.36,11.32-2.21,16.79-.88,5.57.5,11.74,1.64,17.16,1.25,5.97-1,14.73-2.94,21.46-.77,2.67-1.92,5.11-3.45,7.34-1.12,1.64-1.98,4.4-2.96,5.51-2.93,3.29-5.58,6.37-7.97,9.24-4.88,5.88-8.37,8.61-15.85,9.55-1.31.17-2.19.85-2.63,2.05-1.57,4.25-3.78,8.61-6.63,13.09-4.24,6.67-11.38,13.53-17,20.32" vector-effect="non-scaling-stroke"/>
      <path class="cls-6" d="M71.05.71c.82,3.14,2.27,6.07,4.35,8.79.02.03.8.87,2.35,2.52,1.51,1.62,2.44,3.51,2.79,5.66.16.92-.47,1.79-1.39,1.95-.27.04-.54.03-.8-.06-3.07-.99-4.97.23-5.69,3.66-.64,3.07.13,5.31,2.31,6.74,1.46.96,3.17.5,4.8.54.46.01.87.28,1.06.7,1.54,3.39,2.87,6.84,3.99,10.37.65,2.05,1,4.2,1.06,6.47.05,2.07.39,4.25,1.02,6.52.25.89.24,1.83-.04,2.8-1.29,4.58-1.55,9.12-.78,13.63.11.63.32,1.23.65,1.8.89,1.58,1.63,3,2.96,4.26,1.89,1.8,4.52,3.94,5.4,6.44.35,1.01.62,2.02.81,3.01.43,2.3.89,4.55,1.36,6.75.48,2.25,1.58,4.36,3.29,6.35,1.31,1.52,2.46,3.2,3.45,5.04,1.92,3.58,3.22,6.62,3.91,9.11.79,2.91,1.25,6.72,1.38,11.44.05,1.63-.18,3.09-.69,4.39-.79,2.02-1.18,4.14-1.15,6.36.05,3.45-.9,6.63-2.85,9.54-1.47,2.17-2.58,4.79-2.09,7.47.93,5.07,2.26,10.58,3.98,16.52.09.33.09.66-.01.99-1.29,4-2.43,8.66-3.42,13.98-.99,5.31-.73,10.01.79,14.09.17.44.2.89.1,1.35-.7,3.12-1.19,6.44-1.46,9.97-.21,2.66-.12,5.33.28,8.01.56,3.73.43,7.84-.39,12.33-.45,2.44-.85,5.58-.74,7.8.29,5.69.7,10.91,1.23,15.67.29,2.65-.62,6-.19,8.17,1.39,6.95,2.65,13.92,3.76,20.92.4,2.53,1.3,4.76,1.68,7.21.42,2.68,2.57,4.52,1.97,7.36-1,4.7.29,8.79-.12,13.43-.25,2.8-.26,5.55-.04,8.25.16,1.99,1.49,3.41,1.44,5.55-.07,2.43,0,4.85.21,7.24.04.43-.04.86-.24,1.25-1.71,3.33-1.93,6.61-.64,9.85.21.55.33,1.12.36,1.7.06,1.39.48,2.54.32,3.94-.28,2.57.45,5.17,2.2,7.78,1.51,2.25,1.83,4.9,3.1,7.3,1.35,2.54,2.29,5.29,2.82,8.25.06.35-.05.63-.32.84-3.89,2.99-3.02,5.73-2.73,10" vector-effect="non-scaling-stroke"/>
      <path class="cls-4" d="M116.45,382.71c-4.59,5.25-7,11.25-7.24,17.99" vector-effect="non-scaling-stroke"/>
      <path class="cls-5" d="M94.41.71c.86,5.49,1.41,11,1.64,16.54.17,4.16.51,7.59,1.01,10.29.93,5,1.37,9.64,1.33,13.92-.05,5.34-.28,11.07-.65,16.56-.49,7.29,1.57,13.76,6.18,19.42,1.81,2.23,2.99,4.25,4.25,6.94,4.02,8.55,7.38,16.99,10.07,25.3.61,1.89.9,4.4.85,7.51-.1,5.53,1.83,12.61.77,17.18-1.14,4.91-2.8,9.59-3.58,14.72-.35,2.36.88,4.62.16,6.76-1.83,5.48-2.65,11.11-4.61,16.57-2.75,7.63-6.61,18.67-3.92,25.62,2.14,5.53,3.44,11.32,1.9,17.3-2.03,7.91-3.54,16.25-4.55,25.02-.25,2.15-.22,4.23.09,6.23,1.13,7.39,2.9,14.26,5.31,20.61.97,2.58,1.46,5,1.45,7.26-.03,6.2-.02,12.75.01,19.66.01,3.65,2.47,8.73,3.64,11.92,1.68,4.58,1.81,10.14,1.63,15.17-.17,4.63-.32,9.36-.46,14.19-.11,3.71.14,6.55.75,8.52,1.66,5.39,5.75,10.07,10.31,13.55,2,1.53,3.32,6.12,6.32,5.41.49-.11.73.08.74.58l.06,4.66c0,.95-.34,1.88-.98,2.59l-7.18,8.01c-.23.26-.51.43-.85.5-1.98.44-3.72-.01-5.68.84-1.47.64-2.8,1.52-3.97,2.65" vector-effect="non-scaling-stroke"/>
      <path class="cls-3" d="M106.67,417c-3.43,1.06-6.82,2.53-10.15,4.42-2.59,1.48-6.71,3.24-9.64,2.68-1.13-.21-1.92-.49-2.37-.84-2.08-1.59-4.41-2.02-6.99-1.29-.42.12-.72.38-.89.77-2,4.55-8.27,4.58-12.61,4.74-5.93.21-11.62,1.63-17.07,4.26-.96-1.07-1.45-1.77-1.47-2.08,5.62-6.79,12.76-13.65,17-20.32,2.85-4.48,5.06-8.84,6.63-13.09.44-1.2,1.32-1.88,2.63-2.05,7.48-.94,10.97-3.67,15.85-9.55,2.39-2.87,5.04-5.95,7.97-9.24.98-1.11,1.84-3.87,2.96-5.51,1.53-2.23,2.68-4.67,3.45-7.34,1.94-6.73,4.19-15.49,2.94-21.46-1.14-5.42-2.52-11.59-1.64-17.16.85-5.47,1.59-11.07,2.21-16.79.8-7.43-.9-12.66-3.74-18.97-.77-1.71-1.06-3.62-.88-5.71.24-2.8.57-5.73.99-8.8.37-2.72.36-5.61-.05-8.66-.66-4.97-1.56-9.91-2.69-14.82l-.37-15.18c1.68-4.48,2.21-9.1,1.6-13.85-.34-2.64-.59-5.11-.75-7.42-.18-2.65-.36-5.15-.53-7.49-.29-4.01.23-8.39,1.57-13.12,1.67-5.87.03-11.34-2.76-16.59-.79-1.48-1.21-3.07-1.26-4.76-.13-5.23.5-11-.78-15.88-1.94-7.39-6.32-13.52-10.48-19.89-1.33-2.02-2.16-4.6-2.49-7.74-1.09-10.42-5.88-17.38-13.06-24.95l-5.17-7.69c-1.8-2.63-3.03-5.58-4.67-8.32-1.69-2.83-2.66-4.96-2.91-6.39-2.27-13.37-5.52-24.08-9.76-32.13C38.45,32.03,26.4,16,11.12.71h59.93c.82,3.14,2.27,6.07,4.35,8.79.02.03.8.87,2.35,2.52,1.51,1.62,2.44,3.51,2.79,5.66.16.92-.47,1.79-1.39,1.95-.27.04-.54.03-.8-.06-3.07-.99-4.97.23-5.69,3.66-.64,3.07.13,5.31,2.31,6.74,1.46.96,3.17.5,4.8.54.46.01.87.28,1.06.7,1.54,3.39,2.87,6.84,3.99,10.37.65,2.05,1,4.2,1.06,6.47.05,2.07.39,4.25,1.02,6.52.25.89.24,1.83-.04,2.8-1.29,4.58-1.55,9.12-.78,13.63.11.63.32,1.23.65,1.8.89,1.58,1.63,3,2.96,4.26,1.89,1.8,4.52,3.94,5.4,6.44.35,1.01.62,2.02.81,3.01.43,2.3.89,4.55,1.36,6.75.48,2.25,1.58,4.36,3.29,6.35,1.31,1.52,2.46,3.2,3.45,5.04,1.92,3.58,3.22,6.62,3.91,9.11.79,2.91,1.25,6.72,1.38,11.44.05,1.63-.18,3.09-.69,4.39-.79,2.02-1.18,4.14-1.15,6.36.05,3.45-.9,6.63-2.85,9.54-1.47,2.17-2.58,4.79-2.09,7.47.93,5.07,2.26,10.58,3.98,16.52.09.33.09.66-.01.99-1.29,4-2.43,8.66-3.42,13.98-.99,5.31-.73,10.01.79,14.09.17.44.2.89.1,1.35-.7,3.12-1.19,6.44-1.46,9.97-.21,2.66-.12,5.33.28,8.01.56,3.73.43,7.84-.39,12.33-.45,2.44-.85,5.58-.74,7.8.29,5.69.7,10.91,1.23,15.67.29,2.65-.62,6-.19,8.17,1.39,6.95,2.65,13.92,3.76,20.92.4,2.53,1.3,4.76,1.68,7.21.42,2.68,2.57,4.52,1.97,7.36-1,4.7.29,8.79-.12,13.43-.25,2.8-.26,5.55-.04,8.25.16,1.99,1.49,3.41,1.44,5.55-.07,2.43,0,4.85.21,7.24.04.43-.04.86-.24,1.25-1.71,3.33-1.93,6.61-.64,9.85.21.55.33,1.12.36,1.7.06,1.39.48,2.54.32,3.94-.28,2.57.45,5.17,2.2,7.78,1.51,2.25,1.83,4.9,3.1,7.3,1.35,2.54,2.29,5.29,2.82,8.25.06.35-.05.63-.32.84-3.89,2.99-3.02,5.73-2.73,10-4.59,5.25-7,11.25-7.24,17.99-3.08,5.34-2.23,9.21,2.56,11.61.29.15.35.36.16.63"/>
      <path class="cls-1" d="M71.05.71h23.36c.86,5.49,1.41,11,1.64,16.54.17,4.16.51,7.59,1.01,10.29.93,5,1.37,9.64,1.33,13.92-.05,5.34-.28,11.07-.65,16.56-.49,7.29,1.57,13.76,6.18,19.42,1.81,2.23,2.99,4.25,4.25,6.94,4.02,8.55,7.38,16.99,10.07,25.3.61,1.89.9,4.4.85,7.51-.1,5.53,1.83,12.61.77,17.18-1.14,4.91-2.8,9.59-3.58,14.72-.35,2.36.88,4.62.16,6.76-1.83,5.48-2.65,11.11-4.61,16.57-2.75,7.63-6.61,18.67-3.92,25.62,2.14,5.53,3.44,11.32,1.9,17.3-2.03,7.91-3.54,16.25-4.55,25.02-.25,2.15-.22,4.23.09,6.23,1.13,7.39,2.9,14.26,5.31,20.61.97,2.58,1.46,5,1.45,7.26-.03,6.2-.02,12.75.01,19.66.01,3.65,2.47,8.73,3.64,11.92,1.68,4.58,1.81,10.14,1.63,15.17-.17,4.63-.32,9.36-.46,14.19-.11,3.71.14,6.55.75,8.52,1.66,5.39,5.75,10.07,10.31,13.55,2,1.53,3.32,6.12,6.32,5.41.49-.11.73.08.74.58l.06,4.66c0,.95-.34,1.88-.98,2.59l-7.18,8.01c-.23.26-.51.43-.85.5-1.98.44-3.72-.01-5.68.84-1.47.64-2.8,1.52-3.97,2.65-.29-4.27-1.16-7.01,2.73-10,.27-.21.38-.49.32-.84-.53-2.96-1.47-5.71-2.82-8.25-1.27-2.4-1.59-5.05-3.1-7.3-1.75-2.61-2.48-5.21-2.2-7.78.16-1.4-.26-2.55-.32-3.94-.03-.58-.15-1.15-.36-1.7-1.29-3.24-1.07-6.52.64-9.85.2-.39.28-.82.24-1.25-.21-2.39-.28-4.81-.21-7.24.05-2.14-1.28-3.56-1.44-5.55-.22-2.7-.21-5.45.04-8.25.41-4.64-.88-8.73.12-13.43.6-2.84-1.55-4.68-1.97-7.36-.38-2.45-1.28-4.68-1.68-7.21-1.11-7-2.37-13.97-3.76-20.92-.43-2.17.48-5.52.19-8.17-.53-4.76-.94-9.98-1.23-15.67-.11-2.22.29-5.36.74-7.8.82-4.49.95-8.6.39-12.33-.4-2.68-.49-5.35-.28-8.01.27-3.53.76-6.85,1.46-9.97.1-.46.07-.91-.1-1.35-1.52-4.08-1.78-8.78-.79-14.09.99-5.32,2.13-9.98,3.42-13.98.1-.33.1-.66.01-.99-1.72-5.94-3.05-11.45-3.98-16.52-.49-2.68.62-5.3,2.09-7.47,1.95-2.91,2.9-6.09,2.85-9.54-.03-2.22.36-4.34,1.15-6.36.51-1.3.74-2.76.69-4.39-.13-4.72-.59-8.53-1.38-11.44-.69-2.49-1.99-5.53-3.91-9.11-.99-1.84-2.14-3.52-3.45-5.04-1.71-1.99-2.81-4.1-3.29-6.35-.47-2.2-.93-4.45-1.36-6.75-.19-.99-.46-2-.81-3.01-.88-2.5-3.51-4.64-5.4-6.44-1.33-1.26-2.07-2.68-2.96-4.26-.33-.57-.54-1.17-.65-1.8-.77-4.51-.51-9.05.78-13.63.28-.97.29-1.91.04-2.8-.63-2.27-.97-4.45-1.02-6.52-.06-2.27-.41-4.42-1.06-6.47-1.12-3.53-2.45-6.98-3.99-10.37-.19-.42-.6-.69-1.06-.7-1.63-.04-3.34.42-4.8-.54-2.18-1.43-2.95-3.67-2.31-6.74.72-3.43,2.62-4.65,5.69-3.66.89.28,1.85-.21,2.13-1.1.08-.26.1-.53.06-.79-.35-2.15-1.28-4.04-2.79-5.66-1.55-1.65-2.33-2.49-2.35-2.52-2.08-2.72-3.53-5.65-4.35-8.79Z"/>
      <path class="cls-3" d="M118.17,366.93c-2.04,2.24-1.63,8.41-1.71,9.4-.26,3.05-10.16,13.48-12.1,20.64-2.55,9.41,7.58,15.96,7.58,15.96,0,0,7.05-7.22,12.38-9.54,1.9-.83,4.7-1.6,7.68-2.35-.67-1.34-1.17-2.54-1.31-3.36-.46-2.78-7.82-22.34-12.51-30.75Z"/>
      <path class="cls-1" d="M153.64,383.49c-6.71-5.71-8.38-15.35-15.7-19.01l-7.32-3.66s-6.3,5.65-10.5,10.27c2.68,6.28,10.09,23.81,10.55,26.59.14.82.63,2.02,1.31,3.36,5.36-1.35,11.3-2.63,13.64-4.07,3.63-2.23,14.73-7.78,8.02-13.49Z"/>
      <path class="cls-2" d="M136.13,356.06s10.7,9.6,11.44,11.21,3.52,2.19,4.55,4.69,1.89,9.85,4.51,11.87-1.06,4.61-1.06,4.61l-3.15-1.12-21.79-26.5"/>
      <path class="cls-2" d="M62.58,393.31c.23,0,.27.18.11.54-3.07,7.01-6.6,12.91-10.59,17.68-2.16,2.58-4.42,5.08-6.78,7.49-3.66,3.73-6.84,8.23-9.55,12.64-2.39,3.89,1.32,8.63,4.94,5.14,1.51-1.46,3.1-3.84,4.77-7.14,5.62-6.79,12.76-13.65,17-20.32,2.85-4.48,5.06-8.84,6.63-13.09.44-1.2,1.32-1.88,2.63-2.05,7.48-.94,10.97-3.67,15.85-9.55,2.39-2.87,5.04-5.95,7.97-9.24.98-1.11,1.84-3.87,2.96-5.51,1.53-2.23,2.68-4.67,3.45-7.34,1.94-6.73,4.19-15.49,2.94-21.46-1.14-5.42-2.52-11.59-1.64-17.16.85-5.47,1.59-11.07,2.21-16.79.8-7.43-.9-12.66-3.74-18.97-.77-1.71-1.06-3.62-.88-5.71.24-2.8.57-5.73.99-8.8.37-2.72.36-5.61-.05-8.66-.66-4.97-1.56-9.91-2.69-14.82-1.61-5.23-1.73-10.29-.37-15.18,1.68-4.48,2.21-9.1,1.6-13.85-.34-2.64-.59-5.11-.75-7.42-.18-2.65-.36-5.15-.53-7.49-.29-4.01.23-8.39,1.57-13.12,1.67-5.87.03-11.34-2.76-16.59-.79-1.48-1.21-3.07-1.26-4.76-.13-5.23.5-11-.78-15.88-1.94-7.39-6.32-13.52-10.48-19.89-1.33-2.02-2.16-4.6-2.49-7.74-1.09-10.42-5.88-17.38-13.06-24.95-2.29-2.13-4.02-4.7-5.17-7.69-1.8-2.63-3.03-5.58-4.67-8.32-1.69-2.83-2.66-4.96-2.91-6.39-2.27-13.37-5.52-24.08-9.76-32.13C38.45,32.03,26.4,16,11.12.71H.38C-.36,1.05-.02,1.42,1.41,1.82c.48.13.9.32,1.25.58,8.87,6.59,14.59,14.41,21.05,22.48,2.93,3.65,7.05,9.82,12.34,18.5,3.45,5.65,5.97,10.53,7.57,14.65,2.63,6.79,5.02,14.13,5.98,21.28.41,3.03,1.38,6.09,2.89,9.19,2.43,4.95,4.88,9.57,7.35,13.85,2.66,4.61,6.98,7.82,10.18,11.91,3.26,4.16,5.19,8.96,5.78,14.4.36,3.28.99,6.87,2.77,9.69,2.85,4.51,5.57,8.99,8.14,13.42,2.45,4.21,3.44,9.56,2.97,16.03-.27,3.66-.74,7.18,1.1,10.42,2.12,3.75,4.48,8.58,3.15,12.99-.96,3.17-1.58,5.95-1.87,8.33-.35,2.84-.27,6.58.22,11.23.24,2.27.43,4.61.58,7.01.12,1.95.28,3.91.49,5.9.3,2.89.06,5.34-.73,7.36-1.91,4.89-2.4,10.2-1.48,15.93.71,4.35,1.66,8.91,2.85,13.67,1.25,4.98,1.28,11.31.39,16.25-1.01,5.59-.69,11.18,1.78,16.28,2.01,4.14,2.86,7.76,2.57,10.86-.53,5.73-1.45,12.65-2.75,20.76-.35,2.16-.24,5.3.13,7.48.53,3.13,1.11,6.14,1.74,9.05.91,4.26.12,7.66-.64,11.65-.35,1.85-1.1,3.62-2.27,5.33-3.05,4.48-5.76,8.17-8.13,11.07-3.73,4.56-7.86,8.3-12.37,11.2-3.18,3.03-9.14,8.87-11.86,12.74Z"/>
    </g>
  </g>
</svg>