<svg xmlns="http://www.w3.org/2000/svg" width="102.097" height="105.073" viewBox="0 0 102.097 105.073">
  <g id="_14" data-name="14" transform="translate(-4.435 -5.445)">
    <g id="그룹_8" data-name="그룹 8" transform="translate(5.813 6.835)">
      <path id="패스_1" data-name="패스 1" d="M351.2,244.89q.968-.062,1.968-.179l1.964-.229a83.744,83.744,0,0,0,11.581-2.105,33.618,33.618,0,0,0,10.644-4.522,9.828,9.828,0,0,0,4.024-8.8,6.094,6.094,0,0,0-1.046-3.012.178.178,0,0,0-.245-.05c-.667.444-1.123-.143-1.36-.689a21.668,21.668,0,0,1-.976-2.789,5.065,5.065,0,0,1-.175-1.5,15.435,15.435,0,0,0-.253-3.31c-.422-2.175-1.086-4.356-1.358-6.587q-.211-1.719-.257-3.257a46.538,46.538,0,0,1,.147-5.143q.153-1.9.753-6.422.119-.9.189-1.791.036-.482.092-.992.1-.906.141-2.546.143-5.5-.082-8.657a24.2,24.2,0,0,0-1.257-6.258q-.118-.341-.4-.12a11.147,11.147,0,0,1-2.442,1.422c-.723.309-1.51.546-2.115.022" transform="translate(-283.507 -143.293)" fill="none" stroke="#605341" stroke-width="2"/>
      <path id="패스_2" data-name="패스 2" d="M363.2,51.827c-.327-.773.068-.992.765-1.09a3.233,3.233,0,0,0,.97-.277,11.048,11.048,0,0,0,5.137-4.926,16.145,16.145,0,0,0,1.175-3.249q.506-1.916,1.086-3.695a11.749,11.749,0,0,1,1.06-2.328q.912-1.548,1.58-2.982a5.121,5.121,0,0,0,.291-2.6,3.181,3.181,0,0,0-.193-.984,6.307,6.307,0,0,0-3.51-3.7,29.433,29.433,0,0,0-3.781-.926q-3.006-.56-5.764-1.147-2.2-.466-9.27-2.372-5.342-1.438-10.776-2.456-.339-.064-.022.074a7.152,7.152,0,0,1,1.253.693,4.566,4.566,0,0,0,1.679,1.03,28.793,28.793,0,0,0,3.107.45,4.14,4.14,0,0,1,1.8.492,4.448,4.448,0,0,0,2.072.685,3.459,3.459,0,0,1,1.771.536,4.391,4.391,0,0,0,1.625,1.01" transform="translate(-275.972 -17.745)" fill="none" stroke="#70614c" stroke-width="2"/>
      <path id="패스_3" data-name="패스 3" d="M409.36,44.12a15.641,15.641,0,0,1,2.426,1.743c.4.357.508.872.9,1.209a2.672,2.672,0,0,0,.514.351,5.6,5.6,0,0,1,2.251,1.725,3.2,3.2,0,0,0,1.442.95,3.178,3.178,0,0,1,1.826,2.506.082.082,0,0,0,.12.06,10.171,10.171,0,0,0,4.147-4.073" transform="translate(-330.082 -37.807)" fill="none" stroke="#605341" stroke-width="2"/>
      <path id="패스_4" data-name="패스 4" d="M133.811,57.049q.615-.191.845.048c.536.556.016,1.348-.345,1.833a17.282,17.282,0,0,1-6.78,4.928,66.294,66.294,0,0,1-7.595,2.976,89.52,89.52,0,0,1-14.339,3.46q-3.2.472-6.545.637-.207.01-.4.014-2.8.068-5.623,0-.524-.012-1.193-.056a102.962,102.962,0,0,1-16.672-2.619,86.679,86.679,0,0,1-8.589-2.416q-4.4-1.506-9.326-3.679-2.169-.956-4.615-2.332a11.621,11.621,0,0,1-3.854-3.081c-.378-.5-.775-1.263-.3-1.795q.512-.572.92.032" transform="translate(-40.909 -46.267)" fill="none" stroke="#70614c" stroke-width="2"/>
      <path id="패스_5" data-name="패스 5" d="M53.97,41.425a5.617,5.617,0,0,0,2.735,3,54.637,54.637,0,0,0,5.338,2.783.085.085,0,0,0,.133-.066,2.965,2.965,0,0,1,1.536-1.97c.745-.4,1.587-.7,1.914-1.544.651-1.677,1.8-2.323,3.277-3.105a4.6,4.6,0,0,0,1.205-1.034,12.614,12.614,0,0,1,1.87-1.753" transform="translate(-45.481 -32.698)" fill="none" stroke="#605341" stroke-width="2"/>
      <path id="패스_6" data-name="패스 6" d="M37.847,17.467a4.286,4.286,0,0,1,1.767-.9q1.319-.247,2.488-.5a4.33,4.33,0,0,0,1.4-.763,4.069,4.069,0,0,1,2.034-.649,18.75,18.75,0,0,1,3.3.068,7.978,7.978,0,0,0,3.466-.586,11.7,11.7,0,0,1,3.733-.932,16.932,16.932,0,0,1,1.954.157,11.3,11.3,0,0,0,3.886-.131,14.424,14.424,0,0,1,2.239-.355,3.472,3.472,0,0,1,.711.018q.432.054.864.076a17.455,17.455,0,0,1,2.46.349,12.953,12.953,0,0,0,3.43.2q.922-.066,1.793-.068.853,0,1.823.028a.025.025,0,0,0,.028-.026l0,0a.041.041,0,0,0-.04-.048,98.538,98.538,0,0,0-19.456-.815q-.817.046-1.629.066a67.436,67.436,0,0,0-8.515.783q-.841.129-3.4.681c-2.245.484-4.5.831-6.754,1.229a15.126,15.126,0,0,0-3.779,1.179.824.824,0,0,1-.5.064q-.723-.133-1.422-.293a5.691,5.691,0,0,0-3.223.631,7.378,7.378,0,0,1-4.045.361c-2.9-.566-4.765,1.466-6.191,3.631a6.844,6.844,0,0,0-.388.978q-.315.687-.707,1.37c-1.2,2.1-.39,4.263.145,6.332.293,1.131.253,2.348.448,3.5a6.236,6.236,0,0,0,.586,1.777,11.886,11.886,0,0,0,6.031,5.731q.54.235.295.851a.222.222,0,0,1-.042.07.762.762,0,0,1-1.012.235,7.6,7.6,0,0,1-.936-.554q-.141-.1-.1.07a17.656,17.656,0,0,1,.512,5.167,22.489,22.489,0,0,0-.042,3.695,34.615,34.615,0,0,0,.617,3.942A10.391,10.391,0,0,1,21.49,59a14.425,14.425,0,0,0-.438,5.944,36.469,36.469,0,0,0,2.332,7.651,3.716,3.716,0,0,0,.452.847.62.62,0,0,1-.849.894,2.1,2.1,0,0,1-.743-1.016q-.068-.181-.133,0a17.09,17.09,0,0,0-1.261,5.239,12.746,12.746,0,0,0,.438,3.41,35.218,35.218,0,0,0,1.165,3.814.223.223,0,0,1-.026.213q-.675.982-1.283,1.976a22.288,22.288,0,0,1-1.422,2.022Q17.5,92.859,15.955,94.7a5.061,5.061,0,0,0-.876,1.333c-.323.858-1.476.3-1.219-.558q.042-.137-.09-.078c-1.078.488-2.741,1.838-2.366,3.219a11.892,11.892,0,0,0,2.649,4.141,7.4,7.4,0,0,0,2.289,1.621,6.062,6.062,0,0,1,1.492,1.084,8.046,8.046,0,0,0,1.456,1.129,29.081,29.081,0,0,0,3.922,2.01q3.655,1.522,7.547,2.753a58.362,58.362,0,0,0,12.449,2.422c1.346.12,2.643.239,3.956.257q.586.01,1.155.05,2.3.165,5.541.155c.225,0,.456.086.681.084,1.378-.012,2.765.116,4.149.114.874,0,1.773-.036,2.647.044q.46.042,1.129.066,4.774.169,9.226.052,2.378-.064,7.35-.574" transform="translate(-11.35 -12.425)" fill="none" stroke="#70614c" stroke-width="2"/>
      <path id="패스_7" data-name="패스 7" d="M71.978,37.184q-.428-.042-.815-.1a3.884,3.884,0,0,0-.817-.032,24.82,24.82,0,0,0-2.886.261q-.693.133-1.4.2a9,9,0,0,0-.918.139,5.64,5.64,0,0,1-.95.114,25.48,25.48,0,0,0-4.992.687,18.11,18.11,0,0,0-1.91.58q-1.008.363-1.868.715a3.6,3.6,0,0,0-1.452,1.115" transform="translate(-45.481 -32.141)" fill="none" stroke="#d0b38d" stroke-width="2"/>
      <path id="패스_8" data-name="패스 8" d="M422.984,48.59a2.859,2.859,0,0,0-.795-.833.391.391,0,0,1-.129-.149,1.9,1.9,0,0,0-1.207-.968q-3.627-1.127-7.282-2a23.42,23.42,0,0,0-4.211-.518" transform="translate(-330.082 -37.807)" fill="none" stroke="#d0b38d" stroke-width="2"/>
      <path id="패스_9" data-name="패스 9" d="M443.326,183.53l-1.476.872" transform="translate(-356.101 -149.448)" fill="none" stroke="#d0b38d" stroke-width="2"/>
      <path id="패스_10" data-name="패스 10" d="M148.67,163.591q.008-.53-.4-.611a1.121,1.121,0,0,0-.606.116,38.918,38.918,0,0,1-7.131,2.205,103.35,103.35,0,0,1-12.7,1.846q-4.123.329-5.48.343c-3.553.034-7.029.122-10.5-.112q-1.57-.106-3.372-.253a88.215,88.215,0,0,1-13.184-2.06q-1.8-.426-3.779-1.056-5.113-1.623-9.706-3.542a20.1,20.1,0,0,1-3.918-2.085q-.436-.313-.876-.659a.8.8,0,0,0-1.2.221c-.225.416.133.8.476,1.022" transform="translate(-62.92 -128.637)" fill="none" stroke="#70614c" stroke-width="2"/>
      <path id="패스_11" data-name="패스 11" d="M74.669,164.69a2.445,2.445,0,0,0-.713.667,1.055,1.055,0,0,0-.217.845,1.559,1.559,0,0,0,.456.811,8.23,8.23,0,0,0,2,1.4,65.356,65.356,0,0,0,9.288,3.82q1.785.58,3.384,1.06a.1.1,0,0,1,.068.062.067.067,0,0,0,.072.05,1.418,1.418,0,0,1,.7.169.376.376,0,0,0,.2.046.683.683,0,0,1,.325.07,2.736,2.736,0,0,0,.906.167c.5.06.976.271,1.482.343q.49.07.966.167,1.209.253,2.464.5,1.028.2,2.486.378,1.912.233,3.95.57c.261.044.512,0,.769.036q2.613.319,5.059.576.954.1,2.068.157,1.05.054,2.121.106a96.072,96.072,0,0,0,12.345-.179q.464-.038.942-.03a7.63,7.63,0,0,0,.94-.046,23.794,23.794,0,0,1,3.629-.133,1.272,1.272,0,0,1,.546.179,16.546,16.546,0,0,1,4.091,3.53,16.146,16.146,0,0,1,1.894,2.657,14.1,14.1,0,0,1,1.056,2.581" transform="translate(-61.295 -134.361)" fill="none" stroke="#d0b38d" stroke-width="2"/>
      <path id="패스_12" data-name="패스 12" d="M378.88,267.87a62.009,62.009,0,0,1-4.1,5.758.893.893,0,0,0,.741,1.456,1.773,1.773,0,0,0,1.046-.747,34.64,34.64,0,0,0,2.755-3.733.084.084,0,0,1,.143-.022,2.086,2.086,0,0,1,.518.582" transform="translate(-302.239 -216.989)" fill="none" stroke="#70614c" stroke-width="2"/>
      <path id="패스_13" data-name="패스 13" d="M401.66,284.41a8.085,8.085,0,0,0,.213,1.255,12.192,12.192,0,0,1,.265,1.235q.1.835.171,1.673.006.074.139.962a4.289,4.289,0,0,1,.028.98" transform="translate(-323.916 -230.235)" fill="none" stroke="#d0b38d" stroke-width="2"/>
      <path id="패스_14" data-name="패스 14" d="M377.332,314.955q-1.291.036-6.177-.026a.813.813,0,0,0-.249,1.6,11.33,11.33,0,0,0,1.643.068q2.33-.01,4.79-.05" transform="translate(-298.771 -254.675)" fill="none" stroke="#70614c" stroke-width="2"/>
      <path id="패스_15" data-name="패스 15" d="M323.411,323.07a7.993,7.993,0,0,1,.118,2.149.535.535,0,0,1-.257.416c-.522.317-1.2.554-1.687.8q-2.193,1.1-4.261,2.034c-1.711.771-3.446,1.641-5.215,2.428a39.244,39.244,0,0,0-4.517,2.358,3.505,3.505,0,0,1-.705.307,2.239,2.239,0,0,0-.689.383q-.849.679-1.725,1.394a6.314,6.314,0,0,0-1.086,1.165,2.268,2.268,0,0,0-.468,1.4,2.174,2.174,0,0,0,1.49,1.944,3.474,3.474,0,0,0,1.163.388" transform="translate(-244.843 -261.194)" fill="none" stroke="#d0b38d" stroke-width="2"/>
      <path id="패스_16" data-name="패스 16" d="M316.233,409.27a21.086,21.086,0,0,0,.333,3.972,2.366,2.366,0,0,0,2.412,2.165,24.15,24.15,0,0,0,5.217-.295.881.881,0,1,0-.137-1.749q-1.422.084-3.087.283c-.763.092-2.251.233-2.613-.607a3.8,3.8,0,0,1-.3-1.231q-.084-1.08-.092-2.31" transform="translate(-255.503 -330.224)" fill="none" stroke="#f0e0cc" stroke-width="2"/>
      <path id="패스_17" data-name="패스 17" d="M324.95,398.978q1.386-.213,2.753-.448,1.444-.249,2.723-.586c1.741-.456,3.462-.892,5.26-1.231q1.323-.249,2.639-.576a.094.094,0,0,1,.11.127q-1.639,3.834-3.311,7.77-.811,1.912-1.677,3.689a75.654,75.654,0,0,0-3.063,7.207,13.358,13.358,0,0,0-.823,4.828,3.575,3.575,0,0,0,.617,1.544" transform="translate(-262.485 -319.706)" fill="none" stroke="#d0b38d" stroke-width="2"/>
      <path id="패스_18" data-name="패스 18" d="M150.866,169.315a1.182,1.182,0,0,1-.773.8,44.376,44.376,0,0,1-7.294,2.269q-1.657.355-3.906.755a92.157,92.157,0,0,1-9.884,1.211c-1.141.076-2.281.181-3.478.191q-1.562.016-2.789.076c-2.432.122-4.79-.032-7.179-.058-1.229-.014-2.426-.139-3.607-.219a97.959,97.959,0,0,1-9.909-1.189,69.984,69.984,0,0,1-11.634-3.034q-4.49-1.588-7.29-2.779a22.846,22.846,0,0,1-4.633-2.649" transform="translate(-65.117 -134.361)" fill="none" stroke="#605341" stroke-width="2"/>
      <path id="패스_19" data-name="패스 19" d="M317.973,384.016a48.935,48.935,0,0,1,.359-4.962,5.238,5.238,0,0,0,0-.922c-.064-.96-1.374-.841-1.611-.044a11.636,11.636,0,0,0-.365,2.311q-.125,1.637-.118,3.39" transform="translate(-255.508 -304.743)" fill="none" stroke="#dfd2c1" stroke-width="2"/>
      <path id="패스_20" data-name="패스 20" d="M405.768,316.447q1.643,0,3.761-.064a.792.792,0,1,0,0-1.583q-1.892.03-3.771.052" transform="translate(-327.199 -254.571)" fill="none" stroke="#605341" stroke-width="2"/>
      <path id="패스_21" data-name="패스 21" d="M397.223,268.826q1.49,1.576,2.854,2.976c.347.355.566.649,1.012.574.918-.159.99-1.02.416-1.619q-2.044-2.135-3.828-4.131a.152.152,0,0,1-.026-.165,1.46,1.46,0,0,0,.2-.653q-.03-.833-.96-.856-.345-.008-.769.582" transform="translate(-319.479 -214.65)" fill="none" stroke="#605341" stroke-width="2"/>
      <path id="패스_22" data-name="패스 22" d="M130.117,23.572a6.191,6.191,0,0,0-3.312.131q-2.121.731-3.36,1.092a10.97,10.97,0,0,1-1.3.149,3.292,3.292,0,0,1-.872.02,17.925,17.925,0,0,0-3.281-.064,2.8,2.8,0,0,0-1.56.55,2.965,2.965,0,0,1-.976.6,13.514,13.514,0,0,1-2.6.6,6.194,6.194,0,0,0-3.508,2.279,6.273,6.273,0,0,1-1.886,1.474,4.245,4.245,0,0,0-2.309,2.01,4.228,4.228,0,0,1-2.607,2.412,2.511,2.511,0,0,0-.725.619.234.234,0,0,0-.064.213.712.712,0,0,1-.09.512q-.072.116.054.165,2.631,1.062,5.266,2.081a81.7,81.7,0,0,0,12.1,3.6q3.745.819,5.131,1.05,1.452.241,2.882.5" transform="translate(-83.655 -21.222)" fill="none" stroke="#292019" stroke-width="2"/>
      <path id="패스_23" data-name="패스 23" d="M229.47,42.3a67.439,67.439,0,0,0,8.224.908,52.007,52.007,0,0,0,7.623-.084.109.109,0,0,0,.11-.149,2.48,2.48,0,0,1-.052-.617.466.466,0,0,1,.066-.223,2.888,2.888,0,0,1,1.964-1.394,5.491,5.491,0,0,0,.584-.235q.112-.038.052-.137c-.705-1.167,1.356-1.739,2.177-1.829q.145-.016.092-.153a.109.109,0,0,0-.092-.07.115.115,0,0,1-.088-.084,1.747,1.747,0,0,1,1.534-2.464.2.2,0,0,0,.169-.1,4.23,4.23,0,0,0,.629-1.647.183.183,0,0,0-.141-.207q-.189-.04-.247.088a.3.3,0,0,0-.012.213c.2.655-.564,1.191-1,.657-.351-.426-.438-.864-1.09-.942a2.58,2.58,0,0,0-1.807.472c-.231.155-.273.388-.426.6a.209.209,0,0,0,.078.313,1.407,1.407,0,0,1,.866,1.291,1.313,1.313,0,0,1-.566,1.191,1.464,1.464,0,0,1-1.173.257,1.3,1.3,0,0,1-.705-.4,1.5,1.5,0,0,1-.44-.849,1.405,1.405,0,0,1,1.084-1.6.081.081,0,0,0,.051-.056.077.077,0,0,0-.019-.071.969.969,0,0,1,.2-1.426,3.9,3.9,0,0,1,3.267-.93,2.9,2.9,0,0,1,.91.388q.211.12.143-.114a1.468,1.468,0,0,1,.713-1.8.216.216,0,0,0,.1-.189,1.862,1.862,0,0,1,.263-1.074q.145-.239-.124-.311a5.129,5.129,0,0,1-.882-.325q-.795-.382-.287-1.191a.063.063,0,0,0,0-.062.058.058,0,0,0-.052-.031,1.311,1.311,0,0,0-1.335.683.328.328,0,0,1-.181.169.665.665,0,0,1-.9-.657c0-.582.532-.948,1.03-1.141a2.757,2.757,0,0,1,3.484.841q.1.123.157-.022c.209-.516.386-1.012,1.008-1.131q1.765-.339,2.01,1.341a.256.256,0,0,0,.1.173,2.736,2.736,0,0,0,.884.432q.454.123.9.281a.172.172,0,0,0,.175-.03c.217-.175.2-.45.456-.635a1.561,1.561,0,0,1,2-.062,1.648,1.648,0,0,1,.655,1.932.153.153,0,0,0,.1.185,1.792,1.792,0,0,1,.625.345.365.365,0,0,0,.237.088c.825.01,2.052.12,2.2,1.123a.2.2,0,0,0,.11.159.3.3,0,0,1,.135.145q.133.3.259.627a.506.506,0,0,1,.032.243,1.26,1.26,0,0,0,.028.426.161.161,0,0,0,.133.122,5.514,5.514,0,0,1,1.5.458.209.209,0,0,0,.185,0,2.106,2.106,0,0,1,1.785-.137,1.162,1.162,0,0,1,.753,1.494.361.361,0,0,0,.187.4,2.417,2.417,0,0,1,1.026.96.107.107,0,0,0,.157.05l2.388-1.175a.114.114,0,0,0,.062-.163c-.339-.819-.376-1.532-1.293-1.96a4.018,4.018,0,0,1-1.854-1.261c-.6-.928-1.745-1.3-2.591-1.92a3.194,3.194,0,0,1-.777-.97,5.006,5.006,0,0,0-1.295-1.2c-.707-.54-1.671-.779-2.269-1.267a2.943,2.943,0,0,0-1.255-.677q-.584-.1-1.2-.2a5.9,5.9,0,0,1-1.936-.761,2.681,2.681,0,0,0-.8-.249q-1.9-.2-3.482-.486a3.49,3.49,0,0,1-1.661-.757,5.11,5.11,0,0,0-3.406-1.454q-1.625.036-3.275.167a13.365,13.365,0,0,1-2.544-.026q-1.179-.131-2.289-.367a7.686,7.686,0,0,0-1.086-.147,10.3,10.3,0,0,0-3.163.123,11.664,11.664,0,0,1-2.014.325,18.733,18.733,0,0,1-2.844-.034" transform="translate(-186.024 -19.958)" fill="none" stroke="#110b09" stroke-width="2"/>
      <path id="패스_24" data-name="패스 24" d="M229.47,105.613l1.5-.239a.157.157,0,0,0,.137-.121c.2-.725.984-.765,1.59-.958a.892.892,0,0,0,.627-.671.211.211,0,0,0-.048-.193,4.827,4.827,0,0,1-.376-.47,1.074,1.074,0,0,1,.189-1.681,1.886,1.886,0,0,1,.709-.323.34.34,0,0,1,.2.012,3.262,3.262,0,0,1,1.094.669.109.109,0,0,0,.177-.008,1.413,1.413,0,0,0,.351-.739" transform="translate(-186.024 -83.269)" fill="none" stroke="#3a2b22" stroke-width="2"/>
      <path id="패스_25" data-name="패스 25" d="M260.35,96.389q.57-.289.366-1.119" transform="translate(-210.753 -78.768)" fill="none" stroke="#110b09" stroke-width="2"/>
      <path id="패스_26" data-name="패스 26" d="M261.589,56.374a2.8,2.8,0,0,1,1.315-3.426.662.662,0,0,0,.285-.954,4.3,4.3,0,0,1-.253-.853,1.924,1.924,0,0,0-.313-.612,1.326,1.326,0,0,1,.817-2.1,2.1,2.1,0,0,1,.817.008q.271.06.155-.191l-.1-.219a.417.417,0,0,0-.359-.257,3.494,3.494,0,0,1-.93-.187,3.035,3.035,0,0,1-1.08-.88" transform="translate(-211.625 -39.873)" fill="none" stroke="#3a2b22" stroke-width="2"/>
      <path id="패스_27" data-name="패스 27" d="M263.039,41.262a1.077,1.077,0,0,1,1.5.681.5.5,0,0,0,.615.307q.645-.191.406-1.02a1.634,1.634,0,0,0-1.572-1.251q-.643-.056-1.179-.07" transform="translate(-212.723 -34.435)" fill="none" stroke="#110b09" stroke-width="2"/>
      <path id="패스_28" data-name="패스 28" d="M248.235,27.345a1.152,1.152,0,0,1-.5-.426.648.648,0,0,0-.07-.108l-.339-.444a.381.381,0,0,0-.157-.122,10.785,10.785,0,0,1-1.233-.558,4.26,4.26,0,0,1-1.323-1.468" transform="translate(-198.148 -21.871)" fill="none" stroke="#3a2b22" stroke-width="2"/>
      <path id="패스_29" data-name="패스 29" d="M254.364,39.91a2.706,2.706,0,0,0-1.751.767,1.189,1.189,0,0,0-.177,1.466.229.229,0,0,0,.149.122q.855.235,1.018-.592a.235.235,0,0,1,.092-.147,1.477,1.477,0,0,1,.9-.263" transform="translate(-204.277 -34.435)" fill="none" stroke="#292019" stroke-width="2"/>
      <path id="패스_30" data-name="패스 30" d="M250.387,92.2a1.726,1.726,0,0,0-2.424-.448c-1.187.721-.032,2.04.683,1.2q.341-.4.627.04a.666.666,0,0,0,.747.325" transform="translate(-200.423 -75.698)" fill="none" stroke="#292019" stroke-width="2"/>
      <path id="패스_31" data-name="패스 31" d="M301.64,277.253l.026-2.342a.084.084,0,0,1,.082-.084q.737-.022,1.588-.072c.95-.056,1.333-.655,1.354-1.534q.05-1.958-.012-4.284c-.014-.544-.064-1.321-.753-1.317q-3.279.02-5.838.1a.963.963,0,0,0-1.034,1.125q.038,2.217.167,3.994c.056.777-.016,1.787,1.014,1.934a7.571,7.571,0,0,0,1.705.044.1.1,0,0,1,.122.112l-.016,2.33a.114.114,0,0,1-.133.127q-1.914-.044-3.733-.076c-1.221-.022-1.342,1.542.048,1.641q.675.05,1.209.042l8.579-.116a.742.742,0,0,0,.817-.791c.03-.538-.215-.815-.779-.8l-4.29.09a.1.1,0,0,1-.122-.12" transform="translate(-238.679 -216.789)" fill="none" stroke="#70614c" stroke-width="2"/>
      <path id="패스_32" data-name="패스 32" d="M229.908,273.141a.061.061,0,0,1,.068-.07q2.6-.03,5.322-.034a.793.793,0,1,0-.084-1.581q-2.5.024-5.233.046a.087.087,0,0,1-.1-.1l-.05-1.548q0-.076.072-.076,2.777-.038,5.438-.078a.784.784,0,1,0-.068-1.566q-2.938.038-6.005.088-1.1.018-1.048,1.183.108,2.4.171,5.187c.018.819.2,1.647,1.227,1.675q2.769.074,5.812-.048a.661.661,0,0,0,.709-.7l.01-.185a.561.561,0,0,0-.647-.671l-5.48.074a.048.048,0,0,1-.054-.052l-.062-1.55" transform="translate(-185.021 -217.205)" fill="none" stroke="#70614c" stroke-width="2"/>
      <path id="패스_33" data-name="패스 33" d="M138.836,273.018a4.535,4.535,0,0,0,.886-.02.693.693,0,0,0,.687-.811,1.041,1.041,0,0,0-.026-.165.641.641,0,0,0-.677-.538q-1.2-.012-2.623.082c-1.442.1-2.87.114-4.324.139a3.581,3.581,0,0,0-1.1.117c-.645.3-.741,1.219.026,1.4a3.605,3.605,0,0,0,.95.094.109.109,0,0,1,.125.108l.7,5.792q.028.243-.213.2c-1.591-.277-1.625,1.685-.2,1.589q2.858-.193,6.276-.357c.594-.028,1.163-.263,1.048-1-.1-.653-.932-.657-1.44-.582q-.143.022-.145-.122l-.076-5.81q0-.131.129-.122" transform="translate(-107.283 -219.883)" fill="none" stroke="#70614c" stroke-width="2"/>
      <path id="패스_34" data-name="패스 34" d="M190.8,273.226a.8.8,0,0,0-.786-.823h-.044a.8.8,0,0,0-.823.786l-.162,7.133a.8.8,0,0,0,.786.823h.044a.8.8,0,0,0,.823-.786l.162-7.133" transform="translate(-153.602 -220.618)" fill="none" stroke="#70614c" stroke-width="2"/>
      <path id="패스_35" data-name="패스 35" d="M220.787,318.632a4.8,4.8,0,0,0,1.341.155q4.326-.04,8.925-.12a.737.737,0,0,0,.833-.8.253.253,0,0,0,0-.032.665.665,0,0,0-.775-.767q-5.065.131-9.7.054a1.76,1.76,0,0,0-.679.1.69.69,0,0,0-.44.749.651.651,0,0,0,.494.661" transform="translate(-178.673 -256.387)" fill="none" stroke="#70614c" stroke-width="2"/>
      <path id="패스_36" data-name="패스 36" d="M207.623,383.123l.524-3.784a.121.121,0,0,1,.143-.118,27.539,27.539,0,0,0,3.779.022.752.752,0,0,0,.335-.108.887.887,0,0,0,.514-.719q0-.8-.853-.773-2.394.076-4.5-.02a.889.889,0,0,0-1.006.773,29.88,29.88,0,0,0-.621,6.376c0,.576.4,1.05,1.024.783,1.263-.538,1.97-1.285,3.474-1.1a1.9,1.9,0,0,1,1.874,2.209c-.315,2.032-2.615,2.364-4.265,2.042-.58-.116-1.546.032-1.319.876.149.556.763.739,1.273.771,2.3.141,5.508-.211,6.059-3.032a3.451,3.451,0,0,0-2.924-4.418,6.162,6.162,0,0,0-3.394.313q-.139.058-.12-.092" transform="translate(-167.18 -304.88)" fill="none" stroke="#f0e0cc" stroke-width="2"/>
      <path id="패스_37" data-name="패스 37" d="M259.665,380.617a10.792,10.792,0,0,0-.568,6.225c.4,2.048,1.809,4.281,4.282,3.7a5.193,5.193,0,0,0,3.555-3.794,10.853,10.853,0,0,0,.428-3.179,6.757,6.757,0,0,0-1.8-5.008,3.341,3.341,0,0,0-4.974.522,5.8,5.8,0,0,0-.92,1.53" transform="translate(-209.574 -304.925)" fill="none" stroke="#f0e0cc" stroke-width="2"/>
      <path id="패스_38" data-name="패스 38" d="M295.218,36.922a1.2,1.2,0,0,1,1.221.145c.343.323.815,1.145,1.41.717.729-.522-.488-1.637-.88-1.892a2.892,2.892,0,0,0-2.84.185c-.562.38-.653,1.343.185,1.452a.452.452,0,0,0,.4-.157c.155-.185.253-.365.5-.45" transform="translate(-237.457 -30.982)" fill="none" stroke="#110b09" stroke-width="2"/>
      <path id="패스_39" data-name="패스 39" d="M316.616,56.758a1.458,1.458,0,1,0-1.458,1.458,1.458,1.458,0,0,0,1.458-1.458" transform="translate(-253.476 -46.76)" fill="none" stroke="#110b09" stroke-width="2"/>
      <path id="패스_40" data-name="패스 40" d="M279.866,70.192A2.743,2.743,0,0,1,281.3,69.6a.344.344,0,0,1,.287.1c.287.289.6.574,1.02.249a.734.734,0,0,0,.078-.928,1.415,1.415,0,0,0-1.41-.657,3.88,3.88,0,0,0-2.605,1.227.781.781,0,0,0,.181,1.317.5.5,0,0,0,.52-.106c.2-.185.273-.434.5-.611" transform="translate(-225.2 -57.22)" fill="none" stroke="#110b09" stroke-width="2"/>
      <path id="패스_41" data-name="패스 41" d="M291.983,109.8a1.388,1.388,0,0,0,1.591-.974,1.3,1.3,0,0,0-.368-1.482,2.024,2.024,0,0,0-1.723-.534,1.276,1.276,0,0,0-.761,2.3,2.157,2.157,0,0,0,1.261.689" transform="translate(-234.673 -87.994)" fill="none" stroke="#110b09" stroke-width="2"/>
      <path id="패스_42" data-name="패스 42" d="M239.91,34.885a1.245,1.245,0,1,0-1.245,1.245,1.245,1.245,0,0,0,1.245-1.245" transform="translate(-192.39 -29.414)" fill="none" stroke="#3a2b22" stroke-width="2"/>
      <path id="패스_43" data-name="패스 43" d="M188.671,35.731c.127-.6,1-.442,1.331-.187a.726.726,0,0,0,.95,0c.462-.436.1-1-.339-1.241a2.417,2.417,0,0,0-2.466.01c-.454.247-.956.864-.661,1.39a.718.718,0,0,0,.9.323.386.386,0,0,0,.281-.293" transform="translate(-152.331 -29.676)" fill="none" stroke="#292019" stroke-width="2"/>
      <path id="패스_44" data-name="패스 44" d="M213.429,51.117a1.843,1.843,0,0,1,2.293.231.675.675,0,0,0,1,.04q.235-.2.12-.7a.59.59,0,0,0-.122-.245,2.417,2.417,0,0,0-1.532-.9,2.784,2.784,0,0,1-.52-.129.268.268,0,0,0-.2,0c-.4.157-.771.076-1.179.267a2.747,2.747,0,0,0-1.663,1.516c-.247.669.343,1.054.966.841a.287.287,0,0,0,.183-.167,1.469,1.469,0,0,1,.651-.751" transform="translate(-171.69 -42.029)" fill="none" stroke="#292019" stroke-width="2"/>
      <path id="패스_45" data-name="패스 45" d="M161.812,53.542a.737.737,0,0,0,1.333-.086.7.7,0,0,0-.11-.687,2.006,2.006,0,0,0-1.394-.821,2.677,2.677,0,0,0-2.633,1.844c-.131.365-.151.956.283,1.153.518.237.87-.187.98-.639a1.714,1.714,0,0,1,.743-.914.564.564,0,0,1,.8.149" transform="translate(-129.53 -44.069)" fill="none" stroke="#292019" stroke-width="2"/>
      <path id="패스_46" data-name="패스 46" d="M243.77,67.451a.521.521,0,0,0,.372.295q.285.048.635.082a1.026,1.026,0,0,0,.661-.177,1.247,1.247,0,0,0,.607-1.454,1.124,1.124,0,0,0-.6-.789,1.592,1.592,0,0,0-1.111-.078c-.384.09-.673.56-.821.9a.969.969,0,0,0,.169,1.109.55.55,0,0,1,.082.116" transform="translate(-197.192 -54.742)" fill="none" stroke="#3a2b22" stroke-width="2"/>
      <path id="패스_47" data-name="패스 47" d="M187.262,79.372c.257.024.44.283.582.472a.269.269,0,0,0,.151.1c1.2.313,1.109-.99.478-1.46a2.761,2.761,0,0,0-3.854.8.741.741,0,0,0-.006.9.633.633,0,0,0,1.1-.086,1.527,1.527,0,0,1,1.55-.731" transform="translate(-149.981 -64.94)" fill="none" stroke="#292019" stroke-width="2"/>
      <path id="패스_48" data-name="패스 48" d="M133.6,86.378a1.893,1.893,0,0,1,1.589.181c.5.311,1.468.078,1.213-.657a2.133,2.133,0,0,0-1.53-.928,4.548,4.548,0,0,0-1.512.054c-.739.267-1.633.727-1.074,1.673.333.562.934.319,1.155-.185a.244.244,0,0,1,.157-.137" transform="translate(-108.056 -70.5)" fill="none" stroke="#292019" stroke-width="2"/>
      <path id="패스_49" data-name="패스 49" d="M312.619,275.672a.11.11,0,0,0-.11.114l.131,3.757a.12.12,0,0,0,.128.127,38.142,38.142,0,0,0,3.914-.044.45.45,0,0,0,.424-.466l-.133-3.5a.039.039,0,0,0-.044-.042l-4.31.052" transform="translate(-252.523 -223.195)" fill="none" stroke="#70614c" stroke-width="2"/>
      <path id="패스_50" data-name="패스 50" d="M149.963,279.783a.076.076,0,0,0-.08-.074l-2.633.133a.076.076,0,0,0-.072.084l.719,5.884a.076.076,0,0,0,.08.068l2.012-.133a.076.076,0,0,0,.07-.076l-.1-5.886" transform="translate(-120.123 -226.47)" fill="none" stroke="#70614c" stroke-width="2"/>
      <path id="패스_51" data-name="패스 51" d="M269.416,395.386c1.4.113,2.71-1.964,2.925-4.639s-.745-4.934-2.146-5.046-2.71,1.964-2.925,4.639.746,4.934,2.146,5.046" transform="translate(-216.27 -311.346)" fill="none" stroke="#f0e0cc" stroke-width="2"/>
    </g>
    <path id="패스_52" data-name="패스 52" d="M98.944,38.561a1.581,1.581,0,0,1,.185.345,24.7,24.7,0,0,1,1.408,6.294q.143,1.434.181,2.862.108,4.053-.028,7.762-.032.868-.127,1.773-.054.514-.1,1.07t-.114,1.068q-.386,2.88-.7,5.774-.167,1.554-.187,2.836a13.746,13.746,0,0,1-.1,1.39,3.551,3.551,0,0,0,.022,1,5.973,5.973,0,0,1,.078.942,22.413,22.413,0,0,0,.432,4.543q.468,2.175,1.038,4.406a12.041,12.041,0,0,1,.317,3.5,4.34,4.34,0,0,0,.249,1.8,5.108,5.108,0,0,1,.283.958.4.4,0,0,0,.149.247,6.974,6.974,0,0,1,2.484,3,9.162,9.162,0,0,1,.544,2.392,11.64,11.64,0,0,1-2.117,7.772,7.877,7.877,0,0,1-1.641,1.717,23.572,23.572,0,0,1-4.79,2.844A41.093,41.093,0,0,1,89.7,107.2a75.457,75.457,0,0,1-9.019,1.8q-3.6.464-6.671.751-1.657.155-3.237.374a15.067,15.067,0,0,1-1.7.147q-.847.026-1.715.1-.118.01-.229.014-1.675.052-3.183.1c-2.285.08-4.635-.092-6.936-.056-.185,0-.339-.122-.51-.118-1.532.036-3.038-.09-4.531-.086q-.94,0-2.016-.05l-.271-.012q-2.765-.106-5.94-.153a.5.5,0,0,1-.2-.056.285.285,0,0,0-.1-.022q-1.864-.04-3.743-.127c-.153-.006-.275-.08-.4-.082q-1.121-.022-2.293-.147-1.51-.159-2.984-.37-1.9-.269-3.484-.592-1.068-.215-2.185-.49a59.091,59.091,0,0,1-6.344-1.928q-.574-.211-1.147-.388a7.147,7.147,0,0,1-.809-.3q-.378-.169-.807-.323a34.052,34.052,0,0,1-6.481-3.071c-.749-.462-1.321-1.111-2.038-1.627q-.287-.207-.568-.424a4.675,4.675,0,0,0-.586-.39A6.651,6.651,0,0,1,8.1,98.671,19.146,19.146,0,0,1,5.088,94.7a4.367,4.367,0,0,1-.649-1.95,3.444,3.444,0,0,1,.691-2.169,6.411,6.411,0,0,1,2.625-2.115,2.462,2.462,0,0,1,.691-.207c.454-.064.665-.38,1.113-.406a.364.364,0,0,0,.271-.139q1.9-2.346,3.717-4.778a19.319,19.319,0,0,0,1.725-2.793.777.777,0,0,0,.026-.617,32.523,32.523,0,0,1-1.259-4.755,11.408,11.408,0,0,1,.149-4.034A25.154,25.154,0,0,1,15.652,66.2a1.21,1.21,0,0,1,.243-.37.156.156,0,0,0,.036-.179c-.44-1.139-.9-2.281-1.231-3.458a19.906,19.906,0,0,1-.56-2.751q-.034-.255-.086-.494a10.984,10.984,0,0,1-.078-2.191,8.94,8.94,0,0,1,.143-1.488q.084-.486.159-.976.084-.55.221-1.092a16.386,16.386,0,0,0,.37-1.916,4.256,4.256,0,0,0,.026-1.36,7.183,7.183,0,0,1-.135-.862,6.843,6.843,0,0,0-.141-.86,21.248,21.248,0,0,1-.45-2.627q-.05-.494-.12-.964a16.448,16.448,0,0,1-.068-2.283c0-.295.122-.492.123-.773q.014-1.352.006-2.657a3.152,3.152,0,0,0-.086-.721,8.712,8.712,0,0,0-.225-1.352c-.106-.257-.048-.53-.149-.783a1.826,1.826,0,0,1-.062-1.225.16.16,0,0,0-.064-.191,12.792,12.792,0,0,1-3.97-4.782,8.123,8.123,0,0,1-.785-2.478q-.094-.673-.189-1.789a7.932,7.932,0,0,0-.241-1.42q-.207-.775-.438-1.576a7.707,7.707,0,0,1-.311-2.044A9.474,9.474,0,0,1,7.8,18.264a16.331,16.331,0,0,1,.86-1.858,1.733,1.733,0,0,1,.438-.673.367.367,0,0,0,.108-.2,1.87,1.87,0,0,1,.241-.659,13.971,13.971,0,0,1,2.886-3.414,5.856,5.856,0,0,1,3.438-1.239,7.072,7.072,0,0,1,1.631.131,5.374,5.374,0,0,0,2.854-.289q.621-.229,1.271-.478a6.087,6.087,0,0,1,4-.062.259.259,0,0,0,.181-.01,18.528,18.528,0,0,1,4.43-1.295q3.464-.516,6.414-1.159,1.956-.426,3.944-.741a56.827,56.827,0,0,1,6.021-.608.426.426,0,0,0,.118-.026.341.341,0,0,1,.1-.02q2.083-.064,4.123-.133c.171-.006.285-.084.452-.084q4.48-.01,8.963,0c.108,0,.189.088.329.09q2.6.048,5.39.359A98.92,98.92,0,0,1,78.79,8.179q4.727,1.167,9.5,2.466,3.727,1.012,8.74,1.92,1.637.295,3.183.661a9.445,9.445,0,0,1,2.96,1.115,8.2,8.2,0,0,1,3.275,4.49,6.488,6.488,0,0,1-.012,1.992,6.249,6.249,0,0,1-.753,2.866q-.858,1.665-1.747,3.279a5.842,5.842,0,0,0-.414,1.044q-.777,2.671-1.4,4.946a10.683,10.683,0,0,1-.978,2.468,14.494,14.494,0,0,1-2.187,2.968A.117.117,0,0,0,98.944,38.561ZM73.506,108.433q.968-.062,1.968-.179l1.964-.229a83.739,83.739,0,0,0,11.581-2.105A33.618,33.618,0,0,0,99.663,101.4a9.828,9.828,0,0,0,4.024-8.8,6.093,6.093,0,0,0-1.046-3.012.178.178,0,0,0-.245-.05c-.667.444-1.123-.143-1.36-.689a21.661,21.661,0,0,1-.976-2.789,5.066,5.066,0,0,1-.175-1.5,15.432,15.432,0,0,0-.253-3.31c-.422-2.175-1.086-4.356-1.358-6.587q-.211-1.719-.257-3.257a46.531,46.531,0,0,1,.147-5.143q.153-1.9.753-6.422.12-.9.189-1.791.036-.482.092-.992.1-.906.141-2.546.143-5.5-.082-8.657A24.2,24.2,0,0,0,98,39.592q-.118-.341-.4-.12A11.148,11.148,0,0,1,95.153,40.9c-.723.309-1.51.546-2.115.022-.327-.773.068-.992.765-1.09a3.234,3.234,0,0,0,.97-.277,11.048,11.048,0,0,0,5.137-4.926,16.142,16.142,0,0,0,1.175-3.249q.506-1.916,1.086-3.695a11.747,11.747,0,0,1,1.06-2.328q.912-1.548,1.58-2.982a5.121,5.121,0,0,0,.291-2.6,3.183,3.183,0,0,0-.193-.984,6.307,6.307,0,0,0-3.51-3.7,29.432,29.432,0,0,0-3.781-.926q-3.006-.56-5.764-1.147-2.2-.466-9.27-2.372Q77.241,9.2,71.807,8.179q-.339-.064-.022.074a7.15,7.15,0,0,1,1.253.693,4.567,4.567,0,0,0,1.679,1.03,28.794,28.794,0,0,0,3.107.45,4.141,4.141,0,0,1,1.8.492,4.448,4.448,0,0,0,2.072.685,3.459,3.459,0,0,1,1.771.536,4.391,4.391,0,0,0,1.625,1.01,15.641,15.641,0,0,1,2.426,1.743c.4.357.508.872.9,1.209a2.67,2.67,0,0,0,.514.351,5.6,5.6,0,0,1,2.251,1.725,3.2,3.2,0,0,0,1.442.95,3.178,3.178,0,0,1,1.827,2.506.082.082,0,0,0,.12.06,10.171,10.171,0,0,0,4.147-4.073q.615-.191.845.048c.536.556.016,1.348-.345,1.833a17.282,17.282,0,0,1-6.78,4.928A66.291,66.291,0,0,1,84.839,27.4,89.519,89.519,0,0,1,70.5,30.862q-3.2.472-6.545.637-.207.01-.4.014-2.8.068-5.623,0-.524-.012-1.193-.056a102.96,102.96,0,0,1-16.672-2.619,86.675,86.675,0,0,1-8.589-2.416q-4.4-1.506-9.326-3.679-2.169-.956-4.615-2.332a11.621,11.621,0,0,1-3.854-3.081c-.378-.5-.775-1.263-.3-1.795q.512-.572.92.032a5.617,5.617,0,0,0,2.735,3,54.637,54.637,0,0,0,5.338,2.783.085.085,0,0,0,.133-.066,2.965,2.965,0,0,1,1.536-1.97c.745-.4,1.588-.7,1.914-1.544.651-1.677,1.8-2.323,3.277-3.105a4.6,4.6,0,0,0,1.205-1.034,12.613,12.613,0,0,1,1.87-1.753,4.286,4.286,0,0,1,1.767-.9q1.319-.247,2.488-.5a4.33,4.33,0,0,0,1.4-.763A4.069,4.069,0,0,1,40,9.065a18.75,18.75,0,0,1,3.3.068,7.978,7.978,0,0,0,3.466-.586A11.7,11.7,0,0,1,50.5,7.615a16.932,16.932,0,0,1,1.954.157,11.3,11.3,0,0,0,3.886-.131,14.423,14.423,0,0,1,2.239-.355,3.472,3.472,0,0,1,.711.018q.432.054.864.076a17.455,17.455,0,0,1,2.46.349,12.953,12.953,0,0,0,3.43.2q.922-.066,1.793-.068.853,0,1.823.028a.025.025,0,0,0,.028-.026l0,0a.041.041,0,0,0-.04-.048A98.538,98.538,0,0,0,50.2,7q-.817.046-1.629.066a67.437,67.437,0,0,0-8.515.783q-.841.129-3.4.681c-2.245.484-4.5.831-6.754,1.229a15.126,15.126,0,0,0-3.779,1.179.824.824,0,0,1-.5.064q-.723-.133-1.422-.293a5.691,5.691,0,0,0-3.223.631,7.378,7.378,0,0,1-4.045.361c-2.9-.566-4.765,1.466-6.191,3.631a6.844,6.844,0,0,0-.388.978q-.315.687-.707,1.37c-1.2,2.1-.39,4.263.145,6.332.293,1.131.253,2.348.448,3.5a6.236,6.236,0,0,0,.586,1.777,11.886,11.886,0,0,0,6.031,5.731q.54.235.295.851a.222.222,0,0,1-.042.07.762.762,0,0,1-1.012.235,7.6,7.6,0,0,1-.936-.554q-.141-.1-.1.07a17.656,17.656,0,0,1,.512,5.167,22.489,22.489,0,0,0-.042,3.695,34.615,34.615,0,0,0,.617,3.942,10.391,10.391,0,0,1-.185,4.914,14.425,14.425,0,0,0-.438,5.944A36.469,36.469,0,0,0,17.847,67a3.716,3.716,0,0,0,.452.847.62.62,0,0,1-.849.894,2.1,2.1,0,0,1-.743-1.016q-.068-.181-.133,0a17.09,17.09,0,0,0-1.261,5.239,12.745,12.745,0,0,0,.438,3.41,35.218,35.218,0,0,0,1.165,3.814.223.223,0,0,1-.026.213q-.675.982-1.283,1.976A22.29,22.29,0,0,1,14.186,84.4q-2.223,2.866-3.769,4.707a5.061,5.061,0,0,0-.876,1.333c-.323.858-1.476.3-1.219-.558q.042-.137-.09-.078c-1.078.488-2.741,1.838-2.366,3.219a11.892,11.892,0,0,0,2.649,4.141A7.4,7.4,0,0,0,10.8,98.788,6.062,6.062,0,0,1,12.3,99.872,8.046,8.046,0,0,0,13.752,101a29.081,29.081,0,0,0,3.922,2.01q3.655,1.522,7.547,2.753a58.362,58.362,0,0,0,12.449,2.422c1.346.12,2.643.239,3.956.257q.586.01,1.155.05,2.3.165,5.541.155c.225,0,.456.086.681.084,1.378-.012,2.765.116,4.149.114.874,0,1.773-.036,2.647.044q.46.042,1.129.066,4.774.169,9.226.052Q68.534,108.943,73.506,108.433ZM52.275,9.185a6.191,6.191,0,0,0-3.312.131q-2.121.731-3.36,1.092a10.97,10.97,0,0,1-1.3.149,3.293,3.293,0,0,1-.872.02,17.924,17.924,0,0,0-3.281-.064,2.8,2.8,0,0,0-1.56.55,2.965,2.965,0,0,1-.976.6,13.515,13.515,0,0,1-2.6.6A6.194,6.194,0,0,0,31.5,14.543a6.274,6.274,0,0,1-1.886,1.474,4.245,4.245,0,0,0-2.309,2.01A4.228,4.228,0,0,1,24.7,20.439a2.51,2.51,0,0,0-.725.619.234.234,0,0,0-.064.213.712.712,0,0,1-.09.512q-.072.116.054.165,2.631,1.062,5.266,2.081a81.7,81.7,0,0,0,12.1,3.6q3.745.819,5.131,1.05,1.452.241,2.882.5a67.441,67.441,0,0,0,8.224.908A52.008,52.008,0,0,0,65.106,30a.109.109,0,0,0,.11-.149,2.478,2.478,0,0,1-.052-.617.466.466,0,0,1,.066-.223,2.888,2.888,0,0,1,1.964-1.394,5.49,5.49,0,0,0,.584-.235q.112-.038.052-.137c-.705-1.167,1.356-1.739,2.177-1.829q.145-.016.092-.153a.109.109,0,0,0-.092-.07.115.115,0,0,1-.088-.084,1.747,1.747,0,0,1,1.534-2.464.2.2,0,0,0,.169-.1,4.229,4.229,0,0,0,.629-1.647.183.183,0,0,0-.141-.207q-.189-.04-.247.088a.3.3,0,0,0-.012.213c.2.655-.564,1.191-1,.657-.351-.426-.438-.864-1.09-.942a2.58,2.58,0,0,0-1.807.472c-.231.155-.273.388-.426.6a.209.209,0,0,0,.078.313,1.407,1.407,0,0,1,.866,1.291,1.313,1.313,0,0,1-.566,1.191,1.464,1.464,0,0,1-1.173.257,1.3,1.3,0,0,1-.705-.4,1.5,1.5,0,0,1-.44-.849,1.405,1.405,0,0,1,1.084-1.6.081.081,0,0,0,.051-.056.076.076,0,0,0-.019-.071.969.969,0,0,1,.2-1.426,3.9,3.9,0,0,1,3.267-.93,2.9,2.9,0,0,1,.91.388q.211.12.143-.114a1.468,1.468,0,0,1,.713-1.8.216.216,0,0,0,.1-.189,1.862,1.862,0,0,1,.263-1.074q.145-.239-.124-.311a5.129,5.129,0,0,1-.882-.325q-.795-.382-.287-1.191a.063.063,0,0,0,0-.062.058.058,0,0,0-.052-.031,1.311,1.311,0,0,0-1.335.683.328.328,0,0,1-.181.169.665.665,0,0,1-.9-.657c0-.582.532-.948,1.03-1.141a2.757,2.757,0,0,1,3.484.841q.1.123.157-.022c.209-.516.386-1.012,1.008-1.131q1.765-.339,2.01,1.341a.256.256,0,0,0,.1.173,2.737,2.737,0,0,0,.884.432q.454.123.9.281a.172.172,0,0,0,.175-.03c.217-.175.2-.45.456-.635a1.561,1.561,0,0,1,2-.062,1.648,1.648,0,0,1,.655,1.932.153.153,0,0,0,.1.185,1.792,1.792,0,0,1,.625.345.365.365,0,0,0,.237.088c.825.01,2.052.12,2.2,1.123a.2.2,0,0,0,.11.159A.294.294,0,0,1,84.8,19q.133.3.259.627a.506.506,0,0,1,.032.243,1.261,1.261,0,0,0,.028.426.161.161,0,0,0,.133.121,5.514,5.514,0,0,1,1.5.458.209.209,0,0,0,.185,0,2.106,2.106,0,0,1,1.785-.137,1.162,1.162,0,0,1,.753,1.494.361.361,0,0,0,.187.4,2.417,2.417,0,0,1,1.026.96.107.107,0,0,0,.157.05l2.388-1.175a.114.114,0,0,0,.062-.163c-.339-.819-.376-1.532-1.293-1.96a4.019,4.019,0,0,1-1.854-1.261c-.6-.928-1.745-1.3-2.591-1.92a3.194,3.194,0,0,1-.777-.97,5.005,5.005,0,0,0-1.295-1.2c-.707-.54-1.671-.779-2.269-1.267a2.942,2.942,0,0,0-1.255-.677q-.584-.1-1.2-.2a5.9,5.9,0,0,1-1.936-.761,2.681,2.681,0,0,0-.8-.249q-1.9-.2-3.482-.486a3.49,3.49,0,0,1-1.661-.757,5.11,5.11,0,0,0-3.406-1.454q-1.625.036-3.275.167a13.365,13.365,0,0,1-2.544-.026q-1.179-.131-2.289-.367A7.685,7.685,0,0,0,60.3,8.77a10.3,10.3,0,0,0-3.163.123,11.664,11.664,0,0,1-2.014.325A18.733,18.733,0,0,1,52.275,9.185Z"/>
    <path id="패스_53" data-name="패스 53" d="M37.847,17.467q-.428-.042-.815-.1a3.884,3.884,0,0,0-.817-.032,24.82,24.82,0,0,0-2.886.261q-.693.133-1.4.2a9.006,9.006,0,0,0-.918.139,5.639,5.639,0,0,1-.95.114,25.48,25.48,0,0,0-4.992.687,18.109,18.109,0,0,0-1.91.58q-1.008.363-1.868.715a3.6,3.6,0,0,0-1.452,1.115q-.408-.6-.92-.032c-.474.532-.078,1.295.3,1.795A11.621,11.621,0,0,0,23.074,26q2.446,1.376,4.615,2.332,4.93,2.173,9.326,3.679A86.674,86.674,0,0,0,45.6,34.424a102.96,102.96,0,0,0,16.672,2.619q.669.044,1.193.056,2.818.072,5.623,0,.193,0,.4-.014,3.348-.165,6.545-.637a89.518,89.518,0,0,0,14.339-3.46,66.29,66.29,0,0,0,7.595-2.976,17.282,17.282,0,0,0,6.78-4.928c.361-.484.88-1.277.345-1.833q-.229-.239-.845-.048a2.859,2.859,0,0,0-.795-.833.391.391,0,0,1-.129-.149,1.9,1.9,0,0,0-1.207-.968q-3.627-1.127-7.282-2a23.42,23.42,0,0,0-4.211-.518A4.391,4.391,0,0,1,89,17.728a3.459,3.459,0,0,0-1.771-.536,4.448,4.448,0,0,1-2.072-.685,4.141,4.141,0,0,0-1.8-.492,28.793,28.793,0,0,1-3.107-.45,4.567,4.567,0,0,1-1.679-1.03,7.15,7.15,0,0,0-1.253-.693q-.317-.137.022-.074,5.434,1.018,10.776,2.456,7.071,1.906,9.27,2.372,2.759.588,5.764,1.147a29.433,29.433,0,0,1,3.781.926,6.307,6.307,0,0,1,3.51,3.7,3.183,3.183,0,0,1,.193.984,5.121,5.121,0,0,1-.291,2.6q-.667,1.434-1.58,2.982a11.745,11.745,0,0,0-1.06,2.328q-.58,1.779-1.086,3.695a16.142,16.142,0,0,1-1.175,3.249,11.048,11.048,0,0,1-5.137,4.926,3.234,3.234,0,0,1-.97.277c-.7.1-1.092.317-.765,1.09l-1.476.872q.008-.53-.4-.612a1.121,1.121,0,0,0-.606.116,38.917,38.917,0,0,1-7.131,2.2,103.353,103.353,0,0,1-12.7,1.846q-4.123.329-5.48.343c-3.553.034-7.029.122-10.5-.112q-1.57-.106-3.372-.253a88.209,88.209,0,0,1-13.184-2.06q-1.8-.426-3.779-1.056-5.113-1.623-9.706-3.542a20.1,20.1,0,0,1-3.918-2.085q-.436-.313-.876-.659a.8.8,0,0,0-1.2.221c-.225.416.133.8.476,1.022a2.445,2.445,0,0,0-.713.667,1.055,1.055,0,0,0-.217.845,1.559,1.559,0,0,0,.456.811,8.23,8.23,0,0,0,2,1.4,65.354,65.354,0,0,0,9.288,3.82q1.785.58,3.384,1.06a.1.1,0,0,1,.068.062.067.067,0,0,0,.072.05,1.418,1.418,0,0,1,.7.169.376.376,0,0,0,.2.046.683.683,0,0,1,.325.07,2.735,2.735,0,0,0,.906.167c.5.06.976.271,1.482.343q.49.07.966.167,1.209.253,2.464.5,1.028.2,2.486.378,1.912.233,3.95.57c.261.044.512,0,.769.036q2.613.319,5.059.576.954.1,2.068.157,1.05.054,2.121.106a96.075,96.075,0,0,0,12.346-.179q.464-.038.942-.03a7.634,7.634,0,0,0,.94-.046,23.793,23.793,0,0,1,3.629-.133,1.273,1.273,0,0,1,.546.179,16.547,16.547,0,0,1,4.091,3.53,16.147,16.147,0,0,1,1.894,2.657,14.1,14.1,0,0,1,1.056,2.581,62,62,0,0,1-4.1,5.758.893.893,0,0,0,.741,1.456,1.773,1.773,0,0,0,1.046-.747,34.638,34.638,0,0,0,2.755-3.733.084.084,0,0,1,.143-.022,2.086,2.086,0,0,1,.518.582,8.087,8.087,0,0,0,.213,1.255,12.192,12.192,0,0,1,.265,1.235q.1.835.171,1.673.006.074.139.962a4.285,4.285,0,0,1,.028.98q-1.291.036-6.177-.026a.813.813,0,0,0-.249,1.6,11.338,11.338,0,0,0,1.643.068q2.33-.01,4.79-.05a7.993,7.993,0,0,1,.118,2.149.535.535,0,0,1-.257.416c-.522.317-1.2.554-1.687.8q-2.193,1.1-4.261,2.034c-1.711.771-3.446,1.641-5.215,2.428A39.242,39.242,0,0,0,74.1,84.485a3.5,3.5,0,0,1-.705.307,2.24,2.24,0,0,0-.689.382q-.849.679-1.725,1.394a6.314,6.314,0,0,0-1.086,1.165,2.268,2.268,0,0,0-.468,1.4,2.174,2.174,0,0,0,1.49,1.944,3.475,3.475,0,0,0,1.163.388,21.087,21.087,0,0,0,.333,3.972,2.366,2.366,0,0,0,2.412,2.165,24.15,24.15,0,0,0,5.217-.295.881.881,0,1,0-.137-1.749q-1.422.084-3.087.283c-.763.092-2.251.233-2.613-.608a3.805,3.805,0,0,1-.3-1.231q-.084-1.08-.092-2.311,1.386-.213,2.753-.448,1.444-.249,2.723-.586c1.741-.456,3.462-.892,5.26-1.231q1.323-.249,2.639-.576a.094.094,0,0,1,.11.127q-1.639,3.834-3.31,7.77-.811,1.912-1.677,3.689a75.679,75.679,0,0,0-3.063,7.207,13.358,13.358,0,0,0-.823,4.828,3.575,3.575,0,0,0,.617,1.544q-4.972.51-7.35.574-4.452.118-9.226-.052-.669-.024-1.129-.066c-.874-.08-1.773-.044-2.647-.044-1.384,0-2.771-.125-4.149-.114-.225,0-.456-.086-.681-.084q-3.239.01-5.541-.155-.57-.04-1.155-.05c-1.313-.018-2.609-.137-3.956-.257a58.362,58.362,0,0,1-12.449-2.422q-3.892-1.231-7.547-2.753a29.081,29.081,0,0,1-3.922-2.01,8.046,8.046,0,0,1-1.456-1.129,6.062,6.062,0,0,0-1.492-1.084,7.4,7.4,0,0,1-2.289-1.621A11.892,11.892,0,0,1,11.4,98.615c-.374-1.38,1.289-2.731,2.366-3.219q.131-.06.09.078c-.257.859.9,1.416,1.219.558a5.061,5.061,0,0,1,.876-1.333q1.546-1.84,3.769-4.707a22.288,22.288,0,0,0,1.422-2.022q.608-.994,1.283-1.976a.223.223,0,0,0,.026-.213,35.218,35.218,0,0,1-1.165-3.814,12.746,12.746,0,0,1-.438-3.41,17.09,17.09,0,0,1,1.261-5.239q.066-.183.133,0a2.1,2.1,0,0,0,.743,1.016.62.62,0,0,0,.849-.894,3.716,3.716,0,0,1-.452-.847,36.469,36.469,0,0,1-2.332-7.651A14.425,14.425,0,0,1,21.49,59a10.391,10.391,0,0,0,.185-4.914,34.615,34.615,0,0,1-.617-3.942,22.489,22.489,0,0,1,.042-3.695,17.656,17.656,0,0,0-.512-5.167q-.038-.167.1-.07a7.6,7.6,0,0,0,.936.554.762.762,0,0,0,1.012-.235.222.222,0,0,0,.042-.07q.245-.615-.295-.851a11.886,11.886,0,0,1-6.031-5.731A6.236,6.236,0,0,1,15.77,33.1c-.2-1.155-.155-2.372-.448-3.5-.536-2.07-1.348-4.233-.145-6.332q.392-.683.707-1.37a6.844,6.844,0,0,1,.388-.978c1.426-2.165,3.289-4.2,6.191-3.631a7.378,7.378,0,0,0,4.045-.361,5.691,5.691,0,0,1,3.223-.631q.7.159,1.422.293a.824.824,0,0,0,.5-.064,15.126,15.126,0,0,1,3.779-1.179c2.251-.4,4.51-.745,6.754-1.229q2.56-.552,3.4-.681a67.436,67.436,0,0,1,8.515-.783q.813-.02,1.629-.066a98.538,98.538,0,0,1,19.456.815.041.041,0,0,1,.04.048l0,0a.025.025,0,0,1-.028.026q-.97-.03-1.823-.028-.87,0-1.793.068a12.953,12.953,0,0,1-3.43-.2,17.455,17.455,0,0,0-2.46-.349q-.432-.022-.864-.076a3.472,3.472,0,0,0-.711-.018,14.424,14.424,0,0,0-2.239.355,11.3,11.3,0,0,1-3.886.131,16.932,16.932,0,0,0-1.954-.157,11.7,11.7,0,0,0-3.733.932,7.978,7.978,0,0,1-3.466.586,18.75,18.75,0,0,0-3.3-.068,4.069,4.069,0,0,0-2.034.649,4.33,4.33,0,0,1-1.4.763q-1.169.255-2.488.5A4.286,4.286,0,0,0,37.847,17.467ZM74.31,72.889l.026-2.342a.084.084,0,0,1,.082-.084q.737-.022,1.588-.072c.95-.056,1.333-.655,1.354-1.534q.05-1.958-.012-4.284c-.014-.544-.064-1.321-.753-1.317q-3.279.02-5.838.1a.963.963,0,0,0-1.034,1.125q.038,2.217.167,3.994c.056.777-.016,1.787,1.014,1.934a7.57,7.57,0,0,0,1.705.044.1.1,0,0,1,.121.112l-.016,2.33a.114.114,0,0,1-.133.127q-1.914-.044-3.733-.076c-1.221-.022-1.343,1.542.048,1.641q.675.05,1.209.042l8.579-.116a.742.742,0,0,0,.817-.791c.03-.538-.215-.815-.779-.8l-4.29.09A.1.1,0,0,1,74.31,72.889ZM56.236,68.361a.061.061,0,0,1,.068-.07q2.6-.03,5.322-.034a.793.793,0,1,0-.084-1.582q-2.5.024-5.233.046a.087.087,0,0,1-.1-.1l-.05-1.548q0-.076.072-.076,2.777-.038,5.438-.078A.784.784,0,1,0,61.6,63.36q-2.938.038-6.005.088-1.1.018-1.048,1.183.108,2.4.171,5.187c.018.819.2,1.647,1.227,1.675q2.769.074,5.812-.048a.661.661,0,0,0,.709-.7l.01-.185a.561.561,0,0,0-.647-.671l-5.48.074a.048.048,0,0,1-.054-.052ZM42.9,65.561a4.534,4.534,0,0,0,.886-.02.693.693,0,0,0,.687-.811,1.041,1.041,0,0,0-.026-.165.641.641,0,0,0-.677-.538q-1.2-.012-2.623.082c-1.442.1-2.87.114-4.324.139a3.58,3.58,0,0,0-1.1.118c-.645.3-.741,1.219.026,1.4a3.6,3.6,0,0,0,.95.094.109.109,0,0,1,.125.108l.7,5.792q.028.243-.213.2c-1.591-.277-1.625,1.685-.2,1.59q2.858-.193,6.276-.357c.594-.028,1.163-.263,1.048-1-.1-.653-.932-.657-1.44-.582q-.143.022-.145-.121l-.076-5.81Q42.771,65.551,42.9,65.561Zm5.644-.528a.8.8,0,0,0-.786-.823h-.044a.8.8,0,0,0-.823.786l-.162,7.133a.8.8,0,0,0,.786.823h.044a.8.8,0,0,0,.823-.786Zm4.917,9.637a4.8,4.8,0,0,0,1.341.155q4.326-.04,8.926-.12a.737.737,0,0,0,.833-.8.255.255,0,0,0,0-.032.665.665,0,0,0-.775-.767q-5.065.131-9.7.054a1.76,1.76,0,0,0-.679.1.69.69,0,0,0-.44.749A.651.651,0,0,0,53.463,74.669Zm-1.671,16,.524-3.785a.121.121,0,0,1,.143-.118,27.548,27.548,0,0,0,3.779.022.753.753,0,0,0,.335-.108.887.887,0,0,0,.514-.719q0-.8-.853-.773-2.394.076-4.5-.02a.889.889,0,0,0-1.006.773,29.88,29.88,0,0,0-.621,6.376c0,.576.4,1.05,1.024.783,1.263-.538,1.97-1.285,3.474-1.1a1.9,1.9,0,0,1,1.874,2.209c-.315,2.032-2.615,2.364-4.265,2.042-.58-.116-1.546.032-1.319.876.149.556.763.739,1.273.771,2.3.141,5.507-.211,6.059-3.032a3.451,3.451,0,0,0-2.924-4.418,6.163,6.163,0,0,0-3.394.313Q51.772,90.817,51.792,90.668Zm9.649-2.552a10.793,10.793,0,0,0-.568,6.225c.4,2.048,1.809,4.28,4.282,3.7a5.193,5.193,0,0,0,3.555-3.794,10.852,10.852,0,0,0,.428-3.179,6.756,6.756,0,0,0-1.8-5.008,3.341,3.341,0,0,0-4.974.522A5.806,5.806,0,0,0,61.441,88.116Z" transform="translate(-5.537 -5.59)" fill="#e0c198"/>
    <path id="패스_54" data-name="패스 54" d="M229.47,42.3l1.5-.239a.157.157,0,0,0,.137-.122c.2-.725.984-.765,1.59-.958a.892.892,0,0,0,.627-.671.211.211,0,0,0-.048-.193,4.827,4.827,0,0,1-.376-.47,1.074,1.074,0,0,1,.189-1.681,1.886,1.886,0,0,1,.709-.323.34.34,0,0,1,.2.012,3.262,3.262,0,0,1,1.094.669.109.109,0,0,0,.177-.008,1.413,1.413,0,0,0,.351-.739q.57-.289.366-1.119a2.8,2.8,0,0,1,1.315-3.426.662.662,0,0,0,.285-.954,4.3,4.3,0,0,1-.253-.853,1.925,1.925,0,0,0-.313-.611,1.326,1.326,0,0,1,.817-2.1,2.1,2.1,0,0,1,.817.008q.271.06.155-.191l-.1-.219a.417.417,0,0,0-.359-.257,3.494,3.494,0,0,1-.93-.187,3.034,3.034,0,0,1-1.08-.88,1.077,1.077,0,0,1,1.5.681.5.5,0,0,0,.615.307q.645-.191.406-1.02A1.634,1.634,0,0,0,237.29,25.5q-.643-.056-1.179-.07a1.152,1.152,0,0,1-.5-.426.648.648,0,0,0-.07-.108l-.339-.444a.381.381,0,0,0-.157-.122,10.784,10.784,0,0,1-1.233-.558,4.26,4.26,0,0,1-1.323-1.468,18.733,18.733,0,0,0,2.844.034,11.664,11.664,0,0,0,2.014-.325,10.3,10.3,0,0,1,3.163-.123,7.686,7.686,0,0,1,1.086.147q1.109.235,2.289.367a13.365,13.365,0,0,0,2.544.026q1.649-.131,3.275-.167a5.11,5.11,0,0,1,3.406,1.454,3.49,3.49,0,0,0,1.661.757q1.582.285,3.482.486a2.681,2.681,0,0,1,.8.249,5.9,5.9,0,0,0,1.936.761q.613.1,1.2.2a2.943,2.943,0,0,1,1.255.677c.6.488,1.562.727,2.269,1.267a5.006,5.006,0,0,1,1.295,1.2,3.194,3.194,0,0,0,.777.97c.847.617,1.992.992,2.591,1.92a4.018,4.018,0,0,0,1.854,1.261c.916.428.954,1.141,1.293,1.96a.114.114,0,0,1-.062.163l-2.388,1.175a.107.107,0,0,1-.157-.05,2.417,2.417,0,0,0-1.026-.96.361.361,0,0,1-.187-.4,1.162,1.162,0,0,0-.753-1.494,2.106,2.106,0,0,0-1.785.137.209.209,0,0,1-.185,0,5.514,5.514,0,0,0-1.5-.458.161.161,0,0,1-.133-.122,1.26,1.26,0,0,1-.028-.426.506.506,0,0,0-.032-.243q-.125-.331-.259-.627a.3.3,0,0,0-.135-.145.2.2,0,0,1-.11-.159c-.143-1-1.37-1.113-2.2-1.123a.365.365,0,0,1-.237-.088,1.792,1.792,0,0,0-.625-.345.153.153,0,0,1-.1-.185,1.648,1.648,0,0,0-.655-1.932,1.561,1.561,0,0,0-2,.062c-.257.185-.239.46-.456.635a.172.172,0,0,1-.175.03q-.448-.157-.9-.281a2.736,2.736,0,0,1-.884-.432.256.256,0,0,1-.1-.173q-.245-1.679-2.01-1.341c-.621.12-.8.615-1.008,1.131q-.06.145-.157.022a2.757,2.757,0,0,0-3.484-.841c-.5.193-1.026.56-1.03,1.141a.665.665,0,0,0,.9.657.328.328,0,0,0,.181-.169,1.311,1.311,0,0,1,1.335-.683.058.058,0,0,1,.052.031.063.063,0,0,1,0,.062q-.508.809.287,1.191a5.129,5.129,0,0,0,.882.325q.269.072.124.311a1.862,1.862,0,0,0-.263,1.074.216.216,0,0,1-.1.189,1.468,1.468,0,0,0-.713,1.8q.068.233-.143.114a2.9,2.9,0,0,0-.91-.388,3.9,3.9,0,0,0-3.267.93.969.969,0,0,0-.2,1.426.077.077,0,0,1,.019.071.081.081,0,0,1-.051.056,1.405,1.405,0,0,0-1.084,1.6,1.5,1.5,0,0,0,.44.849,1.3,1.3,0,0,0,.705.4,1.464,1.464,0,0,0,1.173-.257,1.313,1.313,0,0,0,.566-1.191,1.407,1.407,0,0,0-.866-1.291.209.209,0,0,1-.078-.313c.153-.209.2-.442.426-.6a2.58,2.58,0,0,1,1.807-.472c.651.078.739.516,1.09.942.438.534,1.2,0,1-.657a.3.3,0,0,1,.012-.213q.058-.127.247-.088a.183.183,0,0,1,.141.207,4.229,4.229,0,0,1-.629,1.647.2.2,0,0,1-.169.1,1.747,1.747,0,0,0-1.534,2.464.115.115,0,0,0,.088.084.109.109,0,0,1,.092.07q.054.137-.092.153c-.821.09-2.882.661-2.177,1.829q.06.1-.052.137a5.491,5.491,0,0,1-.584.235,2.888,2.888,0,0,0-1.964,1.394.466.466,0,0,0-.066.223,2.48,2.48,0,0,0,.052.617.109.109,0,0,1-.11.149,52.007,52.007,0,0,1-7.623.084A67.439,67.439,0,0,1,229.47,42.3Zm14.315-16.4a1.2,1.2,0,0,1,1.221.145c.343.323.815,1.145,1.41.717.729-.522-.488-1.637-.88-1.892a2.892,2.892,0,0,0-2.84.185c-.562.38-.653,1.343.185,1.452a.452.452,0,0,0,.4-.157C243.441,26.164,243.538,25.985,243.785,25.9Zm5.378,4.057a1.458,1.458,0,1,0-1.458,1.458,1.458,1.458,0,0,0,1.458-1.458ZM240.69,32.93a2.743,2.743,0,0,1,1.432-.592.344.344,0,0,1,.287.1c.287.289.6.574,1.02.249a.734.734,0,0,0,.078-.928,1.415,1.415,0,0,0-1.41-.657,3.881,3.881,0,0,0-2.605,1.227.781.781,0,0,0,.181,1.317.5.5,0,0,0,.52-.106C240.391,33.357,240.465,33.108,240.69,32.93Zm2.643,8.832a1.388,1.388,0,0,0,1.591-.974,1.3,1.3,0,0,0-.369-1.482,2.024,2.024,0,0,0-1.723-.534,1.276,1.276,0,0,0-.761,2.3A2.157,2.157,0,0,0,243.333,41.762Z" transform="translate(-180.211 -13.123)" fill="#221512"/>
    <path id="패스_55" data-name="패스 55" d="M130.117,23.572a4.26,4.26,0,0,0,1.323,1.468,10.785,10.785,0,0,0,1.233.558.381.381,0,0,1,.157.122l.339.444a.649.649,0,0,1,.07.108,1.152,1.152,0,0,0,.5.426,2.706,2.706,0,0,0-1.751.767,1.189,1.189,0,0,0-.177,1.466.229.229,0,0,0,.149.122q.855.235,1.018-.592a.235.235,0,0,1,.092-.147,1.476,1.476,0,0,1,.9-.263,3.035,3.035,0,0,0,1.08.88,3.494,3.494,0,0,0,.93.187.417.417,0,0,1,.359.257l.1.219q.116.251-.155.191a2.1,2.1,0,0,0-.817-.008,1.326,1.326,0,0,0-.817,2.1,1.924,1.924,0,0,1,.313.611,4.3,4.3,0,0,0,.253.853.662.662,0,0,1-.285.954,2.8,2.8,0,0,0-1.315,3.426,1.726,1.726,0,0,0-2.424-.448c-1.187.721-.032,2.04.683,1.2q.341-.4.627.04a.666.666,0,0,0,.747.325,1.413,1.413,0,0,1-.351.739.109.109,0,0,1-.177.008,3.262,3.262,0,0,0-1.094-.669.34.34,0,0,0-.2-.012,1.886,1.886,0,0,0-.709.323,1.074,1.074,0,0,0-.189,1.681,4.823,4.823,0,0,0,.376.47.211.211,0,0,1,.048.193.892.892,0,0,1-.627.671c-.606.193-1.386.233-1.589.958a.157.157,0,0,1-.137.122l-1.5.239q-1.43-.263-2.882-.5-1.386-.231-5.131-1.05a81.7,81.7,0,0,1-12.1-3.6q-2.635-1.02-5.266-2.081-.125-.05-.054-.165a.712.712,0,0,0,.09-.512.234.234,0,0,1,.064-.213,2.511,2.511,0,0,1,.725-.619,4.228,4.228,0,0,0,2.607-2.412,4.245,4.245,0,0,1,2.309-2.01,6.273,6.273,0,0,0,1.886-1.474,6.194,6.194,0,0,1,3.508-2.279,13.514,13.514,0,0,0,2.6-.6,2.965,2.965,0,0,0,.976-.6,2.8,2.8,0,0,1,1.56-.55,17.925,17.925,0,0,1,3.281.064,3.292,3.292,0,0,0,.872-.02,10.97,10.97,0,0,0,1.3-.149q1.239-.361,3.36-1.092A6.191,6.191,0,0,1,130.117,23.572Zm1.058,3.121a1.245,1.245,0,1,0-1.245,1.245,1.245,1.245,0,0,0,1.245-1.245Zm-11.18.584c.127-.6,1-.442,1.331-.187a.726.726,0,0,0,.95,0c.462-.436.1-1-.339-1.241a2.417,2.417,0,0,0-2.466.01c-.454.247-.956.864-.661,1.39a.718.718,0,0,0,.9.323A.386.386,0,0,0,119.994,27.277Zm5.4,3.034a1.843,1.843,0,0,1,2.293.231.675.675,0,0,0,1,.04q.235-.2.12-.7a.591.591,0,0,0-.122-.245,2.417,2.417,0,0,0-1.532-.9,2.783,2.783,0,0,1-.52-.129.268.268,0,0,0-.2,0c-.4.157-.771.076-1.179.267a2.747,2.747,0,0,0-1.663,1.516c-.247.669.343,1.054.966.841a.287.287,0,0,0,.183-.167A1.469,1.469,0,0,1,125.394,30.31Zm-9.457.384a.737.737,0,0,0,1.333-.086.7.7,0,0,0-.11-.687,2.006,2.006,0,0,0-1.394-.821,2.677,2.677,0,0,0-2.633,1.844c-.131.365-.151.956.283,1.153.518.237.87-.187.98-.639a1.714,1.714,0,0,1,.743-.914.564.564,0,0,1,.8.149Zm14.3,3.237a.521.521,0,0,0,.372.295q.285.048.635.082a1.026,1.026,0,0,0,.661-.177,1.247,1.247,0,0,0,.608-1.454,1.124,1.124,0,0,0-.6-.789,1.592,1.592,0,0,0-1.111-.078c-.384.09-.673.56-.821.9a.969.969,0,0,0,.169,1.109A.55.55,0,0,1,130.232,33.931Zm-9.3,1.723c.257.024.44.283.582.472a.269.269,0,0,0,.151.1c1.2.313,1.109-.99.478-1.46a2.761,2.761,0,0,0-3.854.8.741.741,0,0,0-.006.9.633.633,0,0,0,1.1-.086A1.527,1.527,0,0,1,120.936,35.654ZM109.2,37.1a1.893,1.893,0,0,1,1.59.181c.5.311,1.468.078,1.213-.657a2.133,2.133,0,0,0-1.53-.928,4.548,4.548,0,0,0-1.512.054c-.739.267-1.633.727-1.074,1.673.333.562.934.319,1.155-.185a.244.244,0,0,1,.157-.137Z" transform="translate(-77.842 -14.387)" fill="#524031"/>
    <circle id="타원_1" data-name="타원 1" cx="1.245" cy="1.245" r="1.245" transform="translate(50.843 11.061)" fill="#221512"/>
    <path id="패스_56" data-name="패스 56" d="M190,35.543c-.331-.255-1.2-.412-1.331.187a.386.386,0,0,1-.281.293.718.718,0,0,1-.9-.323c-.295-.526.207-1.143.661-1.39a2.417,2.417,0,0,1,2.466-.01c.434.241.8.8.339,1.241A.726.726,0,0,1,190,35.543Z" transform="translate(-146.519 -22.841)"/>
    <path id="패스_57" data-name="패스 57" d="M295.218,36.922c-.247.086-.345.265-.5.45a.452.452,0,0,1-.4.157c-.839-.11-.747-1.072-.185-1.452a2.892,2.892,0,0,1,2.84-.185c.392.255,1.609,1.37.88,1.892-.6.428-1.068-.394-1.41-.717A1.2,1.2,0,0,0,295.218,36.922Z" transform="translate(-231.644 -24.146)"/>
    <path id="패스_58" data-name="패스 58" d="M71.978,37.184a12.614,12.614,0,0,0-1.87,1.753A4.6,4.6,0,0,1,68.9,39.97c-1.478.783-2.625,1.428-3.277,3.105-.327.845-1.169,1.145-1.914,1.544a2.965,2.965,0,0,0-1.536,1.97.085.085,0,0,1-.133.066A54.639,54.639,0,0,1,56.7,43.872a5.617,5.617,0,0,1-2.735-3,3.6,3.6,0,0,1,1.452-1.115q.86-.353,1.868-.715a18.11,18.11,0,0,1,1.91-.58,25.48,25.48,0,0,1,4.992-.687,5.64,5.64,0,0,0,.95-.114,9,9,0,0,1,.918-.139q.707-.07,1.4-.2a24.82,24.82,0,0,1,2.886-.261,3.884,3.884,0,0,1,.817.032Q71.55,37.142,71.978,37.184Z" transform="translate(-39.668 -25.306)" fill="#bfa582"/>
    <path id="패스_59" data-name="패스 59" d="M254.364,39.91q.536.014,1.179.07a1.634,1.634,0,0,1,1.572,1.251q.239.829-.406,1.02a.5.5,0,0,1-.615-.307,1.077,1.077,0,0,0-1.5-.681,1.477,1.477,0,0,0-.9.263.235.235,0,0,0-.092.147q-.163.827-1.018.592a.229.229,0,0,1-.149-.122,1.189,1.189,0,0,1,.177-1.466A2.706,2.706,0,0,1,254.364,39.91Z" transform="translate(-198.464 -27.6)"/>
    <path id="패스_60" data-name="패스 60" d="M422.984,48.59a10.171,10.171,0,0,1-4.147,4.073.082.082,0,0,1-.12-.06,3.178,3.178,0,0,0-1.826-2.506,3.2,3.2,0,0,1-1.442-.95,5.6,5.6,0,0,0-2.251-1.725,2.672,2.672,0,0,1-.514-.351c-.39-.337-.5-.853-.9-1.209a15.641,15.641,0,0,0-2.426-1.743,23.42,23.42,0,0,1,4.211.518q3.655.874,7.282,2a1.9,1.9,0,0,1,1.207.968.391.391,0,0,0,.129.149A2.859,2.859,0,0,1,422.984,48.59Z" transform="translate(-324.27 -30.972)" fill="#bfa582"/>
    <path id="패스_61" data-name="패스 61" d="M213.429,51.117a1.469,1.469,0,0,0-.651.751.287.287,0,0,1-.183.167c-.623.213-1.213-.171-.966-.841a2.747,2.747,0,0,1,1.663-1.516c.408-.191.779-.11,1.179-.267a.268.268,0,0,1,.2,0,2.784,2.784,0,0,0,.52.129,2.417,2.417,0,0,1,1.532.9.59.59,0,0,1,.122.245q.116.506-.12.7a.675.675,0,0,1-1-.04A1.843,1.843,0,0,0,213.429,51.117Z" transform="translate(-165.877 -35.194)"/>
    <path id="패스_62" data-name="패스 62" d="M161.812,53.542a.564.564,0,0,0-.8-.149,1.714,1.714,0,0,0-.743.914c-.11.452-.462.876-.98.639-.434-.2-.414-.789-.283-1.153a2.677,2.677,0,0,1,2.633-1.844,2.006,2.006,0,0,1,1.394.821.7.7,0,0,1,.11.687A.737.737,0,0,1,161.812,53.542Z" transform="translate(-123.717 -37.234)"/>
    <circle id="타원_2" data-name="타원 2" cx="1.458" cy="1.458" r="1.458" transform="translate(66.036 15.375)"/>
    <path id="패스_63" data-name="패스 63" d="M243.688,67.336a.969.969,0,0,1-.169-1.109c.147-.337.436-.807.821-.9a1.592,1.592,0,0,1,1.111.078,1.124,1.124,0,0,1,.6.789,1.247,1.247,0,0,1-.607,1.454,1.026,1.026,0,0,1-.661.177q-.351-.034-.635-.082a.521.521,0,0,1-.372-.295A.55.55,0,0,0,243.688,67.336Z" transform="translate(-191.38 -47.907)" fill="#221512"/>
    <path id="패스_64" data-name="패스 64" d="M279.866,70.192c-.225.177-.3.426-.5.611a.5.5,0,0,1-.52.106.781.781,0,0,1-.181-1.317,3.88,3.88,0,0,1,2.605-1.227,1.415,1.415,0,0,1,1.41.657.734.734,0,0,1-.078.928c-.42.325-.733.04-1.02-.249a.344.344,0,0,0-.287-.1A2.743,2.743,0,0,0,279.866,70.192Z" transform="translate(-219.387 -50.385)"/>
    <path id="패스_65" data-name="패스 65" d="M187.262,79.372a1.527,1.527,0,0,0-1.55.731.633.633,0,0,1-1.1.086.741.741,0,0,1,.006-.9,2.761,2.761,0,0,1,3.854-.8c.631.47.723,1.773-.478,1.46a.269.269,0,0,1-.151-.1C187.7,79.654,187.519,79.4,187.262,79.372Z" transform="translate(-144.168 -58.104)"/>
    <path id="패스_66" data-name="패스 66" d="M133.44,86.516c-.221.5-.823.747-1.155.185-.56-.946.335-1.406,1.074-1.673a4.548,4.548,0,0,1,1.512-.054,2.133,2.133,0,0,1,1.53.928c.255.735-.717.968-1.213.657a1.893,1.893,0,0,0-1.589-.181A.244.244,0,0,0,133.44,86.516Z" transform="translate(-102.243 -63.665)"/>
    <path id="패스_67" data-name="패스 67" d="M250.387,92.2q.2.831-.367,1.119a.666.666,0,0,1-.747-.325q-.287-.436-.627-.04c-.715.837-1.87-.482-.683-1.2A1.726,1.726,0,0,1,250.387,92.2Z" transform="translate(-194.611 -68.862)"/>
    <path id="패스_68" data-name="패스 68" d="M291.983,109.8a2.157,2.157,0,0,1-1.261-.689,1.276,1.276,0,0,1,.761-2.3,2.024,2.024,0,0,1,1.723.534,1.3,1.3,0,0,1,.368,1.482A1.388,1.388,0,0,1,291.983,109.8Z" transform="translate(-228.861 -81.158)"/>
    <path id="패스_69" data-name="패스 69" d="M148.67,163.591a1.182,1.182,0,0,1-.773.8,44.377,44.377,0,0,1-7.294,2.269q-1.657.355-3.906.755a92.158,92.158,0,0,1-9.884,1.211c-1.141.076-2.281.181-3.478.191q-1.562.016-2.789.076c-2.432.122-4.79-.032-7.179-.058-1.229-.014-2.426-.139-3.607-.219a97.954,97.954,0,0,1-9.909-1.189,69.986,69.986,0,0,1-11.634-3.034q-4.49-1.588-7.29-2.779a22.845,22.845,0,0,1-4.633-2.649c-.343-.221-.7-.606-.476-1.022a.8.8,0,0,1,1.2-.221q.44.347.876.659a20.1,20.1,0,0,0,3.918,2.085q4.593,1.918,9.706,3.542,1.978.629,3.779,1.056a88.215,88.215,0,0,0,13.184,2.06q1.8.147,3.372.253c3.472.233,6.948.145,10.5.112q1.356-.014,5.48-.343a103.35,103.35,0,0,0,12.7-1.846,38.917,38.917,0,0,0,7.131-2.2,1.121,1.121,0,0,1,.606-.116Q148.678,163.061,148.67,163.591Z" transform="translate(-57.108 -121.801)"/>
    <path id="패스_70" data-name="패스 70" d="M74.669,164.69a22.846,22.846,0,0,0,4.633,2.649q2.8,1.191,7.29,2.779a69.984,69.984,0,0,0,11.634,3.034,97.959,97.959,0,0,0,9.909,1.189c1.181.08,2.378.205,3.607.219,2.388.026,4.747.179,7.179.058q1.227-.06,2.789-.076c1.2-.01,2.336-.116,3.478-.191a92.157,92.157,0,0,0,9.884-1.211q2.249-.4,3.906-.755a44.377,44.377,0,0,0,7.294-2.269,1.182,1.182,0,0,0,.773-.8l1.476-.872c.606.524,1.392.287,2.115-.022A11.147,11.147,0,0,0,153.078,167q.287-.221.4.12a24.2,24.2,0,0,1,1.257,6.258q.225,3.153.082,8.657-.044,1.639-.141,2.546-.056.51-.092.992-.07.894-.189,1.791-.6,4.521-.753,6.422a46.531,46.531,0,0,0-.147,5.143q.046,1.538.257,3.257c.273,2.231.936,4.412,1.358,6.587a15.434,15.434,0,0,1,.253,3.31,5.066,5.066,0,0,0,.175,1.5,21.658,21.658,0,0,0,.976,2.789c.237.546.693,1.133,1.36.689a.178.178,0,0,1,.245.05,6.093,6.093,0,0,1,1.046,3.012,9.828,9.828,0,0,1-4.024,8.8,33.618,33.618,0,0,1-10.644,4.522,83.739,83.739,0,0,1-11.581,2.105l-1.964.229q-1,.118-1.968.179a3.575,3.575,0,0,1-.617-1.544,13.358,13.358,0,0,1,.823-4.828,75.682,75.682,0,0,1,3.063-7.207q.866-1.777,1.677-3.689,1.671-3.936,3.31-7.77a.094.094,0,0,0-.11-.128q-1.317.327-2.639.576c-1.8.339-3.52.775-5.26,1.231q-1.279.337-2.723.586-1.366.235-2.753.448a48.94,48.94,0,0,1,.359-4.962,5.231,5.231,0,0,0,0-.922c-.064-.96-1.374-.841-1.611-.044a11.637,11.637,0,0,0-.365,2.311q-.125,1.637-.118,3.39a3.476,3.476,0,0,1-1.163-.388,2.174,2.174,0,0,1-1.49-1.944,2.268,2.268,0,0,1,.468-1.4,6.314,6.314,0,0,1,1.086-1.165q.876-.715,1.725-1.394a2.24,2.24,0,0,1,.689-.382,3.5,3.5,0,0,0,.705-.307,39.24,39.24,0,0,1,4.518-2.358c1.769-.787,3.5-1.657,5.215-2.428q2.068-.93,4.261-2.034c.486-.245,1.165-.482,1.687-.8a.535.535,0,0,0,.257-.416,7.993,7.993,0,0,0-.118-2.149q1.643,0,3.761-.064a.792.792,0,1,0,0-1.584q-1.892.03-3.771.052a4.283,4.283,0,0,0-.028-.98q-.133-.888-.139-.962-.068-.839-.171-1.673a12.185,12.185,0,0,0-.265-1.235,8.084,8.084,0,0,1-.213-1.255q1.49,1.576,2.854,2.976c.347.355.566.649,1.012.574.918-.159.99-1.02.416-1.619q-2.044-2.135-3.828-4.131a.151.151,0,0,1-.026-.165,1.461,1.461,0,0,0,.2-.653q-.03-.833-.96-.856-.345-.008-.769.582a14.1,14.1,0,0,0-1.056-2.581A16.146,16.146,0,0,0,134.986,180a16.546,16.546,0,0,0-4.091-3.53,1.272,1.272,0,0,0-.546-.179,23.794,23.794,0,0,0-3.629.133,7.63,7.63,0,0,1-.94.046q-.478-.008-.942.03a96.072,96.072,0,0,1-12.345.179q-1.072-.052-2.121-.106-1.113-.058-2.068-.157-2.446-.257-5.059-.576c-.257-.032-.508.008-.769-.036q-2.038-.337-3.95-.57-1.458-.177-2.486-.378-1.255-.243-2.464-.5-.476-.1-.966-.167c-.506-.072-.978-.283-1.482-.343a2.736,2.736,0,0,1-.906-.167.683.683,0,0,0-.325-.07.376.376,0,0,1-.2-.046,1.418,1.418,0,0,0-.7-.169.067.067,0,0,1-.072-.05.1.1,0,0,0-.068-.062q-1.6-.48-3.384-1.06a65.356,65.356,0,0,1-9.288-3.82,8.23,8.23,0,0,1-2-1.4,1.559,1.559,0,0,1-.456-.811,1.055,1.055,0,0,1,.217-.845A2.445,2.445,0,0,1,74.669,164.69Z" transform="translate(-55.483 -127.526)" fill="#bfa582"/>
    <path id="패스_71" data-name="패스 71" d="M379.983,268.826a2.087,2.087,0,0,0-.518-.582.084.084,0,0,0-.143.022A34.628,34.628,0,0,1,376.567,272a1.773,1.773,0,0,1-1.046.747.893.893,0,0,1-.741-1.456,62.012,62.012,0,0,0,4.1-5.758q.424-.59.769-.582.93.024.96.856a1.46,1.46,0,0,1-.2.653.151.151,0,0,0,.026.165q1.785,2,3.828,4.131c.574.6.5,1.46-.416,1.619-.446.076-.665-.219-1.012-.574Q381.473,270.4,379.983,268.826Z" transform="translate(-296.426 -207.815)"/>
    <path id="패스_72" data-name="패스 72" d="M301.762,277.372l4.29-.09c.564-.012.809.265.779.8a.742.742,0,0,1-.817.791l-8.579.116q-.534.008-1.209-.042c-1.39-.1-1.269-1.663-.048-1.641s2.457.046,3.733.076a.114.114,0,0,0,.133-.127l.016-2.33a.1.1,0,0,0-.122-.112,7.571,7.571,0,0,1-1.705-.044c-1.03-.147-.958-1.157-1.014-1.934q-.129-1.777-.167-3.994a.963.963,0,0,1,1.034-1.125q2.559-.078,5.838-.1c.689,0,.739.773.753,1.317q.062,2.326.012,4.284c-.022.878-.4,1.478-1.354,1.534q-.851.05-1.588.072a.084.084,0,0,0-.082.084l-.026,2.342A.1.1,0,0,0,301.762,277.372Zm-2.986-8.107a.11.11,0,0,0-.11.114l.131,3.757a.12.12,0,0,0,.127.128,38.141,38.141,0,0,0,3.914-.044.45.45,0,0,0,.424-.466l-.133-3.5a.039.039,0,0,0-.044-.042Z" transform="translate(-232.867 -209.954)"/>
    <path id="패스_73" data-name="패스 73" d="M230.023,274.742l5.48-.074a.561.561,0,0,1,.647.671l-.01.185a.661.661,0,0,1-.709.7q-3.044.122-5.812.048c-1.026-.028-1.209-.856-1.227-1.675q-.064-2.785-.171-5.187-.052-1.165,1.048-1.183,3.067-.05,6.005-.088a.784.784,0,1,1,.068,1.566q-2.661.04-5.438.078-.074,0-.072.076l.05,1.548a.087.087,0,0,0,.1.1q2.735-.022,5.233-.046a.793.793,0,1,1,.084,1.581q-2.721,0-5.322.034a.061.061,0,0,0-.068.07l.062,1.55A.048.048,0,0,0,230.023,274.742Z" transform="translate(-179.209 -210.37)"/>
    <path id="패스_74" data-name="패스 74" d="M138.707,273.14l.076,5.81q0,.143.145.122c.508-.076,1.339-.072,1.44.582.116.733-.454.968-1.048,1q-3.418.163-6.276.357c-1.424.1-1.39-1.866.2-1.589q.241.042.213-.2l-.7-5.792a.109.109,0,0,0-.125-.108,3.605,3.605,0,0,1-.95-.094c-.767-.179-.671-1.1-.026-1.4a3.581,3.581,0,0,1,1.1-.117c1.454-.026,2.882-.044,4.324-.139q1.424-.094,2.623-.082a.641.641,0,0,1,.677.538,1.041,1.041,0,0,1,.026.165.693.693,0,0,1-.687.811,4.535,4.535,0,0,1-.886.02Q138.7,273.008,138.707,273.14Zm-1.584.056a.076.076,0,0,0-.08-.074l-2.633.133a.076.076,0,0,0-.072.084l.719,5.884a.076.076,0,0,0,.08.068l2.012-.133a.076.076,0,0,0,.07-.076Z" transform="translate(-101.471 -213.047)"/>
    <rect id="사각형_12" data-name="사각형 12" width="1.653" height="8.744" rx="0.827" transform="translate(41.375 58.601) rotate(1.3)"/>
    <path id="패스_75" data-name="패스 75" d="M312.619,275.672l4.31-.052a.039.039,0,0,1,.044.042l.133,3.5a.45.45,0,0,1-.424.466,38.142,38.142,0,0,1-3.914.044.12.12,0,0,1-.128-.127l-.131-3.757a.11.11,0,0,1,.11-.114Z" transform="translate(-246.71 -216.36)" fill="#e0c198"/>
    <path id="패스_76" data-name="패스 76" d="M149.963,279.783l.1,5.886a.076.076,0,0,1-.07.076l-2.012.133a.076.076,0,0,1-.08-.068l-.719-5.884a.076.076,0,0,1,.072-.084l2.633-.133a.076.076,0,0,1,.08.074Z" transform="translate(-114.31 -219.635)" fill="#e0c198"/>
    <path id="패스_77" data-name="패스 77" d="M377.34,316.447q-2.46.04-4.79.05a11.333,11.333,0,0,1-1.643-.068.813.813,0,0,1,.249-1.6q4.886.062,6.177.026,1.878-.022,3.771-.052a.792.792,0,1,1,0,1.583Q378.983,316.451,377.34,316.447Z" transform="translate(-292.959 -247.735)"/>
    <path id="패스_78" data-name="패스 78" d="M220.787,318.632a.651.651,0,0,1-.494-.661.69.69,0,0,1,.44-.749,1.76,1.76,0,0,1,.679-.1q4.635.078,9.7-.054a.665.665,0,0,1,.775.767.253.253,0,0,1,0,.032.737.737,0,0,1-.833.8q-4.6.08-8.925.12A4.8,4.8,0,0,1,220.787,318.632Z" transform="translate(-172.86 -249.552)"/>
    <path id="패스_79" data-name="패스 79" d="M207.743,383.215a6.162,6.162,0,0,1,3.394-.313,3.451,3.451,0,0,1,2.924,4.418c-.552,2.82-3.755,3.173-6.059,3.032-.51-.032-1.123-.215-1.273-.771-.227-.845.739-.992,1.319-.876,1.649.323,3.95-.01,4.265-2.042a1.9,1.9,0,0,0-1.874-2.209c-1.5-.183-2.211.564-3.474,1.1-.623.267-1.026-.207-1.024-.783a29.88,29.88,0,0,1,.621-6.376.889.889,0,0,1,1.006-.773q2.1.1,4.5.02.855-.028.853.773a.887.887,0,0,1-.514.719.752.752,0,0,1-.335.108,27.539,27.539,0,0,1-3.779-.022.121.121,0,0,0-.143.118l-.524,3.784Q207.6,383.273,207.743,383.215Z" transform="translate(-161.368 -298.045)" fill="#fff"/>
    <path id="패스_80" data-name="패스 80" d="M317.968,384.016q.008,1.231.092,2.311a3.8,3.8,0,0,0,.3,1.231c.363.841,1.85.7,2.613.608q1.665-.2,3.087-.283a.881.881,0,1,1,.137,1.749,24.15,24.15,0,0,1-5.217.295,2.366,2.366,0,0,1-2.412-2.165,21.085,21.085,0,0,1-.333-3.972q-.008-1.753.117-3.39a11.638,11.638,0,0,1,.365-2.311c.237-.8,1.548-.916,1.611.044a5.226,5.226,0,0,1,0,.922A48.961,48.961,0,0,0,317.968,384.016Z" transform="translate(-249.691 -297.908)" fill="#fff"/>
    <path id="패스_81" data-name="패스 81" d="M259.665,380.617a5.8,5.8,0,0,1,.92-1.53,3.341,3.341,0,0,1,4.974-.522,6.757,6.757,0,0,1,1.8,5.008,10.853,10.853,0,0,1-.428,3.179,5.193,5.193,0,0,1-3.555,3.794c-2.474.576-3.88-1.657-4.282-3.7A10.792,10.792,0,0,1,259.665,380.617Zm3.054,8.348c1.4.113,2.71-1.964,2.925-4.639s-.746-4.934-2.146-5.046-2.71,1.964-2.925,4.639.745,4.934,2.146,5.046Z" transform="translate(-203.761 -298.09)" fill="#fff"/>
    <ellipse id="타원_3" data-name="타원 3" cx="4.858" cy="2.544" rx="4.858" ry="2.544" transform="matrix(-0.08, 0.997, -0.997, -0.08, 62.273, 81.394)" fill="#e0c198"/>
  </g>
</svg>
