<svg xmlns="http://www.w3.org/2000/svg" width="102.124" height="105.073" viewBox="0 0 102.124 105.073">
  <g id="_13" data-name="13" transform="translate(-4.521 -5.52)">
    <g id="그룹_10" data-name="그룹 10" transform="translate(5.877 6.89)">
      <path id="패스_207" data-name="패스 207" d="M350.89,244.968q3.719-.331,7-.8a81.074,81.074,0,0,0,8.567-1.72,32.4,32.4,0,0,0,11.158-4.888,8.333,8.333,0,0,0,2.545-3.242,9.939,9.939,0,0,0,.945-5.58,5.818,5.818,0,0,0-1-2.627.166.166,0,0,0-.249-.054.676.676,0,0,1-1.014-.155,11.966,11.966,0,0,1-1.3-3.25,4.015,4.015,0,0,1-.191-1.327,27.919,27.919,0,0,0-1.214-7.756,27.523,27.523,0,0,1-.648-5.628,40.55,40.55,0,0,1,.145-5.193q.315-3.193.891-7.716c.054-.413.068-.823.112-1.246q.1-.955.157-2.678.167-5.14-.078-8.753a24.049,24.049,0,0,0-1.271-6.315.226.226,0,0,0-.151-.143.23.23,0,0,0-.206.04,9.711,9.711,0,0,1-3.452,1.766,1.161,1.161,0,0,1-1.14-.291" transform="translate(-283.22 -143.303)" fill="none" stroke="#605341" stroke-width="2"/>
      <path id="패스_208" data-name="패스 208" d="M363.1,51.8c-.275-.646.032-1.07.674-1.1a2.534,2.534,0,0,0,.963-.237,11,11,0,0,0,5.277-5.034,10.63,10.63,0,0,0,.893-2.34q.6-2.212,1.271-4.356A11.175,11.175,0,0,1,373.2,36.4q.945-1.612,1.632-3.051a3.782,3.782,0,0,0,.351-2.19,6.615,6.615,0,0,0-.116-1.246A6.729,6.729,0,0,0,372.7,26.62a7.781,7.781,0,0,0-3.137-1.192q-3.741-.757-7.382-1.5-2.646-.544-8.248-2.081-5.927-1.628-12.051-2.8-.44-.086-.026.086a7.112,7.112,0,0,1,1.923,1.232,1.949,1.949,0,0,0,.909.46,28.588,28.588,0,0,0,3.43.5,3.363,3.363,0,0,1,1.463.42,4.528,4.528,0,0,0,1.56.642,4.532,4.532,0,0,1,2.479.731,4.5,4.5,0,0,0,1.523.9" transform="translate(-275.823 -17.697)" fill="none" stroke="#70614c" stroke-width="2"/>
      <path id="패스_209" data-name="패스 209" d="M409.33,44.08a17.03,17.03,0,0,1,2.4,1.7c.52.468.62,1.17,1.347,1.552A12.777,12.777,0,0,1,414.8,48.4c.5.377.678,1,1.263,1.273,1.377.636,2.379,1.224,2.613,2.834a.128.128,0,0,0,.071.1.133.133,0,0,0,.123,0,10.357,10.357,0,0,0,4.1-4.047" transform="translate(-330.014 -37.765)" fill="none" stroke="#605341" stroke-width="2"/>
      <path id="패스_210" data-name="패스 210" d="M133.928,57.04c1.044-.327,1.331.58.867,1.315a10.44,10.44,0,0,1-2.557,2.8,28.481,28.481,0,0,1-6.188,3.426A88.562,88.562,0,0,1,105.658,70.3a57.614,57.614,0,0,1-6.349.588c-.209.008-.407.082-.608.082q-2.6-.008-5.359,0c-.375,0-.709-.1-1.076-.106q-.385,0-.757-.026a96.149,96.149,0,0,1-14.225-2.126,89.417,89.417,0,0,1-14.657-4.35c-4.03-1.624-8.189-3.256-11.782-5.7-.867-.59-3.623-2.926-1.975-3.954a.26.26,0,0,1,.189-.032.585.585,0,0,1,.413.311" transform="translate(-40.975 -46.245)" fill="none" stroke="#70614c" stroke-width="2"/>
      <path id="패스_211" data-name="패스 211" d="M53.96,41.431a5.644,5.644,0,0,0,2.738,3,50.837,50.837,0,0,0,5.343,2.776.084.084,0,0,0,.13-.062,3.034,3.034,0,0,1,1.544-1.975c.721-.361,1.594-.715,1.9-1.517.644-1.7,1.821-2.328,3.324-3.147a4.6,4.6,0,0,0,1.164-1,12.542,12.542,0,0,1,1.879-1.764" transform="translate(-45.464 -32.689)" fill="none" stroke="#605341" stroke-width="2"/>
      <path id="패스_212" data-name="패스 212" d="M37.843,17.444a4.825,4.825,0,0,1,2.081-.98q1.7-.313,2.433-.5c.58-.149.933-.638,1.463-.881a10.179,10.179,0,0,1,4.888-.4A11.412,11.412,0,0,0,53.7,13.618a8.291,8.291,0,0,1,4.105-.3,15.2,15.2,0,0,0,2.591.106,5.369,5.369,0,0,0,1.11-.141,22.97,22.97,0,0,1,2.621-.43,7.92,7.92,0,0,1,1.194.07,12.731,12.731,0,0,1,2.246.265,14.257,14.257,0,0,0,4.061.315q1.509-.092,1.843-.084.925.022,1.843.052a.03.03,0,0,0,.036-.03v0a.032.032,0,0,0-.03-.036q-2.322-.345-5.56-.654-1.3-.124-2.543-.159-.2-.006-.4-.018a88.342,88.342,0,0,0-11.016,0c-.861.054-1.652.02-2.493.076q-1.534.1-3.113.219a43.987,43.987,0,0,0-6.14.857q-3.828.831-7.405,1.379a17.846,17.846,0,0,0-4.97,1.4c-.436.205-1.491-.122-1.957-.223a4.842,4.842,0,0,0-2.858.5,7.621,7.621,0,0,1-4.334.5,4.61,4.61,0,0,0-3.679.737,11.6,11.6,0,0,0-2.6,2.9,7.494,7.494,0,0,0-.385,1q-.333.674-.707,1.339a5.722,5.722,0,0,0-.442,4.024q.3,1.144.624,2.379a21.863,21.863,0,0,1,.347,2.981A9.228,9.228,0,0,0,18.01,37.4a13.082,13.082,0,0,0,3.818,2.973,2.339,2.339,0,0,0,.568.223.433.433,0,0,1,.327.373.706.706,0,0,1-.58.865c-.436.108-1.108-.4-1.467-.63q-.136-.088-.1.07.175.833.337,1.764a14.451,14.451,0,0,1,.167,3.559,21.259,21.259,0,0,0,.064,4.5q.193,1.345.548,3.083c.108.528.118,1.052.177,1.586a4.886,4.886,0,0,1-.014,1.172A22.511,22.511,0,0,1,21.32,59.7a13.229,13.229,0,0,0-.287,5.163,36.128,36.128,0,0,0,2.387,7.86c.139.369.57.8.532,1.17a.556.556,0,0,1-.678.558c-.5-.04-.9-.745-1.052-1.158a.056.056,0,0,0-.1,0,28.233,28.233,0,0,0-.895,2.7,10.814,10.814,0,0,0-.012,5.692,21.442,21.442,0,0,0,1.248,4.077.216.216,0,0,1,0,.2c-.187.365-.5.63-.7.992a17.853,17.853,0,0,1-1.3,2.071Q18.277,91.9,15.824,94.85a4.921,4.921,0,0,0-.787,1.244.584.584,0,0,1-.707.353.724.724,0,0,1-.488-.957q.028-.136-.1-.078c-1.092.508-2.792,1.889-2.342,3.3a12.375,12.375,0,0,0,2.76,4.187,7.277,7.277,0,0,0,2.25,1.542,24.146,24.146,0,0,1,2.607,2,46.615,46.615,0,0,0,9.837,4.315,58.334,58.334,0,0,0,11.69,2.748q3.27.421,6.084.526,1.082.042,2.3.106,2.5.134,4.946.124c.219,0,.424.072.642.076q1.285.016,2.92.078c1.257.046,2.557.008,3.878.076q5.1.261,10.393.128,2.216-.058,7.294-.564" transform="translate(-11.327 -12.392)" fill="none" stroke="#70614c" stroke-width="2"/>
      <path id="패스_213" data-name="패스 213" d="M71.979,37.16q-.462-.04-.883-.1a3.43,3.43,0,0,0-.873-.026c-.847.094-1.66.054-2.513.207q-1.088.2-2.136.351-1,.149-2.17.223a22.038,22.038,0,0,0-2.577.329q-.831.153-1.67.317a10.864,10.864,0,0,0-1.678.5l-1.913.719A3.709,3.709,0,0,0,53.96,40.85" transform="translate(-45.464 -32.108)" fill="none" stroke="#d0b38d" stroke-width="2"/>
      <path id="패스_214" data-name="패스 214" d="M422.967,48.56a.952.952,0,0,1-.185-.277,1.8,1.8,0,0,0-.434-.4,1.9,1.9,0,0,1-.4-.411,2.26,2.26,0,0,0-1.156-.839q-3.7-1.212-7.575-2.09a23.86,23.86,0,0,0-3.884-.458" transform="translate(-330.014 -37.765)" fill="none" stroke="#d0b38d" stroke-width="2"/>
      <path id="패스_215" data-name="패스 215" d="M443.327,183.53l-1.477.873" transform="translate(-356.053 -149.425)" fill="none" stroke="#d0b38d" stroke-width="2"/>
      <path id="패스_216" data-name="패스 216" d="M148.708,163.6c.01-.576-.422-.749-.883-.554a38.188,38.188,0,0,1-7.451,2.318,106.1,106.1,0,0,1-12.511,1.8q-4.133.327-5.482.341c-3.553.034-7.039.122-10.516-.114q-1.756-.118-3.382-.253a92.28,92.28,0,0,1-12-1.78,60.6,60.6,0,0,1-5.881-1.63q-4.558-1.493-8.685-3.21a19.857,19.857,0,0,1-4.878-2.774.8.8,0,0,0-1.216.207c-.229.418.134.8.472,1.036" transform="translate(-62.911 -128.62)" fill="none" stroke="#70614c" stroke-width="2"/>
      <path id="패스_217" data-name="패스 217" d="M74.693,164.74q-1.283.835-.819,1.808a3.04,3.04,0,0,0,1.034,1.1,11.04,11.04,0,0,0,1.363.821,63.15,63.15,0,0,0,8.629,3.6q1.905.642,4,1.259a.091.091,0,0,1,.066.064.067.067,0,0,0,.072.05,1.423,1.423,0,0,1,.7.169.376.376,0,0,0,.2.046.683.683,0,0,1,.325.07,2.814,2.814,0,0,0,.919.171,2.639,2.639,0,0,1,.514.116,6.042,6.042,0,0,0,1.182.255,6.917,6.917,0,0,1,1.09.2q.554.147,1.158.249.494.084,1.006.177,1.327.243,2.748.42,1.744.219,3.342.45.62.09,1.321.151.624.056,1.234.161.217.038.456.06,1.77.161,3.468.353.656.076,1.365.1c1.152.036,2.356.157,3.46.181q6.01.134,9.219-.074,1.188-.078,2.527-.143,1.032-.048,2.485-.163,1.277-.1,2.489-.074a1.609,1.609,0,0,1,.735.2,16.711,16.711,0,0,1,6.531,7.469q.707,1.7.907,2.292a34.453,34.453,0,0,1,1.6,11.694c-.006.323-.022.7-.355.877q-3.017,1.574-6.264,3.057-3.027,1.381-6.1,2.856-1.046.5-2.369,1.3-1.293.783-2.688,1.467" transform="translate(-61.311 -134.379)" fill="none" stroke="#d0b38d" stroke-width="2"/>
      <path id="패스_218" data-name="패스 218" d="M292.89,377.942a3.22,3.22,0,0,0-3.328.165c-2,1.311-2.7,4.307-2.674,6.68.022,2.021.684,4.7,2.619,5.54a3.623,3.623,0,0,0,3.651-.773,7.554,7.554,0,0,0,2.206-5.5" transform="translate(-231.972 -304.787)" fill="none" stroke="#f0e0cc" stroke-width="2"/>
      <path id="패스_219" data-name="패스 219" d="M329.42,407.878l2.961-.568" transform="translate(-266.029 -328.609)" fill="none" stroke="#d0b38d" stroke-width="2"/>
      <path id="패스_220" data-name="패스 220" d="M344.244,407.31a21.153,21.153,0,0,0,.327,4.362,2.4,2.4,0,0,0,2.465,2.17,22.846,22.846,0,0,0,3.143-.06" transform="translate(-277.892 -328.609)" fill="none" stroke="#f0e0cc" stroke-width="2"/>
      <path id="패스_221" data-name="패스 221" d="M353.232,439.79a5.52,5.52,0,0,0-.287.8,4.226,4.226,0,0,1-.341.871,66.681,66.681,0,0,0-3.019,6.558,17.07,17.07,0,0,0-1.536,6.407,3.354,3.354,0,0,0,.566,1.853" transform="translate(-280.945 -354.616)" fill="none" stroke="#d0b38d" stroke-width="2"/>
      <path id="패스_222" data-name="패스 222" d="M374.06,431.765a9.535,9.535,0,0,0,2.23-.287.815.815,0,0,0,.65-1.034c-.147-.851-1.3-.69-1.983-.608" transform="translate(-301.773 -346.591)" fill="none" stroke="#dfd2c1" stroke-width="2"/>
      <path id="패스_223" data-name="패스 223" d="M358.206,402.927l2.8-6.632q.07-.165-.106-.126c-2.621.6-5,.99-7.756,1.782" transform="translate(-285.022 -319.682)" fill="none" stroke="#d0b38d" stroke-width="2"/>
      <path id="패스_224" data-name="패스 224" d="M346,383.009q.084-1.724.357-4.619c.106-1.138-1.487-1.176-1.684-.155a23.356,23.356,0,0,0-.438,5.207" transform="translate(-277.881 -304.74)" fill="none" stroke="#dfd2c1" stroke-width="2"/>
      <path id="패스_225" data-name="패스 225" d="M319.483,385.594a9.881,9.881,0,0,0-.229-2.722,5.38,5.38,0,0,0-2.244-3.392" transform="translate(-256.092 -306.325)" fill="none" stroke="#dfd2c1" stroke-width="2"/>
      <path id="패스_226" data-name="패스 226" d="M150.894,169.357a1.188,1.188,0,0,1-.773.8,43.7,43.7,0,0,1-7.3,2.266q-1.435.3-3.922.753a90.221,90.221,0,0,1-9.751,1.208q-.407.028-.793.064-1.2.114-2.726.136c-2.268.032-4.548.183-6.792.1q-1.656-.062-3.254-.08c-1.164-.012-2.366-.13-3.563-.213q-4.948-.341-10.16-1.228a64.233,64.233,0,0,1-9.516-2.358q-3.005-1-7.531-2.73a27.82,27.82,0,0,1-6.337-3.336" transform="translate(-65.097 -134.379)" fill="none" stroke="#605341" stroke-width="2"/>
      <path id="패스_227" data-name="패스 227" d="M352.973,405.14A25.228,25.228,0,0,0,353,408.4a4.176,4.176,0,0,0,.343,1.357c.329.755,1.67.678,2.348.61q1.214-.124,2.352-.255" transform="translate(-284.855 -326.871)" fill="none" stroke="#f0e0cc" stroke-width="2"/>
      <path id="패스_228" data-name="패스 228" d="M130.128,23.639a7.16,7.16,0,0,0-4.474.51,10.563,10.563,0,0,1-4.771.837c-1.291-.114-3.462-.391-4.544.546a6.369,6.369,0,0,1-3.25,1.112,4.651,4.651,0,0,0-1.435.415A7.4,7.4,0,0,0,109.37,28.9a5.612,5.612,0,0,1-1.507,1.287c-1.016.584-2.288,1.08-2.748,2.284a3.76,3.76,0,0,1-2.128,2.152,2.422,2.422,0,0,0-1.232.935.319.319,0,0,0-.03.207.6.6,0,0,1-.082.47q-.084.124.056.179,2.756,1.106,5.355,2.116,2.846,1.106,6.443,2.15a114.823,114.823,0,0,0,13.3,2.906" transform="translate(-83.62 -21.27)" fill="none" stroke="#564d46" stroke-width="2"/>
      <path id="패스_229" data-name="패스 229" d="M227.97,124.39q.815.173,1.052.207,2.784.389,5.582.636l.841.07a53.027,53.027,0,0,0,8.725-.034" transform="translate(-184.796 -102.071)" fill="none" stroke="#3e3832" stroke-width="2"/>
      <path id="패스_230" data-name="패스 230" d="M309.26,103.257a60.221,60.221,0,0,0,8.89-1.184A89.081,89.081,0,0,0,334.906,96.9" transform="translate(-249.886 -80.059)" fill="none" stroke="#2b2723" stroke-width="2"/>
      <path id="패스_231" data-name="패스 231" d="M283.212,36.763l2.445-1.2a.111.111,0,0,0,.06-.163,4.457,4.457,0,0,1-.269-.781c-.263-1.054-1.439-1.357-2.264-1.815a2.14,2.14,0,0,1-.686-.739c-.811-1.2-2.569-1.291-3.212-2.65a5.376,5.376,0,0,0-2.262-1.8,8.1,8.1,0,0,1-1.8-1.09,1.968,1.968,0,0,0-1.1-.428,5.215,5.215,0,0,1-2.14-.524,4.554,4.554,0,0,0-1.993-.688,25.512,25.512,0,0,1-2.983-.417,3.53,3.53,0,0,1-1.734-.793,5.146,5.146,0,0,0-2.985-1.373,30.4,30.4,0,0,0-3.741.118,11.416,11.416,0,0,1-2.513-.046q-1.345-.187-2.688-.418a10.657,10.657,0,0,0-4.572.2,8.058,8.058,0,0,1-1.534.189c-.825.054-1.678-.09-2.541-.054" transform="translate(-198.192 -19.922)" fill="none" stroke="#3e3832" stroke-width="2"/>
      <path id="패스_232" data-name="패스 232" d="M412.936,76.7l-.678-.574a.466.466,0,0,0-.165-.09,1.59,1.59,0,0,1-.6-.353.212.212,0,0,1-.072-.183,2.526,2.526,0,0,1,.058-.359,1.079,1.079,0,0,0-.526-1.112,1.447,1.447,0,0,0-1.825.122.186.186,0,0,1-.233.022,4.145,4.145,0,0,0-.692-.315c-.411-.143-.821-.024-1.148-.369a.229.229,0,0,1-.064-.173,3.885,3.885,0,0,0-.277-1.644" transform="translate(-327.916 -59.857)" fill="none" stroke="#695e55" stroke-width="2"/>
      <path id="패스_233" data-name="패스 233" d="M398.375,67.5a.976.976,0,0,0-.6-.763,2.985,2.985,0,0,0-1.471-.269" transform="translate(-319.581 -55.689)" fill="none" stroke="#3e3832" stroke-width="2"/>
      <path id="패스_234" data-name="패스 234" d="M358.242,50.7,357,50.309a.131.131,0,0,1-.1-.155,3.285,3.285,0,0,1,.082-.442,1.438,1.438,0,0,0-.965-1.616,1.376,1.376,0,0,0-1.8.917.158.158,0,0,1-.187.112,9.593,9.593,0,0,1-1.957-.676.65.65,0,0,1-.349-.323,1.094,1.094,0,0,1-.082-.45.333.333,0,0,0-.064-.205,1.306,1.306,0,0,0-1.857-.488c-.169.1-.225.273-.387.369a.271.271,0,0,0-.12.151.363.363,0,0,1-.442.253" transform="translate(-281.523 -39.919)" fill="none" stroke="#695e55" stroke-width="2"/>
      <path id="패스_235" data-name="패스 235" d="M330.658,47.278a2.864,2.864,0,0,0-4.034-.5c-1.271.879.377,2.26.731,1.1a.277.277,0,0,1,.122-.157,1.981,1.981,0,0,1,1.293-.309" transform="translate(-263.411 -39.443)" fill="none" stroke="#3e3832" stroke-width="2"/>
      <path id="패스_236" data-name="패스 236" d="M335.168,52.39c-.173.456-.514.929.161,1.2a7.517,7.517,0,0,0,1.371.413.054.054,0,0,1,.026.092,1.515,1.515,0,0,0-.383,1.371.248.248,0,0,1-.094.231l-.393.3c-.927.7-.4,1.746.43,2.2a.249.249,0,0,1,.124.267,8.8,8.8,0,0,1-.59,1.841.345.345,0,0,1-.337.223,1.313,1.313,0,0,0-1.182.7,1.744,1.744,0,0,0-.163.869q0,.47.014.943" transform="translate(-269.808 -44.419)" fill="none" stroke="#695e55" stroke-width="2"/>
      <path id="패스_237" data-name="패스 237" d="M324.35,105.84a3.141,3.141,0,0,0-2.2.815.7.7,0,0,0-.114.963" transform="translate(-260.005 -87.217)" fill="none" stroke="#3e3832" stroke-width="2"/>
      <path id="패스_238" data-name="패스 238" d="M311.918,114.76a.781.781,0,0,1-.592.652q-.668.2-.723.231a3.187,3.187,0,0,0-.875.634,2.314,2.314,0,0,0-.468,1.281" transform="translate(-249.886 -94.36)" fill="none" stroke="#695e55" stroke-width="2"/>
      <path id="패스_239" data-name="패스 239" d="M227.97,105.469l1.752-.183a.164.164,0,0,0,.14-.1,1.659,1.659,0,0,1,1.4-.947.957.957,0,0,0,.869-.731.19.19,0,0,0-.05-.2,2.2,2.2,0,0,1-.59-.715,1.27,1.27,0,0,1,.891-1.708,1.4,1.4,0,0,1,1.427.407.225.225,0,0,0,.347-.034.767.767,0,0,0,.173-.5" transform="translate(-184.796 -83.15)" fill="none" stroke="#948578" stroke-width="2"/>
      <path id="패스_240" data-name="패스 240" d="M259.87,96.38q.652-.171.47-1.09" transform="translate(-210.339 -78.77)" fill="none" stroke="#3e3832" stroke-width="2"/>
      <path id="패스_241" data-name="패스 241" d="M261.814,56.327a3.061,3.061,0,0,1,.534-2.714,1.725,1.725,0,0,1,.556-.452,1.217,1.217,0,0,0,.6-.715.858.858,0,0,0-.018-.622,1.962,1.962,0,0,1-.132-.53,1.786,1.786,0,0,0-.371-.921,1.116,1.116,0,0,1-.269-1.106,1.3,1.3,0,0,1,1.676-.767q.363.092.247-.265l-.08-.249a.389.389,0,0,0-.448-.295,1.665,1.665,0,0,1-1.4-.534,2.735,2.735,0,0,0-.638-.526" transform="translate(-211.812 -39.807)" fill="none" stroke="#948578" stroke-width="2"/>
      <path id="패스_242" data-name="패스 242" d="M263.214,41.342a1.589,1.589,0,0,1,1.22.112.328.328,0,0,1,.171.2c.122.343.422.729.829.632a.522.522,0,0,0,.432-.576,1.454,1.454,0,0,0-1.066-1.477,4.743,4.743,0,0,0-1.67-.2" transform="translate(-212.95 -34.519)" fill="none" stroke="#3e3832" stroke-width="2"/>
      <path id="패스_243" data-name="패스 243" d="M248.373,27.423l-.544-.339a.331.331,0,0,1-.124-.143c-.333-.759-1.062-.769-1.666-1.182A4.322,4.322,0,0,1,244.7,24.28" transform="translate(-198.192 -21.911)" fill="none" stroke="#948578" stroke-width="2"/>
      <path id="패스_244" data-name="패스 244" d="M384.9,66.49a3.682,3.682,0,0,0-2.567.9c-.466.512-.357,1.529.554,1.252a.377.377,0,0,0,.217-.173c.438-.763,1.632-.817,2.441-.684a.268.268,0,0,1,.2.13l.147.227a.327.327,0,0,0,.147.124q.759.315.939-.745" transform="translate(-308.184 -55.709)" fill="none" stroke="#2b2723" stroke-width="2"/>
      <path id="패스_245" data-name="패스 245" d="M322.6,107.536c.263.3.668.426.919.066a1.673,1.673,0,0,1,1.509-.624.244.244,0,0,1,.2.1.592.592,0,0,0,.875.225.535.535,0,0,0,.257-.536q-.171-1.178-1.441-1.012" transform="translate(-260.568 -87.135)" fill="none" stroke="#2b2723" stroke-width="2"/>
      <path id="패스_246" data-name="패스 246" d="M341.187,51.71c.185.369.466.741,0,1.1-.534.411-.973-.243-1.269-.622a1.244,1.244,0,0,0-.618-.343" transform="translate(-273.94 -43.875)" fill="none" stroke="#2b2723" stroke-width="2"/>
      <path id="패스_247" data-name="패스 247" d="M254.619,40.05c-1.07.078-2.336.692-2.087,1.935a.6.6,0,0,0,.984.289.354.354,0,0,0,.122-.181.987.987,0,0,1,1.064-.731" transform="translate(-204.438 -34.538)" fill="none" stroke="#564d46" stroke-width="2"/>
      <path id="패스_248" data-name="패스 248" d="M250.511,92.261a1.764,1.764,0,0,0-2.435-.438c-1.148.743.016,2.116.805,1.05a.15.15,0,0,1,.211-.05c.373.189.452.566.949.528" transform="translate(-200.51 -75.741)" fill="none" stroke="#564d46" stroke-width="2"/>
      <path id="패스_249" data-name="패스 249" d="M239.451,259.895a.851.851,0,0,0-.857-.845h-.048a.851.851,0,0,0-.845.857l.043,6.2a.851.851,0,0,0,.857.845h.048a.851.851,0,0,0,.845-.857l-.043-6.2" transform="translate(-192.588 -209.895)" fill="none" stroke="#70614c" stroke-width="2"/>
      <path id="패스_250" data-name="패스 250" d="M313.611,265.132q-.068,1.262-.02,2.674a.861.861,0,0,0,.851.945c.7.062.895-.757.9-1.287q.028-3.641-.106-6.632a.839.839,0,1,0-1.678.024q-.036,1.11.01,2.338a.12.12,0,0,1-.138.141q-1.379-.014-2.734.014a.824.824,0,1,0,.024,1.644l2.742-.018q.159,0,.149.157" transform="translate(-250.335 -210.65)" fill="none" stroke="#70614c" stroke-width="2"/>
      <path id="패스_251" data-name="패스 251" d="M190.348,262.558a16.749,16.749,0,0,1-3.721,5.289c-.837.851.257,2.011,1.174,1.142a17.814,17.814,0,0,0,2.393-2.834.1.1,0,0,1,.171-.018q1.07,1.034,2.055,1.975a.793.793,0,1,0,1.074-1.166q-1.166-1.11-2.294-2.2a.146.146,0,0,1-.028-.173c.345-.646,1.3-2.567.875-3.25-.357-.574-1.4-.61-2.017-.606q-1.425.012-2.991.06c-1.351.042-1.387,1.626-.193,1.586q1.628-.056,3.3-.1.321-.01.2.291" transform="translate(-151.18 -211.231)" fill="none" stroke="#70614c" stroke-width="2"/>
      <path id="패스_252" data-name="패스 252" d="M271.752,265.751a.075.075,0,0,1,.055-.04.071.071,0,0,1,.063.022q1.321,1.449,2.724,2.937a.868.868,0,1,0,1.3-1.148,34.281,34.281,0,0,0-3.222-3.418.15.15,0,0,1-.036-.171,9.589,9.589,0,0,0,.654-2c.259-1.265-1.433-1.307-1.72-.385a20.468,20.468,0,0,1-3.268,6.347.828.828,0,0,0,.58,1.417c.576.016,1.084-.656,1.391-1.092a19.556,19.556,0,0,0,1.479-2.465" transform="translate(-216.91 -211.383)" fill="none" stroke="#70614c" stroke-width="2"/>
      <path id="패스_253" data-name="패스 253" d="M216.814,309.21q-1.8-.006-3.547,0c-.963,0-.7,2.437-.668,3a1.179,1.179,0,0,0,1.246,1.188,33.477,33.477,0,0,0,4.5.046.647.647,0,0,0,.67-.61l.014-.1q.108-.733-.634-.735l-3.82,0a.409.409,0,0,1-.3-.128.414.414,0,0,1-.112-.306l.042-.763a.184.184,0,0,1,.215-.2q1.483.06,2.81-.006a1.088,1.088,0,0,0,1.174-.879,10.091,10.091,0,0,0,.173-2.222q-.03-1.22-1.158-1.255-1.752-.058-3.631.05a.564.564,0,0,0-.6.628v.118a.66.66,0,0,0,.749.751H216.9a.1.1,0,0,1,.112.118l-.05,1.17a.128.128,0,0,1-.143.137" transform="translate(-172.443 -247.664)" fill="none" stroke="#70614c" stroke-width="2"/>
      <path id="패스_254" data-name="패스 254" d="M304.809,313.469q-.018,1.341,0,2.784a.836.836,0,1,0,1.67.006q.086-2.049,0-3.761a.72.72,0,0,0-.7-.759q-2.668,0-5.273.012c-.988.006-1.168,1.373-.245,1.515a23.109,23.109,0,0,0,4.408.066q.143-.008.143.138" transform="translate(-242.195 -252.084)" fill="none" stroke="#70614c" stroke-width="2"/>
      <path id="패스_255" data-name="패스 255" d="M177.891,388.484a.062.062,0,0,1-.044-.1,39.476,39.476,0,0,0,2.429-3.222,8.1,8.1,0,0,0,1.652-4.5,2.855,2.855,0,0,0-2.732-2.9,8.149,8.149,0,0,0-1.734.032c-.763.092-3.163.614-2.981,1.738.124.759.929.715,1.491.532a7.106,7.106,0,0,1,2.86-.666c1.718.239,1.425,2.17.9,3.318a8.7,8.7,0,0,1-1.08,1.792q-1.327,1.678-2.762,3.511c-.516.662-.751,1.752.359,1.983a8,8,0,0,0,1.489.167q2.007.034,4.071.022c.614,0,1.817-.13,1.71-1q-.1-.809-.982-.739a32.368,32.368,0,0,1-4.645.034" transform="translate(-141.959 -304.922)" fill="none" stroke="#f0e0cc" stroke-width="2"/>
      <path id="패스_256" data-name="패스 256" d="M234.006,377.988c-2.4,1.122-3.133,4.454-3.117,6.845.018,2.481,1.142,6.431,4.418,5.747,2.316-.484,3.575-2.792,3.922-5.048.379-2.453.128-5.907-2.19-7.362a3.2,3.2,0,0,0-3.033-.183" transform="translate(-187.133 -304.892)" fill="none" stroke="#f0e0cc" stroke-width="2"/>
      <path id="패스_257" data-name="패스 257" d="M295.041,37.034a1.23,1.23,0,0,1,1.594.3c.271.409.775.847,1.259.456a.6.6,0,0,0,.1-.721,2.477,2.477,0,0,0-1.877-1.4,3.072,3.072,0,0,0-2.037.484.842.842,0,0,0-.2,1.248.608.608,0,0,0,1-.2.3.3,0,0,1,.159-.159" transform="translate(-237.411 -31.018)" fill="none" stroke="#3e3832" stroke-width="2"/>
      <path id="패스_258" data-name="패스 258" d="M317.6,57.634a1.194,1.194,0,1,0-1.194,1.194,1.194,1.194,0,0,0,1.194-1.194" transform="translate(-254.651 -47.662)" fill="none" stroke="#695e55" stroke-width="2"/>
      <path id="패스_259" data-name="패스 259" d="M281.535,69.643c.3.341.678.654,1.112.231a.388.388,0,0,0,.12-.245c.1-.909-.767-1.357-1.556-1.293a3.869,3.869,0,0,0-2.67,1.361.776.776,0,0,0-.034.978.25.25,0,0,0,.066.074.557.557,0,0,0,.915-.157,2.272,2.272,0,0,1,1.9-1.008.182.182,0,0,1,.147.06" transform="translate(-225.137 -57.183)" fill="none" stroke="#3e3832" stroke-width="2"/>
      <path id="패스_260" data-name="패스 260" d="M315.853,77.4a.631.631,0,1,0,1.234.261.359.359,0,0,1,.134-.187,2.4,2.4,0,0,1,2.383-.411,1.836,1.836,0,0,1,.55.7.6.6,0,0,0,.913.153.782.782,0,0,0,.094-.963c-.865-1.716-3.077-1.564-4.438-.648a1.592,1.592,0,0,0-.869,1.092" transform="translate(-255.162 -63.033)" fill="none" stroke="#3e3832" stroke-width="2"/>
      <path id="패스_261" data-name="패스 261" d="M314.677,91.811a1.21,1.21,0,1,0-1.648-.139,1.171,1.171,0,0,0,1.648.139" transform="translate(-252.642 -74.327)" fill="none" stroke="#695e55" stroke-width="2"/>
      <path id="패스_262" data-name="패스 262" d="M294.137,109.716a1.586,1.586,0,1,0-1.892.452,1.4,1.4,0,0,0,1.892-.452" transform="translate(-235.468 -88.805)" fill="none" stroke="#695e55" stroke-width="2"/>
      <path id="패스_263" data-name="패스 263" d="M239.811,34.845a1.255,1.255,0,1,0-1.255,1.255,1.255,1.255,0,0,0,1.255-1.255" transform="translate(-192.267 -29.366)" fill="none" stroke="#948578" stroke-width="2"/>
      <path id="패스_264" data-name="패스 264" d="M189.016,35.458a1.317,1.317,0,0,1,.709-.08c.265.044.4.231.646.307.654.2,1.254-.415.751-.978a2.3,2.3,0,0,0-3.149-.086c-.564.462-.556,1.564.436,1.463a.607.607,0,0,0,.486-.492.187.187,0,0,1,.12-.134" transform="translate(-152.468 -29.727)" fill="none" stroke="#564d46" stroke-width="2"/>
      <path id="패스_265" data-name="패스 265" d="M213.535,51.412a1.784,1.784,0,0,1,2.334.207c.285.273.923.359,1.1-.092a.754.754,0,0,0-.175-.869,2.882,2.882,0,0,0-3-.773,3.121,3.121,0,0,0-1.827,1.238.9.9,0,0,0-.11.971.66.66,0,0,0,.883.2.338.338,0,0,0,.181-.179,1.481,1.481,0,0,1,.618-.7" transform="translate(-171.808 -42.307)" fill="none" stroke="#564d46" stroke-width="2"/>
      <path id="패스_266" data-name="패스 266" d="M161.648,53.315a1.2,1.2,0,0,1,.341.331.432.432,0,0,0,.209.161c.851.3,1.433-.622.749-1.188a1.917,1.917,0,0,0-1.754-.654,2.89,2.89,0,0,0-2,1.554c-.3.518-.325,1.523.532,1.449a.562.562,0,0,0,.5-.426,1.659,1.659,0,0,1,1.106-1.263.37.37,0,0,1,.321.036" transform="translate(-129.572 -44.053)" fill="none" stroke="#564d46" stroke-width="2"/>
      <path id="패스_267" data-name="패스 267" d="M246.425,66.768a1.238,1.238,0,1,0-1.238,1.238,1.238,1.238,0,0,0,1.238-1.238" transform="translate(-197.592 -54.94)" fill="none" stroke="#948578" stroke-width="2"/>
      <path id="패스_268" data-name="패스 268" d="M187.714,79.674c.261.291.43.546.889.419a.542.542,0,0,0,.417-.725c-.277-1.3-2.059-1.385-3.065-.915-.536.251-1.381.853-1.325,1.517a.638.638,0,0,0,1.222.247c.253-.54,1.435-1.018,1.863-.542" transform="translate(-150.091 -65.079)" fill="none" stroke="#564d46" stroke-width="2"/>
      <path id="패스_269" data-name="패스 269" d="M133.788,86.347a1.7,1.7,0,0,1,1.578.151c.335.219,1.052.231,1.2-.239a.6.6,0,0,0-.209-.7,3.072,3.072,0,0,0-3.2-.363c-1.62.624-.395,2.668.464,1.289a.331.331,0,0,1,.171-.138" transform="translate(-108.239 -70.46)" fill="none" stroke="#564d46" stroke-width="2"/>
      <path id="패스_270" data-name="패스 270" d="M386.4,93.833c.411-.008.6.373,1.03.267a.62.62,0,0,0,.313-.969,1.293,1.293,0,0,0-1.162-.542,3.925,3.925,0,0,0-3.153,1.529c-.4.5-.233,1.425.622,1.238a.326.326,0,0,0,.239-.2,2.526,2.526,0,0,1,2.11-1.327" transform="translate(-309.112 -76.607)" fill="none" stroke="#2b2723" stroke-width="2"/>
      <path id="패스_271" data-name="패스 271" d="M241.417,395.391c1.4.113,2.711-1.965,2.926-4.641s-.746-4.936-2.147-5.049-2.711,1.965-2.927,4.641.746,4.936,2.147,5.049" transform="translate(-193.82 -311.303)" fill="none" stroke="#f0e0cc" stroke-width="2"/>
      <path id="패스_272" data-name="패스 272" d="M297.826,385.84a1.789,1.789,0,0,0-.763.365,3.734,3.734,0,0,0-.951,1.186,8.48,8.48,0,0,0-.859,4.358,5.7,5.7,0,0,0,.911,2.961,1.547,1.547,0,0,0,2.077.608,2.753,2.753,0,0,0,.877-.791,7.382,7.382,0,0,0,1.24-3.912" transform="translate(-238.657 -311.418)" fill="none" stroke="#f0e0cc" stroke-width="2"/>
      <path id="패스_273" data-name="패스 273" d="M310.761,390.513a8.369,8.369,0,0,0-.147-2.136,4.592,4.592,0,0,0-.859-1.983,1.567,1.567,0,0,0-1.525-.656" transform="translate(-249.062 -311.316)" fill="none" stroke="#dfd2c1" stroke-width="2"/>
      <path id="패스_274" data-name="패스 274" d="M306.57,390.615a4.624,4.624,0,0,1-.933-.161,5.632,5.632,0,0,1-1.612-.57,2.478,2.478,0,0,1-.873-1.044,1.771,1.771,0,0,1-.094-1.21,4.2,4.2,0,0,1,.98-1.79" transform="translate(-244.871 -311.418)" fill="none" stroke="#d0b38d" stroke-width="2"/>
    </g>
    <path id="패스_275" data-name="패스 275" d="M99.034,38.663a.938.938,0,0,1,.247.409,27.751,27.751,0,0,1,1.463,7.547q.217,4.117.106,7.922-.042,1.433-.183,3.189-.086,1.092-.361,3.177-.407,3.083-.7,6.244c-.072.767-.006,1.536-.1,2.308a16.514,16.514,0,0,0,.06,2.373,23.24,23.24,0,0,0,.393,4.215c.381,1.889,1.062,4.163,1.351,6.3.157,1.168-.161,2.423.243,3.537a10.5,10.5,0,0,1,.345,1.14.393.393,0,0,0,.132.207,7.088,7.088,0,0,1,2.615,3.318,8.659,8.659,0,0,1,.446,2.166,11.647,11.647,0,0,1-2.423,8.045,7.028,7.028,0,0,1-1.281,1.287,23.324,23.324,0,0,1-4.317,2.643,35.291,35.291,0,0,1-5.3,2.043,74.425,74.425,0,0,1-8.6,2q-3.2.538-7.366.971-1.654.171-3.193.317-.859.082-1.6.189c-1.028.149-2.037.149-3.047.235q-.737.062-1.459.076-1.469.028-2.9.062c-1.847.042-3.878-.066-5.823-.052a8.156,8.156,0,0,1-1.12-.068c-.51-.066-1.028,0-1.55-.036q-2.081-.124-4.169-.092a9.081,9.081,0,0,1-1.291-.072c-.56-.072-1.166,0-1.742-.042q-1.7-.124-3.41-.086c-.552.012-1.058-.13-1.606-.1-.811.038-1.66-.082-2.463-.106q-.664-.02-1.389-.08t-1.4-.124A60.211,60.211,0,0,1,24.728,107.2q-3.868-1.244-7.661-2.8a26.721,26.721,0,0,1-4.33-2.266,8.061,8.061,0,0,1-1.21-.961c-.407-.389-.855-.656-1.277-1-.606-.5-1.479-.823-1.879-1.214a17.168,17.168,0,0,1-3.561-4.9,3.054,3.054,0,0,1-.211-2c.4-1.9,2.455-3.382,4.215-3.764a.688.688,0,0,0,.261-.116c.329-.233.65-.1.911-.43q1.935-2.407,3.729-4.815a17.858,17.858,0,0,0,1.66-2.7.54.54,0,0,0,.04-.4q-.468-1.648-.907-3.183a12.264,12.264,0,0,1-.094-6.425,27.175,27.175,0,0,1,1.317-3.9A1.183,1.183,0,0,1,16,65.937a.152.152,0,0,0,.036-.179q-.5-1.254-.925-2.459a21.749,21.749,0,0,1-.923-4.016,10.029,10.029,0,0,1-.108-1.6q.008-.546.006-1.114a14.134,14.134,0,0,1,.311-2.318q.106-.634.265-1.248a8.948,8.948,0,0,0,.167-4.067q-.279-1.413-.5-2.764a17.114,17.114,0,0,1-.211-3.924l.028-.452q.062-.955.074-1.969a16.149,16.149,0,0,0-.546-3.976,1.764,1.764,0,0,1,.026-.973.138.138,0,0,0-.056-.171,13.2,13.2,0,0,1-3.7-4.175,9.3,9.3,0,0,1-1.2-4.087q-.036-.55-.08-1.07A5.538,5.538,0,0,0,8.461,24.3q-.319-1.088-.59-2.134a5.4,5.4,0,0,1-.177-1.311,6.692,6.692,0,0,1,.61-3.505,10.389,10.389,0,0,0,.58-1.136,1.072,1.072,0,0,1,.311-.409.278.278,0,0,0,.1-.161A3.116,3.116,0,0,1,9.812,14.5q.7-.984,1.457-1.861A6.1,6.1,0,0,1,17.2,10.4a7.236,7.236,0,0,0,1.369.106A8.887,8.887,0,0,0,21.53,9.7a6.063,6.063,0,0,1,4.034-.106.385.385,0,0,0,.267-.012A20.623,20.623,0,0,1,30.639,8.21q1.16-.177,2.383-.369c2.282-.357,4.659-.935,6.806-1.315a57.9,57.9,0,0,1,8.386-.809q.65-.02,1.333-.078.6-.052,1.4-.064l.448-.008q3.868-.044,8.386-.048c.494,0,.943.13,1.419.1.574-.036,1.166.084,1.742.1q.568.014,1.142.064a95.5,95.5,0,0,1,14,2.29q4.643,1.114,9.986,2.579c3.137.861,6.242,1.487,9.5,2.079q1.329.239,2.89.616a9.361,9.361,0,0,1,2.613.961,8.021,8.021,0,0,1,3.509,4.767,6.7,6.7,0,0,1-.05,1.752,5.744,5.744,0,0,1-.55,2.507c-.522,1.174-1.275,2.435-1.909,3.623a4.7,4.7,0,0,0-.357.831q-.7,2.35-1.319,4.655a13.5,13.5,0,0,1-1.05,2.858,13.888,13.888,0,0,1-2.318,3.185A.115.115,0,0,0,99.034,38.663ZM73.547,108.554q3.719-.331,7-.8a81.071,81.071,0,0,0,8.567-1.72,32.4,32.4,0,0,0,11.158-4.888,8.333,8.333,0,0,0,2.545-3.242,9.939,9.939,0,0,0,.945-5.58,5.818,5.818,0,0,0-1-2.627.166.166,0,0,0-.249-.054.676.676,0,0,1-1.014-.155,11.966,11.966,0,0,1-1.3-3.25A4.015,4.015,0,0,1,100,84.909a27.919,27.919,0,0,0-1.214-7.756,27.523,27.523,0,0,1-.648-5.628,40.55,40.55,0,0,1,.145-5.193q.315-3.193.891-7.716c.054-.413.068-.823.112-1.246q.1-.955.157-2.678.167-5.14-.078-8.753A24.049,24.049,0,0,0,98.1,39.624a.226.226,0,0,0-.151-.143.23.23,0,0,0-.206.04,9.711,9.711,0,0,1-3.452,1.766,1.161,1.161,0,0,1-1.14-.291c-.275-.646.032-1.07.674-1.1a2.534,2.534,0,0,0,.963-.237,11,11,0,0,0,5.277-5.034,10.631,10.631,0,0,0,.893-2.34q.6-2.212,1.271-4.356a11.174,11.174,0,0,1,1.022-2.34q.945-1.612,1.632-3.051a3.782,3.782,0,0,0,.351-2.19,6.613,6.613,0,0,0-.116-1.246,6.729,6.729,0,0,0-2.368-3.292,7.781,7.781,0,0,0-3.137-1.192q-3.741-.757-7.382-1.5-2.647-.544-8.248-2.081-5.927-1.628-12.051-2.8-.44-.086-.026.086A7.112,7.112,0,0,1,73.83,9.556a1.95,1.95,0,0,0,.909.46,28.587,28.587,0,0,0,3.43.5,3.363,3.363,0,0,1,1.463.42,4.528,4.528,0,0,0,1.56.642,4.532,4.532,0,0,1,2.479.731,4.5,4.5,0,0,0,1.523.9,17.028,17.028,0,0,1,2.4,1.7c.52.468.62,1.17,1.347,1.552a12.776,12.776,0,0,1,1.718,1.07c.5.377.678,1,1.263,1.273,1.377.636,2.379,1.224,2.613,2.834a.128.128,0,0,0,.071.1.133.133,0,0,0,.123,0,10.357,10.357,0,0,0,4.1-4.047c1.044-.327,1.331.58.867,1.315a10.44,10.44,0,0,1-2.557,2.8,28.481,28.481,0,0,1-6.188,3.426A88.563,88.563,0,0,1,70.56,30.949a57.615,57.615,0,0,1-6.349.588c-.209.008-.407.082-.608.082q-2.6-.008-5.359,0c-.375,0-.709-.1-1.076-.106q-.385,0-.757-.026A96.149,96.149,0,0,1,42.186,29.36a89.417,89.417,0,0,1-14.657-4.35c-4.03-1.624-8.189-3.256-11.782-5.7-.867-.59-3.623-2.926-1.975-3.954a.26.26,0,0,1,.189-.032.585.585,0,0,1,.413.311,5.644,5.644,0,0,0,2.738,3,50.836,50.836,0,0,0,5.343,2.776.084.084,0,0,0,.13-.062,3.034,3.034,0,0,1,1.544-1.975c.721-.361,1.594-.715,1.9-1.517.644-1.7,1.821-2.328,3.324-3.147a4.6,4.6,0,0,0,1.164-1,12.541,12.541,0,0,1,1.879-1.764,4.825,4.825,0,0,1,2.081-.98q1.7-.313,2.433-.5c.58-.149.933-.638,1.463-.881a10.179,10.179,0,0,1,4.888-.4,11.412,11.412,0,0,0,4.988-1.066,8.291,8.291,0,0,1,4.105-.3,15.2,15.2,0,0,0,2.591.106,5.369,5.369,0,0,0,1.11-.141,22.97,22.97,0,0,1,2.621-.43,7.919,7.919,0,0,1,1.194.07,12.731,12.731,0,0,1,2.246.265,14.257,14.257,0,0,0,4.061.315q1.509-.092,1.843-.084.925.022,1.843.052a.03.03,0,0,0,.036-.03v0a.032.032,0,0,0-.03-.036q-2.322-.345-5.56-.654Q63,7.116,61.763,7.08q-.2-.006-.4-.018a88.342,88.342,0,0,0-11.016,0c-.861.054-1.652.02-2.493.076q-1.534.1-3.113.219a43.987,43.987,0,0,0-6.14.857q-3.828.831-7.405,1.379a17.846,17.846,0,0,0-4.97,1.4c-.436.205-1.491-.122-1.957-.223a4.842,4.842,0,0,0-2.858.5,7.621,7.621,0,0,1-4.334.5,4.61,4.61,0,0,0-3.679.737,11.6,11.6,0,0,0-2.6,2.9,7.494,7.494,0,0,0-.385,1q-.333.674-.707,1.339a5.722,5.722,0,0,0-.442,4.024q.3,1.144.624,2.379a21.863,21.863,0,0,1,.347,2.981,9.228,9.228,0,0,0,2.332,4.757,13.082,13.082,0,0,0,3.818,2.973,2.339,2.339,0,0,0,.568.223.433.433,0,0,1,.327.373.706.706,0,0,1-.58.865c-.436.108-1.108-.4-1.467-.63q-.136-.088-.1.07.175.833.337,1.764a14.451,14.451,0,0,1,.167,3.559,21.259,21.259,0,0,0,.064,4.5q.193,1.345.548,3.083c.108.528.118,1.052.177,1.586a4.886,4.886,0,0,1-.014,1.172,22.511,22.511,0,0,1-.534,2.762,13.229,13.229,0,0,0-.287,5.163,36.128,36.128,0,0,0,2.387,7.86c.139.369.57.8.532,1.17a.556.556,0,0,1-.678.558c-.5-.04-.9-.745-1.052-1.158a.056.056,0,0,0-.1,0,28.234,28.234,0,0,0-.895,2.7,10.814,10.814,0,0,0-.012,5.692,21.442,21.442,0,0,0,1.248,4.077.216.216,0,0,1,0,.2c-.187.365-.5.63-.7.992A17.852,17.852,0,0,1,15,83.518q-2.176,2.878-4.629,5.829a4.921,4.921,0,0,0-.787,1.244.584.584,0,0,1-.707.353.724.724,0,0,1-.488-.957q.028-.136-.1-.078C7.2,90.417,5.5,91.8,5.952,93.211A12.375,12.375,0,0,0,8.712,97.4a7.277,7.277,0,0,0,2.25,1.542,24.147,24.147,0,0,1,2.607,2,46.614,46.614,0,0,0,9.837,4.315,58.334,58.334,0,0,0,11.69,2.748q3.27.421,6.084.526,1.082.042,2.3.106,2.5.134,4.946.124c.219,0,.424.072.642.076q1.285.016,2.92.078c1.257.046,2.557.008,3.878.076q5.1.261,10.393.128Q68.469,109.06,73.547,108.554ZM52.385,9.259a7.16,7.16,0,0,0-4.474.51,10.563,10.563,0,0,1-4.771.837c-1.291-.114-3.462-.391-4.544.546a6.369,6.369,0,0,1-3.25,1.112,4.651,4.651,0,0,0-1.435.415,7.4,7.4,0,0,0-2.284,1.843,5.612,5.612,0,0,1-1.507,1.287c-1.016.584-2.288,1.08-2.748,2.284a3.76,3.76,0,0,1-2.128,2.152,2.422,2.422,0,0,0-1.232.935.319.319,0,0,0-.03.207.6.6,0,0,1-.082.47q-.084.124.056.179,2.756,1.106,5.355,2.116,2.846,1.106,6.443,2.15a114.823,114.823,0,0,0,13.3,2.906q.815.173,1.052.207,2.784.389,5.582.636l.841.07a53.028,53.028,0,0,0,8.725-.034,60.22,60.22,0,0,0,8.89-1.184A89.081,89.081,0,0,0,90.9,23.731l2.445-1.2a.111.111,0,0,0,.06-.163,4.457,4.457,0,0,1-.269-.781c-.263-1.054-1.439-1.357-2.264-1.815a2.14,2.14,0,0,1-.686-.739c-.811-1.2-2.569-1.291-3.212-2.65a5.376,5.376,0,0,0-2.262-1.8,8.1,8.1,0,0,1-1.8-1.09,1.968,1.968,0,0,0-1.1-.428,5.216,5.216,0,0,1-2.14-.524,4.554,4.554,0,0,0-1.993-.688,25.513,25.513,0,0,1-2.983-.417,3.53,3.53,0,0,1-1.734-.793,5.146,5.146,0,0,0-2.985-1.373,30.4,30.4,0,0,0-3.741.118A11.416,11.416,0,0,1,63.72,9.34q-1.345-.187-2.688-.418a10.657,10.657,0,0,0-4.572.2,8.058,8.058,0,0,1-1.534.189C54.1,9.366,53.248,9.223,52.385,9.259Z"/>
    <path id="패스_276" data-name="패스 276" d="M37.843,17.444q-.462-.04-.883-.1a3.43,3.43,0,0,0-.873-.026c-.847.094-1.66.054-2.513.207q-1.088.2-2.136.351-1,.149-2.17.223a22.038,22.038,0,0,0-2.577.329q-.831.153-1.67.317a10.864,10.864,0,0,0-1.678.5l-1.913.719a3.709,3.709,0,0,0-1.606,1.176.585.585,0,0,0-.413-.311.26.26,0,0,0-.189.032c-1.648,1.028,1.108,3.364,1.975,3.954,3.593,2.447,7.752,4.079,11.782,5.7a89.417,89.417,0,0,0,14.657,4.35A96.149,96.149,0,0,0,61.86,36.99q.373.022.757.026c.367.006.7.108,1.076.106q2.758-.008,5.359,0c.2,0,.4-.074.608-.082a57.614,57.614,0,0,0,6.349-.588A88.563,88.563,0,0,0,96.4,30.724,28.481,28.481,0,0,0,102.59,27.3a10.44,10.44,0,0,0,2.557-2.8c.464-.735.177-1.642-.867-1.315a.951.951,0,0,1-.185-.277,1.8,1.8,0,0,0-.434-.4,1.9,1.9,0,0,1-.4-.411,2.26,2.26,0,0,0-1.156-.839q-3.7-1.212-7.575-2.09a23.86,23.86,0,0,0-3.884-.458,4.5,4.5,0,0,1-1.523-.9,4.532,4.532,0,0,0-2.479-.731,4.528,4.528,0,0,1-1.56-.642,3.363,3.363,0,0,0-1.463-.42,28.587,28.587,0,0,1-3.43-.5,1.95,1.95,0,0,1-.909-.46,7.112,7.112,0,0,0-1.923-1.232q-.415-.171.026-.086,6.124,1.172,12.051,2.8,5.6,1.536,8.248,2.081,3.641.745,7.382,1.5a7.781,7.781,0,0,1,3.137,1.192,6.729,6.729,0,0,1,2.368,3.292,6.613,6.613,0,0,1,.116,1.246,3.782,3.782,0,0,1-.351,2.19q-.688,1.439-1.632,3.051a11.174,11.174,0,0,0-1.022,2.34q-.67,2.144-1.271,4.356a10.632,10.632,0,0,1-.893,2.34,11,11,0,0,1-5.277,5.034,2.534,2.534,0,0,1-.963.237c-.642.026-.949.45-.674,1.1l-1.477.873c.01-.576-.422-.749-.883-.554a38.189,38.189,0,0,1-7.451,2.318,106.1,106.1,0,0,1-12.511,1.8q-4.133.327-5.482.341c-3.553.034-7.039.122-10.516-.114q-1.756-.118-3.382-.253a92.278,92.278,0,0,1-12-1.78,60.6,60.6,0,0,1-5.881-1.63Q34.459,46,30.332,44.284a19.857,19.857,0,0,1-4.878-2.774.8.8,0,0,0-1.216.207c-.229.418.134.8.472,1.036q-1.283.835-.819,1.808a3.04,3.04,0,0,0,1.034,1.1,11.039,11.039,0,0,0,1.363.821,63.149,63.149,0,0,0,8.629,3.6q1.905.642,4,1.259a.091.091,0,0,1,.066.064.067.067,0,0,0,.072.05,1.423,1.423,0,0,1,.7.169.376.376,0,0,0,.2.046.683.683,0,0,1,.325.07,2.814,2.814,0,0,0,.919.171,2.639,2.639,0,0,1,.514.116,6.043,6.043,0,0,0,1.182.255,6.917,6.917,0,0,1,1.09.2q.554.147,1.158.249.494.084,1.006.177,1.327.243,2.748.42,1.744.219,3.342.45.62.09,1.321.151.624.056,1.234.161.217.038.456.06,1.77.161,3.468.353.656.076,1.365.1c1.152.036,2.356.157,3.46.181q6.01.134,9.219-.074,1.188-.078,2.527-.143,1.032-.048,2.485-.163,1.277-.1,2.489-.074a1.609,1.609,0,0,1,.735.2A16.711,16.711,0,0,1,87.52,62q.707,1.7.907,2.292a34.453,34.453,0,0,1,1.6,11.694c-.006.323-.022.7-.355.877q-3.017,1.574-6.264,3.057Q80.38,81.3,77.3,82.777q-1.046.5-2.369,1.3-1.293.783-2.688,1.467a3.22,3.22,0,0,0-3.328.165c-2,1.311-2.7,4.307-2.674,6.68.022,2.021.684,4.7,2.619,5.54a3.623,3.623,0,0,0,3.651-.773,7.554,7.554,0,0,0,2.206-5.5l2.961-.568a21.153,21.153,0,0,0,.327,4.362,2.4,2.4,0,0,0,2.465,2.17,22.842,22.842,0,0,0,3.143-.06,5.521,5.521,0,0,0-.287.8,4.225,4.225,0,0,1-.341.871,66.683,66.683,0,0,0-3.019,6.558,17.07,17.07,0,0,0-1.536,6.407A3.354,3.354,0,0,0,79,114.057q-5.078.506-7.294.564-5.291.134-10.393-.128c-1.321-.068-2.621-.03-3.878-.076q-1.634-.062-2.92-.078c-.217,0-.422-.078-.642-.076q-2.445.01-4.946-.124-1.214-.064-2.3-.106-2.814-.106-6.084-.526a58.334,58.334,0,0,1-11.69-2.748,46.614,46.614,0,0,1-9.837-4.315,24.147,24.147,0,0,0-2.607-2,7.277,7.277,0,0,1-2.25-1.542,12.375,12.375,0,0,1-2.76-4.187c-.45-1.413,1.25-2.794,2.342-3.3q.126-.058.1.078a.724.724,0,0,0,.488.957.584.584,0,0,0,.707-.353,4.921,4.921,0,0,1,.787-1.244q2.453-2.951,4.629-5.829a17.852,17.852,0,0,0,1.3-2.071c.2-.363.514-.628.7-.992a.216.216,0,0,0,0-.2,21.442,21.442,0,0,1-1.248-4.077,10.814,10.814,0,0,1,.012-5.692,28.234,28.234,0,0,1,.895-2.7.056.056,0,0,1,.1,0c.149.413.552,1.118,1.052,1.158a.556.556,0,0,0,.678-.558c.038-.373-.393-.8-.532-1.17a36.128,36.128,0,0,1-2.387-7.86A13.229,13.229,0,0,1,21.32,59.7a22.511,22.511,0,0,0,.534-2.762,4.886,4.886,0,0,0,.014-1.172c-.06-.534-.07-1.058-.177-1.586q-.355-1.738-.548-3.083a21.259,21.259,0,0,1-.064-4.5,14.451,14.451,0,0,0-.167-3.559q-.161-.931-.337-1.764-.034-.157.1-.07c.359.233,1.03.737,1.467.63a.706.706,0,0,0,.58-.865.433.433,0,0,0-.327-.373,2.339,2.339,0,0,1-.568-.223A13.082,13.082,0,0,1,18.01,37.4a9.228,9.228,0,0,1-2.332-4.757,21.863,21.863,0,0,0-.347-2.981q-.325-1.236-.624-2.379a5.722,5.722,0,0,1,.442-4.024q.375-.666.707-1.339a7.494,7.494,0,0,1,.385-1,11.6,11.6,0,0,1,2.6-2.9,4.61,4.61,0,0,1,3.679-.737,7.621,7.621,0,0,0,4.334-.5,4.842,4.842,0,0,1,2.858-.5c.466.1,1.521.428,1.957.223a17.846,17.846,0,0,1,4.97-1.4q3.577-.548,7.405-1.379a43.987,43.987,0,0,1,6.14-.857q1.578-.116,3.113-.219c.841-.056,1.632-.022,2.493-.076a88.342,88.342,0,0,1,11.016,0q.205.012.4.018,1.242.036,2.543.159,3.238.309,5.56.654a.032.032,0,0,1,.03.036v0a.03.03,0,0,1-.036.03q-.919-.03-1.843-.052-.335-.008-1.843.084a14.257,14.257,0,0,1-4.061-.315,12.731,12.731,0,0,0-2.246-.265,7.92,7.92,0,0,0-1.194-.07,22.97,22.97,0,0,0-2.621.43,5.369,5.369,0,0,1-1.11.141,15.2,15.2,0,0,1-2.591-.106,8.291,8.291,0,0,0-4.105.3,11.412,11.412,0,0,1-4.988,1.066,10.179,10.179,0,0,0-4.888.4c-.53.243-.883.731-1.463.881q-.737.189-2.433.5A4.825,4.825,0,0,0,37.843,17.444ZM58.19,62.393a.851.851,0,0,0-.857-.845h-.048a.851.851,0,0,0-.845.857l.043,6.2a.851.851,0,0,0,.857.845h.048a.851.851,0,0,0,.845-.857ZM74.6,66.875q-.068,1.261-.02,2.674a.861.861,0,0,0,.851.945c.7.062.895-.757.9-1.287q.028-3.641-.106-6.632a.839.839,0,1,0-1.678.024q-.036,1.11.01,2.338a.12.12,0,0,1-.138.142q-1.379-.014-2.734.014a.824.824,0,1,0,.024,1.644l2.742-.018Q74.613,66.717,74.6,66.875ZM50.5,63.72a16.749,16.749,0,0,1-3.721,5.289c-.837.851.257,2.011,1.174,1.142a17.814,17.814,0,0,0,2.393-2.834.1.1,0,0,1,.171-.018q1.07,1.034,2.055,1.975a.793.793,0,1,0,1.074-1.166q-1.166-1.11-2.294-2.2a.146.146,0,0,1-.028-.173c.345-.646,1.3-2.567.875-3.25-.357-.574-1.4-.61-2.017-.606q-1.425.012-2.991.06c-1.351.042-1.387,1.626-.193,1.586q1.628-.056,3.3-.1Q50.613,63.419,50.5,63.72Zm15.674,3.041a.075.075,0,0,1,.055-.04.071.071,0,0,1,.063.022q1.321,1.449,2.724,2.937a.868.868,0,1,0,1.3-1.148,34.282,34.282,0,0,0-3.222-3.418.15.15,0,0,1-.036-.171,9.589,9.589,0,0,0,.654-2c.259-1.265-1.433-1.307-1.72-.385A20.468,20.468,0,0,1,62.719,68.9a.828.828,0,0,0,.58,1.417c.576.016,1.084-.656,1.391-1.092A19.557,19.557,0,0,0,66.169,66.761ZM55.7,73.939q-1.8-.006-3.547,0c-.963,0-.7,2.437-.668,3a1.179,1.179,0,0,0,1.246,1.188,33.478,33.478,0,0,0,4.5.046.647.647,0,0,0,.67-.61l.014-.1q.108-.733-.634-.735l-3.82,0a.412.412,0,0,1-.411-.434l.042-.763a.184.184,0,0,1,.215-.2q1.483.06,2.81-.006a1.088,1.088,0,0,0,1.174-.879,10.091,10.091,0,0,0,.173-2.222q-.03-1.22-1.158-1.255-1.752-.058-3.631.05a.564.564,0,0,0-.6.628v.118a.66.66,0,0,0,.749.751H55.78a.1.1,0,0,1,.112.118l-.05,1.17A.128.128,0,0,1,55.7,73.939Zm18.243-.161q-.018,1.341,0,2.784a.836.836,0,1,0,1.67.006q.086-2.049,0-3.761a.72.72,0,0,0-.7-.759q-2.668,0-5.273.012c-.988.006-1.168,1.373-.245,1.515a23.11,23.11,0,0,0,4.408.066Q73.941,73.632,73.941,73.778ZM47.259,95.954a.062.062,0,0,1-.044-.1,39.466,39.466,0,0,0,2.429-3.222,8.1,8.1,0,0,0,1.652-4.5,2.855,2.855,0,0,0-2.732-2.9,8.148,8.148,0,0,0-1.734.032c-.763.092-3.163.614-2.981,1.738.124.759.929.715,1.491.532a7.106,7.106,0,0,1,2.86-.666c1.718.239,1.425,2.17.9,3.318a8.7,8.7,0,0,1-1.08,1.792q-1.327,1.678-2.762,3.511c-.516.662-.751,1.752.359,1.983a8,8,0,0,0,1.489.167q2.007.034,4.071.022c.614,0,1.817-.13,1.71-1q-.1-.809-.982-.739A32.365,32.365,0,0,1,47.259,95.954ZM58.2,85.488c-2.4,1.122-3.133,4.454-3.117,6.845.018,2.481,1.142,6.431,4.418,5.747,2.316-.484,3.575-2.792,3.922-5.048.379-2.453.128-5.907-2.19-7.362A3.2,3.2,0,0,0,58.2,85.488Z" transform="translate(-5.45 -5.503)" fill="#e0c198"/>
    <path id="패스_277" data-name="패스 277" d="M269.816,36.763l-.678-.574a.467.467,0,0,0-.165-.09,1.59,1.59,0,0,1-.6-.353.212.212,0,0,1-.072-.183,2.521,2.521,0,0,1,.058-.359,1.079,1.079,0,0,0-.526-1.112,1.447,1.447,0,0,0-1.825.122.186.186,0,0,1-.233.022,4.144,4.144,0,0,0-.691-.315c-.411-.143-.821-.024-1.148-.369a.229.229,0,0,1-.064-.173,3.885,3.885,0,0,0-.277-1.644.976.976,0,0,0-.6-.763,2.985,2.985,0,0,0-1.471-.269l-1.246-.391a.131.131,0,0,1-.1-.155,3.285,3.285,0,0,1,.082-.442,1.438,1.438,0,0,0-.965-1.616,1.376,1.376,0,0,0-1.8.917.158.158,0,0,1-.187.112,9.594,9.594,0,0,1-1.957-.676.65.65,0,0,1-.349-.323,1.093,1.093,0,0,1-.082-.45.333.333,0,0,0-.064-.205,1.306,1.306,0,0,0-1.857-.488c-.169.1-.225.273-.387.369a.271.271,0,0,0-.12.151.363.363,0,0,1-.442.253,2.864,2.864,0,0,0-4.034-.5c-1.271.879.377,2.26.731,1.1a.277.277,0,0,1,.122-.157,1.981,1.981,0,0,1,1.293-.309c-.173.456-.514.929.161,1.2a7.517,7.517,0,0,0,1.371.413.054.054,0,0,1,.026.092,1.515,1.515,0,0,0-.383,1.371.248.248,0,0,1-.094.231l-.393.3c-.927.7-.4,1.746.43,2.2a.249.249,0,0,1,.124.267,8.8,8.8,0,0,1-.59,1.841.345.345,0,0,1-.337.223,1.312,1.312,0,0,0-1.182.7,1.745,1.745,0,0,0-.163.869q0,.47.014.943a3.141,3.141,0,0,0-2.2.815.7.7,0,0,0-.114.963.781.781,0,0,1-.592.652q-.668.2-.723.231a3.187,3.187,0,0,0-.875.634,2.314,2.314,0,0,0-.468,1.281,53.028,53.028,0,0,1-8.725.034l-.841-.07q-2.8-.247-5.582-.636-.237-.034-1.052-.207l1.752-.183a.164.164,0,0,0,.14-.1,1.659,1.659,0,0,1,1.4-.947.957.957,0,0,0,.869-.731.19.19,0,0,0-.05-.2,2.2,2.2,0,0,1-.59-.715,1.27,1.27,0,0,1,.891-1.708,1.4,1.4,0,0,1,1.427.407.225.225,0,0,0,.347-.034.767.767,0,0,0,.173-.5q.652-.171.47-1.09a3.061,3.061,0,0,1,.534-2.714,1.725,1.725,0,0,1,.556-.452,1.217,1.217,0,0,0,.6-.715.858.858,0,0,0-.018-.622,1.963,1.963,0,0,1-.132-.53,1.786,1.786,0,0,0-.371-.921,1.116,1.116,0,0,1-.269-1.106,1.3,1.3,0,0,1,1.676-.767q.363.092.247-.265l-.08-.249a.389.389,0,0,0-.448-.295,1.665,1.665,0,0,1-1.4-.534,2.735,2.735,0,0,0-.638-.526,1.589,1.589,0,0,1,1.22.112.328.328,0,0,1,.171.2c.122.343.422.729.829.632a.522.522,0,0,0,.432-.576,1.454,1.454,0,0,0-1.066-1.477,4.743,4.743,0,0,0-1.67-.2l-.544-.339a.331.331,0,0,1-.124-.143c-.333-.759-1.062-.769-1.666-1.182a4.322,4.322,0,0,1-1.339-1.479c.863-.036,1.716.108,2.541.054a8.058,8.058,0,0,0,1.534-.189,10.657,10.657,0,0,1,4.572-.2q1.343.231,2.688.418a11.416,11.416,0,0,0,2.513.046,30.4,30.4,0,0,1,3.741-.118,5.146,5.146,0,0,1,2.985,1.373,3.53,3.53,0,0,0,1.734.793,25.512,25.512,0,0,0,2.983.417,4.554,4.554,0,0,1,1.993.688,5.215,5.215,0,0,0,2.14.524,1.967,1.967,0,0,1,1.1.428,8.1,8.1,0,0,0,1.8,1.09,5.376,5.376,0,0,1,2.262,1.8c.644,1.359,2.4,1.451,3.212,2.65a2.14,2.14,0,0,0,.686.739c.825.458,2,.761,2.264,1.815a4.457,4.457,0,0,0,.269.781.111.111,0,0,1-.06.163Zm-27.39-10.825a1.23,1.23,0,0,1,1.594.3c.271.409.775.847,1.259.456a.6.6,0,0,0,.1-.721,2.477,2.477,0,0,0-1.877-1.4,3.072,3.072,0,0,0-2.037.484.842.842,0,0,0-.2,1.248.608.608,0,0,0,1-.2A.3.3,0,0,1,242.426,25.938Zm5.317,3.956a1.194,1.194,0,1,0-1.194,1.194,1.194,1.194,0,0,0,1.194-1.194Zm-6.548,2.489c.3.341.678.654,1.112.231a.388.388,0,0,0,.12-.245c.1-.909-.767-1.357-1.556-1.293a3.869,3.869,0,0,0-2.67,1.361.776.776,0,0,0-.034.978.25.25,0,0,0,.066.074.557.557,0,0,0,.915-.157,2.272,2.272,0,0,1,1.9-1.008A.182.182,0,0,1,241.195,32.383Zm4.293,1.907a.631.631,0,1,0,1.234.261.359.359,0,0,1,.134-.187,2.4,2.4,0,0,1,2.383-.411,1.835,1.835,0,0,1,.55.7.6.6,0,0,0,.913.153.782.782,0,0,0,.094-.963c-.865-1.716-3.077-1.564-4.438-.648A1.592,1.592,0,0,0,245.487,34.29Zm1.344,3.116a1.21,1.21,0,1,0-1.648-.139,1.171,1.171,0,0,0,1.648.139Zm-3.366,3.427a1.586,1.586,0,0,0-2.8-1.269,1.586,1.586,0,0,0,2.8,1.269Z" transform="translate(-178.919 -13.033)" fill="#7c6f64"/>
    <path id="패스_278" data-name="패스 278" d="M130.128,23.639a4.322,4.322,0,0,0,1.339,1.479c.6.413,1.333.422,1.666,1.182a.331.331,0,0,0,.124.143l.544.339c-1.07.078-2.336.692-2.087,1.935a.6.6,0,0,0,.984.289.353.353,0,0,0,.122-.181.987.987,0,0,1,1.064-.731,2.735,2.735,0,0,1,.638.526,1.665,1.665,0,0,0,1.4.534.389.389,0,0,1,.448.295l.08.249q.116.357-.247.265a1.3,1.3,0,0,0-1.676.767,1.116,1.116,0,0,0,.269,1.106,1.786,1.786,0,0,1,.371.921,1.963,1.963,0,0,0,.132.53.858.858,0,0,1,.018.622,1.217,1.217,0,0,1-.6.715,1.725,1.725,0,0,0-.556.452,3.061,3.061,0,0,0-.534,2.714,1.764,1.764,0,0,0-2.435-.438c-1.148.743.016,2.116.805,1.05a.15.15,0,0,1,.211-.05c.373.189.452.566.949.528a.767.767,0,0,1-.173.5.225.225,0,0,1-.347.034,1.4,1.4,0,0,0-1.427-.407,1.27,1.27,0,0,0-.891,1.708,2.2,2.2,0,0,0,.59.715.19.19,0,0,1,.05.2.957.957,0,0,1-.869.731,1.659,1.659,0,0,0-1.4.947.164.164,0,0,1-.14.1l-1.752.183a114.823,114.823,0,0,1-13.3-2.906q-3.6-1.044-6.443-2.15-2.6-1.01-5.355-2.116-.14-.056-.056-.179a.6.6,0,0,0,.082-.47.319.319,0,0,1,.03-.207,2.422,2.422,0,0,1,1.232-.935,3.76,3.76,0,0,0,2.128-2.152c.46-1.2,1.732-1.7,2.748-2.284A5.612,5.612,0,0,0,109.37,28.9a7.4,7.4,0,0,1,2.284-1.843,4.651,4.651,0,0,1,1.435-.415,6.369,6.369,0,0,0,3.25-1.112c1.082-.937,3.252-.66,4.544-.546a10.563,10.563,0,0,0,4.771-.837A7.16,7.16,0,0,1,130.128,23.639Zm1.036,3.111a1.255,1.255,0,1,0-1.255,1.255A1.255,1.255,0,0,0,131.164,26.75Zm-11,.251a1.317,1.317,0,0,1,.709-.08c.265.044.4.231.646.307.654.2,1.254-.415.751-.978a2.3,2.3,0,0,0-3.149-.086c-.564.462-.556,1.564.436,1.463a.607.607,0,0,0,.486-.492A.187.187,0,0,1,120.167,27Zm5.179,3.374a1.784,1.784,0,0,1,2.334.207c.285.273.923.359,1.1-.092a.754.754,0,0,0-.175-.869,2.882,2.882,0,0,0-3-.773,3.121,3.121,0,0,0-1.827,1.238.9.9,0,0,0-.11.971.66.66,0,0,0,.883.2.338.338,0,0,0,.181-.179A1.481,1.481,0,0,1,125.347,30.375Zm-9.651.157a1.2,1.2,0,0,1,.341.331.432.432,0,0,0,.209.161c.851.3,1.433-.622.749-1.188a1.917,1.917,0,0,0-1.754-.654,2.89,2.89,0,0,0-2,1.554c-.3.518-.325,1.523.532,1.449a.562.562,0,0,0,.5-.426,1.659,1.659,0,0,1,1.106-1.263A.37.37,0,0,1,115.7,30.532ZM132.453,33.1a1.238,1.238,0,1,0-1.238,1.238A1.238,1.238,0,0,0,132.453,33.1Zm-11.21,2.768c.261.291.43.546.889.419a.542.542,0,0,0,.417-.725c-.277-1.3-2.059-1.385-3.065-.915-.536.251-1.381.853-1.325,1.517a.638.638,0,0,0,1.222.247C119.633,35.867,120.815,35.389,121.244,35.865Zm-12.075,1.291a1.7,1.7,0,0,1,1.578.151c.335.219,1.052.231,1.2-.239a.6.6,0,0,0-.209-.7,3.072,3.072,0,0,0-3.2-.363c-1.62.624-.395,2.668.464,1.289A.331.331,0,0,1,109.169,37.156Z" transform="translate(-77.743 -14.38)" fill="#ac9a8b"/>
    <circle id="타원_10" data-name="타원 10" cx="1.255" cy="1.255" r="1.255" transform="translate(50.91 11.114)" fill="#7c6f64"/>
    <path id="패스_279" data-name="패스 279" d="M188.9,35.591a.607.607,0,0,1-.486.492c-.992.1-1-1-.436-1.463a2.3,2.3,0,0,1,3.149.086c.5.564-.1,1.182-.751.978-.245-.076-.381-.263-.646-.307a1.317,1.317,0,0,0-.709.08A.187.187,0,0,0,188.9,35.591Z" transform="translate(-146.591 -22.837)"/>
    <path id="패스_280" data-name="패스 280" d="M294.882,37.194a.608.608,0,0,1-1,.2.842.842,0,0,1,.2-1.248,3.072,3.072,0,0,1,2.037-.484,2.477,2.477,0,0,1,1.877,1.4.6.6,0,0,1-.1.721c-.484.391-.988-.048-1.259-.456a1.23,1.23,0,0,0-1.594-.3A.3.3,0,0,0,294.882,37.194Z" transform="translate(-231.534 -24.129)"/>
    <path id="패스_281" data-name="패스 281" d="M71.979,37.16A12.542,12.542,0,0,0,70.1,38.923a4.6,4.6,0,0,1-1.164,1c-1.5.819-2.68,1.445-3.324,3.147-.3.8-1.176,1.156-1.9,1.517a3.034,3.034,0,0,0-1.544,1.975.084.084,0,0,1-.13.062A50.836,50.836,0,0,1,56.7,43.852a5.644,5.644,0,0,1-2.738-3,3.709,3.709,0,0,1,1.606-1.176l1.913-.719a10.864,10.864,0,0,1,1.678-.5q.839-.163,1.67-.317a22.038,22.038,0,0,1,2.577-.329q1.168-.074,2.17-.223,1.048-.153,2.136-.351c.853-.153,1.666-.114,2.513-.207a3.43,3.43,0,0,1,.873.026Q71.517,37.12,71.979,37.16Z" transform="translate(-39.587 -25.219)" fill="#bfa582"/>
    <path id="패스_282" data-name="패스 282" d="M254.619,40.031a4.743,4.743,0,0,1,1.67.2,1.454,1.454,0,0,1,1.066,1.477.522.522,0,0,1-.432.576c-.407.1-.707-.289-.829-.632a.328.328,0,0,0-.171-.2,1.589,1.589,0,0,0-1.22-.112.987.987,0,0,0-1.064.731.354.354,0,0,1-.122.181.6.6,0,0,1-.984-.289C252.283,40.722,253.549,40.109,254.619,40.031Z" transform="translate(-198.561 -27.629)"/>
    <path id="패스_283" data-name="패스 283" d="M422.967,48.56a10.357,10.357,0,0,1-4.1,4.047.133.133,0,0,1-.123,0,.128.128,0,0,1-.071-.1c-.233-1.61-1.236-2.2-2.613-2.834-.586-.269-.765-.9-1.263-1.273a12.777,12.777,0,0,0-1.718-1.07c-.727-.383-.827-1.084-1.347-1.552a17.03,17.03,0,0,0-2.4-1.7,23.86,23.86,0,0,1,3.884.458q3.876.879,7.575,2.09a2.26,2.26,0,0,1,1.156.839,1.9,1.9,0,0,0,.4.411,1.8,1.8,0,0,1,.434.4A.952.952,0,0,0,422.967,48.56Z" transform="translate(-324.137 -30.876)" fill="#bfa582"/>
    <path id="패스_284" data-name="패스 284" d="M330.658,47.278c.185.369.466.741,0,1.1-.534.411-.973-.243-1.269-.622a1.244,1.244,0,0,0-.618-.343,1.981,1.981,0,0,0-1.293.309.277.277,0,0,0-.122.157c-.355,1.156-2-.225-.731-1.1A2.864,2.864,0,0,1,330.658,47.278Z" transform="translate(-257.533 -32.553)"/>
    <path id="패스_285" data-name="패스 285" d="M326.606,50.7a3.682,3.682,0,0,0-2.567.9c-.466.512-.357,1.529.554,1.252a.377.377,0,0,0,.217-.173c.438-.763,1.632-.817,2.441-.684a.268.268,0,0,1,.2.13l.147.227a.327.327,0,0,0,.147.124q.759.315.939-.745a3.885,3.885,0,0,1,.277,1.644.229.229,0,0,0,.064.173c.327.345.737.225,1.148.369a4.145,4.145,0,0,1,.692.315.186.186,0,0,0,.233-.022,1.447,1.447,0,0,1,1.825-.122,1.079,1.079,0,0,1,.526,1.112,2.526,2.526,0,0,0-.058.359.212.212,0,0,0,.072.183,1.59,1.59,0,0,0,.6.353.466.466,0,0,1,.165.09l.678.574a89.081,89.081,0,0,1-16.756,5.173,60.219,60.219,0,0,1-8.89,1.184,2.314,2.314,0,0,1,.468-1.281,3.187,3.187,0,0,1,.875-.634q.056-.028.723-.231a.781.781,0,0,0,.592-.652c.263.3.668.426.919.066a1.673,1.673,0,0,1,1.509-.624.244.244,0,0,1,.2.1.592.592,0,0,0,.875.225.535.535,0,0,0,.257-.536q-.171-1.178-1.441-1.012-.01-.472-.014-.943a1.745,1.745,0,0,1,.163-.869,1.313,1.313,0,0,1,1.182-.7.345.345,0,0,0,.337-.223,8.8,8.8,0,0,0,.59-1.841.249.249,0,0,0-.124-.267c-.833-.452-1.357-1.495-.43-2.2l.393-.3a.248.248,0,0,0,.094-.231A1.515,1.515,0,0,1,316.8,49.6a.054.054,0,0,0-.026-.092,7.516,7.516,0,0,1-1.371-.413c-.676-.275-.335-.747-.161-1.2a1.244,1.244,0,0,1,.618.343c.3.379.735,1.032,1.269.622.466-.359.185-.731,0-1.1a.363.363,0,0,0,.442-.253.271.271,0,0,1,.12-.151c.161-.1.217-.269.387-.369a1.306,1.306,0,0,1,1.857.488.333.333,0,0,1,.064.205,1.094,1.094,0,0,0,.082.45.65.65,0,0,0,.349.323,9.593,9.593,0,0,0,1.957.676.158.158,0,0,0,.187-.112,1.376,1.376,0,0,1,1.8-.917,1.438,1.438,0,0,1,.965,1.616,3.285,3.285,0,0,0-.082.442.131.131,0,0,0,.1.155Zm.572,6.445c.411-.008.6.373,1.03.267a.62.62,0,0,0,.313-.969,1.293,1.293,0,0,0-1.162-.542,3.925,3.925,0,0,0-3.153,1.529c-.4.5-.233,1.425.622,1.238a.326.326,0,0,0,.239-.2A2.526,2.526,0,0,1,327.178,57.144Z" transform="translate(-244.009 -33.029)" fill="#564d45"/>
    <path id="패스_286" data-name="패스 286" d="M213.535,51.412a1.481,1.481,0,0,0-.618.7.338.338,0,0,1-.181.179.66.66,0,0,1-.883-.2.9.9,0,0,1,.11-.971,3.121,3.121,0,0,1,1.827-1.238,2.882,2.882,0,0,1,3,.773.754.754,0,0,1,.175.869c-.173.45-.811.365-1.1.092A1.784,1.784,0,0,0,213.535,51.412Z" transform="translate(-165.931 -35.418)"/>
    <path id="패스_287" data-name="패스 287" d="M161.327,53.279a1.659,1.659,0,0,0-1.106,1.263.562.562,0,0,1-.5.426c-.857.074-.831-.931-.532-1.449a2.89,2.89,0,0,1,2-1.554,1.917,1.917,0,0,1,1.754.654c.684.566.1,1.491-.749,1.188a.432.432,0,0,1-.209-.161,1.2,1.2,0,0,0-.341-.331A.37.37,0,0,0,161.327,53.279Z" transform="translate(-123.695 -37.163)"/>
    <circle id="타원_11" data-name="타원 11" cx="1.194" cy="1.194" r="1.194" transform="translate(66.437 15.668)" fill="#564d45"/>
    <circle id="타원_12" data-name="타원 12" cx="1.238" cy="1.238" r="1.238" transform="translate(52.236 17.479)" fill="#7c6f64"/>
    <path id="패스_288" data-name="패스 288" d="M384.9,66.47a2.985,2.985,0,0,1,1.471.269.976.976,0,0,1,.6.763q-.179,1.06-.939.745a.327.327,0,0,1-.147-.124l-.147-.227a.268.268,0,0,0-.2-.13c-.809-.134-2-.08-2.441.684a.377.377,0,0,1-.217.173c-.911.277-1.02-.739-.554-1.252A3.682,3.682,0,0,1,384.9,66.47Z" transform="translate(-302.306 -48.8)"/>
    <path id="패스_289" data-name="패스 289" d="M281.387,69.584a2.272,2.272,0,0,0-1.9,1.008.557.557,0,0,1-.915.157.25.25,0,0,1-.066-.074.776.776,0,0,1,.034-.978,3.869,3.869,0,0,1,2.67-1.361c.789-.064,1.656.385,1.556,1.293a.388.388,0,0,1-.12.245c-.434.422-.807.11-1.112-.231A.182.182,0,0,0,281.387,69.584Z" transform="translate(-219.259 -50.293)"/>
    <path id="패스_290" data-name="패스 290" d="M317.086,77.662a.631.631,0,1,1-1.234-.261,1.592,1.592,0,0,1,.869-1.092c1.361-.917,3.573-1.068,4.438.648a.782.782,0,0,1-.094.963.6.6,0,0,1-.913-.153,1.836,1.836,0,0,0-.55-.7,2.4,2.4,0,0,0-2.383.411A.359.359,0,0,0,317.086,77.662Z" transform="translate(-249.285 -56.143)"/>
    <path id="패스_291" data-name="패스 291" d="M187.714,79.674c-.428-.476-1.61,0-1.863.542a.638.638,0,0,1-1.222-.247c-.056-.664.789-1.265,1.325-1.517,1.006-.47,2.788-.383,3.065.915a.542.542,0,0,1-.417.725C188.145,80.22,187.975,79.965,187.714,79.674Z" transform="translate(-144.214 -58.189)"/>
    <path id="패스_292" data-name="패스 292" d="M133.617,86.484c-.859,1.379-2.085-.666-.464-1.289a3.072,3.072,0,0,1,3.2.363.6.6,0,0,1,.209.7c-.145.47-.863.458-1.2.239a1.7,1.7,0,0,0-1.578-.151A.331.331,0,0,0,133.617,86.484Z" transform="translate(-102.362 -63.571)"/>
    <ellipse id="타원_13" data-name="타원 13" cx="1.208" cy="1.13" rx="1.208" ry="1.13" transform="matrix(0.67, 0.742, -0.742, 0.67, 67.131, 21.824)" fill="#564d45"/>
    <path id="패스_293" data-name="패스 293" d="M250.511,92.261q.181.919-.47,1.09c-.5.038-.576-.339-.949-.528a.15.15,0,0,0-.211.05c-.789,1.066-1.953-.307-.805-1.05A1.764,1.764,0,0,1,250.511,92.261Z" transform="translate(-194.632 -68.851)"/>
    <path id="패스_294" data-name="패스 294" d="M386.4,93.833a2.526,2.526,0,0,0-2.11,1.327.326.326,0,0,1-.239.2c-.855.187-1.02-.741-.622-1.238a3.925,3.925,0,0,1,3.153-1.529,1.293,1.293,0,0,1,1.162.542.62.62,0,0,1-.313.969C387.005,94.205,386.814,93.825,386.4,93.833Z" transform="translate(-303.235 -69.717)"/>
    <path id="패스_295" data-name="패스 295" d="M324.35,105.758q1.269-.165,1.441,1.012a.535.535,0,0,1-.257.536.592.592,0,0,1-.875-.225.244.244,0,0,0-.2-.1,1.673,1.673,0,0,0-1.509.624c-.251.361-.656.239-.919-.066a.7.7,0,0,1,.114-.963A3.141,3.141,0,0,1,324.35,105.758Z" transform="translate(-254.127 -80.246)"/>
    <ellipse id="타원_14" data-name="타원 14" cx="1.536" cy="1.194" rx="1.536" ry="1.194" transform="matrix(0.911, 0.413, -0.413, 0.911, 62.24, 25.445)" fill="#564d45"/>
    <path id="패스_296" data-name="패스 296" d="M148.708,163.6a1.188,1.188,0,0,1-.773.8,43.7,43.7,0,0,1-7.3,2.266q-1.435.3-3.922.753a90.225,90.225,0,0,1-9.751,1.208q-.407.028-.793.064-1.2.114-2.726.136c-2.268.032-4.548.183-6.792.1q-1.656-.062-3.254-.08c-1.164-.012-2.366-.13-3.563-.213q-4.948-.341-10.16-1.228a64.233,64.233,0,0,1-9.516-2.358q-3.005-1-7.531-2.73a27.82,27.82,0,0,1-6.337-3.336c-.339-.233-.7-.618-.472-1.036a.8.8,0,0,1,1.216-.207,19.857,19.857,0,0,0,4.878,2.774q4.127,1.718,8.685,3.21a60.6,60.6,0,0,0,5.881,1.63,92.28,92.28,0,0,0,12,1.78q1.626.136,3.382.253c3.478.235,6.963.147,10.516.114q1.349-.014,5.482-.341a106.1,106.1,0,0,0,12.511-1.8,38.188,38.188,0,0,0,7.451-2.318C148.285,162.848,148.718,163.022,148.708,163.6Z" transform="translate(-57.034 -121.73)"/>
    <path id="패스_297" data-name="패스 297" d="M74.693,164.74a27.82,27.82,0,0,0,6.337,3.336q4.526,1.73,7.531,2.73a64.234,64.234,0,0,0,9.516,2.358q5.211.887,10.16,1.228c1.2.084,2.4.2,3.563.213q1.6.018,3.254.08c2.244.084,4.524-.068,6.792-.1q1.523-.022,2.726-.136.387-.036.793-.064a90.221,90.221,0,0,0,9.751-1.208q2.487-.45,3.922-.753a43.7,43.7,0,0,0,7.3-2.266,1.188,1.188,0,0,0,.773-.8l1.477-.873a1.161,1.161,0,0,0,1.14.291,9.711,9.711,0,0,0,3.452-1.766.23.23,0,0,1,.206-.04.226.226,0,0,1,.151.143,24.049,24.049,0,0,1,1.271,6.315q.245,3.613.078,8.753-.056,1.724-.157,2.678c-.044.422-.058.833-.112,1.246q-.576,4.524-.891,7.716a40.55,40.55,0,0,0-.145,5.193,27.522,27.522,0,0,0,.648,5.628,27.919,27.919,0,0,1,1.214,7.756,4.015,4.015,0,0,0,.191,1.327,11.966,11.966,0,0,0,1.3,3.25.676.676,0,0,0,1.014.155.166.166,0,0,1,.249.054,5.818,5.818,0,0,1,1,2.627,9.939,9.939,0,0,1-.945,5.58,8.333,8.333,0,0,1-2.545,3.242,32.4,32.4,0,0,1-11.158,4.888,81.067,81.067,0,0,1-8.567,1.72q-3.278.47-7,.8a3.354,3.354,0,0,1-.566-1.853,17.07,17.07,0,0,1,1.536-6.407,66.685,66.685,0,0,1,3.019-6.558,4.225,4.225,0,0,0,.341-.871,5.521,5.521,0,0,1,.287-.8,9.533,9.533,0,0,0,2.23-.287.815.815,0,0,0,.65-1.034c-.147-.851-1.3-.69-1.983-.608l2.8-6.632q.07-.165-.106-.126c-2.621.6-5,.99-7.756,1.782q.084-1.724.357-4.619c.106-1.138-1.487-1.176-1.684-.155a23.355,23.355,0,0,0-.438,5.207l-2.961.568a9.882,9.882,0,0,0-.229-2.722,5.381,5.381,0,0,0-2.244-3.392q1.395-.684,2.688-1.467,1.323-.8,2.369-1.3,3.077-1.475,6.1-2.856,3.246-1.483,6.264-3.057c.333-.173.349-.554.355-.877a34.453,34.453,0,0,0-1.6-11.694q-.2-.59-.907-2.292a16.711,16.711,0,0,0-6.531-7.469,1.609,1.609,0,0,0-.735-.2q-1.212-.026-2.489.074-1.453.116-2.485.163-1.339.066-2.527.143-3.208.207-9.219.074c-1.1-.024-2.308-.145-3.46-.181q-.709-.022-1.365-.1-1.7-.191-3.468-.353-.239-.022-.456-.06-.61-.106-1.234-.161-.7-.062-1.321-.151-1.6-.231-3.342-.45-1.421-.177-2.748-.42-.512-.094-1.006-.177-.6-.1-1.158-.249a6.917,6.917,0,0,0-1.09-.2,6.042,6.042,0,0,1-1.182-.255,2.639,2.639,0,0,0-.514-.116,2.814,2.814,0,0,1-.919-.171.683.683,0,0,0-.325-.07.376.376,0,0,1-.2-.046,1.423,1.423,0,0,0-.7-.169.067.067,0,0,1-.072-.05.091.091,0,0,0-.066-.064q-2.091-.618-4-1.259a63.15,63.15,0,0,1-8.629-3.6,11.04,11.04,0,0,1-1.363-.821,3.04,3.04,0,0,1-1.034-1.1Q73.41,165.575,74.693,164.74Z" transform="translate(-55.434 -127.49)" fill="#bfa582"/>
    <rect id="사각형_18" data-name="사각형 18" width="1.75" height="7.904" rx="0.875" transform="matrix(1, -0.007, 0.007, 1, 50.984, 56.051)"/>
    <path id="패스_298" data-name="패스 298" d="M313.461,264.974l-2.742.018a.824.824,0,1,1-.024-1.644q1.355-.028,2.734-.014a.12.12,0,0,0,.138-.141q-.046-1.228-.01-2.338a.839.839,0,1,1,1.678-.024q.134,2.991.106,6.632c0,.53-.2,1.349-.9,1.287a.861.861,0,0,1-.851-.945q-.048-1.413.02-2.674Q313.621,264.974,313.461,264.974Z" transform="translate(-244.458 -203.76)"/>
    <path id="패스_299" data-name="패스 299" d="M190.348,262.558q.118-.3-.2-.291-1.67.042-3.3.1c-1.194.04-1.158-1.544.193-1.586q1.566-.048,2.991-.06c.616,0,1.66.032,2.017.606.424.684-.53,2.6-.875,3.25a.146.146,0,0,0,.028.173q1.128,1.088,2.294,2.2a.793.793,0,1,1-1.074,1.166q-.984-.941-2.055-1.975a.1.1,0,0,0-.171.018,17.814,17.814,0,0,1-2.393,2.834c-.917.869-2.011-.291-1.174-1.142A16.749,16.749,0,0,0,190.348,262.558Z" transform="translate(-145.302 -204.341)"/>
    <path id="패스_300" data-name="패스 300" d="M271.752,265.751a19.556,19.556,0,0,1-1.479,2.465c-.307.436-.815,1.108-1.391,1.092a.828.828,0,0,1-.58-1.417,20.468,20.468,0,0,0,3.268-6.347c.287-.923,1.979-.881,1.72.385a9.589,9.589,0,0,1-.654,2,.15.15,0,0,0,.036.171,34.281,34.281,0,0,1,3.222,3.418.868.868,0,1,1-1.3,1.148q-1.4-1.489-2.724-2.937a.071.071,0,0,0-.063-.022A.075.075,0,0,0,271.752,265.751Z" transform="translate(-211.033 -204.493)"/>
    <path id="패스_301" data-name="패스 301" d="M216.814,309.21a.128.128,0,0,0,.143-.137l.05-1.17a.1.1,0,0,0-.112-.118h-2.953a.66.66,0,0,1-.749-.751v-.118a.564.564,0,0,1,.6-.628q1.879-.108,3.631-.05,1.128.036,1.158,1.255a10.091,10.091,0,0,1-.173,2.222,1.088,1.088,0,0,1-1.174.879q-1.327.066-2.81.006a.184.184,0,0,0-.215.2l-.042.763a.414.414,0,0,0,.112.306.409.409,0,0,0,.3.128l3.82,0q.741,0,.634.735l-.014.1a.647.647,0,0,1-.67.61,33.477,33.477,0,0,1-4.5-.046,1.179,1.179,0,0,1-1.246-1.188c-.034-.564-.295-3,.668-3Q215.015,309.2,216.814,309.21Z" transform="translate(-166.565 -240.774)"/>
    <path id="패스_302" data-name="패스 302" d="M304.666,313.331a23.109,23.109,0,0,1-4.408-.066c-.923-.141-.743-1.509.245-1.515q2.6-.014,5.273-.012a.72.72,0,0,1,.7.759q.09,1.712,0,3.761a.836.836,0,1,1-1.67-.006q-.014-1.443,0-2.784Q304.809,313.323,304.666,313.331Z" transform="translate(-236.318 -245.194)"/>
    <path id="패스_303" data-name="패스 303" d="M346,383.009a25.228,25.228,0,0,0,.024,3.264,4.176,4.176,0,0,0,.343,1.357c.329.755,1.67.678,2.348.61q1.214-.124,2.352-.255c.688-.082,1.835-.243,1.983.608a.815.815,0,0,1-.65,1.034,9.532,9.532,0,0,1-2.23.287,22.846,22.846,0,0,1-3.143.06,2.4,2.4,0,0,1-2.465-2.17,21.153,21.153,0,0,1-.327-4.362,23.356,23.356,0,0,1,.438-5.207c.2-1.02,1.79-.982,1.684.155Q346.083,381.285,346,383.009Z" transform="translate(-272.004 -297.85)" fill="#fff"/>
    <path id="패스_304" data-name="패스 304" d="M177.891,388.484a32.368,32.368,0,0,0,4.645-.034q.883-.07.982.739c.108.871-1.1,1-1.71,1q-2.065.012-4.071-.022a8,8,0,0,1-1.489-.167c-1.11-.231-.875-1.321-.359-1.983q1.435-1.833,2.762-3.511a8.7,8.7,0,0,0,1.08-1.792c.524-1.148.817-3.079-.9-3.318a7.106,7.106,0,0,0-2.86.666c-.562.183-1.367.227-1.491-.532-.181-1.124,2.218-1.646,2.981-1.738a8.149,8.149,0,0,1,1.734-.032,2.855,2.855,0,0,1,2.732,2.9,8.1,8.1,0,0,1-1.652,4.5,39.476,39.476,0,0,1-2.429,3.222.062.062,0,0,0,.044.1Z" transform="translate(-136.082 -298.033)" fill="#fff"/>
    <path id="패스_305" data-name="패스 305" d="M230.889,384.833c-.016-2.391.721-5.723,3.117-6.845a3.2,3.2,0,0,1,3.033.183c2.318,1.455,2.569,4.908,2.19,7.362-.347,2.256-1.606,4.564-3.922,5.048C232.031,391.264,230.907,387.314,230.889,384.833Zm3.841,4.147c1.4.113,2.711-1.965,2.926-4.641s-.746-4.936-2.147-5.049-2.711,1.965-2.927,4.641.746,4.936,2.147,5.049Z" transform="translate(-181.256 -298.003)" fill="#fff"/>
    <path id="패스_306" data-name="패스 306" d="M292.89,377.942a5.381,5.381,0,0,1,2.244,3.392,9.882,9.882,0,0,1,.229,2.722,7.554,7.554,0,0,1-2.206,5.5,3.623,3.623,0,0,1-3.651.773c-1.935-.843-2.6-3.519-2.619-5.54-.026-2.373.672-5.369,2.674-6.68A3.22,3.22,0,0,1,292.89,377.942Zm-1.75,1.267a1.789,1.789,0,0,0-.763.365,3.734,3.734,0,0,0-.951,1.186,8.48,8.48,0,0,0-.859,4.358,5.7,5.7,0,0,0,.911,2.961,1.547,1.547,0,0,0,2.077.608,2.753,2.753,0,0,0,.877-.791,7.382,7.382,0,0,0,1.24-3.912,8.367,8.367,0,0,0-.147-2.136,4.592,4.592,0,0,0-.859-1.983,1.567,1.567,0,0,0-1.525-.656Z" transform="translate(-226.094 -297.897)" fill="#fff"/>
    <ellipse id="타원_15" data-name="타원 15" cx="4.861" cy="2.545" rx="4.861" ry="2.545" transform="matrix(-0.08, 0.997, -0.997, -0.08, 56.79, 81.492)" fill="#e0c198"/>
    <path id="패스_307" data-name="패스 307" d="M306.57,390.513a4.623,4.623,0,0,1-.933-.161,5.633,5.633,0,0,1-1.612-.57,2.478,2.478,0,0,1-.873-1.044,1.771,1.771,0,0,1-.094-1.21,4.2,4.2,0,0,1,.98-1.79,1.567,1.567,0,0,1,1.525.656,4.592,4.592,0,0,1,.859,1.983A8.368,8.368,0,0,1,306.57,390.513Z" transform="translate(-238.994 -304.426)" fill="#bfa582"/>
    <path id="패스_308" data-name="패스 308" d="M297.826,385.84a4.2,4.2,0,0,0-.98,1.79,1.771,1.771,0,0,0,.094,1.21,2.478,2.478,0,0,0,.873,1.044,5.633,5.633,0,0,0,1.612.57,4.622,4.622,0,0,0,.933.161,7.382,7.382,0,0,1-1.24,3.912,2.753,2.753,0,0,1-.877.791,1.547,1.547,0,0,1-2.077-.608,5.7,5.7,0,0,1-.911-2.961,8.48,8.48,0,0,1,.859-4.358,3.734,3.734,0,0,1,.951-1.186A1.789,1.789,0,0,1,297.826,385.84Z" transform="translate(-232.78 -304.528)" fill="#e0c198"/>
    <path id="패스_309" data-name="패스 309" d="M358.039,402.927q-1.138.132-2.352.255c-.678.068-2.019.145-2.348-.61a4.176,4.176,0,0,1-.343-1.357,25.228,25.228,0,0,1-.024-3.264c2.754-.791,5.136-1.186,7.756-1.782q.175-.04.106.126Z" transform="translate(-278.978 -312.792)" fill="#e0c198"/>
  </g>
</svg>
