<?xml version="1.0" encoding="UTF-8" standalone="no"?>
<!DOCTYPE svg PUBLIC "-//W3C//DTD SVG 1.1//EN" "http://www.w3.org/Graphics/SVG/1.1/DTD/svg11.dtd">
<svg xmlns="http://www.w3.org/2000/svg" version="1.1" viewBox="0.00 0.00 1920.00 1080.00">
<g stroke-width="2.00" fill="none" stroke-linecap="butt">
<path stroke="#525938" vector-effect="non-scaling-stroke" d="
  M 586.92 535.53
  Q 585.15 535.87 583.90 536.00
  Q 581.82 536.22 580.98 536.70
  C 576.80 539.12 577.84 544.66 579.90 548.08
  Q 591.82 567.89 602.71 590.04
  Q 604.77 594.22 605.24 596.04"
/>
<path stroke="#525938" vector-effect="non-scaling-stroke" d="
  M 1237.55 523.61
  Q 1232.64 525.23 1228.68 529.59"
/>
<path stroke="#525938" vector-effect="non-scaling-stroke" d="
  M 1205.07 506.14
  Q 1202.26 507.84 1200.52 510.74"
/>
<path stroke="#525938" vector-effect="non-scaling-stroke" d="
  M 1191.96 535.25
  L 1187.77 550.21
  Q 1187.61 550.78 1187.40 550.22
  Q 1186.49 547.69 1185.68 545.11
  C 1181.63 532.30 1175.35 519.66 1168.45 507.56
  Q 1165.61 502.58 1161.35 500.78"
/>
<path stroke="#525938" vector-effect="non-scaling-stroke" d="
  M 1161.05 530.62
  L 1165.20 540.50"
/>
<path stroke="#525938" vector-effect="non-scaling-stroke" d="
  M 1174.77 573.85
  Q 1176.64 583.43 1176.71 593.53"
/>
<path stroke="#525938" vector-effect="non-scaling-stroke" d="
  M 1176.60 593.96
  Q 1178.35 600.77 1176.77 607.30"
/>
<path stroke="#525938" vector-effect="non-scaling-stroke" d="
  M 1176.77 610.22
  L 1174.10 629.33"
/>
<path stroke="#525938" vector-effect="non-scaling-stroke" d="
  M 1171.14 645.26
  L 1168.68 654.80"
/>
<path stroke="#525938" vector-effect="non-scaling-stroke" d="
  M 1163.28 671.39
  L 1159.68 680.39"
/>
<path stroke="#525938" vector-effect="non-scaling-stroke" d="
  M 1155.19 690.37
  L 1151.14 699.09"
/>
<path stroke="#525938" vector-effect="non-scaling-stroke" d="
  M 1143.55 714.74
  L 1139.20 723.40"
/>
<path stroke="#525938" vector-effect="non-scaling-stroke" d="
  M 1134.72 731.28
  L 1129.45 739.49"
/>
<path stroke="#525938" vector-effect="non-scaling-stroke" d="
  M 1126.63 743.18
  L 1120.54 751.48"
/>
<path stroke="#525938" vector-effect="non-scaling-stroke" d="
  M 1114.25 759.51
  L 1107.92 767.52"
/>
<path stroke="#525938" vector-effect="non-scaling-stroke" d="
  M 879.09 761.04
  L 878.42 751.44"
/>
<path stroke="#525938" vector-effect="non-scaling-stroke" d="
  M 878.36 751.09
  L 877.26 734.27
  Q 877.24 734.00 877.49 733.90
  Q 877.66 733.83 877.75 733.91"
/>
<path stroke="#525938" vector-effect="non-scaling-stroke" d="
  M 876.48 715.75
  L 876.17 704.91"
/>
<path stroke="#525938" vector-effect="non-scaling-stroke" d="
  M 876.22 692.59
  L 876.68 678.48"
/>
<path stroke="#525938" vector-effect="non-scaling-stroke" d="
  M 878.50 660.63
  Q 881.36 640.80 883.49 634.74
  Q 888.21 621.31 893.01 607.93
  C 893.71 605.98 894.48 602.69 895.72 600.24"
/>
<path stroke="#525938" vector-effect="non-scaling-stroke" d="
  M 909.13 558.39
  L 913.18 544.18"
/>
<path stroke="#525938" vector-effect="non-scaling-stroke" d="
  M 1332.88 552.73
  Q 1330.54 546.39 1324.78 548.18
  Q 1321.45 549.21 1320.51 552.98
  Q 1320.13 554.52 1320.66 559.97"
/>
<path stroke="#525938" vector-effect="non-scaling-stroke" d="
  M 1322.64 578.13
  L 1323.51 589.27"
/>
<path stroke="#525938" vector-effect="non-scaling-stroke" d="
  M 1323.88 599.99
  Q 1324.24 609.06 1322.86 618.24"
/>
<path stroke="#525938" vector-effect="non-scaling-stroke" d="
  M 1322.24 623.44
  Q 1321.93 631.41 1319.26 638.57"
/>
<path stroke="#525938" vector-effect="non-scaling-stroke" d="
  M 1313.99 647.84
  Q 1314.30 648.46 1313.38 649.86
  Q 1309.92 655.14 1306.15 659.69"
/>
<path stroke="#525938" vector-effect="non-scaling-stroke" d="
  M 1297.34 668.48
  L 1289.74 674.79"
/>
<path stroke="#525938" vector-effect="non-scaling-stroke" d="
  M 1194.82 682.74
  L 1198.83 657.64"
/>
<path stroke="#525938" vector-effect="non-scaling-stroke" d="
  M 1199.96 650.33
  L 1201.41 638.65"
/>
<path stroke="#525938" vector-effect="non-scaling-stroke" d="
  M 1202.40 628.21
  L 1203.89 615.66"
/>
<path stroke="#525938" vector-effect="non-scaling-stroke" d="
  M 1204.90 610.62
  Q 1205.58 605.82 1207.40 600.17
  Q 1211.69 586.82 1216.85 575.97"
/>
<path stroke="#525938" vector-effect="non-scaling-stroke" d="
  M 1236.56 545.16
  L 1243.09 534.61"
/>
<path stroke="#525938" vector-effect="non-scaling-stroke" d="
  M 827.74 553.77
  Q 823.49 556.34 824.63 561.16
  Q 825.66 565.53 825.76 568.20"
/>
<path stroke="#525938" vector-effect="non-scaling-stroke" d="
  M 827.54 577.37
  Q 830.36 595.42 835.17 613.83"
/>
<path stroke="#525938" vector-effect="non-scaling-stroke" d="
  M 837.05 620.78
  L 840.07 634.81"
/>
<path stroke="#525938" vector-effect="non-scaling-stroke" d="
  M 842.43 653.14
  L 843.53 669.92"
/>
<path stroke="#525938" vector-effect="non-scaling-stroke" d="
  M 844.08 686.32
  L 843.92 697.19"
/>
<path stroke="#525938" vector-effect="non-scaling-stroke" d="
  M 843.69 711.35
  L 843.21 722.38"
/>
<path stroke="#525938" vector-effect="non-scaling-stroke" d="
  M 841.98 745.76
  L 840.70 764.38"
/>
<path stroke="#525938" vector-effect="non-scaling-stroke" d="
  M 718.29 734.29
  L 712.67 726.29"
/>
<path stroke="#525938" vector-effect="non-scaling-stroke" d="
  M 709.78 722.01
  L 704.23 713.29"
/>
<path stroke="#525938" vector-effect="non-scaling-stroke" d="
  M 701.30 708.10
  L 695.75 698.07"
/>
<path stroke="#525938" vector-effect="non-scaling-stroke" d="
  M 692.37 691.27
  Q 688.06 682.90 686.68 679.53
  Q 683.62 672.10 679.11 658.33"
/>
<path stroke="#525938" vector-effect="non-scaling-stroke" d="
  M 673.91 623.72
  L 673.81 605.61"
/>
<path stroke="#525938" vector-effect="non-scaling-stroke" d="
  M 675.48 574.87
  L 677.89 559.58"
/>
<path stroke="#525938" vector-effect="non-scaling-stroke" d="
  M 682.75 542.69
  L 686.94 531.07"
/>
<path stroke="#525938" vector-effect="non-scaling-stroke" d="
  M 693.09 516.90
  L 690.54 512.77"
/>
<path stroke="#525938" vector-effect="non-scaling-stroke" d="
  M 608.25 601.69
  Q 615.39 617.57 621.50 633.83
  Q 622.14 635.54 622.66 637.29
  Q 623.30 639.43 623.80 640.74
  Q 629.26 655.07 634.83 669.60"
/>
<path stroke="#525938" vector-effect="non-scaling-stroke" d="
  M 1372.16 567.51
  Q 1368.29 561.23 1361.48 565.31
  Q 1360.14 566.11 1359.08 567.32
  Q 1355.26 571.64 1352.09 576.26"
/>
<path stroke="#525938" vector-effect="non-scaling-stroke" d="
  M 1338.10 582.42
  L 1336.61 571.44"
/>
<path stroke="#525938" vector-effect="non-scaling-stroke" d="
  M 1356.37 600.59
  L 1364.76 585.51"
/>
<path stroke="#525938" vector-effect="non-scaling-stroke" d="
  M 643.00 689.67
  L 647.42 700.54"
/>
<path stroke="#525938" vector-effect="non-scaling-stroke" d="
  M 1364.09 626.25
  Q 1371.03 617.22 1379.01 610.67
  Q 1379.13 610.58 1379.18 610.44
  Q 1379.23 610.32 1379.29 610.21
  Q 1379.36 610.06 1379.48 609.95
  C 1383.38 606.63 1387.85 602.52 1389.72 598.00"
/>
<path stroke="#525938" vector-effect="non-scaling-stroke" d="
  M 678.25 518.56
  L 673.58 529.73"
/>
<path stroke="#525938" vector-effect="non-scaling-stroke" d="
  M 1203.62 554.63
  L 1200.64 569.70"
/>
<path stroke="#525938" vector-effect="non-scaling-stroke" d="
  M 1201.04 570.32
  Q 1202.11 569.68 1202.69 568.50
  Q 1204.78 564.31 1206.89 560.05"
/>
<path stroke="#525938" vector-effect="non-scaling-stroke" d="
  M 1192.94 692.24
  L 1190.49 702.97"
/>
<path stroke="#525938" vector-effect="non-scaling-stroke" d="
  M 1188.83 708.87
  L 1185.48 719.23"
/>
<path stroke="#525938" vector-effect="non-scaling-stroke" d="
  M 1184.17 722.49
  L 1180.46 732.52"
/>
<path stroke="#525938" vector-effect="non-scaling-stroke" d="
  M 1176.88 739.12
  L 1171.84 748.97"
/>
<path stroke="#525938" vector-effect="non-scaling-stroke" d="
  M 1175.78 748.93
  L 1189.28 739.31
  Q 1189.40 739.23 1189.39 739.07
  Q 1189.37 738.95 1189.29 738.81"
/>
<path stroke="#525938" vector-effect="non-scaling-stroke" d="
  M 1200.20 732.05
  L 1215.44 721.85"
/>
<path stroke="#525938" vector-effect="non-scaling-stroke" d="
  M 1224.51 716.48
  L 1245.35 704.34"
/>
<path stroke="#525938" vector-effect="non-scaling-stroke" d="
  M 1257.21 697.12
  L 1275.92 684.48"
/>
<path stroke="#525938" vector-effect="non-scaling-stroke" d="
  M 1354.31 636.51
  L 1340.71 653.13"
/>
<path stroke="#525938" vector-effect="non-scaling-stroke" d="
  M 1326.35 677.12
  Q 1317.05 691.70 1305.20 706.18"
/>
<path stroke="#525938" vector-effect="non-scaling-stroke" d="
  M 1303.63 707.98
  L 1290.11 723.09"
/>
<path stroke="#525938" vector-effect="non-scaling-stroke" d="
  M 1280.10 732.70
  L 1266.11 745.27"
/>
<path stroke="#525938" vector-effect="non-scaling-stroke" d="
  M 1261.11 749.57
  L 1238.60 766.33"
/>
<path stroke="#525938" vector-effect="non-scaling-stroke" d="
  M 1215.82 780.70
  L 1203.01 788.64"
/>
<path stroke="#525938" vector-effect="non-scaling-stroke" d="
  M 1185.87 799.38
  L 1175.41 806.16"
/>
<path stroke="#8a6247" vector-effect="non-scaling-stroke" d="
  M 989.77 1080.00
  Q 988.79 1057.33 988.81 1048.25
  Q 988.84 1034.80 990.30 1023.42
  C 992.79 1003.90 1000.98 984.81 1010.66 967.12
  Q 1025.21 940.52 1042.46 915.49
  Q 1048.21 907.14 1054.24 899.38
  Q 1066.50 883.58 1079.65 867.40
  Q 1095.72 847.63 1114.23 832.34
  Q 1126.78 821.97 1140.01 811.73
  C 1163.13 793.84 1191.46 776.85 1217.87 760.68
  C 1248.54 741.90 1275.55 717.62 1298.48 689.10
  Q 1300.11 687.06 1298.00 688.60
  Q 1281.16 700.87 1263.21 712.20
  C 1252.13 719.21 1240.21 725.47 1229.00 732.50
  Q 1203.24 748.64 1178.10 766.15
  C 1172.00 770.40 1166.02 775.75 1160.00 780.05
  Q 1152.03 785.74 1144.29 791.60
  Q 1141.06 794.05 1137.37 793.72
  C 1132.04 793.25 1129.10 788.10 1130.56 783.05
  Q 1131.13 781.06 1134.13 776.93
  C 1149.47 755.79 1163.64 734.37 1171.79 709.30
  Q 1178.04 690.07 1180.61 669.91
  Q 1180.61 669.85 1180.67 669.85
  Q 1180.72 669.85 1180.73 669.91
  Q 1180.73 669.95 1180.72 669.98
  C 1173.55 690.66 1162.88 712.50 1153.13 731.17
  Q 1147.74 741.49 1141.68 749.90
  Q 1132.35 762.87 1121.36 776.30
  Q 1116.51 782.24 1100.90 803.38
  C 1092.94 814.16 1083.95 825.13 1074.89 835.39
  Q 1056.58 856.12 1035.96 877.66
  Q 1025.52 888.57 1016.38 895.48
  Q 1006.13 903.21 993.03 911.95
  Q 970.34 927.10 943.17 927.45
  C 929.59 927.62 917.42 924.13 905.85 917.76
  C 887.20 907.49 868.54 894.71 850.74 881.71
  C 836.85 871.56 822.37 861.89 808.90 852.24
  Q 785.19 835.25 764.35 814.15
  Q 740.25 789.75 722.50 766.75
  Q 711.32 752.25 699.89 735.86
  Q 686.00 715.93 675.35 692.86
  Q 663.75 667.74 660.90 640.09
  Q 660.67 637.81 660.36 640.08
  Q 658.09 656.60 657.92 673.86
  Q 657.89 677.32 658.32 681.09
  Q 658.88 685.87 660.52 689.71
  Q 673.36 719.72 688.49 744.94
  C 706.50 774.99 730.61 803.22 755.15 828.97
  Q 777.57 852.49 800.73 876.37
  Q 832.78 909.41 859.10 944.88
  Q 865.99 954.15 872.42 964.48
  Q 892.84 997.24 893.51 1035.34
  Q 893.76 1049.53 893.19 1059.00
  Q 892.91 1063.70 891.17 1080.00"
/>
<path stroke="#525938" vector-effect="non-scaling-stroke" d="
  M 683.51 767.06
  L 669.13 743.56"
/>
<path stroke="#525938" vector-effect="non-scaling-stroke" d="
  M 668.40 742.13
  L 659.37 725.19"
/>
<path stroke="#525938" vector-effect="non-scaling-stroke" d="
  M 658.41 723.48
  L 653.78 713.84"
/>
<path stroke="#525938" vector-effect="non-scaling-stroke" d="
  M 653.02 572.24
  L 651.27 586.63"
/>
<path stroke="#525938" vector-effect="non-scaling-stroke" d="
  M 655.07 594.05
  L 658.10 577.47"
/>
<path stroke="#525938" vector-effect="non-scaling-stroke" d="
  M 664.06 556.89
  L 668.33 544.38"
/>
<path stroke="#525938" vector-effect="non-scaling-stroke" d="
  M 895.81 535.94
  L 901.36 523.96"
/>
<path stroke="#8a6247" vector-effect="non-scaling-stroke" d="
  M 882.09 883.38
  C 873.16 856.30 868.59 828.43 865.99 799.78
  Q 861.82 753.85 860.17 707.98
  Q 860.16 707.81 860.00 707.81
  L 859.99 707.81
  Q 859.85 707.81 859.84 707.96
  Q 857.56 766.52 851.95 823.77
  Q 850.31 840.51 848.03 858.44
  Q 847.84 859.92 849.05 860.78
  L 881.32 883.95
  Q 882.57 884.85 882.09 883.38"
/>
</g>
<path fill="#346237" d="
  M 586.92 535.53
  Q 585.15 535.87 583.90 536.00
  Q 581.82 536.22 580.98 536.70
  C 576.80 539.12 577.84 544.66 579.90 548.08
  Q 591.82 567.89 602.71 590.04
  Q 604.77 594.22 605.24 596.04
  C 586.32 577.26 567.42 558.43 549.83 538.42
  C 542.16 529.69 534.26 521.10 526.93 512.16
  Q 460.20 430.78 408.35 340.87
  Q 395.62 318.80 382.65 293.33
  Q 376.37 281.00 374.07 273.97
  C 371.77 266.98 380.85 262.92 383.49 269.52
  C 390.34 286.64 399.10 302.94 407.73 318.50
  Q 455.83 405.19 517.17 483.08
  C 531.95 501.86 548.77 518.93 565.89 535.66
  Q 567.54 537.28 566.16 535.42
  C 550.63 514.61 536.56 492.09 524.11 468.76
  Q 512.20 446.44 495.24 416.09
  Q 462.82 358.06 437.33 294.49
  Q 430.57 277.64 423.79 260.80
  C 422.50 257.61 419.42 254.06 421.43 250.55
  C 423.24 247.39 427.63 247.44 429.83 250.08
  Q 431.88 252.54 433.36 256.30
  Q 442.01 278.29 451.36 301.14
  Q 480.58 372.46 519.76 437.15
  C 526.52 448.31 533.55 458.74 540.87 470.39
  C 551.66 487.59 564.13 504.50 576.27 520.93
  Q 576.79 521.64 581.22 528.47
  Q 583.70 532.29 586.92 535.53
  Z"
/>
<path fill="#346237" d="
  M 1237.55 523.61
  Q 1232.64 525.23 1228.68 529.59
  L 1213.71 497.42
  Q 1213.50 496.99 1213.18 497.34
  L 1205.07 506.14
  Q 1202.26 507.84 1200.52 510.74
  L 1186.13 523.68
  Q 1185.75 524.02 1186.00 524.47
  L 1191.96 535.25
  L 1187.77 550.21
  Q 1187.61 550.78 1187.40 550.22
  Q 1186.49 547.69 1185.68 545.11
  C 1181.63 532.30 1175.35 519.66 1168.45 507.56
  Q 1165.61 502.58 1161.35 500.78
  Q 1140.83 460.05 1123.77 417.63
  Q 1123.59 417.20 1123.31 417.56
  L 1091.82 457.10
  A 0.40 0.39 -40.5 0 0 1091.78 457.54
  L 1096.15 465.36
  A 0.17 0.17 0.0 0 0 1096.43 465.38
  Q 1099.79 460.79 1102.74 456.05
  Q 1104.04 453.96 1106.27 454.01
  C 1111.69 454.14 1112.36 458.41 1110.71 462.54
  Q 1108.07 469.12 1102.92 473.72
  A 2.04 2.03 53.7 0 0 1102.53 476.29
  Q 1113.91 495.21 1127.02 514.62
  Q 1127.68 515.60 1128.55 514.78
  Q 1132.09 511.41 1135.75 508.29
  C 1138.96 505.56 1143.46 506.73 1144.17 511.02
  C 1144.83 515.06 1137.61 520.23 1134.74 522.46
  A 0.94 0.93 52.8 0 0 1134.57 523.76
  L 1147.42 540.81
  A 0.54 0.54 0.0 0 0 1148.19 540.91
  L 1161.05 530.62
  L 1165.20 540.50
  L 1154.41 548.75
  A 0.45 0.44 51.5 0 0 1154.34 549.39
  L 1174.77 573.85
  Q 1176.64 583.43 1176.71 593.53
  L 1168.39 584.50
  A 0.47 0.46 -46.5 0 0 1167.69 584.52
  L 1167.50 584.74
  Q 1167.36 584.91 1167.52 585.07
  L 1176.60 593.96
  Q 1178.35 600.77 1176.77 607.30
  L 1159.42 591.12
  A 0.93 0.93 0.0 0 0 1158.27 591.03
  L 1150.05 596.55
  A 0.32 0.32 0.0 0 0 1150.01 597.06
  Q 1159.26 605.37 1168.73 613.01
  Q 1169.83 613.90 1171.53 613.08
  Q 1174.13 611.82 1176.77 610.22
  L 1174.10 629.33
  Q 1172.13 627.04 1169.55 626.29
  Q 1169.09 626.15 1168.65 626.37
  L 1153.88 633.66
  A 0.33 0.33 0.0 0 0 1153.85 634.23
  L 1171.14 645.26
  L 1168.68 654.80
  L 1165.30 653.07
  Q 1164.88 652.86 1164.80 653.32
  Q 1164.29 656.44 1161.03 658.49
  Q 1155.38 662.04 1151.27 664.08
  Q 1150.60 664.41 1151.25 664.77
  L 1163.28 671.39
  L 1159.68 680.39
  L 1141.52 670.26
  A 2.18 2.16 46.4 0 0 1139.52 670.20
  L 1129.45 675.03
  Q 1128.90 675.29 1129.40 675.65
  Q 1141.43 684.18 1155.19 690.37
  L 1151.14 699.09
  Q 1134.07 691.51 1119.06 680.71
  A 1.46 1.44 -38.6 0 0 1117.62 680.56
  L 1105.75 685.83
  Q 1105.20 686.07 1105.67 686.46
  Q 1123.87 701.31 1143.55 714.74
  L 1139.20 723.40
  Q 1116.42 708.49 1095.34 691.37
  A 1.63 1.62 53.1 0 0 1093.68 691.13
  L 1077.25 698.05
  Q 1076.73 698.27 1077.20 698.58
  Q 1104.69 717.11 1134.72 731.28
  L 1129.45 739.49
  Q 1096.22 724.30 1065.42 703.38
  A 0.99 0.98 50.9 0 0 1064.49 703.28
  L 1052.35 708.12
  Q 1051.78 708.34 1052.30 708.66
  C 1075.80 723.04 1100.43 735.56 1126.63 743.18
  L 1120.54 751.48
  C 1091.92 743.08 1065.48 729.22 1039.55 713.30
  A 0.39 0.37 50.2 0 0 1039.22 713.26
  L 1031.39 716.18
  Q 1031.26 716.23 1031.38 716.30
  C 1057.82 732.74 1085.43 747.83 1114.25 759.51
  L 1107.92 767.52
  Q 1061.73 748.46 1020.16 721.58
  A 2.75 2.74 51.2 0 0 1017.73 721.31
  Q 992.30 730.74 966.23 739.19
  Q 923.36 753.09 879.09 761.04
  L 878.42 751.44
  C 922.35 742.57 965.14 729.38 1007.18 714.03
  Q 1007.73 713.83 1007.24 713.50
  L 993.97 704.67
  A 2.22 2.20 50.2 0 0 991.87 704.47
  Q 953.35 720.84 914.68 736.99
  Q 905.86 740.67 896.62 744.20
  Q 887.56 747.66 878.36 751.09
  L 877.26 734.27
  Q 877.24 734.00 877.49 733.90
  Q 877.66 733.83 877.75 733.91
  Q 904.83 721.25 931.41 707.49
  Q 949.78 697.98 969.03 687.88
  Q 969.57 687.60 969.08 687.23
  L 952.24 674.68
  A 1.31 1.29 -41.0 0 0 950.83 674.59
  L 876.48 715.75
  L 876.17 704.91
  L 942.40 667.39
  A 0.22 0.21 -40.9 0 0 942.43 667.04
  L 930.43 657.44
  A 1.26 1.25 -42.5 0 0 928.94 657.38
  L 876.22 692.59
  L 876.68 678.48
  Q 897.08 663.01 916.09 646.11
  A 0.39 0.39 0.0 0 0 916.08 645.52
  L 905.98 636.68
  A 0.58 0.57 -45.4 0 0 905.22 636.69
  L 878.50 660.63
  Q 881.36 640.80 883.49 634.74
  Q 888.21 621.31 893.01 607.93
  C 893.71 605.98 894.48 602.69 895.72 600.24
  L 913.47 565.92
  Q 913.88 565.14 913.37 564.41
  L 909.13 558.39
  L 913.18 544.18
  L 918.99 553.43
  Q 919.29 553.91 919.53 553.40
  Q 926.45 538.74 932.61 523.06
  Q 932.88 522.35 932.44 521.73
  Q 917.03 500.35 903.37 475.76
  C 901.79 472.90 900.96 469.78 903.83 467.30
  C 907.63 464.02 911.27 466.70 913.26 470.23
  Q 924.60 490.44 937.46 509.46
  A 0.23 0.22 38.5 0 0 937.86 509.42
  L 947.35 484.18
  A 2.18 2.17 -47.8 0 0 947.27 482.44
  Q 936.26 460.00 926.16 435.60
  C 924.46 431.50 924.01 426.73 929.22 425.37
  C 933.24 424.31 935.13 427.34 936.56 430.91
  Q 943.70 448.68 952.52 468.40
  Q 952.84 469.13 953.08 468.37
  Q 955.78 459.66 958.54 450.17
  C 959.30 447.55 960.47 445.45 961.33 443.04
  Q 966.48 428.65 974.65 402.12
  C 975.09 400.69 975.22 399.41 974.62 398.00
  Q 969.60 386.11 968.15 379.47
  Q 967.61 376.97 969.63 374.86
  C 972.46 371.90 977.18 373.65 978.38 377.31
  Q 979.39 380.35 980.58 383.57
  Q 981.35 385.63 981.12 383.44
  Q 980.86 380.91 981.39 378.91
  Q 984.42 367.61 987.54 355.67
  C 988.10 353.52 988.32 351.77 987.38 349.61
  Q 985.28 344.82 984.15 339.96
  C 983.07 335.33 987.85 330.27 992.17 334.17
  A 0.29 0.28 28.0 0 0 992.64 334.03
  Q 995.39 322.05 997.30 309.80
  Q 998.08 304.79 1002.33 304.41
  C 1005.57 304.12 1007.98 307.17 1007.67 310.15
  C 1006.30 323.15 1002.80 337.13 999.71 349.98
  C 999.51 350.81 999.56 352.21 999.92 352.99
  Q 1010.58 376.76 1022.70 398.20
  A 0.17 0.17 0.0 0 0 1023.00 398.19
  Q 1029.81 383.66 1035.98 368.33
  Q 1036.59 366.81 1035.92 365.15
  Q 1019.06 323.65 1004.04 277.74
  C 1003.19 275.15 1002.92 271.51 1005.64 269.95
  C 1010.90 266.94 1013.42 272.65 1014.67 276.47
  Q 1027.13 314.47 1041.40 350.83
  Q 1041.79 351.84 1042.38 350.93
  Q 1043.82 348.68 1046.06 348.54
  C 1051.25 348.21 1052.14 353.23 1050.92 357.28
  Q 1049.74 361.25 1048.33 365.11
  C 1047.94 366.17 1048.18 367.38 1048.61 368.41
  Q 1065.22 408.30 1085.57 446.28
  A 0.30 0.30 0.0 0 0 1086.06 446.34
  C 1090.06 441.91 1094.07 437.38 1097.60 432.60
  Q 1102.90 425.39 1108.31 418.03
  C 1111.64 413.51 1114.08 409.20 1118.59 405.71
  Q 1119.06 405.35 1118.84 404.81
  Q 1111.88 387.64 1107.06 372.06
  C 1106.36 369.80 1107.53 366.42 1110.06 365.51
  C 1113.81 364.17 1116.17 366.80 1117.29 370.00
  Q 1143.28 444.70 1180.26 514.35
  A 0.32 0.31 -33.9 0 0 1180.74 514.44
  Q 1190.09 506.34 1199.10 497.27
  Q 1204.21 492.12 1208.18 486.45
  A 1.58 1.56 51.5 0 0 1208.34 484.95
  Q 1192.42 445.99 1178.44 405.80
  C 1175.87 398.41 1172.84 391.11 1170.06 383.76
  C 1169.26 381.64 1169.54 378.50 1171.63 377.12
  C 1175.25 374.74 1178.49 377.30 1179.99 380.71
  Q 1183.20 387.95 1187.32 399.49
  Q 1195.21 421.62 1203.39 443.66
  Q 1218.62 484.66 1237.55 523.61
  Z
  M 1015.85 413.24
  C 1016.69 411.53 1017.67 410.48 1016.53 408.49
  Q 1005.24 388.86 995.44 368.29
  Q 995.17 367.72 995.01 368.33
  Q 991.17 383.06 987.20 396.49
  Q 986.83 397.76 987.47 398.91
  Q 996.56 415.26 1006.88 430.27
  Q 1007.12 430.62 1007.31 430.24
  Q 1011.71 421.68 1015.85 413.24
  Z
  M 1042.10 380.90
  C 1037.99 390.25 1033.93 399.58 1029.52 408.82
  A 1.74 1.73 42.8 0 0 1029.59 410.45
  Q 1046.60 439.63 1066.06 467.44
  A 0.18 0.18 0.0 0 0 1066.33 467.46
  L 1078.09 455.12
  A 0.50 0.49 -37.9 0 0 1078.17 454.53
  Q 1058.83 418.88 1042.56 380.90
  Q 1042.33 380.36 1042.10 380.90
  Z
  M 980.03 420.64
  C 982.69 417.71 986.60 419.18 988.24 422.36
  Q 993.80 433.08 1000.68 442.23
  Q 1001.06 442.74 1001.19 442.12
  L 1001.32 441.43
  A 1.28 1.26 33.8 0 0 1001.12 440.45
  Q 991.37 426.28 983.02 412.16
  Q 982.65 411.55 982.44 412.23
  L 979.85 420.53
  Q 979.71 420.99 980.03 420.64
  Z
  M 1047.44 485.80
  Q 1047.84 486.30 1048.28 485.85
  L 1058.31 475.74
  A 0.79 0.79 0.0 0 0 1058.40 474.73
  Q 1039.98 448.48 1023.87 421.29
  A 0.19 0.19 0.0 0 0 1023.53 421.30
  L 1014.25 439.50
  A 1.78 1.77 -49.1 0 0 1014.38 441.32
  Q 1030.42 464.31 1047.44 485.80
  Z
  M 978.23 425.20
  L 959.86 482.39
  Q 959.75 482.76 959.94 483.10
  L 968.98 499.08
  A 0.23 0.22 -44.6 0 0 969.37 499.08
  L 974.90 489.47
  A 1.90 1.88 -45.3 0 0 974.90 487.56
  Q 971.97 482.48 969.64 476.92
  C 968.05 473.12 970.50 467.79 975.20 469.37
  C 978.25 470.40 979.93 474.45 981.21 477.20
  Q 981.51 477.86 981.87 477.23
  L 987.59 467.02
  A 1.59 1.59 0.0 0 0 987.55 465.40
  Q 981.92 456.22 977.81 446.79
  C 974.71 439.70 983.62 435.26 987.16 442.54
  Q 990.32 449.04 993.60 455.00
  Q 993.95 455.64 994.25 454.98
  L 994.95 453.48
  Q 995.32 452.68 994.79 451.98
  Q 988.63 443.82 982.33 433.48
  Q 979.83 429.37 978.66 425.20
  Q 978.46 424.48 978.23 425.20
  Z
  M 1008.3356 451.2631
  A 0.26 0.26 0.0 0 0 1007.9715 451.2113
  L 1007.7956 451.3434
  A 0.26 0.26 0.0 0 0 1007.7438 451.7074
  L 1020.1244 468.1969
  A 0.26 0.26 0.0 0 0 1020.4885 468.2487
  L 1020.6644 468.1166
  A 0.26 0.26 0.0 0 0 1020.7162 467.7526
  L 1008.3356 451.2631
  Z
  M 1000.51 465.23
  Q 1000.04 466.13 1000.57 466.98
  Q 1013.14 487.12 1027.54 506.10
  Q 1027.68 506.30 1027.85 506.12
  L 1033.64 500.22
  Q 1033.71 500.15 1033.64 500.07
  Q 1017.49 481.75 1002.77 462.65
  Q 1002.23 461.95 1001.82 462.74
  L 1000.51 465.23
  Z
  M 1084.66 466.22
  A 0.78 0.78 0.0 0 0 1083.83 465.84
  Q 1081.97 466.23 1080.77 467.46
  Q 1077.02 471.32 1072.67 475.92
  A 0.57 0.56 48.5 0 0 1072.63 476.64
  L 1079.06 485.48
  A 0.49 0.49 0.0 0 0 1079.83 485.50
  L 1088.85 474.79
  Q 1089.26 474.29 1088.94 473.73
  L 1084.66 466.22
  Z
  M 994.45 476.96
  Q 994.20 476.58 993.98 476.97
  L 987.93 487.74
  A 1.76 1.75 44.4 0 0 987.95 489.47
  Q 997.81 506.30 1009.77 523.13
  A 0.31 0.31 0.0 0 0 1010.24 523.17
  L 1019.74 513.97
  A 0.56 0.55 49.5 0 0 1019.79 513.23
  Q 1006.98 496.67 994.45 476.96
  Z
  M 1072.11 494.17
  A 0.45 0.45 0.0 0 0 1072.13 493.61
  L 1065.27 484.27
  A 0.45 0.45 0.0 0 0 1064.59 484.22
  L 1054.63 494.24
  A 0.45 0.45 0.0 0 0 1054.60 494.84
  L 1062.29 504.35
  A 0.45 0.45 0.0 0 0 1062.97 504.37
  L 1072.11 494.17
  Z
  M 1094.95 484.33
  A 0.31 0.31 0.0 0 0 1094.45 484.30
  L 1085.91 494.35
  A 0.31 0.31 0.0 0 0 1085.90 494.75
  L 1112.39 527.18
  A 0.31 0.31 0.0 0 0 1112.82 527.23
  L 1119.05 522.41
  A 0.31 0.31 0.0 0 0 1119.12 522.00
  L 1094.95 484.33
  Z
  M 954.35 496.58
  L 946.28 519.02
  A 2.22 2.21 -52.2 0 0 946.53 521.01
  L 951.54 528.39
  A 0.31 0.31 0.0 0 0 952.06 528.37
  L 962.53 510.78
  A 1.25 1.25 0.0 0 0 962.53 509.50
  L 954.84 496.53
  Q 954.54 496.04 954.35 496.58
  Z
  M 994.79 537.82
  Q 994.89 537.96 995.01 537.84
  L 1002.05 531.06
  A 0.53 0.53 0.0 0 0 1002.11 530.37
  Q 991.03 515.15 981.76 499.50
  Q 981.45 498.99 981.15 499.51
  L 975.59 509.11
  A 0.90 0.90 0.0 0 0 975.61 510.04
  Q 984.14 523.38 994.79 537.82
  Z
  M 1078.91 502.80
  A 0.34 0.34 0.0 0 0 1078.39 502.79
  L 1069.53 512.65
  A 0.34 0.34 0.0 0 0 1069.53 513.10
  L 1093.74 540.85
  A 0.34 0.34 0.0 0 0 1094.20 540.91
  L 1103.81 533.87
  A 0.34 0.34 0.0 0 0 1103.87 533.38
  L 1078.91 502.80
  Z
  M 1042.57 525.41
  A 0.42 0.42 0.0 0 0 1043.20 525.44
  L 1049.62 518.66
  A 0.42 0.42 0.0 0 0 1049.63 518.09
  L 1040.92 508.42
  A 0.42 0.42 0.0 0 0 1040.31 508.40
  L 1034.29 514.39
  A 0.42 0.42 0.0 0 0 1034.25 514.95
  L 1042.57 525.41
  Z
  M 969.54 520.22
  A 0.33 0.33 0.0 0 0 968.99 520.24
  L 958.55 537.78
  A 0.33 0.33 0.0 0 0 958.57 538.16
  L 974.10 557.31
  A 0.33 0.33 0.0 0 0 974.58 557.34
  L 986.98 545.55
  A 0.33 0.33 0.0 0 0 987.03 545.12
  L 969.54 520.22
  Z
  M 1016.50 531.62
  A 0.47 0.47 0.0 0 0 1016.45 532.24
  L 1024.96 543.45
  A 0.47 0.47 0.0 0 0 1025.67 543.49
  L 1035.24 533.66
  A 0.47 0.47 0.0 0 0 1035.27 533.04
  L 1026.80 522.37
  A 0.47 0.47 0.0 0 0 1026.11 522.32
  L 1016.50 531.62
  Z
  M 1069.53 557.12
  A 0.33 0.33 0.0 0 0 1069.96 557.18
  L 1079.91 550.62
  A 0.33 0.33 0.0 0 0 1079.97 550.11
  L 1057.19 526.42
  A 0.33 0.33 0.0 0 0 1056.71 526.42
  L 1049.66 533.79
  A 0.33 0.33 0.0 0 0 1049.65 534.24
  L 1069.53 557.12
  Z
  M 1125.77 531.25
  A 0.49 0.49 0.0 0 0 1125.07 531.15
  L 1120.13 535.05
  A 0.49 0.49 0.0 0 0 1120.07 535.77
  L 1133.63 550.65
  A 0.49 0.49 0.0 0 0 1134.30 550.71
  L 1137.62 548.12
  A 0.49 0.49 0.0 0 0 1137.72 547.45
  L 1125.77 531.25
  Z
  M 945.32 539.46
  A 0.33 0.33 0.0 0 0 945.31 539.09
  L 941.33 533.57
  A 0.33 0.33 0.0 0 0 940.76 533.62
  L 927.15 564.18
  A 0.33 0.33 0.0 0 0 927.19 564.51
  L 928.36 566.09
  A 0.33 0.33 0.0 0 0 928.91 566.07
  L 945.32 539.46
  Z
  M 1010.27 558.24
  A 0.43 0.43 0.0 0 0 1010.92 558.28
  L 1017.61 551.49
  A 0.43 0.43 0.0 0 0 1017.64 550.92
  L 1008.88 539.56
  A 0.43 0.43 0.0 0 0 1008.24 539.52
  L 1001.42 546.15
  A 0.43 0.43 0.0 0 0 1001.38 546.72
  L 1010.27 558.24
  Z
  M 1047.68 571.09
  A 0.34 0.34 0.0 0 0 1048.12 571.16
  L 1060.49 563.29
  A 0.34 0.34 0.0 0 0 1060.56 562.78
  L 1042.34 541.81
  A 0.34 0.34 0.0 0 0 1041.84 541.80
  L 1032.05 551.88
  A 0.34 0.34 0.0 0 0 1032.04 552.34
  L 1047.68 571.09
  Z
  M 1115.45 563.82
  A 0.33 0.33 0.0 0 0 1115.87 563.87
  L 1125.15 557.43
  A 0.33 0.33 0.0 0 0 1125.21 556.94
  L 1111.41 541.82
  A 0.33 0.33 0.0 0 0 1110.97 541.77
  L 1101.47 548.52
  A 0.33 0.33 0.0 0 0 1101.42 549.02
  L 1115.45 563.82
  Z
  M 966.28 565.22
  A 0.31 0.31 0.0 0 0 966.30 564.80
  L 952.56 548.38
  A 0.31 0.31 0.0 0 0 952.05 548.42
  L 935.77 574.78
  A 0.31 0.31 0.0 0 0 935.80 575.14
  L 944.65 585.29
  A 0.31 0.31 0.0 0 0 945.09 585.31
  L 966.28 565.22
  Z
  M 1002.71 565.52
  L 993.81 553.99
  A 0.39 0.38 49.8 0 0 993.24 553.94
  L 982.29 564.34
  A 2.00 2.00 0.0 0 0 982.16 567.10
  L 990.73 577.00
  Q 991.12 577.46 991.56 577.04
  L 1002.64 566.37
  A 0.64 0.63 -40.8 0 0 1002.71 565.52
  Z
  M 1159.24 577.11
  A 0.45 0.45 0.0 0 0 1159.76 577.19
  L 1160.69 576.72
  A 0.45 0.45 0.0 0 0 1160.83 576.04
  L 1144.88 556.71
  A 0.45 0.45 0.0 0 0 1144.25 556.64
  L 1141.77 558.59
  A 0.45 0.45 0.0 0 0 1141.72 559.26
  L 1159.24 577.11
  Z
  M 1090.98 579.85
  A 0.35 0.35 0.0 0 0 1091.42 579.90
  L 1102.62 572.70
  A 0.35 0.35 0.0 0 0 1102.67 572.15
  L 1088.03 558.09
  A 0.35 0.35 0.0 0 0 1087.60 558.05
  L 1077.22 564.88
  A 0.35 0.35 0.0 0 0 1077.16 565.41
  L 1090.98 579.85
  Z
  M 1029.82 582.14
  A 0.36 0.36 0.0 0 0 1030.29 582.22
  L 1038.59 577.10
  A 0.36 0.36 0.0 0 0 1038.67 576.56
  L 1024.61 559.77
  A 0.36 0.36 0.0 0 0 1024.08 559.75
  L 1017.33 566.56
  A 0.36 0.36 0.0 0 0 1017.31 567.04
  L 1029.82 582.14
  Z
  M 1141.56 589.34
  A 0.32 0.32 0.0 0 0 1141.95 589.38
  L 1150.84 583.52
  A 0.32 0.32 0.0 0 0 1150.89 583.02
  L 1133.23 565.39
  A 0.32 0.32 0.0 0 0 1132.81 565.36
  L 1123.97 571.92
  A 0.32 0.32 0.0 0 0 1123.94 572.41
  L 1141.56 589.34
  Z
  M 1068.27 593.79
  A 0.54 0.54 0.0 0 0 1068.95 593.89
  L 1081.61 586.11
  A 0.54 0.54 0.0 0 0 1081.72 585.28
  L 1068.29 571.21
  A 0.54 0.54 0.0 0 0 1067.61 571.13
  L 1055.41 578.85
  A 0.54 0.54 0.0 0 0 1055.30 579.68
  L 1068.27 593.79
  Z
  M 983.25 584.98
  A 0.52 0.52 0.0 0 0 983.28 584.26
  L 973.72 573.27
  A 0.52 0.52 0.0 0 0 972.97 573.23
  L 952.15 592.95
  A 0.52 0.52 0.0 0 0 952.14 593.69
  L 962.27 604.01
  A 0.52 0.52 0.0 0 0 963.00 604.02
  L 983.25 584.98
  Z
  M 1007.73 595.58
  A 0.51 0.51 0.0 0 0 1008.37 595.67
  L 1020.60 588.23
  A 0.51 0.51 0.0 0 0 1020.72 587.47
  L 1009.94 574.49
  A 0.51 0.51 0.0 0 0 1009.19 574.45
  L 998.51 584.81
  A 0.51 0.51 0.0 0 0 998.49 585.53
  L 1007.73 595.58
  Z
  M 915.81 586.84
  Q 918.95 581.86 922.24 576.61
  A 0.55 0.54 -47.4 0 0 922.22 576.01
  L 921.82 575.46
  Q 921.50 575.02 921.27 575.50
  Q 918.53 581.15 915.46 586.78
  Q 915.41 586.86 915.49 586.91
  L 915.50 586.91
  Q 915.69 587.03 915.81 586.84
  Z
  M 1117.23 604.90
  A 0.34 0.34 0.0 0 0 1117.64 604.94
  L 1129.95 597.22
  A 0.34 0.34 0.0 0 0 1130.00 596.68
  L 1110.99 579.99
  A 0.34 0.34 0.0 0 0 1110.58 579.96
  L 1099.10 587.37
  A 0.34 0.34 0.0 0 0 1099.05 587.91
  L 1117.23 604.90
  Z
  M 919.53 600.26
  A 0.33 0.33 0.0 0 0 919.56 600.67
  L 923.67 605.08
  A 0.33 0.33 0.0 0 0 924.14 605.09
  L 936.83 593.18
  A 0.33 0.33 0.0 0 0 936.85 592.72
  L 929.83 584.91
  A 0.33 0.33 0.0 0 0 929.31 584.96
  L 919.53 600.26
  Z
  M 1050.05 604.93
  A 0.40 0.40 0.0 0 0 1050.55 605.01
  L 1059.04 599.90
  A 0.40 0.40 0.0 0 0 1059.13 599.29
  L 1046.12 585.07
  A 0.40 0.40 0.0 0 0 1045.62 585.00
  L 1037.35 590.12
  A 0.40 0.40 0.0 0 0 1037.26 590.73
  L 1050.05 604.93
  Z
  M 970.32 611.50
  A 0.34 0.34 0.0 0 0 970.31 611.99
  L 974.50 616.07
  A 0.34 0.34 0.0 0 0 974.92 616.11
  L 998.61 601.62
  A 0.34 0.34 0.0 0 0 998.68 601.10
  L 990.86 592.63
  A 0.34 0.34 0.0 0 0 990.38 592.62
  L 970.32 611.50
  Z
  M 1093.64 619.12
  A 0.33 0.33 0.0 0 0 1094.04 619.17
  L 1107.77 610.96
  A 0.33 0.33 0.0 0 0 1107.83 610.44
  L 1089.85 593.52
  A 0.33 0.33 0.0 0 0 1089.45 593.48
  L 1076.38 601.58
  A 0.33 0.33 0.0 0 0 1076.32 602.09
  L 1093.64 619.12
  Z
  M 1028.93 617.44
  A 0.39 0.39 0.0 0 0 1029.40 617.51
  L 1040.71 610.85
  A 0.39 0.39 0.0 0 0 1040.80 610.26
  L 1028.16 596.17
  A 0.39 0.39 0.0 0 0 1027.66 596.10
  L 1015.76 603.36
  A 0.39 0.39 0.0 0 0 1015.68 603.97
  L 1028.93 617.44
  Z
  M 931.57 612.34
  A 0.55 0.55 0.0 0 0 931.56 613.13
  L 941.56 622.94
  A 0.55 0.55 0.0 0 0 942.31 622.95
  L 954.51 611.84
  A 0.55 0.55 0.0 0 0 954.53 611.05
  L 944.61 600.87
  A 0.55 0.55 0.0 0 0 943.84 600.85
  L 931.57 612.34
  Z
  M 1143.57 626.84
  A 0.33 0.33 0.0 0 0 1143.92 626.88
  L 1158.84 619.65
  A 0.33 0.33 0.0 0 0 1158.90 619.09
  L 1138.95 604.10
  A 0.33 0.33 0.0 0 0 1138.58 604.08
  L 1126.01 611.99
  A 0.33 0.33 0.0 0 0 1125.98 612.53
  L 1143.57 626.84
  Z
  M 1074.53 630.13
  A 0.39 0.39 0.0 0 0 1075.00 630.19
  L 1084.03 625.04
  A 0.39 0.39 0.0 0 0 1084.11 624.42
  L 1067.02 607.61
  A 0.39 0.39 0.0 0 0 1066.55 607.55
  L 1057.95 612.70
  A 0.39 0.39 0.0 0 0 1057.87 613.31
  L 1074.53 630.13
  Z
  M 982.91 623.48
  A 0.31 0.31 0.0 0 0 982.87 623.98
  L 996.46 636.37
  A 0.31 0.31 0.0 0 0 996.83 636.41
  L 1019.50 623.31
  A 0.31 0.31 0.0 0 0 1019.57 622.82
  L 1006.43 609.37
  A 0.31 0.31 0.0 0 0 1006.05 609.32
  L 982.91 623.48
  Z
  M 906.41 621.91
  L 915.92 612.89
  Q 916.33 612.50 915.95 612.07
  L 913.90 609.83
  Q 913.47 609.37 913.12 609.89
  L 905.37 621.43
  Q 905.12 621.80 905.47 622.06
  Q 905.61 622.16 905.78 622.16
  Q 906.14 622.16 906.41 621.91
  Z
  M 1116.55 639.40
  A 0.33 0.33 0.0 0 0 1116.90 639.45
  L 1133.06 632.05
  A 0.33 0.33 0.0 0 0 1133.13 631.50
  L 1116.52 618.11
  A 0.33 0.33 0.0 0 0 1116.14 618.09
  L 1102.23 626.43
  A 0.33 0.33 0.0 0 0 1102.18 626.96
  L 1116.55 639.40
  Z
  M 1054.09 641.81
  A 0.31 0.31 0.0 0 0 1054.46 641.86
  L 1065.00 635.93
  A 0.31 0.31 0.0 0 0 1065.07 635.44
  L 1048.50 618.62
  A 0.31 0.31 0.0 0 0 1048.12 618.57
  L 1037.15 625.05
  A 0.31 0.31 0.0 0 0 1037.10 625.54
  L 1054.09 641.81
  Z
  M 965.23 622.10
  A 0.31 0.31 0.0 0 0 965.28 621.61
  L 962.51 619.00
  A 0.31 0.31 0.0 0 0 962.09 618.99
  L 949.72 630.27
  A 0.31 0.31 0.0 0 0 949.81 630.79
  L 950.58 631.12
  A 0.31 0.31 0.0 0 0 950.87 631.09
  L 965.23 622.10
  Z
  M 924.12 638.62
  A 0.43 0.43 0.0 0 0 924.68 638.62
  L 933.79 630.59
  A 0.43 0.43 0.0 0 0 933.81 629.96
  L 923.79 620.17
  A 0.43 0.43 0.0 0 0 923.20 620.16
  L 913.70 628.95
  A 0.43 0.43 0.0 0 0 913.71 629.59
  L 924.12 638.62
  Z
  M 972.04 650.33
  A 0.30 0.30 0.0 0 0 972.38 650.37
  L 986.81 642.18
  A 0.30 0.30 0.0 0 0 986.86 641.70
  L 973.50 629.53
  A 0.30 0.30 0.0 0 0 973.14 629.50
  L 958.88 638.36
  A 0.30 0.30 0.0 0 0 958.84 638.84
  L 972.04 650.33
  Z
  M 1005.30 643.56
  A 0.32 0.32 0.0 0 0 1005.25 644.08
  L 1023.01 658.94
  A 0.32 0.32 0.0 0 0 1023.37 658.98
  L 1044.37 647.49
  A 0.32 0.32 0.0 0 0 1044.43 646.98
  L 1027.62 630.89
  A 0.32 0.32 0.0 0 0 1027.24 630.84
  L 1005.30 643.56
  Z
  M 1095.06 648.97
  A 0.35 0.35 0.0 0 0 1095.44 649.03
  L 1105.79 644.51
  A 0.35 0.35 0.0 0 0 1105.88 643.93
  L 1092.59 632.40
  A 0.35 0.35 0.0 0 0 1092.18 632.36
  L 1083.12 637.58
  A 0.35 0.35 0.0 0 0 1083.06 638.14
  L 1095.06 648.97
  Z
  M 1143.18 638.98
  A 0.30 0.30 0.0 0 0 1142.89 638.96
  L 1126.19 646.71
  A 0.30 0.30 0.0 0 0 1126.14 647.22
  L 1140.64 657.94
  A 0.30 0.30 0.0 0 0 1140.97 657.96
  L 1157.15 648.78
  A 0.30 0.30 0.0 0 0 1157.16 648.27
  L 1143.18 638.98
  Z
  M 1072.76 658.74
  A 0.33 0.33 0.0 0 0 1073.11 658.80
  L 1084.31 653.98
  A 0.33 0.33 0.0 0 0 1084.40 653.44
  L 1073.41 643.43
  A 0.33 0.33 0.0 0 0 1073.02 643.39
  L 1062.76 649.16
  A 0.33 0.33 0.0 0 0 1062.70 649.70
  L 1072.76 658.74
  Z
  M 952.30 661.54
  A 0.34 0.34 0.0 0 0 952.68 661.57
  L 962.18 656.23
  A 0.34 0.34 0.0 0 0 962.24 655.68
  L 949.55 644.52
  A 0.34 0.34 0.0 0 0 949.14 644.49
  L 939.33 650.69
  A 0.34 0.34 0.0 0 0 939.30 651.25
  L 952.30 661.54
  Z
  M 998.76 671.97
  A 0.33 0.33 0.0 0 0 999.12 672.00
  L 1012.87 664.67
  A 0.33 0.33 0.0 0 0 1012.93 664.13
  L 995.54 649.44
  A 0.33 0.33 0.0 0 0 995.16 649.40
  L 981.13 657.39
  A 0.33 0.33 0.0 0 0 981.09 657.93
  L 998.76 671.97
  Z
  M 1115.45 651.76
  A 0.32 0.32 0.0 0 0 1115.13 651.73
  L 1104.52 656.44
  A 0.32 0.32 0.0 0 0 1104.46 656.99
  L 1118.79 668.27
  A 0.32 0.32 0.0 0 0 1119.12 668.31
  L 1130.06 663.24
  A 0.32 0.32 0.0 0 0 1130.12 662.69
  L 1115.45 651.76
  Z
  M 1032.44 665.92
  A 0.30 0.30 0.0 0 0 1032.40 666.42
  L 1040.43 672.58
  A 0.30 0.30 0.0 0 0 1040.73 672.62
  L 1061.95 663.60
  A 0.30 0.30 0.0 0 0 1062.03 663.11
  L 1052.95 654.88
  A 0.30 0.30 0.0 0 0 1052.60 654.84
  L 1032.44 665.92
  Z
  M 1095.91 678.53
  A 0.31 0.31 0.0 0 0 1096.24 678.57
  L 1108.02 673.44
  A 0.31 0.31 0.0 0 0 1108.09 672.91
  L 1093.60 661.50
  A 0.31 0.31 0.0 0 0 1093.29 661.46
  L 1082.05 666.28
  A 0.31 0.31 0.0 0 0 1081.98 666.80
  L 1095.91 678.53
  Z
  M 979.71 682.06
  A 0.33 0.33 0.0 0 0 980.06 682.08
  L 988.42 677.70
  A 0.33 0.33 0.0 0 0 988.48 677.15
  L 971.25 663.30
  A 0.33 0.33 0.0 0 0 970.89 663.27
  L 961.87 668.35
  A 0.33 0.33 0.0 0 0 961.84 668.90
  L 979.71 682.06
  Z
  M 1050.69 679.73
  A 0.31 0.31 0.0 0 0 1050.63 680.27
  L 1065.99 691.23
  A 0.31 0.31 0.0 0 0 1066.29 691.26
  L 1084.94 683.50
  A 0.31 0.31 0.0 0 0 1085.02 682.98
  L 1071.14 671.22
  A 0.31 0.31 0.0 0 0 1070.81 671.17
  L 1050.69 679.73
  Z
  M 1008.61 678.77
  A 0.34 0.34 0.0 0 0 1008.57 679.35
  L 1014.33 683.50
  A 0.34 0.34 0.0 0 0 1014.66 683.54
  L 1029.05 677.56
  A 0.34 0.34 0.0 0 0 1029.12 676.97
  L 1022.23 671.68
  A 0.34 0.34 0.0 0 0 1021.87 671.65
  L 1008.61 678.77
  Z
  M 1002.86 688.60
  A 0.32 0.32 0.0 0 0 1002.93 688.04
  L 998.11 684.60
  A 0.32 0.32 0.0 0 0 997.78 684.58
  L 989.90 688.65
  A 0.32 0.32 0.0 0 0 989.87 689.20
  L 994.10 692.04
  A 0.32 0.32 0.0 0 0 994.40 692.08
  L 1002.86 688.60
  Z
  M 1040.38 701.38
  A 0.32 0.32 0.0 0 0 1040.67 701.41
  L 1054.14 696.25
  A 0.32 0.32 0.0 0 0 1054.21 695.69
  L 1039.23 684.80
  A 0.32 0.32 0.0 0 0 1038.91 684.76
  L 1025.01 690.55
  A 0.32 0.32 0.0 0 0 1024.96 691.11
  L 1040.38 701.38
  Z
  M 937.08 716.23
  Q 937.14 716.36 937.26 716.30
  Q 959.87 706.60 982.14 697.28
  Q 982.80 697.00 982.22 696.59
  L 979.89 694.89
  A 1.46 1.44 48.8 0 0 978.35 694.78
  Q 958.17 705.40 937.13 716.09
  Q 937.04 716.14 937.08 716.23
  L 937.08 716.23
  Z
  M 1019.86 709.22
  A 0.30 0.30 0.0 0 0 1020.13 709.25
  L 1028.10 706.38
  A 0.30 0.30 0.0 0 0 1028.17 705.85
  L 1013.29 695.69
  A 0.30 0.30 0.0 0 0 1013.01 695.66
  L 1004.95 698.94
  A 0.30 0.30 0.0 0 0 1004.90 699.47
  L 1019.86 709.22
  Z"
/>
<path fill="#346237" d="
  M 1332.88 552.73
  Q 1330.54 546.39 1324.78 548.18
  Q 1321.45 549.21 1320.51 552.98
  Q 1320.13 554.52 1320.66 559.97
  L 1309.73 566.31
  Q 1309.07 566.70 1309.37 567.41
  L 1314.97 580.76
  Q 1315.35 581.65 1316.21 581.23
  L 1322.64 578.13
  L 1323.51 589.27
  L 1320.13 590.95
  A 0.47 0.46 -26.3 0 0 1319.91 591.57
  L 1323.88 599.99
  Q 1324.24 609.06 1322.86 618.24
  Q 1321.52 615.54 1317.15 618.49
  Q 1316.68 618.80 1317.00 619.27
  L 1319.81 623.33
  Q 1320.11 623.76 1320.64 623.75
  Q 1321.42 623.74 1322.24 623.44
  Q 1321.93 631.41 1319.26 638.57
  Q 1318.31 637.05 1317.29 636.43
  Q 1316.86 636.16 1316.38 636.32
  L 1307.22 639.33
  A 0.26 0.26 0.0 0 0 1307.10 639.75
  L 1313.99 647.84
  Q 1314.30 648.46 1313.38 649.86
  Q 1309.92 655.14 1306.15 659.69
  L 1291.48 662.69
  Q 1290.94 662.80 1291.35 663.17
  L 1297.34 668.48
  L 1289.74 674.79
  L 1279.63 665.87
  A 2.03 2.03 0.0 0 0 1277.90 665.40
  Q 1250.48 670.79 1222.70 675.91
  C 1220.03 676.40 1217.68 677.49 1215.04 677.94
  C 1208.32 679.07 1201.56 681.03 1194.82 682.74
  L 1198.83 657.64
  L 1250.02 636.88
  Q 1250.69 636.61 1250.22 636.06
  L 1245.23 630.32
  A 1.02 1.01 -32.0 0 0 1244.04 630.05
  L 1234.39 634.39
  Q 1233.84 634.64 1233.66 635.21
  Q 1233.47 635.82 1232.82 636.11
  Q 1216.54 643.47 1199.96 650.33
  L 1201.41 638.65
  L 1237.73 621.69
  Q 1237.93 621.60 1237.80 621.43
  L 1231.75 613.84
  Q 1231.60 613.65 1231.38 613.76
  L 1202.40 628.21
  L 1203.89 615.66
  Q 1207.78 613.86 1211.65 611.98
  Q 1212.51 611.56 1218.38 609.25
  Q 1221.41 608.06 1224.87 605.76
  Q 1225.34 605.45 1225.00 605.00
  L 1222.50 601.69
  Q 1222.00 601.02 1221.27 601.43
  L 1204.90 610.62
  Q 1205.58 605.82 1207.40 600.17
  Q 1211.69 586.82 1216.85 575.97
  Q 1218.21 576.82 1218.56 577.88
  A 0.33 0.32 -29.6 0 0 1219.09 578.02
  L 1242.39 557.53
  Q 1242.81 557.15 1242.55 556.64
  L 1236.56 545.16
  L 1243.09 534.61
  L 1250.58 549.24
  Q 1250.88 549.82 1251.37 549.38
  L 1259.53 542.02
  Q 1260.10 541.51 1259.76 540.82
  Q 1221.27 462.90 1197.20 378.42
  Q 1184.02 332.21 1174.10 286.47
  C 1173.74 284.84 1174.60 282.73 1175.93 281.71
  C 1180.45 278.25 1183.99 282.21 1184.98 286.70
  Q 1196.38 338.87 1211.02 387.99
  Q 1233.37 462.98 1267.84 533.41
  Q 1268.22 534.19 1268.86 533.61
  L 1280.92 522.73
  A 0.91 0.90 -30.6 0 0 1281.17 521.77
  C 1262.55 465.55 1249.22 408.61 1236.53 350.24
  Q 1232.97 333.87 1229.20 321.95
  C 1228.19 318.75 1228.85 315.50 1232.33 314.51
  C 1236.26 313.40 1238.73 316.55 1239.75 319.94
  Q 1242.96 330.60 1245.20 340.76
  C 1258.76 402.42 1271.34 457.70 1289.68 513.92
  Q 1289.85 514.46 1290.27 514.08
  Q 1334.16 474.33 1372.67 428.20
  C 1409.72 383.81 1445.98 340.55 1481.42 295.94
  Q 1486.52 289.51 1491.23 281.88
  C 1492.76 279.41 1496.22 278.54 1498.62 280.37
  C 1502.03 282.97 1500.70 286.93 1498.68 289.92
  Q 1492.73 298.75 1485.71 307.48
  Q 1452.25 349.12 1417.87 390.38
  Q 1400.14 411.66 1382.91 432.41
  Q 1340.85 483.06 1294.33 524.56
  Q 1293.61 525.19 1293.86 526.12
  L 1294.10 527.01
  Q 1294.36 527.96 1295.12 527.34
  Q 1367.08 469.10 1437.92 408.70
  Q 1471.45 380.10 1517.28 340.52
  Q 1540.65 320.33 1561.47 299.08
  C 1564.32 296.16 1566.80 292.76 1569.29 289.53
  Q 1571.25 286.97 1574.49 287.82
  C 1578.88 288.96 1579.04 293.90 1576.70 297.14
  Q 1572.72 302.64 1567.33 308.09
  Q 1548.04 327.63 1528.83 344.34
  Q 1453.88 409.56 1368.33 481.09
  Q 1332.54 511.02 1298.75 537.84
  A 1.03 1.03 0.0 0 0 1298.42 539.02
  L 1298.97 540.48
  Q 1299.21 541.12 1299.79 540.74
  Q 1370.96 494.05 1410.82 470.04
  Q 1526.69 400.24 1613.80 340.31
  Q 1620.38 335.78 1626.38 331.14
  Q 1628.92 329.18 1630.84 329.06
  C 1634.96 328.80 1637.54 333.28 1635.23 336.69
  Q 1633.68 338.98 1630.80 341.06
  Q 1613.93 353.25 1596.86 364.62
  Q 1533.00 407.17 1475.18 443.18
  Q 1466.80 448.40 1458.11 453.60
  Q 1380.25 500.22 1303.25 551.21
  Q 1303.06 551.33 1303.14 551.54
  L 1305.04 556.50
  A 0.27 0.26 -25.4 0 0 1305.42 556.63
  Q 1321.81 546.86 1339.13 537.12
  Q 1391.97 507.38 1445.87 476.87
  Q 1493.26 450.06 1530.74 425.78
  C 1556.69 408.98 1578.62 392.45 1601.33 375.21
  Q 1603.07 373.88 1605.22 372.95
  C 1608.63 371.46 1612.40 373.49 1612.41 377.31
  C 1612.42 379.78 1610.64 381.50 1608.80 382.89
  C 1586.49 399.66 1565.63 415.49 1541.47 431.46
  Q 1509.77 452.42 1462.51 479.55
  Q 1429.27 498.64 1332.88 552.73
  Z
  M 1274.29 543.25
  Q 1279.79 539.12 1285.26 534.86
  A 0.74 0.73 61.1 0 0 1285.50 534.02
  L 1285.37 533.67
  A 0.44 0.43 58.4 0 0 1284.67 533.50
  Q 1279.51 538.15 1274.07 543.01
  Q 1273.96 543.10 1274.06 543.22
  L 1274.06 543.22
  Q 1274.16 543.35 1274.29 543.25
  Z
  M 1289.5134 545.5398
  A 0.27 0.27 0.0 0 0 1289.1371 545.4748
  L 1278.2691 553.1414
  A 0.27 0.27 0.0 0 0 1278.2041 553.5177
  L 1278.8266 554.4002
  A 0.27 0.27 0.0 0 0 1279.2029 554.4652
  L 1290.0709 546.7986
  A 0.27 0.27 0.0 0 0 1290.1359 546.4223
  L 1289.5134 545.5398
  Z
  M 1295.67 562.45
  A 0.52 0.52 0.0 0 0 1295.88 561.81
  L 1294.29 557.68
  A 0.52 0.52 0.0 0 0 1293.52 557.42
  L 1284.05 563.51
  A 0.52 0.52 0.0 0 0 1283.87 564.20
  L 1285.84 567.76
  A 0.52 0.52 0.0 0 0 1286.56 567.95
  L 1295.67 562.45
  Z
  M 1276.68 573.90
  A 0.54 0.54 0.0 0 0 1276.86 573.17
  L 1275.00 569.94
  A 0.54 0.54 0.0 0 0 1274.25 569.76
  L 1265.49 575.23
  A 0.54 0.54 0.0 0 0 1265.31 575.96
  L 1267.17 579.14
  A 0.54 0.54 0.0 0 0 1267.92 579.33
  L 1276.68 573.90
  Z
  M 1300.33 572.57
  A 0.48 0.48 0.0 0 0 1299.64 572.35
  L 1291.62 577.15
  A 0.48 0.48 0.0 0 0 1291.45 577.80
  L 1298.39 589.79
  A 0.48 0.48 0.0 0 0 1299.03 589.98
  L 1305.91 586.35
  A 0.48 0.48 0.0 0 0 1306.13 585.73
  L 1300.33 572.57
  Z
  M 1258.03 585.39
  A 0.49 0.49 0.0 0 0 1258.19 584.73
  L 1256.36 581.48
  A 0.49 0.49 0.0 0 0 1255.68 581.30
  L 1231.73 595.55
  A 0.49 0.49 0.0 0 0 1231.59 596.27
  L 1234.26 599.83
  A 0.49 0.49 0.0 0 0 1234.91 599.95
  L 1258.03 585.39
  Z
  M 1279.81 600.03
  A 0.39 0.39 0.0 0 0 1280.33 600.17
  L 1289.20 595.31
  A 0.39 0.39 0.0 0 0 1289.34 594.77
  L 1282.46 583.17
  A 0.39 0.39 0.0 0 0 1281.92 583.04
  L 1273.13 588.44
  A 0.39 0.39 0.0 0 0 1273.00 588.97
  L 1279.81 600.03
  Z
  M 1241.29 608.02
  A 0.55 0.55 0.0 0 0 1241.15 608.84
  L 1247.60 616.79
  A 0.55 0.55 0.0 0 0 1248.28 616.93
  L 1270.33 605.80
  A 0.55 0.55 0.0 0 0 1270.55 605.02
  L 1264.14 594.64
  A 0.55 0.55 0.0 0 0 1263.38 594.46
  L 1241.29 608.02
  Z
  M 1310.55 609.57
  A 0.42 0.42 0.0 0 0 1311.09 609.73
  L 1316.10 607.37
  A 0.42 0.42 0.0 0 0 1316.30 606.80
  L 1310.90 596.05
  A 0.42 0.42 0.0 0 0 1310.33 595.87
  L 1304.45 598.99
  A 0.42 0.42 0.0 0 0 1304.29 599.58
  L 1310.55 609.57
  Z
  M 1291.83 618.51
  A 0.59 0.59 0.0 0 0 1292.57 618.72
  L 1301.13 614.60
  A 0.59 0.59 0.0 0 0 1301.37 613.75
  L 1295.39 604.52
  A 0.59 0.59 0.0 0 0 1294.61 604.32
  L 1286.21 608.94
  A 0.59 0.59 0.0 0 0 1286.01 609.78
  L 1291.83 618.51
  Z
  M 1255.14 625.17
  A 0.35 0.35 0.0 0 0 1255.04 625.71
  L 1261.18 632.72
  A 0.35 0.35 0.0 0 0 1261.58 632.81
  L 1282.52 623.69
  A 0.35 0.35 0.0 0 0 1282.67 623.17
  L 1276.85 614.60
  A 0.35 0.35 0.0 0 0 1276.41 614.49
  L 1255.14 625.17
  Z
  M 1298.65 627.48
  A 0.42 0.42 0.0 0 0 1298.49 628.11
  L 1300.11 630.33
  A 0.42 0.42 0.0 0 0 1300.58 630.49
  L 1310.09 627.38
  A 0.42 0.42 0.0 0 0 1310.30 626.73
  L 1307.87 623.40
  A 0.42 0.42 0.0 0 0 1307.34 623.27
  L 1298.65 627.48
  Z
  M 1290.03 633.44
  L 1289.67 632.47
  A 0.26 0.26 0.0 0 0 1289.33 632.32
  L 1289.20 632.37
  A 21.84 0.66 -20.6 0 0 1268.99 640.67
  L 1269.07 640.89
  A 21.84 0.66 -20.6 0 0 1289.75 633.83
  L 1289.88 633.78
  A 0.26 0.26 0.0 0 0 1290.03 633.44
  Z
  M 1277.00 649.04
  A 0.31 0.31 0.0 0 0 1276.88 649.56
  L 1281.45 653.89
  A 0.31 0.31 0.0 0 0 1281.73 653.97
  L 1301.95 649.83
  A 0.31 0.31 0.0 0 0 1302.13 649.33
  L 1297.02 642.92
  A 0.31 0.31 0.0 0 0 1296.69 642.81
  L 1277.00 649.04
  Z
  M 1269.12 656.45
  Q 1269.58 656.36 1269.25 656.02
  L 1266.51 653.19
  A 1.52 1.52 0.0 0 0 1264.96 652.79
  Q 1245.35 658.80 1225.31 664.51
  Q 1225.25 664.53 1225.24 664.58
  Q 1225.22 664.63 1225.24 664.68
  Q 1225.27 664.79 1225.38 664.77
  Q 1247.44 660.65 1269.12 656.45
  Z"
/>
<path fill="#346237" d="
  M 827.74 553.77
  Q 823.49 556.34 824.63 561.16
  Q 825.66 565.53 825.76 568.20
  Q 822.55 565.41 821.09 562.56
  Q 820.60 561.61 819.99 562.49
  L 819.29 563.49
  A 2.06 2.05 -45.3 0 0 819.30 565.88
  L 827.54 577.37
  Q 830.36 595.42 835.17 613.83
  L 824.50 602.93
  Q 824.09 602.51 823.76 603.00
  L 821.27 606.55
  A 0.68 0.68 0.0 0 0 821.39 607.46
  L 837.05 620.78
  L 840.07 634.81
  Q 826.68 625.92 815.33 615.44
  A 0.52 0.52 0.0 0 0 814.56 615.51
  L 809.10 622.84
  A 0.94 0.93 40.6 0 0 809.20 624.08
  Q 825.17 639.43 842.43 653.14
  L 843.53 669.92
  Q 819.07 655.30 798.23 637.66
  A 0.50 0.50 0.0 0 0 797.50 637.74
  L 791.56 645.59
  A 0.72 0.72 0.0 0 0 791.66 646.57
  C 808.06 660.88 825.53 674.81 844.08 686.32
  L 843.92 697.19
  Q 835.36 692.52 827.84 687.41
  Q 805.64 672.32 785.23 654.80
  A 0.58 0.57 -50.8 0 0 784.41 654.89
  L 775.57 666.26
  A 0.54 0.54 0.0 0 0 775.66 667.01
  C 796.16 683.62 818.00 699.65 840.71 711.07
  Q 842.26 711.85 843.69 711.35
  L 843.21 722.38
  Q 840.93 721.57 838.81 720.57
  Q 816.44 710.03 797.46 696.46
  Q 790.40 691.42 782.93 686.19
  C 778.14 682.85 773.59 679.11 769.22 675.43
  Q 768.74 675.02 768.34 675.51
  L 755.54 691.53
  A 0.66 0.65 38.3 0 0 755.65 692.46
  Q 783.57 714.17 813.34 731.68
  Q 827.03 739.73 841.98 745.76
  L 840.70 764.38
  Q 834.37 762.47 812.98 755.28
  Q 771.18 741.26 733.90 718.07
  A 0.51 0.50 -53.0 0 0 733.27 718.16
  L 718.29 734.29
  L 712.67 726.29
  L 724.90 712.73
  A 0.39 0.39 0.0 0 0 724.82 712.13
  L 720.23 709.26
  Q 719.80 708.99 719.49 709.39
  L 709.78 722.01
  L 704.23 713.29
  L 711.74 703.41
  A 0.27 0.26 36.6 0 0 711.68 703.04
  L 706.70 699.32
  Q 706.47 699.15 706.32 699.40
  L 701.30 708.10
  L 695.75 698.07
  L 698.39 693.50
  Q 698.69 692.98 698.23 692.61
  L 693.91 689.09
  Q 693.52 688.78 693.25 689.20
  Q 692.65 690.11 692.37 691.27
  Q 688.06 682.90 686.68 679.53
  Q 683.62 672.10 679.11 658.33
  L 685.26 639.69
  A 1.73 1.72 35.4 0 0 684.99 638.11
  L 673.91 623.72
  L 673.81 605.61
  L 689.44 627.31
  A 0.24 0.24 0.0 0 0 689.86 627.26
  L 698.57 606.21
  Q 698.82 605.61 698.41 605.11
  Q 686.70 591.04 675.48 574.87
  L 677.89 559.58
  Q 689.00 577.34 703.08 594.68
  Q 703.43 595.11 703.65 594.61
  L 709.89 580.14
  A 1.30 1.27 38.9 0 0 709.74 578.87
  L 682.75 542.69
  L 686.94 531.07
  L 714.34 568.07
  Q 714.72 568.57 714.95 567.99
  L 719.58 556.33
  A 1.55 1.54 -53.9 0 0 719.35 554.81
  Q 704.70 536.24 693.09 516.90
  L 690.54 512.77
  Q 676.85 489.73 666.32 465.48
  Q 665.01 462.48 664.77 459.74
  C 664.43 455.96 668.46 453.41 671.62 455.41
  Q 673.64 456.69 675.78 461.59
  Q 695.09 505.73 723.60 543.59
  Q 724.03 544.15 724.29 543.49
  L 724.87 542.00
  Q 725.20 541.16 724.70 540.42
  C 701.85 506.95 682.57 468.40 667.69 429.74
  C 666.76 427.33 667.40 424.53 669.77 423.25
  C 673.48 421.25 676.30 423.89 677.62 427.25
  Q 698.91 481.33 728.77 528.19
  Q 729.86 529.91 730.45 527.96
  Q 731.74 523.75 733.03 519.54
  A 4.44 4.42 37.4 0 0 732.53 515.86
  Q 703.41 470.38 685.95 420.09
  Q 679.57 401.69 673.01 377.72
  C 672.29 375.08 673.49 372.11 676.27 371.35
  C 680.90 370.09 682.82 374.48 683.81 378.16
  Q 687.26 390.98 691.49 404.36
  Q 707.89 456.25 737.67 505.29
  Q 738.08 505.98 738.35 505.22
  L 742.99 491.82
  A 2.36 2.34 38.8 0 0 742.76 489.80
  Q 740.28 485.81 738.28 481.97
  C 737.62 480.70 737.37 479.45 736.61 478.11
  Q 700.19 414.35 685.43 344.51
  C 684.42 339.70 689.34 335.59 693.42 339.08
  Q 694.99 340.42 695.50 342.70
  Q 697.82 353.08 700.26 362.50
  Q 715.77 422.32 747.90 477.28
  A 0.11 0.11 0.0 0 0 748.10 477.25
  L 749.99 471.37
  Q 750.06 471.14 749.95 470.93
  Q 738.56 449.06 731.98 430.63
  Q 721.26 400.58 713.88 366.91
  Q 710.98 353.71 709.22 340.26
  C 708.77 336.84 707.09 329.09 712.00 327.83
  C 716.38 326.71 718.40 330.03 718.82 333.75
  C 722.19 363.63 730.04 392.99 739.49 421.21
  Q 742.33 429.66 746.73 439.01
  Q 750.94 447.94 754.73 456.44
  Q 755.03 457.11 755.28 456.42
  Q 756.90 451.99 758.23 447.51
  Q 758.50 446.60 758.14 445.65
  Q 734.50 383.81 725.20 317.34
  Q 723.98 308.62 723.69 299.36
  C 723.55 294.68 725.50 288.16 731.49 290.18
  Q 735.30 291.46 735.17 295.63
  C 734.82 306.69 736.48 317.82 738.40 329.27
  Q 747.04 380.81 764.07 429.29
  Q 764.27 429.84 764.46 429.29
  Q 774.30 401.30 786.22 373.26
  C 787.72 369.74 792.43 368.55 795.18 371.54
  C 797.34 373.89 796.93 376.61 795.71 379.57
  C 784.84 406.06 778.50 422.95 771.28 444.51
  Q 770.68 446.30 771.34 447.98
  Q 777.72 464.08 787.30 483.61
  A 0.15 0.15 0.0 0 0 787.57 483.61
  Q 795.72 466.19 803.33 449.30
  Q 807.44 440.19 810.36 430.83
  Q 810.78 429.49 811.67 428.36
  C 814.74 424.52 821.14 426.64 821.24 431.49
  Q 821.29 434.08 820.20 437.44
  Q 818.57 442.50 816.63 446.92
  Q 807.07 468.78 794.49 495.46
  A 2.59 2.56 -46.6 0 0 794.54 497.78
  L 799.97 508.02
  Q 800.22 508.48 800.45 508.02
  Q 807.48 494.03 813.62 479.77
  C 816.92 472.10 827.20 476.37 823.56 485.03
  Q 817.55 499.29 807.41 519.39
  Q 806.94 520.33 807.49 521.25
  Q 813.81 531.79 819.74 541.40
  A 0.24 0.24 0.0 0 0 820.14 541.41
  Q 826.73 532.30 830.49 522.45
  C 832.90 516.10 841.74 517.90 841.23 524.45
  Q 841.01 527.34 839.36 530.85
  Q 835.28 539.54 827.53 550.78
  Q 826.29 552.57 827.74 553.77
  Z
  M 765.12 462.83
  L 762.69 470.83
  Q 762.60 471.12 762.74 471.39
  L 778.50 500.81
  Q 779.11 501.94 779.67 500.78
  L 780.84 498.36
  Q 781.46 497.08 780.80 495.82
  Q 773.27 481.42 765.28 462.82
  A 0.09 0.09 0.0 0 0 765.12 462.83
  Z
  M 756.36 491.52
  Q 762.58 500.53 768.11 509.38
  Q 769.24 511.19 770.88 512.15
  Q 771.59 512.57 771.20 511.85
  L 757.56 486.42
  Q 757.29 485.92 757.11 486.46
  L 756.08 489.51
  A 2.29 2.26 -53.2 0 0 756.36 491.52
  Z
  M 751.10 503.98
  A 0.14 0.14 0.0 0 0 750.84 504.00
  L 746.12 517.13
  A 2.00 1.98 37.1 0 0 746.38 518.96
  L 760.91 539.29
  Q 761.35 539.90 761.68 539.22
  L 766.14 529.90
  A 1.57 1.54 40.7 0 0 766.01 528.34
  Q 758.05 516.92 751.10 503.98
  Z
  M 788.37 509.96
  A 0.31 0.31 0.0 0 0 787.81 510.00
  L 786.23 513.91
  A 0.31 0.31 0.0 0 0 786.25 514.18
  L 792.02 523.83
  A 0.31 0.31 0.0 0 0 792.57 523.81
  L 794.14 520.50
  A 0.31 0.31 0.0 0 0 794.13 520.21
  L 788.37 509.96
  Z
  M 741.58 530.63
  A 0.34 0.34 0.0 0 0 740.99 530.72
  L 737.29 540.54
  A 0.34 0.34 0.0 0 0 737.33 540.87
  L 751.16 558.98
  A 0.34 0.34 0.0 0 0 751.74 558.93
  L 756.04 550.58
  A 0.34 0.34 0.0 0 0 756.01 550.22
  L 741.58 530.63
  Z
  M 801.44 532.41
  A 0.50 0.50 0.0 0 0 800.55 532.50
  L 799.53 535.12
  A 0.50 0.50 0.0 0 0 799.58 535.57
  L 811.40 554.00
  A 0.50 0.50 0.0 0 0 812.26 553.96
  L 813.42 551.65
  A 0.50 0.50 0.0 0 0 813.40 551.16
  L 801.44 532.41
  Z
  M 779.27 547.74
  A 0.30 0.30 0.0 0 0 779.25 547.43
  L 774.23 540.31
  A 0.30 0.30 0.0 0 0 773.72 540.35
  L 769.20 549.61
  A 0.30 0.30 0.0 0 0 769.24 549.93
  L 774.33 556.45
  A 0.30 0.30 0.0 0 0 774.83 556.40
  L 779.27 547.74
  Z
  M 736.6502 559.1860
  A 3.55 0.26 51.7 0 0 734.6540 556.2389
  A 3.55 0.26 51.7 0 0 732.2498 553.6140
  A 3.55 0.26 51.7 0 0 734.2460 556.5611
  A 3.55 0.26 51.7 0 0 736.6502 559.1860
  Z
  M 787.22 558.28
  A 0.35 0.35 0.0 0 0 786.63 558.32
  L 782.49 566.00
  A 0.35 0.35 0.0 0 0 782.53 566.39
  L 794.80 580.36
  A 0.35 0.35 0.0 0 0 795.36 580.31
  L 799.00 574.32
  A 0.35 0.35 0.0 0 0 798.98 573.93
  L 787.22 558.28
  Z
  M 769.21 566.95
  A 0.31 0.31 0.0 0 0 769.18 566.61
  L 764.10 560.24
  A 0.31 0.31 0.0 0 0 763.58 560.29
  L 759.45 568.21
  A 0.31 0.31 0.0 0 0 759.49 568.56
  L 764.85 574.55
  A 0.31 0.31 0.0 0 0 765.36 574.49
  L 769.21 566.95
  Z
  M 740.6829 564.0919
  A 1.54 0.18 51.3 0 0 739.8605 562.7775
  A 1.54 0.18 51.3 0 0 738.7571 561.6881
  A 1.54 0.18 51.3 0 0 739.5795 563.0025
  A 1.54 0.18 51.3 0 0 740.6829 564.0919
  Z
  M 726.68 564.45
  L 721.81 576.60
  A 1.33 1.33 0.0 0 0 722.05 577.97
  L 733.98 591.56
  Q 734.42 592.06 734.72 591.47
  L 740.08 581.21
  Q 740.46 580.47 739.92 579.83
  L 727.91 565.66
  A 0.28 0.27 -77.0 0 1 727.84 565.54
  L 727.37 564.45
  Q 727.01 563.61 726.68 564.45
  Z
  M 776.55 576.97
  L 773.60 582.59
  A 1.50 1.49 -57.1 0 0 774.00 584.47
  Q 777.45 587.18 778.27 590.47
  C 779.05 593.66 781.64 595.94 783.80 598.24
  A 0.23 0.22 -50.2 0 0 784.15 598.20
  L 789.24 590.08
  Q 789.32 589.95 789.22 589.83
  L 777.69 576.83
  Q 777.02 576.08 776.55 576.97
  Z
  M 807.06 584.34
  A 0.36 0.36 0.0 0 0 806.47 584.37
  L 803.45 589.35
  A 0.36 0.36 0.0 0 0 803.50 589.79
  L 812.34 598.90
  A 0.36 0.36 0.0 0 0 812.89 598.86
  L 815.43 595.32
  A 0.36 0.36 0.0 0 0 815.42 594.89
  L 807.06 584.34
  Z
  M 717.42 588.01
  A 0.32 0.32 0.0 0 0 716.88 588.09
  L 710.39 603.25
  A 0.32 0.32 0.0 0 0 710.45 603.59
  L 721.10 615.40
  A 0.32 0.32 0.0 0 0 721.62 615.34
  L 728.82 602.35
  A 0.32 0.32 0.0 0 0 728.78 601.99
  L 717.42 588.01
  Z
  M 754.09 595.84
  A 0.31 0.31 0.0 0 0 754.05 595.49
  L 748.66 589.52
  A 0.31 0.31 0.0 0 0 748.16 589.59
  L 742.71 600.24
  A 0.31 0.31 0.0 0 0 742.76 600.60
  L 747.99 606.05
  A 0.31 0.31 0.0 0 0 748.48 605.98
  L 754.09 595.84
  Z
  M 797.82 598.74
  A 0.33 0.33 0.0 0 0 797.32 598.79
  L 792.12 606.58
  A 0.33 0.33 0.0 0 0 792.16 606.99
  L 800.47 615.49
  A 0.33 0.33 0.0 0 0 800.97 615.45
  L 806.53 607.80
  A 0.33 0.33 0.0 0 0 806.50 607.37
  L 797.82 598.74
  Z
  M 762.41 604.26
  A 0.35 0.35 0.0 0 0 761.85 604.34
  L 756.50 613.91
  A 0.35 0.35 0.0 0 0 756.57 614.34
  L 767.00 624.11
  A 0.35 0.35 0.0 0 0 767.54 624.03
  L 772.70 615.07
  A 0.35 0.35 0.0 0 0 772.64 614.65
  L 762.41 604.26
  Z
  M 729.31 623.48
  A 0.38 0.38 0.0 0 0 729.37 623.93
  L 734.75 629.40
  A 0.38 0.38 0.0 0 0 735.35 629.32
  L 742.84 616.18
  A 0.38 0.38 0.0 0 0 742.78 615.73
  L 737.18 610.07
  A 0.38 0.38 0.0 0 0 736.58 610.16
  L 729.31 623.48
  Z
  M 696.54 635.79
  A 0.33 0.33 0.0 0 0 696.60 636.13
  L 704.43 644.98
  A 0.33 0.33 0.0 0 0 704.96 644.93
  L 716.30 625.50
  A 0.33 0.33 0.0 0 0 716.26 625.11
  L 706.10 614.02
  A 0.33 0.33 0.0 0 0 705.55 614.12
  L 696.54 635.79
  Z
  M 781.28 622.79
  A 0.47 0.47 0.0 0 0 780.57 622.88
  L 774.96 631.35
  A 0.47 0.47 0.0 0 0 775.04 631.96
  L 782.87 639.01
  A 0.47 0.47 0.0 0 0 783.56 638.94
  L 789.62 630.87
  A 0.47 0.47 0.0 0 0 789.56 630.24
  L 781.28 622.79
  Z
  M 742.88 637.11
  A 0.40 0.40 0.0 0 0 742.95 637.60
  L 751.81 646.14
  A 0.40 0.40 0.0 0 0 752.42 646.08
  L 760.89 633.58
  A 0.40 0.40 0.0 0 0 760.83 633.07
  L 751.04 623.80
  A 0.40 0.40 0.0 0 0 750.42 623.89
  L 742.88 637.11
  Z
  M 712.76 653.23
  A 0.34 0.34 0.0 0 0 712.82 653.63
  L 717.91 658.82
  A 0.34 0.34 0.0 0 0 718.44 658.75
  L 729.03 640.26
  A 0.34 0.34 0.0 0 0 728.98 639.85
  L 723.67 634.53
  A 0.34 0.34 0.0 0 0 723.13 634.60
  L 712.76 653.23
  Z
  M 760.17 653.14
  A 0.50 0.50 0.0 0 0 760.25 653.79
  L 766.86 659.67
  A 0.50 0.50 0.0 0 0 767.59 659.61
  L 776.63 647.94
  A 0.50 0.50 0.0 0 0 776.57 647.26
  L 769.26 640.81
  A 0.50 0.50 0.0 0 0 768.52 640.91
  L 760.17 653.14
  Z
  M 686.08 665.86
  A 0.31 0.31 0.0 0 0 686.15 666.17
  L 689.79 669.83
  A 0.31 0.31 0.0 0 0 690.27 669.76
  L 699.19 654.62
  A 0.31 0.31 0.0 0 0 699.16 654.25
  L 692.72 647.20
  A 0.31 0.31 0.0 0 0 692.19 647.31
  L 686.08 665.86
  Z
  M 726.06 666.03
  A 0.45 0.45 0.0 0 0 726.15 666.59
  L 733.06 672.98
  A 0.45 0.45 0.0 0 0 733.74 672.91
  L 745.67 655.78
  A 0.45 0.45 0.0 0 0 745.60 655.19
  L 737.42 647.68
  A 0.45 0.45 0.0 0 0 736.73 647.78
  L 726.06 666.03
  Z
  M 741.42 679.76
  A 0.52 0.52 0.0 0 0 741.50 680.45
  L 746.78 685.09
  A 0.52 0.52 0.0 0 0 747.53 685.02
  L 760.44 668.71
  A 0.52 0.52 0.0 0 0 760.37 667.99
  L 754.19 662.74
  A 0.52 0.52 0.0 0 0 753.43 662.83
  L 741.42 679.76
  Z
  M 699.12 678.03
  A 0.41 0.41 0.0 0 0 699.21 678.53
  L 704.00 682.95
  A 0.41 0.41 0.0 0 0 704.64 682.85
  L 712.06 669.93
  A 0.41 0.41 0.0 0 0 711.99 669.43
  L 706.98 664.70
  A 0.41 0.41 0.0 0 0 706.34 664.80
  L 699.12 678.03
  Z
  M 726.59 682.99
  A 0.52 0.52 0.0 0 0 726.51 682.30
  L 720.33 676.89
  A 0.52 0.52 0.0 0 0 719.54 677.02
  L 712.27 689.41
  A 0.52 0.52 0.0 0 0 712.39 690.08
  L 717.73 694.38
  A 0.52 0.52 0.0 0 0 718.48 694.27
  L 726.59 682.99
  Z
  M 726.50 700.08
  A 0.53 0.53 0.0 0 0 726.63 700.84
  L 731.54 704.12
  A 0.53 0.53 0.0 0 0 732.24 704.02
  L 740.16 694.27
  A 0.53 0.53 0.0 0 0 740.09 693.53
  L 735.03 689.44
  A 0.53 0.53 0.0 0 0 734.27 689.54
  L 726.50 700.08
  Z
  M 824.18 748.55
  Q 784.23 728.42 748.78 700.50
  A 0.49 0.48 38.7 0 0 748.10 700.57
  L 740.70 709.43
  A 0.49 0.48 -54.6 0 0 740.82 710.16
  Q 780.68 734.08 824.84 749.01
  Q 825.10 749.10 824.96 748.87
  Q 824.87 748.72 824.70 748.70
  Q 824.43 748.67 824.18 748.55
  Z"
/>
<path fill="#346237" d="
  M 608.25 601.69
  Q 615.39 617.57 621.50 633.83
  Q 622.14 635.54 622.66 637.29
  Q 623.30 639.43 623.80 640.74
  Q 629.26 655.07 634.83 669.60
  Q 555.43 650.03 481.61 616.09
  Q 438.39 596.22 396.46 571.90
  Q 321.74 528.55 254.93 475.70
  Q 240.91 464.60 227.36 452.55
  C 223.75 449.34 218.59 444.37 223.70 440.25
  C 226.43 438.05 229.32 439.59 231.49 441.82
  Q 234.88 445.31 238.73 448.61
  Q 268.19 473.92 305.16 500.36
  Q 383.44 556.35 462.63 595.46
  Q 526.03 626.76 595.03 648.11
  Q 595.72 648.33 595.05 648.04
  Q 569.99 637.32 545.35 624.25
  Q 478.65 588.88 417.90 540.44
  C 382.77 512.43 349.56 482.36 318.03 451.69
  Q 289.19 423.63 260.30 395.54
  Q 258.40 393.70 257.81 392.10
  Q 256.80 389.42 258.95 387.14
  C 261.60 384.33 265.23 385.67 267.64 388.01
  C 297.77 417.34 327.78 447.09 358.37 475.35
  Q 379.71 495.07 403.20 514.96
  Q 502.33 598.91 621.17 648.53
  Q 621.30 648.59 621.37 648.45
  L 621.38 648.45
  Q 621.43 648.33 621.32 648.27
  Q 555.00 609.99 494.13 563.61
  Q 396.10 488.90 319.34 393.15
  Q 312.91 385.13 305.65 374.50
  C 303.80 371.79 302.44 367.97 305.01 365.32
  C 307.36 362.92 310.95 363.53 312.77 366.24
  C 324.29 383.36 337.34 399.07 350.63 414.45
  Q 418.16 492.56 500.39 555.17
  Q 523.79 572.98 554.00 593.77
  C 571.10 605.54 589.34 615.03 607.19 625.06
  Q 607.31 625.13 607.39 625.01
  L 607.39 625.00
  Q 607.46 624.89 607.35 624.81
  Q 570.87 599.69 538.48 569.51
  C 523.52 555.56 508.58 541.61 493.89 527.36
  C 440.84 475.92 392.26 421.11 349.26 361.16
  Q 342.11 351.19 336.01 341.62
  C 332.08 335.46 340.39 329.77 344.27 335.47
  Q 372.39 376.86 401.65 412.21
  Q 445.56 465.24 492.79 511.59
  Q 492.92 511.72 493.05 511.60
  L 493.05 511.59
  Q 493.19 511.46 493.07 511.32
  Q 473.45 489.03 455.44 465.94
  Q 402.82 398.45 358.45 325.19
  Q 351.89 314.35 346.31 303.97
  C 344.54 300.68 343.91 296.62 347.78 294.74
  C 350.51 293.42 353.38 294.78 354.72 297.28
  Q 364.04 314.74 375.88 333.68
  C 414.04 394.69 456.64 454.15 504.25 508.19
  Q 509.64 514.30 515.60 520.29
  C 520.85 525.56 526.00 531.22 531.35 536.29
  Q 558.22 561.75 586.69 585.08
  Q 597.22 593.71 608.25 601.69
  Z"
/>
<path fill="#346237" d="
  M 1372.16 567.51
  Q 1368.29 561.23 1361.48 565.31
  Q 1360.14 566.11 1359.08 567.32
  Q 1355.26 571.64 1352.09 576.26
  L 1338.10 582.42
  L 1336.61 571.44
  C 1373.11 555.64 1407.90 541.71 1445.82 523.64
  Q 1548.07 474.92 1644.00 419.89
  Q 1656.23 412.87 1667.89 404.88
  Q 1677.17 398.51 1682.74 392.19
  C 1686.45 387.98 1692.39 392.08 1691.02 397.09
  Q 1690.29 399.77 1687.95 402.14
  C 1684.97 405.17 1681.45 408.21 1678.04 410.62
  Q 1664.12 420.48 1640.84 433.81
  Q 1560.60 479.77 1463.84 526.58
  Q 1414.23 550.58 1372.16 567.51
  Z"
/>
<path fill="#346237" d="
  M 1356.37 600.59
  L 1364.76 585.51
  Q 1410.63 565.89 1496.48 531.47
  Q 1527.21 519.14 1570.25 497.62
  Q 1619.76 472.86 1664.52 446.58
  Q 1684.20 435.03 1699.41 422.84
  C 1705.46 417.99 1711.66 425.55 1706.23 430.61
  Q 1701.95 434.58 1696.45 438.45
  Q 1687.10 445.03 1675.07 452.47
  Q 1646.37 470.23 1588.66 500.06
  Q 1539.43 525.51 1500.97 540.95
  C 1452.64 560.34 1410.61 577.28 1356.37 600.59
  Z"
/>
<path fill="#346237" d="
  M 643.00 689.67
  L 647.42 700.54
  Q 644.10 700.36 643.25 700.19
  C 601.59 691.63 561.31 678.59 521.91 663.06
  Q 461.10 639.08 397.22 608.99
  C 341.49 582.74 289.47 555.24 239.98 521.54
  Q 232.17 516.22 225.45 510.80
  Q 223.81 509.48 222.53 507.70
  C 218.90 502.63 225.20 496.93 230.21 501.03
  C 232.74 503.11 235.21 505.28 237.85 507.15
  C 274.60 533.15 315.10 556.43 355.44 576.94
  Q 358.67 578.58 355.59 576.68
  Q 288.80 535.38 231.08 482.67
  Q 222.50 474.82 215.35 467.17
  C 210.03 461.47 216.97 453.97 222.63 459.73
  Q 233.35 470.63 244.89 480.96
  Q 294.98 525.81 354.63 563.73
  Q 428.54 610.72 506.85 643.11
  Q 546.33 659.43 591.50 674.56
  Q 618.36 683.56 643.00 689.67
  Z"
/>
<path fill="#346237" d="
  M 1364.09 626.25
  Q 1371.03 617.22 1379.01 610.67
  Q 1379.13 610.58 1379.18 610.44
  Q 1379.23 610.32 1379.29 610.21
  Q 1379.36 610.06 1379.48 609.95
  C 1383.38 606.63 1387.85 602.52 1389.72 598.00
  Q 1413.41 590.85 1419.46 588.68
  Q 1443.21 580.19 1466.09 569.59
  C 1473.14 566.32 1480.92 563.34 1487.00 560.78
  Q 1576.02 523.34 1660.81 477.21
  C 1662.23 476.44 1663.80 475.32 1665.01 474.21
  C 1670.25 469.43 1676.09 478.04 1669.98 482.53
  Q 1666.99 484.73 1662.94 487.01
  C 1600.62 522.13 1536.16 552.33 1469.60 579.38
  Q 1469.46 579.44 1469.51 579.58
  L 1469.52 579.59
  Q 1469.57 579.74 1469.73 579.68
  Q 1531.69 557.61 1605.49 531.66
  Q 1629.04 523.38 1653.02 513.06
  C 1658.90 510.53 1663.22 517.80 1657.84 521.57
  Q 1653.89 524.34 1648.04 526.72
  Q 1627.55 535.06 1604.09 543.32
  Q 1509.73 576.58 1415.49 610.21
  Q 1393.66 618.01 1364.09 626.25
  Z"
/>
<path fill="#346237" d="
  M 678.25 518.56
  L 673.58 529.73
  Q 666.59 519.90 660.62 509.62
  Q 659.31 507.36 659.54 504.78
  C 659.82 501.60 663.42 499.61 666.13 501.21
  Q 668.54 502.64 670.24 505.56
  Q 674.04 512.09 678.25 518.56
  Z"
/>
<path fill="#704f39" d="
  M 1161.35 500.78
  Q 1165.61 502.58 1168.45 507.56
  C 1175.35 519.66 1181.63 532.30 1185.68 545.11
  Q 1186.49 547.69 1187.40 550.22
  Q 1187.61 550.78 1187.77 550.21
  L 1191.96 535.25
  L 1200.52 510.74
  Q 1202.26 507.84 1205.07 506.14
  Q 1212.37 505.29 1213.19 513.29
  Q 1213.60 517.36 1211.05 526.52
  Q 1207.54 539.10 1204.42 551.79
  Q 1204.03 553.40 1203.62 554.63
  L 1200.64 569.70
  L 1200.03 572.73
  Q 1199.88 573.47 1200.32 572.86
  Q 1201.16 571.71 1201.04 570.32
  Q 1202.11 569.68 1202.69 568.50
  Q 1204.78 564.31 1206.89 560.05
  Q 1215.73 543.46 1228.68 529.59
  Q 1232.64 525.23 1237.55 523.61
  Q 1246.57 525.51 1243.09 534.61
  L 1236.56 545.16
  L 1216.85 575.97
  Q 1211.69 586.82 1207.40 600.17
  Q 1205.58 605.82 1204.90 610.62
  L 1203.89 615.66
  L 1202.40 628.21
  L 1201.41 638.65
  L 1199.96 650.33
  L 1198.83 657.64
  L 1194.82 682.74
  L 1192.94 692.24
  L 1190.49 702.97
  L 1188.83 708.87
  L 1185.48 719.23
  L 1184.17 722.49
  L 1180.46 732.52
  L 1180.18 732.62
  Q 1179.84 732.74 1179.69 733.07
  L 1176.88 739.12
  L 1171.84 748.97
  L 1169.25 753.26
  Q 1168.91 753.82 1169.45 753.44
  L 1175.78 748.93
  L 1189.28 739.31
  Q 1189.40 739.23 1189.39 739.07
  Q 1189.37 738.95 1189.29 738.81
  L 1200.20 732.05
  L 1215.44 721.85
  L 1224.51 716.48
  L 1245.35 704.34
  L 1257.21 697.12
  L 1275.92 684.48
  L 1289.74 674.79
  L 1297.34 668.48
  L 1306.15 659.69
  Q 1309.92 655.14 1313.38 649.86
  Q 1314.30 648.46 1313.99 647.84
  Q 1317.59 643.53 1319.26 638.57
  Q 1321.93 631.41 1322.24 623.44
  Q 1323.05 621.30 1322.86 618.24
  Q 1324.24 609.06 1323.88 599.99
  L 1323.51 589.27
  L 1322.64 578.13
  L 1320.66 559.97
  Q 1320.13 554.52 1320.51 552.98
  Q 1321.45 549.21 1324.78 548.18
  Q 1330.54 546.39 1332.88 552.73
  L 1336.61 571.44
  L 1338.10 582.42
  L 1338.66 594.80
  Q 1338.68 595.32 1338.98 594.89
  L 1352.09 576.26
  Q 1355.26 571.64 1359.08 567.32
  Q 1360.14 566.11 1361.48 565.31
  Q 1368.29 561.23 1372.16 567.51
  Q 1372.42 571.25 1371.60 572.82
  Q 1368.26 579.18 1364.76 585.51
  L 1356.37 600.59
  L 1343.92 622.34
  Q 1343.17 623.65 1344.30 622.66
  C 1356.03 612.37 1367.18 601.16 1378.85 591.85
  C 1383.81 587.89 1390.69 591.40 1389.72 598.00
  C 1387.85 602.52 1383.38 606.63 1379.48 609.95
  Q 1379.36 610.06 1379.29 610.21
  Q 1379.23 610.32 1379.18 610.44
  Q 1379.13 610.58 1379.01 610.67
  Q 1371.03 617.22 1364.09 626.25
  L 1354.31 636.51
  L 1340.71 653.13
  L 1326.35 677.12
  Q 1317.05 691.70 1305.20 706.18
  L 1303.63 707.98
  L 1290.11 723.09
  L 1280.10 732.70
  L 1266.11 745.27
  L 1261.11 749.57
  L 1238.60 766.33
  L 1215.82 780.70
  L 1203.01 788.64
  L 1185.87 799.38
  L 1175.41 806.16
  Q 1151.72 822.12 1141.00 830.54
  Q 1124.80 843.24 1110.57 857.35
  Q 1104.04 863.82 1097.91 871.12
  Q 1081.21 891.04 1065.85 910.94
  Q 1037.68 947.41 1017.22 989.65
  Q 1004.53 1015.84 1004.96 1042.99
  Q 1005.25 1061.51 1005.34 1080.00
  L 989.77 1080.00
  Q 988.79 1057.33 988.81 1048.25
  Q 988.84 1034.80 990.30 1023.42
  C 992.79 1003.90 1000.98 984.81 1010.66 967.12
  Q 1025.21 940.52 1042.46 915.49
  Q 1048.21 907.14 1054.24 899.38
  Q 1066.50 883.58 1079.65 867.40
  Q 1095.72 847.63 1114.23 832.34
  Q 1126.78 821.97 1140.01 811.73
  C 1163.13 793.84 1191.46 776.85 1217.87 760.68
  C 1248.54 741.90 1275.55 717.62 1298.48 689.10
  Q 1300.11 687.06 1298.00 688.60
  Q 1281.16 700.87 1263.21 712.20
  C 1252.13 719.21 1240.21 725.47 1229.00 732.50
  Q 1203.24 748.64 1178.10 766.15
  C 1172.00 770.40 1166.02 775.75 1160.00 780.05
  Q 1152.03 785.74 1144.29 791.60
  Q 1141.06 794.05 1137.37 793.72
  C 1132.04 793.25 1129.10 788.10 1130.56 783.05
  Q 1131.13 781.06 1134.13 776.93
  C 1149.47 755.79 1163.64 734.37 1171.79 709.30
  Q 1178.04 690.07 1180.61 669.91
  Q 1180.61 669.85 1180.67 669.85
  Q 1180.72 669.85 1180.73 669.91
  Q 1180.73 669.95 1180.72 669.98
  C 1173.55 690.66 1162.88 712.50 1153.13 731.17
  Q 1147.74 741.49 1141.68 749.90
  Q 1132.35 762.87 1121.36 776.30
  Q 1116.51 782.24 1100.90 803.38
  C 1092.94 814.16 1083.95 825.13 1074.89 835.39
  Q 1056.58 856.12 1035.96 877.66
  Q 1025.52 888.57 1016.38 895.48
  Q 1006.13 903.21 993.03 911.95
  Q 970.34 927.10 943.17 927.45
  C 929.59 927.62 917.42 924.13 905.85 917.76
  C 887.20 907.49 868.54 894.71 850.74 881.71
  C 836.85 871.56 822.37 861.89 808.90 852.24
  Q 785.19 835.25 764.35 814.15
  Q 740.25 789.75 722.50 766.75
  Q 711.32 752.25 699.89 735.86
  Q 686.00 715.93 675.35 692.86
  Q 663.75 667.74 660.90 640.09
  Q 660.67 637.81 660.36 640.08
  Q 658.09 656.60 657.92 673.86
  Q 657.89 677.32 658.32 681.09
  Q 658.88 685.87 660.52 689.71
  Q 673.36 719.72 688.49 744.94
  C 706.50 774.99 730.61 803.22 755.15 828.97
  Q 777.57 852.49 800.73 876.37
  Q 832.78 909.41 859.10 944.88
  Q 865.99 954.15 872.42 964.48
  Q 892.84 997.24 893.51 1035.34
  Q 893.76 1049.53 893.19 1059.00
  Q 892.91 1063.70 891.17 1080.00
  L 876.47 1080.00
  C 878.49 1059.73 879.48 1040.67 876.49 1020.72
  Q 872.20 992.17 855.45 967.54
  C 834.94 937.37 811.14 910.03 785.76 883.86
  C 761.22 858.56 737.12 834.03 714.08 807.18
  Q 697.43 787.78 683.51 767.06
  L 669.13 743.56
  Q 668.96 742.77 668.40 742.13
  L 659.37 725.19
  Q 658.98 723.90 658.41 723.48
  L 653.78 713.84
  L 647.78 700.86
  Q 647.73 700.75 647.63 700.69
  Q 647.52 700.61 647.42 700.54
  L 643.00 689.67
  L 634.83 669.60
  Q 629.26 655.07 623.80 640.74
  Q 623.30 639.43 622.66 637.29
  Q 622.14 635.54 621.50 633.83
  Q 615.39 617.57 608.25 601.69
  L 605.24 596.04
  Q 604.77 594.22 602.71 590.04
  Q 591.82 567.89 579.90 548.08
  C 577.84 544.66 576.80 539.12 580.98 536.70
  Q 581.82 536.22 583.90 536.00
  Q 585.15 535.87 586.92 535.53
  Q 600.89 551.82 609.70 568.33
  Q 621.55 590.53 629.47 610.78
  Q 629.74 611.46 629.91 612.16
  Q 630.26 613.61 630.39 612.13
  Q 632.46 588.62 638.64 564.99
  Q 640.49 557.90 643.04 552.75
  C 645.18 548.43 651.04 548.04 653.68 551.96
  Q 655.57 554.75 655.03 558.51
  Q 654.03 565.41 653.02 572.24
  L 651.27 586.63
  Q 649.19 603.43 649.42 617.99
  Q 649.58 628.01 650.72 618.06
  Q 651.84 608.35 655.07 594.05
  L 658.10 577.47
  Q 658.60 577.20 658.65 577.02
  Q 661.39 566.77 664.06 556.89
  L 668.33 544.38
  L 673.58 529.73
  L 678.25 518.56
  Q 682.19 509.44 690.54 512.77
  L 693.09 516.90
  Q 691.29 523.66 686.94 531.07
  L 682.75 542.69
  L 677.89 559.58
  L 675.48 574.87
  Q 672.95 590.50 673.81 605.61
  L 673.91 623.72
  Q 674.66 637.11 675.18 641.25
  Q 676.03 648.07 679.11 658.33
  Q 683.62 672.10 686.68 679.53
  Q 688.06 682.90 692.37 691.27
  L 695.75 698.07
  L 701.30 708.10
  L 704.23 713.29
  L 709.78 722.01
  L 712.67 726.29
  L 718.29 734.29
  Q 731.27 752.27 738.34 761.17
  Q 754.93 782.07 777.16 804.34
  Q 797.89 825.09 822.46 842.29
  Q 828.05 846.20 833.93 850.40
  A 0.26 0.26 0.0 0 0 834.34 850.22
  Q 837.01 822.31 838.70 794.60
  Q 839.03 789.10 839.76 779.49
  Q 840.33 771.87 840.70 764.38
  L 841.98 745.76
  L 843.21 722.38
  L 843.69 711.35
  L 843.92 697.19
  L 844.08 686.32
  L 843.53 669.92
  L 842.43 653.14
  L 840.07 634.81
  L 837.05 620.78
  L 835.17 613.83
  Q 830.36 595.42 827.54 577.37
  L 825.76 568.20
  Q 825.66 565.53 824.63 561.16
  Q 823.49 556.34 827.74 553.77
  Q 833.83 552.81 836.52 558.78
  Q 838.84 563.94 841.20 568.96
  C 842.40 571.51 842.76 574.04 843.54 576.58
  Q 847.67 590.08 852.77 605.68
  Q 853.09 606.68 853.14 605.63
  C 853.20 604.04 852.98 602.32 853.03 600.79
  Q 854.18 570.52 856.20 544.00
  Q 856.85 535.36 858.24 527.28
  Q 858.41 526.31 859.30 523.77
  C 860.45 520.47 864.47 519.19 867.41 520.95
  Q 870.37 522.73 871.02 526.28
  Q 873.33 538.80 873.69 554.29
  Q 874.30 580.17 873.81 605.82
  A 0.04 0.04 0.0 0 0 873.89 605.83
  L 895.81 535.94
  L 901.36 523.96
  C 903.83 520.47 907.51 517.05 912.03 519.94
  C 916.62 522.89 916.65 529.21 915.65 534.00
  Q 914.56 539.23 913.18 544.18
  L 909.13 558.39
  L 895.72 600.24
  C 894.48 602.69 893.71 605.98 893.01 607.93
  Q 888.21 621.31 883.49 634.74
  Q 881.36 640.80 878.50 660.63
  L 876.68 678.48
  L 876.22 692.59
  L 876.17 704.91
  L 876.48 715.75
  Q 876.52 724.60 877.39 733.74
  Q 877.40 733.87 877.75 733.91
  Q 877.66 733.83 877.49 733.90
  Q 877.24 734.00 877.26 734.27
  L 878.36 751.09
  Q 878.39 751.27 878.42 751.44
  L 879.09 761.04
  Q 881.56 807.20 887.48 842.25
  Q 891.93 868.62 901.36 893.64
  Q 902.80 897.48 905.02 898.90
  C 917.59 906.89 931.83 912.93 947.38 911.24
  Q 950.21 910.94 953.32 910.52
  Q 966.11 908.83 976.51 903.18
  Q 983.09 899.59 993.65 892.22
  Q 1007.05 882.87 1011.68 878.78
  Q 1020.04 871.38 1028.94 861.96
  Q 1050.04 839.59 1067.15 819.95
  C 1082.38 802.46 1094.43 785.02 1107.92 767.52
  L 1114.25 759.51
  L 1120.54 751.48
  L 1126.63 743.18
  L 1129.45 739.49
  L 1134.72 731.28
  L 1139.20 723.40
  L 1143.55 714.74
  L 1151.14 699.09
  L 1155.19 690.37
  L 1159.68 680.39
  L 1163.28 671.39
  L 1168.68 654.80
  L 1171.14 645.26
  L 1174.10 629.33
  L 1176.77 610.22
  Q 1177.08 608.55 1176.77 607.30
  Q 1178.35 600.77 1176.60 593.96
  Q 1176.81 594.15 1176.71 593.53
  Q 1176.64 583.43 1174.77 573.85
  Q 1171.51 556.57 1165.20 540.50
  L 1161.05 530.62
  C 1157.84 524.05 1154.59 517.41 1153.35 510.24
  C 1152.44 504.97 1155.54 500.14 1161.35 500.78
  Z
  M 882.09 883.38
  C 873.16 856.30 868.59 828.43 865.99 799.78
  Q 861.82 753.85 860.17 707.98
  Q 860.16 707.81 860.00 707.81
  L 859.99 707.81
  Q 859.85 707.81 859.84 707.96
  Q 857.56 766.52 851.95 823.77
  Q 850.31 840.51 848.03 858.44
  Q 847.84 859.92 849.05 860.78
  L 881.32 883.95
  Q 882.57 884.85 882.09 883.38
  Z"
/>
<path fill="#346237" d="
  M 1340.71 653.13
  L 1354.31 636.51
  Q 1382.19 629.97 1410.25 623.75
  Q 1419.50 621.70 1440.87 615.03
  Q 1444.29 613.96 1454.19 611.36
  Q 1460.82 609.61 1467.35 607.60
  Q 1565.18 577.52 1658.07 532.72
  Q 1679.62 522.32 1697.21 512.54
  C 1700.31 510.81 1703.15 507.09 1706.84 510.53
  C 1709.09 512.63 1708.13 516.09 1706.06 518.00
  Q 1704.72 519.22 1703.19 520.10
  Q 1683.52 531.38 1662.98 541.57
  C 1600.35 572.65 1533.83 598.24 1467.20 618.64
  Q 1465.62 619.13 1464.05 619.65
  Q 1461.89 620.37 1457.56 621.61
  Q 1392.79 640.22 1340.71 653.13
  Z"
/>
<path fill="#346237" d="
  M 901.36 523.96
  L 895.81 535.94
  Q 893.28 531.50 893.26 530.00
  Q 893.18 521.84 901.36 523.96
  Z"
/>
<path fill="#346237" d="
  M 668.33 544.38
  L 664.06 556.89
  Q 659.21 549.32 655.00 541.91
  Q 652.80 538.03 651.04 533.19
  C 649.52 529.02 653.96 525.30 657.84 527.73
  Q 659.61 528.84 661.34 531.93
  Q 664.75 538.05 668.33 544.38
  Z"
/>
<path fill="#346237" d="
  M 653.78 713.84
  L 658.41 723.48
  Q 656.03 724.48 654.49 724.29
  Q 649.53 723.68 644.26 723.08
  Q 555.01 712.90 467.75 691.50
  Q 424.58 680.91 385.74 668.54
  Q 303.35 642.30 233.07 611.58
  Q 231.70 610.98 230.26 610.21
  C 224.09 606.86 227.81 597.96 234.53 600.88
  Q 315.56 636.08 401.70 662.48
  Q 450.36 677.39 500.01 688.27
  Q 500.10 688.29 500.20 688.27
  Q 500.46 688.22 500.21 688.15
  Q 456.58 675.27 413.28 658.74
  Q 326.13 625.45 250.38 575.43
  Q 236.22 566.08 222.77 555.59
  C 218.61 552.35 211.66 547.03 216.61 542.20
  C 219.14 539.72 222.18 540.97 224.45 543.04
  Q 230.04 548.13 236.01 552.53
  Q 248.25 561.56 260.51 569.54
  Q 334.26 617.53 419.02 649.67
  Q 448.60 660.89 476.99 670.00
  Q 548.90 693.06 623.30 709.19
  C 631.44 710.95 639.23 712.23 647.26 713.41
  Q 650.37 713.86 653.78 713.84
  Z"
/>
<path fill="#346237" d="
  M 1203.62 554.63
  L 1206.89 560.05
  Q 1204.78 564.31 1202.69 568.50
  Q 1202.11 569.68 1201.04 570.32
  L 1200.64 569.70
  L 1203.62 554.63
  Z"
/>
<path fill="#346237" d="
  M 1305.20 706.18
  Q 1317.05 691.70 1326.35 677.12
  Q 1412.81 662.46 1495.58 634.35
  Q 1544.59 617.70 1593.73 597.01
  Q 1635.44 579.44 1677.97 560.36
  Q 1682.30 558.41 1684.21 562.61
  Q 1684.29 562.79 1684.29 562.79
  Q 1686.20 567.00 1682.00 568.94
  Q 1651.58 583.04 1623.35 595.58
  Q 1551.76 627.37 1479.75 650.54
  Q 1417.82 670.47 1352.94 682.96
  Q 1352.91 682.96 1352.88 682.96
  Q 1352.83 682.95 1352.85 682.91
  Q 1352.86 682.87 1352.91 682.87
  Q 1353.33 682.88 1353.74 682.84
  Q 1418.02 677.80 1486.28 665.64
  C 1534.29 657.08 1581.41 645.57 1628.04 629.31
  Q 1677.10 612.22 1724.50 589.11
  Q 1726.16 588.31 1727.16 588.01
  Q 1730.84 586.94 1732.55 590.84
  Q 1732.59 590.92 1732.62 591.02
  Q 1733.77 595.17 1729.90 597.13
  Q 1654.11 635.36 1576.01 656.46
  Q 1534.78 667.60 1487.27 676.07
  Q 1428.67 686.51 1369.49 692.07
  Q 1348.08 694.08 1326.85 695.17
  Q 1321.11 695.47 1326.86 695.40
  Q 1366.75 694.89 1410.49 693.71
  C 1480.13 691.82 1547.64 685.57 1615.06 671.81
  C 1651.38 664.39 1687.57 655.14 1724.04 646.23
  Q 1731.77 644.34 1739.51 642.83
  C 1742.71 642.21 1747.48 642.64 1747.65 646.73
  Q 1747.84 650.97 1743.58 651.77
  Q 1734.93 653.41 1727.53 655.38
  Q 1695.82 663.80 1663.80 671.69
  Q 1583.63 691.44 1502.97 698.85
  C 1438.45 704.78 1371.27 705.15 1305.20 706.18
  Z"
/>
<path fill="#346237" d="
  M 653.02 572.24
  Q 656.75 573.29 658.10 577.47
  L 655.07 594.05
  L 651.27 586.63
  L 653.02 572.24
  Z"
/>
<path fill="#a47454" d="
  M 989.77 1080.00
  L 891.17 1080.00
  Q 892.91 1063.70 893.19 1059.00
  Q 893.76 1049.53 893.51 1035.34
  Q 892.84 997.24 872.42 964.48
  Q 865.99 954.15 859.10 944.88
  Q 832.78 909.41 800.73 876.37
  Q 777.57 852.49 755.15 828.97
  C 730.61 803.22 706.50 774.99 688.49 744.94
  Q 673.36 719.72 660.52 689.71
  Q 658.88 685.87 658.32 681.09
  Q 657.89 677.32 657.92 673.86
  Q 658.09 656.60 660.36 640.08
  Q 660.67 637.81 660.90 640.09
  Q 663.75 667.74 675.35 692.86
  Q 686.00 715.93 699.89 735.86
  Q 711.32 752.25 722.50 766.75
  Q 740.25 789.75 764.35 814.15
  Q 785.19 835.25 808.90 852.24
  C 822.37 861.89 836.85 871.56 850.74 881.71
  C 868.54 894.71 887.20 907.49 905.85 917.76
  C 917.42 924.13 929.59 927.62 943.17 927.45
  Q 970.34 927.10 993.03 911.95
  Q 1006.13 903.21 1016.38 895.48
  Q 1025.52 888.57 1035.96 877.66
  Q 1056.58 856.12 1074.89 835.39
  C 1083.95 825.13 1092.94 814.16 1100.90 803.38
  Q 1116.51 782.24 1121.36 776.30
  Q 1132.35 762.87 1141.68 749.90
  Q 1147.74 741.49 1153.13 731.17
  C 1162.88 712.50 1173.55 690.66 1180.72 669.98
  Q 1180.73 669.95 1180.73 669.91
  Q 1180.72 669.85 1180.67 669.85
  Q 1180.61 669.85 1180.61 669.91
  Q 1178.04 690.07 1171.79 709.30
  C 1163.64 734.37 1149.47 755.79 1134.13 776.93
  Q 1131.13 781.06 1130.56 783.05
  C 1129.10 788.10 1132.04 793.25 1137.37 793.72
  Q 1141.06 794.05 1144.29 791.60
  Q 1152.03 785.74 1160.00 780.05
  C 1166.02 775.75 1172.00 770.40 1178.10 766.15
  Q 1203.24 748.64 1229.00 732.50
  C 1240.21 725.47 1252.13 719.21 1263.21 712.20
  Q 1281.16 700.87 1298.00 688.60
  Q 1300.11 687.06 1298.48 689.10
  C 1275.55 717.62 1248.54 741.90 1217.87 760.68
  C 1191.46 776.85 1163.13 793.84 1140.01 811.73
  Q 1126.78 821.97 1114.23 832.34
  Q 1095.72 847.63 1079.65 867.40
  Q 1066.50 883.58 1054.24 899.38
  Q 1048.21 907.14 1042.46 915.49
  Q 1025.21 940.52 1010.66 967.12
  C 1000.98 984.81 992.79 1003.90 990.30 1023.42
  Q 988.84 1034.80 988.81 1048.25
  Q 988.79 1057.33 989.77 1080.00
  Z"
/>
<path fill="#346237" d="
  M 659.37 725.19
  L 668.40 742.13
  C 661.67 743.03 654.86 743.35 648.21 743.93
  Q 625.53 745.91 602.88 748.05
  C 536.24 754.37 471.00 756.26 404.97 749.74
  C 350.91 744.40 295.55 733.47 241.96 720.95
  Q 238.28 720.09 234.76 718.97
  C 226.47 716.33 230.67 705.48 238.43 708.77
  Q 241.30 709.98 244.46 710.73
  Q 292.30 722.01 336.97 729.83
  Q 407.88 742.23 473.52 743.20
  Q 515.43 743.81 554.01 741.32
  Q 585.39 739.29 623.80 736.02
  Q 623.85 736.02 623.90 736.04
  Q 623.95 736.06 623.91 736.10
  Q 623.88 736.14 623.82 736.14
  Q 620.24 735.99 614.91 736.11
  C 561.59 737.38 510.67 735.42 458.51 728.88
  Q 401.03 721.68 335.03 707.82
  Q 302.96 701.10 270.16 691.86
  Q 241.34 683.74 217.94 674.16
  Q 215.08 672.99 213.56 670.75
  C 211.54 667.78 213.64 663.76 217.03 663.29
  Q 218.81 663.04 221.30 664.12
  Q 230.62 668.17 242.29 672.17
  Q 284.26 686.56 342.96 698.74
  Q 389.58 708.42 437.62 715.49
  Q 483.76 722.27 527.01 724.47
  C 540.56 725.16 553.21 725.77 566.67 725.88
  C 595.17 726.10 628.98 726.52 659.37 725.19
  Z"
/>
<path fill="#346237" d="
  M 1290.11 723.09
  L 1303.63 707.98
  Q 1327.33 708.10 1351.25 708.49
  Q 1388.10 709.08 1447.08 707.52
  Q 1578.65 704.03 1714.62 682.02
  Q 1728.16 679.82 1737.25 677.72
  C 1739.79 677.13 1743.36 673.96 1746.18 676.79
  Q 1748.40 679.03 1747.24 682.02
  C 1746.07 685.02 1742.56 686.27 1739.74 686.95
  C 1733.75 688.41 1727.58 689.79 1721.72 690.82
  Q 1617.39 709.18 1511.33 715.11
  Q 1511.28 715.12 1511.24 715.15
  Q 1511.19 715.18 1511.22 715.24
  Q 1511.25 715.29 1511.31 715.29
  Q 1519.71 715.14 1527.50 714.88
  C 1579.33 713.14 1628.45 710.27 1683.00 707.06
  Q 1698.44 706.15 1713.00 705.45
  Q 1727.00 704.77 1738.74 704.68
  C 1743.55 704.64 1744.94 711.72 1740.28 713.65
  C 1737.42 714.83 1733.09 714.14 1729.99 714.36
  C 1721.22 714.99 1712.79 715.22 1704.28 715.82
  C 1621.52 721.71 1539.19 725.87 1455.00 726.88
  Q 1372.93 727.87 1290.11 723.09
  Z"
/>
<path fill="#346237" d="
  M 1275.92 684.48
  L 1257.21 697.12
  L 1190.49 702.97
  L 1192.94 692.24
  Q 1234.32 689.34 1275.92 684.48
  Z"
/>
<path fill="#346237" d="
  M 1245.35 704.34
  L 1224.51 716.48
  C 1208.25 717.99 1197.23 719.19 1185.48 719.23
  L 1188.83 708.87
  Q 1217.00 707.51 1245.35 704.34
  Z"
/>
<path fill="#a47454" d="
  M 882.09 883.38
  Q 882.57 884.85 881.32 883.95
  L 849.05 860.78
  Q 847.84 859.92 848.03 858.44
  Q 850.31 840.51 851.95 823.77
  Q 857.56 766.52 859.84 707.96
  Q 859.85 707.81 859.99 707.81
  L 860.00 707.81
  Q 860.16 707.81 860.17 707.98
  Q 861.82 753.85 865.99 799.78
  C 868.59 828.43 873.16 856.30 882.09 883.38
  Z"
/>
<path fill="#346237" d="
  M 1215.44 721.85
  L 1200.20 732.05
  L 1180.46 732.52
  L 1184.17 722.49
  L 1215.44 721.85
  Z"
/>
<path fill="#346237" d="
  M 1266.11 745.27
  L 1280.10 732.70
  Q 1301.64 735.54 1323.00 737.51
  Q 1406.30 745.15 1485.63 744.59
  Q 1574.88 743.95 1668.40 731.53
  Q 1695.51 727.93 1717.61 723.71
  Q 1720.35 723.19 1723.86 721.89
  C 1726.28 721.00 1729.29 722.85 1729.38 725.56
  Q 1729.54 730.37 1725.01 731.69
  Q 1719.32 733.35 1707.96 735.42
  C 1647.00 746.52 1583.19 752.42 1519.51 754.35
  Q 1516.99 754.43 1514.35 754.32
  Q 1514.29 754.31 1514.25 754.36
  Q 1514.22 754.40 1514.23 754.44
  Q 1514.24 754.50 1514.30 754.51
  Q 1516.06 754.70 1520.24 754.92
  Q 1570.81 757.60 1615.71 757.29
  Q 1655.53 757.01 1697.72 755.71
  Q 1704.62 755.49 1710.98 754.79
  C 1713.09 754.56 1715.33 753.12 1717.29 753.35
  C 1720.86 753.78 1722.31 757.58 1720.50 760.45
  Q 1718.89 763.01 1715.54 763.73
  C 1711.91 764.51 1707.68 765.00 1703.96 765.09
  C 1696.74 765.26 1689.79 766.00 1682.68 766.17
  Q 1673.63 766.39 1664.49 766.73
  Q 1609.26 768.83 1553.64 766.83
  Q 1528.23 765.91 1482.50 763.27
  Q 1422.51 759.81 1377.00 756.98
  C 1345.49 755.02 1312.37 751.88 1281.08 747.01
  Q 1277.35 746.43 1273.53 746.08
  Q 1269.90 745.75 1266.11 745.27
  Z"
/>
<path fill="#346237" d="
  M 1189.29 738.81
  Q 1189.37 738.95 1189.39 739.07
  Q 1189.40 739.23 1189.28 739.31
  L 1175.78 748.93
  L 1171.84 748.97
  L 1176.88 739.12
  L 1189.29 738.81
  Z"
/>
<path fill="#346237" d="
  M 669.13 743.56
  L 683.51 767.06
  Q 676.41 768.71 666.50 769.76
  Q 637.26 772.87 602.20 777.78
  Q 586.03 780.05 542.02 784.47
  Q 532.92 785.38 518.76 787.45
  Q 494.89 790.93 469.25 795.35
  Q 425.58 802.87 380.50 810.56
  C 323.28 820.30 268.22 827.52 211.39 828.99
  Q 209.18 829.05 207.01 828.67
  C 200.23 827.49 201.37 818.34 208.20 818.30
  Q 224.27 818.19 239.93 817.27
  C 292.53 814.18 345.05 806.20 397.03 797.14
  Q 397.17 797.12 397.15 796.99
  L 397.15 796.98
  Q 397.13 796.85 397.00 796.87
  Q 344.04 801.57 292.33 803.80
  C 262.28 805.09 230.63 805.78 201.40 804.54
  C 197.47 804.38 193.34 803.74 193.53 798.84
  C 193.71 794.12 197.85 793.66 201.79 793.87
  Q 225.38 795.14 249.75 794.67
  C 286.23 793.96 322.08 792.02 357.74 789.44
  Q 425.45 784.55 522.29 775.55
  Q 531.80 774.67 542.17 773.35
  Q 561.01 770.94 579.90 768.69
  Q 580.00 768.67 580.00 768.58
  Q 580.00 768.55 580.00 768.53
  Q 579.99 768.45 579.92 768.46
  Q 541.56 771.08 501.99 773.84
  Q 454.81 777.14 410.36 777.97
  Q 329.82 779.48 241.94 774.78
  Q 227.94 774.03 215.00 772.88
  C 207.87 772.24 208.36 762.19 215.50 762.66
  Q 329.57 770.16 436.43 766.92
  Q 436.49 766.92 436.49 766.85
  Q 436.49 766.83 436.49 766.82
  Q 436.49 766.78 436.47 766.78
  Q 330.51 765.66 225.74 751.03
  C 218.22 749.98 219.00 739.52 227.76 740.74
  Q 403.48 765.18 581.00 751.52
  Q 624.92 748.14 669.13 743.56
  Z"
/>
<path fill="#346237" d="
  M 1261.11 749.57
  C 1302.31 759.86 1343.64 769.21 1385.61 776.33
  Q 1459.03 788.79 1533.92 789.67
  Q 1572.93 790.13 1619.87 787.48
  Q 1671.13 784.59 1719.76 779.19
  Q 1724.52 778.67 1726.06 783.07
  Q 1726.09 783.16 1726.09 783.25
  Q 1726.02 787.88 1721.47 788.48
  Q 1645.16 798.44 1567.20 799.99
  Q 1502.69 801.28 1439.83 794.48
  Q 1439.75 794.47 1439.67 794.49
  Q 1439.25 794.62 1439.75 794.70
  Q 1484.91 801.69 1529.76 805.77
  Q 1593.93 811.60 1657.24 809.75
  C 1663.93 809.55 1670.81 808.77 1677.31 808.68
  Q 1681.52 808.62 1682.12 812.44
  C 1682.56 815.31 1679.82 817.83 1677.31 818.02
  C 1672.61 818.36 1667.81 819.06 1663.08 819.16
  C 1656.43 819.30 1649.81 820.00 1642.98 820.10
  Q 1607.61 820.63 1591.35 820.09
  Q 1537.27 818.30 1481.66 811.12
  C 1406.83 801.47 1334.16 786.63 1259.47 768.35
  C 1257.54 767.88 1255.78 767.40 1253.81 767.30
  Q 1246.39 766.93 1238.60 766.33
  L 1261.11 749.57
  Z"
/>
<path fill="#346237" d="
  M 1215.82 780.70
  Q 1223.42 782.76 1230.76 784.52
  C 1282.39 796.85 1333.52 808.92 1385.24 819.36
  Q 1431.45 828.68 1476.76 834.47
  Q 1539.83 842.53 1600.53 841.41
  Q 1619.17 841.06 1637.76 839.76
  Q 1643.89 839.34 1650.45 838.12
  C 1651.75 837.88 1653.98 838.81 1654.82 839.98
  C 1657.79 844.10 1654.09 847.57 1650.03 848.10
  Q 1647.35 848.45 1644.75 848.74
  Q 1620.36 851.41 1588.30 851.82
  Q 1543.20 852.40 1493.59 846.93
  Q 1493.46 846.91 1493.45 847.04
  L 1493.44 847.05
  Q 1493.42 847.23 1493.60 847.26
  Q 1537.09 854.27 1572.02 857.89
  Q 1610.39 861.86 1650.33 866.06
  Q 1664.21 867.52 1679.52 870.36
  C 1685.87 871.53 1684.45 880.42 1678.42 879.56
  Q 1655.83 876.32 1635.06 874.50
  Q 1608.75 872.19 1582.98 869.63
  Q 1513.02 862.68 1444.25 848.46
  Q 1322.52 823.29 1203.01 788.64
  L 1215.82 780.70
  Z"
/>
<path fill="#346237" d="
  M 1185.87 799.38
  Q 1248.64 827.45 1321.02 848.62
  Q 1396.84 870.80 1470.89 884.43
  Q 1520.28 893.53 1566.56 896.53
  Q 1610.42 899.37 1656.86 898.95
  C 1660.18 898.92 1664.40 901.13 1663.47 905.12
  C 1662.12 910.93 1654.08 908.63 1649.99 908.67
  Q 1614.53 909.07 1587.68 908.13
  C 1533.71 906.23 1479.62 897.99 1425.52 886.07
  Q 1373.11 874.52 1323.70 860.32
  Q 1244.80 837.65 1175.41 806.16
  L 1185.87 799.38
  Z"
/>
</svg>
