<?xml version="1.0" encoding="UTF-8" standalone="no"?>
<!DOCTYPE svg PUBLIC "-//W3C//DTD SVG 1.1//EN" "http://www.w3.org/Graphics/SVG/1.1/DTD/svg11.dtd">
<svg xmlns="http://www.w3.org/2000/svg" version="1.1" viewBox="0.00 0.00 700.00 700.00">
<g stroke-width="2.00" fill="none" stroke-linecap="butt">
<path stroke="#141516" vector-effect="non-scaling-stroke" d="
  M 700.00 86.22
  L 0.00 89.86"
/>
<path stroke="#141516" vector-effect="non-scaling-stroke" d="
  M 700.00 124.77
  L 0.00 125.46"
/>
<path stroke="#454343" vector-effect="non-scaling-stroke" d="
  M 700.00 131.74
  L 558.29 131.82"
/>
<path stroke="#808080" vector-effect="non-scaling-stroke" d="
  M 558.29 131.82
  L 140.92 132.25"
/>
<path stroke="#454343" vector-effect="non-scaling-stroke" d="
  M 140.92 132.25
  L 0.00 132.25"
/>
<path stroke="#6a6e6b" vector-effect="non-scaling-stroke" d="
  M 700.00 289.52
  Q 663.40 288.87 626.79 288.53
  C 621.36 288.48 616.77 288.84 613.55 293.59
  C 609.67 299.29 611.86 307.22 618.08 309.91
  Q 620.50 310.96 626.58 311.09
  Q 663.29 311.84 700.00 312.03"
/>
<path stroke="#454343" vector-effect="non-scaling-stroke" d="
  M 700.00 516.44
  L 554.27 516.76"
/>
<path stroke="#c4c3c3" vector-effect="non-scaling-stroke" d="
  M 554.27 516.76
  Q 555.24 509.47 554.78 502.38"
/>
<path stroke="#454343" vector-effect="non-scaling-stroke" d="
  M 554.78 502.38
  Q 559.03 500.51 558.96 495.75
  C 558.70 479.17 559.23 460.21 559.22 443.00
  Q 559.19 366.75 559.30 290.50
  Q 559.30 287.57 556.70 285.70"
/>
<path stroke="#c4c3c3" vector-effect="non-scaling-stroke" d="
  M 556.70 285.70
  Q 557.19 282.72 557.19 281.75
  C 557.26 260.75 557.06 239.74 557.50 218.74
  Q 557.89 200.41 557.86 182.05"
/>
<path stroke="#6a6e6b" vector-effect="non-scaling-stroke" d="
  M 557.86 182.05
  Q 570.20 182.27 582.15 182.48
  Q 586.37 182.55 588.26 181.86
  C 597.28 178.56 595.07 165.02 585.50 164.29
  Q 574.94 163.47 558.24 163.74"
/>
<path stroke="#c4c3c3" vector-effect="non-scaling-stroke" d="
  M 558.24 163.74
  L 558.29 131.82"
/>
<path stroke="#a5aba7" vector-effect="non-scaling-stroke" d="
  M 558.24 163.74
  L 557.86 182.05"
/>
<path stroke="#808080" vector-effect="non-scaling-stroke" d="
  M 556.70 285.70
  L 140.84 284.87"
/>
<path stroke="#c4c3c3" vector-effect="non-scaling-stroke" d="
  M 140.84 284.87
  Q 139.36 284.78 139.38 283.80
  Q 139.96 248.94 139.70 215.43
  C 139.68 213.23 139.96 210.98 139.99 208.75
  Q 140.46 170.59 140.92 132.25"
/>
<path stroke="#cae1c9" vector-effect="non-scaling-stroke" d="
  M 529.9299 140.3618
  A 4.12 4.12 0.0 0 0 525.8171 136.2346
  L 486.1972 136.1654
  A 4.12 4.12 0.0 0 0 482.0700 140.2782
  L 482.0501 151.6982
  A 4.12 4.12 0.0 0 0 486.1629 155.8254
  L 525.7828 155.8946
  A 4.12 4.12 0.0 0 0 529.9100 151.7818
  L 529.9299 140.3618"
/>
<path stroke="#808080" vector-effect="non-scaling-stroke" d="
  M 437.48 163.86
  C 438.73 164.52 441.14 165.30 442.23 164.05
  Q 444.56 161.38 441.99 159.13
  C 437.53 155.24 432.18 158.61 427.03 157.91
  C 424.53 157.57 421.64 158.16 419.34 157.45
  Q 418.26 157.12 417.22 156.73
  C 412.61 155.02 407.71 157.09 403.98 160.47
  C 398.90 165.06 406.67 169.92 408.48 165.66
  C 409.54 163.16 413.04 161.62 415.72 162.81
  Q 418.91 164.24 422.38 164.00
  C 425.50 163.77 428.39 164.71 431.60 164.22
  Q 434.10 163.84 436.40 163.64
  A 1.96 1.93 56.1 0 1 437.48 163.86"
/>
<path stroke="#808080" vector-effect="non-scaling-stroke" d="
  M 175.38 165.02
  A 2.24 2.24 0.0 0 1 178.42 164.18
  Q 182.74 166.63 187.31 165.76
  C 190.27 165.20 193.39 164.93 196.33 165.57
  C 201.18 166.63 206.00 166.71 210.84 167.42
  C 217.18 168.35 216.45 161.15 210.74 160.79
  Q 202.45 160.26 194.37 158.82
  Q 191.74 158.35 186.13 159.69
  C 184.92 159.98 183.43 159.64 182.30 159.09
  Q 175.22 155.63 170.15 161.10
  C 167.53 163.93 169.71 168.24 173.60 167.19
  Q 174.24 167.02 174.56 166.45
  L 175.38 165.02"
/>
<path stroke="#808080" vector-effect="non-scaling-stroke" d="
  M 532.07 178.05
  A 3.30 3.30 0.0 0 0 528.77 174.75
  L 170.07 174.75
  A 3.30 3.30 0.0 0 0 166.77 178.05
  L 166.77 178.25
  A 3.30 3.30 0.0 0 0 170.07 181.55
  L 528.77 181.55
  A 3.30 3.30 0.0 0 0 532.07 178.25
  L 532.07 178.05"
/>
<path stroke="#808080" vector-effect="non-scaling-stroke" d="
  M 241.71 191.36
  Q 236.58 188.38 231.10 190.82
  Q 226.90 192.70 224.47 195.00
  C 221.73 197.59 223.63 202.58 227.86 201.29
  A 1.55 1.54 -84.8 0 0 228.79 200.51
  Q 230.43 197.22 235.03 196.06
  C 236.43 195.71 237.83 196.52 239.01 197.15
  C 240.91 198.17 243.14 198.37 245.26 198.25
  C 251.75 197.88 257.21 198.22 263.82 196.54
  C 267.27 195.66 270.40 197.60 274.02 196.95
  Q 277.76 196.27 281.29 197.75
  C 283.39 198.63 287.21 198.41 289.39 197.79
  Q 292.85 196.81 296.12 197.50
  C 300.32 198.39 303.78 197.29 307.68 196.07
  C 311.51 194.87 315.55 195.32 319.53 195.24
  C 323.88 195.15 324.57 189.62 320.22 188.77
  C 315.94 187.94 310.08 188.23 305.40 189.61
  C 302.70 190.41 300.16 191.39 297.28 190.78
  Q 292.48 189.76 287.11 191.44
  C 285.90 191.82 284.38 191.88 283.18 191.39
  Q 278.60 189.52 273.72 190.33
  Q 271.42 190.70 268.75 190.05
  C 265.20 189.17 261.69 190.39 258.26 191.17
  C 253.71 192.21 248.74 191.63 244.17 191.98
  C 243.40 192.04 242.37 191.74 241.71 191.36"
/>
<path stroke="#808080" vector-effect="non-scaling-stroke" d="
  M 440.20 196.63
  A 2.69 2.66 55.2 0 0 441.72 196.91
  Q 444.63 196.62 444.96 194.89
  Q 445.49 192.17 443.05 190.85
  C 434.83 186.41 426.97 188.66 418.43 189.94
  C 415.63 190.36 412.87 190.14 410.05 189.78
  C 407.18 189.41 401.93 190.25 400.21 193.12
  C 398.46 196.04 402.55 197.93 404.98 196.88
  C 406.39 196.27 407.38 195.82 409.01 195.96
  Q 416.94 196.64 419.84 196.13
  Q 426.52 194.96 431.59 194.57
  Q 435.59 194.27 440.20 196.63"
/>
<path stroke="#808080" vector-effect="non-scaling-stroke" d="
  M 531.07 211.03
  A 3.28 3.28 0.0 0 0 527.79 207.75
  L 169.05 207.75
  A 3.28 3.28 0.0 0 0 165.77 211.03
  L 165.77 211.27
  A 3.28 3.28 0.0 0 0 169.05 214.55
  L 527.79 214.55
  A 3.28 3.28 0.0 0 0 531.07 211.27
  L 531.07 211.03"
/>
<path stroke="#808080" vector-effect="non-scaling-stroke" d="
  M 413.62 223.40
  Q 410.30 218.61 404.55 221.44
  Q 400.95 223.22 399.34 225.63
  Q 398.14 227.43 399.32 229.50
  C 400.44 231.47 403.12 230.86 404.30 229.39
  Q 405.48 227.90 407.32 226.99
  Q 408.26 226.52 408.82 227.42
  C 411.32 231.48 415.82 230.51 419.16 228.28
  A 2.13 2.13 0.0 0 1 421.41 228.20
  Q 424.59 230.03 428.03 229.32
  Q 429.98 228.92 431.95 229.14
  Q 435.91 229.59 439.98 227.66
  Q 440.48 227.42 441.02 227.54
  C 443.02 227.98 444.98 228.92 446.34 226.60
  Q 447.47 224.68 446.01 223.02
  C 441.60 218.02 436.90 223.32 431.81 222.67
  Q 429.22 222.34 426.48 223.12
  Q 425.88 223.29 425.33 222.99
  Q 421.83 221.03 417.81 221.97
  C 416.62 222.25 415.54 223.07 414.44 223.61
  Q 413.94 223.86 413.62 223.40"
/>
<path stroke="#808080" vector-effect="non-scaling-stroke" d="
  M 230.18 230.24
  Q 232.63 231.94 235.17 232.25
  C 237.67 232.56 239.29 230.67 241.97 231.11
  C 245.68 231.73 248.23 230.43 251.49 229.49
  C 253.21 228.99 254.89 229.66 256.57 230.00
  C 259.46 230.59 262.77 229.29 265.53 228.49
  Q 266.99 228.06 268.49 228.31
  Q 275.07 229.39 282.06 230.63
  C 284.13 231.00 286.75 230.86 288.79 230.38
  C 297.92 228.22 305.30 228.01 314.17 228.29
  A 3.78 3.76 -85.7 0 0 318.03 224.96
  Q 318.07 224.65 317.98 224.34
  Q 317.25 221.83 314.63 221.70
  Q 303.79 221.16 296.02 222.06
  C 291.09 222.63 286.51 224.81 281.35 223.80
  Q 275.27 222.62 269.18 221.83
  Q 267.80 221.65 266.35 221.71
  C 263.14 221.84 259.35 224.58 256.28 223.38
  C 253.10 222.15 249.31 223.16 245.97 224.64
  Q 245.47 224.86 244.93 224.80
  Q 239.95 224.27 235.81 225.76
  Q 235.22 225.97 234.71 225.62
  Q 228.17 221.23 224.09 227.03
  Q 222.46 229.35 223.62 232.08
  C 224.77 234.79 228.88 234.60 229.20 231.40
  Q 229.24 230.99 229.32 230.58
  Q 229.48 229.76 230.18 230.24"
/>
<path stroke="#808080" vector-effect="non-scaling-stroke" d="
  M 532.07 240.02
  A 3.27 3.27 0.0 0 0 528.80 236.75
  L 170.04 236.75
  A 3.27 3.27 0.0 0 0 166.77 240.02
  L 166.77 240.28
  A 3.27 3.27 0.0 0 0 170.04 243.55
  L 528.80 243.55
  A 3.27 3.27 0.0 0 0 532.07 240.28
  L 532.07 240.02"
/>
<path stroke="#454343" vector-effect="non-scaling-stroke" d="
  M 140.84 284.87
  Q 137.16 285.27 136.76 287.96
  C 136.29 291.11 136.69 295.25 136.70 298.68
  Q 136.74 357.60 136.39 415.00
  Q 136.05 469.78 136.25 498.25
  Q 136.25 499.55 137.54 500.62"
/>
<path stroke="#c4c3c3" vector-effect="non-scaling-stroke" d="
  M 137.54 500.62
  L 137.25 517.60"
/>
<path stroke="#454343" vector-effect="non-scaling-stroke" d="
  M 137.25 517.60
  L 0.00 517.75"
/>
<path stroke="#6a6e6b" vector-effect="non-scaling-stroke" d="
  M 0.00 448.73
  Q 46.81 448.62 93.62 448.51
  Q 103.41 448.48 107.22 447.22
  Q 117.25 443.88 121.91 434.10
  Q 123.58 430.60 123.84 426.75
  Q 124.16 422.10 123.31 418.16
  Q 122.46 414.22 120.13 411.33
  Q 117.84 408.49 114.82 406.04
  C 109.10 401.38 102.33 400.58 95.00 400.61
  Q 47.50 400.80 0.00 400.74"
/>
<path stroke="#6a6e6b" vector-effect="non-scaling-stroke" d="
  M 0.00 189.21
  Q 50.12 189.99 100.25 190.22
  C 106.17 190.24 112.76 191.02 117.19 186.47
  Q 119.64 183.96 120.05 180.36
  C 120.81 173.66 116.30 168.65 109.67 167.83
  Q 106.97 167.50 104.25 167.48
  Q 52.12 167.10 0.00 166.73"
/>
<path stroke="#6a6e6b" vector-effect="non-scaling-stroke" d="
  M 28.52 475.37
  C 29.84 480.10 32.14 483.88 37.75 483.84
  Q 73.91 483.54 104.32 483.19
  C 109.32 483.14 113.82 479.56 113.78 474.30
  C 113.73 466.37 107.36 464.61 100.48 464.66
  Q 68.08 464.92 38.68 465.13
  C 32.97 465.17 26.74 469.00 28.52 475.37"
/>
<path stroke="#808080" vector-effect="non-scaling-stroke" d="
  M 554.78 502.38
  Q 552.99 502.69 551.75 502.69
  C 524.24 502.69 496.73 502.28 469.23 502.27
  Q 364.21 502.22 259.24 502.27
  C 257.78 502.27 256.24 501.98 254.91 501.98
  Q 197.58 501.87 140.25 501.75
  Q 138.98 501.74 137.54 500.62"
/>
<path stroke="#2e4958" vector-effect="non-scaling-stroke" d="
  M 399.97 495.73
  L 551.70 495.72
  A 0.38 0.37 90.0 0 0 552.07 495.34
  Q 552.21 399.18 552.80 303.83
  C 552.82 300.36 552.46 296.87 552.57 293.39
  Q 552.59 292.76 551.96 292.76
  L 368.27 292.28"
/>
<path stroke="#5a6152" vector-effect="non-scaling-stroke" d="
  M 368.27 292.28
  L 330.21 292.26"
/>
<path stroke="#2e4958" vector-effect="non-scaling-stroke" d="
  M 330.21 292.26
  L 316.98 292.24"
/>
<path stroke="#5a6152" vector-effect="non-scaling-stroke" d="
  M 316.98 292.24
  L 144.15 291.75
  Q 143.25 291.75 143.25 292.65
  Q 143.24 387.91 143.13 474.50
  Q 143.12 484.00 142.88 494.10
  A 0.68 0.68 0.0 0 0 143.55 494.79
  L 399.97 495.73"
/>
<path stroke="#87a9aa" vector-effect="non-scaling-stroke" d="
  M 316.98 292.24
  Q 307.12 297.07 304.18 307.97
  Q 302.99 312.38 302.74 316.42
  Q 302.36 322.49 302.35 322.56
  Q 298.91 350.18 279.88 370.62
  C 272.49 378.56 265.63 385.98 260.25 395.59
  Q 254.75 405.43 249.17 414.44
  Q 244.69 421.69 234.96 429.62
  C 230.54 433.22 224.30 438.46 226.06 444.96
  C 227.59 450.62 233.76 453.15 239.20 453.42
  Q 256.48 454.26 266.02 443.36
  Q 269.27 439.64 272.59 434.04
  C 277.65 425.49 286.24 414.04 296.77 412.26
  C 307.98 410.36 315.62 417.07 314.08 428.69
  C 313.01 436.72 311.65 443.26 317.98 449.47
  C 322.47 453.87 326.64 459.06 323.59 465.60
  C 320.87 471.40 317.20 476.66 314.68 482.07
  C 313.45 484.73 312.01 491.55 315.22 493.60
  Q 317.24 494.89 319.27 493.18
  A 2.19 2.17 -14.6 0 0 320.00 491.95
  C 320.60 488.93 319.86 486.77 321.44 483.77
  Q 324.44 478.06 328.32 471.60
  Q 331.92 465.60 331.19 459.32
  Q 331.12 458.76 331.63 458.48
  C 341.66 453.11 349.28 457.51 359.48 461.83
  Q 368.83 465.80 379.84 463.36
  C 386.10 461.97 389.25 457.97 392.28 452.85
  A 0.47 0.47 0.0 0 1 393.04 452.79
  C 398.80 459.85 404.83 460.53 413.32 462.03
  Q 413.86 462.13 414.01 462.66
  C 415.38 467.59 413.89 473.99 412.16 478.61
  A 1.90 1.80 82.9 0 1 411.55 479.44
  C 407.91 482.24 399.53 490.76 399.97 495.73"
/>
<path stroke="#87a9aa" vector-effect="non-scaling-stroke" d="
  M 330.21 292.26
  Q 331.63 293.77 333.08 295.10
  Q 334.74 296.62 335.76 298.11
  C 340.41 304.94 346.82 308.20 352.96 312.92
  Q 363.02 320.66 368.58 334.77
  C 371.57 342.36 371.11 349.22 368.92 356.83
  Q 366.56 365.06 364.48 373.30
  Q 361.50 385.12 363.34 396.38
  Q 364.21 401.65 367.17 405.12
  C 369.58 407.92 373.41 408.79 376.52 410.61
  Q 382.53 414.14 385.35 421.00
  C 388.59 428.92 391.06 437.02 395.30 444.57
  Q 398.74 450.71 403.01 453.01
  C 406.15 454.69 409.64 455.01 413.08 455.78
  Q 413.56 455.89 413.67 455.41
  Q 415.74 446.57 415.90 439.18
  C 416.07 431.44 410.06 423.18 405.12 417.20
  C 399.06 409.87 392.25 401.99 388.77 393.42
  Q 385.29 384.85 384.12 378.98
  Q 383.22 374.50 384.06 367.99
  Q 385.49 356.89 384.61 342.29
  Q 384.47 339.98 382.99 338.20
  Q 377.91 332.11 376.29 325.84
  Q 375.31 322.00 374.98 317.09
  C 374.55 310.63 372.92 304.24 371.45 298.10
  C 370.89 295.75 369.35 294.40 368.27 292.28"
/>
<path stroke="#87a9aa" vector-effect="non-scaling-stroke" d="
  M 308.47 328.01
  C 305.71 343.73 298.84 359.36 288.33 371.24
  C 279.59 381.12 270.60 390.27 264.29 402.17
  Q 257.84 414.34 252.30 421.83
  C 247.64 428.13 241.82 432.83 235.76 437.94
  Q 233.91 439.50 232.91 441.70
  A 2.34 2.33 -59.4 0 0 233.63 444.52
  Q 236.13 446.41 238.92 446.63
  Q 256.29 447.99 264.70 433.71
  C 269.86 424.96 276.22 415.85 284.71 410.00
  C 298.17 400.72 319.52 404.47 321.10 423.71
  C 321.51 428.62 319.82 433.70 319.98 438.72
  Q 320.07 441.64 322.30 443.99
  Q 326.03 447.92 328.96 452.03
  Q 329.39 452.64 330.07 452.33
  Q 334.65 450.27 338.08 449.88
  C 347.32 448.81 354.46 452.98 362.85 456.11
  C 368.80 458.34 380.22 459.20 384.18 452.86
  Q 385.89 450.13 388.45 446.98
  Q 388.79 446.56 388.56 446.08
  Q 383.74 435.95 379.88 425.18
  Q 378.34 420.90 375.26 418.09
  C 372.85 415.90 369.67 415.06 366.87 413.52
  Q 360.43 409.97 358.00 402.60
  C 356.09 396.82 355.06 389.23 356.00 382.76
  C 356.49 379.43 356.75 376.14 357.58 372.87
  Q 359.94 363.47 362.57 354.23
  C 363.84 349.74 364.56 344.34 363.10 339.88
  Q 358.95 327.21 350.09 319.43
  C 345.59 315.47 340.08 312.65 335.66 308.57
  Q 332.73 305.86 330.39 302.27
  C 325.53 294.82 316.48 298.38 312.78 304.86
  Q 309.60 310.43 309.40 318.59
  Q 309.29 323.36 308.47 328.01"
/>
<path stroke="#808080" vector-effect="non-scaling-stroke" d="
  M 554.27 516.76
  L 137.25 517.60"
/>
<path stroke="#141516" vector-effect="non-scaling-stroke" d="
  M 700.00 523.20
  L 0.00 524.21"
/>
<path stroke="#141516" vector-effect="non-scaling-stroke" d="
  M 700.00 568.32
  L 0.00 569.21"
/>
<path stroke="#6b6a6b" vector-effect="non-scaling-stroke" d="
  M 463.18 700.00
  Q 447.60 679.84 441.91 670.52
  Q 417.33 630.25 413.23 583.22
  Q 412.90 579.46 413.18 575.89
  A 0.62 0.62 0.0 0 0 412.56 575.22
  L 270.29 575.62
  Q 269.78 575.62 269.78 576.14
  Q 269.73 583.37 268.77 588.90
  Q 264.27 614.78 254.37 640.46
  Q 243.40 668.91 222.43 692.20
  Q 218.93 696.09 215.34 700.00"
/>
</g>
<path fill="#000000" d="
  M 700.00 79.57
  L 700.00 86.22
  L 0.00 89.86
  L 0.00 83.00
  L 700.00 79.57
  Z"
/>
<path fill="#282a2b" d="
  M 700.00 86.22
  L 700.00 124.77
  L 0.00 125.46
  L 0.00 89.86
  L 700.00 86.22
  Z"
/>
<path fill="#000000" d="
  M 700.00 124.77
  L 700.00 131.74
  L 558.29 131.82
  L 140.92 132.25
  L 0.00 132.25
  L 0.00 125.46
  L 700.00 124.77
  Z"
/>
<path fill="#898686" d="
  M 700.00 131.74
  L 700.00 289.52
  Q 663.40 288.87 626.79 288.53
  C 621.36 288.48 616.77 288.84 613.55 293.59
  C 609.67 299.29 611.86 307.22 618.08 309.91
  Q 620.50 310.96 626.58 311.09
  Q 663.29 311.84 700.00 312.03
  L 700.00 516.44
  L 554.27 516.76
  Q 555.24 509.47 554.78 502.38
  Q 559.03 500.51 558.96 495.75
  C 558.70 479.17 559.23 460.21 559.22 443.00
  Q 559.19 366.75 559.30 290.50
  Q 559.30 287.57 556.70 285.70
  Q 557.19 282.72 557.19 281.75
  C 557.26 260.75 557.06 239.74 557.50 218.74
  Q 557.89 200.41 557.86 182.05
  Q 570.20 182.27 582.15 182.48
  Q 586.37 182.55 588.26 181.86
  C 597.28 178.56 595.07 165.02 585.50 164.29
  Q 574.94 163.47 558.24 163.74
  L 558.29 131.82
  L 700.00 131.74
  Z"
/>
<path fill="#ffffff" d="
  M 558.29 131.82
  L 558.24 163.74
  L 557.86 182.05
  Q 557.89 200.41 557.50 218.74
  C 557.06 239.74 557.26 260.75 557.19 281.75
  Q 557.19 282.72 556.70 285.70
  L 140.84 284.87
  Q 139.36 284.78 139.38 283.80
  Q 139.96 248.94 139.70 215.43
  C 139.68 213.23 139.96 210.98 139.99 208.75
  Q 140.46 170.59 140.92 132.25
  L 558.29 131.82
  Z
  M 529.9299 140.3618
  A 4.12 4.12 0.0 0 0 525.8171 136.2346
  L 486.1972 136.1654
  A 4.12 4.12 0.0 0 0 482.0700 140.2782
  L 482.0501 151.6982
  A 4.12 4.12 0.0 0 0 486.1629 155.8254
  L 525.7828 155.8946
  A 4.12 4.12 0.0 0 0 529.9100 151.7818
  L 529.9299 140.3618
  Z
  M 437.48 163.86
  C 438.73 164.52 441.14 165.30 442.23 164.05
  Q 444.56 161.38 441.99 159.13
  C 437.53 155.24 432.18 158.61 427.03 157.91
  C 424.53 157.57 421.64 158.16 419.34 157.45
  Q 418.26 157.12 417.22 156.73
  C 412.61 155.02 407.71 157.09 403.98 160.47
  C 398.90 165.06 406.67 169.92 408.48 165.66
  C 409.54 163.16 413.04 161.62 415.72 162.81
  Q 418.91 164.24 422.38 164.00
  C 425.50 163.77 428.39 164.71 431.60 164.22
  Q 434.10 163.84 436.40 163.64
  A 1.96 1.93 56.1 0 1 437.48 163.86
  Z
  M 175.38 165.02
  A 2.24 2.24 0.0 0 1 178.42 164.18
  Q 182.74 166.63 187.31 165.76
  C 190.27 165.20 193.39 164.93 196.33 165.57
  C 201.18 166.63 206.00 166.71 210.84 167.42
  C 217.18 168.35 216.45 161.15 210.74 160.79
  Q 202.45 160.26 194.37 158.82
  Q 191.74 158.35 186.13 159.69
  C 184.92 159.98 183.43 159.64 182.30 159.09
  Q 175.22 155.63 170.15 161.10
  C 167.53 163.93 169.71 168.24 173.60 167.19
  Q 174.24 167.02 174.56 166.45
  L 175.38 165.02
  Z
  M 532.07 178.05
  A 3.30 3.30 0.0 0 0 528.77 174.75
  L 170.07 174.75
  A 3.30 3.30 0.0 0 0 166.77 178.05
  L 166.77 178.25
  A 3.30 3.30 0.0 0 0 170.07 181.55
  L 528.77 181.55
  A 3.30 3.30 0.0 0 0 532.07 178.25
  L 532.07 178.05
  Z
  M 241.71 191.36
  Q 236.58 188.38 231.10 190.82
  Q 226.90 192.70 224.47 195.00
  C 221.73 197.59 223.63 202.58 227.86 201.29
  A 1.55 1.54 -84.8 0 0 228.79 200.51
  Q 230.43 197.22 235.03 196.06
  C 236.43 195.71 237.83 196.52 239.01 197.15
  C 240.91 198.17 243.14 198.37 245.26 198.25
  C 251.75 197.88 257.21 198.22 263.82 196.54
  C 267.27 195.66 270.40 197.60 274.02 196.95
  Q 277.76 196.27 281.29 197.75
  C 283.39 198.63 287.21 198.41 289.39 197.79
  Q 292.85 196.81 296.12 197.50
  C 300.32 198.39 303.78 197.29 307.68 196.07
  C 311.51 194.87 315.55 195.32 319.53 195.24
  C 323.88 195.15 324.57 189.62 320.22 188.77
  C 315.94 187.94 310.08 188.23 305.40 189.61
  C 302.70 190.41 300.16 191.39 297.28 190.78
  Q 292.48 189.76 287.11 191.44
  C 285.90 191.82 284.38 191.88 283.18 191.39
  Q 278.60 189.52 273.72 190.33
  Q 271.42 190.70 268.75 190.05
  C 265.20 189.17 261.69 190.39 258.26 191.17
  C 253.71 192.21 248.74 191.63 244.17 191.98
  C 243.40 192.04 242.37 191.74 241.71 191.36
  Z
  M 440.20 196.63
  A 2.69 2.66 55.2 0 0 441.72 196.91
  Q 444.63 196.62 444.96 194.89
  Q 445.49 192.17 443.05 190.85
  C 434.83 186.41 426.97 188.66 418.43 189.94
  C 415.63 190.36 412.87 190.14 410.05 189.78
  C 407.18 189.41 401.93 190.25 400.21 193.12
  C 398.46 196.04 402.55 197.93 404.98 196.88
  C 406.39 196.27 407.38 195.82 409.01 195.96
  Q 416.94 196.64 419.84 196.13
  Q 426.52 194.96 431.59 194.57
  Q 435.59 194.27 440.20 196.63
  Z
  M 531.07 211.03
  A 3.28 3.28 0.0 0 0 527.79 207.75
  L 169.05 207.75
  A 3.28 3.28 0.0 0 0 165.77 211.03
  L 165.77 211.27
  A 3.28 3.28 0.0 0 0 169.05 214.55
  L 527.79 214.55
  A 3.28 3.28 0.0 0 0 531.07 211.27
  L 531.07 211.03
  Z
  M 413.62 223.40
  Q 410.30 218.61 404.55 221.44
  Q 400.95 223.22 399.34 225.63
  Q 398.14 227.43 399.32 229.50
  C 400.44 231.47 403.12 230.86 404.30 229.39
  Q 405.48 227.90 407.32 226.99
  Q 408.26 226.52 408.82 227.42
  C 411.32 231.48 415.82 230.51 419.16 228.28
  A 2.13 2.13 0.0 0 1 421.41 228.20
  Q 424.59 230.03 428.03 229.32
  Q 429.98 228.92 431.95 229.14
  Q 435.91 229.59 439.98 227.66
  Q 440.48 227.42 441.02 227.54
  C 443.02 227.98 444.98 228.92 446.34 226.60
  Q 447.47 224.68 446.01 223.02
  C 441.60 218.02 436.90 223.32 431.81 222.67
  Q 429.22 222.34 426.48 223.12
  Q 425.88 223.29 425.33 222.99
  Q 421.83 221.03 417.81 221.97
  C 416.62 222.25 415.54 223.07 414.44 223.61
  Q 413.94 223.86 413.62 223.40
  Z
  M 230.18 230.24
  Q 232.63 231.94 235.17 232.25
  C 237.67 232.56 239.29 230.67 241.97 231.11
  C 245.68 231.73 248.23 230.43 251.49 229.49
  C 253.21 228.99 254.89 229.66 256.57 230.00
  C 259.46 230.59 262.77 229.29 265.53 228.49
  Q 266.99 228.06 268.49 228.31
  Q 275.07 229.39 282.06 230.63
  C 284.13 231.00 286.75 230.86 288.79 230.38
  C 297.92 228.22 305.30 228.01 314.17 228.29
  A 3.78 3.76 -85.7 0 0 318.03 224.96
  Q 318.07 224.65 317.98 224.34
  Q 317.25 221.83 314.63 221.70
  Q 303.79 221.16 296.02 222.06
  C 291.09 222.63 286.51 224.81 281.35 223.80
  Q 275.27 222.62 269.18 221.83
  Q 267.80 221.65 266.35 221.71
  C 263.14 221.84 259.35 224.58 256.28 223.38
  C 253.10 222.15 249.31 223.16 245.97 224.64
  Q 245.47 224.86 244.93 224.80
  Q 239.95 224.27 235.81 225.76
  Q 235.22 225.97 234.71 225.62
  Q 228.17 221.23 224.09 227.03
  Q 222.46 229.35 223.62 232.08
  C 224.77 234.79 228.88 234.60 229.20 231.40
  Q 229.24 230.99 229.32 230.58
  Q 229.48 229.76 230.18 230.24
  Z
  M 532.07 240.02
  A 3.27 3.27 0.0 0 0 528.80 236.75
  L 170.04 236.75
  A 3.27 3.27 0.0 0 0 166.77 240.02
  L 166.77 240.28
  A 3.27 3.27 0.0 0 0 170.04 243.55
  L 528.80 243.55
  A 3.27 3.27 0.0 0 0 532.07 240.28
  L 532.07 240.02
  Z"
/>
<path fill="#898686" d="
  M 0.00 132.25
  L 140.92 132.25
  Q 140.46 170.59 139.99 208.75
  C 139.96 210.98 139.68 213.23 139.70 215.43
  Q 139.96 248.94 139.38 283.80
  Q 139.36 284.78 140.84 284.87
  Q 137.16 285.27 136.76 287.96
  C 136.29 291.11 136.69 295.25 136.70 298.68
  Q 136.74 357.60 136.39 415.00
  Q 136.05 469.78 136.25 498.25
  Q 136.25 499.55 137.54 500.62
  L 137.25 517.60
  L 0.00 517.75
  L 0.00 448.73
  Q 46.81 448.62 93.62 448.51
  Q 103.41 448.48 107.22 447.22
  Q 117.25 443.88 121.91 434.10
  Q 123.58 430.60 123.84 426.75
  Q 124.16 422.10 123.31 418.16
  Q 122.46 414.22 120.13 411.33
  Q 117.84 408.49 114.82 406.04
  C 109.10 401.38 102.33 400.58 95.00 400.61
  Q 47.50 400.80 0.00 400.74
  L 0.00 189.21
  Q 50.12 189.99 100.25 190.22
  C 106.17 190.24 112.76 191.02 117.19 186.47
  Q 119.64 183.96 120.05 180.36
  C 120.81 173.66 116.30 168.65 109.67 167.83
  Q 106.97 167.50 104.25 167.48
  Q 52.12 167.10 0.00 166.73
  L 0.00 132.25
  Z
  M 28.52 475.37
  C 29.84 480.10 32.14 483.88 37.75 483.84
  Q 73.91 483.54 104.32 483.19
  C 109.32 483.14 113.82 479.56 113.78 474.30
  C 113.73 466.37 107.36 464.61 100.48 464.66
  Q 68.08 464.92 38.68 465.13
  C 32.97 465.17 26.74 469.00 28.52 475.37
  Z"
/>
<rect fill="#94c292" x="-23.93" y="-9.83" transform="translate(505.99,146.03) rotate(0.1)" width="47.86" height="19.66" rx="4.12"/>
<path fill="#000000" d="
  M 442.23 164.05
  C 441.14 165.30 438.73 164.52 437.48 163.86
  A 1.96 1.93 56.1 0 0 436.40 163.64
  Q 434.10 163.84 431.60 164.22
  C 428.39 164.71 425.50 163.77 422.38 164.00
  Q 418.91 164.24 415.72 162.81
  C 413.04 161.62 409.54 163.16 408.48 165.66
  C 406.67 169.92 398.90 165.06 403.98 160.47
  C 407.71 157.09 412.61 155.02 417.22 156.73
  Q 418.26 157.12 419.34 157.45
  C 421.64 158.16 424.53 157.57 427.03 157.91
  C 432.18 158.61 437.53 155.24 441.99 159.13
  Q 444.56 161.38 442.23 164.05
  Z"
/>
<path fill="#000000" d="
  M 175.38 165.02
  L 174.56 166.45
  Q 174.24 167.02 173.60 167.19
  C 169.71 168.24 167.53 163.93 170.15 161.10
  Q 175.22 155.63 182.30 159.09
  C 183.43 159.64 184.92 159.98 186.13 159.69
  Q 191.74 158.35 194.37 158.82
  Q 202.45 160.26 210.74 160.79
  C 216.45 161.15 217.18 168.35 210.84 167.42
  C 206.00 166.71 201.18 166.63 196.33 165.57
  C 193.39 164.93 190.27 165.20 187.31 165.76
  Q 182.74 166.63 178.42 164.18
  A 2.24 2.24 0.0 0 0 175.38 165.02
  Z"
/>
<path fill="#4b564f" d="
  M 558.24 163.74
  Q 574.94 163.47 585.50 164.29
  C 595.07 165.02 597.28 178.56 588.26 181.86
  Q 586.37 182.55 582.15 182.48
  Q 570.20 182.27 557.86 182.05
  L 558.24 163.74
  Z"
/>
<path fill="#4b564f" d="
  M 0.00 166.73
  Q 52.12 167.10 104.25 167.48
  Q 106.97 167.50 109.67 167.83
  C 116.30 168.65 120.81 173.66 120.05 180.36
  Q 119.64 183.96 117.19 186.47
  C 112.76 191.02 106.17 190.24 100.25 190.22
  Q 50.12 189.99 0.00 189.21
  L 0.00 166.73
  Z"
/>
<rect fill="#000000" x="166.77" y="174.75" width="365.30" height="6.80" rx="3.30"/>
<path fill="#000000" d="
  M 241.71 191.36
  C 242.37 191.74 243.40 192.04 244.17 191.98
  C 248.74 191.63 253.71 192.21 258.26 191.17
  C 261.69 190.39 265.20 189.17 268.75 190.05
  Q 271.42 190.70 273.72 190.33
  Q 278.60 189.52 283.18 191.39
  C 284.38 191.88 285.90 191.82 287.11 191.44
  Q 292.48 189.76 297.28 190.78
  C 300.16 191.39 302.70 190.41 305.40 189.61
  C 310.08 188.23 315.94 187.94 320.22 188.77
  C 324.57 189.62 323.88 195.15 319.53 195.24
  C 315.55 195.32 311.51 194.87 307.68 196.07
  C 303.78 197.29 300.32 198.39 296.12 197.50
  Q 292.85 196.81 289.39 197.79
  C 287.21 198.41 283.39 198.63 281.29 197.75
  Q 277.76 196.27 274.02 196.95
  C 270.40 197.60 267.27 195.66 263.82 196.54
  C 257.21 198.22 251.75 197.88 245.26 198.25
  C 243.14 198.37 240.91 198.17 239.01 197.15
  C 237.83 196.52 236.43 195.71 235.03 196.06
  Q 230.43 197.22 228.79 200.51
  A 1.55 1.54 -84.8 0 1 227.86 201.29
  C 223.63 202.58 221.73 197.59 224.47 195.00
  Q 226.90 192.70 231.10 190.82
  Q 236.58 188.38 241.71 191.36
  Z"
/>
<path fill="#000000" d="
  M 440.20 196.63
  Q 435.59 194.27 431.59 194.57
  Q 426.52 194.96 419.84 196.13
  Q 416.94 196.64 409.01 195.96
  C 407.38 195.82 406.39 196.27 404.98 196.88
  C 402.55 197.93 398.46 196.04 400.21 193.12
  C 401.93 190.25 407.18 189.41 410.05 189.78
  C 412.87 190.14 415.63 190.36 418.43 189.94
  C 426.97 188.66 434.83 186.41 443.05 190.85
  Q 445.49 192.17 444.96 194.89
  Q 444.63 196.62 441.72 196.91
  A 2.69 2.66 55.2 0 1 440.20 196.63
  Z"
/>
<rect fill="#000000" x="165.77" y="207.75" width="365.30" height="6.80" rx="3.28"/>
<path fill="#000000" d="
  M 414.44 223.61
  C 415.54 223.07 416.62 222.25 417.81 221.97
  Q 421.83 221.03 425.33 222.99
  Q 425.88 223.29 426.48 223.12
  Q 429.22 222.34 431.81 222.67
  C 436.90 223.32 441.60 218.02 446.01 223.02
  Q 447.47 224.68 446.34 226.60
  C 444.98 228.92 443.02 227.98 441.02 227.54
  Q 440.48 227.42 439.98 227.66
  Q 435.91 229.59 431.95 229.14
  Q 429.98 228.92 428.03 229.32
  Q 424.59 230.03 421.41 228.20
  A 2.13 2.13 0.0 0 0 419.16 228.28
  C 415.82 230.51 411.32 231.48 408.82 227.42
  Q 408.26 226.52 407.32 226.99
  Q 405.48 227.90 404.30 229.39
  C 403.12 230.86 400.44 231.47 399.32 229.50
  Q 398.14 227.43 399.34 225.63
  Q 400.95 223.22 404.55 221.44
  Q 410.30 218.61 413.62 223.40
  Q 413.94 223.86 414.44 223.61
  Z"
/>
<path fill="#000000" d="
  M 229.32 230.58
  Q 229.24 230.99 229.20 231.40
  C 228.88 234.60 224.77 234.79 223.62 232.08
  Q 222.46 229.35 224.09 227.03
  Q 228.17 221.23 234.71 225.62
  Q 235.22 225.97 235.81 225.76
  Q 239.95 224.27 244.93 224.80
  Q 245.47 224.86 245.97 224.64
  C 249.31 223.16 253.10 222.15 256.28 223.38
  C 259.35 224.58 263.14 221.84 266.35 221.71
  Q 267.80 221.65 269.18 221.83
  Q 275.27 222.62 281.35 223.80
  C 286.51 224.81 291.09 222.63 296.02 222.06
  Q 303.79 221.16 314.63 221.70
  Q 317.25 221.83 317.98 224.34
  Q 318.07 224.65 318.03 224.96
  A 3.78 3.76 -85.7 0 1 314.17 228.29
  C 305.30 228.01 297.92 228.22 288.79 230.38
  C 286.75 230.86 284.13 231.00 282.06 230.63
  Q 275.07 229.39 268.49 228.31
  Q 266.99 228.06 265.53 228.49
  C 262.77 229.29 259.46 230.59 256.57 230.00
  C 254.89 229.66 253.21 228.99 251.49 229.49
  C 248.23 230.43 245.68 231.73 241.97 231.11
  C 239.29 230.67 237.67 232.56 235.17 232.25
  Q 232.63 231.94 230.18 230.24
  Q 229.48 229.76 229.32 230.58
  Z"
/>
<rect fill="#000000" x="166.77" y="236.75" width="365.30" height="6.80" rx="3.27"/>
<path fill="#000000" d="
  M 140.84 284.87
  L 556.70 285.70
  Q 559.30 287.57 559.30 290.50
  Q 559.19 366.75 559.22 443.00
  C 559.23 460.21 558.70 479.17 558.96 495.75
  Q 559.03 500.51 554.78 502.38
  Q 552.99 502.69 551.75 502.69
  C 524.24 502.69 496.73 502.28 469.23 502.27
  Q 364.21 502.22 259.24 502.27
  C 257.78 502.27 256.24 501.98 254.91 501.98
  Q 197.58 501.87 140.25 501.75
  Q 138.98 501.74 137.54 500.62
  Q 136.25 499.55 136.25 498.25
  Q 136.05 469.78 136.39 415.00
  Q 136.74 357.60 136.70 298.68
  C 136.69 295.25 136.29 291.11 136.76 287.96
  Q 137.16 285.27 140.84 284.87
  Z
  M 399.97 495.73
  L 551.70 495.72
  A 0.38 0.37 90.0 0 0 552.07 495.34
  Q 552.21 399.18 552.80 303.83
  C 552.82 300.36 552.46 296.87 552.57 293.39
  Q 552.59 292.76 551.96 292.76
  L 368.27 292.28
  L 330.21 292.26
  L 316.98 292.24
  L 144.15 291.75
  Q 143.25 291.75 143.25 292.65
  Q 143.24 387.91 143.13 474.50
  Q 143.12 484.00 142.88 494.10
  A 0.68 0.68 0.0 0 0 143.55 494.79
  L 399.97 495.73
  Z"
/>
<path fill="#4b564f" d="
  M 700.00 289.52
  L 700.00 312.03
  Q 663.29 311.84 626.58 311.09
  Q 620.50 310.96 618.08 309.91
  C 611.86 307.22 609.67 299.29 613.55 293.59
  C 616.77 288.84 621.36 288.48 626.79 288.53
  Q 663.40 288.87 700.00 289.52
  Z"
/>
<path fill="#b3c1a3" d="
  M 316.98 292.24
  Q 307.12 297.07 304.18 307.97
  Q 302.99 312.38 302.74 316.42
  Q 302.36 322.49 302.35 322.56
  Q 298.91 350.18 279.88 370.62
  C 272.49 378.56 265.63 385.98 260.25 395.59
  Q 254.75 405.43 249.17 414.44
  Q 244.69 421.69 234.96 429.62
  C 230.54 433.22 224.30 438.46 226.06 444.96
  C 227.59 450.62 233.76 453.15 239.20 453.42
  Q 256.48 454.26 266.02 443.36
  Q 269.27 439.64 272.59 434.04
  C 277.65 425.49 286.24 414.04 296.77 412.26
  C 307.98 410.36 315.62 417.07 314.08 428.69
  C 313.01 436.72 311.65 443.26 317.98 449.47
  C 322.47 453.87 326.64 459.06 323.59 465.60
  C 320.87 471.40 317.20 476.66 314.68 482.07
  C 313.45 484.73 312.01 491.55 315.22 493.60
  Q 317.24 494.89 319.27 493.18
  A 2.19 2.17 -14.6 0 0 320.00 491.95
  C 320.60 488.93 319.86 486.77 321.44 483.77
  Q 324.44 478.06 328.32 471.60
  Q 331.92 465.60 331.19 459.32
  Q 331.12 458.76 331.63 458.48
  C 341.66 453.11 349.28 457.51 359.48 461.83
  Q 368.83 465.80 379.84 463.36
  C 386.10 461.97 389.25 457.97 392.28 452.85
  A 0.47 0.47 0.0 0 1 393.04 452.79
  C 398.80 459.85 404.83 460.53 413.32 462.03
  Q 413.86 462.13 414.01 462.66
  C 415.38 467.59 413.89 473.99 412.16 478.61
  A 1.90 1.80 82.9 0 1 411.55 479.44
  C 407.91 482.24 399.53 490.76 399.97 495.73
  L 143.55 494.79
  A 0.68 0.68 0.0 0 1 142.88 494.10
  Q 143.12 484.00 143.13 474.50
  Q 143.24 387.91 143.25 292.65
  Q 143.25 291.75 144.15 291.75
  L 316.98 292.24
  Z"
/>
<path fill="#5b91b0" d="
  M 316.98 292.24
  L 330.21 292.26
  Q 331.63 293.77 333.08 295.10
  Q 334.74 296.62 335.76 298.11
  C 340.41 304.94 346.82 308.20 352.96 312.92
  Q 363.02 320.66 368.58 334.77
  C 371.57 342.36 371.11 349.22 368.92 356.83
  Q 366.56 365.06 364.48 373.30
  Q 361.50 385.12 363.34 396.38
  Q 364.21 401.65 367.17 405.12
  C 369.58 407.92 373.41 408.79 376.52 410.61
  Q 382.53 414.14 385.35 421.00
  C 388.59 428.92 391.06 437.02 395.30 444.57
  Q 398.74 450.71 403.01 453.01
  C 406.15 454.69 409.64 455.01 413.08 455.78
  Q 413.56 455.89 413.67 455.41
  Q 415.74 446.57 415.90 439.18
  C 416.07 431.44 410.06 423.18 405.12 417.20
  C 399.06 409.87 392.25 401.99 388.77 393.42
  Q 385.29 384.85 384.12 378.98
  Q 383.22 374.50 384.06 367.99
  Q 385.49 356.89 384.61 342.29
  Q 384.47 339.98 382.99 338.20
  Q 377.91 332.11 376.29 325.84
  Q 375.31 322.00 374.98 317.09
  C 374.55 310.63 372.92 304.24 371.45 298.10
  C 370.89 295.75 369.35 294.40 368.27 292.28
  L 551.96 292.76
  Q 552.59 292.76 552.57 293.39
  C 552.46 296.87 552.82 300.36 552.80 303.83
  Q 552.21 399.18 552.07 495.34
  A 0.38 0.37 90.0 0 1 551.70 495.72
  L 399.97 495.73
  C 399.53 490.76 407.91 482.24 411.55 479.44
  A 1.90 1.80 82.9 0 0 412.16 478.61
  C 413.89 473.99 415.38 467.59 414.01 462.66
  Q 413.86 462.13 413.32 462.03
  C 404.83 460.53 398.80 459.85 393.04 452.79
  A 0.47 0.47 0.0 0 0 392.28 452.85
  C 389.25 457.97 386.10 461.97 379.84 463.36
  Q 368.83 465.80 359.48 461.83
  C 349.28 457.51 341.66 453.11 331.63 458.48
  Q 331.12 458.76 331.19 459.32
  Q 331.92 465.60 328.32 471.60
  Q 324.44 478.06 321.44 483.77
  C 319.86 486.77 320.60 488.93 320.00 491.95
  A 2.19 2.17 -14.6 0 1 319.27 493.18
  Q 317.24 494.89 315.22 493.60
  C 312.01 491.55 313.45 484.73 314.68 482.07
  C 317.20 476.66 320.87 471.40 323.59 465.60
  C 326.64 459.06 322.47 453.87 317.98 449.47
  C 311.65 443.26 313.01 436.72 314.08 428.69
  C 315.62 417.07 307.98 410.36 296.77 412.26
  C 286.24 414.04 277.65 425.49 272.59 434.04
  Q 269.27 439.64 266.02 443.36
  Q 256.48 454.26 239.20 453.42
  C 233.76 453.15 227.59 450.62 226.06 444.96
  C 224.30 438.46 230.54 433.22 234.96 429.62
  Q 244.69 421.69 249.17 414.44
  Q 254.75 405.43 260.25 395.59
  C 265.63 385.98 272.49 378.56 279.88 370.62
  Q 298.91 350.18 302.35 322.56
  Q 302.36 322.49 302.74 316.42
  Q 302.99 312.38 304.18 307.97
  Q 307.12 297.07 316.98 292.24
  Z
  M 308.47 328.01
  C 305.71 343.73 298.84 359.36 288.33 371.24
  C 279.59 381.12 270.60 390.27 264.29 402.17
  Q 257.84 414.34 252.30 421.83
  C 247.64 428.13 241.82 432.83 235.76 437.94
  Q 233.91 439.50 232.91 441.70
  A 2.34 2.33 -59.4 0 0 233.63 444.52
  Q 236.13 446.41 238.92 446.63
  Q 256.29 447.99 264.70 433.71
  C 269.86 424.96 276.22 415.85 284.71 410.00
  C 298.17 400.72 319.52 404.47 321.10 423.71
  C 321.51 428.62 319.82 433.70 319.98 438.72
  Q 320.07 441.64 322.30 443.99
  Q 326.03 447.92 328.96 452.03
  Q 329.39 452.64 330.07 452.33
  Q 334.65 450.27 338.08 449.88
  C 347.32 448.81 354.46 452.98 362.85 456.11
  C 368.80 458.34 380.22 459.20 384.18 452.86
  Q 385.89 450.13 388.45 446.98
  Q 388.79 446.56 388.56 446.08
  Q 383.74 435.95 379.88 425.18
  Q 378.34 420.90 375.26 418.09
  C 372.85 415.90 369.67 415.06 366.87 413.52
  Q 360.43 409.97 358.00 402.60
  C 356.09 396.82 355.06 389.23 356.00 382.76
  C 356.49 379.43 356.75 376.14 357.58 372.87
  Q 359.94 363.47 362.57 354.23
  C 363.84 349.74 364.56 344.34 363.10 339.88
  Q 358.95 327.21 350.09 319.43
  C 345.59 315.47 340.08 312.65 335.66 308.57
  Q 332.73 305.86 330.39 302.27
  C 325.53 294.82 316.48 298.38 312.78 304.86
  Q 309.60 310.43 309.40 318.59
  Q 309.29 323.36 308.47 328.01
  Z"
/>
<path fill="#b3c1a3" d="
  M 330.21 292.26
  L 368.27 292.28
  C 369.35 294.40 370.89 295.75 371.45 298.10
  C 372.92 304.24 374.55 310.63 374.98 317.09
  Q 375.31 322.00 376.29 325.84
  Q 377.91 332.11 382.99 338.20
  Q 384.47 339.98 384.61 342.29
  Q 385.49 356.89 384.06 367.99
  Q 383.22 374.50 384.12 378.98
  Q 385.29 384.85 388.77 393.42
  C 392.25 401.99 399.06 409.87 405.12 417.20
  C 410.06 423.18 416.07 431.44 415.90 439.18
  Q 415.74 446.57 413.67 455.41
  Q 413.56 455.89 413.08 455.78
  C 409.64 455.01 406.15 454.69 403.01 453.01
  Q 398.74 450.71 395.30 444.57
  C 391.06 437.02 388.59 428.92 385.35 421.00
  Q 382.53 414.14 376.52 410.61
  C 373.41 408.79 369.58 407.92 367.17 405.12
  Q 364.21 401.65 363.34 396.38
  Q 361.50 385.12 364.48 373.30
  Q 366.56 365.06 368.92 356.83
  C 371.11 349.22 371.57 342.36 368.58 334.77
  Q 363.02 320.66 352.96 312.92
  C 346.82 308.20 340.41 304.94 335.76 298.11
  Q 334.74 296.62 333.08 295.10
  Q 331.63 293.77 330.21 292.26
  Z"
/>
<path fill="#b3c1a3" d="
  M 288.33 371.24
  C 298.84 359.36 305.71 343.73 308.47 328.01
  Q 309.29 323.36 309.40 318.59
  Q 309.60 310.43 312.78 304.86
  C 316.48 298.38 325.53 294.82 330.39 302.27
  Q 332.73 305.86 335.66 308.57
  C 340.08 312.65 345.59 315.47 350.09 319.43
  Q 358.95 327.21 363.10 339.88
  C 364.56 344.34 363.84 349.74 362.57 354.23
  Q 359.94 363.47 357.58 372.87
  C 356.75 376.14 356.49 379.43 356.00 382.76
  C 355.06 389.23 356.09 396.82 358.00 402.60
  Q 360.43 409.97 366.87 413.52
  C 369.67 415.06 372.85 415.90 375.26 418.09
  Q 378.34 420.90 379.88 425.18
  Q 383.74 435.95 388.56 446.08
  Q 388.79 446.56 388.45 446.98
  Q 385.89 450.13 384.18 452.86
  C 380.22 459.20 368.80 458.34 362.85 456.11
  C 354.46 452.98 347.32 448.81 338.08 449.88
  Q 334.65 450.27 330.07 452.33
  Q 329.39 452.64 328.96 452.03
  Q 326.03 447.92 322.30 443.99
  Q 320.07 441.64 319.98 438.72
  C 319.82 433.70 321.51 428.62 321.10 423.71
  C 319.52 404.47 298.17 400.72 284.71 410.00
  C 276.22 415.85 269.86 424.96 264.70 433.71
  Q 256.29 447.99 238.92 446.63
  Q 236.13 446.41 233.63 444.52
  A 2.34 2.33 -59.4 0 1 232.91 441.70
  Q 233.91 439.50 235.76 437.94
  C 241.82 432.83 247.64 428.13 252.30 421.83
  Q 257.84 414.34 264.29 402.17
  C 270.60 390.27 279.59 381.12 288.33 371.24
  Z"
/>
<path fill="#4b564f" d="
  M 0.00 400.74
  Q 47.50 400.80 95.00 400.61
  C 102.33 400.58 109.10 401.38 114.82 406.04
  Q 117.84 408.49 120.13 411.33
  Q 122.46 414.22 123.31 418.16
  Q 124.16 422.10 123.84 426.75
  Q 123.58 430.60 121.91 434.10
  Q 117.25 443.88 107.22 447.22
  Q 103.41 448.48 93.62 448.51
  Q 46.81 448.62 0.00 448.73
  L 0.00 400.74
  Z"
/>
<path fill="#4b564f" d="
  M 28.52 475.37
  C 26.74 469.00 32.97 465.17 38.68 465.13
  Q 68.08 464.92 100.48 464.66
  C 107.36 464.61 113.73 466.37 113.78 474.30
  C 113.82 479.56 109.32 483.14 104.32 483.19
  Q 73.91 483.54 37.75 483.84
  C 32.14 483.88 29.84 480.10 28.52 475.37
  Z"
/>
<path fill="#ffffff" d="
  M 137.54 500.62
  Q 138.98 501.74 140.25 501.75
  Q 197.58 501.87 254.91 501.98
  C 256.24 501.98 257.78 502.27 259.24 502.27
  Q 364.21 502.22 469.23 502.27
  C 496.73 502.28 524.24 502.69 551.75 502.69
  Q 552.99 502.69 554.78 502.38
  Q 555.24 509.47 554.27 516.76
  L 137.25 517.60
  L 137.54 500.62
  Z"
/>
<path fill="#000000" d="
  M 700.00 516.44
  L 700.00 523.20
  L 0.00 524.21
  L 0.00 517.75
  L 137.25 517.60
  L 554.27 516.76
  L 700.00 516.44
  Z"
/>
<path fill="#282a2b" d="
  M 700.00 523.20
  L 700.00 568.32
  L 0.00 569.21
  L 0.00 524.21
  L 700.00 523.20
  Z"
/>
<path fill="#000000" d="
  M 700.00 568.32
  L 700.00 575.25
  L 420.05 575.26
  A 0.68 0.67 3.9 0 0 419.38 575.84
  Q 418.94 578.86 419.28 581.99
  C 421.45 602.50 426.03 621.68 433.97 639.91
  C 439.38 652.34 444.54 662.44 452.69 674.07
  Q 463.10 688.93 471.90 700.00
  L 463.18 700.00
  Q 447.60 679.84 441.91 670.52
  Q 417.33 630.25 413.23 583.22
  Q 412.90 579.46 413.18 575.89
  A 0.62 0.62 0.0 0 0 412.56 575.22
  L 270.29 575.62
  Q 269.78 575.62 269.78 576.14
  Q 269.73 583.37 268.77 588.90
  Q 264.27 614.78 254.37 640.46
  Q 243.40 668.91 222.43 692.20
  Q 218.93 696.09 215.34 700.00
  L 205.44 700.00
  Q 235.83 671.51 249.94 633.25
  C 256.27 616.08 261.73 597.42 263.75 578.93
  Q 263.91 577.49 263.26 576.11
  Q 263.04 575.64 262.52 575.64
  L 0.00 575.97
  L 0.00 569.21
  L 700.00 568.32
  Z"
/>
<path fill="#d5d4d5" d="
  M 463.18 700.00
  L 215.34 700.00
  Q 218.93 696.09 222.43 692.20
  Q 243.40 668.91 254.37 640.46
  Q 264.27 614.78 268.77 588.90
  Q 269.73 583.37 269.78 576.14
  Q 269.78 575.62 270.29 575.62
  L 412.56 575.22
  A 0.62 0.62 0.0 0 1 413.18 575.89
  Q 412.90 579.46 413.23 583.22
  Q 417.33 630.25 441.91 670.52
  Q 447.60 679.84 463.18 700.00
  Z"
/>
</svg>
