<?xml version="1.0" encoding="UTF-8" standalone="no"?>
<!DOCTYPE svg PUBLIC "-//W3C//DTD SVG 1.1//EN" "http://www.w3.org/Graphics/SVG/1.1/DTD/svg11.dtd">
<svg xmlns="http://www.w3.org/2000/svg" version="1.1" viewBox="0.00 0.00 700.00 700.00">
<g stroke-width="2.00" fill="none" stroke-linecap="butt">
<path stroke="#19274c" vector-effect="non-scaling-stroke" d="
  M 364.87 410.88
  Q 362.03 413.44 359.70 412.04
  Q 358.53 411.33 358.06 409.54
  Q 357.54 407.50 357.56 406.36
  Q 357.72 399.32 356.32 393.23
  Q 350.84 369.47 339.61 346.98
  Q 328.72 325.20 308.30 311.98
  Q 307.78 311.65 307.81 312.26
  Q 308.72 335.10 305.24 361.92
  Q 301.31 392.16 290.48 416.47
  Q 290.15 417.19 290.92 417.00
  C 292.00 416.74 293.12 416.54 294.23 416.54
  C 310.35 416.50 326.04 416.64 343.24 416.24
  Q 353.51 415.99 363.84 416.09"
/>
<path stroke="#343633" vector-effect="non-scaling-stroke" d="
  M 351.39 700.00
  C 352.33 687.21 352.34 677.48 352.11 664.84
  Q 351.97 656.90 351.35 649.06
  C 350.51 638.36 349.34 628.28 345.90 618.17
  Q 345.77 617.78 345.40 617.95
  Q 337.28 621.63 328.32 623.50
  Q 304.97 628.35 277.62 630.36
  Q 268.36 631.05 258.05 631.06
  Q 242.91 631.07 233.72 630.23
  Q 220.36 629.00 204.01 626.23
  Q 197.45 625.12 191.00 623.50
  Q 184.89 621.97 182.95 618.84"
/>
<path stroke="#19274c" vector-effect="non-scaling-stroke" d="
  M 182.95 618.84
  Q 183.39 613.48 188.25 614.97
  Q 199.49 618.43 208.79 619.85
  Q 222.90 622.01 237.37 623.37
  C 240.04 623.62 242.57 623.37 245.18 623.68
  C 250.96 624.38 257.17 624.01 262.91 624.00
  Q 265.73 624.00 268.64 623.79
  Q 271.39 623.58 274.47 623.41
  Q 287.49 622.71 309.27 619.64
  C 322.32 617.79 334.14 615.56 345.27 610.04
  Q 351.36 607.02 354.61 604.51
  Q 358.82 601.26 360.17 594.75
  Q 362.20 584.99 361.29 575.86
  Q 359.82 560.95 355.00 545.82
  Q 354.78 545.13 354.07 545.06
  C 351.24 544.78 348.55 545.58 345.70 545.52
  Q 333.52 545.26 322.20 545.92
  C 318.40 546.15 314.58 545.75 310.78 546.13
  C 301.73 547.02 292.26 546.31 283.64 546.84
  C 280.84 547.01 278.47 547.82 275.56 547.45
  Q 255.69 544.96 237.12 542.75
  Q 236.49 542.68 236.33 543.29
  Q 233.77 552.86 223.62 558.02
  C 214.84 562.48 205.15 563.33 195.25 562.89
  C 183.52 562.37 176.23 559.16 174.63 546.58
  Q 174.55 545.99 173.99 546.17
  Q 171.06 547.13 168.04 545.43
  Q 167.50 545.12 167.44 545.74
  Q 166.47 556.51 166.60 561.52
  Q 166.99 576.76 169.05 592.32
  Q 169.83 598.22 172.36 602.77
  Q 173.46 604.74 177.04 607.95
  Q 180.70 611.22 176.63 614.28"
/>
<path stroke="#343633" vector-effect="non-scaling-stroke" d="
  M 176.63 614.28
  Q 175.39 614.55 173.78 614.17
  Q 173.29 614.05 173.16 614.53
  Q 171.33 620.90 170.45 628.04
  Q 168.93 640.23 169.63 654.24
  Q 170.79 677.12 172.18 700.00"
/>
<path stroke="#776865" vector-effect="non-scaling-stroke" d="
  M 246.30 223.22
  C 248.26 229.38 241.82 228.31 238.11 227.26
  Q 236.16 226.70 232.75 226.92
  C 222.79 227.54 212.35 234.31 208.73 243.75
  Q 207.28 247.52 207.63 250.66
  C 209.34 265.84 221.34 272.63 235.96 272.03
  C 239.66 271.88 242.22 276.96 242.71 279.92
  C 243.42 284.19 244.90 288.64 244.34 292.50
  Q 243.16 300.64 244.95 307.82
  C 246.85 315.42 253.42 322.83 260.75 324.84
  C 270.11 327.41 280.85 326.89 289.08 321.45
  Q 292.15 319.43 293.61 316.80
  C 295.40 313.55 296.97 309.81 297.37 306.12
  Q 297.66 303.43 298.60 300.87
  Q 298.82 300.27 298.21 300.07
  C 290.22 297.48 282.18 294.68 275.01 290.22
  Q 272.98 288.95 273.47 286.61
  Q 273.80 285.04 276.09 284.45
  A 2.78 2.76 -37.9 0 1 278.09 284.69
  Q 288.22 290.09 304.85 295.24
  Q 311.77 297.38 317.24 296.71
  Q 324.62 295.81 330.77 292.00
  C 345.79 282.68 354.82 268.46 357.79 251.04
  Q 359.37 241.74 360.52 230.79
  Q 361.01 226.15 360.20 219.01
  Q 359.93 216.59 361.36 216.21"
/>
<path stroke="#201a17" vector-effect="non-scaling-stroke" d="
  M 361.36 216.21
  Q 363.75 214.54 365.38 215.69
  C 367.46 217.15 367.42 221.67 367.29 224.13
  Q 367.20 225.74 368.13 224.42
  C 369.76 222.09 370.39 220.53 369.97 217.54
  Q 366.27 190.80 341.02 178.47
  Q 338.11 177.05 336.74 176.58
  Q 336.26 176.42 335.98 176.84
  L 333.32 180.85"
/>
<path stroke="#776865" vector-effect="non-scaling-stroke" d="
  M 333.32 180.85
  Q 328.92 186.87 327.44 188.44
  C 310.32 206.62 288.51 220.12 265.07 228.80
  Q 261.24 230.21 257.03 231.20
  C 255.52 231.56 254.11 231.18 252.58 231.28
  C 248.80 231.51 247.11 226.57 250.92 225.60"
/>
<path stroke="#201a17" vector-effect="non-scaling-stroke" d="
  M 250.92 225.60
  Q 257.74 224.69 267.21 220.72
  Q 297.35 208.07 317.49 188.33
  Q 323.85 182.09 328.61 175.24
  Q 329.87 173.43 330.63 171.28
  Q 330.81 170.77 331.27 170.48
  Q 333.99 168.74 337.51 170.01
  C 355.10 176.34 368.36 188.24 374.29 206.06
  Q 374.65 207.14 374.83 206.02
  C 375.82 199.74 376.87 192.95 376.28 186.54
  Q 375.31 175.90 372.41 168.74
  Q 361.16 140.96 332.45 131.25
  Q 328.03 129.76 322.47 129.83
  Q 321.16 129.85 320.11 129.11
  C 310.52 122.30 300.67 117.50 288.80 116.51
  Q 265.78 114.60 244.40 125.73
  C 222.15 137.31 206.33 156.48 195.36 179.08
  Q 185.66 199.05 186.47 220.89
  Q 186.85 231.07 187.72 239.95
  Q 187.77 240.42 188.24 240.48
  Q 193.96 241.27 199.84 243.06
  Q 201.54 243.58 202.06 241.88
  Q 203.41 237.41 206.68 233.35
  Q 216.83 220.71 233.00 219.66
  Q 235.09 219.52 237.33 219.87
  C 240.52 220.37 244.23 220.47 246.30 223.22"
/>
<path stroke="#97827c" vector-effect="non-scaling-stroke" d="
  M 250.92 225.60
  Q 249.30 223.51 246.30 223.22"
/>
<path stroke="#97827c" vector-effect="non-scaling-stroke" d="
  M 361.36 216.21
  Q 360.39 209.53 356.00 202.51
  Q 347.22 188.46 333.32 180.85"
/>
<path stroke="#4c2005" vector-effect="non-scaling-stroke" d="
  M 358.08 273.14
  Q 354.40 280.10 348.28 287.03"
/>
<path stroke="#666565" vector-effect="non-scaling-stroke" d="
  M 348.28 287.03
  Q 341.74 293.65 333.24 298.84
  Q 332.76 299.13 333.31 299.23
  Q 358.36 304.00 383.38 308.68
  C 385.21 309.03 387.67 309.46 388.65 310.86
  Q 398.02 324.17 407.19 337.26"
/>
<path stroke="#4c2005" vector-effect="non-scaling-stroke" d="
  M 407.19 337.26
  Q 415.46 349.57 420.83 355.92
  Q 429.55 366.24 442.83 367.03"
/>
<path stroke="#391c09" vector-effect="non-scaling-stroke" d="
  M 442.83 367.03
  L 549.49 367.03"
/>
<path stroke="#4c2005" vector-effect="non-scaling-stroke" d="
  M 549.49 367.03
  Q 578.57 367.39 592.75 366.41
  Q 599.17 365.97 603.13 365.75
  Q 609.39 365.41 612.84 364.88
  C 619.91 363.79 625.98 362.31 631.66 358.65
  Q 637.39 354.97 638.55 348.28
  Q 639.27 344.13 637.69 336.71"
/>
<path stroke="#666565" vector-effect="non-scaling-stroke" d="
  M 637.69 336.71
  Q 636.14 329.13 632.01 322.51
  Q 628.28 316.52 625.08 311.91
  Q 622.06 307.55 621.05 304.72
  Q 619.63 300.77 619.24 296.56"
/>
<path stroke="#3e4f72" vector-effect="non-scaling-stroke" d="
  M 619.24 296.56
  C 618.45 290.00 616.84 283.01 614.64 277.24
  Q 613.05 273.07 607.08 270.91
  Q 606.24 270.60 605.51 269.99
  Q 604.60 269.24 604.07 268.77"
/>
<path stroke="#666565" vector-effect="non-scaling-stroke" d="
  M 604.07 268.77
  Q 591.74 256.84 578.39 247.29
  C 575.80 245.44 572.91 244.44 569.93 244.04
  Q 557.10 242.29 544.25 241.71
  C 535.32 241.30 526.84 240.66 517.89 240.41
  C 510.66 240.20 503.32 239.63 496.03 239.45
  Q 491.73 239.34 485.00 239.12
  Q 466.37 238.51 443.00 239.14
  C 430.57 239.48 418.99 240.31 408.05 245.81
  Q 402.04 248.83 399.12 254.42
  C 396.99 258.53 395.32 262.64 393.74 266.94
  A 3.87 3.86 10.1 0 1 390.11 269.47
  Q 384.20 269.48 378.48 269.46
  Q 376.40 269.45 369.53 269.07
  Q 365.05 268.82 360.55 269.06
  Q 360.04 269.08 359.82 269.54
  L 358.08 273.14"
/>
<path stroke="#a3b4d7" vector-effect="non-scaling-stroke" d="
  M 604.07 268.77
  Q 594.84 269.17 586.14 269.38
  Q 581.01 269.51 580.24 274.88
  Q 580.20 275.14 580.00 275.32
  Q 579.82 275.47 579.78 275.76"
/>
<path stroke="#b2856a" vector-effect="non-scaling-stroke" d="
  M 579.78 275.76
  L 569.80 275.51"
/>
<path stroke="#a3b4d7" vector-effect="non-scaling-stroke" d="
  M 569.80 275.51
  Q 569.73 271.71 567.21 269.96
  Q 565.51 268.78 562.04 268.76
  Q 527.99 268.51 494.19 268.14
  C 492.26 268.12 489.81 267.92 488.26 269.08
  Q 485.88 270.88 486.28 274.38"
/>
<path stroke="#b2856a" vector-effect="non-scaling-stroke" d="
  M 486.28 274.38
  L 358.08 273.14"
/>
<path stroke="#b2856a" vector-effect="non-scaling-stroke" d="
  M 580.62 289.87
  L 570.00 289.80"
/>
<path stroke="#b2856a" vector-effect="non-scaling-stroke" d="
  M 486.70 288.71
  L 348.28 287.03"
/>
<path stroke="#a3b4d7" vector-effect="non-scaling-stroke" d="
  M 619.24 296.56
  Q 603.04 297.02 587.00 297.32
  Q 583.73 297.39 581.25 294.64
  Q 580.91 294.27 580.87 293.76
  L 580.62 289.87"
/>
<path stroke="#8a6f77" vector-effect="non-scaling-stroke" d="
  M 580.62 289.87
  L 580.17 275.95
  Q 580.17 275.78 580.01 275.71
  Q 579.88 275.65 579.78 275.76"
/>
<path stroke="#8a6f77" vector-effect="non-scaling-stroke" d="
  M 569.80 275.51
  L 570.00 289.80"
/>
<path stroke="#a3b4d7" vector-effect="non-scaling-stroke" d="
  M 570.00 289.80
  Q 570.28 294.18 567.03 296.04
  C 565.25 297.06 562.60 296.82 560.50 296.82
  Q 527.37 296.81 491.75 296.42
  Q 485.85 296.36 486.70 288.71"
/>
<path stroke="#8a6f77" vector-effect="non-scaling-stroke" d="
  M 486.70 288.71
  L 486.28 274.38"
/>
<path stroke="#b2856a" vector-effect="non-scaling-stroke" d="
  M 637.69 336.71
  L 407.19 337.26"
/>
<path stroke="#853c0e" vector-effect="non-scaling-stroke" d="
  M 549.49 367.03
  C 550.19 357.16 537.97 355.83 531.09 355.81
  Q 501.87 355.72 473.03 355.29
  C 464.89 355.17 458.13 355.54 451.01 357.01
  Q 442.18 358.83 442.83 367.03"
/>
<path stroke="#3e4f72" vector-effect="non-scaling-stroke" d="
  M 184.69 248.89
  C 186.81 252.81 197.04 254.55 200.91 254.80
  Q 201.26 254.83 201.21 254.48
  L 200.62 249.80
  A 0.27 0.27 0.0 0 0 200.39 249.56
  Q 195.83 248.83 191.25 247.70
  Q 189.13 247.17 185.01 248.18
  Q 184.39 248.33 184.69 248.89"
/>
<path stroke="#201a17" vector-effect="non-scaling-stroke" d="
  M 169.22 345.10
  L 169.67 345.52
  Q 170.13 345.95 170.50 345.44
  Q 190.39 317.77 221.88 303.08
  Q 226.46 300.94 235.08 298.34
  Q 235.55 298.20 236.04 298.26
  Q 236.19 298.28 236.33 298.33
  Q 237.07 298.53 237.17 297.77
  Q 238.42 288.07 235.78 279.16
  Q 235.57 278.44 234.83 278.46
  C 221.84 278.81 210.06 274.01 203.87 262.33
  Q 203.59 261.79 202.99 261.79
  Q 194.01 261.66 186.30 258.33
  Q 185.76 258.10 185.56 258.65
  Q 181.15 270.97 171.54 281.83
  Q 164.34 289.96 156.86 298.71
  C 151.65 304.81 144.45 315.43 145.04 323.87
  Q 146.07 338.60 160.32 343.46
  C 162.92 344.35 165.19 344.50 167.85 344.55
  A 2.05 2.04 66.7 0 1 169.22 345.10"
/>
<path stroke="#19274c" vector-effect="non-scaling-stroke" d="
  M 155.08 389.81
  Q 151.06 399.58 146.88 411.66
  Q 133.98 449.02 132.12 483.20
  Q 131.65 491.75 133.54 503.32
  C 135.23 513.71 140.56 520.76 149.58 526.51
  Q 159.75 533.00 170.32 539.22
  C 171.37 539.84 172.62 540.00 173.74 540.43
  Q 174.38 540.68 174.52 540.00
  Q 177.03 527.36 183.04 514.83
  Q 188.02 504.44 196.00 497.00
  Q 197.04 496.03 196.09 494.98
  Q 189.89 488.18 190.26 479.72
  C 190.37 477.01 190.42 474.37 190.83 471.73
  Q 197.93 424.98 217.21 382.56
  Q 218.37 380.03 221.15 380.08
  C 223.96 380.14 224.79 383.27 223.83 385.40
  Q 204.89 427.61 197.50 472.53
  Q 196.43 479.02 197.15 483.25
  Q 197.85 487.36 202.39 492.43
  Q 202.79 492.88 203.35 492.65
  Q 207.40 490.96 211.93 491.01
  Q 212.52 491.01 212.52 490.43
  Q 212.52 456.21 212.51 421.99
  C 212.51 419.25 214.51 417.45 217.18 417.48
  Q 237.28 417.69 255.22 417.32
  Q 255.92 417.30 255.55 416.70
  Q 249.66 407.17 246.50 397.11
  Q 240.65 378.46 237.72 359.40
  Q 235.03 341.93 233.75 320.66
  Q 233.29 312.94 233.59 307.02
  Q 233.62 306.40 233.02 306.56
  Q 227.68 308.02 221.98 310.95
  Q 187.31 328.72 169.66 360.31
  Q 160.45 376.78 155.08 389.81"
/>
<path stroke="#19274c" vector-effect="non-scaling-stroke" d="
  M 261.42 332.31
  C 251.96 330.28 245.06 324.31 240.83 315.89
  Q 240.13 314.50 240.20 316.05
  Q 241.07 335.14 243.99 354.54
  C 246.09 368.46 249.49 383.28 253.70 395.84
  Q 257.13 406.05 263.68 416.34
  A 1.51 1.49 73.5 0 0 264.97 417.05
  L 281.24 416.99
  Q 281.74 416.99 282.02 416.58
  Q 282.93 415.28 283.60 413.88
  Q 287.06 406.72 289.78 398.36
  Q 294.33 384.37 296.96 368.99
  Q 301.35 343.23 301.55 317.23
  Q 301.55 316.93 301.43 317.21
  C 294.99 332.44 275.88 335.40 261.42 332.31"
/>
<path stroke="#232322" vector-effect="non-scaling-stroke" d="
  M 219.93 493.45
  C 224.16 497.06 230.95 502.62 227.21 508.99
  Q 226.97 509.41 227.23 509.81
  C 231.92 517.21 234.42 523.15 236.38 530.97
  Q 236.84 532.79 238.72 532.70
  Q 251.14 532.06 264.03 531.94
  C 264.81 531.93 265.71 531.56 266.47 531.57
  Q 284.62 531.64 306.61 530.71
  Q 312.35 530.46 318.10 530.51
  Q 327.54 530.58 341.30 529.90
  Q 347.36 529.61 356.21 529.57
  Q 363.68 529.54 371.15 529.18
  C 375.86 528.95 380.80 529.19 385.56 528.74
  C 388.50 528.45 391.46 528.51 394.37 528.57
  Q 395.23 528.58 394.73 527.88
  Q 394.58 527.66 394.48 527.39
  Q 394.27 526.75 394.25 526.13
  Q 393.88 510.57 393.80 495.00
  Q 393.79 493.91 393.78 491.99
  Q 393.58 459.29 392.92 423.51
  Q 392.91 422.87 392.25 422.88
  L 220.49 424.80
  A 0.53 0.52 -0.6 0 0 219.97 425.32
  Q 219.98 460.21 219.91 490.15
  Q 219.90 491.40 219.65 492.62
  Q 219.55 493.12 219.93 493.45"
/>
<path stroke="#776865" vector-effect="non-scaling-stroke" d="
  M 206.19 505.09
  C 206.57 499.26 217.75 502.66 220.52 504.01
  Q 221.48 504.48 220.79 503.66
  Q 218.78 501.27 216.05 499.11
  C 211.61 495.58 203.62 499.08 200.22 502.19
  C 191.28 510.37 187.03 521.24 183.26 532.79
  Q 181.02 539.66 181.51 545.77
  Q 182.24 554.94 191.59 555.40
  Q 199.98 555.81 207.06 555.40
  Q 212.77 555.07 219.43 552.03
  C 226.53 548.78 231.07 542.79 229.84 534.82
  Q 228.47 525.95 222.57 515.90
  C 219.53 510.74 215.40 508.85 209.46 508.93
  C 207.03 508.96 206.04 507.32 206.19 505.09"
/>
<path stroke="#776865" vector-effect="non-scaling-stroke" d="
  M 401.90 528.02
  Q 401.66 528.09 401.45 528.22
  Q 400.71 528.65 401.57 528.61
  L 411.20 528.11
  Q 413.03 528.02 411.42 527.14
  Q 406.58 524.50 402.36 527.77
  A 1.74 1.70 15.9 0 1 401.90 528.02"
/>
<path stroke="#232322" vector-effect="non-scaling-stroke" d="
  M 442.94 534.18
  C 425.66 534.88 407.88 534.88 390.41 535.58
  Q 375.77 536.17 371.23 536.21
  Q 363.44 536.28 355.91 536.48
  Q 341.74 536.85 340.58 536.86
  Q 321.73 537.09 301.83 537.91
  C 290.35 538.38 278.41 538.07 266.53 538.92
  Q 265.14 539.02 266.51 539.23
  Q 270.43 539.82 274.92 540.22
  C 276.91 540.40 278.73 539.70 280.77 539.73
  Q 289.56 539.88 297.24 539.58
  Q 310.81 539.03 325.33 538.94
  C 339.20 538.85 353.56 537.82 367.14 537.76
  Q 377.54 537.71 386.29 537.37
  C 399.24 536.86 411.85 537.06 424.99 536.45
  Q 436.98 535.90 450.13 535.81
  C 464.53 535.72 478.90 534.63 493.30 534.73
  Q 500.71 534.78 507.97 534.29
  Q 508.66 534.24 508.74 533.56
  L 508.76 533.30
  Q 508.83 532.75 508.27 532.75
  C 501.64 532.78 495.03 533.33 488.59 533.30
  Q 474.53 533.23 459.33 534.00
  C 453.88 534.28 448.36 533.96 442.94 534.18"
/>
<path stroke="#776865" vector-effect="non-scaling-stroke" d="
  M 392.43 553.51
  C 401.34 557.01 412.84 556.09 420.98 550.08
  Q 424.08 547.78 424.80 543.75
  A 0.39 0.38 -86.3 0 0 424.41 543.30
  L 380.98 544.53
  Q 380.41 544.54 380.72 545.02
  C 383.10 548.75 388.65 552.03 392.43 553.51"
/>
<path stroke="#776865" vector-effect="non-scaling-stroke" d="
  M 306.8329 241.5930
  A 8.02 4.92 94.7 0 0 312.3935 234.0031
  A 8.02 4.92 94.7 0 0 308.1471 225.6070
  A 8.02 4.92 94.7 0 0 302.5865 233.1969
  A 8.02 4.92 94.7 0 0 306.8329 241.5930"
/>
<path stroke="#776865" vector-effect="non-scaling-stroke" d="
  M 341.1411 242.5877
  A 7.73 5.12 91.4 0 0 346.4485 234.9851
  A 7.73 5.12 91.4 0 0 341.5189 227.1323
  A 7.73 5.12 91.4 0 0 336.2115 234.7349
  A 7.73 5.12 91.4 0 0 341.1411 242.5877"
/>
<path stroke="#776865" vector-effect="non-scaling-stroke" d="
  M 223.68 251.20
  C 226.59 249.78 229.55 251.54 231.85 253.37
  C 234.05 255.13 238.18 254.86 237.83 251.15
  Q 237.68 249.67 236.53 248.65
  Q 230.78 243.54 223.07 244.00
  C 218.49 244.28 218.88 249.98 222.67 251.27
  Q 223.19 251.44 223.68 251.20"
/>
<path stroke="#776865" vector-effect="non-scaling-stroke" d="
  M 328.7637 256.9490
  A 4.72 3.54 -36.1 0 0 322.8642 256.8697
  A 4.72 3.54 -36.1 0 0 321.1363 262.5110
  A 4.72 3.54 -36.1 0 0 327.0358 262.5903
  A 4.72 3.54 -36.1 0 0 328.7637 256.9490"
/>
<path stroke="#776865" vector-effect="non-scaling-stroke" d="
  M 313.99 273.18
  C 308.95 270.30 304.88 275.51 310.32 278.64
  C 316.91 282.41 325.95 281.21 332.83 278.48
  Q 335.02 277.61 335.98 275.42
  C 337.20 272.60 334.12 270.18 331.44 271.56
  C 326.61 274.06 318.74 275.88 313.99 273.18"
/>
<path stroke="#4c5d7f" vector-effect="non-scaling-stroke" d="
  M 182.95 618.84
  Q 180.88 616.12 176.63 614.28"
/>
</g>
<path fill="#000000" d="
  M 364.87 410.88
  Q 362.03 413.44 359.70 412.04
  Q 358.53 411.33 358.06 409.54
  Q 357.54 407.50 357.56 406.36
  Q 357.72 399.32 356.32 393.23
  Q 350.84 369.47 339.61 346.98
  Q 328.72 325.20 308.30 311.98
  Q 307.78 311.65 307.81 312.26
  Q 308.72 335.10 305.24 361.92
  Q 301.31 392.16 290.48 416.47
  Q 290.15 417.19 290.92 417.00
  C 292.00 416.74 293.12 416.54 294.23 416.54
  C 310.35 416.50 326.04 416.64 343.24 416.24
  Q 353.51 415.99 363.84 416.09
  Q 370.60 415.94 377.50 415.84
  Q 378.76 415.82 380.25 415.73
  Q 387.03 415.33 393.73 415.52
  C 395.02 415.55 396.21 416.03 397.45 416.33
  C 399.43 416.81 400.15 418.57 400.03 420.44
  C 399.77 424.53 400.45 428.47 400.43 432.50
  Q 400.38 443.50 400.39 454.49
  C 400.40 470.33 401.08 486.91 401.00 503.15
  Q 400.98 507.48 401.33 511.80
  Q 401.65 515.71 401.28 520.01
  Q 401.23 520.59 401.79 520.42
  C 408.22 518.46 417.50 519.82 419.24 527.38
  Q 419.36 527.89 419.88 527.96
  Q 421.58 528.18 423.25 527.93
  C 428.33 527.16 433.78 527.56 438.83 527.53
  C 446.55 527.48 454.68 526.81 462.48 527.01
  C 463.59 527.04 464.55 526.52 465.52 526.54
  C 477.52 526.75 488.32 526.12 499.47 525.99
  Q 502.45 525.96 505.34 525.59
  Q 509.27 525.09 512.65 526.46
  Q 513.15 526.66 513.42 527.13
  Q 516.68 533.02 513.56 539.44
  C 512.93 540.74 511.09 541.47 509.69 541.45
  C 497.43 541.28 486.71 542.13 475.51 541.96
  Q 474.81 541.95 474.02 542.11
  Q 473.17 542.27 472.42 542.30
  Q 466.24 542.53 459.06 542.52
  C 450.68 542.50 441.59 543.19 432.94 543.01
  Q 431.48 542.98 431.61 544.44
  Q 431.63 544.65 431.69 545.31
  Q 431.74 545.78 431.61 546.20
  Q 429.05 554.59 420.80 558.40
  Q 412.26 562.34 403.45 562.35
  Q 402.02 562.35 400.70 562.13
  C 399.40 561.90 398.11 561.94 396.78 561.71
  Q 386.49 559.87 378.13 552.16
  Q 374.63 548.94 373.88 545.10
  A 0.80 0.80 0.0 0 0 373.05 544.46
  L 362.29 544.96
  A 0.49 0.48 80.1 0 0 361.86 545.59
  Q 366.78 561.83 368.20 576.53
  C 368.90 583.82 368.17 591.56 366.42 598.63
  C 364.63 605.89 359.27 610.92 352.56 614.37
  Q 352.10 614.60 352.28 615.09
  Q 355.61 624.20 356.82 633.99
  Q 357.10 636.25 357.45 638.44
  C 357.88 641.16 357.95 643.87 358.31 646.65
  Q 358.81 650.53 359.11 655.46
  Q 359.78 666.65 359.56 675.00
  C 359.40 680.71 359.85 686.66 359.11 692.14
  C 358.76 694.78 359.10 696.99 358.40 700.00
  L 351.39 700.00
  C 352.33 687.21 352.34 677.48 352.11 664.84
  Q 351.97 656.90 351.35 649.06
  C 350.51 638.36 349.34 628.28 345.90 618.17
  Q 345.77 617.78 345.40 617.95
  Q 337.28 621.63 328.32 623.50
  Q 304.97 628.35 277.62 630.36
  Q 268.36 631.05 258.05 631.06
  Q 242.91 631.07 233.72 630.23
  Q 220.36 629.00 204.01 626.23
  Q 197.45 625.12 191.00 623.50
  Q 184.89 621.97 182.95 618.84
  Q 183.39 613.48 188.25 614.97
  Q 199.49 618.43 208.79 619.85
  Q 222.90 622.01 237.37 623.37
  C 240.04 623.62 242.57 623.37 245.18 623.68
  C 250.96 624.38 257.17 624.01 262.91 624.00
  Q 265.73 624.00 268.64 623.79
  Q 271.39 623.58 274.47 623.41
  Q 287.49 622.71 309.27 619.64
  C 322.32 617.79 334.14 615.56 345.27 610.04
  Q 351.36 607.02 354.61 604.51
  Q 358.82 601.26 360.17 594.75
  Q 362.20 584.99 361.29 575.86
  Q 359.82 560.95 355.00 545.82
  Q 354.78 545.13 354.07 545.06
  C 351.24 544.78 348.55 545.58 345.70 545.52
  Q 333.52 545.26 322.20 545.92
  C 318.40 546.15 314.58 545.75 310.78 546.13
  C 301.73 547.02 292.26 546.31 283.64 546.84
  C 280.84 547.01 278.47 547.82 275.56 547.45
  Q 255.69 544.96 237.12 542.75
  Q 236.49 542.68 236.33 543.29
  Q 233.77 552.86 223.62 558.02
  C 214.84 562.48 205.15 563.33 195.25 562.89
  C 183.52 562.37 176.23 559.16 174.63 546.58
  Q 174.55 545.99 173.99 546.17
  Q 171.06 547.13 168.04 545.43
  Q 167.50 545.12 167.44 545.74
  Q 166.47 556.51 166.60 561.52
  Q 166.99 576.76 169.05 592.32
  Q 169.83 598.22 172.36 602.77
  Q 173.46 604.74 177.04 607.95
  Q 180.70 611.22 176.63 614.28
  Q 175.39 614.55 173.78 614.17
  Q 173.29 614.05 173.16 614.53
  Q 171.33 620.90 170.45 628.04
  Q 168.93 640.23 169.63 654.24
  Q 170.79 677.12 172.18 700.00
  L 164.96 700.00
  Q 164.50 689.85 163.91 679.73
  Q 163.36 670.25 162.92 660.75
  Q 162.86 659.55 162.74 658.74
  C 162.10 654.52 162.50 649.51 162.53 645.21
  Q 162.55 640.28 163.02 635.31
  Q 163.47 630.53 163.97 625.44
  Q 164.44 620.75 165.28 616.81
  Q 166.16 612.68 167.18 608.79
  Q 167.33 608.24 167.03 607.75
  Q 163.36 601.64 162.54 595.50
  Q 160.34 579.18 160.05 564.35
  Q 159.86 554.22 161.08 541.98
  Q 161.15 541.34 160.59 541.01
  Q 154.22 537.33 147.29 533.13
  C 140.00 528.72 133.17 522.70 129.79 514.92
  Q 126.86 508.17 125.80 499.62
  Q 124.25 487.17 125.50 474.84
  Q 128.28 447.44 135.46 423.71
  Q 141.04 405.24 147.92 388.24
  Q 154.24 372.62 165.83 352.31
  Q 166.10 351.84 165.55 351.79
  Q 155.99 350.90 148.49 345.24
  Q 138.51 337.71 137.94 323.99
  Q 137.72 318.73 139.39 314.10
  C 141.76 307.55 146.04 300.70 150.42 295.52
  Q 156.97 287.76 165.52 278.45
  Q 168.81 274.86 171.65 270.76
  C 175.11 265.77 178.57 260.33 179.72 254.32
  Q 179.82 253.80 179.50 253.37
  Q 175.67 248.37 179.67 243.60
  Q 180.09 243.10 180.69 242.86
  Q 181.46 242.54 181.36 241.71
  Q 179.13 221.60 180.32 206.73
  Q 181.42 192.82 187.71 178.78
  C 200.95 149.20 223.32 124.40 253.73 113.85
  Q 268.30 108.80 284.06 109.04
  Q 302.59 109.32 317.93 118.96
  C 320.55 120.60 323.40 123.40 326.68 123.52
  Q 329.71 123.62 332.60 124.42
  Q 354.16 130.39 368.66 148.21
  Q 382.99 165.83 383.50 189.48
  Q 383.51 189.97 384.00 189.97
  L 454.47 190.20
  Q 455.06 190.20 455.25 189.64
  Q 457.83 181.89 464.97 179.14
  C 474.12 175.62 483.85 180.54 486.53 189.91
  A 0.86 0.85 81.8 0 0 487.35 190.53
  Q 559.77 190.59 630.09 190.53
  C 632.48 190.53 635.01 191.46 635.15 194.24
  A 3.29 3.28 81.8 0 1 632.65 197.59
  Q 630.82 198.05 628.73 198.03
  Q 556.95 197.37 487.38 197.45
  Q 486.68 197.45 486.50 198.12
  Q 483.99 207.47 474.30 210.03
  Q 473.68 210.20 473.83 210.82
  Q 474.14 212.18 473.88 213.66
  Q 473.76 214.34 474.43 214.49
  Q 488.65 217.78 491.37 231.49
  Q 491.48 232.06 492.06 232.11
  Q 496.87 232.53 501.16 232.52
  Q 505.78 232.50 510.33 232.83
  Q 516.63 233.28 522.51 233.45
  Q 528.52 233.63 534.33 233.99
  Q 540.26 234.35 546.16 234.63
  Q 561.68 235.36 575.06 237.69
  Q 577.95 238.19 583.24 241.92
  C 592.35 248.35 600.99 256.13 609.80 264.07
  Q 611.85 265.91 614.41 267.31
  Q 618.81 269.71 620.86 275.07
  Q 624.08 283.42 625.18 290.61
  C 625.97 295.78 626.38 301.91 629.61 306.27
  Q 634.74 313.21 638.61 319.63
  Q 645.98 331.86 645.91 346.43
  Q 645.87 357.17 637.02 363.18
  C 627.49 369.64 617.15 371.42 605.84 372.64
  Q 595.15 373.80 585.11 374.10
  Q 584.49 374.12 584.49 374.74
  L 584.51 384.78
  Q 584.51 385.50 585.23 385.51
  Q 601.72 385.68 614.04 385.38
  Q 619.38 385.24 621.58 380.62
  Q 622.23 379.25 623.29 378.45
  C 624.97 377.18 627.83 377.66 628.35 379.95
  C 629.30 384.09 623.91 389.23 620.77 391.02
  Q 619.58 391.70 617.56 392.12
  Q 616.45 392.35 615.34 392.65
  Q 614.20 392.95 613.00 392.94
  Q 515.83 392.26 419.08 392.52
  A 3.35 3.32 56.1 0 1 417.79 392.26
  Q 414.52 390.85 414.68 389.03
  Q 415.00 385.45 418.72 385.47
  Q 432.77 385.53 448.93 385.55
  Q 449.51 385.55 449.51 384.97
  L 449.51 375.19
  Q 449.51 374.53 448.86 374.54
  Q 442.08 374.64 438.02 373.72
  Q 434.95 373.02 431.64 371.97
  Q 428.56 370.98 426.10 369.42
  C 419.20 365.02 413.86 359.77 409.17 352.94
  Q 396.63 334.67 383.57 316.49
  Q 383.30 316.12 382.85 316.03
  Q 351.63 310.12 320.47 304.23
  Q 316.78 303.54 313.31 303.54
  Q 309.69 303.55 306.11 302.67
  Q 304.72 302.32 305.98 303.00
  Q 324.54 312.98 337.18 329.76
  Q 342.61 336.97 347.43 346.79
  Q 357.09 366.47 362.36 387.24
  Q 365.37 399.09 364.87 410.88
  Z
  M 246.30 223.22
  C 248.26 229.38 241.82 228.31 238.11 227.26
  Q 236.16 226.70 232.75 226.92
  C 222.79 227.54 212.35 234.31 208.73 243.75
  Q 207.28 247.52 207.63 250.66
  C 209.34 265.84 221.34 272.63 235.96 272.03
  C 239.66 271.88 242.22 276.96 242.71 279.92
  C 243.42 284.19 244.90 288.64 244.34 292.50
  Q 243.16 300.64 244.95 307.82
  C 246.85 315.42 253.42 322.83 260.75 324.84
  C 270.11 327.41 280.85 326.89 289.08 321.45
  Q 292.15 319.43 293.61 316.80
  C 295.40 313.55 296.97 309.81 297.37 306.12
  Q 297.66 303.43 298.60 300.87
  Q 298.82 300.27 298.21 300.07
  C 290.22 297.48 282.18 294.68 275.01 290.22
  Q 272.98 288.95 273.47 286.61
  Q 273.80 285.04 276.09 284.45
  A 2.78 2.76 -37.9 0 1 278.09 284.69
  Q 288.22 290.09 304.85 295.24
  Q 311.77 297.38 317.24 296.71
  Q 324.62 295.81 330.77 292.00
  C 345.79 282.68 354.82 268.46 357.79 251.04
  Q 359.37 241.74 360.52 230.79
  Q 361.01 226.15 360.20 219.01
  Q 359.93 216.59 361.36 216.21
  Q 363.75 214.54 365.38 215.69
  C 367.46 217.15 367.42 221.67 367.29 224.13
  Q 367.20 225.74 368.13 224.42
  C 369.76 222.09 370.39 220.53 369.97 217.54
  Q 366.27 190.80 341.02 178.47
  Q 338.11 177.05 336.74 176.58
  Q 336.26 176.42 335.98 176.84
  L 333.32 180.85
  Q 328.92 186.87 327.44 188.44
  C 310.32 206.62 288.51 220.12 265.07 228.80
  Q 261.24 230.21 257.03 231.20
  C 255.52 231.56 254.11 231.18 252.58 231.28
  C 248.80 231.51 247.11 226.57 250.92 225.60
  Q 257.74 224.69 267.21 220.72
  Q 297.35 208.07 317.49 188.33
  Q 323.85 182.09 328.61 175.24
  Q 329.87 173.43 330.63 171.28
  Q 330.81 170.77 331.27 170.48
  Q 333.99 168.74 337.51 170.01
  C 355.10 176.34 368.36 188.24 374.29 206.06
  Q 374.65 207.14 374.83 206.02
  C 375.82 199.74 376.87 192.95 376.28 186.54
  Q 375.31 175.90 372.41 168.74
  Q 361.16 140.96 332.45 131.25
  Q 328.03 129.76 322.47 129.83
  Q 321.16 129.85 320.11 129.11
  C 310.52 122.30 300.67 117.50 288.80 116.51
  Q 265.78 114.60 244.40 125.73
  C 222.15 137.31 206.33 156.48 195.36 179.08
  Q 185.66 199.05 186.47 220.89
  Q 186.85 231.07 187.72 239.95
  Q 187.77 240.42 188.24 240.48
  Q 193.96 241.27 199.84 243.06
  Q 201.54 243.58 202.06 241.88
  Q 203.41 237.41 206.68 233.35
  Q 216.83 220.71 233.00 219.66
  Q 235.09 219.52 237.33 219.87
  C 240.52 220.37 244.23 220.47 246.30 223.22
  Z
  M 462.49 208.28
  Q 456.82 204.70 455.06 197.96
  Q 454.92 197.47 454.41 197.46
  Q 424.72 197.43 394.12 197.49
  C 390.57 197.50 387.29 196.70 383.70 197.07
  A 0.68 0.67 89.0 0 0 383.10 197.70
  Q 382.16 210.53 377.44 221.98
  Q 376.58 224.07 375.41 225.98
  C 373.72 228.76 372.18 232.30 368.07 230.91
  Q 367.52 230.73 367.49 231.30
  Q 366.47 246.92 362.67 261.90
  Q 362.50 262.56 363.18 262.56
  L 387.58 262.58
  Q 388.23 262.58 388.48 261.98
  C 392.25 253.10 395.18 244.93 403.65 240.26
  Q 412.18 235.56 422.01 233.94
  Q 435.40 231.74 450.16 232.04
  A 0.59 0.59 0.0 0 0 450.76 231.34
  C 450.53 230.14 450.32 229.14 450.71 227.94
  C 453.09 220.63 459.41 215.67 466.90 214.58
  Q 467.62 214.47 467.56 213.75
  L 467.33 210.78
  Q 467.28 210.14 466.68 209.92
  C 465.26 209.39 463.78 209.09 462.49 208.28
  Z
  M 358.08 273.14
  Q 354.40 280.10 348.28 287.03
  Q 341.74 293.65 333.24 298.84
  Q 332.76 299.13 333.31 299.23
  Q 358.36 304.00 383.38 308.68
  C 385.21 309.03 387.67 309.46 388.65 310.86
  Q 398.02 324.17 407.19 337.26
  Q 415.46 349.57 420.83 355.92
  Q 429.55 366.24 442.83 367.03
  L 549.49 367.03
  Q 578.57 367.39 592.75 366.41
  Q 599.17 365.97 603.13 365.75
  Q 609.39 365.41 612.84 364.88
  C 619.91 363.79 625.98 362.31 631.66 358.65
  Q 637.39 354.97 638.55 348.28
  Q 639.27 344.13 637.69 336.71
  Q 636.14 329.13 632.01 322.51
  Q 628.28 316.52 625.08 311.91
  Q 622.06 307.55 621.05 304.72
  Q 619.63 300.77 619.24 296.56
  C 618.45 290.00 616.84 283.01 614.64 277.24
  Q 613.05 273.07 607.08 270.91
  Q 606.24 270.60 605.51 269.99
  Q 604.60 269.24 604.07 268.77
  Q 591.74 256.84 578.39 247.29
  C 575.80 245.44 572.91 244.44 569.93 244.04
  Q 557.10 242.29 544.25 241.71
  C 535.32 241.30 526.84 240.66 517.89 240.41
  C 510.66 240.20 503.32 239.63 496.03 239.45
  Q 491.73 239.34 485.00 239.12
  Q 466.37 238.51 443.00 239.14
  C 430.57 239.48 418.99 240.31 408.05 245.81
  Q 402.04 248.83 399.12 254.42
  C 396.99 258.53 395.32 262.64 393.74 266.94
  A 3.87 3.86 10.1 0 1 390.11 269.47
  Q 384.20 269.48 378.48 269.46
  Q 376.40 269.45 369.53 269.07
  Q 365.05 268.82 360.55 269.06
  Q 360.04 269.08 359.82 269.54
  L 358.08 273.14
  Z
  M 184.69 248.89
  C 186.81 252.81 197.04 254.55 200.91 254.80
  Q 201.26 254.83 201.21 254.48
  L 200.62 249.80
  A 0.27 0.27 0.0 0 0 200.39 249.56
  Q 195.83 248.83 191.25 247.70
  Q 189.13 247.17 185.01 248.18
  Q 184.39 248.33 184.69 248.89
  Z
  M 169.22 345.10
  L 169.67 345.52
  Q 170.13 345.95 170.50 345.44
  Q 190.39 317.77 221.88 303.08
  Q 226.46 300.94 235.08 298.34
  Q 235.55 298.20 236.04 298.26
  Q 236.19 298.28 236.33 298.33
  Q 237.07 298.53 237.17 297.77
  Q 238.42 288.07 235.78 279.16
  Q 235.57 278.44 234.83 278.46
  C 221.84 278.81 210.06 274.01 203.87 262.33
  Q 203.59 261.79 202.99 261.79
  Q 194.01 261.66 186.30 258.33
  Q 185.76 258.10 185.56 258.65
  Q 181.15 270.97 171.54 281.83
  Q 164.34 289.96 156.86 298.71
  C 151.65 304.81 144.45 315.43 145.04 323.87
  Q 146.07 338.60 160.32 343.46
  C 162.92 344.35 165.19 344.50 167.85 344.55
  A 2.05 2.04 66.7 0 1 169.22 345.10
  Z
  M 155.08 389.81
  Q 151.06 399.58 146.88 411.66
  Q 133.98 449.02 132.12 483.20
  Q 131.65 491.75 133.54 503.32
  C 135.23 513.71 140.56 520.76 149.58 526.51
  Q 159.75 533.00 170.32 539.22
  C 171.37 539.84 172.62 540.00 173.74 540.43
  Q 174.38 540.68 174.52 540.00
  Q 177.03 527.36 183.04 514.83
  Q 188.02 504.44 196.00 497.00
  Q 197.04 496.03 196.09 494.98
  Q 189.89 488.18 190.26 479.72
  C 190.37 477.01 190.42 474.37 190.83 471.73
  Q 197.93 424.98 217.21 382.56
  Q 218.37 380.03 221.15 380.08
  C 223.96 380.14 224.79 383.27 223.83 385.40
  Q 204.89 427.61 197.50 472.53
  Q 196.43 479.02 197.15 483.25
  Q 197.85 487.36 202.39 492.43
  Q 202.79 492.88 203.35 492.65
  Q 207.40 490.96 211.93 491.01
  Q 212.52 491.01 212.52 490.43
  Q 212.52 456.21 212.51 421.99
  C 212.51 419.25 214.51 417.45 217.18 417.48
  Q 237.28 417.69 255.22 417.32
  Q 255.92 417.30 255.55 416.70
  Q 249.66 407.17 246.50 397.11
  Q 240.65 378.46 237.72 359.40
  Q 235.03 341.93 233.75 320.66
  Q 233.29 312.94 233.59 307.02
  Q 233.62 306.40 233.02 306.56
  Q 227.68 308.02 221.98 310.95
  Q 187.31 328.72 169.66 360.31
  Q 160.45 376.78 155.08 389.81
  Z
  M 261.42 332.31
  C 251.96 330.28 245.06 324.31 240.83 315.89
  Q 240.13 314.50 240.20 316.05
  Q 241.07 335.14 243.99 354.54
  C 246.09 368.46 249.49 383.28 253.70 395.84
  Q 257.13 406.05 263.68 416.34
  A 1.51 1.49 73.5 0 0 264.97 417.05
  L 281.24 416.99
  Q 281.74 416.99 282.02 416.58
  Q 282.93 415.28 283.60 413.88
  Q 287.06 406.72 289.78 398.36
  Q 294.33 384.37 296.96 368.99
  Q 301.35 343.23 301.55 317.23
  Q 301.55 316.93 301.43 317.21
  C 294.99 332.44 275.88 335.40 261.42 332.31
  Z
  M 577.45 374.85
  A 0.37 0.37 0.0 0 0 577.08 374.48
  L 457.34 374.48
  A 0.37 0.37 0.0 0 0 456.97 374.85
  L 456.97 385.17
  A 0.37 0.37 0.0 0 0 457.34 385.54
  L 577.08 385.54
  A 0.37 0.37 0.0 0 0 577.45 385.17
  L 577.45 374.85
  Z
  M 219.93 493.45
  C 224.16 497.06 230.95 502.62 227.21 508.99
  Q 226.97 509.41 227.23 509.81
  C 231.92 517.21 234.42 523.15 236.38 530.97
  Q 236.84 532.79 238.72 532.70
  Q 251.14 532.06 264.03 531.94
  C 264.81 531.93 265.71 531.56 266.47 531.57
  Q 284.62 531.64 306.61 530.71
  Q 312.35 530.46 318.10 530.51
  Q 327.54 530.58 341.30 529.90
  Q 347.36 529.61 356.21 529.57
  Q 363.68 529.54 371.15 529.18
  C 375.86 528.95 380.80 529.19 385.56 528.74
  C 388.50 528.45 391.46 528.51 394.37 528.57
  Q 395.23 528.58 394.73 527.88
  Q 394.58 527.66 394.48 527.39
  Q 394.27 526.75 394.25 526.13
  Q 393.88 510.57 393.80 495.00
  Q 393.79 493.91 393.78 491.99
  Q 393.58 459.29 392.92 423.51
  Q 392.91 422.87 392.25 422.88
  L 220.49 424.80
  A 0.53 0.52 -0.6 0 0 219.97 425.32
  Q 219.98 460.21 219.91 490.15
  Q 219.90 491.40 219.65 492.62
  Q 219.55 493.12 219.93 493.45
  Z
  M 206.19 505.09
  C 206.57 499.26 217.75 502.66 220.52 504.01
  Q 221.48 504.48 220.79 503.66
  Q 218.78 501.27 216.05 499.11
  C 211.61 495.58 203.62 499.08 200.22 502.19
  C 191.28 510.37 187.03 521.24 183.26 532.79
  Q 181.02 539.66 181.51 545.77
  Q 182.24 554.94 191.59 555.40
  Q 199.98 555.81 207.06 555.40
  Q 212.77 555.07 219.43 552.03
  C 226.53 548.78 231.07 542.79 229.84 534.82
  Q 228.47 525.95 222.57 515.90
  C 219.53 510.74 215.40 508.85 209.46 508.93
  C 207.03 508.96 206.04 507.32 206.19 505.09
  Z
  M 401.90 528.02
  Q 401.66 528.09 401.45 528.22
  Q 400.71 528.65 401.57 528.61
  L 411.20 528.11
  Q 413.03 528.02 411.42 527.14
  Q 406.58 524.50 402.36 527.77
  A 1.74 1.70 15.9 0 1 401.90 528.02
  Z
  M 442.94 534.18
  C 425.66 534.88 407.88 534.88 390.41 535.58
  Q 375.77 536.17 371.23 536.21
  Q 363.44 536.28 355.91 536.48
  Q 341.74 536.85 340.58 536.86
  Q 321.73 537.09 301.83 537.91
  C 290.35 538.38 278.41 538.07 266.53 538.92
  Q 265.14 539.02 266.51 539.23
  Q 270.43 539.82 274.92 540.22
  C 276.91 540.40 278.73 539.70 280.77 539.73
  Q 289.56 539.88 297.24 539.58
  Q 310.81 539.03 325.33 538.94
  C 339.20 538.85 353.56 537.82 367.14 537.76
  Q 377.54 537.71 386.29 537.37
  C 399.24 536.86 411.85 537.06 424.99 536.45
  Q 436.98 535.90 450.13 535.81
  C 464.53 535.72 478.90 534.63 493.30 534.73
  Q 500.71 534.78 507.97 534.29
  Q 508.66 534.24 508.74 533.56
  L 508.76 533.30
  Q 508.83 532.75 508.27 532.75
  C 501.64 532.78 495.03 533.33 488.59 533.30
  Q 474.53 533.23 459.33 534.00
  C 453.88 534.28 448.36 533.96 442.94 534.18
  Z
  M 392.43 553.51
  C 401.34 557.01 412.84 556.09 420.98 550.08
  Q 424.08 547.78 424.80 543.75
  A 0.39 0.38 -86.3 0 0 424.41 543.30
  L 380.98 544.53
  Q 380.41 544.54 380.72 545.02
  C 383.10 548.75 388.65 552.03 392.43 553.51
  Z"
/>
<path fill="#3f332d" d="
  M 250.92 225.60
  Q 249.30 223.51 246.30 223.22
  C 244.23 220.47 240.52 220.37 237.33 219.87
  Q 235.09 219.52 233.00 219.66
  Q 216.83 220.71 206.68 233.35
  Q 203.41 237.41 202.06 241.88
  Q 201.54 243.58 199.84 243.06
  Q 193.96 241.27 188.24 240.48
  Q 187.77 240.42 187.72 239.95
  Q 186.85 231.07 186.47 220.89
  Q 185.66 199.05 195.36 179.08
  C 206.33 156.48 222.15 137.31 244.40 125.73
  Q 265.78 114.60 288.80 116.51
  C 300.67 117.50 310.52 122.30 320.11 129.11
  Q 321.16 129.85 322.47 129.83
  Q 328.03 129.76 332.45 131.25
  Q 361.16 140.96 372.41 168.74
  Q 375.31 175.90 376.28 186.54
  C 376.87 192.95 375.82 199.74 374.83 206.02
  Q 374.65 207.14 374.29 206.06
  C 368.36 188.24 355.10 176.34 337.51 170.01
  Q 333.99 168.74 331.27 170.48
  Q 330.81 170.77 330.63 171.28
  Q 329.87 173.43 328.61 175.24
  Q 323.85 182.09 317.49 188.33
  Q 297.35 208.07 267.21 220.72
  Q 257.74 224.69 250.92 225.60
  Z"
/>
<path fill="#3f332d" d="
  M 361.36 216.21
  Q 360.39 209.53 356.00 202.51
  Q 347.22 188.46 333.32 180.85
  L 335.98 176.84
  Q 336.26 176.42 336.74 176.58
  Q 338.11 177.05 341.02 178.47
  Q 366.27 190.80 369.97 217.54
  C 370.39 220.53 369.76 222.09 368.13 224.42
  Q 367.20 225.74 367.29 224.13
  C 367.42 221.67 367.46 217.15 365.38 215.69
  Q 363.75 214.54 361.36 216.21
  Z"
/>
<path fill="#eed0ca" d="
  M 333.32 180.85
  Q 347.22 188.46 356.00 202.51
  Q 360.39 209.53 361.36 216.21
  Q 359.93 216.59 360.20 219.01
  Q 361.01 226.15 360.52 230.79
  Q 359.37 241.74 357.79 251.04
  C 354.82 268.46 345.79 282.68 330.77 292.00
  Q 324.62 295.81 317.24 296.71
  Q 311.77 297.38 304.85 295.24
  Q 288.22 290.09 278.09 284.69
  A 2.78 2.76 -37.9 0 0 276.09 284.45
  Q 273.80 285.04 273.47 286.61
  Q 272.98 288.95 275.01 290.22
  C 282.18 294.68 290.22 297.48 298.21 300.07
  Q 298.82 300.27 298.60 300.87
  Q 297.66 303.43 297.37 306.12
  C 296.97 309.81 295.40 313.55 293.61 316.80
  Q 292.15 319.43 289.08 321.45
  C 280.85 326.89 270.11 327.41 260.75 324.84
  C 253.42 322.83 246.85 315.42 244.95 307.82
  Q 243.16 300.64 244.34 292.50
  C 244.90 288.64 243.42 284.19 242.71 279.92
  C 242.22 276.96 239.66 271.88 235.96 272.03
  C 221.34 272.63 209.34 265.84 207.63 250.66
  Q 207.28 247.52 208.73 243.75
  C 212.35 234.31 222.79 227.54 232.75 226.92
  Q 236.16 226.70 238.11 227.26
  C 241.82 228.31 248.26 229.38 246.30 223.22
  Q 249.30 223.51 250.92 225.60
  C 247.11 226.57 248.80 231.51 252.58 231.28
  C 254.11 231.18 255.52 231.56 257.03 231.20
  Q 261.24 230.21 265.07 228.80
  C 288.51 220.12 310.32 206.62 327.44 188.44
  Q 328.92 186.87 333.32 180.85
  Z
  M 306.8329 241.5930
  A 8.02 4.92 94.7 0 0 312.3935 234.0031
  A 8.02 4.92 94.7 0 0 308.1471 225.6070
  A 8.02 4.92 94.7 0 0 302.5865 233.1969
  A 8.02 4.92 94.7 0 0 306.8329 241.5930
  Z
  M 341.1411 242.5877
  A 7.73 5.12 91.4 0 0 346.4485 234.9851
  A 7.73 5.12 91.4 0 0 341.5189 227.1323
  A 7.73 5.12 91.4 0 0 336.2115 234.7349
  A 7.73 5.12 91.4 0 0 341.1411 242.5877
  Z
  M 223.68 251.20
  C 226.59 249.78 229.55 251.54 231.85 253.37
  C 234.05 255.13 238.18 254.86 237.83 251.15
  Q 237.68 249.67 236.53 248.65
  Q 230.78 243.54 223.07 244.00
  C 218.49 244.28 218.88 249.98 222.67 251.27
  Q 223.19 251.44 223.68 251.20
  Z
  M 328.7637 256.9490
  A 4.72 3.54 -36.1 0 0 322.8642 256.8697
  A 4.72 3.54 -36.1 0 0 321.1363 262.5110
  A 4.72 3.54 -36.1 0 0 327.0358 262.5903
  A 4.72 3.54 -36.1 0 0 328.7637 256.9490
  Z
  M 313.99 273.18
  C 308.95 270.30 304.88 275.51 310.32 278.64
  C 316.91 282.41 325.95 281.21 332.83 278.48
  Q 335.02 277.61 335.98 275.42
  C 337.20 272.60 334.12 270.18 331.44 271.56
  C 326.61 274.06 318.74 275.88 313.99 273.18
  Z"
/>
<ellipse fill="#000000" cx="0.00" cy="0.00" transform="translate(307.49,233.60) rotate(94.7)" rx="8.02" ry="4.92"/>
<ellipse fill="#000000" cx="0.00" cy="0.00" transform="translate(341.33,234.86) rotate(91.4)" rx="7.73" ry="5.12"/>
<path fill="#cbcac9" d="
  M 604.07 268.77
  Q 594.84 269.17 586.14 269.38
  Q 581.01 269.51 580.24 274.88
  Q 580.20 275.14 580.00 275.32
  Q 579.82 275.47 579.78 275.76
  L 569.80 275.51
  Q 569.73 271.71 567.21 269.96
  Q 565.51 268.78 562.04 268.76
  Q 527.99 268.51 494.19 268.14
  C 492.26 268.12 489.81 267.92 488.26 269.08
  Q 485.88 270.88 486.28 274.38
  L 358.08 273.14
  L 359.82 269.54
  Q 360.04 269.08 360.55 269.06
  Q 365.05 268.82 369.53 269.07
  Q 376.40 269.45 378.48 269.46
  Q 384.20 269.48 390.11 269.47
  A 3.87 3.86 10.1 0 0 393.74 266.94
  C 395.32 262.64 396.99 258.53 399.12 254.42
  Q 402.04 248.83 408.05 245.81
  C 418.99 240.31 430.57 239.48 443.00 239.14
  Q 466.37 238.51 485.00 239.12
  Q 491.73 239.34 496.03 239.45
  C 503.32 239.63 510.66 240.20 517.89 240.41
  C 526.84 240.66 535.32 241.30 544.25 241.71
  Q 557.10 242.29 569.93 244.04
  C 572.91 244.44 575.80 245.44 578.39 247.29
  Q 591.74 256.84 604.07 268.77
  Z"
/>
<path fill="#000000" d="
  M 231.85 253.37
  C 229.55 251.54 226.59 249.78 223.68 251.20
  Q 223.19 251.44 222.67 251.27
  C 218.88 249.98 218.49 244.28 223.07 244.00
  Q 230.78 243.54 236.53 248.65
  Q 237.68 249.67 237.83 251.15
  C 238.18 254.86 234.05 255.13 231.85 253.37
  Z"
/>
<path fill="#7b9ee4" d="
  M 200.91 254.80
  C 197.04 254.55 186.81 252.81 184.69 248.89
  Q 184.39 248.33 185.01 248.18
  Q 189.13 247.17 191.25 247.70
  Q 195.83 248.83 200.39 249.56
  A 0.27 0.27 0.0 0 1 200.62 249.80
  L 201.21 254.48
  Q 201.26 254.83 200.91 254.80
  Z"
/>
<ellipse fill="#000000" cx="0.00" cy="0.00" transform="translate(324.95,259.73) rotate(-36.1)" rx="4.72" ry="3.54"/>
<path fill="#3f332d" d="
  M 167.85 344.55
  C 165.19 344.50 162.92 344.35 160.32 343.46
  Q 146.07 338.60 145.04 323.87
  C 144.45 315.43 151.65 304.81 156.86 298.71
  Q 164.34 289.96 171.54 281.83
  Q 181.15 270.97 185.56 258.65
  Q 185.76 258.10 186.30 258.33
  Q 194.01 261.66 202.99 261.79
  Q 203.59 261.79 203.87 262.33
  C 210.06 274.01 221.84 278.81 234.83 278.46
  Q 235.57 278.44 235.78 279.16
  Q 238.42 288.07 237.17 297.77
  Q 237.07 298.53 236.33 298.33
  Q 236.19 298.28 236.04 298.26
  Q 235.55 298.20 235.08 298.34
  Q 226.46 300.94 221.88 303.08
  Q 190.39 317.77 170.50 345.44
  Q 170.13 345.95 169.67 345.52
  L 169.22 345.10
  A 2.05 2.04 66.7 0 0 167.85 344.55
  Z"
/>
<path fill="#7b9ee4" d="
  M 569.80 275.51
  L 570.00 289.80
  Q 570.28 294.18 567.03 296.04
  C 565.25 297.06 562.60 296.82 560.50 296.82
  Q 527.37 296.81 491.75 296.42
  Q 485.85 296.36 486.70 288.71
  L 486.28 274.38
  Q 485.88 270.88 488.26 269.08
  C 489.81 267.92 492.26 268.12 494.19 268.14
  Q 527.99 268.51 562.04 268.76
  Q 565.51 268.78 567.21 269.96
  Q 569.73 271.71 569.80 275.51
  Z"
/>
<path fill="#7b9ee4" d="
  M 604.07 268.77
  Q 604.60 269.24 605.51 269.99
  Q 606.24 270.60 607.08 270.91
  Q 613.05 273.07 614.64 277.24
  C 616.84 283.01 618.45 290.00 619.24 296.56
  Q 603.04 297.02 587.00 297.32
  Q 583.73 297.39 581.25 294.64
  Q 580.91 294.27 580.87 293.76
  L 580.62 289.87
  L 580.17 275.95
  Q 580.17 275.78 580.01 275.71
  Q 579.88 275.65 579.78 275.76
  Q 579.82 275.47 580.00 275.32
  Q 580.20 275.14 580.24 274.88
  Q 581.01 269.51 586.14 269.38
  Q 594.84 269.17 604.07 268.77
  Z"
/>
<path fill="#000000" d="
  M 313.99 273.18
  C 318.74 275.88 326.61 274.06 331.44 271.56
  C 334.12 270.18 337.20 272.60 335.98 275.42
  Q 335.02 277.61 332.83 278.48
  C 325.95 281.21 316.91 282.41 310.32 278.64
  C 304.88 275.51 308.95 270.30 313.99 273.18
  Z"
/>
<path fill="#983f0a" d="
  M 358.08 273.14
  L 486.28 274.38
  L 486.70 288.71
  L 348.28 287.03
  Q 354.40 280.10 358.08 273.14
  Z"
/>
<path fill="#983f0a" d="
  M 569.80 275.51
  L 579.78 275.76
  Q 579.88 275.65 580.01 275.71
  Q 580.17 275.78 580.17 275.95
  L 580.62 289.87
  L 570.00 289.80
  L 569.80 275.51
  Z"
/>
<path fill="#cbcac9" d="
  M 348.28 287.03
  L 486.70 288.71
  Q 485.85 296.36 491.75 296.42
  Q 527.37 296.81 560.50 296.82
  C 562.60 296.82 565.25 297.06 567.03 296.04
  Q 570.28 294.18 570.00 289.80
  L 580.62 289.87
  L 580.87 293.76
  Q 580.91 294.27 581.25 294.64
  Q 583.73 297.39 587.00 297.32
  Q 603.04 297.02 619.24 296.56
  Q 619.63 300.77 621.05 304.72
  Q 622.06 307.55 625.08 311.91
  Q 628.28 316.52 632.01 322.51
  Q 636.14 329.13 637.69 336.71
  L 407.19 337.26
  Q 398.02 324.17 388.65 310.86
  C 387.67 309.46 385.21 309.03 383.38 308.68
  Q 358.36 304.00 333.31 299.23
  Q 332.76 299.13 333.24 298.84
  Q 341.74 293.65 348.28 287.03
  Z"
/>
<path fill="#314d97" d="
  M 155.08 389.81
  Q 160.45 376.78 169.66 360.31
  Q 187.31 328.72 221.98 310.95
  Q 227.68 308.02 233.02 306.56
  Q 233.62 306.40 233.59 307.02
  Q 233.29 312.94 233.75 320.66
  Q 235.03 341.93 237.72 359.40
  Q 240.65 378.46 246.50 397.11
  Q 249.66 407.17 255.55 416.70
  Q 255.92 417.30 255.22 417.32
  Q 237.28 417.69 217.18 417.48
  C 214.51 417.45 212.51 419.25 212.51 421.99
  Q 212.52 456.21 212.52 490.43
  Q 212.52 491.01 211.93 491.01
  Q 207.40 490.96 203.35 492.65
  Q 202.79 492.88 202.39 492.43
  Q 197.85 487.36 197.15 483.25
  Q 196.43 479.02 197.50 472.53
  Q 204.89 427.61 223.83 385.40
  C 224.79 383.27 223.96 380.14 221.15 380.08
  Q 218.37 380.03 217.21 382.56
  Q 197.93 424.98 190.83 471.73
  C 190.42 474.37 190.37 477.01 190.26 479.72
  Q 189.89 488.18 196.09 494.98
  Q 197.04 496.03 196.00 497.00
  Q 188.02 504.44 183.04 514.83
  Q 177.03 527.36 174.52 540.00
  Q 174.38 540.68 173.74 540.43
  C 172.62 540.00 171.37 539.84 170.32 539.22
  Q 159.75 533.00 149.58 526.51
  C 140.56 520.76 135.23 513.71 133.54 503.32
  Q 131.65 491.75 132.12 483.20
  Q 133.98 449.02 146.88 411.66
  Q 151.06 399.58 155.08 389.81
  Z"
/>
<path fill="#314d97" d="
  M 364.87 410.88
  L 363.84 416.09
  Q 353.51 415.99 343.24 416.24
  C 326.04 416.64 310.35 416.50 294.23 416.54
  C 293.12 416.54 292.00 416.74 290.92 417.00
  Q 290.15 417.19 290.48 416.47
  Q 301.31 392.16 305.24 361.92
  Q 308.72 335.10 307.81 312.26
  Q 307.78 311.65 308.30 311.98
  Q 328.72 325.20 339.61 346.98
  Q 350.84 369.47 356.32 393.23
  Q 357.72 399.32 357.56 406.36
  Q 357.54 407.50 358.06 409.54
  Q 358.53 411.33 359.70 412.04
  Q 362.03 413.44 364.87 410.88
  Z"
/>
<path fill="#314d97" d="
  M 261.42 332.31
  C 275.88 335.40 294.99 332.44 301.43 317.21
  Q 301.55 316.93 301.55 317.23
  Q 301.35 343.23 296.96 368.99
  Q 294.33 384.37 289.78 398.36
  Q 287.06 406.72 283.60 413.88
  Q 282.93 415.28 282.02 416.58
  Q 281.74 416.99 281.24 416.99
  L 264.97 417.05
  A 1.51 1.49 73.5 0 1 263.68 416.34
  Q 257.13 406.05 253.70 395.84
  C 249.49 383.28 246.09 368.46 243.99 354.54
  Q 241.07 335.14 240.20 316.05
  Q 240.13 314.50 240.83 315.89
  C 245.06 324.31 251.96 330.28 261.42 332.31
  Z"
/>
<path fill="#983f0a" d="
  M 637.69 336.71
  Q 639.27 344.13 638.55 348.28
  Q 637.39 354.97 631.66 358.65
  C 625.98 362.31 619.91 363.79 612.84 364.88
  Q 609.39 365.41 603.13 365.75
  Q 599.17 365.97 592.75 366.41
  Q 578.57 367.39 549.49 367.03
  C 550.19 357.16 537.97 355.83 531.09 355.81
  Q 501.87 355.72 473.03 355.29
  C 464.89 355.17 458.13 355.54 451.01 357.01
  Q 442.18 358.83 442.83 367.03
  Q 429.55 366.24 420.83 355.92
  Q 415.46 349.57 407.19 337.26
  L 637.69 336.71
  Z"
/>
<path fill="#723811" d="
  M 549.49 367.03
  L 442.83 367.03
  Q 442.18 358.83 451.01 357.01
  C 458.13 355.54 464.89 355.17 473.03 355.29
  Q 501.87 355.72 531.09 355.81
  C 537.97 355.83 550.19 357.16 549.49 367.03
  Z"
/>
<path fill="#464544" d="
  M 227.21 508.99
  C 230.95 502.62 224.16 497.06 219.93 493.45
  Q 219.55 493.12 219.65 492.62
  Q 219.90 491.40 219.91 490.15
  Q 219.98 460.21 219.97 425.32
  A 0.53 0.52 -0.6 0 1 220.49 424.80
  L 392.25 422.88
  Q 392.91 422.87 392.92 423.51
  Q 393.58 459.29 393.78 491.99
  Q 393.79 493.91 393.80 495.00
  Q 393.88 510.57 394.25 526.13
  Q 394.27 526.75 394.48 527.39
  Q 394.58 527.66 394.73 527.88
  Q 395.23 528.58 394.37 528.57
  C 391.46 528.51 388.50 528.45 385.56 528.74
  C 380.80 529.19 375.86 528.95 371.15 529.18
  Q 363.68 529.54 356.21 529.57
  Q 347.36 529.61 341.30 529.90
  Q 327.54 530.58 318.10 530.51
  Q 312.35 530.46 306.61 530.71
  Q 284.62 531.64 266.47 531.57
  C 265.71 531.56 264.81 531.93 264.03 531.94
  Q 251.14 532.06 238.72 532.70
  Q 236.84 532.79 236.38 530.97
  C 234.42 523.15 231.92 517.21 227.23 509.81
  Q 226.97 509.41 227.21 508.99
  Z"
/>
<path fill="#eed0ca" d="
  M 206.19 505.09
  C 206.04 507.32 207.03 508.96 209.46 508.93
  C 215.40 508.85 219.53 510.74 222.57 515.90
  Q 228.47 525.95 229.84 534.82
  C 231.07 542.79 226.53 548.78 219.43 552.03
  Q 212.77 555.07 207.06 555.40
  Q 199.98 555.81 191.59 555.40
  Q 182.24 554.94 181.51 545.77
  Q 181.02 539.66 183.26 532.79
  C 187.03 521.24 191.28 510.37 200.22 502.19
  C 203.62 499.08 211.61 495.58 216.05 499.11
  Q 218.78 501.27 220.79 503.66
  Q 221.48 504.48 220.52 504.01
  C 217.75 502.66 206.57 499.26 206.19 505.09
  Z"
/>
<path fill="#eed0ca" d="
  M 402.36 527.77
  Q 406.58 524.50 411.42 527.14
  Q 413.03 528.02 411.20 528.11
  L 401.57 528.61
  Q 400.71 528.65 401.45 528.22
  Q 401.66 528.09 401.90 528.02
  A 1.74 1.70 15.9 0 0 402.36 527.77
  Z"
/>
<path fill="#464544" d="
  M 442.94 534.18
  C 448.36 533.96 453.88 534.28 459.33 534.00
  Q 474.53 533.23 488.59 533.30
  C 495.03 533.33 501.64 532.78 508.27 532.75
  Q 508.83 532.75 508.76 533.30
  L 508.74 533.56
  Q 508.66 534.24 507.97 534.29
  Q 500.71 534.78 493.30 534.73
  C 478.90 534.63 464.53 535.72 450.13 535.81
  Q 436.98 535.90 424.99 536.45
  C 411.85 537.06 399.24 536.86 386.29 537.37
  Q 377.54 537.71 367.14 537.76
  C 353.56 537.82 339.20 538.85 325.33 538.94
  Q 310.81 539.03 297.24 539.58
  Q 289.56 539.88 280.77 539.73
  C 278.73 539.70 276.91 540.40 274.92 540.22
  Q 270.43 539.82 266.51 539.23
  Q 265.14 539.02 266.53 538.92
  C 278.41 538.07 290.35 538.38 301.83 537.91
  Q 321.73 537.09 340.58 536.86
  Q 341.74 536.85 355.91 536.48
  Q 363.44 536.28 371.23 536.21
  Q 375.77 536.17 390.41 535.58
  C 407.88 534.88 425.66 534.88 442.94 534.18
  Z"
/>
<path fill="#314d97" d="
  M 182.95 618.84
  Q 180.88 616.12 176.63 614.28
  Q 180.70 611.22 177.04 607.95
  Q 173.46 604.74 172.36 602.77
  Q 169.83 598.22 169.05 592.32
  Q 166.99 576.76 166.60 561.52
  Q 166.47 556.51 167.44 545.74
  Q 167.50 545.12 168.04 545.43
  Q 171.06 547.13 173.99 546.17
  Q 174.55 545.99 174.63 546.58
  C 176.23 559.16 183.52 562.37 195.25 562.89
  C 205.15 563.33 214.84 562.48 223.62 558.02
  Q 233.77 552.86 236.33 543.29
  Q 236.49 542.68 237.12 542.75
  Q 255.69 544.96 275.56 547.45
  C 278.47 547.82 280.84 547.01 283.64 546.84
  C 292.26 546.31 301.73 547.02 310.78 546.13
  C 314.58 545.75 318.40 546.15 322.20 545.92
  Q 333.52 545.26 345.70 545.52
  C 348.55 545.58 351.24 544.78 354.07 545.06
  Q 354.78 545.13 355.00 545.82
  Q 359.82 560.95 361.29 575.86
  Q 362.20 584.99 360.17 594.75
  Q 358.82 601.26 354.61 604.51
  Q 351.36 607.02 345.27 610.04
  C 334.14 615.56 322.32 617.79 309.27 619.64
  Q 287.49 622.71 274.47 623.41
  Q 271.39 623.58 268.64 623.79
  Q 265.73 624.00 262.91 624.00
  C 257.17 624.01 250.96 624.38 245.18 623.68
  C 242.57 623.37 240.04 623.62 237.37 623.37
  Q 222.90 622.01 208.79 619.85
  Q 199.49 618.43 188.25 614.97
  Q 183.39 613.48 182.95 618.84
  Z"
/>
<path fill="#eed0ca" d="
  M 392.43 553.51
  C 388.65 552.03 383.10 548.75 380.72 545.02
  Q 380.41 544.54 380.98 544.53
  L 424.41 543.30
  A 0.39 0.38 -86.3 0 1 424.80 543.75
  Q 424.08 547.78 420.98 550.08
  C 412.84 556.09 401.34 557.01 392.43 553.51
  Z"
/>
<path fill="#676c66" d="
  M 176.63 614.28
  Q 180.88 616.12 182.95 618.84
  Q 184.89 621.97 191.00 623.50
  Q 197.45 625.12 204.01 626.23
  Q 220.36 629.00 233.72 630.23
  Q 242.91 631.07 258.05 631.06
  Q 268.36 631.05 277.62 630.36
  Q 304.97 628.35 328.32 623.50
  Q 337.28 621.63 345.40 617.95
  Q 345.77 617.78 345.90 618.17
  C 349.34 628.28 350.51 638.36 351.35 649.06
  Q 351.97 656.90 352.11 664.84
  C 352.34 677.48 352.33 687.21 351.39 700.00
  L 172.18 700.00
  Q 170.79 677.12 169.63 654.24
  Q 168.93 640.23 170.45 628.04
  Q 171.33 620.90 173.16 614.53
  Q 173.29 614.05 173.78 614.17
  Q 175.39 614.55 176.63 614.28
  Z"
/>
</svg>
