<?xml version="1.0" encoding="UTF-8"?>
<svg id="_레이어_2" data-name="레이어 2" xmlns="http://www.w3.org/2000/svg" viewBox="0 0 27.21 102.07">
  <defs>
    <style>
      .cls-1 {
        fill: #4e3e30;
      }

      .cls-1, .cls-2, .cls-3 {
        stroke-width: 0px;
      }

      .cls-2 {
        fill: #90da57;
      }

      .cls-3 {
        fill: #94815b;
      }
    </style>
  </defs>
  <g id="_레이어_1-2" data-name="레이어 1">
    <g>
      <path class="cls-3" d="M15.7,15.76c-2.9,3.78-5.6.25-6.8-2.6-.46-1.08-1.05-2.1-1.78-3.05C5.02,7.36,3.57,4.59,2.75,1.8,4.16.24,5.55-.3,6.92.16c.8.27,1.71,1.16,2.73,2.65,1.25,1.83,2.5,3.67,3.76,5.5,1.74,2.52,2.5,5,2.29,7.45Z"/>
      <path class="cls-1" d="M2.75,1.8c.82,2.79,2.28,5.56,4.37,8.31.73.95,1.32,1.97,1.78,3.05,1.2,2.85,3.9,6.38,6.8,2.6.95,1.48,1.24,3.26.87,5.33-.19,1.03-.46,1.39-.82,1.08-1.7-1.1-3.16-1.32-4.39-.67-.98.53-1.5,1.46-1.56,2.8-.04.95.04,2.1.25,3.47C2.89,23.31-.45,16.09.05,6.13.21,2.91,1.11,1.46,2.75,1.8Z"/>
      <path class="cls-2" d="M15.75,22.17c3.32,8.87,5.62,18.19,6.91,27.94,1.49,11.27,2.4,19.09,2.75,23.44.47,5.94.78,9.89.91,11.84.37,5.55.67,11.11.89,16.68l-6.34-1.1c-.83-17.59-2.75-35.7-5.78-54.35-1.19-7.33-2.87-13.62-5.04-18.85-.21-1.37-.29-2.52-.25-3.47.06-1.34.58-2.27,1.56-2.8,1.23-.65,2.69-.43,4.39.67Z"/>
    </g>
  </g>
</svg>