<?xml version="1.0" encoding="UTF-8"?>
<svg id="_레이어_2" data-name="레이어 2" xmlns="http://www.w3.org/2000/svg" viewBox="0 0 126.27 108.27">
  <defs>
    <style>
      .cls-1 {
        fill: #4e3e30;
      }

      .cls-1, .cls-2, .cls-3 {
        stroke-width: 0px;
      }

      .cls-2 {
        fill: #90da57;
      }

      .cls-3 {
        fill: #94815b;
      }
    </style>
  </defs>
  <g id="_레이어_1-2" data-name="레이어 1">
    <g>
      <g>
        <path class="cls-3" d="M15.7,21.96c-2.9,3.78-5.6.25-6.8-2.6-.46-1.08-1.05-2.1-1.78-3.05-2.09-2.75-3.55-5.52-4.37-8.31,1.41-1.55,2.8-2.1,4.17-1.64.8.27,1.71,1.16,2.73,2.65,1.25,1.83,2.5,3.67,3.76,5.5,1.74,2.52,2.5,5,2.29,7.45Z"/>
        <path class="cls-1" d="M2.75,8c.82,2.79,2.28,5.56,4.37,8.31.73.95,1.32,1.97,1.78,3.05,1.2,2.85,3.9,6.38,6.8,2.6.95,1.48,1.24,3.26.87,5.33-.19,1.03-.46,1.39-.82,1.08-1.7-1.1-3.16-1.32-4.39-.67-.98.53-1.5,1.46-1.56,2.8-.04.95.04,2.1.25,3.47C2.89,29.51-.45,22.29.05,12.33c.16-3.22,1.06-4.66,2.7-4.33Z"/>
        <path class="cls-2" d="M15.75,28.37c3.32,8.87,5.62,18.19,6.91,27.94,1.49,11.27,2.4,19.09,2.75,23.44.47,5.94.78,9.89.91,11.84.37,5.55.67,11.11.89,16.68l-6.34-1.1c-.83-17.59-2.75-35.7-5.78-54.35-1.19-7.33-2.87-13.62-5.04-18.85-.21-1.37-.29-2.52-.25-3.47.06-1.34.58-2.27,1.56-2.8,1.23-.65,2.69-.43,4.39.67Z"/>
      </g>
      <g>
        <path class="cls-3" d="M116.94.21c.22.04.43.14.59.29,2.27,2.18.93,5.21-2.03,5.56-6.42.76-11.58,5.37-15.4,10.42-2.07,2.73-5.22,2.22-5.79-1.23-.04-.26.02-.54.17-.77,3.04-4.84,6.94-8.78,11.72-11.83,3.57-2.27,7.15-3.08,10.75-2.44Z"/>
        <path class="cls-1" d="M104.85,29.65c-.71.25-1.44-.28-1.47-1.03-.07-2.11-.24-4.2-.5-6.27-.54-4.33-4.92-3.87-8.55-3.35-.75.11-1.38-.54-1.27-1.28,0-.01,0-.03,0-.04.15-.95,1.4-1.3,1.98-.53,1.2,1.62,3.44,1.45,5.04-.66,3.82-5.05,8.98-9.66,15.4-10.42,2.3-.28,3.62-2.16,3.04-4.01-.26-.81.45-1.62,1.29-1.44,2.08.46,3.67,1.31,4.76,2.57,2.5,2.86,1.96,6.68.1,9.96-4.5,7.94-11.11,13.44-19.83,16.5Z"/>
        <path class="cls-2" d="M103.42,29.99c0,.09,0,.18-.02.26-1.33,6.86-4.48,12.58-9.44,17.14-4.91,4.52-10.62,6.33-16.94,5.23-.88-.15-1.67.08-2.38.71-10.2,9-17.61,23.77-19.75,36.24-.81,4.7-.57,10.09.73,16.17.11.54-.17,1.08-.68,1.28l-2.41.94c-.63.24-1.35.22-1.94-.1-.33-.18-.64-.39-.91-.63-.18-.16-.3-.39-.35-.62-1.39-6.58-1.75-11.98-1.09-16.18,2.39-15.15,8.66-28.3,18.81-39.47,1.31-1.44,2.7-2.69,4.18-3.76.31-.22.44-.52.4-.9-.89-7.43,1.11-13.59,6-18.49,4.18-4.21,9.31-7.08,15.36-8.61.04-.01.09-.02.13-.03,3.78-.53,9.16-1.66,9.76,3.17.32,2.52.5,5.07.54,7.65ZM91.32,26.67c-6.64,2.68-12.54,7.52-13.49,14.21-.09.69.09.78.56.27l13.16-14.15c.43-.45.35-.56-.23-.33ZM82.24,46.46c6.86-1.44,11.73-7.77,13.87-14.09.23-.69.1-.77-.4-.24-4.42,4.69-8.68,9.99-13.63,13.98-.43.34-.37.46.16.35Z"/>
      </g>
    </g>
  </g>
</svg>